<svg width="3052" height="525" xmlns="http://www.w3.org/2000/svg" xmlns:xlink="http://www.w3.org/1999/xlink" overflow="hidden"><defs><clipPath id="clip0"><rect x="745" y="964" width="3052" height="525"/></clipPath></defs><g clip-path="url(#clip0)" transform="translate(-745 -964)"><path d="M745 1225 3796 1225" stroke="#262626" stroke-width="2.29167" stroke-linejoin="round" stroke-miterlimit="10" fill="none" fill-rule="evenodd"/><path d="M770.5 1008.48 796.283 1002.17 821.494 997.58 847.277 993.564 872.488 990.122 897.698 987.253 923.482 984.958 948.692 982.664 974.475 980.369 999.686 978.648 1024.9 977.5 1050.68 977.5 1075.89 978.648 1101.1 981.516 1126.88 987.253 1152.09 996.433 1177.88 1008.48 1203.09 1024.54 1228.87 1044.62 1254.08 1068.15 1279.29 1095.11 1304.5 1124.94 1330.29 1157.07 1355.5 1190.92 1381.28 1225.92 1406.49 1260.91 1432.27 1294.76 1457.49 1326.89 1482.7 1356.73 1507.91 1383.69 1533.69 1407.21 1558.9 1427.29 1584.68 1443.36 1609.89 1455.4 1635.68 1464.58 1660.89 1470.89 1686.1 1474.34 1711.88 1477.21 1737.09 1478.35 1762.3 1478.93 1788.09 1479.5 1813.3 1478.93 1839.08 1478.35 1864.29 1477.21 1889.5 1474.34 1915.28 1470.89 1940.5 1464.58 1966.28 1455.4 1991.49 1443.36 2016.7 1427.29 2042.48 1407.21 2067.69 1383.12 2093.48 1354.43 2118.69 1321.73 2143.9 1286.73 2169.68 1248.87 2194.89 1210.43 2220.68 1171.42 2245.89 1134.12 2271.1 1099.13 2296.88 1068.72 2322.09 1043.48 2347.3 1024.54 2373.08 1012.5 2398.29 1008.48 2424.08 1012.5 2449.29 1024.54 2475.07 1044.62 2500.28 1071.59 2525.49 1104.29 2550.7 1142.16 2576.49 1183.46 2601.7 1225.92 2627.48 1268.37 2652.69 1309.68 2678.47 1347.55 2703.68 1380.25 2728.9 1407.21 2754.68 1427.29 2779.89 1439.34 2805.1 1443.36 2830.88 1439.34 2856.09 1427.29 2881.88 1407.79 2907.09 1381.39 2932.3 1349.84 2958.08 1313.7 2983.29 1274.68 3009.08 1233.95 3034.29 1193.22 3059.5 1153.63 3085.28 1116.91 3110.49 1084.78 3136.27 1056.67 3161.48 1034.3 3186.69 1018.23 3212.48 1008.48 3237.69 1004.46 3263.47 1006.19 3288.68 1012.5 3313.89 1024.54 3339.68 1039.46 3364.89 1057.82 3390.1 1077.9 3415.88 1099.13 3441.09 1120.93 3466.87 1141.58 3492.08 1161.09 3517.87 1178.87 3543.08 1194.36 3568.29 1207.56 3593.5 1217.89" stroke="#00FFFF" stroke-width="9.16667" stroke-linejoin="round" stroke-miterlimit="10" fill="none" fill-rule="evenodd"/><path d="M761.5 1009C761.5 1003.75 765.529 999.5 770.5 999.5 775.471 999.5 779.5 1003.75 779.5 1009 779.5 1014.25 775.471 1018.5 770.5 1018.5 765.529 1018.5 761.5 1014.25 761.5 1009Z" stroke="#000000" stroke-width="0" stroke-linejoin="round" stroke-miterlimit="10" fill="#0000FF" fill-rule="evenodd"/><path d="M787.5 1226C787.5 1220.75 791.529 1216.5 796.5 1216.5 801.471 1216.5 805.5 1220.75 805.5 1226 805.5 1231.25 801.471 1235.5 796.5 1235.5 791.529 1235.5 787.5 1231.25 787.5 1226Z" stroke="#000000" stroke-width="0" stroke-linejoin="round" stroke-miterlimit="10" fill="#0000FF" fill-rule="evenodd"/><path d="M812.5 1454C812.5 1448.75 816.53 1444.5 821.5 1444.5 826.471 1444.5 830.5 1448.75 830.5 1454 830.5 1459.25 826.471 1463.5 821.5 1463.5 816.53 1463.5 812.5 1459.25 812.5 1454Z" stroke="#000000" stroke-width="0" stroke-linejoin="round" stroke-miterlimit="10" fill="#0000FF" fill-rule="evenodd"/><path d="M838.5 1226C838.5 1220.75 842.305 1216.5 847 1216.5 851.694 1216.5 855.5 1220.75 855.5 1226 855.5 1231.25 851.694 1235.5 847 1235.5 842.305 1235.5 838.5 1231.25 838.5 1226Z" stroke="#000000" stroke-width="0" stroke-linejoin="round" stroke-miterlimit="10" fill="#0000FF" fill-rule="evenodd"/><path d="M863.5 990.5C863.5 985.529 867.529 981.5 872.5 981.5 877.47 981.5 881.5 985.529 881.5 990.5 881.5 995.471 877.47 999.5 872.5 999.5 867.529 999.5 863.5 995.471 863.5 990.5Z" stroke="#000000" stroke-width="0" stroke-linejoin="round" stroke-miterlimit="10" fill="#0000FF" fill-rule="evenodd"/><path d="M888.5 1226C888.5 1220.75 892.53 1216.5 897.5 1216.5 902.471 1216.5 906.5 1220.75 906.5 1226 906.5 1231.25 902.471 1235.5 897.5 1235.5 892.53 1235.5 888.5 1231.25 888.5 1226Z" stroke="#000000" stroke-width="0" stroke-linejoin="round" stroke-miterlimit="10" fill="#0000FF" fill-rule="evenodd"/><path d="M914.5 1466.5C914.5 1461.53 918.529 1457.5 923.5 1457.5 928.471 1457.5 932.5 1461.53 932.5 1466.5 932.5 1471.47 928.471 1475.5 923.5 1475.5 918.529 1475.5 914.5 1471.47 914.5 1466.5Z" stroke="#000000" stroke-width="0" stroke-linejoin="round" stroke-miterlimit="10" fill="#0000FF" fill-rule="evenodd"/><path d="M939.5 1226C939.5 1220.75 943.529 1216.5 948.5 1216.5 953.47 1216.5 957.5 1220.75 957.5 1226 957.5 1231.25 953.47 1235.5 948.5 1235.5 943.529 1235.5 939.5 1231.25 939.5 1226Z" stroke="#000000" stroke-width="0" stroke-linejoin="round" stroke-miterlimit="10" fill="#0000FF" fill-rule="evenodd"/><path d="M964.5 980.5C964.5 975.529 968.753 971.5 974 971.5 979.247 971.5 983.5 975.529 983.5 980.5 983.5 985.471 979.247 989.5 974 989.5 968.753 989.5 964.5 985.471 964.5 980.5Z" stroke="#000000" stroke-width="0" stroke-linejoin="round" stroke-miterlimit="10" fill="#0000FF" fill-rule="evenodd"/><path d="M990.5 1226C990.5 1220.75 994.529 1216.5 999.5 1216.5 1004.47 1216.5 1008.5 1220.75 1008.5 1226 1008.5 1231.25 1004.47 1235.5 999.5 1235.5 994.529 1235.5 990.5 1231.25 990.5 1226Z" stroke="#000000" stroke-width="0" stroke-linejoin="round" stroke-miterlimit="10" fill="#0000FF" fill-rule="evenodd"/><path d="M1015.5 1474C1015.5 1468.75 1019.75 1464.5 1025 1464.5 1030.25 1464.5 1034.5 1468.75 1034.5 1474 1034.5 1479.25 1030.25 1483.5 1025 1483.5 1019.75 1483.5 1015.5 1479.25 1015.5 1474Z" stroke="#000000" stroke-width="0" stroke-linejoin="round" stroke-miterlimit="10" fill="#0000FF" fill-rule="evenodd"/><path d="M1041.5 1226C1041.5 1220.75 1045.53 1216.5 1050.5 1216.5 1055.47 1216.5 1059.5 1220.75 1059.5 1226 1059.5 1231.25 1055.47 1235.5 1050.5 1235.5 1045.53 1235.5 1041.5 1231.25 1041.5 1226Z" stroke="#000000" stroke-width="0" stroke-linejoin="round" stroke-miterlimit="10" fill="#0000FF" fill-rule="evenodd"/><path d="M1066.5 979C1066.5 973.753 1070.75 969.5 1076 969.5 1081.25 969.5 1085.5 973.753 1085.5 979 1085.5 984.247 1081.25 988.5 1076 988.5 1070.75 988.5 1066.5 984.247 1066.5 979Z" stroke="#000000" stroke-width="0" stroke-linejoin="round" stroke-miterlimit="10" fill="#0000FF" fill-rule="evenodd"/><path d="M1092.5 1226C1092.5 1220.75 1096.53 1216.5 1101.5 1216.5 1106.47 1216.5 1110.5 1220.75 1110.5 1226 1110.5 1231.25 1106.47 1235.5 1101.5 1235.5 1096.53 1235.5 1092.5 1231.25 1092.5 1226Z" stroke="#000000" stroke-width="0" stroke-linejoin="round" stroke-miterlimit="10" fill="#0000FF" fill-rule="evenodd"/><path d="M1117.5 1464.5C1117.5 1459.53 1121.75 1455.5 1127 1455.5 1132.25 1455.5 1136.5 1459.53 1136.5 1464.5 1136.5 1469.47 1132.25 1473.5 1127 1473.5 1121.75 1473.5 1117.5 1469.47 1117.5 1464.5Z" stroke="#000000" stroke-width="0" stroke-linejoin="round" stroke-miterlimit="10" fill="#0000FF" fill-rule="evenodd"/><path d="M1142.5 1226C1142.5 1220.75 1146.75 1216.5 1152 1216.5 1157.25 1216.5 1161.5 1220.75 1161.5 1226 1161.5 1231.25 1157.25 1235.5 1152 1235.5 1146.75 1235.5 1142.5 1231.25 1142.5 1226Z" stroke="#000000" stroke-width="0" stroke-linejoin="round" stroke-miterlimit="10" fill="#0000FF" fill-rule="evenodd"/><path d="M1168.5 1009C1168.5 1003.75 1172.75 999.5 1178 999.5 1183.25 999.5 1187.5 1003.75 1187.5 1009 1187.5 1014.25 1183.25 1018.5 1178 1018.5 1172.75 1018.5 1168.5 1014.25 1168.5 1009Z" stroke="#000000" stroke-width="0" stroke-linejoin="round" stroke-miterlimit="10" fill="#0000FF" fill-rule="evenodd"/><path d="M1193.5 1226C1193.5 1220.75 1197.75 1216.5 1203 1216.5 1208.25 1216.5 1212.5 1220.75 1212.5 1226 1212.5 1231.25 1208.25 1235.5 1203 1235.5 1197.75 1235.5 1193.5 1231.25 1193.5 1226Z" stroke="#000000" stroke-width="0" stroke-linejoin="round" stroke-miterlimit="10" fill="#0000FF" fill-rule="evenodd"/><path d="M1219.5 1407C1219.5 1401.75 1223.53 1397.5 1228.5 1397.5 1233.47 1397.5 1237.5 1401.75 1237.5 1407 1237.5 1412.25 1233.47 1416.5 1228.5 1416.5 1223.53 1416.5 1219.5 1412.25 1219.5 1407Z" stroke="#000000" stroke-width="0" stroke-linejoin="round" stroke-miterlimit="10" fill="#0000FF" fill-rule="evenodd"/><path d="M1244.5 1226C1244.5 1220.75 1248.75 1216.5 1254 1216.5 1259.25 1216.5 1263.5 1220.75 1263.5 1226 1263.5 1231.25 1259.25 1235.5 1254 1235.5 1248.75 1235.5 1244.5 1231.25 1244.5 1226Z" stroke="#000000" stroke-width="0" stroke-linejoin="round" stroke-miterlimit="10" fill="#0000FF" fill-rule="evenodd"/><path d="M1270.5 1095.5C1270.5 1090.53 1274.53 1086.5 1279.5 1086.5 1284.47 1086.5 1288.5 1090.53 1288.5 1095.5 1288.5 1100.47 1284.47 1104.5 1279.5 1104.5 1274.53 1104.5 1270.5 1100.47 1270.5 1095.5Z" stroke="#000000" stroke-width="0" stroke-linejoin="round" stroke-miterlimit="10" fill="#0000FF" fill-rule="evenodd"/><path d="M1295.5 1226C1295.5 1220.75 1299.75 1216.5 1305 1216.5 1310.25 1216.5 1314.5 1220.75 1314.5 1226 1314.5 1231.25 1310.25 1235.5 1305 1235.5 1299.75 1235.5 1295.5 1231.25 1295.5 1226Z" stroke="#000000" stroke-width="0" stroke-linejoin="round" stroke-miterlimit="10" fill="#0000FF" fill-rule="evenodd"/><path d="M1321.5 1294.5C1321.5 1289.53 1325.53 1285.5 1330.5 1285.5 1335.47 1285.5 1339.5 1289.53 1339.5 1294.5 1339.5 1299.47 1335.47 1303.5 1330.5 1303.5 1325.53 1303.5 1321.5 1299.47 1321.5 1294.5Z" stroke="#000000" stroke-width="0" stroke-linejoin="round" stroke-miterlimit="10" fill="#0000FF" fill-rule="evenodd"/><path d="M1346.5 1226C1346.5 1220.75 1350.75 1216.5 1356 1216.5 1361.25 1216.5 1365.5 1220.75 1365.5 1226 1365.5 1231.25 1361.25 1235.5 1356 1235.5 1350.75 1235.5 1346.5 1231.25 1346.5 1226Z" stroke="#000000" stroke-width="0" stroke-linejoin="round" stroke-miterlimit="10" fill="#0000FF" fill-rule="evenodd"/><path d="M1372.5 1226C1372.5 1220.75 1376.53 1216.5 1381.5 1216.5 1386.47 1216.5 1390.5 1220.75 1390.5 1226 1390.5 1231.25 1386.47 1235.5 1381.5 1235.5 1376.53 1235.5 1372.5 1231.25 1372.5 1226Z" stroke="#000000" stroke-width="0" stroke-linejoin="round" stroke-miterlimit="10" fill="#0000FF" fill-rule="evenodd"/><path d="M1397.5 1226C1397.5 1220.75 1401.53 1216.5 1406.5 1216.5 1411.47 1216.5 1415.5 1220.75 1415.5 1226 1415.5 1231.25 1411.47 1235.5 1406.5 1235.5 1401.53 1235.5 1397.5 1231.25 1397.5 1226Z" stroke="#000000" stroke-width="0" stroke-linejoin="round" stroke-miterlimit="10" fill="#0000FF" fill-rule="evenodd"/><path d="M1422.5 1157.5C1422.5 1152.53 1426.53 1148.5 1431.5 1148.5 1436.47 1148.5 1440.5 1152.53 1440.5 1157.5 1440.5 1162.47 1436.47 1166.5 1431.5 1166.5 1426.53 1166.5 1422.5 1162.47 1422.5 1157.5Z" stroke="#000000" stroke-width="0" stroke-linejoin="round" stroke-miterlimit="10" fill="#0000FF" fill-rule="evenodd"/><path d="M1448.5 1226C1448.5 1220.75 1452.53 1216.5 1457.5 1216.5 1462.47 1216.5 1466.5 1220.75 1466.5 1226 1466.5 1231.25 1462.47 1235.5 1457.5 1235.5 1452.53 1235.5 1448.5 1231.25 1448.5 1226Z" stroke="#000000" stroke-width="0" stroke-linejoin="round" stroke-miterlimit="10" fill="#0000FF" fill-rule="evenodd"/><path d="M1473.5 1356.5C1473.5 1351.53 1477.53 1347.5 1482.5 1347.5 1487.47 1347.5 1491.5 1351.53 1491.5 1356.5 1491.5 1361.47 1487.47 1365.5 1482.5 1365.5 1477.53 1365.5 1473.5 1361.47 1473.5 1356.5Z" stroke="#000000" stroke-width="0" stroke-linejoin="round" stroke-miterlimit="10" fill="#0000FF" fill-rule="evenodd"/><path d="M1499.5 1226C1499.5 1220.75 1503.53 1216.5 1508.5 1216.5 1513.47 1216.5 1517.5 1220.75 1517.5 1226 1517.5 1231.25 1513.47 1235.5 1508.5 1235.5 1503.53 1235.5 1499.5 1231.25 1499.5 1226Z" stroke="#000000" stroke-width="0" stroke-linejoin="round" stroke-miterlimit="10" fill="#0000FF" fill-rule="evenodd"/><path d="M1524.5 1045C1524.5 1039.75 1528.53 1035.5 1533.5 1035.5 1538.47 1035.5 1542.5 1039.75 1542.5 1045 1542.5 1050.25 1538.47 1054.5 1533.5 1054.5 1528.53 1054.5 1524.5 1050.25 1524.5 1045Z" stroke="#000000" stroke-width="0" stroke-linejoin="round" stroke-miterlimit="10" fill="#0000FF" fill-rule="evenodd"/><path d="M1549.5 1226C1549.5 1220.75 1553.75 1216.5 1559 1216.5 1564.25 1216.5 1568.5 1220.75 1568.5 1226 1568.5 1231.25 1564.25 1235.5 1559 1235.5 1553.75 1235.5 1549.5 1231.25 1549.5 1226Z" stroke="#000000" stroke-width="0" stroke-linejoin="round" stroke-miterlimit="10" fill="#0000FF" fill-rule="evenodd"/><path d="M1575.5 1443C1575.5 1437.75 1579.53 1433.5 1584.5 1433.5 1589.47 1433.5 1593.5 1437.75 1593.5 1443 1593.5 1448.25 1589.47 1452.5 1584.5 1452.5 1579.53 1452.5 1575.5 1448.25 1575.5 1443Z" stroke="#000000" stroke-width="0" stroke-linejoin="round" stroke-miterlimit="10" fill="#0000FF" fill-rule="evenodd"/><path d="M1600.5 1226C1600.5 1220.75 1604.53 1216.5 1609.5 1216.5 1614.47 1216.5 1618.5 1220.75 1618.5 1226 1618.5 1231.25 1614.47 1235.5 1609.5 1235.5 1604.53 1235.5 1600.5 1231.25 1600.5 1226Z" stroke="#000000" stroke-width="0" stroke-linejoin="round" stroke-miterlimit="10" fill="#0000FF" fill-rule="evenodd"/><path d="M1626.5 988C1626.5 982.753 1630.53 978.5 1635.5 978.5 1640.47 978.5 1644.5 982.753 1644.5 988 1644.5 993.247 1640.47 997.5 1635.5 997.5 1630.53 997.5 1626.5 993.247 1626.5 988Z" stroke="#000000" stroke-width="0" stroke-linejoin="round" stroke-miterlimit="10" fill="#0000FF" fill-rule="evenodd"/><path d="M1651.5 1226C1651.5 1220.75 1655.53 1216.5 1660.5 1216.5 1665.47 1216.5 1669.5 1220.75 1669.5 1226 1669.5 1231.25 1665.47 1235.5 1660.5 1235.5 1655.53 1235.5 1651.5 1231.25 1651.5 1226Z" stroke="#000000" stroke-width="0" stroke-linejoin="round" stroke-miterlimit="10" fill="#0000FF" fill-rule="evenodd"/><path d="M1676.5 1474.5C1676.5 1469.53 1680.75 1465.5 1686 1465.5 1691.25 1465.5 1695.5 1469.53 1695.5 1474.5 1695.5 1479.47 1691.25 1483.5 1686 1483.5 1680.75 1483.5 1676.5 1479.47 1676.5 1474.5Z" stroke="#000000" stroke-width="0" stroke-linejoin="round" stroke-miterlimit="10" fill="#0000FF" fill-rule="evenodd"/><path d="M1702.5 1226C1702.5 1220.75 1706.53 1216.5 1711.5 1216.5 1716.47 1216.5 1720.5 1220.75 1720.5 1226 1720.5 1231.25 1716.47 1235.5 1711.5 1235.5 1706.53 1235.5 1702.5 1231.25 1702.5 1226Z" stroke="#000000" stroke-width="0" stroke-linejoin="round" stroke-miterlimit="10" fill="#0000FF" fill-rule="evenodd"/><path d="M1727.5 974C1727.5 968.753 1731.75 964.5 1737 964.5 1742.25 964.5 1746.5 968.753 1746.5 974 1746.5 979.247 1742.25 983.5 1737 983.5 1731.75 983.5 1727.5 979.247 1727.5 974Z" stroke="#000000" stroke-width="0" stroke-linejoin="round" stroke-miterlimit="10" fill="#0000FF" fill-rule="evenodd"/><path d="M1753.5 1226C1753.5 1220.75 1757.53 1216.5 1762.5 1216.5 1767.47 1216.5 1771.5 1220.75 1771.5 1226 1771.5 1231.25 1767.47 1235.5 1762.5 1235.5 1757.53 1235.5 1753.5 1231.25 1753.5 1226Z" stroke="#000000" stroke-width="0" stroke-linejoin="round" stroke-miterlimit="10" fill="#0000FF" fill-rule="evenodd"/><path d="M1778.5 1479.5C1778.5 1474.53 1782.75 1470.5 1788 1470.5 1793.25 1470.5 1797.5 1474.53 1797.5 1479.5 1797.5 1484.47 1793.25 1488.5 1788 1488.5 1782.75 1488.5 1778.5 1484.47 1778.5 1479.5Z" stroke="#000000" stroke-width="0" stroke-linejoin="round" stroke-miterlimit="10" fill="#0000FF" fill-rule="evenodd"/><path d="M1804.5 1226C1804.5 1220.75 1808.53 1216.5 1813.5 1216.5 1818.47 1216.5 1822.5 1220.75 1822.5 1226 1822.5 1231.25 1818.47 1235.5 1813.5 1235.5 1808.53 1235.5 1804.5 1231.25 1804.5 1226Z" stroke="#000000" stroke-width="0" stroke-linejoin="round" stroke-miterlimit="10" fill="#0000FF" fill-rule="evenodd"/><path d="M1829.5 974C1829.5 968.753 1833.75 964.5 1839 964.5 1844.25 964.5 1848.5 968.753 1848.5 974 1848.5 979.247 1844.25 983.5 1839 983.5 1833.75 983.5 1829.5 979.247 1829.5 974Z" stroke="#000000" stroke-width="0" stroke-linejoin="round" stroke-miterlimit="10" fill="#0000FF" fill-rule="evenodd"/><path d="M1855.5 1226C1855.5 1220.75 1859.53 1216.5 1864.5 1216.5 1869.47 1216.5 1873.5 1220.75 1873.5 1226 1873.5 1231.25 1869.47 1235.5 1864.5 1235.5 1859.53 1235.5 1855.5 1231.25 1855.5 1226Z" stroke="#000000" stroke-width="0" stroke-linejoin="round" stroke-miterlimit="10" fill="#0000FF" fill-rule="evenodd"/><path d="M1880.5 1474.5C1880.5 1469.53 1884.53 1465.5 1889.5 1465.5 1894.47 1465.5 1898.5 1469.53 1898.5 1474.5 1898.5 1479.47 1894.47 1483.5 1889.5 1483.5 1884.53 1483.5 1880.5 1479.47 1880.5 1474.5Z" stroke="#000000" stroke-width="0" stroke-linejoin="round" stroke-miterlimit="10" fill="#0000FF" fill-rule="evenodd"/><path d="M1906.5 1226C1906.5 1220.75 1910.53 1216.5 1915.5 1216.5 1920.47 1216.5 1924.5 1220.75 1924.5 1226 1924.5 1231.25 1920.47 1235.5 1915.5 1235.5 1910.53 1235.5 1906.5 1231.25 1906.5 1226Z" stroke="#000000" stroke-width="0" stroke-linejoin="round" stroke-miterlimit="10" fill="#0000FF" fill-rule="evenodd"/><path d="M1931.5 988C1931.5 982.753 1935.53 978.5 1940.5 978.5 1945.47 978.5 1949.5 982.753 1949.5 988 1949.5 993.247 1945.47 997.5 1940.5 997.5 1935.53 997.5 1931.5 993.247 1931.5 988Z" stroke="#000000" stroke-width="0" stroke-linejoin="round" stroke-miterlimit="10" fill="#0000FF" fill-rule="evenodd"/><path d="M1957.5 1226C1957.5 1220.75 1961.53 1216.5 1966.5 1216.5 1971.47 1216.5 1975.5 1220.75 1975.5 1226 1975.5 1231.25 1971.47 1235.5 1966.5 1235.5 1961.53 1235.5 1957.5 1231.25 1957.5 1226Z" stroke="#000000" stroke-width="0" stroke-linejoin="round" stroke-miterlimit="10" fill="#0000FF" fill-rule="evenodd"/><path d="M1982.5 1443C1982.5 1437.75 1986.53 1433.5 1991.5 1433.5 1996.47 1433.5 2000.5 1437.75 2000.5 1443 2000.5 1448.25 1996.47 1452.5 1991.5 1452.5 1986.53 1452.5 1982.5 1448.25 1982.5 1443Z" stroke="#000000" stroke-width="0" stroke-linejoin="round" stroke-miterlimit="10" fill="#0000FF" fill-rule="evenodd"/><path d="M2007.5 1226C2007.5 1220.75 2011.53 1216.5 2016.5 1216.5 2021.47 1216.5 2025.5 1220.75 2025.5 1226 2025.5 1231.25 2021.47 1235.5 2016.5 1235.5 2011.53 1235.5 2007.5 1231.25 2007.5 1226Z" stroke="#000000" stroke-width="0" stroke-linejoin="round" stroke-miterlimit="10" fill="#0000FF" fill-rule="evenodd"/><path d="M2033.5 1045C2033.5 1039.75 2037.53 1035.5 2042.5 1035.5 2047.47 1035.5 2051.5 1039.75 2051.5 1045 2051.5 1050.25 2047.47 1054.5 2042.5 1054.5 2037.53 1054.5 2033.5 1050.25 2033.5 1045Z" stroke="#000000" stroke-width="0" stroke-linejoin="round" stroke-miterlimit="10" fill="#0000FF" fill-rule="evenodd"/><path d="M2058.5 1226C2058.5 1220.75 2062.53 1216.5 2067.5 1216.5 2072.47 1216.5 2076.5 1220.75 2076.5 1226 2076.5 1231.25 2072.47 1235.5 2067.5 1235.5 2062.53 1235.5 2058.5 1231.25 2058.5 1226Z" stroke="#000000" stroke-width="0" stroke-linejoin="round" stroke-miterlimit="10" fill="#0000FF" fill-rule="evenodd"/><path d="M2084.5 1354.5C2084.5 1349.53 2088.53 1345.5 2093.5 1345.5 2098.47 1345.5 2102.5 1349.53 2102.5 1354.5 2102.5 1359.47 2098.47 1363.5 2093.5 1363.5 2088.53 1363.5 2084.5 1359.47 2084.5 1354.5Z" stroke="#000000" stroke-width="0" stroke-linejoin="round" stroke-miterlimit="10" fill="#0000FF" fill-rule="evenodd"/><path d="M2109.5 1226C2109.5 1220.75 2113.53 1216.5 2118.5 1216.5 2123.47 1216.5 2127.5 1220.75 2127.5 1226 2127.5 1231.25 2123.47 1235.5 2118.5 1235.5 2113.53 1235.5 2109.5 1231.25 2109.5 1226Z" stroke="#000000" stroke-width="0" stroke-linejoin="round" stroke-miterlimit="10" fill="#0000FF" fill-rule="evenodd"/><path d="M2134.5 1165.5C2134.5 1160.53 2138.53 1156.5 2143.5 1156.5 2148.47 1156.5 2152.5 1160.53 2152.5 1165.5 2152.5 1170.47 2148.47 1174.5 2143.5 1174.5 2138.53 1174.5 2134.5 1170.47 2134.5 1165.5Z" stroke="#000000" stroke-width="0" stroke-linejoin="round" stroke-miterlimit="10" fill="#0000FF" fill-rule="evenodd"/><path d="M2160.5 1226C2160.5 1220.75 2164.53 1216.5 2169.5 1216.5 2174.47 1216.5 2178.5 1220.75 2178.5 1226 2178.5 1231.25 2174.47 1235.5 2169.5 1235.5 2164.53 1235.5 2160.5 1231.25 2160.5 1226Z" stroke="#000000" stroke-width="0" stroke-linejoin="round" stroke-miterlimit="10" fill="#0000FF" fill-rule="evenodd"/><path d="M2185.5 1210.5C2185.5 1205.53 2189.53 1201.5 2194.5 1201.5 2199.47 1201.5 2203.5 1205.53 2203.5 1210.5 2203.5 1215.47 2199.47 1219.5 2194.5 1219.5 2189.53 1219.5 2185.5 1215.47 2185.5 1210.5Z" stroke="#000000" stroke-width="0" stroke-linejoin="round" stroke-miterlimit="10" fill="#0000FF" fill-rule="evenodd"/><path d="M2210.5 1226C2210.5 1220.75 2214.75 1216.5 2220 1216.5 2225.25 1216.5 2229.5 1220.75 2229.5 1226 2229.5 1231.25 2225.25 1235.5 2220 1235.5 2214.75 1235.5 2210.5 1231.25 2210.5 1226Z" stroke="#000000" stroke-width="0" stroke-linejoin="round" stroke-miterlimit="10" fill="#0000FF" fill-rule="evenodd"/><path d="M2236.5 1317.5C2236.5 1312.53 2240.53 1308.5 2245.5 1308.5 2250.47 1308.5 2254.5 1312.53 2254.5 1317.5 2254.5 1322.47 2250.47 1326.5 2245.5 1326.5 2240.53 1326.5 2236.5 1322.47 2236.5 1317.5Z" stroke="#000000" stroke-width="0" stroke-linejoin="round" stroke-miterlimit="10" fill="#0000FF" fill-rule="evenodd"/><path d="M2261.5 1226C2261.5 1220.75 2265.75 1216.5 2271 1216.5 2276.25 1216.5 2280.5 1220.75 2280.5 1226 2280.5 1231.25 2276.25 1235.5 2271 1235.5 2265.75 1235.5 2261.5 1231.25 2261.5 1226Z" stroke="#000000" stroke-width="0" stroke-linejoin="round" stroke-miterlimit="10" fill="#0000FF" fill-rule="evenodd"/><path d="M2287.5 1069C2287.5 1063.75 2291.53 1059.5 2296.5 1059.5 2301.47 1059.5 2305.5 1063.75 2305.5 1069 2305.5 1074.25 2301.47 1078.5 2296.5 1078.5 2291.53 1078.5 2287.5 1074.25 2287.5 1069Z" stroke="#000000" stroke-width="0" stroke-linejoin="round" stroke-miterlimit="10" fill="#0000FF" fill-rule="evenodd"/><path d="M2312.5 1226C2312.5 1220.75 2316.75 1216.5 2322 1216.5 2327.25 1216.5 2331.5 1220.75 2331.5 1226 2331.5 1231.25 2327.25 1235.5 2322 1235.5 2316.75 1235.5 2312.5 1231.25 2312.5 1226Z" stroke="#000000" stroke-width="0" stroke-linejoin="round" stroke-miterlimit="10" fill="#0000FF" fill-rule="evenodd"/><path d="M2338.5 1427C2338.5 1421.75 2342.53 1417.5 2347.5 1417.5 2352.47 1417.5 2356.5 1421.75 2356.5 1427 2356.5 1432.25 2352.47 1436.5 2347.5 1436.5 2342.53 1436.5 2338.5 1432.25 2338.5 1427Z" stroke="#000000" stroke-width="0" stroke-linejoin="round" stroke-miterlimit="10" fill="#0000FF" fill-rule="evenodd"/><path d="M2363.5 1226C2363.5 1220.75 2367.75 1216.5 2373 1216.5 2378.25 1216.5 2382.5 1220.75 2382.5 1226 2382.5 1231.25 2378.25 1235.5 2373 1235.5 2367.75 1235.5 2363.5 1231.25 2363.5 1226Z" stroke="#000000" stroke-width="0" stroke-linejoin="round" stroke-miterlimit="10" fill="#0000FF" fill-rule="evenodd"/><path d="M2388.5 1009C2388.5 1003.75 2392.75 999.5 2398 999.5 2403.25 999.5 2407.5 1003.75 2407.5 1009 2407.5 1014.25 2403.25 1018.5 2398 1018.5 2392.75 1018.5 2388.5 1014.25 2388.5 1009Z" stroke="#000000" stroke-width="0" stroke-linejoin="round" stroke-miterlimit="10" fill="#0000FF" fill-rule="evenodd"/><path d="M2414.5 1226C2414.5 1220.75 2418.75 1216.5 2424 1216.5 2429.25 1216.5 2433.5 1220.75 2433.5 1226 2433.5 1231.25 2429.25 1235.5 2424 1235.5 2418.75 1235.5 2414.5 1231.25 2414.5 1226Z" stroke="#000000" stroke-width="0" stroke-linejoin="round" stroke-miterlimit="10" fill="#0000FF" fill-rule="evenodd"/><path d="M2439.5 1427C2439.5 1421.75 2443.75 1417.5 2449 1417.5 2454.25 1417.5 2458.5 1421.75 2458.5 1427 2458.5 1432.25 2454.25 1436.5 2449 1436.5 2443.75 1436.5 2439.5 1432.25 2439.5 1427Z" stroke="#000000" stroke-width="0" stroke-linejoin="round" stroke-miterlimit="10" fill="#0000FF" fill-rule="evenodd"/><path d="M2465.5 1226C2465.5 1220.75 2469.53 1216.5 2474.5 1216.5 2479.47 1216.5 2483.5 1220.75 2483.5 1226 2483.5 1231.25 2479.47 1235.5 2474.5 1235.5 2469.53 1235.5 2465.5 1231.25 2465.5 1226Z" stroke="#000000" stroke-width="0" stroke-linejoin="round" stroke-miterlimit="10" fill="#0000FF" fill-rule="evenodd"/><path d="M2490.5 1072C2490.5 1066.75 2494.75 1062.5 2500 1062.5 2505.25 1062.5 2509.5 1066.75 2509.5 1072 2509.5 1077.25 2505.25 1081.5 2500 1081.5 2494.75 1081.5 2490.5 1077.25 2490.5 1072Z" stroke="#000000" stroke-width="0" stroke-linejoin="round" stroke-miterlimit="10" fill="#0000FF" fill-rule="evenodd"/><path d="M2516.5 1226C2516.5 1220.75 2520.53 1216.5 2525.5 1216.5 2530.47 1216.5 2534.5 1220.75 2534.5 1226 2534.5 1231.25 2530.47 1235.5 2525.5 1235.5 2520.53 1235.5 2516.5 1231.25 2516.5 1226Z" stroke="#000000" stroke-width="0" stroke-linejoin="round" stroke-miterlimit="10" fill="#0000FF" fill-rule="evenodd"/><path d="M2541.5 1309.5C2541.5 1304.53 2545.75 1300.5 2551 1300.5 2556.25 1300.5 2560.5 1304.53 2560.5 1309.5 2560.5 1314.47 2556.25 1318.5 2551 1318.5 2545.75 1318.5 2541.5 1314.47 2541.5 1309.5Z" stroke="#000000" stroke-width="0" stroke-linejoin="round" stroke-miterlimit="10" fill="#0000FF" fill-rule="evenodd"/><path d="M2567.5 1226C2567.5 1220.75 2571.53 1216.5 2576.5 1216.5 2581.47 1216.5 2585.5 1220.75 2585.5 1226 2585.5 1231.25 2581.47 1235.5 2576.5 1235.5 2571.53 1235.5 2567.5 1231.25 2567.5 1226Z" stroke="#000000" stroke-width="0" stroke-linejoin="round" stroke-miterlimit="10" fill="#0000FF" fill-rule="evenodd"/><path d="M2592.5 1226C2592.5 1220.75 2596.75 1216.5 2602 1216.5 2607.25 1216.5 2611.5 1220.75 2611.5 1226 2611.5 1231.25 2607.25 1235.5 2602 1235.5 2596.75 1235.5 2592.5 1231.25 2592.5 1226Z" stroke="#000000" stroke-width="0" stroke-linejoin="round" stroke-miterlimit="10" fill="#0000FF" fill-rule="evenodd"/><path d="M2618.5 1226C2618.5 1220.75 2622.53 1216.5 2627.5 1216.5 2632.47 1216.5 2636.5 1220.75 2636.5 1226 2636.5 1231.25 2632.47 1235.5 2627.5 1235.5 2622.53 1235.5 2618.5 1231.25 2618.5 1226Z" stroke="#000000" stroke-width="0" stroke-linejoin="round" stroke-miterlimit="10" fill="#0000FF" fill-rule="evenodd"/><path d="M2643.5 1142.5C2643.5 1137.53 2647.53 1133.5 2652.5 1133.5 2657.47 1133.5 2661.5 1137.53 2661.5 1142.5 2661.5 1147.47 2657.47 1151.5 2652.5 1151.5 2647.53 1151.5 2643.5 1147.47 2643.5 1142.5Z" stroke="#000000" stroke-width="0" stroke-linejoin="round" stroke-miterlimit="10" fill="#0000FF" fill-rule="evenodd"/><path d="M2669.5 1226C2669.5 1220.75 2673.31 1216.5 2678 1216.5 2682.69 1216.5 2686.5 1220.75 2686.5 1226 2686.5 1231.25 2682.69 1235.5 2678 1235.5 2673.31 1235.5 2669.5 1231.25 2669.5 1226Z" stroke="#000000" stroke-width="0" stroke-linejoin="round" stroke-miterlimit="10" fill="#0000FF" fill-rule="evenodd"/><path d="M2694.5 1380C2694.5 1374.75 2698.53 1370.5 2703.5 1370.5 2708.47 1370.5 2712.5 1374.75 2712.5 1380 2712.5 1385.25 2708.47 1389.5 2703.5 1389.5 2698.53 1389.5 2694.5 1385.25 2694.5 1380Z" stroke="#000000" stroke-width="0" stroke-linejoin="round" stroke-miterlimit="10" fill="#0000FF" fill-rule="evenodd"/><path d="M2719.5 1226C2719.5 1220.75 2723.53 1216.5 2728.5 1216.5 2733.47 1216.5 2737.5 1220.75 2737.5 1226 2737.5 1231.25 2733.47 1235.5 2728.5 1235.5 2723.53 1235.5 2719.5 1231.25 2719.5 1226Z" stroke="#000000" stroke-width="0" stroke-linejoin="round" stroke-miterlimit="10" fill="#0000FF" fill-rule="evenodd"/><path d="M2745.5 1025C2745.5 1019.75 2749.53 1015.5 2754.5 1015.5 2759.47 1015.5 2763.5 1019.75 2763.5 1025 2763.5 1030.25 2759.47 1034.5 2754.5 1034.5 2749.53 1034.5 2745.5 1030.25 2745.5 1025Z" stroke="#000000" stroke-width="0" stroke-linejoin="round" stroke-miterlimit="10" fill="#0000FF" fill-rule="evenodd"/><path d="M2770.5 1226C2770.5 1220.75 2774.53 1216.5 2779.5 1216.5 2784.47 1216.5 2788.5 1220.75 2788.5 1226 2788.5 1231.25 2784.47 1235.5 2779.5 1235.5 2774.53 1235.5 2770.5 1231.25 2770.5 1226Z" stroke="#000000" stroke-width="0" stroke-linejoin="round" stroke-miterlimit="10" fill="#0000FF" fill-rule="evenodd"/><path d="M2795.5 1443C2795.5 1437.75 2799.75 1433.5 2805 1433.5 2810.25 1433.5 2814.5 1437.75 2814.5 1443 2814.5 1448.25 2810.25 1452.5 2805 1452.5 2799.75 1452.5 2795.5 1448.25 2795.5 1443Z" stroke="#000000" stroke-width="0" stroke-linejoin="round" stroke-miterlimit="10" fill="#0000FF" fill-rule="evenodd"/><path d="M2821.5 1226C2821.5 1220.75 2825.53 1216.5 2830.5 1216.5 2835.47 1216.5 2839.5 1220.75 2839.5 1226 2839.5 1231.25 2835.47 1235.5 2830.5 1235.5 2825.53 1235.5 2821.5 1231.25 2821.5 1226Z" stroke="#000000" stroke-width="0" stroke-linejoin="round" stroke-miterlimit="10" fill="#0000FF" fill-rule="evenodd"/><path d="M2846.5 1025C2846.5 1019.75 2850.75 1015.5 2856 1015.5 2861.25 1015.5 2865.5 1019.75 2865.5 1025 2865.5 1030.25 2861.25 1034.5 2856 1034.5 2850.75 1034.5 2846.5 1030.25 2846.5 1025Z" stroke="#000000" stroke-width="0" stroke-linejoin="round" stroke-miterlimit="10" fill="#0000FF" fill-rule="evenodd"/><path d="M2872.5 1226C2872.5 1220.75 2876.53 1216.5 2881.5 1216.5 2886.47 1216.5 2890.5 1220.75 2890.5 1226 2890.5 1231.25 2886.47 1235.5 2881.5 1235.5 2876.53 1235.5 2872.5 1231.25 2872.5 1226Z" stroke="#000000" stroke-width="0" stroke-linejoin="round" stroke-miterlimit="10" fill="#0000FF" fill-rule="evenodd"/><path d="M2897.5 1381.5C2897.5 1376.53 2901.75 1372.5 2907 1372.5 2912.25 1372.5 2916.5 1376.53 2916.5 1381.5 2916.5 1386.47 2912.25 1390.5 2907 1390.5 2901.75 1390.5 2897.5 1386.47 2897.5 1381.5Z" stroke="#000000" stroke-width="0" stroke-linejoin="round" stroke-miterlimit="10" fill="#0000FF" fill-rule="evenodd"/><path d="M2923.5 1226C2923.5 1220.75 2927.53 1216.5 2932.5 1216.5 2937.47 1216.5 2941.5 1220.75 2941.5 1226 2941.5 1231.25 2937.47 1235.5 2932.5 1235.5 2927.53 1235.5 2923.5 1231.25 2923.5 1226Z" stroke="#000000" stroke-width="0" stroke-linejoin="round" stroke-miterlimit="10" fill="#0000FF" fill-rule="evenodd"/><path d="M2948.5 1138.5C2948.5 1133.53 2952.75 1129.5 2958 1129.5 2963.25 1129.5 2967.5 1133.53 2967.5 1138.5 2967.5 1143.47 2963.25 1147.5 2958 1147.5 2952.75 1147.5 2948.5 1143.47 2948.5 1138.5Z" stroke="#000000" stroke-width="0" stroke-linejoin="round" stroke-miterlimit="10" fill="#0000FF" fill-rule="evenodd"/><path d="M2973.5 1226C2973.5 1220.75 2977.75 1216.5 2983 1216.5 2988.25 1216.5 2992.5 1220.75 2992.5 1226 2992.5 1231.25 2988.25 1235.5 2983 1235.5 2977.75 1235.5 2973.5 1231.25 2973.5 1226Z" stroke="#000000" stroke-width="0" stroke-linejoin="round" stroke-miterlimit="10" fill="#0000FF" fill-rule="evenodd"/><path d="M2999.5 1234C2999.5 1228.75 3003.75 1224.5 3009 1224.5 3014.25 1224.5 3018.5 1228.75 3018.5 1234 3018.5 1239.25 3014.25 1243.5 3009 1243.5 3003.75 1243.5 2999.5 1239.25 2999.5 1234Z" stroke="#000000" stroke-width="0" stroke-linejoin="round" stroke-miterlimit="10" fill="#0000FF" fill-rule="evenodd"/><path d="M3024.5 1226C3024.5 1220.75 3028.75 1216.5 3034 1216.5 3039.25 1216.5 3043.5 1220.75 3043.5 1226 3043.5 1231.25 3039.25 1235.5 3034 1235.5 3028.75 1235.5 3024.5 1231.25 3024.5 1226Z" stroke="#000000" stroke-width="0" stroke-linejoin="round" stroke-miterlimit="10" fill="#0000FF" fill-rule="evenodd"/><path d="M3050.5 1298C3050.5 1292.75 3054.53 1288.5 3059.5 1288.5 3064.47 1288.5 3068.5 1292.75 3068.5 1298 3068.5 1303.25 3064.47 1307.5 3059.5 1307.5 3054.53 1307.5 3050.5 1303.25 3050.5 1298Z" stroke="#000000" stroke-width="0" stroke-linejoin="round" stroke-miterlimit="10" fill="#0000FF" fill-rule="evenodd"/><path d="M3075.5 1226C3075.5 1220.75 3079.75 1216.5 3085 1216.5 3090.25 1216.5 3094.5 1220.75 3094.5 1226 3094.5 1231.25 3090.25 1235.5 3085 1235.5 3079.75 1235.5 3075.5 1231.25 3075.5 1226Z" stroke="#000000" stroke-width="0" stroke-linejoin="round" stroke-miterlimit="10" fill="#0000FF" fill-rule="evenodd"/><path d="M3101.5 1085C3101.5 1079.75 3105.53 1075.5 3110.5 1075.5 3115.47 1075.5 3119.5 1079.75 3119.5 1085 3119.5 1090.25 3115.47 1094.5 3110.5 1094.5 3105.53 1094.5 3101.5 1090.25 3101.5 1085Z" stroke="#000000" stroke-width="0" stroke-linejoin="round" stroke-miterlimit="10" fill="#0000FF" fill-rule="evenodd"/><path d="M3126.5 1226C3126.5 1220.75 3130.53 1216.5 3135.5 1216.5 3140.47 1216.5 3144.5 1220.75 3144.5 1226 3144.5 1231.25 3140.47 1235.5 3135.5 1235.5 3130.53 1235.5 3126.5 1231.25 3126.5 1226Z" stroke="#000000" stroke-width="0" stroke-linejoin="round" stroke-miterlimit="10" fill="#0000FF" fill-rule="evenodd"/><path d="M3152.5 1417.5C3152.5 1412.53 3156.53 1408.5 3161.5 1408.5 3166.47 1408.5 3170.5 1412.53 3170.5 1417.5 3170.5 1422.47 3166.47 1426.5 3161.5 1426.5 3156.53 1426.5 3152.5 1422.47 3152.5 1417.5Z" stroke="#000000" stroke-width="0" stroke-linejoin="round" stroke-miterlimit="10" fill="#0000FF" fill-rule="evenodd"/><path d="M3177.5 1226C3177.5 1220.75 3181.53 1216.5 3186.5 1216.5 3191.47 1216.5 3195.5 1220.75 3195.5 1226 3195.5 1231.25 3191.47 1235.5 3186.5 1235.5 3181.53 1235.5 3177.5 1231.25 3177.5 1226Z" stroke="#000000" stroke-width="0" stroke-linejoin="round" stroke-miterlimit="10" fill="#0000FF" fill-rule="evenodd"/><path d="M3203.5 1009C3203.5 1003.75 3207.53 999.5 3212.5 999.5 3217.47 999.5 3221.5 1003.75 3221.5 1009 3221.5 1014.25 3217.47 1018.5 3212.5 1018.5 3207.53 1018.5 3203.5 1014.25 3203.5 1009Z" stroke="#000000" stroke-width="0" stroke-linejoin="round" stroke-miterlimit="10" fill="#0000FF" fill-rule="evenodd"/><path d="M3228.5 1226C3228.5 1220.75 3232.53 1216.5 3237.5 1216.5 3242.47 1216.5 3246.5 1220.75 3246.5 1226 3246.5 1231.25 3242.47 1235.5 3237.5 1235.5 3232.53 1235.5 3228.5 1231.25 3228.5 1226Z" stroke="#000000" stroke-width="0" stroke-linejoin="round" stroke-miterlimit="10" fill="#0000FF" fill-rule="evenodd"/><path d="M3253.5 1446C3253.5 1440.75 3257.75 1436.5 3263 1436.5 3268.25 1436.5 3272.5 1440.75 3272.5 1446 3272.5 1451.25 3268.25 1455.5 3263 1455.5 3257.75 1455.5 3253.5 1451.25 3253.5 1446Z" stroke="#000000" stroke-width="0" stroke-linejoin="round" stroke-miterlimit="10" fill="#0000FF" fill-rule="evenodd"/><path d="M3279.5 1226C3279.5 1220.75 3283.53 1216.5 3288.5 1216.5 3293.47 1216.5 3297.5 1220.75 3297.5 1226 3297.5 1231.25 3293.47 1235.5 3288.5 1235.5 3283.53 1235.5 3279.5 1231.25 3279.5 1226Z" stroke="#000000" stroke-width="0" stroke-linejoin="round" stroke-miterlimit="10" fill="#0000FF" fill-rule="evenodd"/><path d="M3304.5 1025C3304.5 1019.75 3308.53 1015.5 3313.5 1015.5 3318.47 1015.5 3322.5 1019.75 3322.5 1025 3322.5 1030.25 3318.47 1034.5 3313.5 1034.5 3308.53 1034.5 3304.5 1030.25 3304.5 1025Z" stroke="#000000" stroke-width="0" stroke-linejoin="round" stroke-miterlimit="10" fill="#0000FF" fill-rule="evenodd"/><path d="M3330.5 1226C3330.5 1220.75 3334.53 1216.5 3339.5 1216.5 3344.47 1216.5 3348.5 1220.75 3348.5 1226 3348.5 1231.25 3344.47 1235.5 3339.5 1235.5 3334.53 1235.5 3330.5 1231.25 3330.5 1226Z" stroke="#000000" stroke-width="0" stroke-linejoin="round" stroke-miterlimit="10" fill="#0000FF" fill-rule="evenodd"/><path d="M3355.5 1394C3355.5 1388.75 3359.53 1384.5 3364.5 1384.5 3369.47 1384.5 3373.5 1388.75 3373.5 1394 3373.5 1399.25 3369.47 1403.5 3364.5 1403.5 3359.53 1403.5 3355.5 1399.25 3355.5 1394Z" stroke="#000000" stroke-width="0" stroke-linejoin="round" stroke-miterlimit="10" fill="#0000FF" fill-rule="evenodd"/><path d="M3381.5 1226C3381.5 1220.75 3385.53 1216.5 3390.5 1216.5 3395.47 1216.5 3399.5 1220.75 3399.5 1226 3399.5 1231.25 3395.47 1235.5 3390.5 1235.5 3385.53 1235.5 3381.5 1231.25 3381.5 1226Z" stroke="#000000" stroke-width="0" stroke-linejoin="round" stroke-miterlimit="10" fill="#0000FF" fill-rule="evenodd"/><path d="M3406.5 1099.5C3406.5 1094.53 3410.53 1090.5 3415.5 1090.5 3420.47 1090.5 3424.5 1094.53 3424.5 1099.5 3424.5 1104.47 3420.47 1108.5 3415.5 1108.5 3410.53 1108.5 3406.5 1104.47 3406.5 1099.5Z" stroke="#000000" stroke-width="0" stroke-linejoin="round" stroke-miterlimit="10" fill="#0000FF" fill-rule="evenodd"/><path d="M3431.5 1226C3431.5 1220.75 3435.75 1216.5 3441 1216.5 3446.25 1216.5 3450.5 1220.75 3450.5 1226 3450.5 1231.25 3446.25 1235.5 3441 1235.5 3435.75 1235.5 3431.5 1231.25 3431.5 1226Z" stroke="#000000" stroke-width="0" stroke-linejoin="round" stroke-miterlimit="10" fill="#0000FF" fill-rule="evenodd"/><path d="M3456.5 1310.5C3456.5 1305.53 3460.75 1301.5 3466 1301.5 3471.25 1301.5 3475.5 1305.53 3475.5 1310.5 3475.5 1315.47 3471.25 1319.5 3466 1319.5 3460.75 1319.5 3456.5 1315.47 3456.5 1310.5Z" stroke="#000000" stroke-width="0" stroke-linejoin="round" stroke-miterlimit="10" fill="#0000FF" fill-rule="evenodd"/><path d="M3482.5 1226C3482.5 1220.75 3486.75 1216.5 3492 1216.5 3497.25 1216.5 3501.5 1220.75 3501.5 1226 3501.5 1231.25 3497.25 1235.5 3492 1235.5 3486.75 1235.5 3482.5 1231.25 3482.5 1226Z" stroke="#000000" stroke-width="0" stroke-linejoin="round" stroke-miterlimit="10" fill="#0000FF" fill-rule="evenodd"/><path d="M3507.5 1179C3507.5 1173.75 3511.75 1169.5 3517 1169.5 3522.25 1169.5 3526.5 1173.75 3526.5 1179 3526.5 1184.25 3522.25 1188.5 3517 1188.5 3511.75 1188.5 3507.5 1184.25 3507.5 1179Z" stroke="#000000" stroke-width="0" stroke-linejoin="round" stroke-miterlimit="10" fill="#0000FF" fill-rule="evenodd"/><path d="M3533.5 1226C3533.5 1220.75 3537.75 1216.5 3543 1216.5 3548.25 1216.5 3552.5 1220.75 3552.5 1226 3552.5 1231.25 3548.25 1235.5 3543 1235.5 3537.75 1235.5 3533.5 1231.25 3533.5 1226Z" stroke="#000000" stroke-width="0" stroke-linejoin="round" stroke-miterlimit="10" fill="#0000FF" fill-rule="evenodd"/><path d="M3558.5 1244.5C3558.5 1239.53 3562.75 1235.5 3568 1235.5 3573.25 1235.5 3577.5 1239.53 3577.5 1244.5 3577.5 1249.47 3573.25 1253.5 3568 1253.5 3562.75 1253.5 3558.5 1249.47 3558.5 1244.5Z" stroke="#000000" stroke-width="0" stroke-linejoin="round" stroke-miterlimit="10" fill="#0000FF" fill-rule="evenodd"/><path d="M3584.5 1226C3584.5 1220.75 3588.75 1216.5 3594 1216.5 3599.25 1216.5 3603.5 1220.75 3603.5 1226 3603.5 1231.25 3599.25 1235.5 3594 1235.5 3588.75 1235.5 3584.5 1231.25 3584.5 1226Z" stroke="#000000" stroke-width="0" stroke-linejoin="round" stroke-miterlimit="10" fill="#0000FF" fill-rule="evenodd"/><path d="M0 0 0.000360892 217" stroke="#0000FF" stroke-width="2.29167" stroke-linejoin="round" stroke-miterlimit="10" fill="none" fill-rule="evenodd" transform="matrix(1 0 0 -1 770 1225)"/><path d="M821 1225 821 1453" stroke="#0000FF" stroke-width="2.29167" stroke-linejoin="round" stroke-miterlimit="10" fill="none" fill-rule="evenodd"/><path d="M0 0 0.000360892 235" stroke="#0000FF" stroke-width="2.29167" stroke-linejoin="round" stroke-miterlimit="10" fill="none" fill-rule="evenodd" transform="matrix(1 0 0 -1 872 1225)"/><path d="M923 1225 923 1466" stroke="#0000FF" stroke-width="2.29167" stroke-linejoin="round" stroke-miterlimit="10" fill="none" fill-rule="evenodd"/><path d="M0 0 0.000360892 245" stroke="#0000FF" stroke-width="2.29167" stroke-linejoin="round" stroke-miterlimit="10" fill="none" fill-rule="evenodd" transform="matrix(1 0 0 -1 974 1225)"/><path d="M1024 1225 1024 1474" stroke="#0000FF" stroke-width="2.29167" stroke-linejoin="round" stroke-miterlimit="10" fill="none" fill-rule="evenodd"/><path d="M0 0 0.000360892 246" stroke="#0000FF" stroke-width="2.29167" stroke-linejoin="round" stroke-miterlimit="10" fill="none" fill-rule="evenodd" transform="matrix(1 0 0 -1 1075 1225)"/><path d="M1126 1225 1126 1464" stroke="#0000FF" stroke-width="2.29167" stroke-linejoin="round" stroke-miterlimit="10" fill="none" fill-rule="evenodd"/><path d="M0 0 0.000360892 217" stroke="#0000FF" stroke-width="2.29167" stroke-linejoin="round" stroke-miterlimit="10" fill="none" fill-rule="evenodd" transform="matrix(1 0 0 -1 1177 1225)"/><path d="M1228 1225 1228 1407" stroke="#0000FF" stroke-width="2.29167" stroke-linejoin="round" stroke-miterlimit="10" fill="none" fill-rule="evenodd"/><path d="M0 0 0.000360892 130" stroke="#0000FF" stroke-width="2.29167" stroke-linejoin="round" stroke-miterlimit="10" fill="none" fill-rule="evenodd" transform="matrix(1 0 0 -1 1279 1225)"/><path d="M1330 1225 1330 1294" stroke="#0000FF" stroke-width="2.29167" stroke-linejoin="round" stroke-miterlimit="10" fill="none" fill-rule="evenodd"/><path d="M0 0 0.000360892 68.0001" stroke="#0000FF" stroke-width="2.29167" stroke-linejoin="round" stroke-miterlimit="10" fill="none" fill-rule="evenodd" transform="matrix(1 0 0 -1 1432 1225)"/><path d="M1482 1225 1482 1356" stroke="#0000FF" stroke-width="2.29167" stroke-linejoin="round" stroke-miterlimit="10" fill="none" fill-rule="evenodd"/><path d="M0 0 0.000360892 181" stroke="#0000FF" stroke-width="2.29167" stroke-linejoin="round" stroke-miterlimit="10" fill="none" fill-rule="evenodd" transform="matrix(1 0 0 -1 1533 1225)"/><path d="M1584 1225 1584 1443" stroke="#0000FF" stroke-width="2.29167" stroke-linejoin="round" stroke-miterlimit="10" fill="none" fill-rule="evenodd"/><path d="M0 0 0.000360892 238" stroke="#0000FF" stroke-width="2.29167" stroke-linejoin="round" stroke-miterlimit="10" fill="none" fill-rule="evenodd" transform="matrix(1 0 0 -1 1635 1225)"/><path d="M1686 1225 1686 1474" stroke="#0000FF" stroke-width="2.29167" stroke-linejoin="round" stroke-miterlimit="10" fill="none" fill-rule="evenodd"/><path d="M0 0 0.000360892 252" stroke="#0000FF" stroke-width="2.29167" stroke-linejoin="round" stroke-miterlimit="10" fill="none" fill-rule="evenodd" transform="matrix(1 0 0 -1 1737 1225)"/><path d="M1788 1225 1788 1479" stroke="#0000FF" stroke-width="2.29167" stroke-linejoin="round" stroke-miterlimit="10" fill="none" fill-rule="evenodd"/><path d="M0 0 0.000360892 252" stroke="#0000FF" stroke-width="2.29167" stroke-linejoin="round" stroke-miterlimit="10" fill="none" fill-rule="evenodd" transform="matrix(1 0 0 -1 1838 1225)"/><path d="M1889 1225 1889 1474" stroke="#0000FF" stroke-width="2.29167" stroke-linejoin="round" stroke-miterlimit="10" fill="none" fill-rule="evenodd"/><path d="M0 0 0.000360892 238" stroke="#0000FF" stroke-width="2.29167" stroke-linejoin="round" stroke-miterlimit="10" fill="none" fill-rule="evenodd" transform="matrix(1 0 0 -1 1940 1225)"/><path d="M1991 1225 1991 1443" stroke="#0000FF" stroke-width="2.29167" stroke-linejoin="round" stroke-miterlimit="10" fill="none" fill-rule="evenodd"/><path d="M0 0 0.000360892 181" stroke="#0000FF" stroke-width="2.29167" stroke-linejoin="round" stroke-miterlimit="10" fill="none" fill-rule="evenodd" transform="matrix(1 0 0 -1 2042 1225)"/><path d="M2093 1225 2093 1354" stroke="#0000FF" stroke-width="2.29167" stroke-linejoin="round" stroke-miterlimit="10" fill="none" fill-rule="evenodd"/><path d="M0 0 0.000360892 60.0002" stroke="#0000FF" stroke-width="2.29167" stroke-linejoin="round" stroke-miterlimit="10" fill="none" fill-rule="evenodd" transform="matrix(1 0 0 -1 2143 1225)"/><path d="M0 0 0.000360892 15.0001" stroke="#0000FF" stroke-width="2.29167" stroke-linejoin="round" stroke-miterlimit="10" fill="none" fill-rule="evenodd" transform="matrix(1 0 0 -1 2194 1225)"/><path d="M2245 1225 2245 1317" stroke="#0000FF" stroke-width="2.29167" stroke-linejoin="round" stroke-miterlimit="10" fill="none" fill-rule="evenodd"/><path d="M0 0 0.000360892 157" stroke="#0000FF" stroke-width="2.29167" stroke-linejoin="round" stroke-miterlimit="10" fill="none" fill-rule="evenodd" transform="matrix(1 0 0 -1 2296 1225)"/><path d="M2347 1225 2347 1427" stroke="#0000FF" stroke-width="2.29167" stroke-linejoin="round" stroke-miterlimit="10" fill="none" fill-rule="evenodd"/><path d="M0 0 0.000360892 217" stroke="#0000FF" stroke-width="2.29167" stroke-linejoin="round" stroke-miterlimit="10" fill="none" fill-rule="evenodd" transform="matrix(1 0 0 -1 2398 1225)"/><path d="M2449 1225 2449 1427" stroke="#0000FF" stroke-width="2.29167" stroke-linejoin="round" stroke-miterlimit="10" fill="none" fill-rule="evenodd"/><path d="M0 0 0.000360892 154" stroke="#0000FF" stroke-width="2.29167" stroke-linejoin="round" stroke-miterlimit="10" fill="none" fill-rule="evenodd" transform="matrix(1 0 0 -1 2500 1225)"/><path d="M2550 1225 2550 1309" stroke="#0000FF" stroke-width="2.29167" stroke-linejoin="round" stroke-miterlimit="10" fill="none" fill-rule="evenodd"/><path d="M0 0 0.000360892 83.0002" stroke="#0000FF" stroke-width="2.29167" stroke-linejoin="round" stroke-miterlimit="10" fill="none" fill-rule="evenodd" transform="matrix(1 0 0 -1 2652 1225)"/><path d="M2703 1225 2703 1380" stroke="#0000FF" stroke-width="2.29167" stroke-linejoin="round" stroke-miterlimit="10" fill="none" fill-rule="evenodd"/><path d="M0 0 0.000360892 201" stroke="#0000FF" stroke-width="2.29167" stroke-linejoin="round" stroke-miterlimit="10" fill="none" fill-rule="evenodd" transform="matrix(1 0 0 -1 2754 1225)"/><path d="M2804 1225 2804 1443" stroke="#0000FF" stroke-width="2.29167" stroke-linejoin="round" stroke-miterlimit="10" fill="none" fill-rule="evenodd"/><path d="M0 0 0.000360892 201" stroke="#0000FF" stroke-width="2.29167" stroke-linejoin="round" stroke-miterlimit="10" fill="none" fill-rule="evenodd" transform="matrix(1 0 0 -1 2855 1225)"/><path d="M2906 1225 2906 1381" stroke="#0000FF" stroke-width="2.29167" stroke-linejoin="round" stroke-miterlimit="10" fill="none" fill-rule="evenodd"/><path d="M0 0 0.000360892 87" stroke="#0000FF" stroke-width="2.29167" stroke-linejoin="round" stroke-miterlimit="10" fill="none" fill-rule="evenodd" transform="matrix(1 0 0 -1 2957 1225)"/><path d="M3008 1225 3008 1233" stroke="#0000FF" stroke-width="2.29167" stroke-linejoin="round" stroke-miterlimit="10" fill="none" fill-rule="evenodd"/><path d="M3059 1225 3059 1298" stroke="#0000FF" stroke-width="2.29167" stroke-linejoin="round" stroke-miterlimit="10" fill="none" fill-rule="evenodd"/><path d="M0 0 0.000360892 140" stroke="#0000FF" stroke-width="2.29167" stroke-linejoin="round" stroke-miterlimit="10" fill="none" fill-rule="evenodd" transform="matrix(1 0 0 -1 3110 1225)"/><path d="M3161 1225 3161 1417" stroke="#0000FF" stroke-width="2.29167" stroke-linejoin="round" stroke-miterlimit="10" fill="none" fill-rule="evenodd"/><path d="M0 0 0.000360892 217" stroke="#0000FF" stroke-width="2.29167" stroke-linejoin="round" stroke-miterlimit="10" fill="none" fill-rule="evenodd" transform="matrix(1 0 0 -1 3212 1225)"/><path d="M3263 1225 3263 1445" stroke="#0000FF" stroke-width="2.29167" stroke-linejoin="round" stroke-miterlimit="10" fill="none" fill-rule="evenodd"/><path d="M0 0 0.000360892 201" stroke="#0000FF" stroke-width="2.29167" stroke-linejoin="round" stroke-miterlimit="10" fill="none" fill-rule="evenodd" transform="matrix(1 0 0 -1 3313 1225)"/><path d="M3364 1225 3364 1393" stroke="#0000FF" stroke-width="2.29167" stroke-linejoin="round" stroke-miterlimit="10" fill="none" fill-rule="evenodd"/><path d="M0 0 0.000360892 126" stroke="#0000FF" stroke-width="2.29167" stroke-linejoin="round" stroke-miterlimit="10" fill="none" fill-rule="evenodd" transform="matrix(1 0 0 -1 3415 1225)"/><path d="M3466 1225 3466 1310" stroke="#0000FF" stroke-width="2.29167" stroke-linejoin="round" stroke-miterlimit="10" fill="none" fill-rule="evenodd"/><path d="M0 0 0.000360892 47.0001" stroke="#0000FF" stroke-width="2.29167" stroke-linejoin="round" stroke-miterlimit="10" fill="none" fill-rule="evenodd" transform="matrix(1 0 0 -1 3517 1225)"/><path d="M3568 1225 3568 1244" stroke="#0000FF" stroke-width="2.29167" stroke-linejoin="round" stroke-miterlimit="10" fill="none" fill-rule="evenodd"/><path d="M770.5 1008.64 796.283 1002.33 821.494 997.742 847.277 993.727 872.488 990.284 897.698 987.416 923.482 985.121 948.692 982.826 974.475 980.532 999.686 978.811 1024.9 977.663 1050.68 977.663 1075.89 978.811 1101.1 981.679 1126.88 987.416 1152.09 996.595 1177.88 1008.64 1203.09 1024.71 1228.87 1044.78 1254.08 1068.88 1279.29 1097.56 1304.5 1130.26 1330.29 1165.26 1355.5 1203.12 1381.28 1241.56 1406.49 1280.57 1432.27 1317.86 1457.49 1352.86 1482.7 1383.26 1507.91 1408.5 1533.69 1427.44 1558.9 1439.48 1584.68 1443.5 1609.89 1439.48 1635.68 1427.44 1660.89 1408.5 1686.1 1383.26 1711.88 1352.86 1737.09 1317.86 1762.3 1280.57 1788.09 1241.56 1813.3 1203.12 1839.08 1165.26 1864.29 1130.26 1889.5 1097.56 1915.28 1068.88 1940.5 1044.78 1966.28 1024.71 1991.49 1008.64 2016.7 996.595 2042.48 987.416 2067.69 981.105 2093.48 977.663 2118.69 974.795 2143.9 973.647 2169.68 973.074 2194.89 972.5 2220.68 973.074 2245.89 973.647 2271.1 974.795 2296.88 977.663 2322.09 981.105 2347.3 987.416 2373.08 996.595 2398.29 1008.64 2424.08 1024.71 2449.29 1044.78 2475.07 1068.88 2500.28 1097.56 2525.49 1130.26 2550.7 1165.26 2576.49 1203.12 2601.7 1241.56 2627.48 1280.57 2652.69 1317.86 2678.47 1352.86 2703.68 1383.26 2728.9 1408.5 2754.68 1427.44 2779.89 1439.48 2805.1 1443.5 2830.88 1439.48 2856.09 1427.44 2881.88 1407.93 2907.09 1381.54 2932.3 1349.99 2958.08 1313.85 2983.29 1274.83 3009.08 1234.1 3034.29 1193.37 3059.5 1153.79 3085.28 1117.07 3110.49 1084.94 3136.27 1056.83 3161.48 1034.46 3186.69 1018.4 3212.48 1008.64 3237.69 1004.63 3263.47 1006.35 3288.68 1012.66 3313.89 1024.71 3339.68 1039.62 3364.89 1057.98 3390.1 1078.06 3415.88 1099.29 3441.09 1121.09 3466.87 1141.74 3492.08 1161.24 3517.87 1179.03 3543.08 1194.52 3568.29 1207.71 3593.5 1218.04" stroke="#FF00FF" stroke-width="9.16667" stroke-linejoin="round" stroke-miterlimit="10" fill="none" fill-rule="evenodd"/><path d="M761.5 1226C761.5 1220.75 765.529 1216.5 770.5 1216.5 775.471 1216.5 779.5 1220.75 779.5 1226 779.5 1231.25 775.471 1235.5 770.5 1235.5 765.529 1235.5 761.5 1231.25 761.5 1226Z" stroke="#000000" stroke-width="0" stroke-linejoin="round" stroke-miterlimit="10" fill="#FF0000" fill-rule="evenodd"/><path d="M787.5 1449.5C787.5 1444.53 791.529 1440.5 796.5 1440.5 801.471 1440.5 805.5 1444.53 805.5 1449.5 805.5 1454.47 801.471 1458.5 796.5 1458.5 791.529 1458.5 787.5 1454.47 787.5 1449.5Z" stroke="#000000" stroke-width="0" stroke-linejoin="round" stroke-miterlimit="10" fill="#FF0000" fill-rule="evenodd"/><path d="M812.5 1226C812.5 1220.75 816.53 1216.5 821.5 1216.5 826.471 1216.5 830.5 1220.75 830.5 1226 830.5 1231.25 826.471 1235.5 821.5 1235.5 816.53 1235.5 812.5 1231.25 812.5 1226Z" stroke="#000000" stroke-width="0" stroke-linejoin="round" stroke-miterlimit="10" fill="#FF0000" fill-rule="evenodd"/><path d="M838.5 994C838.5 988.753 842.305 984.5 847 984.5 851.694 984.5 855.5 988.753 855.5 994 855.5 999.247 851.694 1003.5 847 1003.5 842.305 1003.5 838.5 999.247 838.5 994Z" stroke="#000000" stroke-width="0" stroke-linejoin="round" stroke-miterlimit="10" fill="#FF0000" fill-rule="evenodd"/><path d="M863.5 1226C863.5 1220.75 867.529 1216.5 872.5 1216.5 877.47 1216.5 881.5 1220.75 881.5 1226 881.5 1231.25 877.47 1235.5 872.5 1235.5 867.529 1235.5 863.5 1231.25 863.5 1226Z" stroke="#000000" stroke-width="0" stroke-linejoin="round" stroke-miterlimit="10" fill="#FF0000" fill-rule="evenodd"/><path d="M888.5 1464.5C888.5 1459.53 892.53 1455.5 897.5 1455.5 902.471 1455.5 906.5 1459.53 906.5 1464.5 906.5 1469.47 902.471 1473.5 897.5 1473.5 892.53 1473.5 888.5 1469.47 888.5 1464.5Z" stroke="#000000" stroke-width="0" stroke-linejoin="round" stroke-miterlimit="10" fill="#FF0000" fill-rule="evenodd"/><path d="M914.5 1226C914.5 1220.75 918.529 1216.5 923.5 1216.5 928.471 1216.5 932.5 1220.75 932.5 1226 932.5 1231.25 928.471 1235.5 923.5 1235.5 918.529 1235.5 914.5 1231.25 914.5 1226Z" stroke="#000000" stroke-width="0" stroke-linejoin="round" stroke-miterlimit="10" fill="#FF0000" fill-rule="evenodd"/><path d="M939.5 983C939.5 977.753 943.529 973.5 948.5 973.5 953.47 973.5 957.5 977.753 957.5 983 957.5 988.247 953.47 992.5 948.5 992.5 943.529 992.5 939.5 988.247 939.5 983Z" stroke="#000000" stroke-width="0" stroke-linejoin="round" stroke-miterlimit="10" fill="#FF0000" fill-rule="evenodd"/><path d="M964.5 1226C964.5 1220.75 968.753 1216.5 974 1216.5 979.247 1216.5 983.5 1220.75 983.5 1226 983.5 1231.25 979.247 1235.5 974 1235.5 968.753 1235.5 964.5 1231.25 964.5 1226Z" stroke="#000000" stroke-width="0" stroke-linejoin="round" stroke-miterlimit="10" fill="#FF0000" fill-rule="evenodd"/><path d="M990.5 1473C990.5 1467.75 994.529 1463.5 999.5 1463.5 1004.47 1463.5 1008.5 1467.75 1008.5 1473 1008.5 1478.25 1004.47 1482.5 999.5 1482.5 994.529 1482.5 990.5 1478.25 990.5 1473Z" stroke="#000000" stroke-width="0" stroke-linejoin="round" stroke-miterlimit="10" fill="#FF0000" fill-rule="evenodd"/><path d="M1015.5 1226C1015.5 1220.75 1019.75 1216.5 1025 1216.5 1030.25 1216.5 1034.5 1220.75 1034.5 1226 1034.5 1231.25 1030.25 1235.5 1025 1235.5 1019.75 1235.5 1015.5 1231.25 1015.5 1226Z" stroke="#000000" stroke-width="0" stroke-linejoin="round" stroke-miterlimit="10" fill="#FF0000" fill-rule="evenodd"/><path d="M1041.5 978C1041.5 972.753 1045.53 968.5 1050.5 968.5 1055.47 968.5 1059.5 972.753 1059.5 978 1059.5 983.247 1055.47 987.5 1050.5 987.5 1045.53 987.5 1041.5 983.247 1041.5 978Z" stroke="#000000" stroke-width="0" stroke-linejoin="round" stroke-miterlimit="10" fill="#FF0000" fill-rule="evenodd"/><path d="M1066.5 1226C1066.5 1220.75 1070.75 1216.5 1076 1216.5 1081.25 1216.5 1085.5 1220.75 1085.5 1226 1085.5 1231.25 1081.25 1235.5 1076 1235.5 1070.75 1235.5 1066.5 1231.25 1066.5 1226Z" stroke="#000000" stroke-width="0" stroke-linejoin="round" stroke-miterlimit="10" fill="#FF0000" fill-rule="evenodd"/><path d="M1092.5 1470C1092.5 1464.75 1096.53 1460.5 1101.5 1460.5 1106.47 1460.5 1110.5 1464.75 1110.5 1470 1110.5 1475.25 1106.47 1479.5 1101.5 1479.5 1096.53 1479.5 1092.5 1475.25 1092.5 1470Z" stroke="#000000" stroke-width="0" stroke-linejoin="round" stroke-miterlimit="10" fill="#FF0000" fill-rule="evenodd"/><path d="M1117.5 1226C1117.5 1220.75 1121.75 1216.5 1127 1216.5 1132.25 1216.5 1136.5 1220.75 1136.5 1226 1136.5 1231.25 1132.25 1235.5 1127 1235.5 1121.75 1235.5 1117.5 1231.25 1117.5 1226Z" stroke="#000000" stroke-width="0" stroke-linejoin="round" stroke-miterlimit="10" fill="#FF0000" fill-rule="evenodd"/><path d="M1142.5 996.5C1142.5 991.53 1146.75 987.5 1152 987.5 1157.25 987.5 1161.5 991.53 1161.5 996.5 1161.5 1001.47 1157.25 1005.5 1152 1005.5 1146.75 1005.5 1142.5 1001.47 1142.5 996.5Z" stroke="#000000" stroke-width="0" stroke-linejoin="round" stroke-miterlimit="10" fill="#FF0000" fill-rule="evenodd"/><path d="M1168.5 1226C1168.5 1220.75 1172.75 1216.5 1178 1216.5 1183.25 1216.5 1187.5 1220.75 1187.5 1226 1187.5 1231.25 1183.25 1235.5 1178 1235.5 1172.75 1235.5 1168.5 1231.25 1168.5 1226Z" stroke="#000000" stroke-width="0" stroke-linejoin="round" stroke-miterlimit="10" fill="#FF0000" fill-rule="evenodd"/><path d="M1193.5 1427C1193.5 1421.75 1197.75 1417.5 1203 1417.5 1208.25 1417.5 1212.5 1421.75 1212.5 1427 1212.5 1432.25 1208.25 1436.5 1203 1436.5 1197.75 1436.5 1193.5 1432.25 1193.5 1427Z" stroke="#000000" stroke-width="0" stroke-linejoin="round" stroke-miterlimit="10" fill="#FF0000" fill-rule="evenodd"/><path d="M1219.5 1226C1219.5 1220.75 1223.53 1216.5 1228.5 1216.5 1233.47 1216.5 1237.5 1220.75 1237.5 1226 1237.5 1231.25 1233.47 1235.5 1228.5 1235.5 1223.53 1235.5 1219.5 1231.25 1219.5 1226Z" stroke="#000000" stroke-width="0" stroke-linejoin="round" stroke-miterlimit="10" fill="#FF0000" fill-rule="evenodd"/><path d="M1244.5 1069C1244.5 1063.75 1248.75 1059.5 1254 1059.5 1259.25 1059.5 1263.5 1063.75 1263.5 1069 1263.5 1074.25 1259.25 1078.5 1254 1078.5 1248.75 1078.5 1244.5 1074.25 1244.5 1069Z" stroke="#000000" stroke-width="0" stroke-linejoin="round" stroke-miterlimit="10" fill="#FF0000" fill-rule="evenodd"/><path d="M1270.5 1226C1270.5 1220.75 1274.53 1216.5 1279.5 1216.5 1284.47 1216.5 1288.5 1220.75 1288.5 1226 1288.5 1231.25 1284.47 1235.5 1279.5 1235.5 1274.53 1235.5 1270.5 1231.25 1270.5 1226Z" stroke="#000000" stroke-width="0" stroke-linejoin="round" stroke-miterlimit="10" fill="#FF0000" fill-rule="evenodd"/><path d="M1295.5 1322.5C1295.5 1317.53 1299.75 1313.5 1305 1313.5 1310.25 1313.5 1314.5 1317.53 1314.5 1322.5 1314.5 1327.47 1310.25 1331.5 1305 1331.5 1299.75 1331.5 1295.5 1327.47 1295.5 1322.5Z" stroke="#000000" stroke-width="0" stroke-linejoin="round" stroke-miterlimit="10" fill="#FF0000" fill-rule="evenodd"/><path d="M1321.5 1226C1321.5 1220.75 1325.53 1216.5 1330.5 1216.5 1335.47 1216.5 1339.5 1220.75 1339.5 1226 1339.5 1231.25 1335.47 1235.5 1330.5 1235.5 1325.53 1235.5 1321.5 1231.25 1321.5 1226Z" stroke="#000000" stroke-width="0" stroke-linejoin="round" stroke-miterlimit="10" fill="#FF0000" fill-rule="evenodd"/><path d="M1346.5 1203C1346.5 1197.75 1350.75 1193.5 1356 1193.5 1361.25 1193.5 1365.5 1197.75 1365.5 1203 1365.5 1208.25 1361.25 1212.5 1356 1212.5 1350.75 1212.5 1346.5 1208.25 1346.5 1203Z" stroke="#000000" stroke-width="0" stroke-linejoin="round" stroke-miterlimit="10" fill="#FF0000" fill-rule="evenodd"/><path d="M1372.5 1226C1372.5 1220.75 1376.53 1216.5 1381.5 1216.5 1386.47 1216.5 1390.5 1220.75 1390.5 1226 1390.5 1231.25 1386.47 1235.5 1381.5 1235.5 1376.53 1235.5 1372.5 1231.25 1372.5 1226Z" stroke="#000000" stroke-width="0" stroke-linejoin="round" stroke-miterlimit="10" fill="#FF0000" fill-rule="evenodd"/><path d="M1397.5 1171.5C1397.5 1166.53 1401.53 1162.5 1406.5 1162.5 1411.47 1162.5 1415.5 1166.53 1415.5 1171.5 1415.5 1176.47 1411.47 1180.5 1406.5 1180.5 1401.53 1180.5 1397.5 1176.47 1397.5 1171.5Z" stroke="#000000" stroke-width="0" stroke-linejoin="round" stroke-miterlimit="10" fill="#FF0000" fill-rule="evenodd"/><path d="M1422.5 1226C1422.5 1220.75 1426.53 1216.5 1431.5 1216.5 1436.47 1216.5 1440.5 1220.75 1440.5 1226 1440.5 1231.25 1436.47 1235.5 1431.5 1235.5 1426.53 1235.5 1422.5 1231.25 1422.5 1226Z" stroke="#000000" stroke-width="0" stroke-linejoin="round" stroke-miterlimit="10" fill="#FF0000" fill-rule="evenodd"/><path d="M1448.5 1352C1448.5 1346.75 1452.53 1342.5 1457.5 1342.5 1462.47 1342.5 1466.5 1346.75 1466.5 1352 1466.5 1357.25 1462.47 1361.5 1457.5 1361.5 1452.53 1361.5 1448.5 1357.25 1448.5 1352Z" stroke="#000000" stroke-width="0" stroke-linejoin="round" stroke-miterlimit="10" fill="#FF0000" fill-rule="evenodd"/><path d="M1473.5 1226C1473.5 1220.75 1477.53 1216.5 1482.5 1216.5 1487.47 1216.5 1491.5 1220.75 1491.5 1226 1491.5 1231.25 1487.47 1235.5 1482.5 1235.5 1477.53 1235.5 1473.5 1231.25 1473.5 1226Z" stroke="#000000" stroke-width="0" stroke-linejoin="round" stroke-miterlimit="10" fill="#FF0000" fill-rule="evenodd"/><path d="M1499.5 1043.5C1499.5 1038.53 1503.53 1034.5 1508.5 1034.5 1513.47 1034.5 1517.5 1038.53 1517.5 1043.5 1517.5 1048.47 1513.47 1052.5 1508.5 1052.5 1503.53 1052.5 1499.5 1048.47 1499.5 1043.5Z" stroke="#000000" stroke-width="0" stroke-linejoin="round" stroke-miterlimit="10" fill="#FF0000" fill-rule="evenodd"/><path d="M1524.5 1226C1524.5 1220.75 1528.53 1216.5 1533.5 1216.5 1538.47 1216.5 1542.5 1220.75 1542.5 1226 1542.5 1231.25 1538.47 1235.5 1533.5 1235.5 1528.53 1235.5 1524.5 1231.25 1524.5 1226Z" stroke="#000000" stroke-width="0" stroke-linejoin="round" stroke-miterlimit="10" fill="#FF0000" fill-rule="evenodd"/><path d="M1549.5 1439C1549.5 1433.75 1553.75 1429.5 1559 1429.5 1564.25 1429.5 1568.5 1433.75 1568.5 1439 1568.5 1444.25 1564.25 1448.5 1559 1448.5 1553.75 1448.5 1549.5 1444.25 1549.5 1439Z" stroke="#000000" stroke-width="0" stroke-linejoin="round" stroke-miterlimit="10" fill="#FF0000" fill-rule="evenodd"/><path d="M1575.5 1226C1575.5 1220.75 1579.53 1216.5 1584.5 1216.5 1589.47 1216.5 1593.5 1220.75 1593.5 1226 1593.5 1231.25 1589.47 1235.5 1584.5 1235.5 1579.53 1235.5 1575.5 1231.25 1575.5 1226Z" stroke="#000000" stroke-width="0" stroke-linejoin="round" stroke-miterlimit="10" fill="#FF0000" fill-rule="evenodd"/><path d="M1600.5 1013C1600.5 1007.75 1604.53 1003.5 1609.5 1003.5 1614.47 1003.5 1618.5 1007.75 1618.5 1013 1618.5 1018.25 1614.47 1022.5 1609.5 1022.5 1604.53 1022.5 1600.5 1018.25 1600.5 1013Z" stroke="#000000" stroke-width="0" stroke-linejoin="round" stroke-miterlimit="10" fill="#FF0000" fill-rule="evenodd"/><path d="M1626.5 1226C1626.5 1220.75 1630.53 1216.5 1635.5 1216.5 1640.47 1216.5 1644.5 1220.75 1644.5 1226 1644.5 1231.25 1640.47 1235.5 1635.5 1235.5 1630.53 1235.5 1626.5 1231.25 1626.5 1226Z" stroke="#000000" stroke-width="0" stroke-linejoin="round" stroke-miterlimit="10" fill="#FF0000" fill-rule="evenodd"/><path d="M1651.5 1408C1651.5 1402.75 1655.53 1398.5 1660.5 1398.5 1665.47 1398.5 1669.5 1402.75 1669.5 1408 1669.5 1413.25 1665.47 1417.5 1660.5 1417.5 1655.53 1417.5 1651.5 1413.25 1651.5 1408Z" stroke="#000000" stroke-width="0" stroke-linejoin="round" stroke-miterlimit="10" fill="#FF0000" fill-rule="evenodd"/><path d="M1676.5 1226C1676.5 1220.75 1680.75 1216.5 1686 1216.5 1691.25 1216.5 1695.5 1220.75 1695.5 1226 1695.5 1231.25 1691.25 1235.5 1686 1235.5 1680.75 1235.5 1676.5 1231.25 1676.5 1226Z" stroke="#000000" stroke-width="0" stroke-linejoin="round" stroke-miterlimit="10" fill="#FF0000" fill-rule="evenodd"/><path d="M1702.5 1100C1702.5 1094.75 1706.53 1090.5 1711.5 1090.5 1716.47 1090.5 1720.5 1094.75 1720.5 1100 1720.5 1105.25 1716.47 1109.5 1711.5 1109.5 1706.53 1109.5 1702.5 1105.25 1702.5 1100Z" stroke="#000000" stroke-width="0" stroke-linejoin="round" stroke-miterlimit="10" fill="#FF0000" fill-rule="evenodd"/><path d="M1727.5 1226C1727.5 1220.75 1731.75 1216.5 1737 1216.5 1742.25 1216.5 1746.5 1220.75 1746.5 1226 1746.5 1231.25 1742.25 1235.5 1737 1235.5 1731.75 1235.5 1727.5 1231.25 1727.5 1226Z" stroke="#000000" stroke-width="0" stroke-linejoin="round" stroke-miterlimit="10" fill="#FF0000" fill-rule="evenodd"/><path d="M1753.5 1280.5C1753.5 1275.53 1757.53 1271.5 1762.5 1271.5 1767.47 1271.5 1771.5 1275.53 1771.5 1280.5 1771.5 1285.47 1767.47 1289.5 1762.5 1289.5 1757.53 1289.5 1753.5 1285.47 1753.5 1280.5Z" stroke="#000000" stroke-width="0" stroke-linejoin="round" stroke-miterlimit="10" fill="#FF0000" fill-rule="evenodd"/><path d="M1778.5 1226C1778.5 1220.75 1782.75 1216.5 1788 1216.5 1793.25 1216.5 1797.5 1220.75 1797.5 1226 1797.5 1231.25 1793.25 1235.5 1788 1235.5 1782.75 1235.5 1778.5 1231.25 1778.5 1226Z" stroke="#000000" stroke-width="0" stroke-linejoin="round" stroke-miterlimit="10" fill="#FF0000" fill-rule="evenodd"/><path d="M1804.5 1249C1804.5 1243.75 1808.53 1239.5 1813.5 1239.5 1818.47 1239.5 1822.5 1243.75 1822.5 1249 1822.5 1254.25 1818.47 1258.5 1813.5 1258.5 1808.53 1258.5 1804.5 1254.25 1804.5 1249Z" stroke="#000000" stroke-width="0" stroke-linejoin="round" stroke-miterlimit="10" fill="#FF0000" fill-rule="evenodd"/><path d="M1829.5 1226C1829.5 1220.75 1833.75 1216.5 1839 1216.5 1844.25 1216.5 1848.5 1220.75 1848.5 1226 1848.5 1231.25 1844.25 1235.5 1839 1235.5 1833.75 1235.5 1829.5 1231.25 1829.5 1226Z" stroke="#000000" stroke-width="0" stroke-linejoin="round" stroke-miterlimit="10" fill="#FF0000" fill-rule="evenodd"/><path d="M1855.5 1129.5C1855.5 1124.53 1859.53 1120.5 1864.5 1120.5 1869.47 1120.5 1873.5 1124.53 1873.5 1129.5 1873.5 1134.47 1869.47 1138.5 1864.5 1138.5 1859.53 1138.5 1855.5 1134.47 1855.5 1129.5Z" stroke="#000000" stroke-width="0" stroke-linejoin="round" stroke-miterlimit="10" fill="#FF0000" fill-rule="evenodd"/><path d="M1880.5 1226C1880.5 1220.75 1884.53 1216.5 1889.5 1216.5 1894.47 1216.5 1898.5 1220.75 1898.5 1226 1898.5 1231.25 1894.47 1235.5 1889.5 1235.5 1884.53 1235.5 1880.5 1231.25 1880.5 1226Z" stroke="#000000" stroke-width="0" stroke-linejoin="round" stroke-miterlimit="10" fill="#FF0000" fill-rule="evenodd"/><path d="M1906.5 1383C1906.5 1377.75 1910.53 1373.5 1915.5 1373.5 1920.47 1373.5 1924.5 1377.75 1924.5 1383 1924.5 1388.25 1920.47 1392.5 1915.5 1392.5 1910.53 1392.5 1906.5 1388.25 1906.5 1383Z" stroke="#000000" stroke-width="0" stroke-linejoin="round" stroke-miterlimit="10" fill="#FF0000" fill-rule="evenodd"/><path d="M1931.5 1226C1931.5 1220.75 1935.53 1216.5 1940.5 1216.5 1945.47 1216.5 1949.5 1220.75 1949.5 1226 1949.5 1231.25 1945.47 1235.5 1940.5 1235.5 1935.53 1235.5 1931.5 1231.25 1931.5 1226Z" stroke="#000000" stroke-width="0" stroke-linejoin="round" stroke-miterlimit="10" fill="#FF0000" fill-rule="evenodd"/><path d="M1957.5 1025C1957.5 1019.75 1961.53 1015.5 1966.5 1015.5 1971.47 1015.5 1975.5 1019.75 1975.5 1025 1975.5 1030.25 1971.47 1034.5 1966.5 1034.5 1961.53 1034.5 1957.5 1030.25 1957.5 1025Z" stroke="#000000" stroke-width="0" stroke-linejoin="round" stroke-miterlimit="10" fill="#FF0000" fill-rule="evenodd"/><path d="M1982.5 1226C1982.5 1220.75 1986.53 1216.5 1991.5 1216.5 1996.47 1216.5 2000.5 1220.75 2000.5 1226 2000.5 1231.25 1996.47 1235.5 1991.5 1235.5 1986.53 1235.5 1982.5 1231.25 1982.5 1226Z" stroke="#000000" stroke-width="0" stroke-linejoin="round" stroke-miterlimit="10" fill="#FF0000" fill-rule="evenodd"/><path d="M2007.5 1455C2007.5 1449.75 2011.53 1445.5 2016.5 1445.5 2021.47 1445.5 2025.5 1449.75 2025.5 1455 2025.5 1460.25 2021.47 1464.5 2016.5 1464.5 2011.53 1464.5 2007.5 1460.25 2007.5 1455Z" stroke="#000000" stroke-width="0" stroke-linejoin="round" stroke-miterlimit="10" fill="#FF0000" fill-rule="evenodd"/><path d="M2033.5 1226C2033.5 1220.75 2037.53 1216.5 2042.5 1216.5 2047.47 1216.5 2051.5 1220.75 2051.5 1226 2051.5 1231.25 2047.47 1235.5 2042.5 1235.5 2037.53 1235.5 2033.5 1231.25 2033.5 1226Z" stroke="#000000" stroke-width="0" stroke-linejoin="round" stroke-miterlimit="10" fill="#FF0000" fill-rule="evenodd"/><path d="M2058.5 982C2058.5 976.753 2062.53 972.5 2067.5 972.5 2072.47 972.5 2076.5 976.753 2076.5 982 2076.5 987.247 2072.47 991.5 2067.5 991.5 2062.53 991.5 2058.5 987.247 2058.5 982Z" stroke="#000000" stroke-width="0" stroke-linejoin="round" stroke-miterlimit="10" fill="#FF0000" fill-rule="evenodd"/><path d="M2084.5 1226C2084.5 1220.75 2088.53 1216.5 2093.5 1216.5 2098.47 1216.5 2102.5 1220.75 2102.5 1226 2102.5 1231.25 2098.47 1235.5 2093.5 1235.5 2088.53 1235.5 2084.5 1231.25 2084.5 1226Z" stroke="#000000" stroke-width="0" stroke-linejoin="round" stroke-miterlimit="10" fill="#FF0000" fill-rule="evenodd"/><path d="M2109.5 1477C2109.5 1471.75 2113.53 1467.5 2118.5 1467.5 2123.47 1467.5 2127.5 1471.75 2127.5 1477 2127.5 1482.25 2123.47 1486.5 2118.5 1486.5 2113.53 1486.5 2109.5 1482.25 2109.5 1477Z" stroke="#000000" stroke-width="0" stroke-linejoin="round" stroke-miterlimit="10" fill="#FF0000" fill-rule="evenodd"/><path d="M2134.5 1226C2134.5 1220.75 2138.53 1216.5 2143.5 1216.5 2148.47 1216.5 2152.5 1220.75 2152.5 1226 2152.5 1231.25 2148.47 1235.5 2143.5 1235.5 2138.53 1235.5 2134.5 1231.25 2134.5 1226Z" stroke="#000000" stroke-width="0" stroke-linejoin="round" stroke-miterlimit="10" fill="#FF0000" fill-rule="evenodd"/><path d="M2160.5 973.5C2160.5 968.529 2164.53 964.5 2169.5 964.5 2174.47 964.5 2178.5 968.529 2178.5 973.5 2178.5 978.471 2174.47 982.5 2169.5 982.5 2164.53 982.5 2160.5 978.471 2160.5 973.5Z" stroke="#000000" stroke-width="0" stroke-linejoin="round" stroke-miterlimit="10" fill="#FF0000" fill-rule="evenodd"/><path d="M2185.5 1226C2185.5 1220.75 2189.53 1216.5 2194.5 1216.5 2199.47 1216.5 2203.5 1220.75 2203.5 1226 2203.5 1231.25 2199.47 1235.5 2194.5 1235.5 2189.53 1235.5 2185.5 1231.25 2185.5 1226Z" stroke="#000000" stroke-width="0" stroke-linejoin="round" stroke-miterlimit="10" fill="#FF0000" fill-rule="evenodd"/><path d="M2210.5 1479C2210.5 1473.75 2214.75 1469.5 2220 1469.5 2225.25 1469.5 2229.5 1473.75 2229.5 1479 2229.5 1484.25 2225.25 1488.5 2220 1488.5 2214.75 1488.5 2210.5 1484.25 2210.5 1479Z" stroke="#000000" stroke-width="0" stroke-linejoin="round" stroke-miterlimit="10" fill="#FF0000" fill-rule="evenodd"/><path d="M2236.5 1226C2236.5 1220.75 2240.53 1216.5 2245.5 1216.5 2250.47 1216.5 2254.5 1220.75 2254.5 1226 2254.5 1231.25 2250.47 1235.5 2245.5 1235.5 2240.53 1235.5 2236.5 1231.25 2236.5 1226Z" stroke="#000000" stroke-width="0" stroke-linejoin="round" stroke-miterlimit="10" fill="#FF0000" fill-rule="evenodd"/><path d="M2261.5 975C2261.5 969.753 2265.75 965.5 2271 965.5 2276.25 965.5 2280.5 969.753 2280.5 975 2280.5 980.247 2276.25 984.5 2271 984.5 2265.75 984.5 2261.5 980.247 2261.5 975Z" stroke="#000000" stroke-width="0" stroke-linejoin="round" stroke-miterlimit="10" fill="#FF0000" fill-rule="evenodd"/><path d="M2287.5 1226C2287.5 1220.75 2291.53 1216.5 2296.5 1216.5 2301.47 1216.5 2305.5 1220.75 2305.5 1226 2305.5 1231.25 2301.47 1235.5 2296.5 1235.5 2291.53 1235.5 2287.5 1231.25 2287.5 1226Z" stroke="#000000" stroke-width="0" stroke-linejoin="round" stroke-miterlimit="10" fill="#FF0000" fill-rule="evenodd"/><path d="M2312.5 1470C2312.5 1464.75 2316.75 1460.5 2322 1460.5 2327.25 1460.5 2331.5 1464.75 2331.5 1470 2331.5 1475.25 2327.25 1479.5 2322 1479.5 2316.75 1479.5 2312.5 1475.25 2312.5 1470Z" stroke="#000000" stroke-width="0" stroke-linejoin="round" stroke-miterlimit="10" fill="#FF0000" fill-rule="evenodd"/><path d="M2338.5 1226C2338.5 1220.75 2342.53 1216.5 2347.5 1216.5 2352.47 1216.5 2356.5 1220.75 2356.5 1226 2356.5 1231.25 2352.47 1235.5 2347.5 1235.5 2342.53 1235.5 2338.5 1231.25 2338.5 1226Z" stroke="#000000" stroke-width="0" stroke-linejoin="round" stroke-miterlimit="10" fill="#FF0000" fill-rule="evenodd"/><path d="M2363.5 996.5C2363.5 991.53 2367.75 987.5 2373 987.5 2378.25 987.5 2382.5 991.53 2382.5 996.5 2382.5 1001.47 2378.25 1005.5 2373 1005.5 2367.75 1005.5 2363.5 1001.47 2363.5 996.5Z" stroke="#000000" stroke-width="0" stroke-linejoin="round" stroke-miterlimit="10" fill="#FF0000" fill-rule="evenodd"/><path d="M2388.5 1226C2388.5 1220.75 2392.75 1216.5 2398 1216.5 2403.25 1216.5 2407.5 1220.75 2407.5 1226 2407.5 1231.25 2403.25 1235.5 2398 1235.5 2392.75 1235.5 2388.5 1231.25 2388.5 1226Z" stroke="#000000" stroke-width="0" stroke-linejoin="round" stroke-miterlimit="10" fill="#FF0000" fill-rule="evenodd"/><path d="M2414.5 1427C2414.5 1421.75 2418.75 1417.5 2424 1417.5 2429.25 1417.5 2433.5 1421.75 2433.5 1427 2433.5 1432.25 2429.25 1436.5 2424 1436.5 2418.75 1436.5 2414.5 1432.25 2414.5 1427Z" stroke="#000000" stroke-width="0" stroke-linejoin="round" stroke-miterlimit="10" fill="#FF0000" fill-rule="evenodd"/><path d="M2439.5 1226C2439.5 1220.75 2443.75 1216.5 2449 1216.5 2454.25 1216.5 2458.5 1220.75 2458.5 1226 2458.5 1231.25 2454.25 1235.5 2449 1235.5 2443.75 1235.5 2439.5 1231.25 2439.5 1226Z" stroke="#000000" stroke-width="0" stroke-linejoin="round" stroke-miterlimit="10" fill="#FF0000" fill-rule="evenodd"/><path d="M2465.5 1069C2465.5 1063.75 2469.53 1059.5 2474.5 1059.5 2479.47 1059.5 2483.5 1063.75 2483.5 1069 2483.5 1074.25 2479.47 1078.5 2474.5 1078.5 2469.53 1078.5 2465.5 1074.25 2465.5 1069Z" stroke="#000000" stroke-width="0" stroke-linejoin="round" stroke-miterlimit="10" fill="#FF0000" fill-rule="evenodd"/><path d="M2490.5 1226C2490.5 1220.75 2494.75 1216.5 2500 1216.5 2505.25 1216.5 2509.5 1220.75 2509.5 1226 2509.5 1231.25 2505.25 1235.5 2500 1235.5 2494.75 1235.5 2490.5 1231.25 2490.5 1226Z" stroke="#000000" stroke-width="0" stroke-linejoin="round" stroke-miterlimit="10" fill="#FF0000" fill-rule="evenodd"/><path d="M2516.5 1322.5C2516.5 1317.53 2520.53 1313.5 2525.5 1313.5 2530.47 1313.5 2534.5 1317.53 2534.5 1322.5 2534.5 1327.47 2530.47 1331.5 2525.5 1331.5 2520.53 1331.5 2516.5 1327.47 2516.5 1322.5Z" stroke="#000000" stroke-width="0" stroke-linejoin="round" stroke-miterlimit="10" fill="#FF0000" fill-rule="evenodd"/><path d="M2541.5 1226C2541.5 1220.75 2545.75 1216.5 2551 1216.5 2556.25 1216.5 2560.5 1220.75 2560.5 1226 2560.5 1231.25 2556.25 1235.5 2551 1235.5 2545.75 1235.5 2541.5 1231.25 2541.5 1226Z" stroke="#000000" stroke-width="0" stroke-linejoin="round" stroke-miterlimit="10" fill="#FF0000" fill-rule="evenodd"/><path d="M2567.5 1203C2567.5 1197.75 2571.53 1193.5 2576.5 1193.5 2581.47 1193.5 2585.5 1197.75 2585.5 1203 2585.5 1208.25 2581.47 1212.5 2576.5 1212.5 2571.53 1212.5 2567.5 1208.25 2567.5 1203Z" stroke="#000000" stroke-width="0" stroke-linejoin="round" stroke-miterlimit="10" fill="#FF0000" fill-rule="evenodd"/><path d="M2592.5 1226C2592.5 1220.75 2596.75 1216.5 2602 1216.5 2607.25 1216.5 2611.5 1220.75 2611.5 1226 2611.5 1231.25 2607.25 1235.5 2602 1235.5 2596.75 1235.5 2592.5 1231.25 2592.5 1226Z" stroke="#000000" stroke-width="0" stroke-linejoin="round" stroke-miterlimit="10" fill="#FF0000" fill-rule="evenodd"/><path d="M2618.5 1171.5C2618.5 1166.53 2622.53 1162.5 2627.5 1162.5 2632.47 1162.5 2636.5 1166.53 2636.5 1171.5 2636.5 1176.47 2632.47 1180.5 2627.5 1180.5 2622.53 1180.5 2618.5 1176.47 2618.5 1171.5Z" stroke="#000000" stroke-width="0" stroke-linejoin="round" stroke-miterlimit="10" fill="#FF0000" fill-rule="evenodd"/><path d="M2643.5 1226C2643.5 1220.75 2647.53 1216.5 2652.5 1216.5 2657.47 1216.5 2661.5 1220.75 2661.5 1226 2661.5 1231.25 2657.47 1235.5 2652.5 1235.5 2647.53 1235.5 2643.5 1231.25 2643.5 1226Z" stroke="#000000" stroke-width="0" stroke-linejoin="round" stroke-miterlimit="10" fill="#FF0000" fill-rule="evenodd"/><path d="M2669.5 1352C2669.5 1346.75 2673.31 1342.5 2678 1342.5 2682.69 1342.5 2686.5 1346.75 2686.5 1352 2686.5 1357.25 2682.69 1361.5 2678 1361.5 2673.31 1361.5 2669.5 1357.25 2669.5 1352Z" stroke="#000000" stroke-width="0" stroke-linejoin="round" stroke-miterlimit="10" fill="#FF0000" fill-rule="evenodd"/><path d="M2694.5 1226C2694.5 1220.75 2698.53 1216.5 2703.5 1216.5 2708.47 1216.5 2712.5 1220.75 2712.5 1226 2712.5 1231.25 2708.47 1235.5 2703.5 1235.5 2698.53 1235.5 2694.5 1231.25 2694.5 1226Z" stroke="#000000" stroke-width="0" stroke-linejoin="round" stroke-miterlimit="10" fill="#FF0000" fill-rule="evenodd"/><path d="M2719.5 1043.5C2719.5 1038.53 2723.53 1034.5 2728.5 1034.5 2733.47 1034.5 2737.5 1038.53 2737.5 1043.5 2737.5 1048.47 2733.47 1052.5 2728.5 1052.5 2723.53 1052.5 2719.5 1048.47 2719.5 1043.5Z" stroke="#000000" stroke-width="0" stroke-linejoin="round" stroke-miterlimit="10" fill="#FF0000" fill-rule="evenodd"/><path d="M2745.5 1226C2745.5 1220.75 2749.53 1216.5 2754.5 1216.5 2759.47 1216.5 2763.5 1220.75 2763.5 1226 2763.5 1231.25 2759.47 1235.5 2754.5 1235.5 2749.53 1235.5 2745.5 1231.25 2745.5 1226Z" stroke="#000000" stroke-width="0" stroke-linejoin="round" stroke-miterlimit="10" fill="#FF0000" fill-rule="evenodd"/><path d="M2770.5 1439C2770.5 1433.75 2774.53 1429.5 2779.5 1429.5 2784.47 1429.5 2788.5 1433.75 2788.5 1439 2788.5 1444.25 2784.47 1448.5 2779.5 1448.5 2774.53 1448.5 2770.5 1444.25 2770.5 1439Z" stroke="#000000" stroke-width="0" stroke-linejoin="round" stroke-miterlimit="10" fill="#FF0000" fill-rule="evenodd"/><path d="M2795.5 1226C2795.5 1220.75 2799.75 1216.5 2805 1216.5 2810.25 1216.5 2814.5 1220.75 2814.5 1226 2814.5 1231.25 2810.25 1235.5 2805 1235.5 2799.75 1235.5 2795.5 1231.25 2795.5 1226Z" stroke="#000000" stroke-width="0" stroke-linejoin="round" stroke-miterlimit="10" fill="#FF0000" fill-rule="evenodd"/><path d="M2821.5 1013C2821.5 1007.75 2825.53 1003.5 2830.5 1003.5 2835.47 1003.5 2839.5 1007.75 2839.5 1013 2839.5 1018.25 2835.47 1022.5 2830.5 1022.5 2825.53 1022.5 2821.5 1018.25 2821.5 1013Z" stroke="#000000" stroke-width="0" stroke-linejoin="round" stroke-miterlimit="10" fill="#FF0000" fill-rule="evenodd"/><path d="M2846.5 1226C2846.5 1220.75 2850.75 1216.5 2856 1216.5 2861.25 1216.5 2865.5 1220.75 2865.5 1226 2865.5 1231.25 2861.25 1235.5 2856 1235.5 2850.75 1235.5 2846.5 1231.25 2846.5 1226Z" stroke="#000000" stroke-width="0" stroke-linejoin="round" stroke-miterlimit="10" fill="#FF0000" fill-rule="evenodd"/><path d="M2872.5 1407.5C2872.5 1402.53 2876.53 1398.5 2881.5 1398.5 2886.47 1398.5 2890.5 1402.53 2890.5 1407.5 2890.5 1412.47 2886.47 1416.5 2881.5 1416.5 2876.53 1416.5 2872.5 1412.47 2872.5 1407.5Z" stroke="#000000" stroke-width="0" stroke-linejoin="round" stroke-miterlimit="10" fill="#FF0000" fill-rule="evenodd"/><path d="M2897.5 1226C2897.5 1220.75 2901.75 1216.5 2907 1216.5 2912.25 1216.5 2916.5 1220.75 2916.5 1226 2916.5 1231.25 2912.25 1235.5 2907 1235.5 2901.75 1235.5 2897.5 1231.25 2897.5 1226Z" stroke="#000000" stroke-width="0" stroke-linejoin="round" stroke-miterlimit="10" fill="#FF0000" fill-rule="evenodd"/><path d="M2923.5 1102.5C2923.5 1097.53 2927.53 1093.5 2932.5 1093.5 2937.47 1093.5 2941.5 1097.53 2941.5 1102.5 2941.5 1107.47 2937.47 1111.5 2932.5 1111.5 2927.53 1111.5 2923.5 1107.47 2923.5 1102.5Z" stroke="#000000" stroke-width="0" stroke-linejoin="round" stroke-miterlimit="10" fill="#FF0000" fill-rule="evenodd"/><path d="M2948.5 1226C2948.5 1220.75 2952.75 1216.5 2958 1216.5 2963.25 1216.5 2967.5 1220.75 2967.5 1226 2967.5 1231.25 2963.25 1235.5 2958 1235.5 2952.75 1235.5 2948.5 1231.25 2948.5 1226Z" stroke="#000000" stroke-width="0" stroke-linejoin="round" stroke-miterlimit="10" fill="#FF0000" fill-rule="evenodd"/><path d="M2973.5 1274.5C2973.5 1269.53 2977.75 1265.5 2983 1265.5 2988.25 1265.5 2992.5 1269.53 2992.5 1274.5 2992.5 1279.47 2988.25 1283.5 2983 1283.5 2977.75 1283.5 2973.5 1279.47 2973.5 1274.5Z" stroke="#000000" stroke-width="0" stroke-linejoin="round" stroke-miterlimit="10" fill="#FF0000" fill-rule="evenodd"/><path d="M2999.5 1226C2999.5 1220.75 3003.75 1216.5 3009 1216.5 3014.25 1216.5 3018.5 1220.75 3018.5 1226 3018.5 1231.25 3014.25 1235.5 3009 1235.5 3003.75 1235.5 2999.5 1231.25 2999.5 1226Z" stroke="#000000" stroke-width="0" stroke-linejoin="round" stroke-miterlimit="10" fill="#FF0000" fill-rule="evenodd"/><path d="M3024.5 1258.5C3024.5 1253.53 3028.75 1249.5 3034 1249.5 3039.25 1249.5 3043.5 1253.53 3043.5 1258.5 3043.5 1263.47 3039.25 1267.5 3034 1267.5 3028.75 1267.5 3024.5 1263.47 3024.5 1258.5Z" stroke="#000000" stroke-width="0" stroke-linejoin="round" stroke-miterlimit="10" fill="#FF0000" fill-rule="evenodd"/><path d="M3050.5 1226C3050.5 1220.75 3054.53 1216.5 3059.5 1216.5 3064.47 1216.5 3068.5 1220.75 3068.5 1226 3068.5 1231.25 3064.47 1235.5 3059.5 1235.5 3054.53 1235.5 3050.5 1231.25 3050.5 1226Z" stroke="#000000" stroke-width="0" stroke-linejoin="round" stroke-miterlimit="10" fill="#FF0000" fill-rule="evenodd"/><path d="M3075.5 1117C3075.5 1111.75 3079.75 1107.5 3085 1107.5 3090.25 1107.5 3094.5 1111.75 3094.5 1117 3094.5 1122.25 3090.25 1126.5 3085 1126.5 3079.75 1126.5 3075.5 1122.25 3075.5 1117Z" stroke="#000000" stroke-width="0" stroke-linejoin="round" stroke-miterlimit="10" fill="#FF0000" fill-rule="evenodd"/><path d="M3101.5 1226C3101.5 1220.75 3105.53 1216.5 3110.5 1216.5 3115.47 1216.5 3119.5 1220.75 3119.5 1226 3119.5 1231.25 3115.47 1235.5 3110.5 1235.5 3105.53 1235.5 3101.5 1231.25 3101.5 1226Z" stroke="#000000" stroke-width="0" stroke-linejoin="round" stroke-miterlimit="10" fill="#FF0000" fill-rule="evenodd"/><path d="M3126.5 1395C3126.5 1389.75 3130.53 1385.5 3135.5 1385.5 3140.47 1385.5 3144.5 1389.75 3144.5 1395 3144.5 1400.25 3140.47 1404.5 3135.5 1404.5 3130.53 1404.5 3126.5 1400.25 3126.5 1395Z" stroke="#000000" stroke-width="0" stroke-linejoin="round" stroke-miterlimit="10" fill="#FF0000" fill-rule="evenodd"/><path d="M3152.5 1226C3152.5 1220.75 3156.53 1216.5 3161.5 1216.5 3166.47 1216.5 3170.5 1220.75 3170.5 1226 3170.5 1231.25 3166.47 1235.5 3161.5 1235.5 3156.53 1235.5 3152.5 1231.25 3152.5 1226Z" stroke="#000000" stroke-width="0" stroke-linejoin="round" stroke-miterlimit="10" fill="#FF0000" fill-rule="evenodd"/><path d="M3177.5 1018.5C3177.5 1013.53 3181.53 1009.5 3186.5 1009.5 3191.47 1009.5 3195.5 1013.53 3195.5 1018.5 3195.5 1023.47 3191.47 1027.5 3186.5 1027.5 3181.53 1027.5 3177.5 1023.47 3177.5 1018.5Z" stroke="#000000" stroke-width="0" stroke-linejoin="round" stroke-miterlimit="10" fill="#FF0000" fill-rule="evenodd"/><path d="M3203.5 1226C3203.5 1220.75 3207.53 1216.5 3212.5 1216.5 3217.47 1216.5 3221.5 1220.75 3221.5 1226 3221.5 1231.25 3217.47 1235.5 3212.5 1235.5 3207.53 1235.5 3203.5 1231.25 3203.5 1226Z" stroke="#000000" stroke-width="0" stroke-linejoin="round" stroke-miterlimit="10" fill="#FF0000" fill-rule="evenodd"/><path d="M3228.5 1447C3228.5 1441.75 3232.53 1437.5 3237.5 1437.5 3242.47 1437.5 3246.5 1441.75 3246.5 1447 3246.5 1452.25 3242.47 1456.5 3237.5 1456.5 3232.53 1456.5 3228.5 1452.25 3228.5 1447Z" stroke="#000000" stroke-width="0" stroke-linejoin="round" stroke-miterlimit="10" fill="#FF0000" fill-rule="evenodd"/><path d="M3253.5 1226C3253.5 1220.75 3257.75 1216.5 3263 1216.5 3268.25 1216.5 3272.5 1220.75 3272.5 1226 3272.5 1231.25 3268.25 1235.5 3263 1235.5 3257.75 1235.5 3253.5 1231.25 3253.5 1226Z" stroke="#000000" stroke-width="0" stroke-linejoin="round" stroke-miterlimit="10" fill="#FF0000" fill-rule="evenodd"/><path d="M3279.5 1013.5C3279.5 1008.53 3283.53 1004.5 3288.5 1004.5 3293.47 1004.5 3297.5 1008.53 3297.5 1013.5 3297.5 1018.47 3293.47 1022.5 3288.5 1022.5 3283.53 1022.5 3279.5 1018.47 3279.5 1013.5Z" stroke="#000000" stroke-width="0" stroke-linejoin="round" stroke-miterlimit="10" fill="#FF0000" fill-rule="evenodd"/><path d="M3304.5 1226C3304.5 1220.75 3308.53 1216.5 3313.5 1216.5 3318.47 1216.5 3322.5 1220.75 3322.5 1226 3322.5 1231.25 3318.47 1235.5 3313.5 1235.5 3308.53 1235.5 3304.5 1231.25 3304.5 1226Z" stroke="#000000" stroke-width="0" stroke-linejoin="round" stroke-miterlimit="10" fill="#FF0000" fill-rule="evenodd"/><path d="M3330.5 1412.5C3330.5 1407.53 3334.53 1403.5 3339.5 1403.5 3344.47 1403.5 3348.5 1407.53 3348.5 1412.5 3348.5 1417.47 3344.47 1421.5 3339.5 1421.5 3334.53 1421.5 3330.5 1417.47 3330.5 1412.5Z" stroke="#000000" stroke-width="0" stroke-linejoin="round" stroke-miterlimit="10" fill="#FF0000" fill-rule="evenodd"/><path d="M3355.5 1226C3355.5 1220.75 3359.53 1216.5 3364.5 1216.5 3369.47 1216.5 3373.5 1220.75 3373.5 1226 3373.5 1231.25 3369.47 1235.5 3364.5 1235.5 3359.53 1235.5 3355.5 1231.25 3355.5 1226Z" stroke="#000000" stroke-width="0" stroke-linejoin="round" stroke-miterlimit="10" fill="#FF0000" fill-rule="evenodd"/><path d="M3381.5 1078C3381.5 1072.75 3385.53 1068.5 3390.5 1068.5 3395.47 1068.5 3399.5 1072.75 3399.5 1078 3399.5 1083.25 3395.47 1087.5 3390.5 1087.5 3385.53 1087.5 3381.5 1083.25 3381.5 1078Z" stroke="#000000" stroke-width="0" stroke-linejoin="round" stroke-miterlimit="10" fill="#FF0000" fill-rule="evenodd"/><path d="M3406.5 1226C3406.5 1220.75 3410.53 1216.5 3415.5 1216.5 3420.47 1216.5 3424.5 1220.75 3424.5 1226 3424.5 1231.25 3420.47 1235.5 3415.5 1235.5 3410.53 1235.5 3406.5 1231.25 3406.5 1226Z" stroke="#000000" stroke-width="0" stroke-linejoin="round" stroke-miterlimit="10" fill="#FF0000" fill-rule="evenodd"/><path d="M3431.5 1331.5C3431.5 1326.53 3435.75 1322.5 3441 1322.5 3446.25 1322.5 3450.5 1326.53 3450.5 1331.5 3450.5 1336.47 3446.25 1340.5 3441 1340.5 3435.75 1340.5 3431.5 1336.47 3431.5 1331.5Z" stroke="#000000" stroke-width="0" stroke-linejoin="round" stroke-miterlimit="10" fill="#FF0000" fill-rule="evenodd"/><path d="M3456.5 1226C3456.5 1220.75 3460.75 1216.5 3466 1216.5 3471.25 1216.5 3475.5 1220.75 3475.5 1226 3475.5 1231.25 3471.25 1235.5 3466 1235.5 3460.75 1235.5 3456.5 1231.25 3456.5 1226Z" stroke="#000000" stroke-width="0" stroke-linejoin="round" stroke-miterlimit="10" fill="#FF0000" fill-rule="evenodd"/><path d="M3482.5 1161.5C3482.5 1156.53 3486.75 1152.5 3492 1152.5 3497.25 1152.5 3501.5 1156.53 3501.5 1161.5 3501.5 1166.47 3497.25 1170.5 3492 1170.5 3486.75 1170.5 3482.5 1166.47 3482.5 1161.5Z" stroke="#000000" stroke-width="0" stroke-linejoin="round" stroke-miterlimit="10" fill="#FF0000" fill-rule="evenodd"/><path d="M3507.5 1226C3507.5 1220.75 3511.75 1216.5 3517 1216.5 3522.25 1216.5 3526.5 1220.75 3526.5 1226 3526.5 1231.25 3522.25 1235.5 3517 1235.5 3511.75 1235.5 3507.5 1231.25 3507.5 1226Z" stroke="#000000" stroke-width="0" stroke-linejoin="round" stroke-miterlimit="10" fill="#FF0000" fill-rule="evenodd"/><path d="M3533.5 1257.5C3533.5 1252.53 3537.75 1248.5 3543 1248.5 3548.25 1248.5 3552.5 1252.53 3552.5 1257.5 3552.5 1262.47 3548.25 1266.5 3543 1266.5 3537.75 1266.5 3533.5 1262.47 3533.5 1257.5Z" stroke="#000000" stroke-width="0" stroke-linejoin="round" stroke-miterlimit="10" fill="#FF0000" fill-rule="evenodd"/><path d="M3558.5 1226C3558.5 1220.75 3562.75 1216.5 3568 1216.5 3573.25 1216.5 3577.5 1220.75 3577.5 1226 3577.5 1231.25 3573.25 1235.5 3568 1235.5 3562.75 1235.5 3558.5 1231.25 3558.5 1226Z" stroke="#000000" stroke-width="0" stroke-linejoin="round" stroke-miterlimit="10" fill="#FF0000" fill-rule="evenodd"/><path d="M3584.5 1218C3584.5 1212.75 3588.75 1208.5 3594 1208.5 3599.25 1208.5 3603.5 1212.75 3603.5 1218 3603.5 1223.25 3599.25 1227.5 3594 1227.5 3588.75 1227.5 3584.5 1223.25 3584.5 1218Z" stroke="#000000" stroke-width="0" stroke-linejoin="round" stroke-miterlimit="10" fill="#FF0000" fill-rule="evenodd"/><path d="M796 1225 796 1449" stroke="#FF0000" stroke-width="2.29167" stroke-linejoin="round" stroke-miterlimit="10" fill="none" fill-rule="evenodd"/><path d="M0 0 0.000360892 232" stroke="#FF0000" stroke-width="2.29167" stroke-linejoin="round" stroke-miterlimit="10" fill="none" fill-rule="evenodd" transform="matrix(1 0 0 -1 847 1225)"/><path d="M897 1225 897 1464" stroke="#FF0000" stroke-width="2.29167" stroke-linejoin="round" stroke-miterlimit="10" fill="none" fill-rule="evenodd"/><path d="M0 0 0.000360892 242" stroke="#FF0000" stroke-width="2.29167" stroke-linejoin="round" stroke-miterlimit="10" fill="none" fill-rule="evenodd" transform="matrix(1 0 0 -1 948 1225)"/><path d="M999 1225 999 1472" stroke="#FF0000" stroke-width="2.29167" stroke-linejoin="round" stroke-miterlimit="10" fill="none" fill-rule="evenodd"/><path d="M0 0 0.000360892 248" stroke="#FF0000" stroke-width="2.29167" stroke-linejoin="round" stroke-miterlimit="10" fill="none" fill-rule="evenodd" transform="matrix(1 0 0 -1 1050 1225)"/><path d="M1101 1225 1101 1470" stroke="#FF0000" stroke-width="2.29167" stroke-linejoin="round" stroke-miterlimit="10" fill="none" fill-rule="evenodd"/><path d="M0 0 0.000360892 229" stroke="#FF0000" stroke-width="2.29167" stroke-linejoin="round" stroke-miterlimit="10" fill="none" fill-rule="evenodd" transform="matrix(1 0 0 -1 1152 1225)"/><path d="M1203 1225 1203 1427" stroke="#FF0000" stroke-width="2.29167" stroke-linejoin="round" stroke-miterlimit="10" fill="none" fill-rule="evenodd"/><path d="M0 0 0.000360892 157" stroke="#FF0000" stroke-width="2.29167" stroke-linejoin="round" stroke-miterlimit="10" fill="none" fill-rule="evenodd" transform="matrix(1 0 0 -1 1254 1225)"/><path d="M1304 1225 1304 1321" stroke="#FF0000" stroke-width="2.29167" stroke-linejoin="round" stroke-miterlimit="10" fill="none" fill-rule="evenodd"/><path d="M0 0 0.000360892 22" stroke="#FF0000" stroke-width="2.29167" stroke-linejoin="round" stroke-miterlimit="10" fill="none" fill-rule="evenodd" transform="matrix(1 0 0 -1 1355 1225)"/><path d="M0 0 0.000360892 54" stroke="#FF0000" stroke-width="2.29167" stroke-linejoin="round" stroke-miterlimit="10" fill="none" fill-rule="evenodd" transform="matrix(1 0 0 -1 1406 1225)"/><path d="M1457 1225 1457 1352" stroke="#FF0000" stroke-width="2.29167" stroke-linejoin="round" stroke-miterlimit="10" fill="none" fill-rule="evenodd"/><path d="M0 0 0.000360892 182" stroke="#FF0000" stroke-width="2.29167" stroke-linejoin="round" stroke-miterlimit="10" fill="none" fill-rule="evenodd" transform="matrix(1 0 0 -1 1507 1225)"/><path d="M1558 1225 1558 1439" stroke="#FF0000" stroke-width="2.29167" stroke-linejoin="round" stroke-miterlimit="10" fill="none" fill-rule="evenodd"/><path d="M0 0 0.000360892 213" stroke="#FF0000" stroke-width="2.29167" stroke-linejoin="round" stroke-miterlimit="10" fill="none" fill-rule="evenodd" transform="matrix(1 0 0 -1 1609 1225)"/><path d="M1660 1225 1660 1408" stroke="#FF0000" stroke-width="2.29167" stroke-linejoin="round" stroke-miterlimit="10" fill="none" fill-rule="evenodd"/><path d="M0 0 0.000360892 126" stroke="#FF0000" stroke-width="2.29167" stroke-linejoin="round" stroke-miterlimit="10" fill="none" fill-rule="evenodd" transform="matrix(1 0 0 -1 1711 1225)"/><path d="M1762 1225 1762 1280" stroke="#FF0000" stroke-width="2.29167" stroke-linejoin="round" stroke-miterlimit="10" fill="none" fill-rule="evenodd"/><path d="M1813 1225 1813 1248" stroke="#FF0000" stroke-width="2.29167" stroke-linejoin="round" stroke-miterlimit="10" fill="none" fill-rule="evenodd"/><path d="M0 0 0.000360892 95.0002" stroke="#FF0000" stroke-width="2.29167" stroke-linejoin="round" stroke-miterlimit="10" fill="none" fill-rule="evenodd" transform="matrix(1 0 0 -1 1864 1225)"/><path d="M1915 1225 1915 1382" stroke="#FF0000" stroke-width="2.29167" stroke-linejoin="round" stroke-miterlimit="10" fill="none" fill-rule="evenodd"/><path d="M0 0 0.000360892 201" stroke="#FF0000" stroke-width="2.29167" stroke-linejoin="round" stroke-miterlimit="10" fill="none" fill-rule="evenodd" transform="matrix(1 0 0 -1 1966 1225)"/><path d="M2016 1225 2016 1455" stroke="#FF0000" stroke-width="2.29167" stroke-linejoin="round" stroke-miterlimit="10" fill="none" fill-rule="evenodd"/><path d="M0 0 0.000360892 244" stroke="#FF0000" stroke-width="2.29167" stroke-linejoin="round" stroke-miterlimit="10" fill="none" fill-rule="evenodd" transform="matrix(1 0 0 -1 2067 1225)"/><path d="M2118 1225 2118 1476" stroke="#FF0000" stroke-width="2.29167" stroke-linejoin="round" stroke-miterlimit="10" fill="none" fill-rule="evenodd"/><path d="M0 0 0.000360892 252" stroke="#FF0000" stroke-width="2.29167" stroke-linejoin="round" stroke-miterlimit="10" fill="none" fill-rule="evenodd" transform="matrix(1 0 0 -1 2169 1225)"/><path d="M2220 1225 2220 1478" stroke="#FF0000" stroke-width="2.29167" stroke-linejoin="round" stroke-miterlimit="10" fill="none" fill-rule="evenodd"/><path d="M0 0 0.000360892 250" stroke="#FF0000" stroke-width="2.29167" stroke-linejoin="round" stroke-miterlimit="10" fill="none" fill-rule="evenodd" transform="matrix(1 0 0 -1 2270 1225)"/><path d="M2321 1225 2321 1470" stroke="#FF0000" stroke-width="2.29167" stroke-linejoin="round" stroke-miterlimit="10" fill="none" fill-rule="evenodd"/><path d="M0 0 0.000360892 229" stroke="#FF0000" stroke-width="2.29167" stroke-linejoin="round" stroke-miterlimit="10" fill="none" fill-rule="evenodd" transform="matrix(1 0 0 -1 2372 1225)"/><path d="M2423 1225 2423 1427" stroke="#FF0000" stroke-width="2.29167" stroke-linejoin="round" stroke-miterlimit="10" fill="none" fill-rule="evenodd"/><path d="M0 0 0.000360892 157" stroke="#FF0000" stroke-width="2.29167" stroke-linejoin="round" stroke-miterlimit="10" fill="none" fill-rule="evenodd" transform="matrix(1 0 0 -1 2474 1225)"/><path d="M2525 1225 2525 1321" stroke="#FF0000" stroke-width="2.29167" stroke-linejoin="round" stroke-miterlimit="10" fill="none" fill-rule="evenodd"/><path d="M0 0 0.000360892 22" stroke="#FF0000" stroke-width="2.29167" stroke-linejoin="round" stroke-miterlimit="10" fill="none" fill-rule="evenodd" transform="matrix(1 0 0 -1 2576 1225)"/><path d="M0 0 0.000360892 54" stroke="#FF0000" stroke-width="2.29167" stroke-linejoin="round" stroke-miterlimit="10" fill="none" fill-rule="evenodd" transform="matrix(1 0 0 -1 2627 1225)"/><path d="M2678 1225 2678 1352" stroke="#FF0000" stroke-width="2.29167" stroke-linejoin="round" stroke-miterlimit="10" fill="none" fill-rule="evenodd"/><path d="M0 0 0.000360892 182" stroke="#FF0000" stroke-width="2.29167" stroke-linejoin="round" stroke-miterlimit="10" fill="none" fill-rule="evenodd" transform="matrix(1 0 0 -1 2728 1225)"/><path d="M2779 1225 2779 1439" stroke="#FF0000" stroke-width="2.29167" stroke-linejoin="round" stroke-miterlimit="10" fill="none" fill-rule="evenodd"/><path d="M0 0 0.000360892 213" stroke="#FF0000" stroke-width="2.29167" stroke-linejoin="round" stroke-miterlimit="10" fill="none" fill-rule="evenodd" transform="matrix(1 0 0 -1 2830 1225)"/><path d="M2881 1225 2881 1407" stroke="#FF0000" stroke-width="2.29167" stroke-linejoin="round" stroke-miterlimit="10" fill="none" fill-rule="evenodd"/><path d="M0 0 0.000360892 123" stroke="#FF0000" stroke-width="2.29167" stroke-linejoin="round" stroke-miterlimit="10" fill="none" fill-rule="evenodd" transform="matrix(1 0 0 -1 2932 1225)"/><path d="M2983 1225 2983 1274" stroke="#FF0000" stroke-width="2.29167" stroke-linejoin="round" stroke-miterlimit="10" fill="none" fill-rule="evenodd"/><path d="M3034 1225 3034 1258" stroke="#FF0000" stroke-width="2.29167" stroke-linejoin="round" stroke-miterlimit="10" fill="none" fill-rule="evenodd"/><path d="M0 0 0.000360892 108" stroke="#FF0000" stroke-width="2.29167" stroke-linejoin="round" stroke-miterlimit="10" fill="none" fill-rule="evenodd" transform="matrix(1 0 0 -1 3085 1225)"/><path d="M3136 1225 3136 1394" stroke="#FF0000" stroke-width="2.29167" stroke-linejoin="round" stroke-miterlimit="10" fill="none" fill-rule="evenodd"/><path d="M0 0 0.000360892 207" stroke="#FF0000" stroke-width="2.29167" stroke-linejoin="round" stroke-miterlimit="10" fill="none" fill-rule="evenodd" transform="matrix(1 0 0 -1 3186 1225)"/><path d="M3237 1225 3237 1447" stroke="#FF0000" stroke-width="2.29167" stroke-linejoin="round" stroke-miterlimit="10" fill="none" fill-rule="evenodd"/><path d="M0 0 0.000360892 213" stroke="#FF0000" stroke-width="2.29167" stroke-linejoin="round" stroke-miterlimit="10" fill="none" fill-rule="evenodd" transform="matrix(1 0 0 -1 3288 1225)"/><path d="M3339 1225 3339 1412" stroke="#FF0000" stroke-width="2.29167" stroke-linejoin="round" stroke-miterlimit="10" fill="none" fill-rule="evenodd"/><path d="M0 0 0.000360892 147" stroke="#FF0000" stroke-width="2.29167" stroke-linejoin="round" stroke-miterlimit="10" fill="none" fill-rule="evenodd" transform="matrix(1 0 0 -1 3389 1225)"/><path d="M3440 1225 3440 1330" stroke="#FF0000" stroke-width="2.29167" stroke-linejoin="round" stroke-miterlimit="10" fill="none" fill-rule="evenodd"/><path d="M0 0 0.000360892 64.0003" stroke="#FF0000" stroke-width="2.29167" stroke-linejoin="round" stroke-miterlimit="10" fill="none" fill-rule="evenodd" transform="matrix(1 0 0 -1 3491 1225)"/><path d="M3542 1225 3542 1257" stroke="#FF0000" stroke-width="2.29167" stroke-linejoin="round" stroke-miterlimit="10" fill="none" fill-rule="evenodd"/><path d="M0 0 0.000360892 8.00026" stroke="#FF0000" stroke-width="2.29167" stroke-linejoin="round" stroke-miterlimit="10" fill="none" fill-rule="evenodd" transform="matrix(1 0 0 -1 3593 1225)"/></g></svg>