<svg width="3052" height="525" xmlns="http://www.w3.org/2000/svg" xmlns:xlink="http://www.w3.org/1999/xlink" overflow="hidden"><defs><clipPath id="clip0"><rect x="745" y="964" width="3052" height="525"/></clipPath></defs><g clip-path="url(#clip0)" transform="translate(-745 -964)"><path d="M745 1225 3796 1225" stroke="#262626" stroke-width="2.29167" stroke-linejoin="round" stroke-miterlimit="10" fill="none" fill-rule="evenodd"/><path d="M770.5 1008.64 796.283 1002.33 821.494 997.742 847.277 993.727 872.488 990.284 897.698 987.416 923.482 985.121 948.692 982.826 974.475 980.532 999.686 978.811 1024.9 977.663 1050.68 977.663 1075.89 978.811 1101.1 981.679 1126.88 987.416 1152.09 996.595 1177.88 1008.64 1203.09 1024.71 1228.87 1044.78 1254.08 1068.88 1279.29 1097.56 1304.5 1130.26 1330.29 1165.26 1355.5 1203.12 1381.28 1241.56 1406.49 1280.57 1432.27 1317.86 1457.49 1352.86 1482.7 1383.26 1507.91 1408.5 1533.69 1427.44 1558.9 1439.48 1584.68 1443.5 1609.89 1439.48 1635.68 1427.44 1660.89 1408.5 1686.1 1383.26 1711.88 1352.86 1737.09 1317.86 1762.3 1280.57 1788.09 1241.56 1813.3 1203.12 1839.08 1165.26 1864.29 1130.26 1889.5 1097.56 1915.28 1068.88 1940.5 1044.78 1966.28 1024.71 1991.49 1008.64 2016.7 996.595 2042.48 987.416 2067.69 981.105 2093.48 977.663 2118.69 974.795 2143.9 973.647 2169.68 973.074 2194.89 972.5 2220.68 973.074 2245.89 973.647 2271.1 974.795 2296.88 977.663 2322.09 981.105 2347.3 987.416 2373.08 996.595 2398.29 1008.64 2424.08 1024.71 2449.29 1044.78 2475.07 1068.88 2500.28 1097.56 2525.49 1130.26 2550.7 1165.26 2576.49 1203.12 2601.7 1241.56 2627.48 1280.57 2652.69 1317.86 2678.47 1352.86 2703.68 1383.26 2728.9 1408.5 2754.68 1427.44 2779.89 1439.48 2805.1 1443.5 2830.88 1439.48 2856.09 1427.44 2881.88 1407.93 2907.09 1381.54 2932.3 1349.99 2958.08 1313.85 2983.29 1274.83 3009.08 1234.1 3034.29 1193.37 3059.5 1153.79 3085.28 1117.07 3110.49 1084.94 3136.27 1056.83 3161.48 1034.46 3186.69 1018.4 3212.48 1008.64 3237.69 1004.63 3263.47 1006.35 3288.68 1012.66 3313.89 1024.71 3339.68 1039.62 3364.89 1057.98 3390.1 1078.06 3415.88 1099.29 3441.09 1121.09 3466.87 1141.74 3492.08 1161.24 3517.87 1179.03 3543.08 1194.52 3568.29 1207.71 3593.5 1218.04" stroke="#0072BD" stroke-width="9.16667" stroke-linejoin="round" stroke-miterlimit="10" fill="none" fill-rule="evenodd"/><path d="M761.5 1226C761.5 1220.75 765.529 1216.5 770.5 1216.5 775.471 1216.5 779.5 1220.75 779.5 1226 779.5 1231.25 775.471 1235.5 770.5 1235.5 765.529 1235.5 761.5 1231.25 761.5 1226Z" stroke="#000000" stroke-width="0" stroke-linejoin="round" stroke-miterlimit="10" fill="#FF0000" fill-rule="evenodd"/><path d="M787.5 1449.5C787.5 1444.53 791.529 1440.5 796.5 1440.5 801.471 1440.5 805.5 1444.53 805.5 1449.5 805.5 1454.47 801.471 1458.5 796.5 1458.5 791.529 1458.5 787.5 1454.47 787.5 1449.5Z" stroke="#000000" stroke-width="0" stroke-linejoin="round" stroke-miterlimit="10" fill="#FF0000" fill-rule="evenodd"/><path d="M812.5 1226C812.5 1220.75 816.53 1216.5 821.5 1216.5 826.471 1216.5 830.5 1220.75 830.5 1226 830.5 1231.25 826.471 1235.5 821.5 1235.5 816.53 1235.5 812.5 1231.25 812.5 1226Z" stroke="#000000" stroke-width="0" stroke-linejoin="round" stroke-miterlimit="10" fill="#FF0000" fill-rule="evenodd"/><path d="M838.5 994C838.5 988.753 842.305 984.5 847 984.5 851.694 984.5 855.5 988.753 855.5 994 855.5 999.247 851.694 1003.5 847 1003.5 842.305 1003.5 838.5 999.247 838.5 994Z" stroke="#000000" stroke-width="0" stroke-linejoin="round" stroke-miterlimit="10" fill="#FF0000" fill-rule="evenodd"/><path d="M863.5 1226C863.5 1220.75 867.529 1216.5 872.5 1216.5 877.47 1216.5 881.5 1220.75 881.5 1226 881.5 1231.25 877.47 1235.5 872.5 1235.5 867.529 1235.5 863.5 1231.25 863.5 1226Z" stroke="#000000" stroke-width="0" stroke-linejoin="round" stroke-miterlimit="10" fill="#FF0000" fill-rule="evenodd"/><path d="M888.5 1464.5C888.5 1459.53 892.53 1455.5 897.5 1455.5 902.471 1455.5 906.5 1459.53 906.5 1464.5 906.5 1469.47 902.471 1473.5 897.5 1473.5 892.53 1473.5 888.5 1469.47 888.5 1464.5Z" stroke="#000000" stroke-width="0" stroke-linejoin="round" stroke-miterlimit="10" fill="#FF0000" fill-rule="evenodd"/><path d="M914.5 1226C914.5 1220.75 918.529 1216.5 923.5 1216.5 928.471 1216.5 932.5 1220.75 932.5 1226 932.5 1231.25 928.471 1235.5 923.5 1235.5 918.529 1235.5 914.5 1231.25 914.5 1226Z" stroke="#000000" stroke-width="0" stroke-linejoin="round" stroke-miterlimit="10" fill="#FF0000" fill-rule="evenodd"/><path d="M939.5 983C939.5 977.753 943.529 973.5 948.5 973.5 953.47 973.5 957.5 977.753 957.5 983 957.5 988.247 953.47 992.5 948.5 992.5 943.529 992.5 939.5 988.247 939.5 983Z" stroke="#000000" stroke-width="0" stroke-linejoin="round" stroke-miterlimit="10" fill="#FF0000" fill-rule="evenodd"/><path d="M964.5 1226C964.5 1220.75 968.753 1216.5 974 1216.5 979.247 1216.5 983.5 1220.75 983.5 1226 983.5 1231.25 979.247 1235.5 974 1235.5 968.753 1235.5 964.5 1231.25 964.5 1226Z" stroke="#000000" stroke-width="0" stroke-linejoin="round" stroke-miterlimit="10" fill="#FF0000" fill-rule="evenodd"/><path d="M990.5 1473C990.5 1467.75 994.529 1463.5 999.5 1463.5 1004.47 1463.5 1008.5 1467.75 1008.5 1473 1008.5 1478.25 1004.47 1482.5 999.5 1482.5 994.529 1482.5 990.5 1478.25 990.5 1473Z" stroke="#000000" stroke-width="0" stroke-linejoin="round" stroke-miterlimit="10" fill="#FF0000" fill-rule="evenodd"/><path d="M1015.5 1226C1015.5 1220.75 1019.75 1216.5 1025 1216.5 1030.25 1216.5 1034.5 1220.75 1034.5 1226 1034.5 1231.25 1030.25 1235.5 1025 1235.5 1019.75 1235.5 1015.5 1231.25 1015.5 1226Z" stroke="#000000" stroke-width="0" stroke-linejoin="round" stroke-miterlimit="10" fill="#FF0000" fill-rule="evenodd"/><path d="M1041.5 978C1041.5 972.753 1045.53 968.5 1050.5 968.5 1055.47 968.5 1059.5 972.753 1059.5 978 1059.5 983.247 1055.47 987.5 1050.5 987.5 1045.53 987.5 1041.5 983.247 1041.5 978Z" stroke="#000000" stroke-width="0" stroke-linejoin="round" stroke-miterlimit="10" fill="#FF0000" fill-rule="evenodd"/><path d="M1066.5 1226C1066.5 1220.75 1070.75 1216.5 1076 1216.5 1081.25 1216.5 1085.5 1220.75 1085.5 1226 1085.5 1231.25 1081.25 1235.5 1076 1235.5 1070.75 1235.5 1066.5 1231.25 1066.5 1226Z" stroke="#000000" stroke-width="0" stroke-linejoin="round" stroke-miterlimit="10" fill="#FF0000" fill-rule="evenodd"/><path d="M1092.5 1470C1092.5 1464.75 1096.53 1460.5 1101.5 1460.5 1106.47 1460.5 1110.5 1464.75 1110.5 1470 1110.5 1475.25 1106.47 1479.5 1101.5 1479.5 1096.53 1479.5 1092.5 1475.25 1092.5 1470Z" stroke="#000000" stroke-width="0" stroke-linejoin="round" stroke-miterlimit="10" fill="#FF0000" fill-rule="evenodd"/><path d="M1117.5 1226C1117.5 1220.75 1121.75 1216.5 1127 1216.5 1132.25 1216.5 1136.5 1220.75 1136.5 1226 1136.5 1231.25 1132.25 1235.5 1127 1235.5 1121.75 1235.5 1117.5 1231.25 1117.5 1226Z" stroke="#000000" stroke-width="0" stroke-linejoin="round" stroke-miterlimit="10" fill="#FF0000" fill-rule="evenodd"/><path d="M1142.5 996.5C1142.5 991.53 1146.75 987.5 1152 987.5 1157.25 987.5 1161.5 991.53 1161.5 996.5 1161.5 1001.47 1157.25 1005.5 1152 1005.5 1146.75 1005.5 1142.5 1001.47 1142.5 996.5Z" stroke="#000000" stroke-width="0" stroke-linejoin="round" stroke-miterlimit="10" fill="#FF0000" fill-rule="evenodd"/><path d="M1168.5 1226C1168.5 1220.75 1172.75 1216.5 1178 1216.5 1183.25 1216.5 1187.5 1220.75 1187.5 1226 1187.5 1231.25 1183.25 1235.5 1178 1235.5 1172.75 1235.5 1168.5 1231.25 1168.5 1226Z" stroke="#000000" stroke-width="0" stroke-linejoin="round" stroke-miterlimit="10" fill="#FF0000" fill-rule="evenodd"/><path d="M1193.5 1427C1193.5 1421.75 1197.75 1417.5 1203 1417.5 1208.25 1417.5 1212.5 1421.75 1212.5 1427 1212.5 1432.25 1208.25 1436.5 1203 1436.5 1197.75 1436.5 1193.5 1432.25 1193.5 1427Z" stroke="#000000" stroke-width="0" stroke-linejoin="round" stroke-miterlimit="10" fill="#FF0000" fill-rule="evenodd"/><path d="M1219.5 1226C1219.5 1220.75 1223.53 1216.5 1228.5 1216.5 1233.47 1216.5 1237.5 1220.75 1237.5 1226 1237.5 1231.25 1233.47 1235.5 1228.5 1235.5 1223.53 1235.5 1219.5 1231.25 1219.5 1226Z" stroke="#000000" stroke-width="0" stroke-linejoin="round" stroke-miterlimit="10" fill="#FF0000" fill-rule="evenodd"/><path d="M1244.5 1069C1244.5 1063.75 1248.75 1059.5 1254 1059.5 1259.25 1059.5 1263.5 1063.75 1263.5 1069 1263.5 1074.25 1259.25 1078.5 1254 1078.5 1248.75 1078.5 1244.5 1074.25 1244.5 1069Z" stroke="#000000" stroke-width="0" stroke-linejoin="round" stroke-miterlimit="10" fill="#FF0000" fill-rule="evenodd"/><path d="M1270.5 1226C1270.5 1220.75 1274.53 1216.5 1279.5 1216.5 1284.47 1216.5 1288.5 1220.75 1288.5 1226 1288.5 1231.25 1284.47 1235.5 1279.5 1235.5 1274.53 1235.5 1270.5 1231.25 1270.5 1226Z" stroke="#000000" stroke-width="0" stroke-linejoin="round" stroke-miterlimit="10" fill="#FF0000" fill-rule="evenodd"/><path d="M1295.5 1322.5C1295.5 1317.53 1299.75 1313.5 1305 1313.5 1310.25 1313.5 1314.5 1317.53 1314.5 1322.5 1314.5 1327.47 1310.25 1331.5 1305 1331.5 1299.75 1331.5 1295.5 1327.47 1295.5 1322.5Z" stroke="#000000" stroke-width="0" stroke-linejoin="round" stroke-miterlimit="10" fill="#FF0000" fill-rule="evenodd"/><path d="M1321.5 1226C1321.5 1220.75 1325.53 1216.5 1330.5 1216.5 1335.47 1216.5 1339.5 1220.75 1339.5 1226 1339.5 1231.25 1335.47 1235.5 1330.5 1235.5 1325.53 1235.5 1321.5 1231.25 1321.5 1226Z" stroke="#000000" stroke-width="0" stroke-linejoin="round" stroke-miterlimit="10" fill="#FF0000" fill-rule="evenodd"/><path d="M1346.5 1203C1346.5 1197.75 1350.75 1193.5 1356 1193.5 1361.25 1193.5 1365.5 1197.75 1365.5 1203 1365.5 1208.25 1361.25 1212.5 1356 1212.5 1350.75 1212.5 1346.5 1208.25 1346.5 1203Z" stroke="#000000" stroke-width="0" stroke-linejoin="round" stroke-miterlimit="10" fill="#FF0000" fill-rule="evenodd"/><path d="M1372.5 1226C1372.5 1220.75 1376.53 1216.5 1381.5 1216.5 1386.47 1216.5 1390.5 1220.75 1390.5 1226 1390.5 1231.25 1386.47 1235.5 1381.5 1235.5 1376.53 1235.5 1372.5 1231.25 1372.5 1226Z" stroke="#000000" stroke-width="0" stroke-linejoin="round" stroke-miterlimit="10" fill="#FF0000" fill-rule="evenodd"/><path d="M1397.5 1171.5C1397.5 1166.53 1401.53 1162.5 1406.5 1162.5 1411.47 1162.5 1415.5 1166.53 1415.5 1171.5 1415.5 1176.47 1411.47 1180.5 1406.5 1180.5 1401.53 1180.5 1397.5 1176.47 1397.5 1171.5Z" stroke="#000000" stroke-width="0" stroke-linejoin="round" stroke-miterlimit="10" fill="#FF0000" fill-rule="evenodd"/><path d="M1422.5 1226C1422.5 1220.75 1426.53 1216.5 1431.5 1216.5 1436.47 1216.5 1440.5 1220.75 1440.5 1226 1440.5 1231.25 1436.47 1235.5 1431.5 1235.5 1426.53 1235.5 1422.5 1231.25 1422.5 1226Z" stroke="#000000" stroke-width="0" stroke-linejoin="round" stroke-miterlimit="10" fill="#FF0000" fill-rule="evenodd"/><path d="M1448.5 1352C1448.5 1346.75 1452.53 1342.5 1457.5 1342.5 1462.47 1342.5 1466.5 1346.75 1466.5 1352 1466.5 1357.25 1462.47 1361.5 1457.5 1361.5 1452.53 1361.5 1448.5 1357.25 1448.5 1352Z" stroke="#000000" stroke-width="0" stroke-linejoin="round" stroke-miterlimit="10" fill="#FF0000" fill-rule="evenodd"/><path d="M1473.5 1226C1473.5 1220.75 1477.53 1216.5 1482.5 1216.5 1487.47 1216.5 1491.5 1220.75 1491.5 1226 1491.5 1231.25 1487.47 1235.5 1482.5 1235.5 1477.53 1235.5 1473.5 1231.25 1473.5 1226Z" stroke="#000000" stroke-width="0" stroke-linejoin="round" stroke-miterlimit="10" fill="#FF0000" fill-rule="evenodd"/><path d="M1499.5 1043.5C1499.5 1038.53 1503.53 1034.5 1508.5 1034.5 1513.47 1034.5 1517.5 1038.53 1517.5 1043.5 1517.5 1048.47 1513.47 1052.5 1508.5 1052.5 1503.53 1052.5 1499.5 1048.47 1499.5 1043.5Z" stroke="#000000" stroke-width="0" stroke-linejoin="round" stroke-miterlimit="10" fill="#FF0000" fill-rule="evenodd"/><path d="M1524.5 1226C1524.5 1220.75 1528.53 1216.5 1533.5 1216.5 1538.47 1216.5 1542.5 1220.75 1542.5 1226 1542.5 1231.25 1538.47 1235.5 1533.5 1235.5 1528.53 1235.5 1524.5 1231.25 1524.5 1226Z" stroke="#000000" stroke-width="0" stroke-linejoin="round" stroke-miterlimit="10" fill="#FF0000" fill-rule="evenodd"/><path d="M1549.5 1439C1549.5 1433.75 1553.75 1429.5 1559 1429.5 1564.25 1429.5 1568.5 1433.75 1568.5 1439 1568.5 1444.25 1564.25 1448.5 1559 1448.5 1553.75 1448.5 1549.5 1444.25 1549.5 1439Z" stroke="#000000" stroke-width="0" stroke-linejoin="round" stroke-miterlimit="10" fill="#FF0000" fill-rule="evenodd"/><path d="M1575.5 1226C1575.5 1220.75 1579.53 1216.5 1584.5 1216.5 1589.47 1216.5 1593.5 1220.75 1593.5 1226 1593.5 1231.25 1589.47 1235.5 1584.5 1235.5 1579.53 1235.5 1575.5 1231.25 1575.5 1226Z" stroke="#000000" stroke-width="0" stroke-linejoin="round" stroke-miterlimit="10" fill="#FF0000" fill-rule="evenodd"/><path d="M1600.5 1013C1600.5 1007.75 1604.53 1003.5 1609.5 1003.5 1614.47 1003.5 1618.5 1007.75 1618.5 1013 1618.5 1018.25 1614.47 1022.5 1609.5 1022.5 1604.53 1022.5 1600.5 1018.25 1600.5 1013Z" stroke="#000000" stroke-width="0" stroke-linejoin="round" stroke-miterlimit="10" fill="#FF0000" fill-rule="evenodd"/><path d="M1626.5 1226C1626.5 1220.75 1630.53 1216.5 1635.5 1216.5 1640.47 1216.5 1644.5 1220.75 1644.5 1226 1644.5 1231.25 1640.47 1235.5 1635.5 1235.5 1630.53 1235.5 1626.5 1231.25 1626.5 1226Z" stroke="#000000" stroke-width="0" stroke-linejoin="round" stroke-miterlimit="10" fill="#FF0000" fill-rule="evenodd"/><path d="M1651.5 1408C1651.5 1402.75 1655.53 1398.5 1660.5 1398.5 1665.47 1398.5 1669.5 1402.75 1669.5 1408 1669.5 1413.25 1665.47 1417.5 1660.5 1417.5 1655.53 1417.5 1651.5 1413.25 1651.5 1408Z" stroke="#000000" stroke-width="0" stroke-linejoin="round" stroke-miterlimit="10" fill="#FF0000" fill-rule="evenodd"/><path d="M1676.5 1226C1676.5 1220.75 1680.75 1216.5 1686 1216.5 1691.25 1216.5 1695.5 1220.75 1695.5 1226 1695.5 1231.25 1691.25 1235.5 1686 1235.5 1680.75 1235.5 1676.5 1231.25 1676.5 1226Z" stroke="#000000" stroke-width="0" stroke-linejoin="round" stroke-miterlimit="10" fill="#FF0000" fill-rule="evenodd"/><path d="M1702.5 1100C1702.5 1094.75 1706.53 1090.5 1711.5 1090.5 1716.47 1090.5 1720.5 1094.75 1720.5 1100 1720.5 1105.25 1716.47 1109.5 1711.5 1109.5 1706.53 1109.5 1702.5 1105.25 1702.5 1100Z" stroke="#000000" stroke-width="0" stroke-linejoin="round" stroke-miterlimit="10" fill="#FF0000" fill-rule="evenodd"/><path d="M1727.5 1226C1727.5 1220.75 1731.75 1216.5 1737 1216.5 1742.25 1216.5 1746.5 1220.75 1746.5 1226 1746.5 1231.25 1742.25 1235.5 1737 1235.5 1731.75 1235.5 1727.5 1231.25 1727.5 1226Z" stroke="#000000" stroke-width="0" stroke-linejoin="round" stroke-miterlimit="10" fill="#FF0000" fill-rule="evenodd"/><path d="M1753.5 1280.5C1753.5 1275.53 1757.53 1271.5 1762.5 1271.5 1767.47 1271.5 1771.5 1275.53 1771.5 1280.5 1771.5 1285.47 1767.47 1289.5 1762.5 1289.5 1757.53 1289.5 1753.5 1285.47 1753.5 1280.5Z" stroke="#000000" stroke-width="0" stroke-linejoin="round" stroke-miterlimit="10" fill="#FF0000" fill-rule="evenodd"/><path d="M1778.5 1226C1778.5 1220.75 1782.75 1216.5 1788 1216.5 1793.25 1216.5 1797.5 1220.75 1797.5 1226 1797.5 1231.25 1793.25 1235.5 1788 1235.5 1782.75 1235.5 1778.5 1231.25 1778.5 1226Z" stroke="#000000" stroke-width="0" stroke-linejoin="round" stroke-miterlimit="10" fill="#FF0000" fill-rule="evenodd"/><path d="M1804.5 1249C1804.5 1243.75 1808.53 1239.5 1813.5 1239.5 1818.47 1239.5 1822.5 1243.75 1822.5 1249 1822.5 1254.25 1818.47 1258.5 1813.5 1258.5 1808.53 1258.5 1804.5 1254.25 1804.5 1249Z" stroke="#000000" stroke-width="0" stroke-linejoin="round" stroke-miterlimit="10" fill="#FF0000" fill-rule="evenodd"/><path d="M1829.5 1226C1829.5 1220.75 1833.75 1216.5 1839 1216.5 1844.25 1216.5 1848.5 1220.75 1848.5 1226 1848.5 1231.25 1844.25 1235.5 1839 1235.5 1833.75 1235.5 1829.5 1231.25 1829.5 1226Z" stroke="#000000" stroke-width="0" stroke-linejoin="round" stroke-miterlimit="10" fill="#FF0000" fill-rule="evenodd"/><path d="M1855.5 1129.5C1855.5 1124.53 1859.53 1120.5 1864.5 1120.5 1869.47 1120.5 1873.5 1124.53 1873.5 1129.5 1873.5 1134.47 1869.47 1138.5 1864.5 1138.5 1859.53 1138.5 1855.5 1134.47 1855.5 1129.5Z" stroke="#000000" stroke-width="0" stroke-linejoin="round" stroke-miterlimit="10" fill="#FF0000" fill-rule="evenodd"/><path d="M1880.5 1226C1880.5 1220.75 1884.53 1216.5 1889.5 1216.5 1894.47 1216.5 1898.5 1220.75 1898.5 1226 1898.5 1231.25 1894.47 1235.5 1889.5 1235.5 1884.53 1235.5 1880.5 1231.25 1880.5 1226Z" stroke="#000000" stroke-width="0" stroke-linejoin="round" stroke-miterlimit="10" fill="#FF0000" fill-rule="evenodd"/><path d="M1906.5 1383C1906.5 1377.75 1910.53 1373.5 1915.5 1373.5 1920.47 1373.5 1924.5 1377.75 1924.5 1383 1924.5 1388.25 1920.47 1392.5 1915.5 1392.5 1910.53 1392.5 1906.5 1388.25 1906.5 1383Z" stroke="#000000" stroke-width="0" stroke-linejoin="round" stroke-miterlimit="10" fill="#FF0000" fill-rule="evenodd"/><path d="M1931.5 1226C1931.5 1220.75 1935.53 1216.5 1940.5 1216.5 1945.47 1216.5 1949.5 1220.75 1949.5 1226 1949.5 1231.25 1945.47 1235.5 1940.5 1235.5 1935.53 1235.5 1931.5 1231.25 1931.5 1226Z" stroke="#000000" stroke-width="0" stroke-linejoin="round" stroke-miterlimit="10" fill="#FF0000" fill-rule="evenodd"/><path d="M1957.5 1025C1957.5 1019.75 1961.53 1015.5 1966.5 1015.5 1971.47 1015.5 1975.5 1019.75 1975.5 1025 1975.5 1030.25 1971.47 1034.5 1966.5 1034.5 1961.53 1034.5 1957.5 1030.25 1957.5 1025Z" stroke="#000000" stroke-width="0" stroke-linejoin="round" stroke-miterlimit="10" fill="#FF0000" fill-rule="evenodd"/><path d="M1982.5 1226C1982.5 1220.75 1986.53 1216.5 1991.5 1216.5 1996.47 1216.5 2000.5 1220.75 2000.5 1226 2000.5 1231.25 1996.47 1235.5 1991.5 1235.5 1986.53 1235.5 1982.5 1231.25 1982.5 1226Z" stroke="#000000" stroke-width="0" stroke-linejoin="round" stroke-miterlimit="10" fill="#FF0000" fill-rule="evenodd"/><path d="M2007.5 1455C2007.5 1449.75 2011.53 1445.5 2016.5 1445.5 2021.47 1445.5 2025.5 1449.75 2025.5 1455 2025.5 1460.25 2021.47 1464.5 2016.5 1464.5 2011.53 1464.5 2007.5 1460.25 2007.5 1455Z" stroke="#000000" stroke-width="0" stroke-linejoin="round" stroke-miterlimit="10" fill="#FF0000" fill-rule="evenodd"/><path d="M2033.5 1226C2033.5 1220.75 2037.53 1216.5 2042.5 1216.5 2047.47 1216.5 2051.5 1220.75 2051.5 1226 2051.5 1231.25 2047.47 1235.5 2042.5 1235.5 2037.53 1235.5 2033.5 1231.25 2033.5 1226Z" stroke="#000000" stroke-width="0" stroke-linejoin="round" stroke-miterlimit="10" fill="#FF0000" fill-rule="evenodd"/><path d="M2058.5 982C2058.5 976.753 2062.53 972.5 2067.5 972.5 2072.47 972.5 2076.5 976.753 2076.5 982 2076.5 987.247 2072.47 991.5 2067.5 991.5 2062.53 991.5 2058.5 987.247 2058.5 982Z" stroke="#000000" stroke-width="0" stroke-linejoin="round" stroke-miterlimit="10" fill="#FF0000" fill-rule="evenodd"/><path d="M2084.5 1226C2084.5 1220.75 2088.53 1216.5 2093.5 1216.5 2098.47 1216.5 2102.5 1220.75 2102.5 1226 2102.5 1231.25 2098.47 1235.5 2093.5 1235.5 2088.53 1235.5 2084.5 1231.25 2084.5 1226Z" stroke="#000000" stroke-width="0" stroke-linejoin="round" stroke-miterlimit="10" fill="#FF0000" fill-rule="evenodd"/><path d="M2109.5 1477C2109.5 1471.75 2113.53 1467.5 2118.5 1467.5 2123.47 1467.5 2127.5 1471.75 2127.5 1477 2127.5 1482.25 2123.47 1486.5 2118.5 1486.5 2113.53 1486.5 2109.5 1482.25 2109.5 1477Z" stroke="#000000" stroke-width="0" stroke-linejoin="round" stroke-miterlimit="10" fill="#FF0000" fill-rule="evenodd"/><path d="M2134.5 1226C2134.5 1220.75 2138.53 1216.5 2143.5 1216.5 2148.47 1216.5 2152.5 1220.75 2152.5 1226 2152.5 1231.25 2148.47 1235.5 2143.5 1235.5 2138.53 1235.5 2134.5 1231.25 2134.5 1226Z" stroke="#000000" stroke-width="0" stroke-linejoin="round" stroke-miterlimit="10" fill="#FF0000" fill-rule="evenodd"/><path d="M2160.5 973.5C2160.5 968.529 2164.53 964.5 2169.5 964.5 2174.47 964.5 2178.5 968.529 2178.5 973.5 2178.5 978.471 2174.47 982.5 2169.5 982.5 2164.53 982.5 2160.5 978.471 2160.5 973.5Z" stroke="#000000" stroke-width="0" stroke-linejoin="round" stroke-miterlimit="10" fill="#FF0000" fill-rule="evenodd"/><path d="M2185.5 1226C2185.5 1220.75 2189.53 1216.5 2194.5 1216.5 2199.47 1216.5 2203.5 1220.75 2203.5 1226 2203.5 1231.25 2199.47 1235.5 2194.5 1235.5 2189.53 1235.5 2185.5 1231.25 2185.5 1226Z" stroke="#000000" stroke-width="0" stroke-linejoin="round" stroke-miterlimit="10" fill="#FF0000" fill-rule="evenodd"/><path d="M2210.5 1479C2210.5 1473.75 2214.75 1469.5 2220 1469.5 2225.25 1469.5 2229.5 1473.75 2229.5 1479 2229.5 1484.25 2225.25 1488.5 2220 1488.5 2214.75 1488.5 2210.5 1484.25 2210.5 1479Z" stroke="#000000" stroke-width="0" stroke-linejoin="round" stroke-miterlimit="10" fill="#FF0000" fill-rule="evenodd"/><path d="M2236.5 1226C2236.5 1220.75 2240.53 1216.5 2245.5 1216.5 2250.47 1216.5 2254.5 1220.75 2254.5 1226 2254.5 1231.25 2250.47 1235.5 2245.5 1235.5 2240.53 1235.5 2236.5 1231.25 2236.5 1226Z" stroke="#000000" stroke-width="0" stroke-linejoin="round" stroke-miterlimit="10" fill="#FF0000" fill-rule="evenodd"/><path d="M2261.5 975C2261.5 969.753 2265.75 965.5 2271 965.5 2276.25 965.5 2280.5 969.753 2280.5 975 2280.5 980.247 2276.25 984.5 2271 984.5 2265.75 984.5 2261.5 980.247 2261.5 975Z" stroke="#000000" stroke-width="0" stroke-linejoin="round" stroke-miterlimit="10" fill="#FF0000" fill-rule="evenodd"/><path d="M2287.5 1226C2287.5 1220.75 2291.53 1216.5 2296.5 1216.5 2301.47 1216.5 2305.5 1220.75 2305.5 1226 2305.5 1231.25 2301.47 1235.5 2296.5 1235.5 2291.53 1235.5 2287.5 1231.25 2287.5 1226Z" stroke="#000000" stroke-width="0" stroke-linejoin="round" stroke-miterlimit="10" fill="#FF0000" fill-rule="evenodd"/><path d="M2312.5 1470C2312.5 1464.75 2316.75 1460.5 2322 1460.5 2327.25 1460.5 2331.5 1464.75 2331.5 1470 2331.5 1475.25 2327.25 1479.5 2322 1479.5 2316.75 1479.5 2312.5 1475.25 2312.5 1470Z" stroke="#000000" stroke-width="0" stroke-linejoin="round" stroke-miterlimit="10" fill="#FF0000" fill-rule="evenodd"/><path d="M2338.5 1226C2338.5 1220.75 2342.53 1216.5 2347.5 1216.5 2352.47 1216.5 2356.5 1220.75 2356.5 1226 2356.5 1231.25 2352.47 1235.5 2347.5 1235.5 2342.53 1235.5 2338.5 1231.25 2338.5 1226Z" stroke="#000000" stroke-width="0" stroke-linejoin="round" stroke-miterlimit="10" fill="#FF0000" fill-rule="evenodd"/><path d="M2363.5 996.5C2363.5 991.53 2367.75 987.5 2373 987.5 2378.25 987.5 2382.5 991.53 2382.5 996.5 2382.5 1001.47 2378.25 1005.5 2373 1005.5 2367.75 1005.5 2363.5 1001.47 2363.5 996.5Z" stroke="#000000" stroke-width="0" stroke-linejoin="round" stroke-miterlimit="10" fill="#FF0000" fill-rule="evenodd"/><path d="M2388.5 1226C2388.5 1220.75 2392.75 1216.5 2398 1216.5 2403.25 1216.5 2407.5 1220.75 2407.5 1226 2407.5 1231.25 2403.25 1235.5 2398 1235.5 2392.75 1235.5 2388.5 1231.25 2388.5 1226Z" stroke="#000000" stroke-width="0" stroke-linejoin="round" stroke-miterlimit="10" fill="#FF0000" fill-rule="evenodd"/><path d="M2414.5 1427C2414.5 1421.75 2418.75 1417.5 2424 1417.5 2429.25 1417.5 2433.5 1421.75 2433.5 1427 2433.5 1432.25 2429.25 1436.5 2424 1436.5 2418.75 1436.5 2414.5 1432.25 2414.5 1427Z" stroke="#000000" stroke-width="0" stroke-linejoin="round" stroke-miterlimit="10" fill="#FF0000" fill-rule="evenodd"/><path d="M2439.5 1226C2439.5 1220.75 2443.75 1216.5 2449 1216.5 2454.25 1216.5 2458.5 1220.75 2458.5 1226 2458.5 1231.25 2454.25 1235.5 2449 1235.5 2443.75 1235.5 2439.5 1231.25 2439.5 1226Z" stroke="#000000" stroke-width="0" stroke-linejoin="round" stroke-miterlimit="10" fill="#FF0000" fill-rule="evenodd"/><path d="M2465.5 1069C2465.5 1063.75 2469.53 1059.5 2474.5 1059.5 2479.47 1059.5 2483.5 1063.75 2483.5 1069 2483.5 1074.25 2479.47 1078.5 2474.5 1078.5 2469.53 1078.5 2465.5 1074.25 2465.5 1069Z" stroke="#000000" stroke-width="0" stroke-linejoin="round" stroke-miterlimit="10" fill="#FF0000" fill-rule="evenodd"/><path d="M2490.5 1226C2490.5 1220.75 2494.75 1216.5 2500 1216.5 2505.25 1216.5 2509.5 1220.75 2509.5 1226 2509.5 1231.25 2505.25 1235.5 2500 1235.5 2494.75 1235.5 2490.5 1231.25 2490.5 1226Z" stroke="#000000" stroke-width="0" stroke-linejoin="round" stroke-miterlimit="10" fill="#FF0000" fill-rule="evenodd"/><path d="M2516.5 1322.5C2516.5 1317.53 2520.53 1313.5 2525.5 1313.5 2530.47 1313.5 2534.5 1317.53 2534.5 1322.5 2534.5 1327.47 2530.47 1331.5 2525.5 1331.5 2520.53 1331.5 2516.5 1327.47 2516.5 1322.5Z" stroke="#000000" stroke-width="0" stroke-linejoin="round" stroke-miterlimit="10" fill="#FF0000" fill-rule="evenodd"/><path d="M2541.5 1226C2541.5 1220.75 2545.75 1216.5 2551 1216.5 2556.25 1216.5 2560.5 1220.75 2560.5 1226 2560.5 1231.25 2556.25 1235.5 2551 1235.5 2545.75 1235.5 2541.5 1231.25 2541.5 1226Z" stroke="#000000" stroke-width="0" stroke-linejoin="round" stroke-miterlimit="10" fill="#FF0000" fill-rule="evenodd"/><path d="M2567.5 1203C2567.5 1197.75 2571.53 1193.5 2576.5 1193.5 2581.47 1193.5 2585.5 1197.75 2585.5 1203 2585.5 1208.25 2581.47 1212.5 2576.5 1212.5 2571.53 1212.5 2567.5 1208.25 2567.5 1203Z" stroke="#000000" stroke-width="0" stroke-linejoin="round" stroke-miterlimit="10" fill="#FF0000" fill-rule="evenodd"/><path d="M2592.5 1226C2592.5 1220.75 2596.75 1216.5 2602 1216.5 2607.25 1216.5 2611.5 1220.75 2611.5 1226 2611.5 1231.25 2607.25 1235.5 2602 1235.5 2596.75 1235.5 2592.5 1231.25 2592.5 1226Z" stroke="#000000" stroke-width="0" stroke-linejoin="round" stroke-miterlimit="10" fill="#FF0000" fill-rule="evenodd"/><path d="M2618.5 1171.5C2618.5 1166.53 2622.53 1162.5 2627.5 1162.5 2632.47 1162.5 2636.5 1166.53 2636.5 1171.5 2636.5 1176.47 2632.47 1180.5 2627.5 1180.5 2622.53 1180.5 2618.5 1176.47 2618.5 1171.5Z" stroke="#000000" stroke-width="0" stroke-linejoin="round" stroke-miterlimit="10" fill="#FF0000" fill-rule="evenodd"/><path d="M2643.5 1226C2643.5 1220.75 2647.53 1216.5 2652.5 1216.5 2657.47 1216.5 2661.5 1220.75 2661.5 1226 2661.5 1231.25 2657.47 1235.5 2652.5 1235.5 2647.53 1235.5 2643.5 1231.25 2643.5 1226Z" stroke="#000000" stroke-width="0" stroke-linejoin="round" stroke-miterlimit="10" fill="#FF0000" fill-rule="evenodd"/><path d="M2669.5 1352C2669.5 1346.75 2673.31 1342.5 2678 1342.5 2682.69 1342.5 2686.5 1346.75 2686.5 1352 2686.5 1357.25 2682.69 1361.5 2678 1361.5 2673.31 1361.5 2669.5 1357.25 2669.5 1352Z" stroke="#000000" stroke-width="0" stroke-linejoin="round" stroke-miterlimit="10" fill="#FF0000" fill-rule="evenodd"/><path d="M2694.5 1226C2694.5 1220.75 2698.53 1216.5 2703.5 1216.5 2708.47 1216.5 2712.5 1220.75 2712.5 1226 2712.5 1231.25 2708.47 1235.5 2703.5 1235.5 2698.53 1235.5 2694.5 1231.25 2694.5 1226Z" stroke="#000000" stroke-width="0" stroke-linejoin="round" stroke-miterlimit="10" fill="#FF0000" fill-rule="evenodd"/><path d="M2719.5 1043.5C2719.5 1038.53 2723.53 1034.5 2728.5 1034.5 2733.47 1034.5 2737.5 1038.53 2737.5 1043.5 2737.5 1048.47 2733.47 1052.5 2728.5 1052.5 2723.53 1052.5 2719.5 1048.47 2719.5 1043.5Z" stroke="#000000" stroke-width="0" stroke-linejoin="round" stroke-miterlimit="10" fill="#FF0000" fill-rule="evenodd"/><path d="M2745.5 1226C2745.5 1220.75 2749.53 1216.5 2754.5 1216.5 2759.47 1216.5 2763.5 1220.75 2763.5 1226 2763.5 1231.25 2759.47 1235.5 2754.5 1235.5 2749.53 1235.5 2745.5 1231.25 2745.5 1226Z" stroke="#000000" stroke-width="0" stroke-linejoin="round" stroke-miterlimit="10" fill="#FF0000" fill-rule="evenodd"/><path d="M2770.5 1439C2770.5 1433.75 2774.53 1429.5 2779.5 1429.5 2784.47 1429.5 2788.5 1433.75 2788.5 1439 2788.5 1444.25 2784.47 1448.5 2779.5 1448.5 2774.53 1448.5 2770.5 1444.25 2770.5 1439Z" stroke="#000000" stroke-width="0" stroke-linejoin="round" stroke-miterlimit="10" fill="#FF0000" fill-rule="evenodd"/><path d="M2795.5 1226C2795.5 1220.75 2799.75 1216.5 2805 1216.5 2810.25 1216.5 2814.5 1220.75 2814.5 1226 2814.5 1231.25 2810.25 1235.5 2805 1235.5 2799.75 1235.5 2795.5 1231.25 2795.5 1226Z" stroke="#000000" stroke-width="0" stroke-linejoin="round" stroke-miterlimit="10" fill="#FF0000" fill-rule="evenodd"/><path d="M2821.5 1013C2821.5 1007.75 2825.53 1003.5 2830.5 1003.5 2835.47 1003.5 2839.5 1007.75 2839.5 1013 2839.5 1018.25 2835.47 1022.5 2830.5 1022.5 2825.53 1022.5 2821.5 1018.25 2821.5 1013Z" stroke="#000000" stroke-width="0" stroke-linejoin="round" stroke-miterlimit="10" fill="#FF0000" fill-rule="evenodd"/><path d="M2846.5 1226C2846.5 1220.75 2850.75 1216.5 2856 1216.5 2861.25 1216.5 2865.5 1220.75 2865.5 1226 2865.5 1231.25 2861.25 1235.5 2856 1235.5 2850.75 1235.5 2846.5 1231.25 2846.5 1226Z" stroke="#000000" stroke-width="0" stroke-linejoin="round" stroke-miterlimit="10" fill="#FF0000" fill-rule="evenodd"/><path d="M2872.5 1407.5C2872.5 1402.53 2876.53 1398.5 2881.5 1398.5 2886.47 1398.5 2890.5 1402.53 2890.5 1407.5 2890.5 1412.47 2886.47 1416.5 2881.5 1416.5 2876.53 1416.5 2872.5 1412.47 2872.5 1407.5Z" stroke="#000000" stroke-width="0" stroke-linejoin="round" stroke-miterlimit="10" fill="#FF0000" fill-rule="evenodd"/><path d="M2897.5 1226C2897.5 1220.75 2901.75 1216.5 2907 1216.5 2912.25 1216.5 2916.5 1220.75 2916.5 1226 2916.5 1231.25 2912.25 1235.5 2907 1235.5 2901.75 1235.5 2897.5 1231.25 2897.5 1226Z" stroke="#000000" stroke-width="0" stroke-linejoin="round" stroke-miterlimit="10" fill="#FF0000" fill-rule="evenodd"/><path d="M2923.5 1102.5C2923.5 1097.53 2927.53 1093.5 2932.5 1093.5 2937.47 1093.5 2941.5 1097.53 2941.5 1102.5 2941.5 1107.47 2937.47 1111.5 2932.5 1111.5 2927.53 1111.5 2923.5 1107.47 2923.5 1102.5Z" stroke="#000000" stroke-width="0" stroke-linejoin="round" stroke-miterlimit="10" fill="#FF0000" fill-rule="evenodd"/><path d="M2948.5 1226C2948.5 1220.75 2952.75 1216.5 2958 1216.5 2963.25 1216.5 2967.5 1220.75 2967.5 1226 2967.5 1231.25 2963.25 1235.5 2958 1235.5 2952.75 1235.5 2948.5 1231.25 2948.5 1226Z" stroke="#000000" stroke-width="0" stroke-linejoin="round" stroke-miterlimit="10" fill="#FF0000" fill-rule="evenodd"/><path d="M2973.5 1274.5C2973.5 1269.53 2977.75 1265.5 2983 1265.5 2988.25 1265.5 2992.5 1269.53 2992.5 1274.5 2992.5 1279.47 2988.25 1283.5 2983 1283.5 2977.75 1283.5 2973.5 1279.47 2973.5 1274.5Z" stroke="#000000" stroke-width="0" stroke-linejoin="round" stroke-miterlimit="10" fill="#FF0000" fill-rule="evenodd"/><path d="M2999.5 1226C2999.5 1220.75 3003.75 1216.5 3009 1216.5 3014.25 1216.5 3018.5 1220.75 3018.5 1226 3018.5 1231.25 3014.25 1235.5 3009 1235.5 3003.75 1235.5 2999.5 1231.25 2999.5 1226Z" stroke="#000000" stroke-width="0" stroke-linejoin="round" stroke-miterlimit="10" fill="#FF0000" fill-rule="evenodd"/><path d="M3024.5 1258.5C3024.5 1253.53 3028.75 1249.5 3034 1249.5 3039.25 1249.5 3043.5 1253.53 3043.5 1258.5 3043.5 1263.47 3039.25 1267.5 3034 1267.5 3028.75 1267.5 3024.5 1263.47 3024.5 1258.5Z" stroke="#000000" stroke-width="0" stroke-linejoin="round" stroke-miterlimit="10" fill="#FF0000" fill-rule="evenodd"/><path d="M3050.5 1226C3050.5 1220.75 3054.53 1216.5 3059.5 1216.5 3064.47 1216.5 3068.5 1220.75 3068.5 1226 3068.5 1231.25 3064.47 1235.5 3059.5 1235.5 3054.53 1235.5 3050.5 1231.25 3050.5 1226Z" stroke="#000000" stroke-width="0" stroke-linejoin="round" stroke-miterlimit="10" fill="#FF0000" fill-rule="evenodd"/><path d="M3075.5 1117C3075.5 1111.75 3079.75 1107.5 3085 1107.5 3090.25 1107.5 3094.5 1111.75 3094.5 1117 3094.5 1122.25 3090.25 1126.5 3085 1126.5 3079.75 1126.5 3075.5 1122.25 3075.5 1117Z" stroke="#000000" stroke-width="0" stroke-linejoin="round" stroke-miterlimit="10" fill="#FF0000" fill-rule="evenodd"/><path d="M3101.5 1226C3101.5 1220.75 3105.53 1216.5 3110.5 1216.5 3115.47 1216.5 3119.5 1220.75 3119.5 1226 3119.5 1231.25 3115.47 1235.5 3110.5 1235.5 3105.53 1235.5 3101.5 1231.25 3101.5 1226Z" stroke="#000000" stroke-width="0" stroke-linejoin="round" stroke-miterlimit="10" fill="#FF0000" fill-rule="evenodd"/><path d="M3126.5 1395C3126.5 1389.75 3130.53 1385.5 3135.5 1385.5 3140.47 1385.5 3144.5 1389.75 3144.5 1395 3144.5 1400.25 3140.47 1404.5 3135.5 1404.5 3130.53 1404.5 3126.5 1400.25 3126.5 1395Z" stroke="#000000" stroke-width="0" stroke-linejoin="round" stroke-miterlimit="10" fill="#FF0000" fill-rule="evenodd"/><path d="M3152.5 1226C3152.5 1220.75 3156.53 1216.5 3161.5 1216.5 3166.47 1216.5 3170.5 1220.75 3170.5 1226 3170.5 1231.25 3166.47 1235.5 3161.5 1235.5 3156.53 1235.5 3152.5 1231.25 3152.5 1226Z" stroke="#000000" stroke-width="0" stroke-linejoin="round" stroke-miterlimit="10" fill="#FF0000" fill-rule="evenodd"/><path d="M3177.5 1018.5C3177.5 1013.53 3181.53 1009.5 3186.5 1009.5 3191.47 1009.5 3195.5 1013.53 3195.5 1018.5 3195.5 1023.47 3191.47 1027.5 3186.5 1027.5 3181.53 1027.5 3177.5 1023.47 3177.5 1018.5Z" stroke="#000000" stroke-width="0" stroke-linejoin="round" stroke-miterlimit="10" fill="#FF0000" fill-rule="evenodd"/><path d="M3203.5 1226C3203.5 1220.75 3207.53 1216.5 3212.5 1216.5 3217.47 1216.5 3221.5 1220.75 3221.5 1226 3221.5 1231.25 3217.47 1235.5 3212.5 1235.5 3207.53 1235.5 3203.5 1231.25 3203.5 1226Z" stroke="#000000" stroke-width="0" stroke-linejoin="round" stroke-miterlimit="10" fill="#FF0000" fill-rule="evenodd"/><path d="M3228.5 1447C3228.5 1441.75 3232.53 1437.5 3237.5 1437.5 3242.47 1437.5 3246.5 1441.75 3246.5 1447 3246.5 1452.25 3242.47 1456.5 3237.5 1456.5 3232.53 1456.5 3228.5 1452.25 3228.5 1447Z" stroke="#000000" stroke-width="0" stroke-linejoin="round" stroke-miterlimit="10" fill="#FF0000" fill-rule="evenodd"/><path d="M3253.5 1226C3253.5 1220.75 3257.75 1216.5 3263 1216.5 3268.25 1216.5 3272.5 1220.75 3272.5 1226 3272.5 1231.25 3268.25 1235.5 3263 1235.5 3257.75 1235.5 3253.5 1231.25 3253.5 1226Z" stroke="#000000" stroke-width="0" stroke-linejoin="round" stroke-miterlimit="10" fill="#FF0000" fill-rule="evenodd"/><path d="M3279.5 1013.5C3279.5 1008.53 3283.53 1004.5 3288.5 1004.5 3293.47 1004.5 3297.5 1008.53 3297.5 1013.5 3297.5 1018.47 3293.47 1022.5 3288.5 1022.5 3283.53 1022.5 3279.5 1018.47 3279.5 1013.5Z" stroke="#000000" stroke-width="0" stroke-linejoin="round" stroke-miterlimit="10" fill="#FF0000" fill-rule="evenodd"/><path d="M3304.5 1226C3304.5 1220.75 3308.53 1216.5 3313.5 1216.5 3318.47 1216.5 3322.5 1220.75 3322.5 1226 3322.5 1231.25 3318.47 1235.5 3313.5 1235.5 3308.53 1235.5 3304.5 1231.25 3304.5 1226Z" stroke="#000000" stroke-width="0" stroke-linejoin="round" stroke-miterlimit="10" fill="#FF0000" fill-rule="evenodd"/><path d="M3330.5 1412.5C3330.5 1407.53 3334.53 1403.5 3339.5 1403.5 3344.47 1403.5 3348.5 1407.53 3348.5 1412.5 3348.5 1417.47 3344.47 1421.5 3339.5 1421.5 3334.53 1421.5 3330.5 1417.47 3330.5 1412.5Z" stroke="#000000" stroke-width="0" stroke-linejoin="round" stroke-miterlimit="10" fill="#FF0000" fill-rule="evenodd"/><path d="M3355.5 1226C3355.5 1220.75 3359.53 1216.5 3364.5 1216.5 3369.47 1216.5 3373.5 1220.75 3373.5 1226 3373.5 1231.25 3369.47 1235.5 3364.5 1235.5 3359.53 1235.5 3355.5 1231.25 3355.5 1226Z" stroke="#000000" stroke-width="0" stroke-linejoin="round" stroke-miterlimit="10" fill="#FF0000" fill-rule="evenodd"/><path d="M3381.5 1078C3381.5 1072.75 3385.53 1068.5 3390.5 1068.5 3395.47 1068.5 3399.5 1072.75 3399.5 1078 3399.5 1083.25 3395.47 1087.5 3390.5 1087.5 3385.53 1087.5 3381.5 1083.25 3381.5 1078Z" stroke="#000000" stroke-width="0" stroke-linejoin="round" stroke-miterlimit="10" fill="#FF0000" fill-rule="evenodd"/><path d="M3406.5 1226C3406.5 1220.75 3410.53 1216.5 3415.5 1216.5 3420.47 1216.5 3424.5 1220.75 3424.5 1226 3424.5 1231.25 3420.47 1235.5 3415.5 1235.5 3410.53 1235.5 3406.5 1231.25 3406.5 1226Z" stroke="#000000" stroke-width="0" stroke-linejoin="round" stroke-miterlimit="10" fill="#FF0000" fill-rule="evenodd"/><path d="M3431.5 1331.5C3431.5 1326.53 3435.75 1322.5 3441 1322.5 3446.25 1322.5 3450.5 1326.53 3450.5 1331.5 3450.5 1336.47 3446.25 1340.5 3441 1340.5 3435.75 1340.5 3431.5 1336.47 3431.5 1331.5Z" stroke="#000000" stroke-width="0" stroke-linejoin="round" stroke-miterlimit="10" fill="#FF0000" fill-rule="evenodd"/><path d="M3456.5 1226C3456.5 1220.75 3460.75 1216.5 3466 1216.5 3471.25 1216.5 3475.5 1220.75 3475.5 1226 3475.5 1231.25 3471.25 1235.5 3466 1235.5 3460.75 1235.5 3456.5 1231.25 3456.5 1226Z" stroke="#000000" stroke-width="0" stroke-linejoin="round" stroke-miterlimit="10" fill="#FF0000" fill-rule="evenodd"/><path d="M3482.5 1161.5C3482.5 1156.53 3486.75 1152.5 3492 1152.5 3497.25 1152.5 3501.5 1156.53 3501.5 1161.5 3501.5 1166.47 3497.25 1170.5 3492 1170.5 3486.75 1170.5 3482.5 1166.47 3482.5 1161.5Z" stroke="#000000" stroke-width="0" stroke-linejoin="round" stroke-miterlimit="10" fill="#FF0000" fill-rule="evenodd"/><path d="M3507.5 1226C3507.5 1220.75 3511.75 1216.5 3517 1216.5 3522.25 1216.5 3526.5 1220.75 3526.5 1226 3526.5 1231.25 3522.25 1235.5 3517 1235.5 3511.75 1235.5 3507.5 1231.25 3507.5 1226Z" stroke="#000000" stroke-width="0" stroke-linejoin="round" stroke-miterlimit="10" fill="#FF0000" fill-rule="evenodd"/><path d="M3533.5 1257.5C3533.5 1252.53 3537.75 1248.5 3543 1248.5 3548.25 1248.5 3552.5 1252.53 3552.5 1257.5 3552.5 1262.47 3548.25 1266.5 3543 1266.5 3537.75 1266.5 3533.5 1262.47 3533.5 1257.5Z" stroke="#000000" stroke-width="0" stroke-linejoin="round" stroke-miterlimit="10" fill="#FF0000" fill-rule="evenodd"/><path d="M3558.5 1226C3558.5 1220.75 3562.75 1216.5 3568 1216.5 3573.25 1216.5 3577.5 1220.75 3577.5 1226 3577.5 1231.25 3573.25 1235.5 3568 1235.5 3562.75 1235.5 3558.5 1231.25 3558.5 1226Z" stroke="#000000" stroke-width="0" stroke-linejoin="round" stroke-miterlimit="10" fill="#FF0000" fill-rule="evenodd"/><path d="M3584.5 1218C3584.5 1212.75 3588.75 1208.5 3594 1208.5 3599.25 1208.5 3603.5 1212.75 3603.5 1218 3603.5 1223.25 3599.25 1227.5 3594 1227.5 3588.75 1227.5 3584.5 1223.25 3584.5 1218Z" stroke="#000000" stroke-width="0" stroke-linejoin="round" stroke-miterlimit="10" fill="#FF0000" fill-rule="evenodd"/><path d="M796 1225 796 1449" stroke="#FF0000" stroke-width="2.29167" stroke-linejoin="round" stroke-miterlimit="10" fill="none" fill-rule="evenodd"/><path d="M0 0 0.000360892 232" stroke="#FF0000" stroke-width="2.29167" stroke-linejoin="round" stroke-miterlimit="10" fill="none" fill-rule="evenodd" transform="matrix(1 0 0 -1 847 1225)"/><path d="M897 1225 897 1464" stroke="#FF0000" stroke-width="2.29167" stroke-linejoin="round" stroke-miterlimit="10" fill="none" fill-rule="evenodd"/><path d="M0 0 0.000360892 242" stroke="#FF0000" stroke-width="2.29167" stroke-linejoin="round" stroke-miterlimit="10" fill="none" fill-rule="evenodd" transform="matrix(1 0 0 -1 948 1225)"/><path d="M999 1225 999 1472" stroke="#FF0000" stroke-width="2.29167" stroke-linejoin="round" stroke-miterlimit="10" fill="none" fill-rule="evenodd"/><path d="M0 0 0.000360892 248" stroke="#FF0000" stroke-width="2.29167" stroke-linejoin="round" stroke-miterlimit="10" fill="none" fill-rule="evenodd" transform="matrix(1 0 0 -1 1050 1225)"/><path d="M1101 1225 1101 1470" stroke="#FF0000" stroke-width="2.29167" stroke-linejoin="round" stroke-miterlimit="10" fill="none" fill-rule="evenodd"/><path d="M0 0 0.000360892 229" stroke="#FF0000" stroke-width="2.29167" stroke-linejoin="round" stroke-miterlimit="10" fill="none" fill-rule="evenodd" transform="matrix(1 0 0 -1 1152 1225)"/><path d="M1203 1225 1203 1427" stroke="#FF0000" stroke-width="2.29167" stroke-linejoin="round" stroke-miterlimit="10" fill="none" fill-rule="evenodd"/><path d="M0 0 0.000360892 157" stroke="#FF0000" stroke-width="2.29167" stroke-linejoin="round" stroke-miterlimit="10" fill="none" fill-rule="evenodd" transform="matrix(1 0 0 -1 1254 1225)"/><path d="M1304 1225 1304 1321" stroke="#FF0000" stroke-width="2.29167" stroke-linejoin="round" stroke-miterlimit="10" fill="none" fill-rule="evenodd"/><path d="M0 0 0.000360892 22" stroke="#FF0000" stroke-width="2.29167" stroke-linejoin="round" stroke-miterlimit="10" fill="none" fill-rule="evenodd" transform="matrix(1 0 0 -1 1355 1225)"/><path d="M0 0 0.000360892 54" stroke="#FF0000" stroke-width="2.29167" stroke-linejoin="round" stroke-miterlimit="10" fill="none" fill-rule="evenodd" transform="matrix(1 0 0 -1 1406 1225)"/><path d="M1457 1225 1457 1352" stroke="#FF0000" stroke-width="2.29167" stroke-linejoin="round" stroke-miterlimit="10" fill="none" fill-rule="evenodd"/><path d="M0 0 0.000360892 182" stroke="#FF0000" stroke-width="2.29167" stroke-linejoin="round" stroke-miterlimit="10" fill="none" fill-rule="evenodd" transform="matrix(1 0 0 -1 1507 1225)"/><path d="M1558 1225 1558 1439" stroke="#FF0000" stroke-width="2.29167" stroke-linejoin="round" stroke-miterlimit="10" fill="none" fill-rule="evenodd"/><path d="M0 0 0.000360892 213" stroke="#FF0000" stroke-width="2.29167" stroke-linejoin="round" stroke-miterlimit="10" fill="none" fill-rule="evenodd" transform="matrix(1 0 0 -1 1609 1225)"/><path d="M1660 1225 1660 1408" stroke="#FF0000" stroke-width="2.29167" stroke-linejoin="round" stroke-miterlimit="10" fill="none" fill-rule="evenodd"/><path d="M0 0 0.000360892 126" stroke="#FF0000" stroke-width="2.29167" stroke-linejoin="round" stroke-miterlimit="10" fill="none" fill-rule="evenodd" transform="matrix(1 0 0 -1 1711 1225)"/><path d="M1762 1225 1762 1280" stroke="#FF0000" stroke-width="2.29167" stroke-linejoin="round" stroke-miterlimit="10" fill="none" fill-rule="evenodd"/><path d="M1813 1225 1813 1248" stroke="#FF0000" stroke-width="2.29167" stroke-linejoin="round" stroke-miterlimit="10" fill="none" fill-rule="evenodd"/><path d="M0 0 0.000360892 95.0002" stroke="#FF0000" stroke-width="2.29167" stroke-linejoin="round" stroke-miterlimit="10" fill="none" fill-rule="evenodd" transform="matrix(1 0 0 -1 1864 1225)"/><path d="M1915 1225 1915 1382" stroke="#FF0000" stroke-width="2.29167" stroke-linejoin="round" stroke-miterlimit="10" fill="none" fill-rule="evenodd"/><path d="M0 0 0.000360892 201" stroke="#FF0000" stroke-width="2.29167" stroke-linejoin="round" stroke-miterlimit="10" fill="none" fill-rule="evenodd" transform="matrix(1 0 0 -1 1966 1225)"/><path d="M2016 1225 2016 1455" stroke="#FF0000" stroke-width="2.29167" stroke-linejoin="round" stroke-miterlimit="10" fill="none" fill-rule="evenodd"/><path d="M0 0 0.000360892 244" stroke="#FF0000" stroke-width="2.29167" stroke-linejoin="round" stroke-miterlimit="10" fill="none" fill-rule="evenodd" transform="matrix(1 0 0 -1 2067 1225)"/><path d="M2118 1225 2118 1476" stroke="#FF0000" stroke-width="2.29167" stroke-linejoin="round" stroke-miterlimit="10" fill="none" fill-rule="evenodd"/><path d="M0 0 0.000360892 252" stroke="#FF0000" stroke-width="2.29167" stroke-linejoin="round" stroke-miterlimit="10" fill="none" fill-rule="evenodd" transform="matrix(1 0 0 -1 2169 1225)"/><path d="M2220 1225 2220 1478" stroke="#FF0000" stroke-width="2.29167" stroke-linejoin="round" stroke-miterlimit="10" fill="none" fill-rule="evenodd"/><path d="M0 0 0.000360892 250" stroke="#FF0000" stroke-width="2.29167" stroke-linejoin="round" stroke-miterlimit="10" fill="none" fill-rule="evenodd" transform="matrix(1 0 0 -1 2270 1225)"/><path d="M2321 1225 2321 1470" stroke="#FF0000" stroke-width="2.29167" stroke-linejoin="round" stroke-miterlimit="10" fill="none" fill-rule="evenodd"/><path d="M0 0 0.000360892 229" stroke="#FF0000" stroke-width="2.29167" stroke-linejoin="round" stroke-miterlimit="10" fill="none" fill-rule="evenodd" transform="matrix(1 0 0 -1 2372 1225)"/><path d="M2423 1225 2423 1427" stroke="#FF0000" stroke-width="2.29167" stroke-linejoin="round" stroke-miterlimit="10" fill="none" fill-rule="evenodd"/><path d="M0 0 0.000360892 157" stroke="#FF0000" stroke-width="2.29167" stroke-linejoin="round" stroke-miterlimit="10" fill="none" fill-rule="evenodd" transform="matrix(1 0 0 -1 2474 1225)"/><path d="M2525 1225 2525 1321" stroke="#FF0000" stroke-width="2.29167" stroke-linejoin="round" stroke-miterlimit="10" fill="none" fill-rule="evenodd"/><path d="M0 0 0.000360892 22" stroke="#FF0000" stroke-width="2.29167" stroke-linejoin="round" stroke-miterlimit="10" fill="none" fill-rule="evenodd" transform="matrix(1 0 0 -1 2576 1225)"/><path d="M0 0 0.000360892 54" stroke="#FF0000" stroke-width="2.29167" stroke-linejoin="round" stroke-miterlimit="10" fill="none" fill-rule="evenodd" transform="matrix(1 0 0 -1 2627 1225)"/><path d="M2678 1225 2678 1352" stroke="#FF0000" stroke-width="2.29167" stroke-linejoin="round" stroke-miterlimit="10" fill="none" fill-rule="evenodd"/><path d="M0 0 0.000360892 182" stroke="#FF0000" stroke-width="2.29167" stroke-linejoin="round" stroke-miterlimit="10" fill="none" fill-rule="evenodd" transform="matrix(1 0 0 -1 2728 1225)"/><path d="M2779 1225 2779 1439" stroke="#FF0000" stroke-width="2.29167" stroke-linejoin="round" stroke-miterlimit="10" fill="none" fill-rule="evenodd"/><path d="M0 0 0.000360892 213" stroke="#FF0000" stroke-width="2.29167" stroke-linejoin="round" stroke-miterlimit="10" fill="none" fill-rule="evenodd" transform="matrix(1 0 0 -1 2830 1225)"/><path d="M2881 1225 2881 1407" stroke="#FF0000" stroke-width="2.29167" stroke-linejoin="round" stroke-miterlimit="10" fill="none" fill-rule="evenodd"/><path d="M0 0 0.000360892 123" stroke="#FF0000" stroke-width="2.29167" stroke-linejoin="round" stroke-miterlimit="10" fill="none" fill-rule="evenodd" transform="matrix(1 0 0 -1 2932 1225)"/><path d="M2983 1225 2983 1274" stroke="#FF0000" stroke-width="2.29167" stroke-linejoin="round" stroke-miterlimit="10" fill="none" fill-rule="evenodd"/><path d="M3034 1225 3034 1258" stroke="#FF0000" stroke-width="2.29167" stroke-linejoin="round" stroke-miterlimit="10" fill="none" fill-rule="evenodd"/><path d="M0 0 0.000360892 108" stroke="#FF0000" stroke-width="2.29167" stroke-linejoin="round" stroke-miterlimit="10" fill="none" fill-rule="evenodd" transform="matrix(1 0 0 -1 3085 1225)"/><path d="M3136 1225 3136 1394" stroke="#FF0000" stroke-width="2.29167" stroke-linejoin="round" stroke-miterlimit="10" fill="none" fill-rule="evenodd"/><path d="M0 0 0.000360892 207" stroke="#FF0000" stroke-width="2.29167" stroke-linejoin="round" stroke-miterlimit="10" fill="none" fill-rule="evenodd" transform="matrix(1 0 0 -1 3186 1225)"/><path d="M3237 1225 3237 1447" stroke="#FF0000" stroke-width="2.29167" stroke-linejoin="round" stroke-miterlimit="10" fill="none" fill-rule="evenodd"/><path d="M0 0 0.000360892 213" stroke="#FF0000" stroke-width="2.29167" stroke-linejoin="round" stroke-miterlimit="10" fill="none" fill-rule="evenodd" transform="matrix(1 0 0 -1 3288 1225)"/><path d="M3339 1225 3339 1412" stroke="#FF0000" stroke-width="2.29167" stroke-linejoin="round" stroke-miterlimit="10" fill="none" fill-rule="evenodd"/><path d="M0 0 0.000360892 147" stroke="#FF0000" stroke-width="2.29167" stroke-linejoin="round" stroke-miterlimit="10" fill="none" fill-rule="evenodd" transform="matrix(1 0 0 -1 3389 1225)"/><path d="M3440 1225 3440 1330" stroke="#FF0000" stroke-width="2.29167" stroke-linejoin="round" stroke-miterlimit="10" fill="none" fill-rule="evenodd"/><path d="M0 0 0.000360892 64.0003" stroke="#FF0000" stroke-width="2.29167" stroke-linejoin="round" stroke-miterlimit="10" fill="none" fill-rule="evenodd" transform="matrix(1 0 0 -1 3491 1225)"/><path d="M3542 1225 3542 1257" stroke="#FF0000" stroke-width="2.29167" stroke-linejoin="round" stroke-miterlimit="10" fill="none" fill-rule="evenodd"/><path d="M0 0 0.000360892 8.00026" stroke="#FF0000" stroke-width="2.29167" stroke-linejoin="round" stroke-miterlimit="10" fill="none" fill-rule="evenodd" transform="matrix(1 0 0 -1 3593 1225)"/></g></svg>