<svg width="1707" height="724" xmlns="http://www.w3.org/2000/svg" xmlns:xlink="http://www.w3.org/1999/xlink" overflow="hidden"><defs><clipPath id="clip0"><rect x="1416" y="912" width="1707" height="724"/></clipPath></defs><g clip-path="url(#clip0)" transform="translate(-1416 -912)"><path d="M1499 944 1489 916 1479 944 1489 944 1499 944Z" fill-rule="evenodd"/><path d="M1489 916 1489 944 1479 944 1489 916 1499 944 1489 944 1489 916 1489 916" stroke="#000000" stroke-width="2.29167" stroke-miterlimit="8" fill="none" fill-rule="evenodd"/><path d="M2947 1505 2947 1514 2947 1523 2983 1514 2947 1505Z" fill-rule="evenodd"/><path d="M2983 1514 2947 1514 2947 1505 2983 1514 2947 1523 2947 1514 2983 1514 2983 1514" stroke="#000000" stroke-width="2.29167" stroke-miterlimit="8" fill="none" fill-rule="evenodd"/><text font-family="Arial,Arial_MSFontService,sans-serif" font-weight="400" font-size="46" transform="matrix(1 0 0 1 1502.76 1570)">0<tspan font-size="46" x="1480.42" y="0">f (Hz)</tspan><tspan font-size="46" x="6.875" y="-599">Mag. (dB)</tspan></text><path d="M1942.29 1500.25 1942.29 1496.81 1940 1496.81 1940 1500.25 1942.29 1500.25ZM1942.29 1486.49 1942.29 1483.06 1940 1483.06 1940 1486.49 1942.29 1486.49ZM1942.29 1472.74 1942.29 1469.3 1940 1469.3 1940 1472.74 1942.29 1472.74ZM1942.29 1458.99 1942.29 1455.55 1940 1455.55 1940 1458.99 1942.29 1458.99ZM1942.29 1445.23 1942.29 1441.8 1940 1441.8 1940 1445.23 1942.29 1445.23ZM1942.29 1431.48 1942.29 1428.04 1940 1428.04 1940 1431.48 1942.29 1431.48ZM1942.29 1417.73 1942.29 1414.29 1940 1414.29 1940 1417.73 1942.29 1417.73ZM1942.29 1403.97 1942.29 1400.54 1940 1400.54 1940 1403.97 1942.29 1403.97ZM1942.29 1389.65 1942.29 1386.21 1940 1386.21 1940 1389.65 1942.29 1389.65ZM1942.29 1375.89 1942.29 1372.46 1940 1372.46 1940 1375.89 1942.29 1375.89ZM1942.29 1362.14 1942.29 1358.7 1940 1358.7 1940 1362.14 1942.29 1362.14ZM1942.29 1348.39 1942.29 1344.95 1940 1344.95 1940 1348.39 1942.29 1348.39ZM1942.29 1334.63 1942.29 1331.2 1940 1331.2 1940 1334.63 1942.29 1334.63ZM1942.29 1320.88 1942.29 1317.44 1940 1317.44 1940 1320.88 1942.29 1320.88ZM1942.29 1307.13 1942.29 1303.69 1940 1303.69 1940 1307.13 1942.29 1307.13ZM1942.29 1293.37 1942.29 1289.94 1940 1289.94 1940 1293.37 1942.29 1293.37ZM1942.29 1279.62 1942.29 1276.18 1940 1276.18 1940 1279.62 1942.29 1279.62ZM1942.29 1265.87 1942.29 1262.43 1940 1262.43 1940 1265.87 1942.29 1265.87ZM1942.29 1252.12 1942.29 1248.68 1940 1248.68 1940 1252.12 1942.29 1252.12ZM1942.29 1238.36 1942.29 1234.92 1940 1234.92 1940 1238.36 1942.29 1238.36ZM1942.29 1224.61 1942.29 1221.17 1940 1221.17 1940 1224.61 1942.29 1224.61ZM1942.29 1210.86 1942.29 1207.42 1940 1207.42 1940 1210.86 1942.29 1210.86ZM1942.29 1197.1 1942.29 1193.66 1940 1193.66 1940 1197.1 1942.29 1197.1ZM1942.29 1183.35 1942.29 1179.91 1940 1179.91 1940 1183.35 1942.29 1183.35ZM1942.29 1169.6 1942.29 1166.16 1940 1166.16 1940 1169.6 1942.29 1169.6ZM1948.03 1163.29 1951.47 1163.29 1951.47 1161 1948.03 1161 1948.03 1163.29ZM1961.8 1163.29 1965.24 1163.29 1965.24 1161 1961.8 1161 1961.8 1163.29ZM1975.56 1163.29 1979 1163.29 1979 1161 1975.56 1161 1975.56 1163.29ZM1989.33 1163.29 1992.77 1163.29 1992.77 1161 1989.33 1161 1989.33 1163.29ZM2003.09 1163.29 2006.54 1163.29 2006.54 1161 2003.09 1161 2003.09 1163.29ZM2016.86 1163.29 2020.3 1163.29 2020.3 1161 2016.86 1161 2016.86 1163.29ZM2030.63 1163.29 2034.07 1163.29 2034.07 1161 2030.63 1161 2030.63 1163.29ZM2044.39 1163.29 2047.83 1163.29 2047.83 1161 2044.39 1161 2044.39 1163.29ZM2058.16 1163.29 2061.6 1163.29 2061.6 1161 2058.16 1161 2058.16 1163.29ZM2071.92 1163.29 2075.37 1163.29 2075.37 1161 2071.92 1161 2071.92 1163.29ZM2085.69 1163.29 2089.13 1163.29 2089.13 1161 2085.69 1161 2085.69 1163.29ZM2099.46 1163.29 2102.9 1163.29 2102.9 1161 2099.46 1161 2099.46 1163.29ZM2113.22 1163.29 2116.66 1163.29 2116.66 1161 2113.22 1161 2113.22 1163.29ZM2126.99 1163.29 2130.43 1163.29 2130.43 1161 2126.99 1161 2126.99 1163.29ZM2140.75 1163.29 2144.2 1163.29 2144.2 1161 2140.75 1161 2140.75 1163.29ZM2155.09 1163.29 2158.54 1163.29 2158.54 1161 2155.09 1161 2155.09 1163.29ZM2168.86 1163.29 2172.3 1163.29 2172.3 1161 2168.86 1161 2168.86 1163.29ZM2182.63 1163.29 2186.07 1163.29 2186.07 1161 2182.63 1161 2182.63 1163.29ZM2196.39 1163.29 2199.83 1163.29 2199.83 1161 2196.39 1161 2196.39 1163.29ZM2210.16 1163.29 2213.6 1163.29 2213.6 1161 2210.16 1161 2210.16 1163.29ZM2223.92 1163.29 2227.37 1163.29 2227.37 1161 2223.92 1161 2223.92 1163.29ZM2237.69 1163.29 2241.13 1163.29 2241.13 1161 2237.69 1161 2237.69 1163.29ZM2251.46 1163.29 2254.9 1163.29 2254.9 1161 2251.46 1161 2251.46 1163.29ZM2265.22 1163.29 2268.66 1163.29 2268.66 1161 2265.22 1161 2265.22 1163.29ZM2278.99 1163.29 2282.43 1163.29 2282.43 1161 2278.99 1161 2278.99 1163.29ZM2292.75 1163.29 2296.2 1163.29 2296.2 1161 2292.75 1161 2292.75 1163.29ZM2306.52 1163.29 2309.96 1163.29 2309.96 1161 2306.52 1161 2306.52 1163.29ZM2320.29 1163.29 2323.73 1163.29 2323.73 1161 2320.29 1161 2320.29 1163.29ZM2334.05 1163.29 2337.49 1163.29 2337.49 1161 2334.05 1161 2334.05 1163.29ZM2347.82 1163.29 2351.26 1163.29 2351.26 1161 2347.82 1161 2347.82 1163.29ZM2361.58 1163.29 2365.03 1163.29 2365.03 1161 2361.58 1161 2361.58 1163.29ZM2375.35 1163.29 2378.79 1163.29 2378.79 1161 2375.35 1161 2375.35 1163.29ZM2389.12 1163.29 2392.56 1163.29 2392.56 1161 2389.12 1161 2389.12 1163.29ZM2393.71 1170.17 2393.71 1173.61 2396 1173.61 2396 1170.17 2393.71 1170.17ZM2393.71 1183.92 2393.71 1187.36 2396 1187.36 2396 1183.92 2393.71 1183.92ZM2393.71 1197.68 2393.71 1201.11 2396 1201.11 2396 1197.68 2393.71 1197.68ZM2393.71 1211.43 2393.71 1214.87 2396 1214.87 2396 1211.43 2393.71 1211.43ZM2393.71 1225.18 2393.71 1228.62 2396 1228.62 2396 1225.18 2393.71 1225.18ZM2393.71 1238.93 2393.71 1242.37 2396 1242.37 2396 1238.93 2393.71 1238.93ZM2393.71 1252.69 2393.71 1256.13 2396 1256.13 2396 1252.69 2393.71 1252.69ZM2393.71 1266.44 2393.71 1269.88 2396 1269.88 2396 1266.44 2393.71 1266.44ZM2393.71 1280.77 2393.71 1284.21 2396 1284.21 2396 1280.77 2393.71 1280.77ZM2393.71 1294.52 2393.71 1297.96 2396 1297.96 2396 1294.52 2393.71 1294.52ZM2393.71 1308.27 2393.71 1311.71 2396 1311.71 2396 1308.27 2393.71 1308.27ZM2393.71 1322.03 2393.71 1325.47 2396 1325.47 2396 1322.03 2393.71 1322.03ZM2393.71 1335.78 2393.71 1339.22 2396 1339.22 2396 1335.78 2393.71 1335.78ZM2393.71 1349.53 2393.71 1352.97 2396 1352.97 2396 1349.53 2393.71 1349.53ZM2393.71 1363.29 2393.71 1366.73 2396 1366.73 2396 1363.29 2393.71 1363.29ZM2393.71 1377.04 2393.71 1380.48 2396 1380.48 2396 1377.04 2393.71 1377.04ZM2393.71 1390.79 2393.71 1394.23 2396 1394.23 2396 1390.79 2393.71 1390.79ZM2393.71 1404.55 2393.71 1407.99 2396 1407.99 2396 1404.55 2393.71 1404.55ZM2393.71 1418.3 2393.71 1421.74 2396 1421.74 2396 1418.3 2393.71 1418.3ZM2393.71 1432.05 2393.71 1435.49 2396 1435.49 2396 1432.05 2393.71 1432.05ZM2393.71 1445.81 2393.71 1449.24 2396 1449.24 2396 1445.81 2393.71 1445.81ZM2393.71 1459.56 2393.71 1463 2396 1463 2396 1459.56 2393.71 1459.56ZM2393.71 1473.31 2393.71 1476.75 2396 1476.75 2396 1473.31 2393.71 1473.31ZM2393.71 1487.07 2393.71 1490.5 2396 1490.5 2396 1487.07 2393.71 1487.07ZM2393.71 1500.82 2393.71 1504.26 2396 1504.26 2396 1500.82 2393.71 1500.82ZM1942.29 1514 1942.29 1510.56 1940 1510.56 1940 1514 1942.29 1514Z" fill="#0072BD" fill-rule="evenodd"/><rect x="1489" y="1427" width="385" height="52.0002" fill="#BFBFBF"/><rect x="1489" y="1427" width="385" height="52.0002" stroke="#000000" stroke-width="2.29167" stroke-miterlimit="8" fill="none"/><rect x="2010" y="1197" width="317" height="317" fill="#BFBFBF"/><rect x="2010" y="1197" width="317" height="317" stroke="#000000" stroke-width="2.29167" stroke-miterlimit="8" fill="none"/><rect x="2010" y="1110" width="317" height="51.9999" fill="#BFBFBF"/><rect x="2010" y="1110" width="317" height="51.9999" stroke="#000000" stroke-width="2.29167" stroke-miterlimit="8" fill="none"/><rect x="2463" y="1427" width="384" height="52.0002" fill="#BFBFBF"/><rect x="2463" y="1427" width="384" height="52.0002" stroke="#000000" stroke-width="2.29167" stroke-miterlimit="8" fill="none"/><path d="M1643 1162 1697 1162" stroke="#000000" stroke-width="2.29167" stroke-linejoin="round" stroke-miterlimit="10" fill="none" fill-rule="evenodd"/><path d="M1663 1187 1670 1187 1677 1187 1670 1162 1663 1187Z" fill-rule="evenodd"/><path d="M1670 1286 1670 1186.8 1663 1186.8 1670 1162 1677 1186.8 1670 1186.8 1670 1286 1670 1286" stroke="#000000" stroke-width="2.29167" stroke-miterlimit="8" fill="none" fill-rule="evenodd"/><path d="M1663 1451 1670 1476 1677 1451 1670 1451 1663 1451Z" fill-rule="evenodd"/><path d="M1670 1356 1670 1450.74 1663 1450.74 1670 1476 1677 1450.74 1670 1450.74 1670 1356 1670 1356" stroke="#000000" stroke-width="2.29167" stroke-miterlimit="8" fill="none" fill-rule="evenodd"/><text font-family="Arial,Arial_MSFontService,sans-serif" font-weight="400" font-size="46" transform="matrix(1 0 0 1 1643.7 1336)">A<tspan font-size="37" x="30.9375" y="18">stop</tspan></text><path d="M2639 1162 2694 1162" stroke="#000000" stroke-width="2.29167" stroke-linejoin="round" stroke-miterlimit="10" fill="none" fill-rule="evenodd"/><path d="M2659 1187 2666 1187 2673 1187 2666 1162 2659 1187Z" fill-rule="evenodd"/><path d="M2666 1286 2666 1186.8 2659 1186.8 2666 1162 2673 1186.8 2666 1186.8 2666 1286 2666 1286" stroke="#000000" stroke-width="2.29167" stroke-miterlimit="8" fill="none" fill-rule="evenodd"/><path d="M2659 1451 2666 1476 2673 1451 2666 1451 2659 1451Z" fill-rule="evenodd"/><path d="M2666 1356 2666 1450.74 2659 1450.74 2666 1476 2673 1450.74 2666 1450.74 2666 1356 2666 1356" stroke="#000000" stroke-width="2.29167" stroke-miterlimit="8" fill="none" fill-rule="evenodd"/><text font-family="Arial,Arial_MSFontService,sans-serif" font-weight="400" font-size="46" transform="matrix(1 0 0 1 2638.85 1336)">A<tspan font-size="37" x="31.5105" y="18">stop</tspan></text><path d="M2504 1162 2558 1162" stroke="#000000" stroke-width="2.29167" stroke-linejoin="round" stroke-miterlimit="10" fill="none" fill-rule="evenodd"/><path d="M2524 1222 2530.5 1222 2537 1222 2530.5 1197 2524 1222Z" fill-rule="evenodd"/><path d="M2530.5 1303 2530.5 1221.64 2524 1221.64 2530.5 1197 2537 1221.64 2530.5 1221.64 2530.5 1303 2530.5 1303" stroke="#000000" stroke-width="2.29167" stroke-miterlimit="8" fill="none" fill-rule="evenodd"/><path d="M2524 1138 2530.5 1162 2537 1138 2530.5 1138 2524 1138Z" fill-rule="evenodd"/><path d="M2530.5 1057 2530.5 1137.46 2524 1137.46 2530.5 1162 2537 1137.46 2530.5 1137.46 2530.5 1057 2530.5 1057" stroke="#000000" stroke-width="2.29167" stroke-miterlimit="8" fill="none" fill-rule="evenodd"/><path d="M2504 1197 2558 1197" stroke="#000000" stroke-width="2.29167" stroke-linejoin="round" stroke-miterlimit="10" fill="none" fill-rule="evenodd"/><text font-family="Arial,Arial_MSFontService,sans-serif" font-weight="400" font-size="46" transform="matrix(1 0 0 1 2551.48 1195)">A<tspan font-size="37" x="30.9375" y="18">pass</tspan><tspan font-size="46" x="-611.588" y="341">|</tspan><tspan font-size="46" x="-642.526" y="392">F</tspan><tspan font-size="37" x="-611.588" y="411">pass1</tspan><tspan font-size="46" x="-160.13" y="341">|</tspan><tspan font-size="46" x="-226.015" y="392">F</tspan><tspan font-size="37" x="-194.505" y="411">pass2</tspan></text><path d="M1489 1514 2983 1514" stroke="#262626" stroke-width="2.29167" stroke-linejoin="round" stroke-miterlimit="10" fill="none" fill-rule="evenodd"/><path d="M0 0 0.000360892 14.9998" stroke="#262626" stroke-width="2.29167" stroke-linejoin="round" stroke-miterlimit="10" fill="none" fill-rule="evenodd" transform="matrix(1 0 0 -1 1489 1514)"/><path d="M0 0 0.000360892 14.9998" stroke="#262626" stroke-width="2.29167" stroke-linejoin="round" stroke-miterlimit="10" fill="none" fill-rule="evenodd" transform="matrix(1 0 0 -1 2847 1514)"/><text fill="#262626" font-family="Arial,Arial_MSFontService,sans-serif" font-weight="400" font-size="46" transform="matrix(1 0 0 1 2804.43 1584)">Fs/2</text><path d="M0 0 0.000360892 598" stroke="#262626" stroke-width="2.29167" stroke-linejoin="round" stroke-miterlimit="10" fill="none" fill-rule="evenodd" transform="matrix(1 0 0 -1 1489 1514)"/><path d="M1489 1162 1504 1162" stroke="#262626" stroke-width="2.29167" stroke-linejoin="round" stroke-miterlimit="10" fill="none" fill-rule="evenodd"/><text fill="#262626" font-family="Arial,Arial_MSFontService,sans-serif" font-weight="400" font-size="46" transform="matrix(1 0 0 1 1444.32 1185)">0</text></g></svg>