<svg width="1648" height="724" xmlns="http://www.w3.org/2000/svg" xmlns:xlink="http://www.w3.org/1999/xlink" overflow="hidden"><defs><clipPath id="clip0"><rect x="1475" y="912" width="1648" height="724"/></clipPath></defs><g clip-path="url(#clip0)" transform="translate(-1475 -912)"><path d="M1499 944 1489 916 1479 944 1489 944 1499 944Z" fill-rule="evenodd"/><path d="M1489 916 1489 944 1479 944 1489 916 1499 944 1489 944 1489 916 1489 916" stroke="#000000" stroke-width="2.29167" stroke-miterlimit="8" fill="none" fill-rule="evenodd"/><path d="M2947 1505 2947 1514 2947 1523 2983 1514 2947 1505Z" fill-rule="evenodd"/><path d="M2983 1514 2947 1514 2947 1505 2983 1514 2947 1523 2947 1514 2983 1514 2983 1514" stroke="#000000" stroke-width="2.29167" stroke-miterlimit="8" fill="none" fill-rule="evenodd"/><text font-family="Arial,Arial_MSFontService,sans-serif" font-weight="400" font-size="46" transform="matrix(1 0 0 1 1502.76 1570)">0<tspan font-size="46" x="1480.42" y="0">f (Hz)</tspan><tspan font-size="46" x="6.875" y="-599">|H(f)|</tspan></text><rect x="1489" y="1427" width="385" height="52.0002" fill="#BFBFBF"/><rect x="1489" y="1427" width="385" height="52.0002" stroke="#000000" stroke-width="2.29167" stroke-miterlimit="8" fill="none"/><rect x="2010" y="1197" width="317" height="317" fill="#BFBFBF"/><rect x="2010" y="1197" width="317" height="317" stroke="#000000" stroke-width="2.29167" stroke-miterlimit="8" fill="none"/><rect x="2010" y="1074" width="317" height="54" fill="#BFBFBF"/><rect x="2010" y="1074" width="317" height="54" stroke="#000000" stroke-width="2.29167" stroke-miterlimit="8" fill="none"/><rect x="2463" y="1427" width="384" height="52.0002" fill="#BFBFBF"/><rect x="2463" y="1427" width="384" height="52.0002" stroke="#000000" stroke-width="2.29167" stroke-miterlimit="8" fill="none"/><text font-family="Arial,Arial_MSFontService,sans-serif" font-weight="400" font-size="46" transform="matrix(1 0 0 1 1533.7 1405)">W<tspan font-size="37" x="44.6875" y="19">stop1</tspan><tspan font-size="46" x="568.333" y="-352">W</tspan><tspan font-size="37" x="613.021" y="-333">pass</tspan><tspan font-size="46" x="1087.97" y="0">W</tspan><tspan font-size="37" x="1132.66" y="19">stop2</tspan><tspan font-size="46" x="471.51" y="131">|</tspan><tspan font-size="46" x="440.573" y="182">F</tspan><tspan font-size="37" x="471.51" y="201">pass1</tspan><tspan font-size="46" x="788.333" y="131">|</tspan><tspan font-size="46" x="726.458" y="182">F</tspan><tspan font-size="37" x="757.396" y="201">pass2</tspan><tspan font-size="46" x="337.448" y="131">|</tspan><tspan font-size="46" x="272.135" y="182">F</tspan><tspan font-size="37" x="303.073" y="201">stop1</tspan><tspan font-size="46" x="926.406" y="131">|</tspan><tspan font-size="46" x="895.469" y="182">F</tspan><tspan font-size="37" x="926.406" y="201">stop2</tspan></text><path d="M1489 1514 2983 1514" stroke="#262626" stroke-width="2.29167" stroke-linejoin="round" stroke-miterlimit="10" fill="none" fill-rule="evenodd"/><path d="M0 0 0.000360892 14.9998" stroke="#262626" stroke-width="2.29167" stroke-linejoin="round" stroke-miterlimit="10" fill="none" fill-rule="evenodd" transform="matrix(1 0 0 -1 1489 1514)"/><path d="M0 0 0.000360892 14.9998" stroke="#262626" stroke-width="2.29167" stroke-linejoin="round" stroke-miterlimit="10" fill="none" fill-rule="evenodd" transform="matrix(1 0 0 -1 2847 1514)"/><text fill="#262626" font-family="Arial,Arial_MSFontService,sans-serif" font-weight="400" font-size="46" transform="matrix(1 0 0 1 2804.43 1584)">Fs/2</text><path d="M0 0 0.000360892 598" stroke="#262626" stroke-width="2.29167" stroke-linejoin="round" stroke-miterlimit="10" fill="none" fill-rule="evenodd" transform="matrix(1 0 0 -1 1489 1514)"/></g></svg>