<svg width="1429" height="575" xmlns="http://www.w3.org/2000/svg" xmlns:xlink="http://www.w3.org/1999/xlink" overflow="hidden"><defs><clipPath id="clip0"><rect x="1479" y="708" width="1429" height="575"/></clipPath></defs><g clip-path="url(#clip0)" transform="translate(-1479 -708)"><path d="M1616 1139 2842 1139" stroke="#262626" stroke-width="2.29167" stroke-linejoin="round" stroke-miterlimit="10" fill="none" fill-rule="evenodd"/><path d="M1616 739 2842 739" stroke="#262626" stroke-width="2.29167" stroke-linejoin="round" stroke-miterlimit="10" fill="none" fill-rule="evenodd"/><path d="M0 0 0.000360892 11.9997" stroke="#262626" stroke-width="2.29167" stroke-linejoin="round" stroke-miterlimit="10" fill="none" fill-rule="evenodd" transform="matrix(1 0 0 -1 1616 1139)"/><path d="M0 0 0.000360892 11.9997" stroke="#262626" stroke-width="2.29167" stroke-linejoin="round" stroke-miterlimit="10" fill="none" fill-rule="evenodd" transform="matrix(1 0 0 -1 1769 1139)"/><path d="M0 0 0.000360892 11.9997" stroke="#262626" stroke-width="2.29167" stroke-linejoin="round" stroke-miterlimit="10" fill="none" fill-rule="evenodd" transform="matrix(1 0 0 -1 1923 1139)"/><path d="M0 0 0.000360892 11.9997" stroke="#262626" stroke-width="2.29167" stroke-linejoin="round" stroke-miterlimit="10" fill="none" fill-rule="evenodd" transform="matrix(1 0 0 -1 2076 1139)"/><path d="M0 0 0.000360892 11.9997" stroke="#262626" stroke-width="2.29167" stroke-linejoin="round" stroke-miterlimit="10" fill="none" fill-rule="evenodd" transform="matrix(1 0 0 -1 2229 1139)"/><path d="M0 0 0.000360892 11.9997" stroke="#262626" stroke-width="2.29167" stroke-linejoin="round" stroke-miterlimit="10" fill="none" fill-rule="evenodd" transform="matrix(1 0 0 -1 2383 1139)"/><path d="M0 0 0.000360892 11.9997" stroke="#262626" stroke-width="2.29167" stroke-linejoin="round" stroke-miterlimit="10" fill="none" fill-rule="evenodd" transform="matrix(1 0 0 -1 2536 1139)"/><path d="M0 0 0.000360892 11.9997" stroke="#262626" stroke-width="2.29167" stroke-linejoin="round" stroke-miterlimit="10" fill="none" fill-rule="evenodd" transform="matrix(1 0 0 -1 2689 1139)"/><path d="M0 0 0.000360892 11.9997" stroke="#262626" stroke-width="2.29167" stroke-linejoin="round" stroke-miterlimit="10" fill="none" fill-rule="evenodd" transform="matrix(1 0 0 -1 2842 1139)"/><path d="M1616 739 1616 752" stroke="#262626" stroke-width="2.29167" stroke-linejoin="round" stroke-miterlimit="10" fill="none" fill-rule="evenodd"/><path d="M1769 739 1769 752" stroke="#262626" stroke-width="2.29167" stroke-linejoin="round" stroke-miterlimit="10" fill="none" fill-rule="evenodd"/><path d="M1923 739 1923 752" stroke="#262626" stroke-width="2.29167" stroke-linejoin="round" stroke-miterlimit="10" fill="none" fill-rule="evenodd"/><path d="M2076 739 2076 752" stroke="#262626" stroke-width="2.29167" stroke-linejoin="round" stroke-miterlimit="10" fill="none" fill-rule="evenodd"/><path d="M2229 739 2229 752" stroke="#262626" stroke-width="2.29167" stroke-linejoin="round" stroke-miterlimit="10" fill="none" fill-rule="evenodd"/><path d="M2383 739 2383 752" stroke="#262626" stroke-width="2.29167" stroke-linejoin="round" stroke-miterlimit="10" fill="none" fill-rule="evenodd"/><path d="M2536 739 2536 752" stroke="#262626" stroke-width="2.29167" stroke-linejoin="round" stroke-miterlimit="10" fill="none" fill-rule="evenodd"/><path d="M2689 739 2689 752" stroke="#262626" stroke-width="2.29167" stroke-linejoin="round" stroke-miterlimit="10" fill="none" fill-rule="evenodd"/><path d="M2842 739 2842 752" stroke="#262626" stroke-width="2.29167" stroke-linejoin="round" stroke-miterlimit="10" fill="none" fill-rule="evenodd"/><text fill="#262626" font-family="Arial,Arial_MSFontService,sans-serif" font-weight="400" font-size="37" transform="matrix(1 0 0 1 1605.89 1193)">0<tspan font-size="37" x="120.313" y="0">1000</tspan><tspan font-size="37" x="272.135" y="0">2000</tspan><tspan font-size="37" x="426.823" y="0">3000</tspan><tspan font-size="37" x="578.646" y="0">4000</tspan><tspan font-size="37" x="733.906" y="0">5000</tspan><tspan font-size="37" x="885.156" y="0">6000</tspan><tspan font-size="37" x="1040.42" y="0">7000</tspan><tspan font-size="37" x="1191.67" y="0">8000</tspan><tspan font-size="41" x="475.521" y="55">Frequency (Hz)</tspan></text><path d="M0 0 0.000360892 400" stroke="#262626" stroke-width="2.29167" stroke-linejoin="round" stroke-miterlimit="10" fill="none" fill-rule="evenodd" transform="matrix(1 0 0 -1 1616 1139)"/><path d="M0 0 0.000360892 400" stroke="#262626" stroke-width="2.29167" stroke-linejoin="round" stroke-miterlimit="10" fill="none" fill-rule="evenodd" transform="matrix(1 0 0 -1 2842 1139)"/><path d="M1616 1139 1628 1139" stroke="#262626" stroke-width="2.29167" stroke-linejoin="round" stroke-miterlimit="10" fill="none" fill-rule="evenodd"/><path d="M1616 1039 1628 1039" stroke="#262626" stroke-width="2.29167" stroke-linejoin="round" stroke-miterlimit="10" fill="none" fill-rule="evenodd"/><path d="M1616 939 1628 939" stroke="#262626" stroke-width="2.29167" stroke-linejoin="round" stroke-miterlimit="10" fill="none" fill-rule="evenodd"/><path d="M1616 839 1628 839" stroke="#262626" stroke-width="2.29167" stroke-linejoin="round" stroke-miterlimit="10" fill="none" fill-rule="evenodd"/><path d="M1616 739 1628 739" stroke="#262626" stroke-width="2.29167" stroke-linejoin="round" stroke-miterlimit="10" fill="none" fill-rule="evenodd"/><path d="M0 0 12 0.000360892" stroke="#262626" stroke-width="2.29167" stroke-linejoin="round" stroke-miterlimit="10" fill="none" fill-rule="evenodd" transform="matrix(-1 0 0 1 2842 1139)"/><path d="M0 0 12 0.000360892" stroke="#262626" stroke-width="2.29167" stroke-linejoin="round" stroke-miterlimit="10" fill="none" fill-rule="evenodd" transform="matrix(-1 0 0 1 2842 1039)"/><path d="M0 0 12 0.000360892" stroke="#262626" stroke-width="2.29167" stroke-linejoin="round" stroke-miterlimit="10" fill="none" fill-rule="evenodd" transform="matrix(-1 0 0 1 2842 939)"/><path d="M0 0 12 0.000360892" stroke="#262626" stroke-width="2.29167" stroke-linejoin="round" stroke-miterlimit="10" fill="none" fill-rule="evenodd" transform="matrix(-1 0 0 1 2842 839)"/><path d="M0 0 12 0.000360892" stroke="#262626" stroke-width="2.29167" stroke-linejoin="round" stroke-miterlimit="10" fill="none" fill-rule="evenodd" transform="matrix(-1 0 0 1 2842 739)"/><text fill="#262626" font-family="Arial,Arial_MSFontService,sans-serif" font-weight="400" font-size="37" transform="matrix(1 0 0 1 1547.45 1155)">-<tspan font-size="37" x="12.0313" y="0">20</tspan><tspan font-size="37" x="0" y="-100">-</tspan><tspan font-size="37" x="12.0313" y="-100">10</tspan><tspan font-size="37" x="34.375" y="-200">0</tspan><tspan font-size="37" x="13.75" y="-300">10</tspan><tspan font-size="37" x="13.75" y="-400">20</tspan></text><text fill="#262626" font-family="Arial,Arial_MSFontService,sans-serif" font-weight="400" font-size="41" transform="matrix(-1.83697e-16 -1 1 -1.83697e-16 1531.86 1087)">M<tspan font-size="41" x="31" y="0.00012207">a</tspan><tspan font-size="41" x="55" y="0.00012207">g</tspan><tspan font-size="41" x="76" y="0.00012207">n</tspan><tspan font-size="41" x="100" y="0.00012207">i</tspan><tspan font-size="41" x="110" y="0.00012207">t</tspan><tspan font-size="41" x="120" y="0.00012207">u</tspan><tspan font-size="41" x="145" y="0.00012207">d</tspan><tspan font-size="41" x="169" y="0.00012207">e</tspan><tspan font-size="41" x="204" y="3.74742e-14">(</tspan><tspan font-size="41" x="217" y="0.00012207">d</tspan><tspan font-size="41" x="241" y="4.4271e-14">B</tspan><tspan font-size="41" x="269" y="4.94145e-14">)</tspan></text><path d="M1616 1000 1616.58 999.426 1617.15 999.426 1617.73 999.426 1617.73 999.426 1618.31 998.853 1618.31 998.853 1619.46 998.853 1619.46 998.853 1620.04 997.705 1620.62 997.705 1621.19 996.558 1621.19 996.558 1621.77 995.411 1621.77 995.411 1622.92 994.264 1622.92 994.264 1623.5 992.543 1624.08 992.543 1624.65 990.822 1624.65 990.822 1625.23 989.101 1625.23 989.101 1626.38 987.38 1626.38 986.807 1626.96 984.512 1626.96 984.512 1628.12 982.218 1628.12 982.218 1628.69 979.349 1629.27 979.349 1629.85 975.908 1629.85 975.908 1630.42 972.466 1630.42 972.466 1631.58 969.024 1631.58 969.024 1632.15 965.009 1632.73 964.435 1633.31 960.42 1633.31 960.42 1633.88 955.831 1633.88 955.257 1635.04 950.094 1635.04 950.094 1635.62 944.358 1636.19 944.358 1636.77 937.475 1636.77 937.475 1637.35 930.591 1637.35 930.591 1638.5 922.56 1638.5 922.56 1639.08 913.382 1639.65 913.382 1640.23 903.057 1640.23 903.057 1640.81 891.585 1640.81 891.011 1641.96 877.818 1641.96 877.244 1642.54 861.182 1642.54 860.609 1643.69 839.385 1643.69 839.385 1644.27 811.277 1644.85 811.277 1645.42 769.402 1645.42 768.829 1646 739" stroke="#0072BD" stroke-width="2.29167" stroke-linejoin="round" stroke-miterlimit="10" fill="none" fill-rule="evenodd"/><path d="M1648 739 1648 757.356 1648.57 758.503 1649.13 804.393 1649.13 804.393 1649.7 834.222 1649.7 834.796 1650.84 856.593 1650.84 856.593 1651.4 874.376 1651.97 874.376 1652.54 888.716 1652.54 888.716 1653.11 900.763 1653.11 901.336 1654.24 911.661 1654.24 911.661 1654.81 920.84 1655.37 920.84 1655.94 928.87 1655.94 928.87 1656.51 936.327 1656.51 936.327 1657.64 942.637 1657.64 943.211 1658.21 948.947 1658.78 948.947 1659.35 954.11 1659.35 954.683 1659.91 959.273 1659.91 959.273 1661.05 963.862 1661.05 963.862 1661.62 967.877 1661.62 967.877 1662.75 971.892 1662.75 971.892 1663.32 975.334 1663.88 975.334 1664.45 978.776 1664.45 978.776 1665.02 981.644 1665.02 981.644 1666.15 983.938 1666.15 983.938 1666.72 986.233 1667.29 986.233 1667.86 988.527 1667.86 989.101 1668.42 990.822 1668.42 990.822 1669.56 992.543 1669.56 992.543 1670.69 994.264 1670.69 994.264 1671.26 995.411 1671.26 995.411 1672.39 996.558 1672.39 996.558 1672.96 997.705 1672.96 997.705 1674.1 998.279 1674.1 998.279 1674.66 998.853 1674.66 998.853 1675.8 999.426 1675.8 999.426 1676.37 999.426 1676.37 999.426 1677.5 1000 1677.5 1000 1677.5 1000 1678.07 1000 1678.07 1000 1679.2 999.426 1679.2 999.426 1679.77 999.426 1679.77 999.426 1680.9 998.853 1680.9 998.853 1681.47 997.705 1681.47 997.705 1682.61 997.132 1682.61 996.558 1683.17 995.985 1683.17 995.985 1684.31 994.837 1684.31 994.264 1684.88 993.116 1684.88 993.116 1686.01 991.396 1686.01 991.396 1686.58 989.675 1686.58 989.675 1687.71 987.38 1687.71 987.38 1688.28 985.086 1688.28 985.086 1689.41 982.791 1689.41 982.791 1689.98 979.923 1689.98 979.923 1691.12 977.055 1691.12 977.055 1691.68 973.613 1691.68 973.613 1692.82 969.598 1692.82 969.598 1693.38 965.582 1693.38 965.582 1694.52 960.993 1694.52 960.993 1695.09 956.404 1695.09 956.404 1696.22 951.242 1696.22 951.242 1696.79 945.505 1696.79 945.505 1697.92 939.196 1697.92 939.196 1698.49 932.312 1698.49 932.312 1699.62 924.281 1699.62 924.281 1700.19 915.103 1700.19 915.103 1701.33 905.352 1701.33 905.352 1701.89 893.879 1701.89 893.879 1703.03 880.686 1703.03 880.112 1703.6 864.624 1703.6 864.051 1704.73 843.974 1704.73 843.974 1705.3 818.16 1705.87 817.587 1706.43 779.728 1706.43 779.154 1707 739" stroke="#0072BD" stroke-width="2.29167" stroke-linejoin="round" stroke-miterlimit="10" fill="none" fill-rule="evenodd"/><path d="M1709 739 1709 744.163 1709.58 745.31 1710.15 796.363 1710.15 797.51 1710.73 829.059 1710.73 829.633 1711.88 852.578 1711.88 852.578 1712.46 870.934 1713.04 871.508 1713.62 885.848 1713.62 886.422 1714.19 898.468 1714.19 898.468 1715.35 909.367 1715.35 909.367 1715.92 919.119 1716.5 919.119 1717.08 927.149 1717.08 927.723 1717.65 935.18 1717.65 935.18 1718.81 941.49 1718.81 942.064 1719.38 947.8 1719.38 947.8 1720.54 953.536 1720.54 953.536 1721.12 958.699 1721.69 958.699 1722.27 962.714 1722.27 963.288 1722.85 967.303 1722.85 967.303 1724 971.319 1724 971.319 1724.58 974.76 1725.15 974.76 1725.73 977.629 1725.73 978.202 1726.31 981.07 1726.31 981.07 1727.46 983.938 1727.46 983.938 1728.04 986.233 1728.62 986.233 1729.19 987.954 1729.19 988.527 1729.77 990.248 1729.77 990.248 1730.92 991.969 1730.92 991.969 1731.5 993.69 1732.08 993.69 1732.65 994.837 1732.65 994.837 1733.23 995.985 1733.23 996.558 1734.38 997.132 1734.38 997.132 1734.96 998.279 1735.54 998.279 1736.12 998.853 1736.12 998.853 1736.69 999.426 1736.69 999.426 1737.85 999.426 1737.85 999.426 1738.42 1000 1738.42 1000 1739 1000 1739.58 1000 1739.58 1000 1740.15 999.426 1740.73 999.426 1741.31 999.426 1741.31 999.426 1741.88 998.853 1741.88 998.853 1743.04 997.705 1743.04 997.705 1743.62 997.132 1744.19 997.132 1744.77 995.985 1744.77 995.985 1745.35 994.837 1745.35 994.837 1746.5 993.116 1746.5 993.116 1747.08 991.969 1747.65 991.396 1748.23 989.675 1748.23 989.675 1748.81 987.954 1748.81 987.954 1749.96 985.659 1749.96 985.659 1750.54 982.791 1751.12 982.791 1751.69 980.497 1751.69 980.497 1752.27 977.629 1752.27 977.629 1753.42 974.187 1753.42 974.187 1754 970.745 1754 970.745 1755.15 966.156 1755.15 966.156 1755.73 962.141 1756.31 962.141 1756.88 957.552 1756.88 957.552 1757.46 952.389 1757.46 952.389 1758.62 946.653 1758.62 946.653 1759.19 940.343 1759.77 940.343 1760.35 933.459 1760.35 933.459 1760.92 926.002 1760.92 926.002 1762.08 917.398 1762.08 917.398 1762.65 907.646 1763.23 907.073 1763.81 896.174 1763.81 896.174 1764.38 883.554 1764.38 882.98 1765.54 868.066 1765.54 867.492 1766.12 848.563 1766.69 847.989 1767.27 823.897 1767.27 823.323 1767.85 788.906 1767.85 788.332 1769 739" stroke="#0072BD" stroke-width="2.29167" stroke-linejoin="round" stroke-miterlimit="10" fill="none" fill-rule="evenodd"/><path d="M1770 739 1770.58 788.332 1771.15 788.906 1771.73 823.323 1771.73 823.897 1772.31 847.989 1772.31 848.563 1773.46 867.492 1773.46 868.066 1774.04 882.98 1774.62 883.554 1775.19 896.174 1775.19 896.174 1775.77 907.073 1775.77 907.646 1776.92 917.398 1776.92 917.398 1777.5 926.002 1778.08 926.002 1778.65 933.459 1778.65 933.459 1779.23 940.343 1779.23 940.343 1780.38 946.653 1780.38 946.653 1780.96 952.389 1781.54 952.389 1782.12 957.552 1782.12 957.552 1782.69 962.141 1782.69 962.141 1783.85 966.156 1783.85 966.156 1784.42 970.745 1785 970.745 1785.58 974.187 1785.58 974.187 1786.15 977.629 1786.15 977.629 1787.31 980.497 1787.31 980.497 1787.88 982.791 1787.88 982.791 1789.04 985.659 1789.04 985.659 1789.62 987.954 1790.19 987.954 1790.77 989.675 1790.77 989.675 1791.35 991.396 1791.35 991.969 1792.5 993.116 1792.5 993.116 1793.08 994.837 1793.65 994.837 1794.23 995.985 1794.23 995.985 1794.81 997.132 1794.81 997.132 1795.96 997.705 1795.96 997.705 1796.54 998.853 1797.12 998.853 1797.69 999.426 1797.69 999.426 1798.27 999.426 1798.27 999.426 1799.42 1000 1799.42 1000 1800 1000 1800.58 1000 1800.58 1000 1801.15 999.426 1801.15 999.426 1802.31 999.426 1802.31 999.426 1802.88 998.853 1802.88 998.853 1804.04 998.279 1804.04 998.279 1804.62 997.132 1804.62 997.132 1805.77 996.558 1805.77 995.985 1806.35 994.837 1806.35 994.837 1807.5 993.69 1807.5 993.69 1808.08 991.969 1808.08 991.969 1809.23 990.248 1809.23 990.248 1809.81 988.527 1809.81 987.954 1810.96 986.233 1810.96 986.233 1811.54 983.938 1811.54 983.938 1812.69 981.07 1812.69 981.07 1813.27 978.202 1813.27 977.629 1814.42 974.76 1814.42 974.76 1815 971.319 1815 971.319 1816.15 967.303 1816.15 967.303 1816.73 963.288 1816.73 962.714 1817.88 958.699 1817.88 958.699 1818.46 953.536 1818.46 953.536 1819.62 947.8 1819.62 947.8 1820.19 942.064 1820.19 941.49 1821.35 935.18 1821.35 935.18 1821.92 927.723 1821.92 927.149 1823.08 919.119 1823.08 919.119 1823.65 909.367 1823.65 909.367 1824.81 898.468 1824.81 898.468 1825.38 886.422 1825.38 885.848 1826.54 871.508 1826.54 870.934 1827.12 852.578 1827.12 852.578 1828.27 829.633 1828.27 829.059 1828.85 797.51 1828.85 796.363 1830 745.31 1830 744.163 1830 739" stroke="#0072BD" stroke-width="2.29167" stroke-linejoin="round" stroke-miterlimit="10" fill="none" fill-rule="evenodd"/><path d="M1832 739 1832.57 779.154 1832.57 779.728 1833.7 817.587 1833.7 818.16 1834.27 843.974 1834.27 843.974 1835.4 864.051 1835.4 864.624 1835.97 880.112 1836.54 880.686 1837.11 893.879 1837.11 893.879 1837.67 905.352 1837.67 905.352 1838.81 915.103 1838.81 915.103 1839.37 924.281 1839.94 924.281 1840.51 932.312 1840.51 932.312 1841.08 939.196 1841.08 939.196 1842.21 945.505 1842.21 945.505 1842.78 951.242 1843.35 951.242 1843.91 956.404 1843.91 956.404 1844.48 960.993 1844.48 960.993 1845.62 965.582 1845.62 965.582 1846.18 969.598 1846.75 969.598 1847.32 973.613 1847.32 973.613 1847.88 977.055 1848.45 977.055 1849.02 979.923 1849.02 979.923 1849.59 982.791 1849.59 982.791 1850.72 985.086 1850.72 985.086 1851.29 987.38 1851.86 987.38 1852.42 989.675 1852.42 989.675 1852.99 991.396 1852.99 991.396 1854.12 993.116 1854.12 993.116 1854.69 994.264 1855.26 994.837 1855.83 995.985 1855.83 995.985 1856.39 996.558 1856.39 997.132 1857.53 997.705 1857.53 997.705 1858.1 998.853 1858.66 998.853 1859.23 999.426 1859.23 999.426 1859.8 999.426 1859.8 999.426 1860.93 1000 1860.93 1000 1861.5 1000 1861.5 1000 1862.07 1000 1862.63 999.426 1862.63 999.426 1863.2 999.426 1863.2 999.426 1864.34 998.853 1864.34 998.853 1864.9 998.279 1864.9 998.279 1866.04 997.705 1866.04 997.705 1866.61 996.558 1867.17 996.558 1867.74 995.411 1867.74 995.411 1868.31 994.264 1868.31 994.264 1869.44 992.543 1869.44 992.543 1870.01 990.822 1870.58 990.822 1871.14 989.101 1871.14 988.527 1871.71 986.233 1871.71 986.233 1872.85 983.938 1872.85 983.938 1873.41 981.644 1873.98 981.644 1874.55 978.776 1874.55 978.776 1875.12 975.334 1875.12 975.334 1876.25 971.892 1876.25 971.892 1876.82 967.877 1877.38 967.877 1877.95 963.862 1877.95 963.862 1878.52 959.273 1878.52 959.273 1879.65 954.683 1879.65 954.11 1880.22 948.947 1880.22 948.947 1881.36 943.211 1881.36 942.637 1881.92 936.327 1882.49 936.327 1883.06 928.87 1883.06 928.87 1883.62 920.84 1883.62 920.84 1884.76 911.661 1884.76 911.661 1885.33 901.336 1885.89 900.763 1886.46 888.716 1886.46 888.716 1887.03 874.376 1887.03 874.376 1888.16 856.593 1888.16 856.593 1888.73 834.796 1889.3 834.222 1889.87 804.393 1889.87 804.393 1890.43 758.503 1890.43 757.356 1891 739" stroke="#0072BD" stroke-width="2.29167" stroke-linejoin="round" stroke-miterlimit="10" fill="none" fill-rule="evenodd"/><path d="M1893 739 1893.58 768.829 1893.58 769.402 1894.15 811.277 1894.15 811.277 1895.31 839.385 1895.31 839.385 1895.88 860.609 1896.46 861.182 1897.04 877.244 1897.04 877.818 1897.62 891.011 1897.62 891.585 1898.77 903.057 1898.77 903.057 1899.35 913.382 1899.35 913.382 1900.5 922.56 1900.5 922.56 1901.08 930.591 1901.65 930.591 1902.23 937.475 1902.23 937.475 1902.81 944.358 1902.81 944.358 1903.96 950.094 1903.96 950.094 1904.54 955.257 1905.12 955.831 1905.69 960.42 1905.69 960.42 1906.27 964.435 1906.27 965.009 1907.42 969.024 1907.42 969.024 1908 972.466 1908.58 972.466 1909.15 975.908 1909.15 975.908 1909.73 979.349 1909.73 979.349 1910.88 982.218 1910.88 982.218 1911.46 984.512 1912.04 984.512 1912.62 986.807 1912.62 987.38 1913.19 989.101 1913.19 989.101 1914.35 990.822 1914.35 990.822 1914.92 992.543 1914.92 992.543 1916.08 994.264 1916.08 994.264 1916.65 995.411 1917.23 995.411 1917.81 996.558 1917.81 996.558 1918.38 997.705 1918.38 997.705 1919.54 998.853 1919.54 998.853 1920.12 998.853 1920.69 998.853 1921.27 999.426 1921.27 999.426 1921.85 999.426 1921.85 999.426 1923 1000 1923 1000 1923.58 999.426 1924.15 999.426 1924.73 999.426 1924.73 999.426 1925.31 998.853 1925.31 998.853 1926.46 998.853 1926.46 998.853 1927.04 997.705 1927.62 997.705 1928.19 996.558 1928.19 996.558 1928.77 995.411 1928.77 995.411 1929.92 994.264 1929.92 994.264 1930.5 992.543 1931.08 992.543 1931.65 990.822 1931.65 990.822 1932.81 989.101 1932.81 989.101 1933.38 987.38 1933.38 986.807 1934.54 984.512 1934.54 984.512 1935.12 982.218 1935.12 982.218 1936.27 979.349 1936.27 979.349 1936.85 975.908 1936.85 975.908 1938 972.466 1938 972.466 1938.58 969.024 1938.58 969.024 1939.73 965.009 1939.73 964.435 1940.31 960.42 1940.31 960.42 1941.46 955.831 1941.46 955.257 1942.04 950.094 1942.04 950.094 1943.19 944.358 1943.19 944.358 1943.77 937.475 1943.77 937.475 1944.92 930.591 1944.92 930.591 1945.5 922.56 1945.5 922.56 1946.65 913.382 1946.65 913.382 1947.23 903.057 1947.23 903.057 1948.38 891.585 1948.38 891.011 1948.96 877.818 1948.96 877.244 1950.12 861.182 1950.12 860.609 1950.69 839.385 1950.69 839.385 1951.85 811.277 1951.85 811.277 1952.42 769.402 1952.42 768.829 1953 739" stroke="#0072BD" stroke-width="2.29167" stroke-linejoin="round" stroke-miterlimit="10" fill="none" fill-rule="evenodd"/><path d="M1955 739 1955 757.356 1955 758.503 1955.57 804.393 1955.57 804.393 1956.72 834.222 1956.72 834.796 1957.29 856.593 1957.29 856.593 1958.44 874.376 1958.44 874.376 1959.01 888.716 1959.01 888.716 1960.16 900.763 1960.16 901.336 1960.73 911.661 1960.73 911.661 1961.87 920.84 1961.87 920.84 1962.45 928.87 1962.45 928.87 1963.59 936.327 1963.59 936.327 1964.16 942.637 1964.16 943.211 1965.31 948.947 1965.31 948.947 1965.88 954.11 1966.46 954.683 1967.03 959.273 1967.03 959.273 1967.6 963.862 1967.6 963.862 1968.75 967.877 1968.75 967.877 1969.32 971.892 1969.89 971.892 1970.47 975.334 1970.47 975.334 1971.04 978.776 1971.04 978.776 1972.18 981.644 1972.18 981.644 1972.76 983.938 1973.33 983.938 1973.9 986.233 1973.9 986.233 1974.48 988.527 1974.48 989.101 1975.62 990.822 1975.62 990.822 1976.19 992.543 1976.19 992.543 1977.34 994.264 1977.34 994.264 1977.91 995.411 1978.49 995.411 1979.06 996.558 1979.06 996.558 1979.63 997.705 1979.63 997.705 1980.78 998.279 1980.78 998.279 1981.35 998.853 1981.92 998.853 1982.5 999.426 1982.5 999.426 1983.07 999.426 1983.07 999.426 1984.21 1000 1984.21 1000 1984.21 1000 1984.79 1000 1985.36 1000 1985.93 999.426 1985.93 999.426 1986.5 999.426 1986.5 999.426 1987.65 998.853 1987.65 998.853 1988.22 997.705 1988.8 997.705 1989.37 997.132 1989.37 996.558 1989.94 995.985 1989.94 995.985 1991.09 994.837 1991.09 994.264 1991.66 993.116 1991.66 993.116 1992.81 991.396 1992.81 991.396 1993.38 989.675 1993.95 989.675 1994.52 987.38 1994.52 987.38 1995.1 985.086 1995.1 985.086 1996.24 982.791 1996.24 982.791 1996.82 979.923 1997.39 979.923 1997.96 977.055 1997.96 977.055 1998.53 973.613 1998.53 973.613 1999.68 969.598 1999.68 969.598 2000.25 965.582 2000.83 965.582 2001.4 960.993 2001.4 960.993 2001.97 956.404 2001.97 956.404 2003.12 951.242 2003.12 951.242 2003.69 945.505 2004.26 945.505 2004.83 939.196 2004.83 939.196 2005.41 932.312 2005.41 932.312 2006.55 924.281 2006.55 924.281 2007.13 915.103 2007.7 915.103 2008.27 905.352 2008.27 905.352 2008.84 893.879 2008.84 893.879 2009.99 880.686 2009.99 880.112 2010.56 864.624 2010.56 864.051 2011.71 843.974 2011.71 843.974 2012.28 818.16 2012.85 817.587 2013.43 779.728 2013.43 779.154 2014 739" stroke="#0072BD" stroke-width="2.29167" stroke-linejoin="round" stroke-miterlimit="10" fill="none" fill-rule="evenodd"/><path d="M2016 739 2016 744.163 2016.57 745.31 2017.13 796.363 2017.13 797.51 2017.7 829.059 2017.7 829.633 2018.84 852.578 2018.84 852.578 2019.4 870.934 2019.97 871.508 2020.54 885.848 2020.54 886.422 2021.11 898.468 2021.11 898.468 2022.24 909.367 2022.24 909.367 2022.81 919.119 2023.38 919.119 2023.94 927.149 2023.94 927.723 2024.51 935.18 2024.51 935.18 2025.64 941.49 2025.64 942.064 2026.21 947.8 2026.21 947.8 2027.35 953.536 2027.35 953.536 2027.91 958.699 2028.48 958.699 2029.05 962.714 2029.05 963.288 2029.62 967.303 2029.62 967.303 2030.75 971.319 2030.75 971.319 2031.32 974.76 2031.88 974.76 2032.45 977.629 2032.45 978.202 2033.02 981.07 2033.02 981.07 2034.15 983.938 2034.15 983.938 2034.72 986.233 2035.29 986.233 2035.86 987.954 2035.86 988.527 2036.42 990.248 2036.42 990.248 2037.56 991.969 2037.56 991.969 2038.12 993.69 2038.69 993.69 2039.26 994.837 2039.26 994.837 2039.83 995.985 2039.83 996.558 2040.96 997.132 2040.96 997.132 2041.53 998.279 2042.1 998.279 2042.66 998.853 2042.66 998.853 2043.23 999.426 2043.23 999.426 2044.37 999.426 2044.37 999.426 2044.93 1000 2044.93 1000 2045.5 1000 2046.07 1000 2046.07 1000 2046.63 999.426 2047.2 999.426 2047.77 999.426 2047.77 999.426 2048.34 998.853 2048.34 998.853 2049.47 997.705 2049.47 997.705 2050.04 997.132 2050.61 997.132 2051.17 995.985 2051.17 995.985 2051.74 994.837 2051.74 994.837 2052.88 993.116 2052.88 993.116 2053.44 991.969 2054.01 991.396 2054.58 989.675 2054.58 989.675 2055.14 987.954 2055.14 987.954 2056.28 985.659 2056.28 985.659 2056.85 982.791 2057.41 982.791 2057.98 980.497 2057.98 980.497 2058.55 977.629 2058.55 977.629 2059.68 974.187 2059.68 974.187 2060.25 970.745 2060.25 970.745 2061.38 966.156 2061.38 966.156 2062.52 962.141 2062.52 962.141 2063.09 957.552 2063.09 957.552 2064.22 952.389 2064.22 952.389 2064.79 946.653 2064.79 946.653 2065.92 940.343 2065.92 940.343 2066.49 933.459 2066.49 933.459 2067.62 926.002 2067.62 926.002 2068.19 917.398 2068.19 917.398 2069.33 907.646 2069.33 907.073 2069.89 896.174 2069.89 896.174 2071.03 883.554 2071.03 882.98 2071.6 868.066 2071.6 867.492 2072.73 848.563 2072.73 847.989 2073.3 823.897 2073.3 823.323 2074.43 788.906 2074.43 788.332 2075 739" stroke="#0072BD" stroke-width="2.29167" stroke-linejoin="round" stroke-miterlimit="10" fill="none" fill-rule="evenodd"/><path d="M2077 739 2078.13 788.332 2078.13 788.906 2078.7 823.323 2078.7 823.897 2079.84 847.989 2079.84 848.563 2080.4 867.492 2080.4 868.066 2081.54 882.98 2081.54 883.554 2082.11 896.174 2082.11 896.174 2083.24 907.073 2083.24 907.646 2083.81 917.398 2083.81 917.398 2084.94 926.002 2084.94 926.002 2085.51 933.459 2085.51 933.459 2086.64 940.343 2086.64 940.343 2087.21 946.653 2087.21 946.653 2088.35 952.389 2088.35 952.389 2088.91 957.552 2088.91 957.552 2090.05 962.141 2090.05 962.141 2090.62 966.156 2090.62 966.156 2091.75 970.745 2091.75 970.745 2092.32 974.187 2092.32 974.187 2093.45 977.629 2093.45 977.629 2094.02 980.497 2094.02 980.497 2095.15 982.791 2095.15 982.791 2095.72 985.659 2096.29 985.659 2096.86 987.954 2096.86 987.954 2097.42 989.675 2097.42 989.675 2098.56 991.396 2098.56 991.969 2099.12 993.116 2099.69 993.116 2100.26 994.837 2100.26 994.837 2100.83 995.985 2100.83 995.985 2101.96 997.132 2101.96 997.132 2102.53 997.705 2102.53 997.705 2103.66 998.853 2103.66 998.853 2104.23 999.426 2104.8 999.426 2105.37 999.426 2105.37 999.426 2105.93 1000 2105.93 1000 2106.5 1000 2107.07 1000 2107.07 1000 2107.63 999.426 2108.2 999.426 2108.77 999.426 2108.77 999.426 2109.34 998.853 2109.34 998.853 2110.47 998.279 2110.47 998.279 2111.04 997.132 2111.61 997.132 2112.17 996.558 2112.17 995.985 2112.74 994.837 2112.74 994.837 2113.88 993.69 2113.88 993.69 2114.44 991.969 2115.01 991.969 2115.58 990.248 2115.58 990.248 2116.14 988.527 2116.14 987.954 2117.28 986.233 2117.28 986.233 2117.85 983.938 2118.41 983.938 2118.98 981.07 2118.98 981.07 2119.55 978.202 2119.55 977.629 2120.68 974.76 2120.68 974.76 2121.25 971.319 2121.25 971.319 2122.38 967.303 2122.38 967.303 2122.95 963.288 2123.52 962.714 2124.09 958.699 2124.09 958.699 2124.65 953.536 2124.65 953.536 2125.79 947.8 2125.79 947.8 2126.36 942.064 2126.92 941.49 2127.49 935.18 2127.49 935.18 2128.06 927.723 2128.06 927.149 2129.19 919.119 2129.19 919.119 2129.76 909.367 2130.33 909.367 2130.89 898.468 2130.89 898.468 2131.46 886.422 2131.46 885.848 2132.6 871.508 2132.6 870.934 2133.16 852.578 2133.73 852.578 2134.3 829.633 2134.3 829.059 2134.87 797.51 2134.87 796.363 2136 745.31 2136 744.163 2136 739" stroke="#0072BD" stroke-width="2.29167" stroke-linejoin="round" stroke-miterlimit="10" fill="none" fill-rule="evenodd"/><path d="M2139 739 2139 779.154 2139.57 779.728 2140.15 817.587 2140.15 818.16 2140.72 843.974 2140.72 843.974 2141.86 864.051 2141.86 864.624 2142.44 880.112 2143.01 880.686 2143.58 893.879 2143.58 893.879 2144.16 905.352 2144.16 905.352 2145.3 915.103 2145.3 915.103 2145.87 924.281 2146.45 924.281 2147.02 932.312 2147.02 932.312 2147.59 939.196 2147.59 939.196 2148.74 945.505 2148.74 945.505 2149.31 951.242 2149.88 951.242 2150.46 956.404 2150.46 956.404 2151.03 960.993 2151.03 960.993 2152.18 965.582 2152.18 965.582 2152.75 969.598 2153.32 969.598 2153.89 973.613 2153.89 973.613 2154.47 977.055 2155.04 977.055 2155.61 979.923 2155.61 979.923 2156.18 982.791 2156.18 982.791 2157.33 985.086 2157.33 985.086 2157.9 987.38 2158.48 987.38 2159.05 989.675 2159.05 989.675 2159.62 991.396 2159.62 991.396 2160.77 993.116 2160.77 993.116 2161.34 994.264 2161.91 994.837 2162.49 995.985 2162.49 995.985 2163.06 996.558 2163.06 997.132 2164.2 997.705 2164.2 997.705 2164.78 998.853 2165.35 998.853 2165.92 999.426 2165.92 999.426 2166.5 999.426 2166.5 999.426 2167.64 1000 2167.64 1000 2168.21 1000 2168.21 1000 2168.79 1000 2169.36 999.426 2169.36 999.426 2169.93 999.426 2169.93 999.426 2171.08 998.853 2171.08 998.853 2171.65 998.279 2171.65 998.279 2172.8 997.705 2172.8 997.705 2173.37 996.558 2173.94 996.558 2174.51 995.411 2174.51 995.411 2175.09 994.264 2175.09 994.264 2176.23 992.543 2176.23 992.543 2176.81 990.822 2177.38 990.822 2177.95 989.101 2177.95 988.527 2178.52 986.233 2178.52 986.233 2179.67 983.938 2179.67 983.938 2180.24 981.644 2180.82 981.644 2181.39 978.776 2181.39 978.776 2181.96 975.334 2181.96 975.334 2183.11 971.892 2183.11 971.892 2183.68 967.877 2184.25 967.877 2184.83 963.862 2184.83 963.862 2185.4 959.273 2185.4 959.273 2186.54 954.683 2186.54 954.11 2187.12 948.947 2187.12 948.947 2188.26 943.211 2188.26 942.637 2188.83 936.327 2189.41 936.327 2189.98 928.87 2189.98 928.87 2190.55 920.84 2190.55 920.84 2191.7 911.661 2191.7 911.661 2192.84 901.336 2192.84 900.763 2193.42 888.716 2193.42 888.716 2194.56 874.376 2194.56 874.376 2195.14 856.593 2195.14 856.593 2196.28 834.796 2196.28 834.222 2196.85 804.393 2196.85 804.393 2198 758.503 2198 757.356 2198 739" stroke="#0072BD" stroke-width="2.29167" stroke-linejoin="round" stroke-miterlimit="10" fill="none" fill-rule="evenodd"/><path d="M2200 739 2200 768.829 2200 769.402 2201.15 811.277 2201.15 811.277 2201.72 839.385 2201.72 839.385 2202.86 860.609 2202.86 861.182 2203.44 877.244 2203.44 877.818 2204.58 891.011 2204.58 891.585 2205.16 903.057 2205.16 903.057 2206.3 913.382 2206.3 913.382 2206.87 922.56 2206.87 922.56 2208.02 930.591 2208.02 930.591 2208.59 937.475 2208.59 937.475 2209.74 944.358 2209.74 944.358 2210.31 950.094 2210.31 950.094 2211.46 955.257 2211.46 955.831 2212.03 960.42 2212.03 960.42 2213.17 964.435 2213.17 965.009 2213.75 969.024 2213.75 969.024 2214.89 972.466 2214.89 972.466 2215.47 975.908 2215.47 975.908 2216.61 979.349 2216.61 979.349 2217.18 982.218 2217.18 982.218 2218.33 984.512 2218.33 984.512 2218.9 986.807 2218.9 987.38 2220.05 989.101 2220.05 989.101 2220.62 990.822 2220.62 990.822 2221.77 992.543 2221.77 992.543 2222.34 994.264 2222.34 994.264 2223.49 995.411 2223.49 995.411 2224.06 996.558 2224.06 996.558 2225.2 997.705 2225.2 997.705 2225.78 998.853 2226.35 998.853 2226.92 998.853 2226.92 998.853 2227.5 999.426 2227.5 999.426 2228.64 999.426 2228.64 999.426 2229.21 1000 2229.79 1000 2230.36 999.426 2230.36 999.426 2230.93 999.426 2231.5 999.426 2232.08 998.853 2232.08 998.853 2232.65 998.853 2232.65 998.853 2233.8 997.705 2233.8 997.705 2234.37 996.558 2234.94 996.558 2235.51 995.411 2235.51 995.411 2236.09 994.264 2236.09 994.264 2237.23 992.543 2237.23 992.543 2237.81 990.822 2238.38 990.822 2238.95 989.101 2238.95 989.101 2239.52 987.38 2239.52 986.807 2240.67 984.512 2240.67 984.512 2241.24 982.218 2241.82 982.218 2242.39 979.349 2242.39 979.349 2242.96 975.908 2242.96 975.908 2244.11 972.466 2244.11 972.466 2244.68 969.024 2245.25 969.024 2245.83 965.009 2245.83 964.435 2246.4 960.42 2246.4 960.42 2247.54 955.831 2247.54 955.257 2248.12 950.094 2248.12 950.094 2249.26 944.358 2249.26 944.358 2249.83 937.475 2250.41 937.475 2250.98 930.591 2250.98 930.591 2251.55 922.56 2251.55 922.56 2252.7 913.382 2252.7 913.382 2253.27 903.057 2253.84 903.057 2254.42 891.585 2254.42 891.011 2254.99 877.818 2254.99 877.244 2256.14 861.182 2256.14 860.609 2256.71 839.385 2257.28 839.385 2257.85 811.277 2257.85 811.277 2258.43 769.402 2258.43 768.829 2259 739" stroke="#0072BD" stroke-width="2.29167" stroke-linejoin="round" stroke-miterlimit="10" fill="none" fill-rule="evenodd"/><path d="M2261 739 2261 757.356 2261 758.503 2261.57 804.393 2261.57 804.393 2262.72 834.222 2262.72 834.796 2263.29 856.593 2263.29 856.593 2264.44 874.376 2264.44 874.376 2265.01 888.716 2265.58 888.716 2266.16 900.763 2266.16 901.336 2266.73 911.661 2266.73 911.661 2267.87 920.84 2267.87 920.84 2268.45 928.87 2269.02 928.87 2269.59 936.327 2269.59 936.327 2270.16 942.637 2270.16 943.211 2271.31 948.947 2271.31 948.947 2271.88 954.11 2272.46 954.683 2273.03 959.273 2273.03 959.273 2273.6 963.862 2273.6 963.862 2274.75 967.877 2274.75 967.877 2275.32 971.892 2275.89 971.892 2276.47 975.334 2276.47 975.334 2277.04 978.776 2277.04 978.776 2278.18 981.644 2278.18 981.644 2278.76 983.938 2279.33 983.938 2279.9 986.233 2279.9 986.233 2280.48 988.527 2280.48 989.101 2281.62 990.822 2281.62 990.822 2282.19 992.543 2282.19 992.543 2283.34 994.264 2283.34 994.264 2283.91 995.411 2284.49 995.411 2285.06 996.558 2285.06 996.558 2285.63 997.705 2285.63 997.705 2286.78 998.279 2286.78 998.279 2287.35 998.853 2287.92 998.853 2288.49 999.426 2288.49 999.426 2289.07 999.426 2289.07 999.426 2290.21 1000 2290.21 1000 2290.21 1000 2290.79 1000 2291.36 1000 2291.93 999.426 2291.93 999.426 2292.5 999.426 2292.5 999.426 2293.65 998.853 2293.65 998.853 2294.22 997.705 2294.8 997.705 2295.37 997.132 2295.37 996.558 2295.94 995.985 2295.94 995.985 2297.09 994.837 2297.09 994.264 2297.66 993.116 2297.66 993.116 2298.81 991.396 2298.81 991.396 2299.38 989.675 2299.95 989.675 2300.52 987.38 2300.52 987.38 2301.1 985.086 2301.1 985.086 2302.24 982.791 2302.24 982.791 2302.82 979.923 2303.39 979.923 2303.96 977.055 2303.96 977.055 2304.53 973.613 2304.53 973.613 2305.68 969.598 2305.68 969.598 2306.25 965.582 2306.83 965.582 2307.4 960.993 2307.4 960.993 2307.97 956.404 2307.97 956.404 2309.12 951.242 2309.12 951.242 2309.69 945.505 2310.26 945.505 2310.83 939.196 2310.83 939.196 2311.41 932.312 2311.41 932.312 2312.55 924.281 2312.55 924.281 2313.13 915.103 2313.7 915.103 2314.27 905.352 2314.27 905.352 2314.84 893.879 2314.84 893.879 2315.99 880.686 2315.99 880.112 2316.56 864.624 2316.56 864.051 2317.71 843.974 2317.71 843.974 2318.28 818.16 2318.85 817.587 2319.43 779.728 2319.43 779.154 2320 739" stroke="#0072BD" stroke-width="2.29167" stroke-linejoin="round" stroke-miterlimit="10" fill="none" fill-rule="evenodd"/><path d="M2323 739 2323 744.163 2323 745.31 2323.57 796.363 2323.57 797.51 2324.72 829.059 2324.72 829.633 2325.29 852.578 2325.29 852.578 2326.44 870.934 2326.44 871.508 2327.01 885.848 2327.01 886.422 2328.16 898.468 2328.16 898.468 2328.73 909.367 2328.73 909.367 2329.87 919.119 2329.87 919.119 2330.45 927.149 2330.45 927.723 2331.59 935.18 2331.59 935.18 2332.17 941.49 2332.17 942.064 2333.31 947.8 2333.31 947.8 2333.88 953.536 2333.88 953.536 2335.03 958.699 2335.03 958.699 2335.6 962.714 2335.6 963.288 2336.75 967.303 2336.75 967.303 2337.32 971.319 2337.32 971.319 2338.47 974.76 2338.47 974.76 2339.04 977.629 2339.04 978.202 2340.18 981.07 2340.18 981.07 2340.76 983.938 2340.76 983.938 2341.9 986.233 2341.9 986.233 2342.48 987.954 2342.48 988.527 2343.62 990.248 2343.62 990.248 2344.19 991.969 2344.19 991.969 2345.34 993.69 2345.34 993.69 2345.91 994.837 2345.91 994.837 2347.06 995.985 2347.06 996.558 2347.63 997.132 2347.63 997.132 2348.78 998.279 2348.78 998.279 2349.35 998.853 2349.35 998.853 2350.5 999.426 2350.5 999.426 2351.07 999.426 2351.07 999.426 2352.21 1000 2352.21 1000 2352.21 1000 2352.79 1000 2352.79 1000 2353.93 999.426 2353.93 999.426 2354.5 999.426 2354.5 999.426 2355.65 998.853 2355.65 998.853 2356.22 997.705 2356.8 997.705 2357.37 997.132 2357.37 997.132 2357.94 995.985 2357.94 995.985 2359.09 994.837 2359.09 994.837 2359.66 993.116 2359.66 993.116 2360.81 991.969 2360.81 991.396 2361.38 989.675 2361.95 989.675 2362.52 987.954 2362.52 987.954 2363.1 985.659 2363.1 985.659 2364.24 982.791 2364.24 982.791 2364.82 980.497 2365.39 980.497 2365.96 977.629 2365.96 977.629 2366.53 974.187 2366.53 974.187 2367.68 970.745 2367.68 970.745 2368.25 966.156 2368.82 966.156 2369.4 962.141 2369.4 962.141 2369.97 957.552 2369.97 957.552 2371.12 952.389 2371.12 952.389 2371.69 946.653 2372.26 946.653 2372.83 940.343 2372.83 940.343 2373.41 933.459 2373.41 933.459 2374.55 926.002 2374.55 926.002 2375.13 917.398 2375.13 917.398 2376.27 907.646 2376.27 907.073 2376.84 896.174 2377.42 896.174 2377.99 883.554 2377.99 882.98 2378.56 868.066 2378.56 867.492 2379.71 848.563 2379.71 847.989 2380.28 823.897 2380.85 823.323 2381.43 788.906 2381.43 788.332 2382 739" stroke="#0072BD" stroke-width="2.29167" stroke-linejoin="round" stroke-miterlimit="10" fill="none" fill-rule="evenodd"/><path d="M2384 739 2384.57 788.332 2384.57 788.906 2385.15 823.323 2385.15 823.897 2386.29 847.989 2386.29 848.563 2386.86 867.492 2387.44 868.066 2388.01 882.98 2388.01 883.554 2388.58 896.174 2388.58 896.174 2389.73 907.073 2389.73 907.646 2390.3 917.398 2390.87 917.398 2391.45 926.002 2391.45 926.002 2392.02 933.459 2392.02 933.459 2393.17 940.343 2393.17 940.343 2393.74 946.653 2393.74 946.653 2394.88 952.389 2394.88 952.389 2395.46 957.552 2396.03 957.552 2396.6 962.141 2396.6 962.141 2397.17 966.156 2397.17 966.156 2398.32 970.745 2398.32 970.745 2398.89 974.187 2399.47 974.187 2400.04 977.629 2400.04 977.629 2400.61 980.497 2400.61 980.497 2401.76 982.791 2401.76 982.791 2402.33 985.659 2402.9 985.659 2403.48 987.954 2403.48 987.954 2404.05 989.675 2404.05 989.675 2405.19 991.396 2405.19 991.969 2405.77 993.116 2406.34 993.116 2406.91 994.837 2406.91 994.837 2407.49 995.985 2407.49 995.985 2408.63 997.132 2408.63 997.132 2409.2 997.705 2409.2 997.705 2410.35 998.853 2410.35 998.853 2410.92 999.426 2411.5 999.426 2412.07 999.426 2412.07 999.426 2412.64 1000 2412.64 1000 2413.21 1000 2413.79 1000 2413.79 1000 2414.36 999.426 2414.93 999.426 2415.5 999.426 2415.5 999.426 2416.08 998.853 2416.08 998.853 2417.22 998.279 2417.22 998.279 2417.8 997.132 2418.37 997.132 2418.94 996.558 2418.94 995.985 2419.51 994.837 2419.51 994.837 2420.66 993.69 2420.66 993.69 2421.23 991.969 2421.81 991.969 2422.38 990.248 2422.38 990.248 2422.95 988.527 2422.95 987.954 2424.1 986.233 2424.1 986.233 2424.67 983.938 2425.24 983.938 2425.82 981.07 2425.82 981.07 2426.39 978.202 2426.39 977.629 2427.53 974.76 2427.53 974.76 2428.11 971.319 2428.11 971.319 2429.25 967.303 2429.25 967.303 2429.83 963.288 2430.4 962.714 2430.97 958.699 2430.97 958.699 2431.54 953.536 2431.54 953.536 2432.69 947.8 2432.69 947.8 2433.26 942.064 2433.83 941.49 2434.41 935.18 2434.41 935.18 2434.98 927.723 2434.98 927.149 2436.13 919.119 2436.13 919.119 2436.7 909.367 2437.27 909.367 2437.84 898.468 2437.84 898.468 2438.42 886.422 2438.42 885.848 2439.56 871.508 2439.56 870.934 2440.14 852.578 2440.71 852.578 2441.28 829.633 2441.28 829.059 2441.85 797.51 2441.85 796.363 2443 745.31 2443 744.163 2443 739" stroke="#0072BD" stroke-width="2.29167" stroke-linejoin="round" stroke-miterlimit="10" fill="none" fill-rule="evenodd"/><path d="M2445 739 2445 779.154 2445.57 779.728 2446.15 817.587 2446.15 818.16 2446.72 843.974 2446.72 843.974 2447.86 864.051 2447.86 864.624 2448.44 880.112 2449.01 880.686 2449.58 893.879 2449.58 893.879 2450.16 905.352 2450.16 905.352 2451.3 915.103 2451.3 915.103 2452.45 924.281 2452.45 924.281 2453.02 932.312 2453.02 932.312 2454.17 939.196 2454.17 939.196 2454.74 945.505 2454.74 945.505 2455.88 951.242 2455.88 951.242 2456.46 956.404 2456.46 956.404 2457.6 960.993 2457.6 960.993 2458.17 965.582 2458.17 965.582 2459.32 969.598 2459.32 969.598 2459.89 973.613 2459.89 973.613 2461.04 977.055 2461.04 977.055 2461.61 979.923 2461.61 979.923 2462.76 982.791 2462.76 982.791 2463.33 985.086 2463.33 985.086 2464.48 987.38 2464.48 987.38 2465.05 989.675 2465.05 989.675 2466.19 991.396 2466.19 991.396 2466.77 993.116 2466.77 993.116 2467.91 994.264 2467.91 994.837 2468.49 995.985 2468.49 995.985 2469.63 996.558 2469.63 997.132 2470.2 997.705 2470.2 997.705 2471.35 998.853 2471.35 998.853 2471.92 999.426 2471.92 999.426 2473.07 999.426 2473.07 999.426 2473.64 1000 2473.64 1000 2474.79 1000 2474.79 1000 2474.79 1000 2475.36 999.426 2475.36 999.426 2476.5 999.426 2476.5 999.426 2477.08 998.853 2477.08 998.853 2478.22 998.279 2478.22 998.279 2478.8 997.705 2478.8 997.705 2479.94 996.558 2479.94 996.558 2480.51 995.411 2480.51 995.411 2481.66 994.264 2481.66 994.264 2482.23 992.543 2482.23 992.543 2483.38 990.822 2483.38 990.822 2483.95 989.101 2483.95 988.527 2485.1 986.233 2485.1 986.233 2485.67 983.938 2485.67 983.938 2486.82 981.644 2486.82 981.644 2487.39 978.776 2487.96 978.776 2488.53 975.334 2488.53 975.334 2489.11 971.892 2489.11 971.892 2490.25 967.877 2490.25 967.877 2490.82 963.862 2491.4 963.862 2491.97 959.273 2491.97 959.273 2492.54 954.683 2492.54 954.11 2493.69 948.947 2493.69 948.947 2494.26 943.211 2494.83 942.637 2495.41 936.327 2495.41 936.327 2495.98 928.87 2495.98 928.87 2497.13 920.84 2497.13 920.84 2497.7 911.661 2498.27 911.661 2498.84 901.336 2498.84 900.763 2499.42 888.716 2499.42 888.716 2500.56 874.376 2500.56 874.376 2501.14 856.593 2501.71 856.593 2502.28 834.796 2502.28 834.222 2502.85 804.393 2502.85 804.393 2504 758.503 2504 757.356 2504 739" stroke="#0072BD" stroke-width="2.29167" stroke-linejoin="round" stroke-miterlimit="10" fill="none" fill-rule="evenodd"/><path d="M2507 739 2507 768.829 2507.57 769.402 2508.15 811.277 2508.15 811.277 2508.72 839.385 2508.72 839.385 2509.86 860.609 2509.86 861.182 2510.44 877.244 2511.01 877.818 2511.58 891.011 2511.58 891.585 2512.16 903.057 2512.16 903.057 2513.3 913.382 2513.3 913.382 2513.87 922.56 2514.45 922.56 2515.02 930.591 2515.02 930.591 2515.59 937.475 2515.59 937.475 2516.74 944.358 2516.74 944.358 2517.31 950.094 2517.88 950.094 2518.46 955.257 2518.46 955.831 2519.03 960.42 2519.03 960.42 2520.17 964.435 2520.17 965.009 2520.75 969.024 2520.75 969.024 2521.89 972.466 2521.89 972.466 2522.47 975.908 2523.04 975.908 2523.61 979.349 2523.61 979.349 2524.18 982.218 2524.18 982.218 2525.33 984.512 2525.33 984.512 2525.9 986.807 2526.48 987.38 2527.05 989.101 2527.05 989.101 2527.62 990.822 2527.62 990.822 2528.77 992.543 2528.77 992.543 2529.34 994.264 2529.91 994.264 2530.49 995.411 2530.49 995.411 2531.06 996.558 2531.06 996.558 2532.2 997.705 2532.2 997.705 2532.78 998.853 2533.35 998.853 2533.92 998.853 2533.92 998.853 2534.5 999.426 2534.5 999.426 2535.64 999.426 2535.64 999.426 2536.21 1000 2536.79 1000 2537.36 999.426 2537.36 999.426 2537.93 999.426 2538.5 999.426 2539.08 998.853 2539.08 998.853 2539.65 998.853 2539.65 998.853 2540.8 997.705 2540.8 997.705 2541.37 996.558 2541.94 996.558 2542.51 995.411 2542.51 995.411 2543.09 994.264 2543.09 994.264 2544.23 992.543 2544.23 992.543 2544.81 990.822 2545.38 990.822 2545.95 989.101 2545.95 989.101 2546.52 987.38 2546.52 986.807 2547.67 984.512 2547.67 984.512 2548.24 982.218 2548.82 982.218 2549.39 979.349 2549.39 979.349 2549.96 975.908 2549.96 975.908 2551.11 972.466 2551.11 972.466 2551.68 969.024 2552.25 969.024 2552.83 965.009 2552.83 964.435 2553.4 960.42 2553.4 960.42 2554.54 955.831 2554.54 955.257 2555.12 950.094 2555.12 950.094 2556.26 944.358 2556.26 944.358 2556.83 937.475 2557.41 937.475 2557.98 930.591 2557.98 930.591 2558.55 922.56 2558.55 922.56 2559.7 913.382 2559.7 913.382 2560.27 903.057 2560.84 903.057 2561.42 891.585 2561.42 891.011 2561.99 877.818 2561.99 877.244 2563.14 861.182 2563.14 860.609 2563.71 839.385 2564.28 839.385 2564.85 811.277 2564.85 811.277 2565.43 769.402 2565.43 768.829 2566 739" stroke="#0072BD" stroke-width="2.29167" stroke-linejoin="round" stroke-miterlimit="10" fill="none" fill-rule="evenodd"/><path d="M2568 739 2568 757.356 2568 758.503 2568.57 804.393 2568.57 804.393 2569.72 834.222 2569.72 834.796 2570.29 856.593 2570.29 856.593 2571.44 874.376 2571.44 874.376 2572.01 888.716 2572.58 888.716 2573.16 900.763 2573.16 901.336 2573.73 911.661 2573.73 911.661 2574.87 920.84 2574.87 920.84 2575.45 928.87 2576.02 928.87 2576.59 936.327 2576.59 936.327 2577.17 942.637 2577.17 943.211 2578.31 948.947 2578.31 948.947 2578.88 954.11 2579.46 954.683 2580.03 959.273 2580.03 959.273 2580.6 963.862 2580.6 963.862 2581.75 967.877 2581.75 967.877 2582.89 971.892 2582.89 971.892 2583.47 975.334 2583.47 975.334 2584.61 978.776 2584.61 978.776 2585.18 981.644 2585.18 981.644 2586.33 983.938 2586.33 983.938 2586.9 986.233 2586.9 986.233 2588.05 988.527 2588.05 989.101 2588.62 990.822 2588.62 990.822 2589.77 992.543 2589.77 992.543 2590.34 994.264 2590.34 994.264 2591.49 995.411 2591.49 995.411 2592.06 996.558 2592.06 996.558 2593.2 997.705 2593.2 997.705 2593.78 998.279 2593.78 998.279 2594.92 998.853 2594.92 998.853 2595.5 999.426 2595.5 999.426 2596.64 999.426 2596.64 999.426 2597.21 1000 2597.21 1000 2597.21 1000 2598.36 1000 2598.36 1000 2598.93 999.426 2598.93 999.426 2600.08 999.426 2600.08 999.426 2600.65 998.853 2600.65 998.853 2601.8 997.705 2601.8 997.705 2602.37 997.132 2602.37 996.558 2603.51 995.985 2603.51 995.985 2604.09 994.837 2604.09 994.264 2605.23 993.116 2605.23 993.116 2605.81 991.396 2605.81 991.396 2606.95 989.675 2606.95 989.675 2607.52 987.38 2607.52 987.38 2608.67 985.086 2608.67 985.086 2609.24 982.791 2609.24 982.791 2610.39 979.923 2610.39 979.923 2610.96 977.055 2610.96 977.055 2612.11 973.613 2612.11 973.613 2612.68 969.598 2612.68 969.598 2613.83 965.582 2613.83 965.582 2614.4 960.993 2614.4 960.993 2615.54 956.404 2615.54 956.404 2616.12 951.242 2616.12 951.242 2617.26 945.505 2617.26 945.505 2617.83 939.196 2618.41 939.196 2618.98 932.312 2618.98 932.312 2619.55 924.281 2619.55 924.281 2620.7 915.103 2620.7 915.103 2621.27 905.352 2621.84 905.352 2622.42 893.879 2622.42 893.879 2622.99 880.686 2622.99 880.112 2624.14 864.624 2624.14 864.051 2624.71 843.974 2625.28 843.974 2625.85 818.16 2625.85 817.587 2626.43 779.728 2626.43 779.154 2627 739" stroke="#0072BD" stroke-width="2.29167" stroke-linejoin="round" stroke-miterlimit="10" fill="none" fill-rule="evenodd"/><path d="M2629 739 2629 744.163 2629 745.31 2629.57 796.363 2629.57 797.51 2630.72 829.059 2630.72 829.633 2631.29 852.578 2631.29 852.578 2632.44 870.934 2632.44 871.508 2633.01 885.848 2633.58 886.422 2634.16 898.468 2634.16 898.468 2634.73 909.367 2634.73 909.367 2635.87 919.119 2635.87 919.119 2636.45 927.149 2637.02 927.723 2637.59 935.18 2637.59 935.18 2638.17 941.49 2638.17 942.064 2639.31 947.8 2639.31 947.8 2639.88 953.536 2640.46 953.536 2641.03 958.699 2641.03 958.699 2641.6 962.714 2641.6 963.288 2642.75 967.303 2642.75 967.303 2643.32 971.319 2643.89 971.319 2644.47 974.76 2644.47 974.76 2645.04 977.629 2645.04 978.202 2646.18 981.07 2646.18 981.07 2646.76 983.938 2646.76 983.938 2647.9 986.233 2647.9 986.233 2648.48 987.954 2649.05 988.527 2649.62 990.248 2649.62 990.248 2650.19 991.969 2650.19 991.969 2651.34 993.69 2651.34 993.69 2651.91 994.837 2652.49 994.837 2653.06 995.985 2653.06 996.558 2653.63 997.132 2653.63 997.132 2654.78 998.279 2654.78 998.279 2655.35 998.853 2655.92 998.853 2656.5 999.426 2656.5 999.426 2657.07 999.426 2657.07 999.426 2658.21 1000 2658.21 1000 2658.79 1000 2658.79 1000 2659.36 1000 2659.93 999.426 2659.93 999.426 2660.5 999.426 2660.5 999.426 2661.65 998.853 2661.65 998.853 2662.22 997.705 2662.8 997.705 2663.37 997.132 2663.37 997.132 2663.94 995.985 2663.94 995.985 2665.09 994.837 2665.09 994.837 2665.66 993.116 2665.66 993.116 2666.81 991.969 2666.81 991.396 2667.38 989.675 2667.95 989.675 2668.52 987.954 2668.52 987.954 2669.1 985.659 2669.1 985.659 2670.24 982.791 2670.24 982.791 2670.82 980.497 2671.39 980.497 2671.96 977.629 2671.96 977.629 2672.53 974.187 2672.53 974.187 2673.68 970.745 2673.68 970.745 2674.25 966.156 2674.83 966.156 2675.4 962.141 2675.4 962.141 2675.97 957.552 2675.97 957.552 2677.12 952.389 2677.12 952.389 2677.69 946.653 2678.26 946.653 2678.83 940.343 2678.83 940.343 2679.41 933.459 2679.41 933.459 2680.55 926.002 2680.55 926.002 2681.13 917.398 2681.13 917.398 2682.27 907.646 2682.27 907.073 2682.84 896.174 2683.42 896.174 2683.99 883.554 2683.99 882.98 2684.56 868.066 2684.56 867.492 2685.71 848.563 2685.71 847.989 2686.28 823.897 2686.85 823.323 2687.43 788.906 2687.43 788.332 2688 739" stroke="#0072BD" stroke-width="2.29167" stroke-linejoin="round" stroke-miterlimit="10" fill="none" fill-rule="evenodd"/><path d="M2690 739 2690.58 788.332 2690.58 788.906 2691.15 823.323 2691.15 823.897 2692.31 847.989 2692.31 848.563 2692.88 867.492 2693.46 868.066 2694.04 882.98 2694.04 883.554 2694.62 896.174 2694.62 896.174 2695.77 907.073 2695.77 907.646 2696.35 917.398 2696.92 917.398 2697.5 926.002 2697.5 926.002 2698.08 933.459 2698.08 933.459 2699.23 940.343 2699.23 940.343 2699.81 946.653 2699.81 946.653 2700.96 952.389 2700.96 952.389 2701.54 957.552 2702.12 957.552 2702.69 962.141 2702.69 962.141 2703.27 966.156 2703.27 966.156 2704.42 970.745 2704.42 970.745 2705 974.187 2705.58 974.187 2706.15 977.629 2706.15 977.629 2706.73 980.497 2706.73 980.497 2707.88 982.791 2707.88 982.791 2708.46 985.659 2709.04 985.659 2709.62 987.954 2709.62 987.954 2710.19 989.675 2710.19 989.675 2711.35 991.396 2711.35 991.969 2712.5 993.116 2712.5 993.116 2713.08 994.837 2713.08 994.837 2714.23 995.985 2714.23 995.985 2714.81 997.132 2714.81 997.132 2715.96 997.705 2715.96 997.705 2716.54 998.853 2716.54 998.853 2717.69 999.426 2717.69 999.426 2718.27 999.426 2718.27 999.426 2719.42 1000 2719.42 1000 2720 1000 2720 1000 2720 1000 2721.15 999.426 2721.15 999.426 2721.73 999.426 2721.73 999.426 2722.88 998.853 2722.88 998.853 2723.46 998.279 2723.46 998.279 2724.62 997.132 2724.62 997.132 2725.19 996.558 2725.19 995.985 2726.35 994.837 2726.35 994.837 2726.92 993.69 2726.92 993.69 2728.08 991.969 2728.08 991.969 2728.65 990.248 2728.65 990.248 2729.81 988.527 2729.81 987.954 2730.38 986.233 2730.38 986.233 2731.54 983.938 2731.54 983.938 2732.12 981.07 2732.12 981.07 2733.27 978.202 2733.27 977.629 2733.85 974.76 2733.85 974.76 2735 971.319 2735 971.319 2735.58 967.303 2735.58 967.303 2736.73 963.288 2736.73 962.714 2737.31 958.699 2737.31 958.699 2738.46 953.536 2738.46 953.536 2739.04 947.8 2739.04 947.8 2740.19 942.064 2740.19 941.49 2740.77 935.18 2740.77 935.18 2741.92 927.723 2741.92 927.149 2742.5 919.119 2742.5 919.119 2743.65 909.367 2743.65 909.367 2744.23 898.468 2744.23 898.468 2745.38 886.422 2745.38 885.848 2745.96 871.508 2745.96 870.934 2747.12 852.578 2747.12 852.578 2747.69 829.633 2748.27 829.059 2748.85 797.51 2748.85 796.363 2749.42 745.31 2749.42 744.163 2750 739" stroke="#0072BD" stroke-width="2.29167" stroke-linejoin="round" stroke-miterlimit="10" fill="none" fill-rule="evenodd"/><path d="M2752 739 2752.57 779.154 2752.57 779.728 2753.15 817.587 2753.15 818.16 2754.29 843.974 2754.29 843.974 2754.86 864.051 2755.44 864.624 2756.01 880.112 2756.01 880.686 2756.58 893.879 2756.58 893.879 2757.73 905.352 2757.73 905.352 2758.3 915.103 2758.3 915.103 2759.45 924.281 2759.45 924.281 2760.02 932.312 2760.59 932.312 2761.17 939.196 2761.17 939.196 2761.74 945.505 2761.74 945.505 2762.88 951.242 2762.88 951.242 2763.46 956.404 2764.03 956.404 2764.6 960.993 2764.6 960.993 2765.17 965.582 2765.17 965.582 2766.32 969.598 2766.32 969.598 2766.89 973.613 2767.47 973.613 2768.04 977.055 2768.04 977.055 2768.61 979.923 2768.61 979.923 2769.76 982.791 2769.76 982.791 2770.33 985.086 2770.9 985.086 2771.48 987.38 2771.48 987.38 2772.05 989.675 2772.05 989.675 2773.19 991.396 2773.19 991.396 2773.77 993.116 2774.34 993.116 2774.91 994.264 2774.91 994.837 2775.49 995.985 2775.49 995.985 2776.63 996.558 2776.63 997.132 2777.2 997.705 2777.2 997.705 2778.35 998.853 2778.35 998.853 2778.92 999.426 2779.5 999.426 2780.07 999.426 2780.07 999.426 2780.64 1000 2780.64 1000 2781.79 1000 2781.79 1000 2781.79 1000 2782.36 999.426 2782.93 999.426 2783.5 999.426 2783.5 999.426 2784.08 998.853 2784.08 998.853 2785.22 998.279 2785.22 998.279 2785.8 997.705 2786.37 997.705 2786.94 996.558 2786.94 996.558 2787.51 995.411 2787.51 995.411 2788.66 994.264 2788.66 994.264 2789.23 992.543 2789.81 992.543 2790.38 990.822 2790.38 990.822 2790.95 989.101 2790.95 988.527 2792.1 986.233 2792.1 986.233 2792.67 983.938 2792.67 983.938 2793.82 981.644 2793.82 981.644 2794.39 978.776 2794.96 978.776 2795.53 975.334 2795.53 975.334 2796.11 971.892 2796.11 971.892 2797.25 967.877 2797.25 967.877 2797.82 963.862 2798.4 963.862 2798.97 959.273 2798.97 959.273 2799.54 954.683 2799.54 954.11 2800.69 948.947 2800.69 948.947 2801.26 943.211 2801.83 942.637 2802.41 936.327 2802.41 936.327 2802.98 928.87 2802.98 928.87 2804.13 920.84 2804.13 920.84 2804.7 911.661 2805.27 911.661 2805.84 901.336 2805.84 900.763 2806.42 888.716 2806.42 888.716 2807.56 874.376 2807.56 874.376 2808.14 856.593 2808.71 856.593 2809.28 834.796 2809.28 834.222 2809.85 804.393 2809.85 804.393 2811 758.503 2811 757.356 2811 739" stroke="#0072BD" stroke-width="2.29167" stroke-linejoin="round" stroke-miterlimit="10" fill="none" fill-rule="evenodd"/><path d="M2813 739 2813 768.829 2813.57 769.402 2814.14 811.277 2814.14 811.277 2814.71 839.385 2814.71 839.385 2815.84 860.609 2815.84 861.182 2816.41 877.244 2816.98 877.818 2817.55 891.011 2817.55 891.585 2818.12 903.057 2818.12 903.057 2819.25 913.382 2819.25 913.382 2819.82 922.56 2820.39 922.56 2820.96 930.591 2820.96 930.591 2821.53 937.475 2821.53 937.475 2822.67 944.358 2822.67 944.358 2823.24 950.094 2823.8 950.094 2824.37 955.257 2824.37 955.831 2824.94 960.42 2824.94 960.42 2826.08 964.435 2826.08 965.009 2826.65 969.024 2826.65 969.024 2827.78 972.466 2827.78 972.466 2828.35 975.908 2828.92 975.908 2829.49 979.349 2829.49 979.349 2830.06 982.218 2830.06 982.218 2831.2 984.512 2831.2 984.512 2831.76 986.807 2832.33 987.38 2832.9 989.101 2832.9 989.101 2833.47 990.822 2833.47 990.822 2834.61 992.543 2834.61 992.543 2835.18 994.264 2835.75 994.264 2836.31 995.411 2836.31 995.411 2836.88 996.558 2836.88 996.558 2838.02 997.705 2838.02 997.705 2838.59 998.853 2839.16 998.853 2839.73 998.853 2839.73 998.853 2840.29 999.426 2840.29 999.426 2841.43 999.426 2841.43 999.426 2842 1000" stroke="#0072BD" stroke-width="2.29167" stroke-linejoin="round" stroke-miterlimit="10" fill="none" fill-rule="evenodd"/></g></svg>