<svg width="1545" height="133" xmlns="http://www.w3.org/2000/svg" xmlns:xlink="http://www.w3.org/1999/xlink" overflow="hidden"><defs><clipPath id="clip0"><rect x="1359" y="899" width="1545" height="133"/></clipPath></defs><g clip-path="url(#clip0)" transform="translate(-1359 -899)"><path d="M1360.5 1030.5 1360.5 1030.5 1361.07 1030.5 1361.07 1030.5 1361.65 1030.5 1362.22 1030.5 1362.22 1030.5 1362.79 1030.5 1362.79 1030.5 1363.36 1030.5 1363.36 1030.5 1363.94 1030.5 1363.94 1030.5 1364.51 1030.5 1365.08 1030.5 1365.08 1030.5 1365.65 1030.5 1365.65 1030.5 1366.23 1030.5 1366.23 1030.5 1366.8 1030.5 1367.37 1030.5 1367.37 1030.5 1367.94 1030.5 1367.94 1030.5 1368.52 1030.5 1369.09 1030.5 1369.09 1030.5 1369.66 1030.5 1369.66 1030.5 1370.23 1030.5 1370.81 1030.5 1370.81 1030.5 1371.38 1030.5 1371.38 1030.5 1371.95 1030.5 1371.95 1030.5 1372.52 1030.5 1372.52 1030.5 1373.1 1030.5 1373.1 1030.5 1373.67 1030.5 1374.24 1030.5 1374.24 1030.5 1374.82 1030.5 1374.82 1030.5 1375.39 1030.5 1375.96 1030.5 1375.96 1030.5 1376.53 1030.5 1376.53 1030.5 1377.11 1030.5 1377.68 1030.5 1377.68 1030.5 1378.25 1030.5 1378.25 1030.5 1378.82 1030.5 1379.4 1030.5 1379.4 1030.5 1379.97 1030.5 1379.97 1030.5 1380.54 1030.5 1380.54 1030.5 1381.11 1030.5 1381.11 1030.5 1381.69 1030.5 1381.69 1030.5 1382.26 1030.5 1382.83 1030.5 1382.83 1030.5 1383.4 1030.5 1383.4 1030.5 1383.98 1030.5 1384.55 1030.5 1384.55 1030.5 1385.12 1030.5 1385.12 1030.5 1385.69 1030.5 1386.27 1030.5 1386.27 1030.5 1386.84 1030.5 1386.84 1030.5 1387.41 1030.5 1387.41 1030.5 1387.98 1030.5 1388.56 1030.5 1388.56 1030.5 1389.13 1030.5 1389.13 1030.5 1389.7 1030.5 1389.7 1030.5 1390.28 1030.5 1390.85 1030.5 1390.85 1030.5 1391.42 1029.92 1391.42 1029.92 1391.99 1029.92 1392.57 1029.92 1392.57 1029.92 1393.14 1029.92 1393.14 1029.92 1393.71 1029.92 1394.28 1029.92 1394.28 1029.92 1394.86 1029.92 1394.86 1029.92 1395.43 1029.92 1395.43 1029.35 1396 1029.35 1396 1029.35 1396.57 1029.35 1397.15 1029.35 1397.15 1029.35 1397.72 1029.35 1397.72 1029.35 1398.29 1029.35 1398.29 1028.77 1398.86 1028.77 1399.44 1028.77 1399.44 1028.77 1400.01 1028.2 1400.01 1028.2 1400.58 1028.2 1401.15 1028.2 1401.15 1027.62 1401.73 1027.62 1401.73 1027.62 1402.3 1027.05 1402.87 1027.05 1402.87 1026.47 1403.44 1026.47 1403.44 1026.47 1404.02 1025.9 1404.02 1025.9 1404.59 1025.32 1404.59 1024.75 1405.16 1024.75 1405.16 1024.17 1405.74 1023.6 1406.31 1023.6 1406.31 1023.02 1406.88 1022.45 1406.88 1021.87 1407.45 1021.3 1408.03 1020.72 1408.03 1020.15 1408.6 1019.57 1408.6 1019 1409.17 1018.42 1409.74 1017.85 1409.74 1017.27 1410.32 1016.12 1410.32 1015.54 1410.89 1014.97 1411.46 1013.82 1411.46 1013.24 1412.03 1012.09 1412.03 1010.94 1412.61 1010.37 1412.61 1009.22 1413.18 1008.07 1413.18 1006.92 1413.75 1005.77 1413.75 1004.62 1414.32 1003.46 1414.9 1002.31 1414.9 1001.16 1415.47 1000.01 1415.47 998.288 1416.04 997.137 1416.61 995.412 1416.61 994.261 1417.19 992.535 1417.19 990.81 1417.76 989.659 1418.33 987.934 1418.33 986.208 1418.9 984.482 1418.9 982.757 1419.48 981.031 1419.48 979.305 1420.05 977.58 1420.62 975.854 1420.62 973.553 1421.2 971.828 1421.2 970.102 1421.77 967.801 1421.77 966.075 1422.34 963.774 1422.34 962.049 1422.91 959.748 1423.49 958.022 1423.49 955.721 1424.06 953.996 1424.06 951.695 1424.63 949.969 1425.2 947.668 1425.2 945.943 1425.78 943.642 1425.78 941.916 1426.35 939.615 1426.92 937.889 1426.92 936.164 1427.49 933.863 1427.49 932.137 1428.07 930.412 1428.07 928.686 1428.64 926.385 1428.64 924.659 1429.21 922.934 1429.78 921.208 1429.78 919.482 1430.36 918.332 1430.36 916.606 1430.93 914.881 1430.93 913.73 1431.5 912.58 1432.07 910.854 1432.07 909.704 1432.65 908.553 1432.65 907.403 1433.22 906.252 1433.79 905.677 1433.79 904.527 1434.36 903.951 1434.94 903.376 1434.94 902.801 1435.51 901.651 1435.51 901.651 1436.08 901.075 1436.08 900.5 1436.66 900.5 1436.66 900.5 1437.23 900.5 1437.23 900.5 1437.8 900.5 1438.37 900.5 1438.37 901.075 1438.95 901.651 1438.95 901.651 1439.52 902.801 1440.09 903.376 1440.09 903.951 1440.66 904.527 1440.66 905.677 1441.24 906.252 1441.81 907.403 1441.81 908.553 1442.38 909.704 1442.38 910.854 1442.95 912.58 1443.53 913.73 1443.53 914.881 1444.1 916.606 1444.1 918.332 1444.67 919.482 1444.67 921.208 1445.24 922.934 1445.24 924.659 1445.82 926.385 1445.82 928.686 1446.39 930.412 1446.96 932.137 1446.96 933.863 1447.53 936.164 1447.53 937.889 1448.11 939.615 1448.68 941.916 1448.68 943.642 1449.25 945.943 1449.25 947.668 1449.83 949.969 1450.4 951.695 1450.4 953.996 1450.97 955.721 1450.97 958.022 1451.54 959.748 1451.54 962.049 1452.12 963.774 1452.69 966.075 1452.69 967.801 1453.26 970.102 1453.26 971.828 1453.83 973.553 1453.83 975.854 1454.41 977.58 1454.41 979.305 1454.98 981.031 1455.55 982.757 1455.55 984.482 1456.12 986.208 1456.12 987.934 1456.7 989.659 1457.27 990.81 1457.27 992.535 1457.84 994.261 1457.84 995.412 1458.41 997.137 1458.99 998.288 1458.99 1000.01 1459.56 1001.16 1459.56 1002.31 1460.13 1003.46 1460.13 1004.62 1460.7 1005.77 1460.7 1006.92 1461.28 1008.07 1461.85 1009.22 1461.85 1010.37 1462.42 1010.94 1462.42 1012.09 1462.99 1013.24 1462.99 1013.82 1463.57 1014.97 1464.14 1015.54 1464.14 1016.12 1464.71 1017.27 1464.71 1017.85 1465.29 1018.42 1465.86 1019 1465.86 1019.57 1466.43 1020.15 1466.43 1020.72 1467 1021.3 1467.58 1021.87 1467.58 1022.45 1468.15 1023.02 1468.15 1023.6 1468.72 1023.6 1468.72 1024.17 1469.29 1024.75 1469.29 1024.75 1469.87 1025.32 1469.87 1025.9 1470.44 1025.9 1471.01 1026.47 1471.01 1026.47 1471.58 1026.47 1471.58 1027.05 1472.16 1027.05 1472.73 1027.62 1472.73 1027.62 1473.3 1027.62 1473.3 1028.2 1473.87 1028.2 1474.45 1028.2 1474.45 1028.2 1475.02 1028.77 1475.02 1028.77 1475.59 1028.77 1476.16 1028.77 1476.16 1029.35 1476.74 1029.35 1476.74 1029.35 1477.31 1029.35 1477.31 1029.35 1477.88 1029.35 1477.88 1029.35 1478.45 1029.35 1479.03 1029.35 1479.03 1029.92 1479.6 1029.92 1479.6 1029.92 1480.17 1029.92 1480.75 1029.92 1480.75 1029.92 1481.32 1029.92 1481.32 1029.92 1481.89 1029.92 1482.46 1029.92 1482.46 1029.92 1483.04 1029.92 1483.04 1029.92 1483.61 1030.5 1483.61 1030.5 1484.18 1030.5 1484.75 1030.5 1484.75 1030.5 1485.33 1030.5 1485.33 1030.5 1485.9 1030.5 1485.9 1030.5 1486.47 1030.5 1486.47 1030.5 1487.04 1030.5 1487.62 1030.5 1487.62 1030.5 1488.19 1030.5 1488.19 1030.5 1488.76 1030.5 1489.33 1030.5 1489.33 1030.5 1489.91 1030.5 1489.91 1030.5 1490.48 1030.5 1491.05 1030.5 1491.05 1030.5 1491.62 1030.5 1491.62 1030.5 1492.2 1030.5 1492.2 1030.5 1492.77 1030.5 1492.77 1030.5 1493.34 1030.5 1493.91 1030.5 1493.91 1030.5 1494.49 1030.5 1494.49 1030.5 1495.06 1030.5 1495.06 1030.5 1495.63 1030.5 1496.21 1030.5 1496.21 1030.5 1496.78 1030.5 1496.78 1030.5 1497.35 1030.5 1497.92 1030.5 1497.92 1030.5 1498.5 1030.5 1498.5 1030.5 1499.07 1030.5 1499.64 1030.5 1499.64 1030.5 1500.21 1030.5 1500.21 1030.5 1500.79 1030.5 1500.79 1030.5 1501.36 1030.5 1501.36 1030.5 1501.93 1030.5 1501.93 1030.5 1502.5 1030.5 1503.08 1030.5 1503.08 1030.5 1503.65 1030.5 1503.65 1030.5 1504.22 1030.5 1504.79 1030.5 1504.79 1030.5 1505.37 1030.5 1505.37 1030.5 1505.94 1030.5 1506.51 1030.5 1506.51 1030.5 1507.08 1030.5 1507.08 1030.5 1507.66 1030.5 1508.23 1030.5 1508.23 1030.5 1508.8 1030.5 1508.8 1030.5 1509.38 1030.5 1509.38 1030.5 1509.95 1030.5 1509.95 1030.5 1510.52 1030.5 1510.52 1030.5 1511.09 1030.5 1511.67 1030.5 1511.67 1030.5 1512.24 1030.5 1512.24 1030.5 1512.81 1030.5 1513.38 1030.5 1513.38 1030.5 1513.96 1030.5 1513.96 1030.5 1514.53 1030.5 1515.1 1030.5 1515.1 1030.5 1515.67 1030.5 1515.67 1030.5 1516.25 1030.5 1516.82 1030.5 1516.82 1030.5 1517.39 1030.5 1517.39 1030.5 1517.96 1030.5 1517.96 1030.5 1518.54 1030.5 1518.54 1030.5 1519.11 1030.5 1519.11 1030.5 1519.68 1030.5 1520.25 1030.5 1520.25 1030.5 1520.83 1030.5 1520.83 1030.5 1521.4 1030.5 1521.97 1030.5 1521.97 1030.5 1522.54 1030.5 1523.12 1030.5 1523.12 1030.5 1523.69 1030.5 1523.69 1030.5 1524.26 1030.5 1524.26 1030.5 1524.84 1030.5 1524.84 1030.5 1525.41 1030.5 1525.98 1030.5 1525.98 1030.5 1526.55 1030.5 1526.55 1030.5 1527.13 1030.5 1527.13 1030.5 1527.7 1030.5 1528.27 1030.5 1528.27 1030.5 1528.84 1030.5 1528.84 1030.5 1529.42 1030.5 1529.99 1030.5 1529.99 1030.5 1530.56 1030.5 1530.56 1030.5 1531.13 1030.5 1531.71 1030.5 1531.71 1030.5 1532.28 1030.5 1532.28 1030.5 1532.85 1030.5 1532.85 1030.5 1533.42 1030.5 1533.42 1030.5 1534 1030.5 1534 1030.5 1534.57 1030.5 1535.14 1030.5 1535.14 1030.5 1535.71 1030.5 1535.71 1030.5 1536.29 1030.5 1536.86 1030.5 1536.86 1030.5 1537.43 1030.5 1537.43 1030.5 1538 1030.5 1538.58 1030.5 1538.58 1030.5 1539.15 1030.5 1539.15 1030.5 1539.72 1030.5 1540.3 1030.5 1540.3 1030.5 1540.87 1030.5 1540.87 1030.5 1541.44 1030.5 1541.44 1030.5 1542.01 1030.5 1542.01 1030.5 1542.59 1030.5 1542.59 1030.5 1543.16 1030.5 1543.73 1030.5 1543.73 1030.5 1544.3 1030.5 1544.3 1030.5 1544.88 1030.5 1545.45 1030.5 1545.45 1029.92 1546.02 1029.92 1546.02 1029.92 1546.59 1029.92 1547.17 1029.92 1547.17 1029.92 1547.74 1029.92 1547.74 1029.92 1548.31 1029.92 1548.88 1029.92 1548.88 1029.92 1549.46 1029.92 1549.46 1029.92 1550.03 1029.35 1550.03 1029.35 1550.6 1029.35 1550.6 1029.35 1551.17 1029.35 1551.17 1029.35 1551.75 1029.35 1552.32 1029.35 1552.32 1029.35 1552.89 1028.77 1552.89 1028.77 1553.46 1028.77 1554.04 1028.77 1554.04 1028.2 1554.61 1028.2 1554.61 1028.2 1555.18 1028.2 1555.76 1027.62 1555.76 1027.62 1556.33 1027.62 1556.33 1027.05 1556.9 1027.05 1556.9 1026.47 1557.47 1026.47 1558.05 1026.47 1558.05 1025.9 1558.62 1025.9 1558.62 1025.32 1559.19 1024.75 1559.19 1024.75 1559.76 1024.17 1559.76 1023.6 1560.34 1023.6 1560.91 1023.02 1560.91 1022.45 1561.48 1021.87 1561.48 1021.3 1562.05 1020.72 1562.63 1020.15 1562.63 1019.57 1563.2 1019 1563.2 1018.42 1563.77 1017.85 1564.34 1017.27 1564.34 1016.12 1564.92 1015.54 1564.92 1014.97 1565.49 1013.82 1565.49 1013.24 1566.06 1012.09 1566.06 1010.94 1566.63 1010.37 1567.21 1009.22 1567.21 1008.07 1567.78 1006.92 1567.78 1005.77 1568.35 1004.62 1568.92 1003.46 1568.92 1002.31 1569.5 1001.16 1569.5 1000.01 1570.07 998.288 1570.64 997.137 1570.64 995.412 1571.22 994.261 1571.22 992.535 1571.79 990.81 1572.36 989.659 1572.36 987.934 1572.93 986.208 1572.93 984.482 1573.51 982.757 1573.51 981.031 1574.08 979.305 1574.08 977.58 1574.65 975.854 1574.65 973.553 1575.22 971.828 1575.8 970.102 1575.8 967.801 1576.37 966.075 1576.37 963.774 1576.94 962.049 1577.51 959.748 1577.51 958.022 1578.09 955.721 1578.09 953.996 1578.66 951.695 1579.23 949.969 1579.23 947.668 1579.8 945.943 1579.8 943.642 1580.38 941.916 1580.95 939.615 1580.95 937.889 1581.52 936.164 1581.52 933.863 1582.09 932.137 1582.09 930.412 1582.67 928.686 1582.67 926.385 1583.24 924.659 1583.24 922.934 1583.81 921.208 1584.39 919.482 1584.39 918.332 1584.96 916.606 1584.96 914.881 1585.53 913.73 1586.1 912.58 1586.1 910.854 1586.68 909.704 1586.68 908.553 1587.25 907.403 1587.82 906.252 1587.82 905.677 1588.39 904.527 1588.39 903.951 1588.97 903.376 1588.97 902.801 1589.54 901.651 1590.11 901.651 1590.11 901.075 1590.68 900.5 1590.68 900.5 1591.26 900.5 1591.26 900.5 1591.83 900.5 1591.83 900.5 1592.4 900.5 1592.97 901.075 1592.97 901.651 1593.55 901.651 1593.55 902.801 1594.12 903.376 1594.69 903.951 1594.69 904.527 1595.26 905.677 1595.26 906.252 1595.84 907.403 1596.41 908.553 1596.41 909.704 1596.98 910.854 1596.98 912.58 1597.55 913.73 1597.55 914.881 1598.13 916.606 1598.13 918.332 1598.7 919.482 1599.27 921.208 1599.27 922.934 1599.85 924.659 1599.85 926.385 1600.42 928.686 1600.42 930.412 1600.99 932.137 1601.56 933.863 1601.56 936.164 1602.14 937.889 1602.14 939.615 1602.71 941.916 1603.28 943.642 1603.28 945.943 1603.85 947.668 1603.85 949.969 1604.43 951.695 1605 953.996 1605 955.721 1605.57 958.022 1605.57 959.748 1606.14 962.049 1606.14 963.774 1606.72 966.075 1606.72 967.801 1607.29 970.102 1607.29 971.828 1607.86 973.553 1608.43 975.854 1608.43 977.58 1609.01 979.305 1609.58 981.031 1609.58 982.757 1610.15 984.482 1610.15 986.208 1610.72 987.934 1611.3 989.659 1611.3 990.81 1611.87 992.535 1611.87 994.261 1612.44 995.412 1613.01 997.137 1613.01 998.288 1613.59 1000.01 1613.59 1001.16 1614.16 1002.31 1614.16 1003.46 1614.73 1004.62 1614.73 1005.77 1615.31 1006.92 1615.31 1008.07 1615.88 1009.22 1616.45 1010.37 1616.45 1010.94 1617.02 1012.09 1617.02 1013.24 1617.6 1013.82 1618.17 1014.97 1618.17 1015.54 1618.74 1016.12 1618.74 1017.27 1619.31 1017.85 1619.89 1018.42 1619.89 1019 1620.46 1019.57 1620.46 1020.15 1621.03 1020.72 1621.03 1021.3 1621.6 1021.87 1622.18 1022.45 1622.18 1023.02 1622.75 1023.6 1622.75 1023.6 1623.32 1024.17 1623.32 1024.75 1623.89 1024.75 1623.89 1025.32 1624.47 1025.9 1625.04 1025.9 1625.04 1026.47 1625.61 1026.47 1625.61 1026.47 1626.18 1027.05 1626.76 1027.05 1626.76 1027.62 1627.33 1027.62 1627.33 1027.62 1627.9 1028.2 1628.47 1028.2 1628.47 1028.2 1629.05 1028.2 1629.05 1028.77 1629.62 1028.77 1629.62 1028.77 1630.19 1028.77 1630.19 1029.35 1630.77 1029.35 1631.34 1029.35 1631.34 1029.35 1631.91 1029.35 1631.91 1029.35 1632.48 1029.35 1632.48 1029.35 1633.06 1029.35 1633.63 1029.92 1633.63 1029.92 1634.2 1029.92 1634.2 1029.92 1634.77 1029.92 1635.35 1029.92 1635.35 1029.92 1635.92 1029.92 1635.92 1029.92 1636.49 1029.92 1637.06 1029.92 1637.06 1029.92 1637.64 1029.92 1637.64 1030.5 1638.21 1030.5 1638.21 1030.5 1638.78 1030.5 1638.78 1030.5 1639.35 1030.5 1639.35 1030.5 1639.93 1030.5 1640.5 1030.5 1640.5 1030.5 1641.07 1030.5 1641.07 1030.5 1641.64 1030.5 1642.22 1030.5 1642.22 1030.5 1642.79 1030.5 1642.79 1030.5 1643.36 1030.5 1643.93 1030.5 1643.93 1030.5 1644.51 1030.5 1644.51 1030.5 1645.08 1030.5 1645.65 1030.5 1645.65 1030.5 1646.23 1030.5 1646.23 1030.5 1646.8 1030.5 1646.8 1030.5 1647.37 1030.5 1647.37 1030.5 1647.94 1030.5 1647.94 1030.5 1648.52 1030.5 1649.09 1030.5 1649.09 1030.5 1649.66 1030.5 1649.66 1030.5 1650.23 1030.5 1650.81 1030.5 1650.81 1030.5 1651.38 1030.5 1651.38 1030.5 1651.95 1030.5 1652.52 1030.5 1652.52 1030.5 1653.1 1030.5 1653.1 1030.5 1653.67 1030.5 1654.24 1030.5 1654.24 1030.5 1654.81 1030.5 1654.81 1030.5 1655.39 1030.5 1655.39 1030.5 1655.96 1030.5 1655.96 1030.5 1656.53 1030.5 1657.1 1030.5 1657.1 1030.5 1657.68 1030.5 1657.68 1030.5 1658.25 1030.5 1658.82 1030.5 1658.82 1030.5 1659.4 1030.5 1659.4 1030.5 1659.97 1030.5 1660.54 1030.5 1660.54 1030.5 1661.11 1030.5 1661.11 1030.5 1661.69 1030.5 1661.69 1030.5 1662.26 1030.5 1662.26 1030.5 1662.83 1030.5 1663.4 1030.5 1663.4 1030.5 1663.98 1030.5 1663.98 1030.5 1664.55 1030.5 1664.55 1030.5 1665.12 1030.5 1665.69 1030.5 1665.69 1030.5 1666.27 1030.5 1666.27 1030.5 1666.84 1030.5 1667.41 1030.5 1667.41 1030.5 1667.98 1030.5 1667.98 1030.5 1668.56 1030.5 1669.13 1030.5 1669.13 1030.5 1669.7 1030.5 1669.7 1030.5 1670.27 1030.5 1670.27 1030.5 1670.85 1030.5 1670.85 1030.5 1671.42 1030.5 1671.42 1030.5 1671.99 1030.5 1672.56 1030.5 1672.56 1030.5 1673.14 1030.5 1673.14 1030.5 1673.71 1030.5 1674.28 1030.5 1674.28 1030.5 1674.86 1030.5 1674.86 1030.5 1675.43 1030.5 1676 1030.5 1676 1030.5 1676.57 1030.5 1676.57 1030.5 1677.15 1030.5 1677.72 1030.5 1677.72 1030.5 1678.29 1030.5 1678.29 1030.5 1678.86 1030.5 1678.86 1030.5 1679.44 1030.5 1679.44 1030.5 1680.01 1030.5 1680.01 1030.5 1680.58 1030.5 1681.15 1030.5 1681.15 1030.5 1681.73 1030.5 1681.73 1030.5 1682.3 1030.5 1682.87 1030.5 1682.87 1030.5 1683.44 1030.5 1683.44 1030.5 1684.02 1030.5 1684.59 1030.5 1684.59 1030.5 1685.16 1030.5 1685.16 1030.5 1685.73 1030.5 1686.31 1030.5 1686.31 1030.5 1686.88 1030.5 1686.88 1030.5 1687.45 1030.5 1687.45 1030.5 1688.02 1030.5 1688.02 1030.5 1688.6 1030.5 1688.6 1030.5 1689.17 1030.5 1689.74 1030.5 1689.74 1030.5 1690.32 1030.5 1690.32 1030.5 1690.89 1030.5 1691.46 1030.5 1691.46 1030.5 1692.03 1030.5 1692.03 1030.5 1692.61 1030.5 1693.18 1030.5 1693.18 1030.5 1693.75 1030.5 1693.75 1030.5 1694.32 1030.5 1694.32 1030.5 1694.9 1030.5 1695.47 1030.5 1695.47 1030.5 1696.04 1030.5 1696.04 1030.5 1696.61 1030.5 1696.61 1030.5 1697.19 1030.5 1697.76 1030.5 1697.76 1030.5 1698.33 1030.5 1698.33 1030.5 1698.9 1030.5 1699.48 1030.5 1699.48 1030.5 1700.05 1029.92 1700.05 1029.92 1700.62 1029.92 1701.19 1029.92 1701.19 1029.92 1701.77 1029.92 1701.77 1029.92 1702.34 1029.92 1702.34 1029.92 1702.91 1029.92 1702.91 1029.92 1703.48 1029.92 1703.48 1029.92 1704.06 1029.35 1704.63 1029.35 1704.63 1029.35 1705.2 1029.35 1705.2 1029.35 1705.78 1029.35 1706.35 1029.35 1706.35 1029.35 1706.92 1029.35 1706.92 1028.77 1707.49 1028.77 1708.07 1028.77 1708.07 1028.77 1708.64 1028.2 1708.64 1028.2 1709.21 1028.2 1709.78 1028.2 1709.78 1027.62 1710.36 1027.62 1710.36 1027.62 1710.93 1027.05 1710.93 1027.05 1711.5 1026.47 1711.5 1026.47 1712.07 1026.47 1712.07 1025.9 1712.65 1025.9 1713.22 1025.32 1713.22 1024.75 1713.79 1024.75 1713.79 1024.17 1714.36 1023.6 1714.94 1023.6 1714.94 1023.02 1715.51 1022.45 1715.51 1021.87 1716.08 1021.3 1716.65 1020.72 1716.65 1020.15 1717.23 1019.57 1717.23 1019 1717.8 1018.42 1717.8 1017.85 1718.37 1017.27 1718.94 1016.12 1718.94 1015.54 1719.52 1014.97 1719.52 1013.82 1720.09 1013.24 1720.09 1012.09 1720.66 1010.94 1720.66 1010.37 1721.24 1009.22 1721.81 1008.07 1721.81 1006.92 1722.38 1005.77 1722.38 1004.62 1722.95 1003.46 1723.53 1002.31 1723.53 1001.16 1724.1 1000.01 1724.1 998.288 1724.67 997.137 1725.24 995.412 1725.24 994.261 1725.82 992.535 1725.82 990.81 1726.39 989.659 1726.39 987.934 1726.96 986.208 1727.53 984.482 1727.53 982.757 1728.11 981.031 1728.11 979.305 1728.68 977.58 1728.68 975.854 1729.25 973.553 1729.25 971.828 1729.82 970.102 1730.4 967.801 1730.4 966.075 1730.97 963.774 1730.97 962.049 1731.54 959.748 1732.11 958.022 1732.11 955.721 1732.69 953.996 1732.69 951.695 1733.26 949.969 1733.83 947.668 1733.83 945.943 1734.41 943.642 1734.41 941.916 1734.98 939.615 1734.98 937.889 1735.55 936.164 1735.55 933.863 1736.12 932.137 1736.7 930.412 1736.7 928.686 1737.27 926.385 1737.27 924.659 1737.84 922.934 1737.84 921.208 1738.41 919.482 1738.99 918.332 1738.99 916.606 1739.56 914.881 1739.56 913.73 1740.13 912.58 1740.7 910.854 1740.7 909.704 1741.28 908.553 1741.85 907.403 1741.85 906.252 1742.42 905.677 1742.42 904.527 1742.99 903.951 1742.99 903.376 1743.57 902.801 1743.57 901.651 1744.14 901.651 1744.14 901.075 1744.71 900.5 1745.28 900.5 1745.28 900.5 1745.86 900.5 1745.86 900.5 1746.43 900.5 1747 900.5 1747 901.075 1747.57 901.651 1747.57 901.651 1748.15 902.801 1748.72 903.376 1748.72 903.951 1749.29 904.527 1749.29 905.677 1749.87 906.252 1749.87 907.403 1750.44 908.553 1751.01 909.704 1751.01 910.854 1751.58 912.58 1751.58 913.73 1752.16 914.881 1752.16 916.606 1752.73 918.332 1752.73 919.482 1753.3 921.208 1753.87 922.934 1753.87 924.659 1754.45 926.385 1754.45 928.686 1755.02 930.412 1755.59 932.137 1755.59 933.863 1756.16 936.164 1756.16 937.889 1756.74 939.615 1757.31 941.916 1757.31 943.642 1757.88 945.943 1757.88 947.668 1758.45 949.969 1758.45 951.695 1759.03 953.996 1759.03 955.721 1759.6 958.022 1760.17 959.748 1760.17 962.049 1760.74 963.774 1760.74 966.075 1761.32 967.801 1761.32 970.102 1761.89 971.828 1762.46 973.553 1762.46 975.854 1763.03 977.58 1763.03 979.305 1763.61 981.031 1764.18 982.757 1764.18 984.482 1764.75 986.208 1764.75 987.934 1765.33 989.659 1765.9 990.81 1765.9 992.535 1766.47 994.261 1766.47 995.412 1767.04 997.137 1767.04 998.288 1767.62 1000.01 1767.62 1001.16 1768.19 1002.31 1768.76 1003.46 1768.76 1004.62 1769.33 1005.77 1769.33 1006.92 1769.91 1008.07 1769.91 1009.22 1770.48 1010.37 1771.05 1010.94 1771.05 1012.09 1771.62 1013.24 1771.62 1013.82 1772.2 1014.97 1772.77 1015.54 1772.77 1016.12 1773.34 1017.27 1773.34 1017.85 1773.91 1018.42 1774.49 1019 1774.49 1019.57 1775.06 1020.15 1775.06 1020.72 1775.63 1021.3 1775.63 1021.87 1776.2 1022.45 1776.2 1023.02 1776.78 1023.6 1776.78 1023.6 1777.35 1024.17 1777.92 1024.75 1777.92 1024.75 1778.49 1025.32 1778.49 1025.9 1779.07 1025.9 1779.64 1026.47 1779.64 1026.47 1780.21 1026.47 1780.21 1027.05 1780.79 1027.05 1781.36 1027.62 1781.36 1027.62 1781.93 1027.62 1781.93 1028.2 1782.5 1028.2 1783.08 1028.2 1783.08 1028.2 1783.65 1028.77 1783.65 1028.77 1784.22 1028.77 1784.22 1028.77 1784.79 1029.35 1784.79 1029.35 1785.37 1029.35 1785.94 1029.35 1785.94 1029.35 1786.51 1029.35 1786.51 1029.35 1787.08 1029.35 1787.66 1029.35 1787.66 1029.92 1788.23 1029.92 1788.23 1029.92 1788.8 1029.92 1789.37 1029.92 1789.37 1029.92 1789.95 1029.92 1789.95 1029.92 1790.52 1029.92 1790.52 1029.92 1791.09 1029.92 1791.09 1029.92 1791.66 1029.92 1792.24 1030.5 1792.24 1030.5 1792.81 1030.5 1792.81 1030.5 1793.38 1030.5 1793.38 1030.5 1793.96 1030.5 1794.53 1030.5 1794.53 1030.5 1795.1 1030.5 1795.1 1030.5 1795.67 1030.5 1796.25 1030.5 1796.25 1030.5 1796.82 1030.5 1796.82 1030.5 1797.39 1030.5 1797.96 1030.5 1797.96 1030.5 1798.54 1030.5 1798.54 1030.5 1799.11 1030.5 1799.11 1030.5 1799.68 1030.5 1799.68 1030.5 1800.25 1030.5 1800.25 1030.5 1800.83 1030.5 1801.4 1030.5 1801.4 1030.5 1801.97 1030.5 1801.97 1030.5 1802.54 1030.5 1803.12 1030.5 1803.12 1030.5 1803.69 1030.5 1803.69 1030.5 1804.26 1030.5 1804.83 1030.5 1804.83 1030.5 1805.41 1030.5 1805.41 1030.5 1805.98 1030.5 1806.55 1030.5 1806.55 1030.5 1807.12 1030.5 1807.12 1030.5 1807.7 1030.5 1807.7 1030.5 1808.27 1030.5 1808.27 1030.5 1808.84 1030.5 1808.84 1030.5 1809.42 1030.5 1809.99 1030.5 1809.99 1030.5 1810.56 1030.5 1810.56 1030.5 1811.13 1030.5 1811.71 1030.5 1811.71 1030.5 1812.28 1030.5 1812.28 1030.5 1812.85 1030.5 1813.42 1030.5 1813.42 1030.5 1814 1030.5 1814 1030.5 1814.57 1030.5 1815.14 1030.5 1815.14 1030.5 1815.71 1030.5 1815.71 1030.5 1816.29 1030.5 1816.29 1030.5 1816.86 1030.5 1816.86 1030.5 1817.43 1030.5 1817.43 1030.5 1818 1030.5 1818.58 1030.5 1818.58 1030.5 1819.15 1030.5 1819.15 1030.5 1819.72 1030.5 1820.29 1030.5 1820.29 1030.5 1820.87 1030.5 1820.87 1030.5 1821.44 1030.5 1822.01 1030.5 1822.01 1030.5 1822.58 1030.5 1822.58 1030.5 1823.16 1030.5 1823.16 1030.5 1823.73 1030.5 1824.3 1030.5 1824.3 1030.5 1824.88 1030.5 1824.88 1030.5 1825.45 1030.5 1825.45 1030.5 1826.02 1030.5 1826.02 1030.5 1826.59 1030.5 1827.17 1030.5 1827.17 1030.5 1827.74 1030.5 1828.31 1030.5 1828.31 1030.5 1828.88 1030.5 1828.88 1030.5 1829.46 1030.5 1830.03 1030.5 1830.03 1030.5 1830.6 1030.5 1830.6 1030.5 1831.17 1030.5 1831.17 1030.5 1831.75 1030.5 1831.75 1030.5 1832.32 1030.5 1832.32 1030.5 1832.89 1030.5 1833.46 1030.5 1833.46 1030.5 1834.04 1030.5 1834.04 1030.5 1834.61 1030.5 1835.18 1030.5 1835.18 1030.5 1835.75 1030.5 1835.75 1030.5 1836.33 1030.5 1836.9 1030.5 1836.9 1030.5 1837.47 1030.5 1837.47 1030.5 1838.04 1030.5 1838.62 1030.5 1838.62 1030.5 1839.19 1030.5 1839.19 1030.5 1839.76 1030.5 1839.76 1030.5 1840.34 1030.5 1840.34 1030.5 1840.91 1030.5 1840.91 1030.5 1841.48 1030.5 1842.05 1030.5 1842.05 1030.5 1842.63 1030.5 1842.63 1030.5 1843.2 1030.5 1843.77 1030.5 1843.77 1030.5 1844.34 1030.5 1844.34 1030.5 1844.92 1030.5 1845.49 1030.5 1845.49 1030.5 1846.06 1030.5 1846.06 1030.5 1846.63 1030.5 1847.21 1030.5 1847.21 1030.5 1847.78 1030.5 1847.78 1030.5 1848.35 1030.5 1848.35 1030.5 1848.92 1030.5 1848.92 1030.5 1849.5 1030.5 1849.5 1030.5 1850.07 1030.5 1850.64 1030.5 1850.64 1030.5 1851.21 1030.5 1851.21 1030.5 1851.79 1030.5 1852.36 1030.5 1852.36 1030.5 1852.93 1030.5 1852.93 1030.5 1853.51 1030.5 1854.08 1030.5 1854.08 1029.92 1854.65 1029.92 1854.65 1029.92 1855.22 1029.92 1855.22 1029.92 1855.8 1029.92 1856.37 1029.92 1856.37 1029.92 1856.94 1029.92 1856.94 1029.92 1857.51 1029.92 1857.51 1029.92 1858.09 1029.92 1858.09 1029.35 1858.66 1029.35 1859.23 1029.35 1859.23 1029.35 1859.8 1029.35 1859.8 1029.35 1860.38 1029.35 1860.95 1029.35 1860.95 1029.35 1861.52 1028.77 1861.52 1028.77 1862.09 1028.77 1862.67 1028.77 1862.67 1028.2 1863.24 1028.2 1863.24 1028.2 1863.81 1028.2 1863.81 1027.62 1864.38 1027.62 1864.38 1027.62 1864.96 1027.05 1865.53 1027.05 1865.53 1026.47 1866.1 1026.47 1866.1 1026.47 1866.67 1025.9 1866.67 1025.9 1867.25 1025.32 1867.82 1024.75 1867.82 1024.75 1868.39 1024.17 1868.39 1023.6 1868.97 1023.6 1869.54 1023.02 1869.54 1022.45 1870.11 1021.87 1870.11 1021.3 1870.68 1020.72 1871.26 1020.15 1871.26 1019.57 1871.83 1019 1871.83 1018.42 1872.4 1017.85 1872.4 1017.27 1872.97 1016.12 1872.97 1015.54 1873.55 1014.97 1874.12 1013.82 1874.12 1013.24 1874.69 1012.09 1874.69 1010.94 1875.26 1010.37 1875.84 1009.22 1875.84 1008.07 1876.41 1006.92 1876.41 1005.77 1876.98 1004.62 1877.55 1003.46 1877.55 1002.31 1878.13 1001.16 1878.13 1000.01 1878.7 998.288 1879.27 997.137 1879.27 995.412 1879.84 994.261 1879.84 992.535 1880.42 990.81 1880.42 989.659 1880.99 987.934 1880.99 986.208 1881.56 984.482 1881.56 982.757 1882.13 981.031 1882.71 979.305 1882.71 977.58 1883.28 975.854 1883.28 973.553 1883.85 971.828 1884.43 970.102 1884.43 967.801 1885 966.075 1885 963.774 1885.57 962.049 1886.14 959.748 1886.14 958.022 1886.72 955.721 1886.72 953.996 1887.29 951.695 1887.29 949.969 1887.86 947.668 1888.43 945.943 1888.43 943.642 1889.01 941.916 1889.01 939.615 1889.58 937.889 1889.58 936.164 1890.15 933.863 1890.15 932.137 1890.72 930.412 1891.3 928.686 1891.3 926.385 1891.87 924.659 1891.87 922.934 1892.44 921.208 1893.01 919.482 1893.01 918.332 1893.59 916.606 1893.59 914.881 1894.16 913.73 1894.73 912.58 1894.73 910.854 1895.3 909.704 1895.3 908.553 1895.88 907.403 1895.88 906.252 1896.45 905.677 1896.45 904.527 1897.02 903.951 1897.59 903.376 1897.59 902.801 1898.17 901.651 1898.17 901.651 1898.74 901.075 1898.74 900.5 1899.31 900.5 1899.89 900.5 1899.89 900.5 1900.46 900.5 1900.46 900.5 1901.03 900.5 1901.6 901.075 1901.6 901.651 1902.18 901.651 1902.18 902.801 1902.75 903.376 1903.32 903.951 1903.32 904.527 1903.89 905.677 1903.89 906.252 1904.47 907.403 1904.47 908.553 1905.04 909.704 1905.04 910.854 1905.61 912.58 1905.61 913.73 1906.18 914.881 1906.76 916.606 1906.76 918.332 1907.33 919.482 1907.33 921.208 1907.9 922.934 1908.47 924.659 1908.47 926.385 1909.05 928.686 1909.05 930.412 1909.62 932.137 1910.19 933.863 1910.19 936.164 1910.76 937.889 1910.76 939.615 1911.34 941.916 1911.91 943.642 1911.91 945.943 1912.48 947.668 1912.48 949.969 1913.05 951.695 1913.05 953.996 1913.63 955.721 1913.63 958.022 1914.2 959.748 1914.2 962.049 1914.77 963.774 1915.35 966.075 1915.35 967.801 1915.92 970.102 1916.49 971.828 1916.49 973.553 1917.06 975.854 1917.06 977.58 1917.64 979.305 1918.21 981.031 1918.21 982.757 1918.78 984.482 1918.78 986.208 1919.35 987.934 1919.35 989.659 1919.93 990.81 1920.5 992.535 1920.5 994.261 1921.07 995.412 1921.07 997.137 1921.64 998.288 1921.64 1000.01 1922.22 1001.16 1922.22 1002.31 1922.79 1003.46 1923.36 1004.62 1923.36 1005.77 1923.93 1006.92 1923.93 1008.07 1924.51 1009.22 1925.08 1010.37 1925.08 1010.94 1925.65 1012.09 1925.65 1013.24 1926.22 1013.82 1926.8 1014.97 1926.8 1015.54 1927.37 1016.12 1927.37 1017.27 1927.94 1017.85 1927.94 1018.42 1928.52 1019 1928.52 1019.57 1929.09 1020.15 1929.66 1020.72 1929.66 1021.3 1930.23 1021.87 1930.23 1022.45 1930.81 1023.02 1930.81 1023.6 1931.38 1023.6 1931.95 1024.17 1931.95 1024.75 1932.52 1024.75 1932.52 1025.32 1933.1 1025.9 1933.67 1025.9 1933.67 1026.47 1934.24 1026.47 1934.24 1026.47 1934.81 1027.05 1935.39 1027.05 1935.39 1027.62 1935.96 1027.62 1935.96 1027.62 1936.53 1028.2 1936.53 1028.2 1937.1 1028.2 1937.1 1028.2 1937.68 1028.77 1937.68 1028.77 1938.25 1028.77 1938.82 1028.77 1938.82 1029.35 1939.39 1029.35 1939.39 1029.35 1939.97 1029.35 1940.54 1029.35 1940.54 1029.35 1941.11 1029.35 1941.11 1029.35 1941.68 1029.35 1942.26 1029.92 1942.26 1029.92 1942.83 1029.92 1942.83 1029.92 1943.4 1029.92 1943.98 1029.92 1943.98 1029.92 1944.55 1029.92 1944.55 1029.92 1945.12 1029.92 1945.12 1029.92 1945.69 1029.92 1945.69 1029.92 1946.27 1030.5 1946.27 1030.5 1946.84 1030.5 1947.41 1030.5 1947.41 1030.5 1947.98 1030.5 1947.98 1030.5 1948.56 1030.5 1949.13 1030.5 1949.13 1030.5 1949.7 1030.5 1949.7 1030.5 1950.27 1030.5 1950.85 1030.5 1950.85 1030.5 1951.42 1030.5 1951.42 1030.5 1951.99 1030.5 1952.56 1030.5 1952.56 1030.5 1953.14 1030.5 1953.14 1030.5 1953.71 1030.5 1953.71 1030.5 1954.28 1030.5 1954.28 1030.5 1954.85 1030.5 1954.85 1030.5 1955.43 1030.5 1956 1030.5 1956 1030.5 1956.57 1030.5 1956.57 1030.5 1957.14 1030.5 1957.72 1030.5 1957.72 1030.5 1958.29 1030.5 1958.29 1030.5 1958.86 1030.5 1959.44 1030.5 1959.44 1030.5 1960.01 1030.5 1960.01 1030.5 1960.58 1030.5 1960.58 1030.5 1961.15 1030.5 1961.73 1030.5 1961.73 1030.5 1962.3 1030.5 1962.3 1030.5 1962.87 1030.5 1962.87 1030.5 1963.44 1030.5 1964.02 1030.5 1964.02 1030.5 1964.59 1030.5 1964.59 1030.5 1965.16 1030.5 1965.73 1030.5 1965.73 1030.5 1966.31 1030.5 1966.31 1030.5 1966.88 1030.5 1967.45 1030.5 1967.45 1030.5 1968.02 1030.5 1968.02 1030.5 1968.6 1030.5 1968.6 1030.5 1969.17 1030.5 1969.17 1030.5 1969.74 1030.5 1969.74 1030.5 1970.31 1030.5 1970.89 1030.5 1970.89 1030.5 1971.46 1030.5 1971.46 1030.5 1972.03 1030.5 1972.6 1030.5 1972.6 1030.5 1973.18 1030.5 1973.18 1030.5 1973.75 1030.5 1974.32 1030.5 1974.32 1030.5 1974.9 1030.5 1974.9 1030.5 1975.47 1030.5 1976.04 1030.5 1976.04 1030.5 1976.61 1030.5 1976.61 1030.5 1977.19 1030.5 1977.19 1030.5 1977.76 1030.5 1977.76 1030.5 1978.33 1030.5 1978.33 1030.5 1978.9 1030.5 1979.48 1030.5 1979.48 1030.5 1980.05 1030.5 1980.05 1030.5 1980.62 1030.5 1981.19 1030.5 1981.19 1030.5 1981.77 1030.5 1981.77 1030.5 1982.34 1030.5 1982.91 1030.5 1982.91 1030.5 1983.48 1030.5 1983.48 1030.5 1984.06 1030.5 1984.63 1030.5 1984.63 1030.5 1985.2 1030.5 1985.2 1030.5 1985.77 1030.5 1985.77 1030.5 1986.35 1030.5 1986.35 1030.5 1986.92 1030.5 1986.92 1030.5 1987.49 1030.5 1988.06 1030.5 1988.06 1030.5 1988.64 1030.5 1988.64 1030.5 1989.21 1030.5 1989.78 1030.5 1989.78 1030.5 1990.36 1030.5 1990.36 1030.5 1990.93 1030.5 1991.5 1030.5 1991.5 1030.5 1992.07 1030.5 1992.07 1030.5 1992.65 1030.5 1992.65 1030.5 1993.22 1030.5 1993.79 1030.5 1993.79 1030.5 1994.36 1030.5 1994.36 1030.5 1994.94 1030.5 1994.94 1030.5 1995.51 1030.5 1995.51 1030.5 1996.08 1030.5 1996.65 1030.5 1996.65 1030.5 1997.23 1030.5 1997.23 1030.5 1997.8 1030.5 1998.37 1030.5 1998.37 1030.5 1998.94 1030.5 1998.94 1030.5 1999.52 1030.5 2000.09 1030.5 2000.09 1030.5 2000.66 1030.5 2000.66 1030.5 2001.23 1030.5 2001.23 1030.5 2001.81 1030.5 2001.81 1030.5 2002.38 1030.5 2002.95 1030.5 2002.95 1030.5 2003.53 1030.5 2003.53 1030.5 2004.1 1030.5 2004.67 1030.5 2004.67 1030.5 2005.24 1030.5 2005.24 1030.5 2005.82 1030.5 2006.39 1030.5 2006.39 1030.5 2006.96 1030.5 2006.96 1030.5 2007.53 1030.5 2008.11 1030.5 2008.11 1030.5 2008.68 1029.92 2008.68 1029.92 2009.25 1029.92 2009.25 1029.92 2009.82 1029.92 2009.82 1029.92 2010.4 1029.92 2010.4 1029.92 2010.97 1029.92 2011.54 1029.92 2011.54 1029.92 2012.11 1029.92 2012.11 1029.92 2012.69 1029.35 2013.26 1029.35 2013.26 1029.35 2013.83 1029.35 2013.83 1029.35 2014.4 1029.35 2014.98 1029.35 2014.98 1029.35 2015.55 1029.35 2015.55 1028.77 2016.12 1028.77 2016.69 1028.77 2016.69 1028.77 2017.27 1028.2 2017.27 1028.2 2017.84 1028.2 2017.84 1028.2 2018.41 1027.62 2018.41 1027.62 2018.99 1027.62 2018.99 1027.05 2019.56 1027.05 2020.13 1026.47 2020.13 1026.47 2020.7 1026.47 2020.7 1025.9 2021.28 1025.9 2021.85 1025.32 2021.85 1024.75 2022.42 1024.75 2022.42 1024.17 2022.99 1023.6 2023.57 1023.6 2023.57 1023.02 2024.14 1022.45 2024.14 1021.87 2024.71 1021.3 2024.71 1020.72 2025.28 1020.15 2025.86 1019.57 2025.86 1019 2026.43 1018.42 2026.43 1017.85 2027 1017.27 2027 1016.12 2027.57 1015.54 2027.57 1014.97 2028.15 1013.82 2028.72 1013.24 2028.72 1012.09 2029.29 1010.94 2029.29 1010.37 2029.86 1009.22 2030.44 1008.07 2030.44 1006.92 2031.01 1005.77 2031.01 1004.62 2031.58 1003.46 2032.15 1002.31 2032.15 1001.16 2032.73 1000.01 2032.73 998.288 2033.3 997.137 2033.3 995.412 2033.87 994.261 2033.87 992.535 2034.45 990.81 2035.02 989.659 2035.02 987.934 2035.59 986.208 2035.59 984.482 2036.16 982.757 2036.16 981.031 2036.74 979.305 2037.31 977.58 2037.31 975.854 2037.88 973.553 2037.88 971.828 2038.45 970.102 2039.03 967.801 2039.03 966.075 2039.6 963.774 2039.6 962.049 2040.17 959.748 2040.74 958.022 2040.74 955.721 2041.32 953.996 2041.32 951.695 2041.89 949.969 2041.89 947.668 2042.46 945.943 2042.46 943.642 2043.03 941.916 2043.03 939.615 2043.61 937.889 2044.18 936.164 2044.18 933.863 2044.75 932.137 2044.75 930.412 2045.32 928.686 2045.9 926.385 2045.9 924.659 2046.47 922.934 2047.04 921.208 2047.04 919.482 2047.61 918.332 2047.61 916.606 2048.19 914.881 2048.19 913.73 2048.76 912.58 2049.33 910.854 2049.33 909.704 2049.91 908.553 2049.91 907.403 2050.48 906.252 2050.48 905.677 2051.05 904.527 2051.05 903.951 2051.62 903.376 2052.2 902.801 2052.2 901.651 2052.77 901.651 2052.77 901.075 2053.34 900.5 2053.91 900.5 2053.91 900.5 2054.49 900.5 2054.49 900.5 2055.06 900.5 2055.63 900.5 2055.63 901.075 2056.2 901.651 2056.2 901.651 2056.78 902.801 2056.78 903.376 2057.35 903.951 2057.92 904.527 2057.92 905.677 2058.49 906.252 2058.49 907.403 2059.07 908.553 2059.07 909.704 2059.64 910.854 2059.64 912.58 2060.21 913.73 2060.78 914.881 2060.78 916.606 2061.36 918.332 2061.36 919.482 2061.93 921.208 2062.5 922.934 2062.5 924.659 2063.07 926.385 2063.07 928.686 2063.65 930.412 2064.22 932.137 2064.22 933.863 2064.79 936.164 2064.79 937.889 2065.37 939.615 2065.37 941.916 2065.94 943.642 2065.94 945.943 2066.51 947.668 2067.08 949.969 2067.08 951.695 2067.66 953.996 2067.66 955.721 2068.23 958.022 2068.23 959.748 2068.8 962.049 2069.37 963.774 2069.37 966.075 2069.95 967.801 2069.95 970.102 2070.52 971.828 2071.09 973.553 2071.09 975.854 2071.66 977.58 2071.66 979.305 2072.24 981.031 2072.81 982.757 2072.81 984.482 2073.38 986.208 2073.38 987.934 2073.95 989.659 2073.95 990.81 2074.53 992.535 2074.53 994.261 2075.1 995.412 2075.1 997.137 2075.67 998.288 2076.24 1000.01 2076.24 1001.16 2076.82 1002.31 2076.82 1003.46 2077.39 1004.62 2077.96 1005.77 2077.96 1006.92 2078.54 1008.07 2078.54 1009.22 2079.11 1010.37 2079.68 1010.94 2079.68 1012.09 2080.25 1013.24 2080.25 1013.82 2080.83 1014.97 2081.4 1015.54 2081.4 1016.12 2081.97 1017.27 2081.97 1017.85 2082.54 1018.42 2082.54 1019 2083.12 1019.57 2083.12 1020.15 2083.69 1020.72 2083.69 1021.3 2084.26 1021.87 2084.83 1022.45 2084.83 1023.02 2085.41 1023.6 2085.41 1023.6 2085.98 1024.17 2086.55 1024.75 2086.55 1024.75 2087.12 1025.32 2087.12 1025.9 2087.7 1025.9 2088.27 1026.47 2088.27 1026.47 2088.84 1026.47 2088.84 1027.05 2089.41 1027.05 2089.41 1027.62 2089.99 1027.62 2090.56 1027.62 2090.56 1028.2 2091.13 1028.2 2091.13 1028.2 2091.7 1028.2 2091.7 1028.77 2092.28 1028.77 2092.85 1028.77 2092.85 1028.77 2093.42 1029.35 2093.42 1029.35 2094 1029.35 2094.57 1029.35 2094.57 1029.35 2095.14 1029.35 2095.14 1029.35 2095.71 1029.35 2096.29 1029.35 2096.29 1029.92 2096.86 1029.92 2096.86 1029.92 2097.43 1029.92 2097.43 1029.92 2098 1029.92 2098 1029.92 2098.58 1029.92 2099.15 1029.92 2099.15 1029.92 2099.72 1029.92 2099.72 1029.92 2100.29 1029.92 2100.29 1030.5 2100.87 1030.5 2101.44 1030.5 2101.44 1030.5 2102.01 1030.5 2102.01 1030.5 2102.58 1030.5 2103.16 1030.5 2103.16 1030.5 2103.73 1030.5 2103.73 1030.5 2104.3 1030.5 2104.87 1030.5 2104.87 1030.5 2105.45 1030.5 2105.45 1030.5 2106.02 1030.5 2106.02 1030.5 2106.59 1030.5 2106.59 1030.5 2107.16 1030.5 2107.16 1030.5 2107.74 1030.5 2108.31 1030.5 2108.31 1030.5 2108.88 1030.5 2108.88 1030.5 2109.46 1030.5 2110.03 1030.5 2110.03 1030.5 2110.6 1030.5 2110.6 1030.5 2111.17 1030.5 2111.75 1030.5 2111.75 1030.5 2112.32 1030.5 2112.32 1030.5 2112.89 1030.5 2113.46 1030.5 2113.46 1030.5 2114.04 1030.5 2114.04 1030.5 2114.61 1030.5 2114.61 1030.5 2115.18 1030.5 2115.18 1030.5 2115.75 1030.5 2115.75 1030.5 2116.33 1030.5 2116.9 1030.5 2116.9 1030.5 2117.47 1030.5 2117.47 1030.5 2118.04 1030.5 2118.62 1030.5 2118.62 1030.5 2119.19 1030.5 2119.19 1030.5 2119.76 1030.5 2120.33 1030.5 2120.33 1030.5 2120.91 1030.5 2120.91 1030.5 2121.48 1030.5 2121.48 1030.5 2122.05 1030.5 2122.62 1030.5 2122.62 1030.5 2123.2 1030.5 2123.2 1030.5 2123.77 1030.5 2123.77 1030.5 2124.34 1030.5 2124.34 1030.5 2124.92 1030.5 2125.49 1030.5 2125.49 1030.5 2126.06 1030.5 2126.06 1030.5 2126.63 1030.5 2127.21 1030.5 2127.21 1030.5 2127.78 1030.5 2127.78 1030.5 2128.35 1030.5 2128.92 1030.5 2128.92 1030.5 2129.5 1030.5 2129.5 1030.5 2130.07 1030.5 2130.07 1030.5 2130.64 1030.5 2130.64 1030.5 2131.21 1030.5 2131.79 1030.5 2131.79 1030.5 2132.36 1030.5 2132.36 1030.5 2132.93 1030.5 2132.93 1030.5 2133.5 1030.5 2134.08 1030.5 2134.08 1030.5 2134.65 1030.5 2135.22 1030.5 2135.22 1030.5 2135.79 1030.5 2135.79 1030.5 2136.37 1030.5 2136.94 1030.5 2136.94 1030.5 2137.51 1030.5 2137.51 1030.5 2138.08 1030.5 2138.08 1030.5 2138.66 1030.5 2138.66 1030.5 2139.23 1030.5 2139.23 1030.5 2139.8 1030.5 2140.38 1030.5 2140.38 1030.5 2140.95 1030.5 2140.95 1030.5 2141.52 1030.5 2142.09 1030.5 2142.09 1030.5 2142.67 1030.5 2142.67 1030.5 2143.24 1030.5 2143.81 1030.5 2143.81 1030.5 2144.38 1030.5 2144.38 1030.5 2144.96 1030.5 2145.53 1030.5 2145.53 1030.5 2146.1 1030.5 2146.1 1030.5 2146.67 1030.5 2146.67 1030.5 2147.25 1030.5 2147.25 1030.5 2147.82 1030.5 2147.82 1030.5 2148.39 1030.5 2148.96 1030.5 2148.96 1030.5 2149.54 1030.5 2149.54 1030.5 2150.11 1030.5 2150.68 1030.5 2150.68 1030.5 2151.25 1030.5 2151.25 1030.5 2151.83 1030.5 2152.4 1030.5 2152.4 1030.5 2152.97 1030.5 2152.97 1030.5 2153.55 1030.5 2153.55 1030.5 2154.12 1030.5 2154.69 1030.5 2154.69 1030.5 2155.26 1030.5 2155.26 1030.5 2155.84 1030.5 2155.84 1030.5 2156.41 1030.5 2156.41 1030.5 2156.98 1030.5 2157.55 1030.5 2157.55 1030.5 2158.13 1030.5 2158.13 1030.5 2158.7 1030.5 2159.27 1030.5 2159.27 1030.5 2159.84 1030.5 2159.84 1030.5 2160.42 1030.5 2160.99 1030.5 2160.99 1030.5 2161.56 1030.5 2161.56 1030.5 2162.13 1030.5 2162.13 1030.5 2162.71 1029.92 2162.71 1029.92 2163.28 1029.92 2163.85 1029.92 2163.85 1029.92 2164.42 1029.92 2164.42 1029.92 2165 1029.92 2165 1029.92 2165.57 1029.92 2166.14 1029.92 2166.14 1029.92 2166.71 1029.92 2166.71 1029.35 2167.29 1029.35 2167.86 1029.35 2167.86 1029.35 2168.43 1029.35 2168.43 1029.35 2169.01 1029.35 2169.58 1029.35 2169.58 1029.35 2170.15 1028.77 2170.15 1028.77 2170.72 1028.77 2170.72 1028.77 2171.3 1028.2 2171.3 1028.2 2171.87 1028.2 2171.87 1028.2 2172.44 1027.62 2173.01 1027.62 2173.01 1027.62 2173.59 1027.05 2173.59 1027.05 2174.16 1026.47 2174.73 1026.47 2174.73 1026.47 2175.3 1025.9 2175.3 1025.9 2175.88 1025.32 2176.45 1024.75 2176.45 1024.75 2177.02 1024.17 2177.59 1023.6 2177.59 1023.6 2178.17 1023.02 2178.17 1022.45 2178.74 1021.87 2178.74 1021.3 2179.31 1020.72 2179.31 1020.15 2179.88 1019.57 2179.88 1019 2180.46 1018.42 2181.03 1017.85 2181.03 1017.27 2181.6 1016.12 2181.6 1015.54 2182.17 1014.97 2182.75 1013.82 2182.75 1013.24 2183.32 1012.09 2183.32 1010.94 2183.89 1010.37 2184.47 1009.22 2184.47 1008.07 2185.04 1006.92 2185.04 1005.77 2185.61 1004.62 2185.61 1003.46 2186.18 1002.31 2186.76 1001.16 2186.76 1000.01 2187.33 998.288 2187.33 997.137 2187.9 995.412 2187.9 994.261 2188.47 992.535 2188.47 990.81 2189.05 989.659 2189.62 987.934 2189.62 986.208 2190.19 984.482 2190.19 982.757 2190.76 981.031 2191.34 979.305 2191.34 977.58 2191.91 975.854 2191.91 973.553 2192.48 971.828 2193.05 970.102 2193.05 967.801 2193.63 966.075 2193.63 963.774 2194.2 962.049 2194.2 959.748 2194.77 958.022 2194.77 955.721 2195.34 953.996 2195.92 951.695 2195.92 949.969 2196.49 947.668 2196.49 945.943 2197.06 943.642 2197.06 941.916 2197.64 939.615 2198.21 937.889 2198.21 936.164 2198.78 933.863 2198.78 932.137 2199.35 930.412 2199.93 928.686 2199.93 926.385 2200.5 924.659 2200.5 922.934 2201.07 921.208 2201.64 919.482 2201.64 918.332 2202.22 916.606 2202.22 914.881 2202.79 913.73 2202.79 912.58 2203.36 910.854 2203.36 909.704 2203.93 908.553 2203.93 907.403 2204.51 906.252 2205.08 905.677 2205.08 904.527 2205.65 903.951 2205.65 903.376 2206.22 902.801 2206.8 901.651 2206.8 901.651 2207.37 901.075 2207.37 900.5 2207.94 900.5 2208.51 900.5 2208.51 900.5 2209.09 900.5 2209.09 900.5 2209.66 900.5 2210.23 901.075 2210.23 901.651 2210.8 901.651 2210.8 902.801 2211.38 903.376 2211.38 903.951 2211.95 904.527 2211.95 905.677 2212.52 906.252 2212.52 907.403 2213.09 908.553 2213.67 909.704 2213.67 910.854 2214.24 912.58 2214.24 913.73 2214.81 914.881 2215.39 916.606 2215.39 918.332 2215.96 919.482 2215.96 921.208 2216.53 922.934 2217.1 924.659 2217.1 926.385 2217.68 928.686 2217.68 930.412 2218.25 932.137 2218.82 933.863 2218.82 936.164 2219.39 937.889 2219.39 939.615 2219.97 941.916 2219.97 943.642 2220.54 945.943 2220.54 947.668 2221.11 949.969 2221.68 951.695 2221.68 953.996 2222.26 955.721 2222.26 958.022 2222.83 959.748 2223.4 962.049 2223.4 963.774 2223.97 966.075 2223.97 967.801 2224.55 970.102 2225.12 971.828 2225.12 973.553 2225.69 975.854 2225.69 977.58 2226.26 979.305 2226.26 981.031 2226.84 982.757 2226.84 984.482 2227.41 986.208 2227.98 987.934 2227.98 989.659 2228.56 990.81 2228.56 992.535 2229.13 994.261 2229.13 995.412 2229.7 997.137 2230.27 998.288 2230.27 1000.01 2230.85 1001.16 2230.85 1002.31 2231.42 1003.46 2231.99 1004.62 2231.99 1005.77 2232.56 1006.92 2232.56 1008.07 2233.14 1009.22 2233.71 1010.37 2233.71 1010.94 2234.28 1012.09 2234.28 1013.24 2234.85 1013.82 2234.85 1014.97 2235.43 1015.54 2235.43 1016.12 2236 1017.27 2236 1017.85 2236.57 1018.42 2237.14 1019 2237.14 1019.57 2237.72 1020.15 2237.72 1020.72 2238.29 1021.3 2238.86 1021.87 2238.86 1022.45 2239.43 1023.02 2239.43 1023.6 2240.01 1023.6 2240.58 1024.17 2240.58 1024.75 2241.15 1024.75 2241.15 1025.32 2241.72 1025.9 2242.3 1025.9 2242.3 1026.47 2242.87 1026.47 2242.87 1026.47 2243.44 1027.05 2243.44 1027.05 2244.02 1027.62 2244.02 1027.62 2244.59 1027.62 2244.59 1028.2 2245.16 1028.2 2245.73 1028.2 2245.73 1028.2 2246.31 1028.77 2246.31 1028.77 2246.88 1028.77 2247.45 1028.77 2247.45 1029.35 2248.02 1029.35 2248.02 1029.35 2248.6 1029.35 2249.17 1029.35 2249.17 1029.35 2249.74 1029.35 2249.74 1029.35 2250.31 1029.35 2250.89 1029.92 2250.89 1029.92 2251.46 1029.92 2251.46 1029.92 2252.03 1029.92 2252.03 1029.92 2252.6 1029.92 2252.6 1029.92 2253.18 1029.92 2253.18 1029.92 2253.75 1029.92 2254.32 1029.92 2254.32 1029.92 2254.89 1030.5 2254.89 1030.5 2255.47 1030.5 2256.04 1030.5 2256.04 1030.5 2256.61 1030.5 2256.61 1030.5 2257.18 1030.5 2257.76 1030.5 2257.76 1030.5 2258.33 1030.5 2258.33 1030.5 2258.9 1030.5 2258.9 1030.5 2259.48 1030.5 2260.05 1030.5 2260.05 1030.5 2260.62 1030.5 2260.62 1030.5 2261.19 1030.5 2261.19 1030.5 2261.77 1030.5 2261.77 1030.5 2262.34 1030.5 2262.91 1030.5 2262.91 1030.5 2263.48 1030.5 2263.48 1030.5 2264.06 1030.5 2264.63 1030.5 2264.63 1030.5 2265.2 1030.5 2265.77 1030.5 2265.77 1030.5 2266.35 1030.5 2266.35 1030.5 2266.92 1030.5 2266.92 1030.5 2267.49 1030.5 2267.49 1030.5 2268.06 1030.5 2268.06 1030.5 2268.64 1030.5 2269.21 1030.5 2269.21 1030.5 2269.78 1030.5 2269.78 1030.5 2270.35 1030.5 2270.93 1030.5 2270.93 1030.5 2271.5 1030.5 2271.5 1030.5 2272.07 1030.5 2272.65 1030.5 2272.65 1030.5 2273.22 1030.5 2273.22 1030.5 2273.79 1030.5 2274.36 1030.5 2274.36 1030.5 2274.94 1030.5 2274.94 1030.5 2275.51 1030.5 2275.51 1030.5 2276.08 1030.5 2276.08 1030.5 2276.65 1030.5 2276.65 1030.5 2277.23 1030.5 2277.8 1030.5 2277.8 1030.5 2278.37 1030.5 2278.37 1030.5 2278.94 1030.5 2279.52 1030.5 2279.52 1030.5 2280.09 1030.5 2280.09 1030.5 2280.66 1030.5 2281.23 1030.5 2281.23 1030.5 2281.81 1030.5 2281.81 1030.5 2282.38 1030.5 2282.95 1030.5 2282.95 1030.5 2283.52 1030.5 2283.52 1030.5 2284.1 1030.5 2284.1 1030.5 2284.67 1030.5 2284.67 1030.5 2285.24 1030.5 2285.24 1030.5 2285.81 1030.5 2286.39 1030.5 2286.39 1030.5 2286.96 1030.5 2286.96 1030.5 2287.53 1030.5 2288.1 1030.5 2288.1 1030.5 2288.68 1030.5 2288.68 1030.5 2289.25 1030.5 2289.82 1030.5 2289.82 1030.5 2290.4 1030.5 2290.4 1030.5 2290.97 1030.5 2290.97 1030.5 2291.54 1030.5 2292.11 1030.5 2292.11 1030.5 2292.69 1030.5 2292.69 1030.5 2293.26 1030.5 2293.26 1030.5 2293.83 1030.5 2293.83 1030.5 2294.4 1030.5 2294.98 1030.5 2294.98 1030.5 2295.55 1030.5 2295.55 1030.5 2296.12 1030.5 2296.69 1030.5 2296.69 1030.5 2297.27 1030.5 2297.27 1030.5 2297.84 1030.5 2298.41 1030.5 2298.41 1030.5 2298.98 1030.5 2298.98 1030.5 2299.56 1030.5 2299.56 1030.5 2300.13 1030.5 2300.13 1030.5 2300.7 1030.5 2301.27 1030.5 2301.27 1030.5 2301.85 1030.5 2301.85 1030.5 2302.42 1030.5 2302.42 1030.5 2302.99 1030.5 2303.57 1030.5 2303.57 1030.5 2304.14 1030.5 2304.14 1030.5 2304.71 1030.5 2305.28 1030.5 2305.28 1030.5 2305.86 1030.5 2305.86 1030.5 2306.43 1030.5 2307 1030.5 2307 1030.5 2307.57 1030.5 2307.57 1030.5 2308.15 1030.5 2308.15 1030.5 2308.72 1030.5 2308.72 1030.5 2309.29 1030.5 2309.86 1030.5 2309.86 1030.5 2310.44 1030.5 2310.44 1030.5 2311.01 1030.5 2311.58 1030.5 2311.58 1030.5 2312.15 1030.5 2312.15 1030.5 2312.73 1030.5 2313.3 1030.5 2313.3 1030.5 2313.87 1030.5 2313.87 1030.5 2314.44 1030.5 2315.02 1030.5 2315.02 1030.5 2315.59 1030.5 2315.59 1030.5 2316.16 1030.5 2316.16 1030.5 2316.73 1030.5 2316.73 1029.92 2317.31 1029.92 2317.31 1029.92 2317.88 1029.92 2318.45 1029.92 2318.45 1029.92 2319.03 1029.92 2319.03 1029.92 2319.6 1029.92 2320.17 1029.92 2320.17 1029.92 2320.74 1029.92 2320.74 1029.92 2321.32 1029.35 2321.89 1029.35 2321.89 1029.35 2322.46 1029.35 2322.46 1029.35 2323.03 1029.35 2323.03 1029.35 2323.61 1029.35 2324.18 1029.35 2324.18 1028.77 2324.75 1028.77 2324.75 1028.77 2325.32 1028.77 2325.32 1028.2 2325.9 1028.2 2325.9 1028.2 2326.47 1028.2 2327.04 1027.62 2327.04 1027.62 2327.61 1027.62 2327.61 1027.05 2328.19 1027.05 2328.76 1026.47 2328.76 1026.47 2329.33 1026.47 2329.33 1025.9 2329.9 1025.9 2330.48 1025.32 2330.48 1024.75 2331.05 1024.75 2331.05 1024.17 2331.62 1023.6 2331.62 1023.6 2332.19 1023.02 2332.19 1022.45 2332.77 1021.87 2333.34 1021.3 2333.34 1020.72 2333.91 1020.15 2333.91 1019.57 2334.49 1019 2334.49 1018.42 2335.06 1017.85 2335.63 1017.27 2335.63 1016.12 2336.2 1015.54 2336.2 1014.97 2336.78 1013.82 2337.35 1013.24 2337.35 1012.09 2337.92 1010.94 2337.92 1010.37 2338.49 1009.22 2339.07 1008.07 2339.07 1006.92 2339.64 1005.77 2339.64 1004.62 2340.21 1003.46 2340.21 1002.31 2340.78 1001.16 2340.78 1000.01 2341.36 998.288 2341.36 997.137 2341.93 995.412 2342.5 994.261 2342.5 992.535 2343.07 990.81 2343.07 989.659 2343.65 987.934 2344.22 986.208 2344.22 984.482 2344.79 982.757 2344.79 981.031 2345.36 979.305 2345.94 977.58 2345.94 975.854 2346.51 973.553 2346.51 971.828 2347.08 970.102 2347.66 967.801 2347.66 966.075 2348.23 963.774 2348.23 962.049 2348.8 959.748 2348.8 958.022 2349.37 955.721 2349.37 953.996 2349.95 951.695 2349.95 949.969 2350.52 947.668 2351.09 945.943 2351.09 943.642 2351.66 941.916 2351.66 939.615 2352.24 937.889 2352.81 936.164 2352.81 933.863 2353.38 932.137 2353.95 930.412 2353.95 928.686 2354.53 926.385 2354.53 924.659 2355.1 922.934 2355.1 921.208 2355.67 919.482 2356.24 918.332 2356.24 916.606 2356.82 914.881 2356.82 913.73 2357.39 912.58 2357.39 910.854 2357.96 909.704 2357.96 908.553 2358.53 907.403 2359.11 906.252 2359.11 905.677 2359.68 904.527 2359.68 903.951 2360.25 903.376 2360.82 902.801 2360.82 901.651 2361.4 901.651 2361.4 901.075 2361.97 900.5 2362.54 900.5 2362.54 900.5 2363.12 900.5 2363.12 900.5 2363.69 900.5 2363.69 900.5 2364.26 901.075 2364.26 901.651 2364.83 901.651 2365.41 902.801 2365.41 903.376 2365.98 903.951 2365.98 904.527 2366.55 905.677 2366.55 906.252 2367.12 907.403 2367.7 908.553 2367.7 909.704 2368.27 910.854 2368.27 912.58 2368.84 913.73 2369.41 914.881 2369.41 916.606 2369.99 918.332 2369.99 919.482 2370.56 921.208 2371.13 922.934 2371.13 924.659 2371.7 926.385 2371.7 928.686 2372.28 930.412 2372.28 932.137 2372.85 933.863 2372.85 936.164 2373.42 937.889 2373.42 939.615 2373.99 941.916 2374.57 943.642 2374.57 945.943 2375.14 947.668 2375.14 949.969 2375.71 951.695 2376.28 953.996 2376.28 955.721 2376.86 958.022 2376.86 959.748 2377.43 962.049 2378 963.774 2378 966.075 2378.58 967.801 2378.58 970.102 2379.15 971.828 2379.72 973.553 2379.72 975.854 2380.29 977.58 2380.29 979.305 2380.87 981.031 2380.87 982.757 2381.44 984.482 2381.44 986.208 2382.01 987.934 2382.01 989.659 2382.58 990.81 2383.16 992.535 2383.16 994.261 2383.73 995.412 2383.73 997.137 2384.3 998.288 2384.87 1000.01 2384.87 1001.16 2385.45 1002.31 2385.45 1003.46 2386.02 1004.62 2386.59 1005.77 2386.59 1006.92 2387.16 1008.07 2387.16 1009.22 2387.74 1010.37 2388.31 1010.94 2388.31 1012.09 2388.88 1013.24 2388.88 1013.82 2389.45 1014.97 2389.45 1015.54 2390.03 1016.12 2390.03 1017.27 2390.6 1017.85 2390.6 1018.42 2391.17 1019 2391.74 1019.57 2391.74 1020.15 2392.32 1020.72 2392.32 1021.3 2392.89 1021.87 2393.46 1022.45 2393.46 1023.02 2394.04 1023.6 2394.04 1023.6 2394.61 1024.17 2395.18 1024.75 2395.18 1024.75 2395.75 1025.32 2395.75 1025.9 2396.33 1025.9 2396.33 1026.47 2396.9 1026.47 2397.47 1026.47 2397.47 1027.05 2398.04 1027.05 2398.04 1027.62 2398.62 1027.62 2398.62 1027.62 2399.19 1028.2 2399.76 1028.2 2399.76 1028.2 2400.33 1028.2 2400.33 1028.77 2400.91 1028.77 2401.48 1028.77 2401.48 1028.77 2402.05 1029.35 2402.05 1029.35 2402.62 1029.35 2403.2 1029.35 2403.2 1029.35 2403.77 1029.35 2403.77 1029.35 2404.34 1029.35 2404.34 1029.35 2404.91 1029.92 2404.91 1029.92 2405.49 1029.92 2405.49 1029.92 2406.06 1029.92 2406.63 1029.92 2406.63 1029.92 2407.21 1029.92 2407.21 1029.92 2407.78 1029.92 2408.35 1029.92 2408.35 1029.92 2408.92 1029.92 2408.92 1030.5 2409.5 1030.5 2410.07 1030.5 2410.07 1030.5 2410.64 1030.5 2410.64 1030.5 2411.21 1030.5 2411.79 1030.5 2411.79 1030.5 2412.36 1030.5 2412.36 1030.5 2412.93 1030.5 2412.93 1030.5 2413.5 1030.5 2413.5 1030.5 2414.08 1030.5 2414.08 1030.5 2414.65 1030.5 2415.22 1030.5 2415.22 1030.5 2415.79 1030.5 2415.79 1030.5 2416.37 1030.5 2416.94 1030.5 2416.94 1030.5 2417.51 1030.5 2417.51 1030.5 2418.08 1030.5 2418.66 1030.5 2418.66 1030.5 2419.23 1030.5 2419.23 1030.5 2419.8 1030.5 2419.8 1030.5 2420.37 1030.5 2420.95 1030.5 2420.95 1030.5 2421.52 1030.5 2421.52 1030.5 2422.09 1030.5 2422.09 1030.5 2422.67 1030.5 2422.67 1030.5 2423.24 1030.5 2423.81 1030.5 2423.81 1030.5 2424.38 1030.5 2424.38 1030.5 2424.96 1030.5 2425.53 1030.5 2425.53 1030.5 2426.1 1030.5 2426.1 1030.5 2426.67 1030.5 2427.25 1030.5 2427.25 1030.5 2427.82 1030.5 2427.82 1030.5 2428.39 1030.5 2428.39 1030.5 2428.96 1030.5 2429.54 1030.5 2429.54 1030.5 2430.11 1030.5 2430.11 1030.5 2430.68 1030.5 2430.68 1030.5 2431.25 1030.5 2431.25 1030.5 2431.83 1030.5 2432.4 1030.5 2432.4 1030.5 2432.97 1030.5 2432.97 1030.5 2433.54 1030.5 2434.12 1030.5 2434.12 1030.5 2434.69 1030.5 2434.69 1030.5 2435.26 1030.5 2435.83 1030.5 2435.83 1030.5 2436.41 1030.5 2436.41 1030.5 2436.98 1030.5 2436.98 1030.5 2437.55 1030.5 2437.55 1030.5 2438.12 1030.5 2438.7 1030.5 2438.7 1030.5 2439.27 1030.5 2439.27 1030.5 2439.84 1030.5 2440.42 1030.5 2440.42 1030.5 2440.99 1030.5 2440.99 1030.5 2441.56 1030.5 2442.13 1030.5 2442.13 1030.5 2442.71 1030.5 2442.71 1030.5 2443.28 1030.5 2443.85 1030.5 2443.85 1030.5 2444.42 1030.5 2444.42 1030.5 2445 1030.5 2445 1030.5 2445.57 1030.5 2445.57 1030.5 2446.14 1030.5 2446.14 1030.5 2446.71 1030.5 2447.29 1030.5 2447.29 1030.5 2447.86 1030.5 2447.86 1030.5 2448.43 1030.5 2449 1030.5 2449 1030.5 2449.58 1030.5 2449.58 1030.5 2450.15 1030.5 2450.72 1030.5 2450.72 1030.5 2451.29 1030.5 2451.29 1030.5 2451.87 1030.5 2451.87 1030.5 2452.44 1030.5 2453.01 1030.5 2453.01 1030.5 2453.59 1030.5 2453.59 1030.5 2454.16 1030.5 2454.16 1030.5 2454.73 1030.5 2454.73 1030.5 2455.3 1030.5 2455.88 1030.5 2455.88 1030.5 2456.45 1030.5 2456.45 1030.5 2457.02 1030.5 2457.59 1030.5 2457.59 1030.5 2458.17 1030.5 2458.17 1030.5 2458.74 1030.5 2459.31 1030.5 2459.31 1030.5 2459.88 1030.5 2459.88 1030.5 2460.46 1030.5 2460.46 1030.5 2461.03 1030.5 2461.03 1030.5 2461.6 1030.5 2462.17 1030.5 2462.17 1030.5 2462.75 1030.5 2462.75 1030.5 2463.32 1030.5 2463.32 1030.5 2463.89 1030.5 2464.46 1030.5 2464.46 1030.5 2465.04 1030.5 2465.04 1030.5 2465.61 1030.5 2466.18 1030.5 2466.18 1030.5 2466.75 1030.5 2466.75 1030.5 2467.33 1030.5 2467.9 1030.5 2467.9 1030.5 2468.47 1030.5 2468.47 1030.5 2469.05 1030.5 2469.05 1030.5 2469.62 1030.5 2469.62 1030.5 2470.19 1030.5 2470.76 1030.5 2470.76 1030.5 2471.34 1029.92 2471.34 1029.92 2471.91 1029.92 2471.91 1029.92 2472.48 1029.92 2473.05 1029.92 2473.05 1029.92 2473.63 1029.92 2473.63 1029.92 2474.2 1029.92 2474.77 1029.92 2474.77 1029.92 2475.34 1029.92 2475.34 1029.35 2475.92 1029.35 2476.49 1029.35 2476.49 1029.35 2477.06 1029.35 2477.06 1029.35 2477.63 1029.35 2477.63 1029.35 2478.21 1029.35 2478.21 1028.77 2478.78 1028.77 2478.78 1028.77 2479.35 1028.77 2479.92 1028.2 2479.92 1028.2 2480.5 1028.2 2480.5 1028.2 2481.07 1027.62 2481.64 1027.62 2481.64 1027.62 2482.21 1027.05 2482.21 1027.05 2482.79 1026.47 2483.36 1026.47 2483.36 1026.47 2483.93 1025.9 2483.93 1025.9 2484.51 1025.32 2485.08 1024.75 2485.08 1024.75 2485.65 1024.17 2485.65 1023.6 2486.22 1023.6 2486.22 1023.02 2486.8 1022.45 2486.8 1021.87 2487.37 1021.3 2487.94 1020.72 2487.94 1020.15 2488.51 1019.57 2488.51 1019 2489.09 1018.42 2489.66 1017.85 2489.66 1017.27 2490.23 1016.12 2490.23 1015.54 2490.8 1014.97 2491.38 1013.82 2491.38 1013.24 2491.95 1012.09 2491.95 1010.94 2492.52 1010.37 2492.52 1009.22 2493.09 1008.07 2493.09 1006.92 2493.67 1005.77 2494.24 1004.62 2494.24 1003.46 2494.81 1002.31 2494.81 1001.16 2495.38 1000.01 2495.38 998.288 2495.96 997.137 2496.53 995.412 2496.53 994.261 2497.1 992.535 2497.1 990.81 2497.68 989.659 2498.25 987.934 2498.25 986.208 2498.82 984.482 2498.82 982.757 2499.39 981.031 2499.97 979.305 2499.97 977.58 2500.54 975.854 2500.54 973.553 2501.11 971.828 2501.11 970.102 2501.68 967.801 2501.68 966.075 2502.26 963.774 2502.26 962.049 2502.83 959.748 2503.4 958.022 2503.4 955.721 2503.97 953.996 2503.97 951.695 2504.55 949.969 2505.12 947.668 2505.12 945.943 2505.69 943.642 2505.69 941.916 2506.26 939.615 2506.84 937.889 2506.84 936.164 2507.41 933.863 2507.41 932.137 2507.98 930.412 2508.55 928.686 2508.55 926.385 2509.13 924.659 2509.13 922.934 2509.7 921.208 2509.7 919.482 2510.27 918.332 2510.27 916.606 2510.84 914.881 2510.84 913.73 2511.42 912.58 2511.99 910.854 2511.99 909.704 2512.56 908.553 2512.56 907.403 2513.14 906.252 2513.71 905.677 2513.71 904.527 2514.28 903.951 2514.28 903.376 2514.85 902.801 2515.43 901.651 2515.43 901.651 2516 901.075 2516 900.5 2516.57 900.5 2517.14 900.5 2517.14 900.5 2517.72 900.5 2517.72 900.5 2518.29 900.5 2518.29 901.075 2518.86 901.651 2518.86 901.651 2519.43 902.801 2519.43 903.376 2520.01 903.951 2520.58 904.527 2520.58 905.677 2521.15 906.252 2521.15 907.403 2521.72 908.553 2522.3 909.704 2522.3 910.854 2522.87 912.58 2522.87 913.73 2523.44 914.881 2524.01 916.606 2524.01 918.332 2524.59 919.482 2524.59 921.208 2525.16 922.934 2525.16 924.659 2525.73 926.385 2526.3 928.686 2526.3 930.412 2526.88 932.137 2526.88 933.863 2527.45 936.164 2527.45 937.889 2528.02 939.615 2528.6 941.916 2528.6 943.642 2529.17 945.943 2529.17 947.668 2529.74 949.969 2530.31 951.695 2530.31 953.996 2530.89 955.721 2530.89 958.022 2531.46 959.748 2532.03 962.049 2532.03 963.774 2532.6 966.075 2532.6 967.801 2533.18 970.102 2533.18 971.828 2533.75 973.553 2533.75 975.854 2534.32 977.58 2534.32 979.305 2534.89 981.031 2535.47 982.757 2535.47 984.482 2536.04 986.208 2536.04 987.934 2536.61 989.659 2537.18 990.81 2537.18 992.535 2537.76 994.261 2537.76 995.412 2538.33 997.137 2538.9 998.288 2538.9 1000.01 2539.47 1001.16 2539.47 1002.31 2540.05 1003.46 2540.62 1004.62 2540.62 1005.77 2541.19 1006.92 2541.19 1008.07 2541.77 1009.22 2541.77 1010.37 2542.34 1010.94 2542.34 1012.09 2542.91 1013.24 2542.91 1013.82 2543.48 1014.97 2544.06 1015.54 2544.06 1016.12 2544.63 1017.27 2544.63 1017.85 2545.2 1018.42 2545.77 1019 2545.77 1019.57 2546.35 1020.15 2546.35 1020.72 2546.92 1021.3 2547.49 1021.87 2547.49 1022.45 2548.06 1023.02 2548.06 1023.6 2548.64 1023.6 2549.21 1024.17 2549.21 1024.75 2549.78 1024.75 2549.78 1025.32 2550.35 1025.9 2550.35 1025.9 2550.93 1026.47 2550.93 1026.47 2551.5 1026.47 2551.5 1027.05 2552.07 1027.05 2552.64 1027.62 2552.64 1027.62 2553.22 1027.62 2553.22 1028.2 2553.79 1028.2 2554.36 1028.2 2554.36 1028.2 2554.93 1028.77 2554.93 1028.77 2555.51 1028.77 2556.08 1028.77 2556.08 1029.35 2556.65 1029.35 2556.65 1029.35 2557.23 1029.35 2557.23 1029.35 2557.8 1029.35 2558.37 1029.35 2558.37 1029.35 2558.94 1029.35 2558.94 1029.92 2559.52 1029.92 2559.52 1029.92 2560.09 1029.92 2560.09 1029.92 2560.66 1029.92 2561.23 1029.92 2561.23 1029.92 2561.81 1029.92 2561.81 1029.92 2562.38 1029.92 2562.95 1029.92 2562.95 1029.92 2563.52 1030.5 2563.52 1030.5 2564.1 1030.5 2564.67 1030.5 2564.67 1030.5 2565.24 1030.5 2565.24 1030.5 2565.81 1030.5 2565.81 1030.5 2566.39 1030.5 2566.39 1030.5 2566.96 1030.5 2567.53 1030.5 2567.53 1030.5 2568.1 1030.5 2568.1 1030.5 2568.68 1030.5 2568.68 1030.5 2569.25 1030.5 2569.82 1030.5 2569.82 1030.5 2570.39 1030.5 2570.97 1030.5 2570.97 1030.5 2571.54 1030.5 2571.54 1030.5 2572.11 1030.5 2572.69 1030.5 2572.69 1030.5 2573.26 1030.5 2573.26 1030.5 2573.83 1030.5 2573.83 1030.5 2574.4 1030.5 2574.4 1030.5 2574.98 1030.5 2574.98 1030.5 2575.55 1030.5 2576.12 1030.5 2576.12 1030.5 2576.69 1030.5 2576.69 1030.5 2577.27 1030.5 2577.84 1030.5 2577.84 1030.5 2578.41 1030.5 2578.41 1030.5 2578.98 1030.5 2579.56 1030.5 2579.56 1030.5 2580.13 1030.5 2580.13 1030.5 2580.7 1030.5 2581.27 1030.5 2581.27 1030.5 2581.85 1030.5 2581.85 1030.5 2582.42 1030.5 2582.42 1030.5 2582.99 1030.5 2582.99 1030.5 2583.56 1030.5 2583.56 1030.5 2584.14 1030.5 2584.71 1030.5 2584.71 1030.5 2585.28 1030.5 2585.28 1030.5 2585.85 1030.5 2586.43 1030.5 2586.43 1030.5 2587 1030.5 2587 1030.5 2587.57 1030.5 2588.15 1030.5 2588.15 1030.5 2588.72 1030.5 2588.72 1030.5 2589.29 1030.5 2589.29 1030.5 2589.86 1030.5 2590.44 1030.5 2590.44 1030.5 2591.01 1030.5 2591.01 1030.5 2591.58 1030.5 2591.58 1030.5 2592.15 1030.5 2592.15 1030.5 2592.73 1030.5 2593.3 1030.5 2593.3 1030.5 2593.87 1030.5 2593.87 1030.5 2594.44 1030.5 2595.02 1030.5 2595.02 1030.5 2595.59 1030.5 2595.59 1030.5 2596.16 1030.5 2596.73 1030.5 2596.73 1030.5 2597.31 1030.5 2597.31 1030.5 2597.88 1030.5 2597.88 1030.5 2598.45 1030.5 2598.45 1030.5 2599.02 1030.5 2599.6 1030.5 2599.6 1030.5 2600.17 1030.5 2600.17 1030.5 2600.74 1030.5 2600.74 1030.5 2601.31 1030.5 2601.89 1030.5 2601.89 1030.5 2602.46 1030.5 2602.46 1030.5 2603.03 1030.5 2603.61 1030.5 2603.61 1030.5 2604.18 1030.5 2604.18 1030.5 2604.75 1030.5 2605.32 1030.5 2605.32 1030.5 2605.9 1030.5 2605.9 1030.5 2606.47 1030.5 2606.47 1030.5 2607.04 1030.5 2607.04 1030.5 2607.61 1030.5 2607.61 1030.5 2608.19 1030.5 2608.76 1030.5 2608.76 1030.5 2609.33 1030.5 2609.33 1030.5 2609.9 1030.5 2610.48 1030.5 2610.48 1030.5 2611.05 1030.5 2611.05 1030.5 2611.62 1030.5 2612.19 1030.5 2612.19 1030.5 2612.77 1030.5 2612.77 1030.5 2613.34 1030.5 2613.91 1030.5 2613.91 1030.5 2614.48 1030.5 2614.48 1030.5 2615.06 1030.5 2615.06 1030.5 2615.63 1030.5 2615.63 1030.5 2616.2 1030.5 2616.77 1030.5 2616.77 1030.5 2617.35 1030.5 2617.35 1030.5 2617.92 1030.5 2618.49 1030.5 2618.49 1030.5 2619.07 1030.5 2619.07 1030.5 2619.64 1030.5 2620.21 1030.5 2620.21 1030.5 2620.78 1030.5 2620.78 1030.5 2621.36 1030.5 2621.36 1030.5 2621.93 1030.5 2622.5 1030.5 2622.5 1030.5 2623.07 1030.5 2623.07 1030.5 2623.65 1030.5 2623.65 1030.5 2624.22 1030.5 2624.22 1030.5 2624.79 1030.5 2625.36 1030.5 2625.36 1029.92 2625.94 1029.92 2625.94 1029.92 2626.51 1029.92 2627.08 1029.92 2627.08 1029.92 2627.65 1029.92 2627.65 1029.92 2628.23 1029.92 2628.8 1029.92 2628.8 1029.92 2629.37 1029.92 2629.37 1029.92 2629.94 1029.35 2629.94 1029.35 2630.52 1029.35 2630.52 1029.35 2631.09 1029.35 2631.66 1029.35 2631.66 1029.35 2632.23 1029.35 2632.23 1029.35 2632.81 1028.77 2632.81 1028.77 2633.38 1028.77 2633.95 1028.77 2633.95 1028.2 2634.53 1028.2 2634.53 1028.2 2635.1 1028.2 2635.67 1027.62 2635.67 1027.62 2636.24 1027.62 2636.24 1027.05 2636.82 1027.05 2637.39 1026.47 2637.39 1026.47 2637.96 1026.47 2637.96 1025.9 2638.53 1025.9 2638.53 1025.32 2639.11 1024.75 2639.11 1024.75 2639.68 1024.17 2639.68 1023.6 2640.25 1023.6 2640.82 1023.02 2640.82 1022.45 2641.4 1021.87 2641.4 1021.3 2641.97 1020.72 2642.54 1020.15 2642.54 1019.57 2643.11 1019 2643.11 1018.42 2643.69 1017.85 2644.26 1017.27 2644.26 1016.12 2644.83 1015.54 2644.83 1014.97 2645.4 1013.82 2645.98 1013.24 2645.98 1012.09 2646.55 1010.94 2646.55 1010.37 2647.12 1009.22 2647.12 1008.07 2647.7 1006.92 2647.7 1005.77 2648.27 1004.62 2648.27 1003.46 2648.84 1002.31 2649.41 1001.16 2649.41 1000.01 2649.99 998.288 2649.99 997.137 2650.56 995.412 2651.13 994.261 2651.13 992.535 2651.7 990.81 2651.7 989.659 2652.28 987.934 2652.85 986.208 2652.85 984.482 2653.42 982.757 2653.42 981.031 2653.99 979.305 2654.57 977.58 2654.57 975.854 2655.14 973.553 2655.14 971.828 2655.71 970.102 2655.71 967.801 2656.28 966.075 2656.28 963.774 2656.86 962.049 2656.86 959.748 2657.43 958.022 2658 955.721 2658 953.996 2658.57 951.695 2659.15 949.969 2659.15 947.668 2659.72 945.943 2659.72 943.642 2660.29 941.916 2660.86 939.615 2660.86 937.889 2661.44 936.164 2661.44 933.863 2662.01 932.137 2662.01 930.412 2662.58 928.686 2662.58 926.385 2663.16 924.659 2663.73 922.934 2663.73 921.208 2664.3 919.482 2664.3 918.332 2664.87 916.606 2664.87 914.881 2665.45 913.73 2666.02 912.58 2666.02 910.854 2666.59 909.704 2666.59 908.553 2667.16 907.403 2667.74 906.252 2667.74 905.677 2668.31 904.527 2668.31 903.951 2668.88 903.376 2669.45 902.801 2669.45 901.651 2670.03 901.651 2670.03 901.075 2670.6 900.5 2670.6 900.5 2671.17 900.5 2671.17 900.5 2671.74 900.5 2671.74 900.5 2672.32 900.5 2672.89 901.075 2672.89 901.651 2673.46 901.651 2673.46 902.801 2674.03 903.376 2674.61 903.951 2674.61 904.527 2675.18 905.677 2675.18 906.252 2675.75 907.403 2676.32 908.553 2676.32 909.704 2676.9 910.854 2676.9 912.58 2677.47 913.73 2678.04 914.881 2678.04 916.606 2678.62 918.332 2678.62 919.482 2679.19 921.208 2679.19 922.934 2679.76 924.659 2679.76 926.385 2680.33 928.686 2680.33 930.412 2680.91 932.137 2681.48 933.863 2681.48 936.164 2682.05 937.889 2682.05 939.615 2682.62 941.916 2683.2 943.642 2683.2 945.943 2683.77 947.668 2683.77 949.969 2684.34 951.695 2684.91 953.996 2684.91 955.721 2685.49 958.022 2685.49 959.748 2686.06 962.049 2686.63 963.774 2686.63 966.075 2687.2 967.801 2687.2 970.102 2687.78 971.828 2687.78 973.553 2688.35 975.854 2688.35 977.58 2688.92 979.305 2688.92 981.031 2689.49 982.757 2690.07 984.482 2690.07 986.208 2690.64 987.934 2690.64 989.659 2691.21 990.81 2691.78 992.535 2691.78 994.261 2692.36 995.412 2692.36 997.137 2692.93 998.288 2693.5 1000.01 2693.5 1001.16 2694.08 1002.31 2694.08 1003.46 2694.65 1004.62 2694.65 1005.77 2695.22 1006.92 2695.79 1008.07 2695.79 1009.22 2696.37 1010.37 2696.37 1010.94 2696.94 1012.09 2696.94 1013.24 2697.51 1013.82 2697.51 1014.97 2698.08 1015.54 2698.66 1016.12 2698.66 1017.27 2699.23 1017.85 2699.23 1018.42 2699.8 1019 2700.37 1019.57 2700.37 1020.15 2700.95 1020.72 2700.95 1021.3 2701.52 1021.87 2702.09 1022.45 2702.09 1023.02 2702.66 1023.6 2702.66 1023.6 2703.24 1024.17 2703.24 1024.75 2703.81 1024.75 2703.81 1025.32 2704.38 1025.9 2704.95 1025.9 2704.95 1026.47 2705.53 1026.47 2705.53 1026.47 2706.1 1027.05 2706.67 1027.05 2706.67 1027.62 2707.25 1027.62 2707.25 1027.62 2707.82 1028.2 2708.39 1028.2 2708.39 1028.2 2708.96 1028.2 2708.96 1028.77 2709.54 1028.77 2710.11 1028.77 2710.11 1028.77 2710.68 1029.35 2710.68 1029.35 2711.25 1029.35 2711.25 1029.35 2711.83 1029.35 2711.83 1029.35 2712.4 1029.35 2712.4 1029.35 2712.97 1029.35 2713.54 1029.92 2713.54 1029.92 2714.12 1029.92 2714.12 1029.92 2714.69 1029.92 2715.26 1029.92 2715.26 1029.92 2715.83 1029.92 2715.83 1029.92 2716.41 1029.92 2716.98 1029.92 2716.98 1029.92 2717.55 1029.92 2717.55 1030.5 2718.12 1030.5 2718.7 1030.5 2718.7 1030.5 2719.27 1030.5 2719.27 1030.5 2719.84 1030.5 2719.84 1030.5 2720.41 1030.5 2720.41 1030.5 2720.99 1030.5 2720.99 1030.5 2721.56 1030.5 2722.13 1030.5 2722.13 1030.5 2722.71 1030.5 2722.71 1030.5 2723.28 1030.5 2723.85 1030.5 2723.85 1030.5 2724.42 1030.5 2724.42 1030.5 2725 1030.5 2725.57 1030.5 2725.57 1030.5 2726.14 1030.5 2726.14 1030.5 2726.71 1030.5 2726.71 1030.5 2727.29 1030.5 2727.86 1030.5 2727.86 1030.5 2728.43 1030.5 2728.43 1030.5 2729 1030.5 2729 1030.5 2729.58 1030.5 2729.58 1030.5 2730.15 1030.5 2730.72 1030.5 2730.72 1030.5 2731.29 1030.5 2731.29 1030.5 2731.87 1030.5 2732.44 1030.5 2732.44 1030.5 2733.01 1030.5 2733.01 1030.5 2733.58 1030.5 2734.16 1030.5 2734.16 1030.5 2734.73 1030.5 2734.73 1030.5 2735.3 1030.5 2735.3 1030.5 2735.87 1030.5 2735.87 1030.5 2736.45 1030.5 2737.02 1030.5 2737.02 1030.5 2737.59 1030.5 2737.59 1030.5 2738.17 1030.5 2738.17 1030.5 2738.74 1030.5 2739.31 1030.5 2739.31 1030.5 2739.88 1030.5 2739.88 1030.5 2740.46 1030.5 2741.03 1030.5 2741.03 1030.5 2741.6 1030.5 2741.6 1030.5 2742.17 1030.5 2742.75 1030.5 2742.75 1030.5 2743.32 1030.5 2743.32 1030.5 2743.89 1030.5 2743.89 1030.5 2744.46 1030.5 2744.46 1030.5 2745.04 1030.5 2745.04 1030.5 2745.61 1030.5 2746.18 1030.5 2746.18 1030.5 2746.75 1030.5 2747.33 1030.5 2747.33 1030.5 2747.9 1030.5 2747.9 1030.5 2748.47 1030.5 2749.04 1030.5 2749.04 1030.5 2749.62 1030.5 2749.62 1030.5 2750.19 1030.5 2750.19 1030.5 2750.76 1030.5 2751.33 1030.5 2751.33 1030.5 2751.91 1030.5 2751.91 1030.5 2752.48 1030.5 2752.48 1030.5 2753.05 1030.5 2753.05 1030.5 2753.63 1030.5 2754.2 1030.5 2754.2 1030.5 2754.77 1030.5 2754.77 1030.5 2755.34 1030.5 2755.92 1030.5 2755.92 1030.5 2756.49 1030.5 2756.49 1030.5 2757.06 1030.5 2757.63 1030.5 2757.63 1030.5 2758.21 1030.5 2758.21 1030.5 2758.78 1030.5 2758.78 1030.5 2759.35 1030.5 2759.92 1030.5 2759.92 1030.5 2760.5 1030.5 2760.5 1030.5 2761.07 1030.5 2761.07 1030.5 2761.64 1030.5 2761.64 1030.5 2762.21 1030.5 2762.79 1030.5 2762.79 1030.5 2763.36 1030.5 2763.36 1030.5 2763.93 1030.5 2764.5 1030.5 2764.5 1030.5 2765.08 1030.5 2765.08 1030.5 2765.65 1030.5 2766.22 1030.5 2766.22 1030.5 2766.79 1030.5 2766.79 1030.5 2767.37 1030.5 2767.37 1030.5 2767.94 1030.5 2767.94 1030.5 2768.51 1030.5 2769.09 1030.5 2769.09 1030.5 2769.66 1030.5 2769.66 1030.5 2770.23 1030.5 2770.23 1030.5 2770.8 1030.5 2771.38 1030.5 2771.38 1030.5 2771.95 1030.5 2771.95 1030.5 2772.52 1030.5 2773.09 1030.5 2773.09 1030.5 2773.67 1030.5 2773.67 1030.5 2774.24 1030.5 2774.81 1030.5 2774.81 1030.5 2775.38 1030.5 2775.38 1030.5 2775.96 1030.5 2775.96 1030.5 2776.53 1030.5 2776.53 1030.5 2777.1 1030.5 2777.1 1030.5 2777.67 1030.5 2778.25 1030.5 2778.25 1030.5 2778.82 1030.5 2778.82 1030.5 2779.39 1030.5 2779.96 1029.92 2779.96 1029.92 2780.54 1029.92 2780.54 1029.92 2781.11 1029.92 2781.68 1029.92 2781.68 1029.92 2782.26 1029.92 2782.26 1029.92 2782.83 1029.92 2783.4 1029.92 2783.4 1029.92 2783.97 1029.92 2783.97 1029.35 2784.55 1029.35 2784.55 1029.35 2785.12 1029.35 2785.12 1029.35 2785.69 1029.35 2785.69 1029.35 2786.26 1029.35 2786.84 1029.35 2786.84 1028.77 2787.41 1028.77 2787.41 1028.77 2787.98 1028.77 2788.55 1028.2 2788.55 1028.2 2789.13 1028.2 2789.7 1028.2 2789.7 1027.62 2790.27 1027.62 2790.27 1027.62 2790.84 1027.05 2790.84 1027.05 2791.42 1026.47 2791.42 1026.47 2791.99 1026.47 2792.56 1025.9 2792.56 1025.9 2793.13 1025.32 2793.13 1024.75 2793.71 1024.75 2793.71 1024.17 2794.28 1023.6 2794.85 1023.6 2794.85 1023.02 2795.42 1022.45 2795.42 1021.87 2796 1021.3 2796.57 1020.72 2796.57 1020.15 2797.14 1019.57 2797.14 1019 2797.72 1018.42 2798.29 1017.85 2798.29 1017.27 2798.86 1016.12 2798.86 1015.54 2799.43 1014.97 2799.43 1013.82 2800.01 1013.24 2800.01 1012.09 2800.58 1010.94 2801.15 1010.37 2801.15 1009.22 2801.72 1008.07 2801.72 1006.92 2802.3 1005.77 2802.3 1004.62 2802.87 1003.46 2803.44 1002.31 2803.44 1001.16 2804.01 1000.01 2804.01 998.288 2804.59 997.137 2805.16 995.412 2805.16 994.261 2805.73 992.535 2805.73 990.81 2806.3 989.659 2806.88 987.934 2806.88 986.208 2807.45 984.482 2807.45 982.757 2808.02 981.031 2808.02 979.305 2808.59 977.58 2808.59 975.854 2809.17 973.553 2809.17 971.828 2809.74 970.102 2810.31 967.801 2810.31 966.075 2810.88 963.774 2810.88 962.049 2811.46 959.748 2812.03 958.022 2812.03 955.721 2812.6 953.996 2812.6 951.695 2813.18 949.969 2813.75 947.668 2813.75 945.943 2814.32 943.642 2814.32 941.916 2814.89 939.615 2815.47 937.889 2815.47 936.164 2816.04 933.863 2816.04 932.137 2816.61 930.412 2816.61 928.686 2817.18 926.385 2817.18 924.659 2817.76 922.934 2817.76 921.208 2818.33 919.482 2818.9 918.332 2818.9 916.606 2819.47 914.881 2819.47 913.73 2820.05 912.58 2820.62 910.854 2820.62 909.704 2821.19 908.553 2821.19 907.403 2821.76 906.252 2822.34 905.677 2822.34 904.527 2822.91 903.951 2822.91 903.376 2823.48 902.801 2823.48 901.651 2824.05 901.651 2824.63 901.075 2824.63 900.5 2825.2 900.5 2825.2 900.5 2825.77 900.5 2825.77 900.5 2826.34 900.5 2826.34 900.5 2826.92 901.075 2827.49 901.651 2827.49 901.651 2828.06 902.801 2828.06 903.376 2828.64 903.951 2829.21 904.527 2829.21 905.677 2829.78 906.252 2829.78 907.403 2830.35 908.553 2830.93 909.704 2830.93 910.854 2831.5 912.58 2831.5 913.73 2832.07 914.881 2832.07 916.606 2832.64 918.332 2832.64 919.482 2833.22 921.208 2833.79 922.934 2833.79 924.659 2834.36 926.385 2834.36 928.686 2834.93 930.412 2835.51 932.137 2835.51 933.863 2836.08 936.164 2836.08 937.889 2836.65 939.615 2837.22 941.916 2837.22 943.642 2837.8 945.943 2837.8 947.668 2838.37 949.969 2838.94 951.695 2838.94 953.996 2839.51 955.721 2839.51 958.022 2840.09 959.748 2840.09 962.049 2840.66 963.774 2840.66 966.075 2841.23 967.801 2841.23 970.102 2841.81 971.828 2842.38 973.553 2842.38 975.854 2842.95 977.58 2842.95 979.305 2843.52 981.031 2844.1 982.757 2844.1 984.482 2844.67 986.208 2844.67 987.934 2845.24 989.659 2845.81 990.81 2845.81 992.535 2846.39 994.261 2846.39 995.412 2846.96 997.137 2847.53 998.288 2847.53 1000.01 2848.1 1001.16 2848.1 1002.31 2848.68 1003.46 2848.68 1004.62 2849.25 1005.77 2849.25 1006.92 2849.82 1008.07 2849.82 1009.22 2850.39 1010.37 2850.97 1010.94 2850.97 1012.09 2851.54 1013.24 2851.54 1013.82 2852.11 1014.97 2852.68 1015.54 2852.68 1016.12 2853.26 1017.27 2853.26 1017.85 2853.83 1018.42 2854.4 1019 2854.4 1019.57 2854.97 1020.15 2854.97 1020.72 2855.55 1021.3 2855.55 1021.87 2856.12 1022.45 2856.69 1023.02 2856.69 1023.6 2857.27 1023.6 2857.27 1024.17 2857.84 1024.75 2857.84 1024.75 2858.41 1025.32 2858.41 1025.9 2858.98 1025.9 2859.56 1026.47 2859.56 1026.47 2860.13 1026.47 2860.13 1027.05 2860.7 1027.05 2861.27 1027.62 2861.27 1027.62 2861.85 1027.62 2861.85 1028.2 2862.42 1028.2 2862.99 1028.2 2862.99 1028.2 2863.56 1028.77 2863.56 1028.77 2864.14 1028.77 2864.14 1028.77 2864.71 1029.35 2864.71 1029.35 2865.28 1029.35 2865.85 1029.35 2865.85 1029.35 2866.43 1029.35 2866.43 1029.35 2867 1029.35 2867 1029.35 2867.57 1029.92 2868.14 1029.92 2868.14 1029.92 2868.72 1029.92 2868.72 1029.92 2869.29 1029.92 2869.86 1029.92 2869.86 1029.92 2870.43 1029.92 2870.43 1029.92 2871.01 1029.92 2871.58 1029.92 2871.58 1029.92 2872.15 1030.5 2872.15 1030.5 2872.73 1030.5 2872.73 1030.5 2873.3 1030.5 2873.3 1030.5 2873.87 1030.5 2873.87 1030.5 2874.44 1030.5 2875.02 1030.5 2875.02 1030.5 2875.59 1030.5 2875.59 1030.5 2876.16 1030.5 2876.73 1030.5 2876.73 1030.5 2877.31 1030.5 2877.88 1030.5 2877.88 1030.5 2878.45 1030.5 2878.45 1030.5 2879.02 1030.5 2879.6 1030.5 2879.6 1030.5 2880.17 1030.5 2880.17 1030.5 2880.74 1030.5 2880.74 1030.5 2881.31 1030.5 2881.31 1030.5 2881.89 1030.5 2881.89 1030.5 2882.46 1030.5 2883.03 1030.5 2883.03 1030.5 2883.6 1030.5 2883.6 1030.5 2884.18 1030.5 2884.75 1030.5 2884.75 1030.5 2885.32 1030.5 2885.32 1030.5 2885.9 1030.5 2886.47 1030.5 2886.47 1030.5 2887.04 1030.5 2887.04 1030.5 2887.61 1030.5 2887.61 1030.5 2888.19 1030.5 2888.76 1030.5 2888.76 1030.5 2889.33 1030.5 2889.33 1030.5 2889.9 1030.5 2889.9 1030.5 2890.48 1030.5 2890.48 1030.5 2891.05 1030.5 2891.62 1030.5 2891.62 1030.5 2892.19 1030.5 2892.19 1030.5 2892.77 1030.5 2893.34 1030.5 2893.34 1030.5 2893.91 1030.5 2893.91 1030.5 2894.48 1030.5 2895.06 1030.5 2895.06 1030.5 2895.63 1030.5 2895.63 1030.5 2896.2 1030.5 2896.2 1030.5 2896.77 1030.5 2896.77 1030.5 2897.35 1030.5 2897.92 1030.5 2897.92 1030.5 2898.49 1030.5 2898.49 1030.5 2899.06 1030.5 2899.06 1030.5 2899.64 1030.5 2900.21 1030.5 2900.21 1030.5 2900.78 1030.5 2900.78 1030.5 2901.35 1030.5 2901.93 1030.5 2901.93 1030.5 2902.5 1030.5 2902.5 1030.5" stroke="#0072BD" stroke-width="3.4375" stroke-linejoin="round" stroke-miterlimit="10" fill="none" fill-rule="evenodd"/></g></svg>