<svg width="2743" height="1934" xmlns="http://www.w3.org/2000/svg" xmlns:xlink="http://www.w3.org/1999/xlink" overflow="hidden"><defs><clipPath id="clip0"><rect x="35" y="464" width="2743" height="1934"/></clipPath></defs><g clip-path="url(#clip0)" transform="translate(-35 -464)"><path d="M1293.5 631.5C1293.5 578.481 1336.48 535.5 1389.5 535.5 1442.52 535.5 1485.5 578.481 1485.5 631.5 1485.5 684.519 1442.52 727.5 1389.5 727.5 1336.48 727.5 1293.5 684.519 1293.5 631.5Z" stroke="#000000" stroke-width="3.4375" stroke-linejoin="round" stroke-miterlimit="10" fill="none" fill-rule="evenodd"/><text font-family="Symbol,Symbol_MSFontService,sans-serif" font-weight="400" font-size="110" transform="matrix(1 0 0 1 1356.09 672)"><tspan font-family="Times New Roman,Times New Roman_MSFontService,sans-serif" font-style="italic" font-size="83" x="-1271.3" y="-78">x</tspan><tspan font-family="Times New Roman,Times New Roman_MSFontService,sans-serif" font-size="83" x="-1234.64" y="-78">[</tspan><tspan font-family="Times New Roman,Times New Roman_MSFontService,sans-serif" font-style="italic" font-size="83" x="-1207.14" y="-78">n</tspan><tspan font-family="Times New Roman,Times New Roman_MSFontService,sans-serif" font-size="83" x="-1165.89" y="-78">]</tspan></text><path d="M9.02888e-07-1.71875 664.083-1.7184 664.083 1.7191-9.02888e-07 1.71875ZM659.5-13.7497 687 0.000360892 659.5 13.7503Z" transform="matrix(1 0 0 -1 193.5 633.5)"/><text font-family="Times New Roman,Times New Roman_MSFontService,sans-serif" font-style="italic" font-weight="400" font-size="83" transform="matrix(1 0 0 1 2573.54 569)">y<tspan font-style="normal" font-size="83" x="36.6668" y="0">[</tspan><tspan font-size="83" x="64.1668" y="0">n</tspan><tspan font-style="normal" font-size="83" x="105.417" y="0">]</tspan></text><path d="M1100.5 631.781 1270.58 631.782 1270.58 635.219 1100.5 635.219ZM1266 619.75 1293.5 633.5 1266 647.25Z"/><path d="M1.58894-0.655268 185.852 446.159 182.674 447.469-1.58894 0.655268ZM195.227 437.335 193 468 169.804 447.819Z" transform="matrix(1 0 0 -1 1100.5 1128.5)"/><path d="M1.66417-0.429714 215.935 829.381 212.606 830.241-1.66417 0.429714ZM226.438 821.935 220 852 199.811 828.811Z" transform="matrix(1 0 0 -1 1100.5 1540.5)"/><path d="M1.69104-0.307361 272.593 1490.15 269.211 1490.76-1.69104 0.307361ZM283.611 1483.48 275 1513 256.554 1488.4Z" transform="matrix(1 0 0 -1 1100.5 2228.5)"/><path d="M1485.5 631.781 2562.58 631.782 2562.58 635.219 1485.5 635.219ZM2558 619.75 2585.5 633.5 2558 647.25Z"/><text font-family="Times New Roman,Times New Roman_MSFontService,sans-serif" font-style="italic" font-weight="400" font-size="83" transform="matrix(1 0 0 1 2205.5 2269)">y<tspan font-style="normal" font-size="83" x="36.6668" y="0">[</tspan><tspan font-size="83" x="64.1668" y="0">n</tspan><tspan font-style="normal" font-size="83" x="105.417" y="0">-</tspan>M<tspan font-style="normal" font-size="83" x="201.667" y="0">]</tspan></text><path d="M1621.85 1128.99 1490.33 682.967 1493.63 681.995 1625.15 1128.01ZM1480.09 690.766 1485.5 660.5 1506.47 682.988Z"/><path d="M1621.81 1540.83 1461.17 711.327 1464.54 710.673 1625.19 1540.17ZM1450.23 718.113 1458.5 688.5 1477.23 712.884Z"/><path d="M1621.8 2228.75 1405.1 738.426 1408.5 737.932 1625.2 2228.25ZM1393.85 744.692 1403.5 715.5 1421.06 740.735Z"/><text font-family="Times New Roman,Times New Roman_MSFontService,sans-serif" font-style="italic" font-weight="400" font-size="83" transform="matrix(1 0 0 1 308 1169)">x<tspan font-style="normal" font-size="83" x="36.6667" y="0">[</tspan><tspan font-size="83" x="64.1667" y="0">n</tspan><tspan font-style="normal" font-size="83" x="105.417" y="0">-</tspan><tspan font-style="normal" font-size="83" x="132.917" y="0">1]</tspan><tspan font-size="83" x="27.5" y="413">x</tspan><tspan font-style="normal" font-size="83" x="64.1667" y="413">[</tspan>n<tspan font-style="normal" font-size="83" x="132.917" y="413">-</tspan><tspan font-style="normal" font-size="83" x="160.417" y="413">2]</tspan></text><path d="M0 220 110 0 220 220Z" stroke="#000000" stroke-width="3.4375" stroke-miterlimit="8" fill="none" fill-rule="evenodd" transform="matrix(-6.12323e-17 -1 -1 6.12323e-17 1100.5 1650.5)"/><text font-family="Times New Roman,Times New Roman_MSFontService,sans-serif" font-style="italic" font-weight="400" font-size="83" transform="matrix(1 0 0 1 914.375 1554)">b<tspan font-style="normal" font-size="55" x="41.25" y="20">2</tspan></text><path d="M0 220 110 0 220 220Z" stroke="#000000" stroke-width="3.4375" stroke-miterlimit="8" fill="none" fill-rule="evenodd" transform="matrix(-6.12323e-17 -1 -1 6.12323e-17 1100.5 1238.5)"/><text font-family="Times New Roman,Times New Roman_MSFontService,sans-serif" font-style="italic" font-weight="400" font-size="83" transform="matrix(1 0 0 1 914.375 1142)">b<tspan font-style="normal" font-size="55" x="41.25" y="20">1</tspan></text><path d="M0 220 110 0 220 220Z" stroke="#000000" stroke-width="3.4375" stroke-miterlimit="8" fill="none" fill-rule="evenodd" transform="matrix(-6.12323e-17 -1 -1 6.12323e-17 1100.5 743.5)"/><text font-family="Times New Roman,Times New Roman_MSFontService,sans-serif" font-style="italic" font-weight="400" font-size="83" transform="matrix(1 0 0 1 914.375 660)">b<tspan font-style="normal" font-size="55" x="41.25" y="20">0</tspan></text><rect x="440.5" y="853.5" width="275" height="192" stroke="#000000" stroke-width="3.4375" stroke-miterlimit="8" fill="none"/><text font-family="Times New Roman,Times New Roman_MSFontService,sans-serif" font-weight="400" font-size="83" transform="matrix(1 0 0 1 504.167 930)">Unit<tspan font-size="83" x="-25.2083" y="99">Delay</tspan></text><rect x="440.5" y="1265.5" width="275" height="193" stroke="#000000" stroke-width="3.4375" stroke-miterlimit="8" fill="none"/><text font-family="Times New Roman,Times New Roman_MSFontService,sans-serif" font-weight="400" font-size="83" transform="matrix(1 0 0 1 504.167 1342)">Unit<tspan font-size="83" x="-25.2083" y="99">Delay</tspan></text><rect x="440.5" y="1953.5" width="275" height="192" stroke="#000000" stroke-width="3.4375" stroke-miterlimit="8" fill="none"/><text font-family="Times New Roman,Times New Roman_MSFontService,sans-serif" font-weight="400" font-size="83" transform="matrix(1 0 0 1 504.167 2030)">Unit<tspan font-size="83" x="-25.2083" y="99">Delay</tspan></text><path d="M580.219 633.5 580.219 830.583 576.782 830.583 576.781 633.5ZM592.25 826 578.5 853.5 564.75 826Z"/><path d="M580.219 1045.5 580.219 1242.58 576.782 1242.58 576.781 1045.5ZM592.25 1238 578.5 1265.5 564.75 1238Z"/><path d="M578.5 1126.78 857.583 1126.78 857.583 1130.22 578.5 1130.22ZM853 1114.75 880.5 1128.5 853 1142.25Z"/><path d="M580.219 1458.5 580.219 1655.58 576.782 1655.58 576.781 1458.5ZM592.25 1651 578.5 1678.5 564.75 1651Z"/><path d="M578.5 1538.78 857.583 1538.78 857.583 1542.22 578.5 1542.22ZM853 1526.75 880.5 1540.5 853 1554.25Z"/><text font-family="Times New Roman,Times New Roman_MSFontService,sans-serif" font-style="italic" font-weight="400" font-size="83" transform="matrix(1 0 0 1 335.5 2269)">x<tspan font-style="normal" font-size="83" x="36.6667" y="0">[</tspan><tspan font-size="83" x="64.1667" y="0">n</tspan><tspan font-style="normal" font-size="83" x="105.417" y="0">-</tspan>N<tspan font-style="normal" font-size="83" x="187.917" y="0">]</tspan></text><path d="M0 220 110 0 220 220Z" stroke="#000000" stroke-width="3.4375" stroke-miterlimit="8" fill="none" fill-rule="evenodd" transform="matrix(-6.12323e-17 -1 -1 6.12323e-17 1100.5 2338.5)"/><text font-family="Times New Roman,Times New Roman_MSFontService,sans-serif" font-style="italic" font-weight="400" font-size="83" transform="matrix(1 0 0 1 909.792 2242)">b<tspan font-size="55" x="41.25" y="20">N</tspan></text><path d="M578.5 2226.78 857.583 2226.78 857.583 2230.22 578.5 2230.22ZM853 2214.75 880.5 2228.5 853 2242.25Z"/><path d="M0 0 0.000360892 83.0002" stroke="#000000" stroke-width="3.4375" stroke-linejoin="round" stroke-miterlimit="10" fill="none" fill-rule="evenodd" transform="matrix(1 0 0 -1 578.5 2228.5)"/><path d="M580.219 1870.5 580.219 1930.58 576.782 1930.58 576.781 1870.5ZM592.25 1926 578.5 1953.5 564.75 1926Z"/><path d="M567.5 1719.5C567.5 1711.77 573.768 1705.5 581.5 1705.5 589.232 1705.5 595.5 1711.77 595.5 1719.5 595.5 1727.23 589.232 1733.5 581.5 1733.5 573.768 1733.5 567.5 1727.23 567.5 1719.5Z" stroke="#000000" stroke-width="3.4375" stroke-linejoin="round" stroke-miterlimit="10" fill-rule="evenodd"/><path d="M566.5 1774.5C566.5 1766.77 572.768 1760.5 580.5 1760.5 588.232 1760.5 594.5 1766.77 594.5 1774.5 594.5 1782.23 588.232 1788.5 580.5 1788.5 572.768 1788.5 566.5 1782.23 566.5 1774.5Z" stroke="#000000" stroke-width="3.4375" stroke-linejoin="round" stroke-miterlimit="10" fill-rule="evenodd"/><path d="M567.5 1829.5C567.5 1821.77 573.768 1815.5 581.5 1815.5 589.232 1815.5 595.5 1821.77 595.5 1829.5 595.5 1837.23 589.232 1843.5 581.5 1843.5 573.768 1843.5 567.5 1837.23 567.5 1829.5Z" stroke="#000000" stroke-width="3.4375" stroke-linejoin="round" stroke-miterlimit="10" fill-rule="evenodd"/><rect x="275.5" y="468.5" width="908" height="1925" stroke="#FF0000" stroke-width="9.16667" stroke-miterlimit="8" stroke-dasharray="36.6667 27.5" fill="none"/><text fill="#FF0101" font-family="Times New Roman,Times New Roman_MSFontService,sans-serif" font-style="italic" font-weight="700" font-size="110" transform="matrix(1 0 0 1 762.552 1758)">Feed-<tspan font-size="110" x="-49.2709" y="132">forward</tspan></text><path d="M1843.5 1238.5 1623.5 1128.5 1843.5 1018.5Z" stroke="#000000" stroke-width="3.4375" stroke-miterlimit="8" fill="none" fill-rule="evenodd"/><text font-family="Times New Roman,Times New Roman_MSFontService,sans-serif" font-style="italic" font-weight="400" font-size="83" transform="matrix(1 0 0 1 1725.62 1142)">-<tspan font-size="83" x="27.5" y="0">a</tspan><tspan font-style="normal" font-size="55" x="68.75" y="20">1</tspan></text><path d="M1843.5 1650.5 1623.5 1540.5 1843.5 1430.5Z" stroke="#000000" stroke-width="3.4375" stroke-miterlimit="8" fill="none" fill-rule="evenodd"/><text font-family="Times New Roman,Times New Roman_MSFontService,sans-serif" font-style="italic" font-weight="400" font-size="83" transform="matrix(1 0 0 1 1725.62 1554)">-<tspan font-size="83" x="27.5" y="0">a</tspan><tspan font-style="normal" font-size="55" x="68.75" y="20">2</tspan><tspan font-size="83" x="479.875" y="-385">y</tspan><tspan font-style="normal" font-size="83" x="516.542" y="-385">[</tspan>n<tspan font-style="normal" font-size="83" x="585.292" y="-385">-</tspan><tspan font-style="normal" font-size="83" x="612.792" y="-385">1]</tspan><tspan font-size="83" x="507.375" y="28">y</tspan><tspan font-style="normal" font-size="83" x="544.042" y="28">[</tspan>n<tspan font-style="normal" font-size="83" x="612.792" y="28">-</tspan><tspan font-style="normal" font-size="83" x="640.292" y="28">2]</tspan></text><rect x="2008.5" y="853.5" width="275" height="192" stroke="#000000" stroke-width="3.4375" stroke-miterlimit="8" fill="none"/><text font-family="Times New Roman,Times New Roman_MSFontService,sans-serif" font-weight="400" font-size="83" transform="matrix(1 0 0 1 2071.67 930)">Unit<tspan font-size="83" x="-25.2083" y="99">Delay</tspan></text><rect x="2008.5" y="1265.5" width="275" height="193" stroke="#000000" stroke-width="3.4375" stroke-miterlimit="8" fill="none"/><text font-family="Times New Roman,Times New Roman_MSFontService,sans-serif" font-weight="400" font-size="83" transform="matrix(1 0 0 1 2071.67 1342)">Unit<tspan font-size="83" x="-25.2083" y="99">Delay</tspan></text><rect x="2008.5" y="1953.5" width="275" height="192" stroke="#000000" stroke-width="3.4375" stroke-miterlimit="8" fill="none"/><text font-family="Times New Roman,Times New Roman_MSFontService,sans-serif" font-weight="400" font-size="83" transform="matrix(1 0 0 1 2071.67 2030)">Unit<tspan font-size="83" x="-25.2083" y="99">Delay</tspan></text><path d="M2147.22 1045.5 2147.22 1242.58 2143.78 1242.58 2143.78 1045.5ZM2159.25 1238 2145.5 1265.5 2131.75 1238Z"/><path d="M2.05392e-06-1.71875 279.083-1.71842 279.083 1.71908-2.05392e-06 1.71875ZM274.5-13.7497 302 0.000360892 274.5 13.7503Z" transform="matrix(-1 0 0 1 2145.5 1128.5)"/><path d="M2147.22 1458.5 2147.22 1655.58 2143.78 1655.58 2143.78 1458.5ZM2159.25 1651 2145.5 1678.5 2131.75 1651Z"/><path d="M2.05392e-06-1.71875 279.083-1.71842 279.083 1.71908-2.05392e-06 1.71875ZM274.5-13.7497 302 0.000360892 274.5 13.7503Z" transform="matrix(-1 0 0 1 2145.5 1540.5)"/><path d="M2.05392e-06-1.71875 279.083-1.71842 279.083 1.71908-2.05392e-06 1.71875ZM274.5-13.7497 302 0.000360892 274.5 13.7503Z" transform="matrix(-1 0 0 1 2145.5 2228.5)"/><path d="M0 0 0.000360892 83.0002" stroke="#000000" stroke-width="3.4375" stroke-linejoin="round" stroke-miterlimit="10" fill="none" fill-rule="evenodd" transform="matrix(1 0 0 -1 2145.5 2228.5)"/><path d="M2147.22 1870.5 2147.22 1930.58 2143.78 1930.58 2143.78 1870.5ZM2159.25 1926 2145.5 1953.5 2131.75 1926Z"/><path d="M2135.5 1719.5C2135.5 1711.77 2141.54 1705.5 2149 1705.5 2156.46 1705.5 2162.5 1711.77 2162.5 1719.5 2162.5 1727.23 2156.46 1733.5 2149 1733.5 2141.54 1733.5 2135.5 1727.23 2135.5 1719.5Z" stroke="#000000" stroke-width="3.4375" stroke-linejoin="round" stroke-miterlimit="10" fill-rule="evenodd"/><path d="M2134.5 1774.5C2134.5 1766.77 2140.54 1760.5 2148 1760.5 2155.46 1760.5 2161.5 1766.77 2161.5 1774.5 2161.5 1782.23 2155.46 1788.5 2148 1788.5 2140.54 1788.5 2134.5 1782.23 2134.5 1774.5Z" stroke="#000000" stroke-width="3.4375" stroke-linejoin="round" stroke-miterlimit="10" fill-rule="evenodd"/><path d="M2135.5 1829.5C2135.5 1821.77 2141.54 1815.5 2149 1815.5 2156.46 1815.5 2162.5 1821.77 2162.5 1829.5 2162.5 1837.23 2156.46 1843.5 2149 1843.5 2141.54 1843.5 2135.5 1837.23 2135.5 1829.5Z" stroke="#000000" stroke-width="3.4375" stroke-linejoin="round" stroke-miterlimit="10" fill-rule="evenodd"/><path d="M1843.5 2338.5 1623.5 2228.5 1843.5 2118.5Z" stroke="#000000" stroke-width="3.4375" stroke-miterlimit="8" fill="none" fill-rule="evenodd"/><text font-family="Times New Roman,Times New Roman_MSFontService,sans-serif" font-style="italic" font-weight="400" font-size="83" transform="matrix(1 0 0 1 1716.46 2242)">-<tspan font-size="83" x="27.5" y="0">a</tspan><tspan font-size="55" x="68.75" y="20">M</tspan></text><path d="M2147.22 633.5 2147.22 830.583 2143.78 830.583 2143.78 633.5ZM2159.25 826 2145.5 853.5 2131.75 826Z"/><rect x="1568.5" y="468.5" width="907" height="1925" stroke="#0000FF" stroke-width="9.16667" stroke-miterlimit="8" stroke-dasharray="36.6667 27.5" fill="none"/><text fill="#0000CC" font-family="Times New Roman,Times New Roman_MSFontService,sans-serif" font-style="italic" font-weight="700" font-size="110" transform="matrix(1 0 0 1 1628 1827)">Feedback</text></g></svg>