<svg width="2723" height="453" xmlns="http://www.w3.org/2000/svg" xmlns:xlink="http://www.w3.org/1999/xlink" overflow="hidden"><defs><clipPath id="clip0"><rect x="898" y="999" width="2723" height="453"/></clipPath></defs><g clip-path="url(#clip0)" transform="translate(-898 -999)"><path d="M899.5 1139.78 902.937 1137.49 905.802 1135.78 908.666 1134.07 911.53 1132.92 914.968 1131.78 917.832 1130.64 921.269 1129.5 924.134 1128.93 926.998 1127.78 929.862 1127.78 933.3 1127.78 936.164 1127.78 939.028 1129.5 941.893 1131.78 945.33 1135.21 948.194 1139.78 951.059 1146.06 954.496 1154.05 957.36 1163.76 960.225 1175.18 963.662 1188.31 966.526 1202.02 969.391 1216.86 972.828 1232.28 975.692 1247.7 978.557 1262.55 981.421 1276.25 984.858 1288.24 987.723 1297.95 991.16 1305.94 994.024 1310.51 996.888 1312.22 999.753 1310.51 1003.19 1305.94 1006.05 1297.95 1008.92 1288.24 1012.36 1276.25 1015.22 1262.55 1018.08 1247.7 1020.95 1232.28 1024.39 1216.86 1027.25 1202.02 1030.12 1188.31 1032.98 1175.18 1036.42 1163.76 1039.28 1154.05 1042.72 1146.06 1045.58 1139.78 1048.45 1135.21 1051.31 1131.78 1054.75 1128.93 1057.61 1127.78 1061.05 1126.64 1063.91 1126.07 1066.78 1125.5 1069.64 1125.5 1073.08 1125.5 1075.94 1126.07 1078.81 1126.64 1082.25 1127.78 1085.11 1128.93 1087.98 1131.78 1090.84 1135.21 1094.28 1139.78 1097.14 1146.06 1100.01 1154.05 1103.44 1163.76 1106.31 1175.18 1109.17 1188.31 1112.61 1202.02 1115.47 1216.86 1118.34 1232.28 1121.2 1247.7 1124.64 1262.55 1127.5 1276.25 1130.94 1288.24 1133.81 1297.95 1136.67 1305.94 1139.53 1310.51 1142.97 1312.22 1145.84 1310.51 1148.7 1305.94 1152.14 1297.95 1155 1288.24 1157.87 1276.25 1160.73 1262.55 1164.17 1247.7 1167.03 1232.28 1169.9 1216.86 1173.33 1202.02 1176.2 1188.31 1179.06 1175.18 1182.5 1163.76 1185.36 1154.05 1188.23 1146.06 1191.09 1139.78 1194.53 1135.21 1197.39 1131.78 1200.83 1129.5 1203.7 1128.35 1206.56 1128.35 1209.42 1128.93 1212.86 1130.64 1215.73 1131.78 1218.59 1133.49 1222.03 1135.21 1224.89 1136.92 1227.76 1138.06 1230.62 1138.63 1234.06 1139.2 1236.92 1139.78 1240.36 1139.78 1243.22 1139.78 1246.09 1139.2 1248.95 1138.63 1252.39 1138.06 1255.25 1136.92 1258.12 1135.21 1260.98 1133.49 1264.42 1131.78 1267.28 1130.64 1270.72 1128.93 1273.59 1128.35 1276.45 1128.35 1279.31 1129.5 1282.75 1131.78 1285.62 1135.21 1288.48 1139.78 1291.92 1146.06 1294.78 1154.05 1297.65 1163.76 1300.51 1174.04 1303.95 1186.03 1306.81 1198.59 1310.25 1212.3 1313.11 1226 1315.98 1239.7 1318.84 1253.41 1322.28 1265.97 1325.14 1277.96 1328.01 1288.24 1331.45 1297.95 1334.31 1305.94 1337.17 1312.22 1340.61 1316.79 1343.48 1320.22 1346.34 1323.07 1349.21 1324.22 1352.64 1325.36 1355.51 1325.93 1358.37 1325.93 1361.81 1326.5 1364.67 1325.93 1367.54 1325.93 1370.4 1325.36 1373.84 1324.22 1376.7 1323.07 1380.14 1320.22 1383 1316.79 1385.87 1312.22 1388.73 1305.94 1392.17 1297.95 1395.04 1288.24 1397.9 1276.82 1401.34 1264.26 1404.2 1249.98 1407.07 1235.14 1410.5 1219.72 1413.37 1204.3 1416.23 1190.03 1419.1 1175.75 1422.53 1163.76 1425.4 1154.05 1428.26 1146.06 1431.7 1141.49 1434.56 1139.78 1437.43 1141.49 1440.29 1146.06 1443.73 1154.05 1446.59 1164.9 1450.03 1178.03 1452.9 1192.88 1455.76 1208.87 1458.62 1226 1462.06 1243.13 1464.93 1259.12 1467.79 1273.97 1471.23 1287.1 1474.09 1297.95 1476.96 1305.94 1480.39 1310.51 1483.26 1312.22 1486.12 1310.51 1488.99 1305.94 1492.42 1297.95 1495.29 1288.24 1498.15 1276.25 1501.59 1262.55 1504.45 1247.7 1507.32 1232.28 1510.18 1216.86 1513.62 1202.02 1516.48 1188.31 1519.92 1175.18 1522.79 1163.76 1525.65 1154.05 1528.51 1146.06 1531.95 1139.78 1534.82 1135.21 1537.68 1131.78 1541.12 1129.5 1543.98 1128.35 1546.85 1128.35 1549.71 1128.93 1553.15 1130.64 1556.01 1131.78 1559.45 1133.49 1562.31 1135.21 1565.18 1136.92 1568.04 1138.06 1571.48 1138.63 1574.34 1139.2 1577.21 1139.78 1580.07 1139.78 1583.51 1139.78 1586.37 1139.2 1589.81 1138.63 1592.68 1138.06 1595.54 1136.92 1598.4 1135.21 1601.84 1133.49 1604.71 1131.78 1607.57 1130.64 1611.01 1128.93 1613.87 1128.35 1616.74 1128.35 1619.6 1129.5 1623.04 1131.78 1625.9 1135.21 1629.34 1139.78 1632.2 1146.06 1635.07 1154.05 1637.93 1163.76 1641.37 1174.04 1644.23 1186.03 1647.1 1198.59 1650.54 1212.3 1653.4 1226 1656.26 1239.7 1659.7 1253.41 1662.57 1265.97 1665.43 1277.96 1668.3 1288.24 1671.73 1297.95 1674.6 1305.94 1677.46 1312.22 1680.9 1317.36 1683.76 1320.22 1686.63 1322.5 1689.49 1323.64 1692.93 1323.64 1695.79 1322.5 1699.23 1321.93 1702.09 1320.22 1704.96 1318.51 1707.82 1316.79 1711.26 1315.65 1714.13 1313.94 1716.99 1313.37 1720.43 1312.8 1723.29 1312.22 1726.16 1312.22 1729.59 1312.22 1732.46 1312.8 1735.32 1312.8 1738.19 1313.37 1741.62 1313.37 1744.49 1313.94 1747.35 1313.94 1750.79 1313.94 1753.65 1313.94 1756.52 1313.94 1759.38 1313.37 1762.82 1313.37 1765.68 1312.8 1769.12 1312.8 1771.99 1312.22 1774.85 1312.22 1777.71 1312.22 1781.15 1312.8 1784.02 1313.37 1787.45 1313.94 1790.32 1315.65 1793.18 1316.79 1796.05 1318.51 1799.48 1320.22 1802.35 1321.93 1805.21 1322.5 1808.08 1323.64 1811.51 1323.64 1814.38 1322.5 1817.24 1320.22 1820.68 1317.36 1823.54 1312.22 1826.41 1305.94 1829.27 1297.95 1832.71 1288.24 1835.57 1277.96 1839.01 1265.97 1841.88 1253.41 1844.74 1239.7 1847.6 1226 1851.04 1212.3 1853.91 1198.59 1857.34 1186.03 1860.21 1174.04 1863.07 1163.76 1865.94 1154.05 1869.37 1146.06 1872.24 1139.78 1875.1 1135.21 1878.54 1131.78 1881.4 1129.5 1884.27 1128.35 1887.13 1128.35 1890.57 1128.93 1893.43 1130.64 1896.3 1131.78 1899.16 1133.49 1902.6 1135.21 1905.46 1136.92 1908.9 1138.06 1911.77 1138.63 1914.63 1139.2 1917.49 1139.78 1920.93 1139.78 1923.8 1139.78 1927.23 1139.2 1930.1 1139.2 1932.96 1138.63 1935.83 1138.63 1939.26 1138.63 1942.13 1138.06 1944.99 1138.06 1948.43 1138.06 1951.29 1138.63 1954.16 1138.63 1957.02 1138.63 1960.46 1139.2 1963.32 1139.2 1966.19 1139.78 1969.63 1139.78 1972.49 1139.78 1975.36 1139.2 1978.79 1138.63 1981.66 1138.06 1984.52 1136.92 1987.39 1135.21 1990.82 1133.49 1993.69 1131.78 1996.55 1130.64 1999.99 1128.93 2002.85 1128.35 2005.72 1128.35 2009.15 1129.5 2012.02 1131.78 2014.88 1135.21 2018.32 1139.78 2021.18 1146.06 2024.05 1154.05 2026.91 1163.76 2030.35 1175.18 2033.22 1188.31 2036.08 1202.02 2039.52 1216.86 2042.38 1232.28 2045.25 1247.7 2048.68 1262.55 2051.55 1276.25 2054.41 1288.24 2057.28 1297.95 2060.71 1305.94 2063.58 1310.51 2066.44 1312.22 2069.88 1310.51 2072.74 1305.94 2075.61 1297.95 2079.04 1287.1 2081.91 1273.97 2084.77 1259.12 2088.21 1243.13 2091.08 1226 2093.94 1208.87 2096.8 1192.88 2100.24 1178.03 2103.11 1164.9 2106.54 1154.05 2109.41 1146.06 2112.27 1141.49 2115.14 1139.78 2118.57 1141.49 2121.44 1146.06 2124.3 1154.05 2127.17 1163.76 2130.6 1175.75 2133.47 1190.03 2136.33 1204.3 2139.77 1219.72 2142.63 1235.14 2145.5 1249.98 2148.94 1264.26 2151.8 1276.82 2154.66 1288.24 2158.1 1297.95 2160.97 1305.94 2163.83 1312.22 2166.69 1316.79 2170.13 1320.22 2173 1323.07 2176.43 1324.22 2179.3 1325.36 2182.16 1325.93 2185.03 1325.93 2188.46 1326.5 2191.33 1325.93 2194.19 1325.93 2197.63 1325.36 2200.49 1324.22 2203.36 1323.07 2206.22 1320.22 2209.66 1316.79 2212.52 1312.22 2215.39 1305.94 2218.25 1297.95 2221.69 1288.24 2224.55 1277.96 2227.99 1265.97 2230.86 1253.41 2233.72 1239.7 2236.58 1226 2240.02 1212.3 2242.89 1198.59 2246.32 1186.03 2249.19 1174.04 2252.05 1163.76 2254.92 1154.05 2258.35 1146.06 2261.22 1139.78 2264.08 1135.21 2267.52 1131.78 2270.38 1128.93 2273.25 1127.78 2276.11 1126.64 2279.55 1126.07 2282.42 1125.5 2285.28 1125.5 2288.72 1125.5 2291.58 1126.07 2294.45 1126.64 2297.88 1127.78 2300.75 1128.93 2303.61 1131.78 2306.48 1135.21 2309.91 1139.78 2312.78 1146.06 2316.21 1154.05 2319.08 1163.76 2321.94 1174.04 2324.81 1186.03 2328.24 1198.59 2331.11 1212.3 2333.97 1226 2337.41 1239.7 2340.27 1253.41 2343.14 1265.97 2346 1277.96 2349.44 1288.24 2352.31 1297.95 2355.17 1305.94 2358.61 1312.22 2361.47 1317.36 2364.34 1320.22 2367.77 1322.5 2370.64 1323.64 2373.5 1323.64 2376.37 1322.5 2379.8 1321.93 2382.67 1320.22 2386.1 1318.51 2388.97 1316.79 2391.83 1315.65 2394.7 1313.94 2398.14 1313.37 2401 1312.8 2403.86 1312.22 2407.3 1312.22 2410.17 1312.22 2413.03 1312.8 2415.89 1313.37 2419.33 1313.94 2422.2 1315.65 2425.63 1316.79 2428.5 1318.51 2431.36 1320.22 2434.23 1321.93 2437.66 1322.5 2440.53 1323.64 2443.39 1323.64 2446.26 1322.5 2449.69 1320.22 2452.56 1317.36 2456 1312.22 2458.86 1305.94 2461.72 1297.95 2464.59 1288.24 2468.03 1276.82 2470.89 1264.26 2473.75 1249.98 2477.19 1235.14 2480.06 1219.72 2482.92 1204.3 2485.78 1190.03 2489.22 1175.75 2492.09 1163.76 2495.52 1154.05 2498.39 1146.06 2501.25 1141.49 2504.12 1139.78 2507.55 1141.49 2510.42 1146.06 2513.28 1154.05 2516.72 1164.9 2519.58 1178.03 2522.45 1192.88 2525.89 1208.87 2528.75 1226 2531.61 1243.13 2534.48 1259.12 2537.92 1273.97 2540.78 1287.1 2543.64 1297.95 2547.08 1305.94 2549.95 1310.51 2552.81 1312.22 2555.68 1310.51 2559.11 1305.94 2561.98 1297.95 2565.41 1288.24 2568.28 1276.25 2571.14 1262.55 2574.01 1247.7 2577.44 1232.28 2580.31 1216.86 2583.17 1202.02 2586.61 1188.31 2589.47 1175.18 2592.34 1163.76 2595.78 1154.05 2598.64 1146.06 2601.51 1139.78 2604.37 1135.21 2607.81 1131.78 2610.67 1128.93 2613.54 1127.78 2616.97 1126.64 2619.84 1126.07 2622.7 1125.5 2625.57 1125.5 2629 1125.5 2631.87 1126.07 2635.3 1126.64 2638.17 1127.78 2641.03 1128.93 2643.9 1131.78 2647.33 1135.21 2650.2 1139.78 2653.06 1146.06 2656.5 1154.05 2659.37 1163.76 2662.23 1174.04 2665.09 1186.03 2668.53 1198.59 2671.4 1212.3 2674.26 1226 2677.7 1239.7 2680.56 1253.41 2683.43 1265.97 2686.86 1277.96 2689.73 1288.24 2692.59 1297.95 2695.46 1305.94 2698.89 1312.22 2701.76 1317.36 2705.2 1320.22 2708.06 1322.5 2710.92 1323.64 2713.79 1323.64 2717.23 1322.5 2720.09 1321.93 2722.95 1320.22 2726.39 1318.51 2729.26 1316.79 2732.12 1315.65 2734.98 1313.94 2738.42 1313.37 2741.29 1312.8 2744.72 1312.22 2747.59 1312.22 2750.45 1312.22 2753.32 1312.8 2756.75 1312.8 2759.62 1313.37 2762.48 1313.37 2765.35 1313.94 2768.78 1313.94 2771.65 1313.94 2775.09 1313.94 2777.95 1313.94 2780.81 1313.37 2783.68 1313.37 2787.12 1312.8 2789.98 1312.8 2792.84 1312.22 2796.28 1312.22 2799.15 1312.22 2802.01 1312.8 2804.87 1313.37 2808.31 1313.94 2811.18 1315.65 2814.61 1316.79 2817.48 1318.51 2820.34 1320.22 2823.21 1321.93 2826.64 1322.5 2829.51 1323.64 2832.37 1323.64 2835.81 1322.5 2838.67 1320.22 2841.54 1317.36 2844.98 1312.22 2847.84 1305.94 2850.7 1297.95 2853.57 1288.24 2857.01 1277.96 2859.87 1265.97 2862.73 1253.41 2866.17 1239.7 2869.04 1226 2871.9 1212.3 2874.77 1198.59 2878.2 1186.03 2881.07 1174.04 2884.5 1163.76 2887.37 1154.05 2890.23 1146.06 2893.1 1139.78 2896.53 1135.21 2899.4 1131.78 2902.26 1129.5 2905.7 1128.35 2908.56 1128.35 2911.43 1128.93 2914.87 1130.64 2917.73 1131.78 2920.6 1133.49 2923.46 1135.21 2926.9 1136.92 2929.76 1138.06 2932.63 1138.63 2936.06 1139.2 2938.93 1139.78 2941.79 1139.78 2944.66 1139.78 2948.09 1139.2 2950.96 1138.63 2954.39 1138.06 2957.26 1136.92 2960.12 1135.21 2962.99 1133.49 2966.42 1131.78 2969.29 1130.64 2972.73 1128.93 2975.59 1128.35 2978.46 1128.35 2981.32 1129.5 2984.76 1131.78 2987.62 1135.21 2990.49 1139.78 2993.35 1146.06 2996.79 1154.05 2999.65 1163.76 3002.52 1175.18 3005.95 1188.31 3008.82 1202.02 3011.68 1216.86 3014.55 1232.28 3017.98 1247.7 3020.85 1262.55 3024.29 1276.25 3027.15 1288.24 3030.01 1297.95 3032.88 1305.94 3036.32 1310.51 3039.18 1312.22 3042.62 1310.51 3045.48 1305.94 3048.35 1297.95 3051.21 1288.24 3054.65 1276.25 3057.51 1262.55 3060.38 1247.7 3063.81 1232.28 3066.68 1216.86 3069.54 1202.02 3072.41 1188.31 3075.84 1175.18 3078.71 1163.76 3081.57 1154.05 3084.44 1146.06 3087.87 1139.78 3090.74 1135.21 3094.18 1131.78 3097.04 1128.93 3099.9 1127.78 3102.77 1126.64 3106.21 1126.07 3109.07 1125.5 3111.93 1125.5 3115.37 1125.5 3118.24 1126.07 3121.1 1126.64 3124.54 1127.78 3127.4 1128.93 3130.27 1131.78 3133.7 1135.21 3136.57 1139.78 3139.43 1146.06 3142.3 1154.05 3145.73 1163.76 3148.6 1174.04 3151.46 1186.03 3154.9 1198.59 3157.76 1212.3 3160.63 1226 3164.07 1239.7 3166.93 1253.41 3169.79 1265.97 3172.66 1277.96 3176.1 1288.24 3178.96 1297.95 3181.83 1305.94 3185.26 1312.22 3188.13 1316.79 3190.99 1320.22 3194.43 1323.07 3197.29 1324.22 3200.16 1325.36 3203.59 1325.93 3206.46 1325.93 3209.32 1326.5 3212.19 1325.93 3215.62 1325.93 3218.49 1325.36 3221.35 1324.22 3224.79 1323.07 3227.65 1320.22 3230.52 1316.79 3233.96 1312.22 3236.82 1305.94 3239.69 1297.95 3242.55 1288.24 3245.99 1277.96 3248.85 1265.97 3251.72 1253.41 3255.15 1239.7 3258.02 1226 3260.88 1212.3 3264.32 1198.59 3267.18 1186.03 3270.05 1174.04 3273.48 1163.76 3276.35 1154.05 3279.21 1146.06 3282.08 1139.78 3285.52 1135.21 3288.38 1131.78 3291.82 1128.93 3294.68 1127.78 3297.55 1126.64 3300.41 1126.07 3303.85 1125.5 3306.71 1125.5 3309.58 1125.5 3312.44 1126.07 3315.88 1126.64 3318.74 1127.78 3321.61 1128.93 3325.04 1131.78 3327.91 1135.21 3330.77 1139.78 3333.64 1146.06 3337.07 1154.05 3339.94 1163.76 3343.38 1175.18 3346.24 1188.31 3349.1 1202.02 3351.97 1216.86 3355.41 1232.28 3358.27 1247.7 3361.71 1262.55 3364.57 1276.25 3367.44 1288.24 3370.3 1297.95 3373.74 1305.94 3376.6 1310.51 3379.47 1312.22 3382.9 1310.51 3385.77 1305.94 3388.63 1297.95 3391.5 1288.24 3394.93 1276.25 3397.8 1262.55 3400.66 1247.7 3403.53 1232.28 3406.96 1216.86 3409.83 1202.02 3413.27 1188.31 3416.13 1175.18 3418.99 1163.76 3421.86 1154.05 3425.3 1146.06 3428.16 1139.78 3431.6 1135.21 3434.46 1131.78 3437.33 1128.93 3440.19 1127.78 3443.63 1126.64 3446.49 1126.07 3449.36 1125.5 3452.79 1125.5 3455.66 1125.5 3458.52 1126.07 3461.39 1126.64 3464.82 1127.78 3467.69 1128.93 3470.55 1131.78 3473.99 1135.21 3476.85 1139.78 3479.72 1146.06 3483.16 1154.05 3486.02 1163.76 3488.88 1174.04 3491.75 1186.03 3495.19 1198.59 3498.05 1212.3 3501.49 1226 3504.35 1239.7 3507.22 1253.41 3510.08 1265.97 3513.52 1277.96 3516.38 1288.24 3519.25 1297.95 3522.68 1305.94 3525.55 1312.22 3528.41 1316.79 3531.28 1320.22 3534.71 1322.5 3537.58 1324.22 3540.44 1324.22 3543.88 1324.22 3546.75 1324.22 3549.61 1323.07 3553.05 1322.5 3555.91 1321.36 3558.78 1320.22 3561.64 1319.08 3565.08 1317.93 3567.94 1316.22 3571.38 1314.51 3574.24 1312.22 3577.11 1308.8 3579.97 1304.8 3583.41 1300.8 3586.27 1295.66 3589.14 1289.95 3592.57 1283.67 3595.44 1276.82 3598.3 1269.97 3601.17 1263.12 3604.6 1256.26 3607.47 1249.98 3610.91 1243.7 3613.77 1237.99 3616.64 1233.42 3619.5 1229.43" stroke="#0072BD" stroke-width="3.4375" stroke-linejoin="round" stroke-miterlimit="10" fill="none" fill-rule="evenodd"/><path d="M899.5 1115.72 902.937 1101.39 905.802 1087.63 908.666 1073.88 911.53 1061.84 914.968 1050.37 917.832 1040.63 921.269 1032.6 924.134 1026.87 926.998 1022.86 929.862 1021.71 933.3 1023.43 936.164 1027.44 939.028 1034.32 941.893 1044.07 945.33 1056.11 948.194 1071.01 951.059 1087.63 954.496 1106.55 957.36 1127.19 960.225 1148.4 963.662 1171.33 966.526 1193.68 969.391 1216.61 972.828 1238.4 975.692 1259.61 978.557 1278.53 981.421 1295.72 984.858 1310.05 987.723 1322.09 991.16 1330.69 994.024 1335.85 996.888 1337.57 999.753 1335.85 1003.19 1330.69 1006.05 1322.09 1008.92 1310.63 1012.36 1295.72 1015.22 1279.1 1018.08 1260.18 1020.95 1239.54 1024.39 1217.76 1027.25 1195.4 1030.12 1173.05 1032.98 1150.69 1036.42 1128.91 1039.28 1108.27 1042.72 1088.78 1045.58 1071.01 1048.45 1054.96 1051.31 1040.63 1054.75 1028.59 1057.61 1018.84 1061.05 1010.82 1063.91 1005.09 1066.78 1002.22 1069.64 1000.5 1073.08 1002.22 1075.94 1005.09 1078.81 1010.82 1082.25 1018.84 1085.11 1028.59 1087.98 1040.63 1090.84 1054.96 1094.28 1071.01 1097.14 1088.78 1100.01 1108.27 1103.44 1128.91 1106.31 1150.69 1109.17 1173.05 1112.61 1195.4 1115.47 1217.76 1118.34 1239.54 1121.2 1260.18 1124.64 1279.1 1127.5 1295.72 1130.94 1310.63 1133.81 1322.09 1136.67 1330.69 1139.53 1335.85 1142.97 1337.57 1145.84 1335.85 1148.7 1330.69 1152.14 1322.09 1155 1310.05 1157.87 1295.72 1160.73 1278.53 1164.17 1259.61 1167.03 1239.54 1169.9 1217.76 1173.33 1195.98 1176.2 1174.19 1179.06 1152.98 1182.5 1131.77 1185.36 1112.28 1188.23 1094.51 1191.09 1078.46 1194.53 1064.13 1197.39 1051.52 1200.83 1041.2 1203.7 1032.6 1206.56 1025.72 1209.42 1020.56 1212.86 1017.12 1215.73 1014.26 1218.59 1013.11 1222.03 1012.54 1224.89 1012.54 1227.76 1012.54 1230.62 1013.11 1234.06 1013.68 1236.92 1013.68 1240.36 1013.68 1243.22 1013.68 1246.09 1013.68 1248.95 1013.68 1252.39 1013.11 1255.25 1012.54 1258.12 1013.11 1260.98 1013.68 1264.42 1014.83 1267.28 1017.12 1270.72 1019.99 1273.59 1024.58 1276.45 1030.31 1279.31 1038.33 1282.75 1047.51 1285.62 1058.4 1288.48 1071.01 1291.92 1085.91 1294.78 1101.97 1297.65 1119.74 1300.51 1139.23 1303.95 1159.86 1306.81 1181.07 1310.25 1203.43 1313.11 1225.79 1315.98 1248.14 1318.84 1271.07 1322.28 1292.86 1325.14 1314.07 1328.01 1334.13 1331.45 1353.62 1334.31 1371.39 1337.17 1387.44 1340.61 1402.35 1343.48 1414.96 1346.34 1425.85 1349.21 1435.02 1352.64 1441.9 1355.51 1447.06 1358.37 1449.93 1361.81 1450.5 1364.67 1449.35 1367.54 1445.91 1370.4 1440.18 1373.84 1432.73 1376.7 1422.41 1380.14 1410.37 1383 1396.04 1385.87 1380.56 1388.73 1362.22 1392.17 1342.73 1395.04 1322.09 1397.9 1300.88 1401.34 1277.95 1404.2 1255.6 1407.07 1233.24 1410.5 1212.03 1413.37 1191.97 1416.23 1173.05 1419.1 1157 1422.53 1143.24 1425.4 1132.35 1428.26 1124.9 1431.7 1121.46 1434.56 1120.88 1437.43 1124.32 1440.29 1131.2 1443.73 1141.52 1446.59 1154.7 1450.03 1170.18 1452.9 1187.38 1455.76 1206.3 1458.62 1225.79 1462.06 1245.28 1464.93 1264.19 1467.79 1281.39 1471.23 1296.87 1474.09 1310.05 1476.96 1319.8 1480.39 1327.25 1483.26 1330.69 1486.12 1330.12 1488.99 1326.11 1492.42 1318.65 1495.29 1307.76 1498.15 1294.58 1501.59 1277.95 1504.45 1259.61 1507.32 1239.54 1510.18 1218.33 1513.62 1196.55 1516.48 1174.77 1519.92 1152.98 1522.79 1132.35 1525.65 1112.86 1528.51 1095.09 1531.95 1078.46 1534.82 1064.13 1537.68 1051.52 1541.12 1041.2 1543.98 1032.6 1546.85 1025.72 1549.71 1020.56 1553.15 1017.12 1556.01 1014.26 1559.45 1013.11 1562.31 1012.54 1565.18 1012.54 1568.04 1012.54 1571.48 1013.11 1574.34 1013.68 1577.21 1013.68 1580.07 1013.68 1583.51 1013.68 1586.37 1013.68 1589.81 1013.68 1592.68 1013.11 1595.54 1012.54 1598.4 1013.11 1601.84 1013.68 1604.71 1014.83 1607.57 1017.12 1611.01 1019.99 1613.87 1024.58 1616.74 1030.31 1619.6 1038.33 1623.04 1047.51 1625.9 1058.4 1629.34 1071.58 1632.2 1085.91 1635.07 1102.54 1637.93 1120.31 1641.37 1139.8 1644.23 1159.86 1647.1 1181.65 1650.54 1203.43 1653.4 1225.79 1656.26 1248.14 1659.7 1269.93 1662.57 1291.71 1665.43 1312.35 1668.3 1331.26 1671.73 1349.04 1674.6 1365.66 1677.46 1380.56 1680.9 1393.18 1683.76 1404.64 1686.63 1413.81 1689.49 1421.84 1692.93 1427.57 1695.79 1432.16 1699.23 1435.02 1702.09 1437.32 1704.96 1437.89 1707.82 1437.89 1711.26 1437.32 1714.13 1436.74 1716.99 1435.02 1720.43 1433.88 1723.29 1432.16 1726.16 1430.44 1729.59 1428.72 1732.46 1427.57 1735.32 1425.85 1738.19 1425.28 1741.62 1424.13 1744.49 1423.56 1747.35 1423.56 1750.79 1423.56 1753.65 1423.56 1756.52 1423.56 1759.38 1424.13 1762.82 1425.28 1765.68 1425.85 1769.12 1427.57 1771.99 1428.72 1774.85 1430.44 1777.71 1432.16 1781.15 1433.88 1784.02 1435.02 1787.45 1436.74 1790.32 1437.32 1793.18 1437.89 1796.05 1437.89 1799.48 1437.32 1802.35 1435.02 1805.21 1432.16 1808.08 1427.57 1811.51 1421.84 1814.38 1413.81 1817.24 1404.64 1820.68 1393.18 1823.54 1380.56 1826.41 1365.66 1829.27 1349.04 1832.71 1331.26 1835.57 1312.35 1839.01 1291.71 1841.88 1269.93 1844.74 1248.14 1847.6 1225.79 1851.04 1203.43 1853.91 1181.65 1857.34 1159.86 1860.21 1139.8 1863.07 1120.31 1865.94 1102.54 1869.37 1085.91 1872.24 1071.01 1875.1 1058.4 1878.54 1046.93 1881.4 1037.76 1884.27 1030.31 1887.13 1024 1890.57 1019.42 1893.43 1016.55 1896.3 1014.26 1899.16 1013.68 1902.6 1013.68 1905.46 1014.26 1908.9 1015.4 1911.77 1016.55 1914.63 1017.7 1917.49 1019.42 1920.93 1021.14 1923.8 1022.86 1927.23 1024 1930.1 1025.72 1932.96 1026.87 1935.83 1027.44 1939.26 1028.02 1942.13 1028.59 1944.99 1028.59 1948.43 1028.59 1951.29 1028.02 1954.16 1027.44 1957.02 1026.3 1960.46 1025.72 1963.32 1024 1966.19 1022.86 1969.63 1021.14 1972.49 1019.42 1975.36 1017.7 1978.79 1015.98 1981.66 1014.83 1984.52 1013.68 1987.39 1013.11 1990.82 1013.11 1993.69 1014.26 1996.55 1016.55 1999.99 1020.56 2002.85 1025.15 2005.72 1032.03 2009.15 1040.63 2012.02 1050.95 2014.88 1064.13 2018.32 1078.46 2021.18 1094.51 2024.05 1112.86 2026.91 1132.35 2030.35 1152.98 2033.22 1174.77 2036.08 1196.55 2039.52 1218.33 2042.38 1239.54 2045.25 1259.61 2048.68 1277.95 2051.55 1294.58 2054.41 1307.76 2057.28 1318.65 2060.71 1326.11 2063.58 1330.12 2066.44 1330.69 2069.88 1327.25 2072.74 1319.8 2075.61 1310.05 2079.04 1296.87 2081.91 1281.39 2084.77 1264.19 2088.21 1245.28 2091.08 1225.79 2093.94 1206.3 2096.8 1187.38 2100.24 1170.18 2103.11 1154.7 2106.54 1141.52 2109.41 1131.2 2112.27 1124.32 2115.14 1120.88 2118.57 1121.46 2121.44 1124.9 2124.3 1132.35 2127.17 1143.24 2130.6 1157 2133.47 1173.05 2136.33 1191.97 2139.77 1212.03 2142.63 1233.24 2145.5 1255.6 2148.94 1277.95 2151.8 1300.88 2154.66 1322.09 2158.1 1342.73 2160.97 1362.22 2163.83 1380.56 2166.69 1396.04 2170.13 1410.37 2173 1422.41 2176.43 1432.73 2179.3 1440.18 2182.16 1445.91 2185.03 1449.35 2188.46 1450.5 2191.33 1449.93 2194.19 1447.06 2197.63 1441.9 2200.49 1435.02 2203.36 1425.85 2206.22 1414.96 2209.66 1402.35 2212.52 1387.44 2215.39 1371.97 2218.25 1353.62 2221.69 1334.7 2224.55 1314.64 2227.99 1293.43 2230.86 1271.07 2233.72 1248.72 2236.58 1225.79 2240.02 1202.86 2242.89 1180.5 2246.32 1158.14 2249.19 1136.93 2252.05 1116.87 2254.92 1097.95 2258.35 1080.18 2261.22 1064.13 2264.08 1049.23 2267.52 1037.19 2270.38 1025.72 2273.25 1017.12 2276.11 1010.25 2279.55 1005.09 2282.42 1002.22 2285.28 1001.07 2288.72 1002.22 2291.58 1005.09 2294.45 1010.25 2297.88 1017.12 2300.75 1026.3 2303.61 1037.19 2306.48 1049.8 2309.91 1064.13 2312.78 1080.18 2316.21 1097.95 2319.08 1117.44 2321.94 1137.51 2324.81 1158.72 2328.24 1181.07 2331.11 1203.43 2333.97 1225.79 2337.41 1248.14 2340.27 1270.5 2343.14 1292.28 2346 1312.35 2349.44 1331.84 2352.31 1349.61 2355.17 1365.66 2358.61 1380.56 2361.47 1393.18 2364.34 1404.07 2367.77 1413.81 2370.64 1421.26 2373.5 1427 2376.37 1431.58 2379.8 1435.02 2382.67 1436.74 2386.1 1438.46 2388.97 1438.46 2391.83 1439.04 2394.7 1438.46 2398.14 1438.46 2401 1437.89 2403.86 1437.89 2407.3 1437.32 2410.17 1437.89 2413.03 1438.46 2415.89 1438.46 2419.33 1439.04 2422.2 1439.04 2425.63 1439.04 2428.5 1438.46 2431.36 1437.32 2434.23 1434.45 2437.66 1431.01 2440.53 1425.85 2443.39 1418.97 2446.26 1410.37 2449.69 1400.05 2452.56 1387.44 2456 1373.11 2458.86 1357.06 2461.72 1338.72 2464.59 1319.23 2468.03 1298.59 2470.89 1277.38 2473.75 1255.02 2477.19 1233.24 2480.06 1212.03 2482.92 1191.97 2485.78 1173.62 2489.22 1157 2492.09 1143.81 2495.52 1132.92 2498.39 1125.47 2501.25 1121.46 2504.12 1121.46 2507.55 1124.9 2510.42 1131.77 2513.28 1141.52 2516.72 1154.7 2519.58 1170.18 2522.45 1187.38 2525.89 1206.3 2528.75 1225.79 2531.61 1245.28 2534.48 1264.19 2537.92 1281.39 2540.78 1296.87 2543.64 1310.05 2547.08 1320.37 2549.95 1327.25 2552.81 1330.69 2555.68 1330.12 2559.11 1326.68 2561.98 1319.23 2565.41 1308.33 2568.28 1294.58 2571.14 1278.53 2574.01 1259.61 2577.44 1239.54 2580.31 1218.33 2583.17 1195.98 2586.61 1173.62 2589.47 1151.26 2592.34 1129.48 2595.78 1108.84 2598.64 1089.35 2601.51 1071.58 2604.37 1055.53 2607.81 1041.2 2610.67 1029.16 2613.54 1018.84 2616.97 1011.39 2619.84 1005.66 2622.7 1002.22 2625.57 1001.07 2629 1001.65 2631.87 1004.51 2635.3 1009.67 2638.17 1016.55 2641.03 1025.72 2643.9 1036.61 2647.33 1049.23 2650.2 1064.13 2653.06 1080.18 2656.5 1097.95 2659.37 1117.44 2662.23 1137.51 2665.09 1158.72 2668.53 1181.07 2671.4 1203.43 2674.26 1225.79 2677.7 1248.14 2680.56 1270.5 2683.43 1292.28 2686.86 1312.35 2689.73 1331.84 2692.59 1349.61 2695.46 1366.23 2698.89 1380.56 2701.76 1393.75 2705.2 1404.64 2708.06 1413.81 2710.92 1421.84 2713.79 1427.57 2717.23 1432.16 2720.09 1435.02 2722.95 1437.32 2726.39 1437.89 2729.26 1437.89 2732.12 1437.32 2734.98 1436.74 2738.42 1435.02 2741.29 1433.88 2744.72 1432.16 2747.59 1430.44 2750.45 1428.72 2753.32 1427.57 2756.75 1425.85 2759.62 1425.28 2762.48 1424.13 2765.35 1423.56 2768.78 1423.56 2771.65 1423.56 2775.09 1423.56 2777.95 1423.56 2780.81 1424.13 2783.68 1425.28 2787.12 1425.85 2789.98 1427.57 2792.84 1428.72 2796.28 1430.44 2799.15 1432.16 2802.01 1433.88 2804.87 1435.02 2808.31 1436.74 2811.18 1437.32 2814.61 1437.89 2817.48 1437.89 2820.34 1437.32 2823.21 1435.02 2826.64 1432.16 2829.51 1427.57 2832.37 1421.84 2835.81 1413.81 2838.67 1404.64 2841.54 1393.18 2844.98 1380.56 2847.84 1365.66 2850.7 1349.04 2853.57 1331.26 2857.01 1312.35 2859.87 1291.71 2862.73 1269.93 2866.17 1248.14 2869.04 1225.79 2871.9 1203.43 2874.77 1181.65 2878.2 1159.86 2881.07 1139.8 2884.5 1120.31 2887.37 1102.54 2890.23 1085.91 2893.1 1071.58 2896.53 1058.4 2899.4 1047.51 2902.26 1038.33 2905.7 1030.31 2908.56 1024.58 2911.43 1019.99 2914.87 1017.12 2917.73 1014.83 2920.6 1013.68 2923.46 1013.11 2926.9 1012.54 2929.76 1013.11 2932.63 1013.68 2936.06 1013.68 2938.93 1013.68 2941.79 1013.68 2944.66 1013.68 2948.09 1013.68 2950.96 1013.11 2954.39 1012.54 2957.26 1012.54 2960.12 1012.54 2962.99 1013.11 2966.42 1014.26 2969.29 1017.12 2972.73 1020.56 2975.59 1025.72 2978.46 1032.6 2981.32 1041.2 2984.76 1051.52 2987.62 1064.13 2990.49 1078.46 2993.35 1094.51 2996.79 1112.28 2999.65 1131.77 3002.52 1152.98 3005.95 1174.19 3008.82 1195.98 3011.68 1217.76 3014.55 1239.54 3017.98 1259.61 3020.85 1278.53 3024.29 1295.72 3027.15 1310.05 3030.01 1322.09 3032.88 1330.69 3036.32 1335.85 3039.18 1337.57 3042.62 1335.85 3045.48 1330.69 3048.35 1322.09 3051.21 1310.63 3054.65 1295.72 3057.51 1279.1 3060.38 1260.18 3063.81 1239.54 3066.68 1217.76 3069.54 1195.4 3072.41 1173.05 3075.84 1150.69 3078.71 1128.91 3081.57 1108.27 3084.44 1088.78 3087.87 1071.01 3090.74 1054.96 3094.18 1041.2 3097.04 1029.16 3099.9 1018.84 3102.77 1011.39 3106.21 1005.66 3109.07 1002.22 3111.93 1001.07 3115.37 1001.65 3118.24 1004.51 3121.1 1009.67 3124.54 1016.55 3127.4 1025.72 3130.27 1036.61 3133.7 1049.23 3136.57 1064.13 3139.43 1080.18 3142.3 1097.95 3145.73 1116.87 3148.6 1136.93 3151.46 1158.14 3154.9 1180.5 3157.76 1202.86 3160.63 1225.79 3164.07 1248.72 3166.93 1271.07 3169.79 1293.43 3172.66 1314.64 3176.1 1334.7 3178.96 1353.62 3181.83 1371.39 3185.26 1387.44 3188.13 1402.35 3190.99 1414.39 3194.43 1425.85 3197.29 1434.45 3200.16 1441.33 3203.59 1446.49 3206.46 1449.93 3209.32 1450.5 3212.19 1449.93 3215.62 1446.49 3218.49 1441.33 3221.35 1434.45 3224.79 1425.85 3227.65 1414.39 3230.52 1402.35 3233.96 1387.44 3236.82 1371.39 3239.69 1353.62 3242.55 1334.7 3245.99 1314.64 3248.85 1293.43 3251.72 1271.07 3255.15 1248.72 3258.02 1225.79 3260.88 1202.86 3264.32 1180.5 3267.18 1158.14 3270.05 1136.93 3273.48 1116.87 3276.35 1097.95 3279.21 1080.18 3282.08 1064.13 3285.52 1049.23 3288.38 1036.61 3291.82 1025.72 3294.68 1016.55 3297.55 1009.67 3300.41 1004.51 3303.85 1001.65 3306.71 1001.07 3309.58 1002.22 3312.44 1005.66 3315.88 1011.39 3318.74 1018.84 3321.61 1029.16 3325.04 1041.2 3327.91 1054.96 3330.77 1071.01 3333.64 1088.78 3337.07 1108.27 3339.94 1128.91 3343.38 1150.69 3346.24 1173.05 3349.1 1195.4 3351.97 1217.76 3355.41 1239.54 3358.27 1260.18 3361.71 1279.1 3364.57 1295.72 3367.44 1310.63 3370.3 1322.09 3373.74 1330.69 3376.6 1335.85 3379.47 1337.57 3382.9 1335.85 3385.77 1330.69 3388.63 1322.09 3391.5 1310.63 3394.93 1295.72 3397.8 1279.1 3400.66 1260.18 3403.53 1239.54 3406.96 1217.76 3409.83 1195.4 3413.27 1173.05 3416.13 1150.69 3418.99 1128.91 3421.86 1108.27 3425.3 1088.78 3428.16 1071.01 3431.6 1054.96 3434.46 1041.2 3437.33 1029.16 3440.19 1018.84 3443.63 1011.39 3446.49 1005.66 3449.36 1002.22 3452.79 1001.07 3455.66 1001.65 3458.52 1004.51 3461.39 1009.67 3464.82 1016.55 3467.69 1025.72 3470.55 1036.61 3473.99 1049.23 3476.85 1064.13 3479.72 1080.18 3483.16 1097.95 3486.02 1116.87 3488.88 1137.51 3491.75 1158.72 3495.19 1180.5 3498.05 1203.43 3501.49 1225.79 3504.35 1248.72 3507.22 1271.07 3510.08 1292.86 3513.52 1313.49 3516.38 1332.98 3519.25 1351.33 3522.68 1368.53 3525.55 1384 3528.41 1397.76 3531.28 1409.8 3534.71 1420.12 3537.58 1428.14 3540.44 1434.45 3543.88 1439.04 3546.75 1442.47 3549.61 1443.62 3553.05 1443.62 3555.91 1442.47 3558.78 1439.61 3561.64 1435.6 3565.08 1430.44 3567.94 1424.13 3571.38 1416.68 3574.24 1408.65 3577.11 1400.05 3579.97 1390.31 3583.41 1380.56 3586.27 1369.67 3589.14 1358.78 3592.57 1347.89 3595.44 1336.42 3598.3 1325.53 3601.17 1314.64 3604.6 1303.75 3607.47 1293.43 3610.91 1283.68 3613.77 1274.51 3616.64 1265.91 3619.5 1257.89" stroke="#FF0000" stroke-width="3.4375" stroke-linejoin="round" stroke-miterlimit="10" fill="none" fill-rule="evenodd"/></g></svg>