<svg width="1696" height="641" xmlns="http://www.w3.org/2000/svg" xmlns:xlink="http://www.w3.org/1999/xlink" overflow="hidden"><defs><clipPath id="clip0"><rect x="1132" y="779" width="1696" height="641"/></clipPath></defs><g clip-path="url(#clip0)" transform="translate(-1132 -779)"><path d="M2751.16 1067.27C2753.03 1067.27 2754.58 1067.92 2755.84 1069.23 2757.09 1070.53 2757.72 1072.19 2757.72 1074.19 2757.72 1076.2 2757.09 1077.86 2755.84 1079.16 2754.58 1080.47 2753.03 1081.12 2751.16 1081.12 2749.3 1081.12 2747.74 1080.47 2746.49 1079.16 2745.24 1077.86 2744.61 1076.2 2744.61 1074.19 2744.61 1072.19 2745.24 1070.53 2746.49 1069.23 2747.74 1067.92 2749.3 1067.27 2751.16 1067.27ZM2718.61 1067.27C2720.48 1067.27 2722.03 1067.92 2723.29 1069.23 2724.54 1070.53 2725.17 1072.19 2725.17 1074.19 2725.17 1076.2 2724.54 1077.86 2723.29 1079.16 2722.03 1080.47 2720.48 1081.12 2718.61 1081.12 2716.75 1081.12 2715.2 1080.47 2713.94 1079.16 2712.69 1077.86 2712.06 1076.2 2712.06 1074.19 2712.06 1072.19 2712.69 1070.53 2713.94 1069.23 2715.2 1067.92 2716.75 1067.27 2718.61 1067.27ZM2686.07 1067.27C2687.93 1067.27 2689.49 1067.92 2690.74 1069.23 2691.99 1070.53 2692.62 1072.19 2692.62 1074.19 2692.62 1076.2 2691.99 1077.86 2690.74 1079.16 2689.49 1080.47 2687.93 1081.12 2686.07 1081.12 2684.2 1081.12 2682.65 1080.47 2681.39 1079.16 2680.14 1077.86 2679.51 1076.2 2679.51 1074.19 2679.51 1072.19 2680.14 1070.53 2681.39 1069.23 2682.65 1067.92 2684.2 1067.27 2686.07 1067.27Z" fill-rule="evenodd"/><text fill="#000000" fill-opacity="0" font-family="Arial,Arial_MSFontService,sans-serif" font-size="13.8574" x="2679.51" y="1079.39">⋯</text><path d="M1357.5 1308.5 1370.5 1308.5" stroke="#262626" stroke-width="3.4375" stroke-linejoin="round" stroke-miterlimit="10" fill="none" fill-rule="evenodd"/><path d="M0 0 13.0001 0.000360892" stroke="#262626" stroke-width="3.4375" stroke-linejoin="round" stroke-miterlimit="10" fill="none" fill-rule="evenodd" transform="matrix(-1 0 0 1 2699.5 1308.5)"/><path d="M1357.5 1308.5 2699.5 1308.5" stroke="#262626" stroke-width="3.4375" stroke-linejoin="round" stroke-miterlimit="10" fill="none" fill-rule="evenodd"/><path d="M1362.5 1370C1362.5 1363.65 1367.65 1358.5 1374 1358.5 1380.35 1358.5 1385.5 1363.65 1385.5 1370 1385.5 1376.35 1380.35 1381.5 1374 1381.5 1367.65 1381.5 1362.5 1376.35 1362.5 1370Z" stroke="#000000" stroke-width="0" stroke-linejoin="round" stroke-miterlimit="10" fill-rule="evenodd"/><path d="M1397.5 1370C1397.5 1363.65 1402.65 1358.5 1409 1358.5 1415.35 1358.5 1420.5 1363.65 1420.5 1370 1420.5 1376.35 1415.35 1381.5 1409 1381.5 1402.65 1381.5 1397.5 1376.35 1397.5 1370Z" stroke="#000000" stroke-width="0" stroke-linejoin="round" stroke-miterlimit="10" fill-rule="evenodd"/><path d="M1431.5 1370C1431.5 1363.65 1436.65 1358.5 1443 1358.5 1449.35 1358.5 1454.5 1363.65 1454.5 1370 1454.5 1376.35 1449.35 1381.5 1443 1381.5 1436.65 1381.5 1431.5 1376.35 1431.5 1370Z" stroke="#000000" stroke-width="0" stroke-linejoin="round" stroke-miterlimit="10" fill-rule="evenodd"/><path d="M1466.5 1370C1466.5 1363.65 1471.42 1358.5 1477.5 1358.5 1483.57 1358.5 1488.5 1363.65 1488.5 1370 1488.5 1376.35 1483.57 1381.5 1477.5 1381.5 1471.42 1381.5 1466.5 1376.35 1466.5 1370Z" stroke="#000000" stroke-width="0" stroke-linejoin="round" stroke-miterlimit="10" fill-rule="evenodd"/><path d="M1500.5 1370C1500.5 1363.65 1505.65 1358.5 1512 1358.5 1518.35 1358.5 1523.5 1363.65 1523.5 1370 1523.5 1376.35 1518.35 1381.5 1512 1381.5 1505.65 1381.5 1500.5 1376.35 1500.5 1370Z" stroke="#000000" stroke-width="0" stroke-linejoin="round" stroke-miterlimit="10" fill-rule="evenodd"/><path d="M1534.5 876.5C1534.5 870.425 1539.65 865.5 1546 865.5 1552.35 865.5 1557.5 870.425 1557.5 876.5 1557.5 882.575 1552.35 887.5 1546 887.5 1539.65 887.5 1534.5 882.575 1534.5 876.5Z" stroke="#000000" stroke-width="0" stroke-linejoin="round" stroke-miterlimit="10" fill-rule="evenodd"/><path d="M1569.5 1370C1569.5 1363.65 1574.65 1358.5 1581 1358.5 1587.35 1358.5 1592.5 1363.65 1592.5 1370 1592.5 1376.35 1587.35 1381.5 1581 1381.5 1574.65 1381.5 1569.5 1376.35 1569.5 1370Z" stroke="#000000" stroke-width="0" stroke-linejoin="round" stroke-miterlimit="10" fill-rule="evenodd"/><path d="M1604.5 1370C1604.5 1363.65 1609.43 1358.5 1615.5 1358.5 1621.58 1358.5 1626.5 1363.65 1626.5 1370 1626.5 1376.35 1621.58 1381.5 1615.5 1381.5 1609.43 1381.5 1604.5 1376.35 1604.5 1370Z" stroke="#000000" stroke-width="0" stroke-linejoin="round" stroke-miterlimit="10" fill-rule="evenodd"/><path d="M1638.5 1370C1638.5 1363.65 1643.65 1358.5 1650 1358.5 1656.35 1358.5 1661.5 1363.65 1661.5 1370 1661.5 1376.35 1656.35 1381.5 1650 1381.5 1643.65 1381.5 1638.5 1376.35 1638.5 1370Z" stroke="#000000" stroke-width="0" stroke-linejoin="round" stroke-miterlimit="10" fill-rule="evenodd"/><path d="M1672.5 1370C1672.5 1363.65 1677.65 1358.5 1684 1358.5 1690.35 1358.5 1695.5 1363.65 1695.5 1370 1695.5 1376.35 1690.35 1381.5 1684 1381.5 1677.65 1381.5 1672.5 1376.35 1672.5 1370Z" stroke="#000000" stroke-width="0" stroke-linejoin="round" stroke-miterlimit="10" fill-rule="evenodd"/><path d="M1707.5 1370C1707.5 1363.65 1712.65 1358.5 1719 1358.5 1725.35 1358.5 1730.5 1363.65 1730.5 1370 1730.5 1376.35 1725.35 1381.5 1719 1381.5 1712.65 1381.5 1707.5 1376.35 1707.5 1370Z" stroke="#000000" stroke-width="0" stroke-linejoin="round" stroke-miterlimit="10" fill-rule="evenodd"/><path d="M1741.5 1370C1741.5 1363.65 1746.65 1358.5 1753 1358.5 1759.35 1358.5 1764.5 1363.65 1764.5 1370 1764.5 1376.35 1759.35 1381.5 1753 1381.5 1746.65 1381.5 1741.5 1376.35 1741.5 1370Z" stroke="#000000" stroke-width="0" stroke-linejoin="round" stroke-miterlimit="10" fill-rule="evenodd"/><path d="M1775.5 876.5C1775.5 870.425 1780.65 865.5 1787 865.5 1793.35 865.5 1798.5 870.425 1798.5 876.5 1798.5 882.575 1793.35 887.5 1787 887.5 1780.65 887.5 1775.5 882.575 1775.5 876.5Z" stroke="#000000" stroke-width="0" stroke-linejoin="round" stroke-miterlimit="10" fill-rule="evenodd"/><path d="M1810.5 1370C1810.5 1363.65 1815.65 1358.5 1822 1358.5 1828.35 1358.5 1833.5 1363.65 1833.5 1370 1833.5 1376.35 1828.35 1381.5 1822 1381.5 1815.65 1381.5 1810.5 1376.35 1810.5 1370Z" stroke="#000000" stroke-width="0" stroke-linejoin="round" stroke-miterlimit="10" fill-rule="evenodd"/><path d="M1844.5 1370C1844.5 1363.65 1849.65 1358.5 1856 1358.5 1862.35 1358.5 1867.5 1363.65 1867.5 1370 1867.5 1376.35 1862.35 1381.5 1856 1381.5 1849.65 1381.5 1844.5 1376.35 1844.5 1370Z" stroke="#000000" stroke-width="0" stroke-linejoin="round" stroke-miterlimit="10" fill-rule="evenodd"/><path d="M1879.5 1370C1879.5 1363.65 1884.65 1358.5 1891 1358.5 1897.35 1358.5 1902.5 1363.65 1902.5 1370 1902.5 1376.35 1897.35 1381.5 1891 1381.5 1884.65 1381.5 1879.5 1376.35 1879.5 1370Z" stroke="#000000" stroke-width="0" stroke-linejoin="round" stroke-miterlimit="10" fill-rule="evenodd"/><path d="M1913.5 1370C1913.5 1363.65 1918.65 1358.5 1925 1358.5 1931.35 1358.5 1936.5 1363.65 1936.5 1370 1936.5 1376.35 1931.35 1381.5 1925 1381.5 1918.65 1381.5 1913.5 1376.35 1913.5 1370Z" stroke="#000000" stroke-width="0" stroke-linejoin="round" stroke-miterlimit="10" fill-rule="evenodd"/><path d="M1947.5 1370C1947.5 1363.65 1952.65 1358.5 1959 1358.5 1965.35 1358.5 1970.5 1363.65 1970.5 1370 1970.5 1376.35 1965.35 1381.5 1959 1381.5 1952.65 1381.5 1947.5 1376.35 1947.5 1370Z" stroke="#000000" stroke-width="0" stroke-linejoin="round" stroke-miterlimit="10" fill-rule="evenodd"/><path d="M1982.5 1370C1982.5 1363.65 1987.65 1358.5 1994 1358.5 2000.35 1358.5 2005.5 1363.65 2005.5 1370 2005.5 1376.35 2000.35 1381.5 1994 1381.5 1987.65 1381.5 1982.5 1376.35 1982.5 1370Z" stroke="#000000" stroke-width="0" stroke-linejoin="round" stroke-miterlimit="10" fill-rule="evenodd"/><path d="M2017.5 876.5C2017.5 870.425 2022.42 865.5 2028.5 865.5 2034.58 865.5 2039.5 870.425 2039.5 876.5 2039.5 882.575 2034.58 887.5 2028.5 887.5 2022.42 887.5 2017.5 882.575 2017.5 876.5Z" stroke="#000000" stroke-width="0" stroke-linejoin="round" stroke-miterlimit="10" fill-rule="evenodd"/><path d="M2050.5 1370C2050.5 1363.65 2055.87 1358.5 2062.5 1358.5 2069.13 1358.5 2074.5 1363.65 2074.5 1370 2074.5 1376.35 2069.13 1381.5 2062.5 1381.5 2055.87 1381.5 2050.5 1376.35 2050.5 1370Z" stroke="#000000" stroke-width="0" stroke-linejoin="round" stroke-miterlimit="10" fill-rule="evenodd"/><path d="M2085.5 1370C2085.5 1363.65 2090.65 1358.5 2097 1358.5 2103.35 1358.5 2108.5 1363.65 2108.5 1370 2108.5 1376.35 2103.35 1381.5 2097 1381.5 2090.65 1381.5 2085.5 1376.35 2085.5 1370Z" stroke="#000000" stroke-width="0" stroke-linejoin="round" stroke-miterlimit="10" fill-rule="evenodd"/><path d="M2120.5 1370C2120.5 1363.65 2125.42 1358.5 2131.5 1358.5 2137.58 1358.5 2142.5 1363.65 2142.5 1370 2142.5 1376.35 2137.58 1381.5 2131.5 1381.5 2125.42 1381.5 2120.5 1376.35 2120.5 1370Z" stroke="#000000" stroke-width="0" stroke-linejoin="round" stroke-miterlimit="10" fill-rule="evenodd"/><path d="M2154.5 1370C2154.5 1363.65 2159.65 1358.5 2166 1358.5 2172.35 1358.5 2177.5 1363.65 2177.5 1370 2177.5 1376.35 2172.35 1381.5 2166 1381.5 2159.65 1381.5 2154.5 1376.35 2154.5 1370Z" stroke="#000000" stroke-width="0" stroke-linejoin="round" stroke-miterlimit="10" fill-rule="evenodd"/><path d="M2189.5 1370C2189.5 1363.65 2194.42 1358.5 2200.5 1358.5 2206.57 1358.5 2211.5 1363.65 2211.5 1370 2211.5 1376.35 2206.57 1381.5 2200.5 1381.5 2194.42 1381.5 2189.5 1376.35 2189.5 1370Z" stroke="#000000" stroke-width="0" stroke-linejoin="round" stroke-miterlimit="10" fill-rule="evenodd"/><path d="M2223.5 1370C2223.5 1363.65 2228.65 1358.5 2235 1358.5 2241.35 1358.5 2246.5 1363.65 2246.5 1370 2246.5 1376.35 2241.35 1381.5 2235 1381.5 2228.65 1381.5 2223.5 1376.35 2223.5 1370Z" stroke="#000000" stroke-width="0" stroke-linejoin="round" stroke-miterlimit="10" fill-rule="evenodd"/><path d="M2257.5 876.5C2257.5 870.425 2262.65 865.5 2269 865.5 2275.35 865.5 2280.5 870.425 2280.5 876.5 2280.5 882.575 2275.35 887.5 2269 887.5 2262.65 887.5 2257.5 882.575 2257.5 876.5Z" stroke="#000000" stroke-width="0" stroke-linejoin="round" stroke-miterlimit="10" fill-rule="evenodd"/><path d="M2292.5 1370C2292.5 1363.65 2297.65 1358.5 2304 1358.5 2310.35 1358.5 2315.5 1363.65 2315.5 1370 2315.5 1376.35 2310.35 1381.5 2304 1381.5 2297.65 1381.5 2292.5 1376.35 2292.5 1370Z" stroke="#000000" stroke-width="0" stroke-linejoin="round" stroke-miterlimit="10" fill-rule="evenodd"/><path d="M2326.5 1370C2326.5 1363.65 2331.65 1358.5 2338 1358.5 2344.35 1358.5 2349.5 1363.65 2349.5 1370 2349.5 1376.35 2344.35 1381.5 2338 1381.5 2331.65 1381.5 2326.5 1376.35 2326.5 1370Z" stroke="#000000" stroke-width="0" stroke-linejoin="round" stroke-miterlimit="10" fill-rule="evenodd"/><path d="M2361.5 1370C2361.5 1363.65 2366.42 1358.5 2372.5 1358.5 2378.58 1358.5 2383.5 1363.65 2383.5 1370 2383.5 1376.35 2378.58 1381.5 2372.5 1381.5 2366.42 1381.5 2361.5 1376.35 2361.5 1370Z" stroke="#000000" stroke-width="0" stroke-linejoin="round" stroke-miterlimit="10" fill-rule="evenodd"/><path d="M2395.5 1370C2395.5 1363.65 2400.65 1358.5 2407 1358.5 2413.35 1358.5 2418.5 1363.65 2418.5 1370 2418.5 1376.35 2413.35 1381.5 2407 1381.5 2400.65 1381.5 2395.5 1376.35 2395.5 1370Z" stroke="#000000" stroke-width="0" stroke-linejoin="round" stroke-miterlimit="10" fill-rule="evenodd"/><path d="M2430.5 1370C2430.5 1363.65 2435.43 1358.5 2441.5 1358.5 2447.58 1358.5 2452.5 1363.65 2452.5 1370 2452.5 1376.35 2447.58 1381.5 2441.5 1381.5 2435.43 1381.5 2430.5 1376.35 2430.5 1370Z" stroke="#000000" stroke-width="0" stroke-linejoin="round" stroke-miterlimit="10" fill-rule="evenodd"/><path d="M2464.5 1370C2464.5 1363.65 2469.42 1358.5 2475.5 1358.5 2481.57 1358.5 2486.5 1363.65 2486.5 1370 2486.5 1376.35 2481.57 1381.5 2475.5 1381.5 2469.42 1381.5 2464.5 1376.35 2464.5 1370Z" stroke="#000000" stroke-width="0" stroke-linejoin="round" stroke-miterlimit="10" fill-rule="evenodd"/><path d="M2498.5 876.5C2498.5 870.425 2503.65 865.5 2510 865.5 2516.35 865.5 2521.5 870.425 2521.5 876.5 2521.5 882.575 2516.35 887.5 2510 887.5 2503.65 887.5 2498.5 882.575 2498.5 876.5Z" stroke="#000000" stroke-width="0" stroke-linejoin="round" stroke-miterlimit="10" fill-rule="evenodd"/><path d="M2533.5 1370C2533.5 1363.65 2538.42 1358.5 2544.5 1358.5 2550.58 1358.5 2555.5 1363.65 2555.5 1370 2555.5 1376.35 2550.58 1381.5 2544.5 1381.5 2538.42 1381.5 2533.5 1376.35 2533.5 1370Z" stroke="#000000" stroke-width="0" stroke-linejoin="round" stroke-miterlimit="10" fill-rule="evenodd"/><path d="M2567.5 1370C2567.5 1363.65 2572.65 1358.5 2579 1358.5 2585.35 1358.5 2590.5 1363.65 2590.5 1370 2590.5 1376.35 2585.35 1381.5 2579 1381.5 2572.65 1381.5 2567.5 1376.35 2567.5 1370Z" stroke="#000000" stroke-width="0" stroke-linejoin="round" stroke-miterlimit="10" fill-rule="evenodd"/><path d="M2602.5 1370C2602.5 1363.65 2607.65 1358.5 2614 1358.5 2620.35 1358.5 2625.5 1363.65 2625.5 1370 2625.5 1376.35 2620.35 1381.5 2614 1381.5 2607.65 1381.5 2602.5 1376.35 2602.5 1370Z" stroke="#000000" stroke-width="0" stroke-linejoin="round" stroke-miterlimit="10" fill-rule="evenodd"/><path d="M2636.5 1370C2636.5 1363.65 2641.65 1358.5 2648 1358.5 2654.35 1358.5 2659.5 1363.65 2659.5 1370 2659.5 1376.35 2654.35 1381.5 2648 1381.5 2641.65 1381.5 2636.5 1376.35 2636.5 1370Z" stroke="#000000" stroke-width="0" stroke-linejoin="round" stroke-miterlimit="10" fill-rule="evenodd"/><path d="M2670.5 1370C2670.5 1363.65 2675.65 1358.5 2682 1358.5 2688.35 1358.5 2693.5 1363.65 2693.5 1370 2693.5 1376.35 2688.35 1381.5 2682 1381.5 2675.65 1381.5 2670.5 1376.35 2670.5 1370Z" stroke="#000000" stroke-width="0" stroke-linejoin="round" stroke-miterlimit="10" fill-rule="evenodd"/><path d="M1374 1308 1374 1370" stroke="#000000" stroke-width="13.75" stroke-linejoin="round" stroke-miterlimit="10" fill="none" fill-rule="evenodd"/><path d="M1408 1308 1408 1370" stroke="#000000" stroke-width="13.75" stroke-linejoin="round" stroke-miterlimit="10" fill="none" fill-rule="evenodd"/><path d="M1443 1308 1443 1370" stroke="#000000" stroke-width="13.75" stroke-linejoin="round" stroke-miterlimit="10" fill="none" fill-rule="evenodd"/><path d="M1477 1308 1477 1370" stroke="#000000" stroke-width="13.75" stroke-linejoin="round" stroke-miterlimit="10" fill="none" fill-rule="evenodd"/><path d="M1511 1308 1511 1370" stroke="#000000" stroke-width="13.75" stroke-linejoin="round" stroke-miterlimit="10" fill="none" fill-rule="evenodd"/><path d="M0 0 0.000360892 431" stroke="#000000" stroke-width="13.75" stroke-linejoin="round" stroke-miterlimit="10" fill="none" fill-rule="evenodd" transform="matrix(1 0 0 -1 1546 1308)"/><path d="M1580 1308 1580 1370" stroke="#000000" stroke-width="13.75" stroke-linejoin="round" stroke-miterlimit="10" fill="none" fill-rule="evenodd"/><path d="M1615 1308 1615 1370" stroke="#000000" stroke-width="13.75" stroke-linejoin="round" stroke-miterlimit="10" fill="none" fill-rule="evenodd"/><path d="M1649 1308 1649 1370" stroke="#000000" stroke-width="13.75" stroke-linejoin="round" stroke-miterlimit="10" fill="none" fill-rule="evenodd"/><path d="M1684 1308 1684 1370" stroke="#000000" stroke-width="13.75" stroke-linejoin="round" stroke-miterlimit="10" fill="none" fill-rule="evenodd"/><path d="M1718 1308 1718 1370" stroke="#000000" stroke-width="13.75" stroke-linejoin="round" stroke-miterlimit="10" fill="none" fill-rule="evenodd"/><path d="M1753 1308 1753 1370" stroke="#000000" stroke-width="13.75" stroke-linejoin="round" stroke-miterlimit="10" fill="none" fill-rule="evenodd"/><path d="M0 0 0.000360892 431" stroke="#000000" stroke-width="13.75" stroke-linejoin="round" stroke-miterlimit="10" fill="none" fill-rule="evenodd" transform="matrix(1 0 0 -1 1787 1308)"/><path d="M1821 1308 1821 1370" stroke="#000000" stroke-width="13.75" stroke-linejoin="round" stroke-miterlimit="10" fill="none" fill-rule="evenodd"/><path d="M1856 1308 1856 1370" stroke="#000000" stroke-width="13.75" stroke-linejoin="round" stroke-miterlimit="10" fill="none" fill-rule="evenodd"/><path d="M1890 1308 1890 1370" stroke="#000000" stroke-width="13.75" stroke-linejoin="round" stroke-miterlimit="10" fill="none" fill-rule="evenodd"/><path d="M1924 1308 1924 1370" stroke="#000000" stroke-width="13.75" stroke-linejoin="round" stroke-miterlimit="10" fill="none" fill-rule="evenodd"/><path d="M1959 1308 1959 1370" stroke="#000000" stroke-width="13.75" stroke-linejoin="round" stroke-miterlimit="10" fill="none" fill-rule="evenodd"/><path d="M1993 1308 1993 1370" stroke="#000000" stroke-width="13.75" stroke-linejoin="round" stroke-miterlimit="10" fill="none" fill-rule="evenodd"/><path d="M0 0 0.000360892 431" stroke="#000000" stroke-width="13.75" stroke-linejoin="round" stroke-miterlimit="10" fill="none" fill-rule="evenodd" transform="matrix(1 0 0 -1 2028 1308)"/><path d="M2063 1308 2063 1370" stroke="#000000" stroke-width="13.75" stroke-linejoin="round" stroke-miterlimit="10" fill="none" fill-rule="evenodd"/><path d="M2096 1308 2096 1370" stroke="#000000" stroke-width="13.75" stroke-linejoin="round" stroke-miterlimit="10" fill="none" fill-rule="evenodd"/><path d="M2131 1308 2131 1370" stroke="#000000" stroke-width="13.75" stroke-linejoin="round" stroke-miterlimit="10" fill="none" fill-rule="evenodd"/><path d="M2166 1308 2166 1370" stroke="#000000" stroke-width="13.75" stroke-linejoin="round" stroke-miterlimit="10" fill="none" fill-rule="evenodd"/><path d="M2200 1308 2200 1370" stroke="#000000" stroke-width="13.75" stroke-linejoin="round" stroke-miterlimit="10" fill="none" fill-rule="evenodd"/><path d="M2234 1308 2234 1370" stroke="#000000" stroke-width="13.75" stroke-linejoin="round" stroke-miterlimit="10" fill="none" fill-rule="evenodd"/><path d="M0 0 0.000360892 431" stroke="#000000" stroke-width="13.75" stroke-linejoin="round" stroke-miterlimit="10" fill="none" fill-rule="evenodd" transform="matrix(1 0 0 -1 2269 1308)"/><path d="M2303 1308 2303 1370" stroke="#000000" stroke-width="13.75" stroke-linejoin="round" stroke-miterlimit="10" fill="none" fill-rule="evenodd"/><path d="M2338 1308 2338 1370" stroke="#000000" stroke-width="13.75" stroke-linejoin="round" stroke-miterlimit="10" fill="none" fill-rule="evenodd"/><path d="M2372 1308 2372 1370" stroke="#000000" stroke-width="13.75" stroke-linejoin="round" stroke-miterlimit="10" fill="none" fill-rule="evenodd"/><path d="M2407 1308 2407 1370" stroke="#000000" stroke-width="13.75" stroke-linejoin="round" stroke-miterlimit="10" fill="none" fill-rule="evenodd"/><path d="M2441 1308 2441 1370" stroke="#000000" stroke-width="13.75" stroke-linejoin="round" stroke-miterlimit="10" fill="none" fill-rule="evenodd"/><path d="M2476 1308 2476 1370" stroke="#000000" stroke-width="13.75" stroke-linejoin="round" stroke-miterlimit="10" fill="none" fill-rule="evenodd"/><path d="M0 0 0.000360892 431" stroke="#000000" stroke-width="13.75" stroke-linejoin="round" stroke-miterlimit="10" fill="none" fill-rule="evenodd" transform="matrix(1 0 0 -1 2510 1308)"/><path d="M2544 1308 2544 1370" stroke="#000000" stroke-width="13.75" stroke-linejoin="round" stroke-miterlimit="10" fill="none" fill-rule="evenodd"/><path d="M2579 1308 2579 1370" stroke="#000000" stroke-width="13.75" stroke-linejoin="round" stroke-miterlimit="10" fill="none" fill-rule="evenodd"/><path d="M2613 1308 2613 1370" stroke="#000000" stroke-width="13.75" stroke-linejoin="round" stroke-miterlimit="10" fill="none" fill-rule="evenodd"/><path d="M2647 1308 2647 1370" stroke="#000000" stroke-width="13.75" stroke-linejoin="round" stroke-miterlimit="10" fill="none" fill-rule="evenodd"/><path d="M2682 1308 2682 1370" stroke="#000000" stroke-width="13.75" stroke-linejoin="round" stroke-miterlimit="10" fill="none" fill-rule="evenodd"/><path d="M1383.9 1067.27C1385.76 1067.27 1387.32 1067.92 1388.57 1069.23 1389.82 1070.53 1390.45 1072.19 1390.45 1074.19 1390.45 1076.2 1389.82 1077.86 1388.57 1079.16 1387.32 1080.47 1385.76 1081.12 1383.9 1081.12 1382.04 1081.12 1380.48 1080.47 1379.23 1079.16 1377.97 1077.86 1377.35 1076.2 1377.35 1074.19 1377.35 1072.19 1377.97 1070.53 1379.23 1069.23 1380.48 1067.92 1382.04 1067.27 1383.9 1067.27ZM1351.35 1067.27C1353.21 1067.27 1354.77 1067.92 1356.02 1069.23 1357.28 1070.53 1357.9 1072.19 1357.9 1074.19 1357.9 1076.2 1357.28 1077.86 1356.02 1079.16 1354.77 1080.47 1353.21 1081.12 1351.35 1081.12 1349.49 1081.12 1347.93 1080.47 1346.68 1079.16 1345.42 1077.86 1344.8 1076.2 1344.8 1074.19 1344.8 1072.19 1345.42 1070.53 1346.68 1069.23 1347.93 1067.92 1349.49 1067.27 1351.35 1067.27ZM1318.8 1067.27C1320.66 1067.27 1322.22 1067.92 1323.47 1069.23 1324.73 1070.53 1325.35 1072.19 1325.35 1074.19 1325.35 1076.2 1324.73 1077.86 1323.47 1079.16 1322.22 1080.47 1320.66 1081.12 1318.8 1081.12 1316.94 1081.12 1315.38 1080.47 1314.13 1079.16 1312.87 1077.86 1312.25 1076.2 1312.25 1074.19 1312.25 1072.19 1312.87 1070.53 1314.13 1069.23 1315.38 1067.92 1316.94 1067.27 1318.8 1067.27Z" fill-rule="evenodd"/><text fill="#000000" fill-opacity="0" font-family="Arial,Arial_MSFontService,sans-serif" font-size="13.8574" x="1312.25" y="1079.39">⋯</text><path d="M1316.21 857.703 1317.68 857.703C1317.58 859.422 1317.52 861.803 1317.52 864.846L1317.52 887.781C1317.52 888.819 1317.58 889.603 1317.7 890.131 1317.81 890.659 1318.02 891.089 1318.32 891.42 1318.61 891.751 1319.04 892.011 1319.59 892.199 1320.15 892.387 1320.84 892.53 1321.69 892.628 1322.53 892.727 1323.64 892.794 1325.02 892.83L1325.02 894.79 1305.17 894.79 1305.17 892.83C1307.16 892.74 1308.58 892.619 1309.43 892.467 1310.28 892.315 1310.93 892.087 1311.37 891.782 1311.82 891.478 1312.15 891.048 1312.35 890.493 1312.56 889.938 1312.66 889.034 1312.66 887.781L1312.66 866.001C1312.66 865.285 1312.54 864.761 1312.29 864.43 1312.04 864.099 1311.67 863.933 1311.19 863.933 1310.61 863.933 1309.8 864.229 1308.74 864.82 1307.69 865.41 1306.38 866.225 1304.82 867.263L1303.64 865.195Z" fill-rule="evenodd"/><text fill="#000000" fill-opacity="0" font-family="Arial,Arial_MSFontService,sans-serif" font-size="37.0874" x="1303.64" y="890.154">1</text><path d="M1212.34 1370.56 1245.42 1370.56 1245.42 1374.13 1212.34 1374.13Z" fill-rule="evenodd"/><text fill="#000000" fill-opacity="0" font-family="Arial,Arial_MSFontService,sans-serif" font-size="3.57178" x="1212.34" y="1373.69">−</text><path d="M1266.94 1350.98 1268.41 1350.98C1268.31 1352.7 1268.25 1355.08 1268.25 1358.13L1268.25 1381.06C1268.25 1382.1 1268.31 1382.88 1268.43 1383.41 1268.54 1383.94 1268.75 1384.37 1269.04 1384.7 1269.34 1385.03 1269.76 1385.29 1270.32 1385.48 1270.88 1385.67 1271.57 1385.81 1272.41 1385.91 1273.26 1386.01 1274.37 1386.08 1275.74 1386.11L1275.74 1388.07 1255.9 1388.07 1255.9 1386.11C1257.89 1386.02 1259.3 1385.9 1260.16 1385.75 1261.01 1385.6 1261.65 1385.37 1262.1 1385.06 1262.55 1384.76 1262.88 1384.33 1263.08 1383.77 1263.29 1383.22 1263.39 1382.32 1263.39 1381.06L1263.39 1359.28C1263.39 1358.57 1263.27 1358.04 1263.02 1357.71 1262.76 1357.38 1262.4 1357.21 1261.91 1357.21 1261.34 1357.21 1260.53 1357.51 1259.47 1358.1 1258.41 1358.69 1257.11 1359.51 1255.55 1360.54L1254.37 1358.48Z" fill-rule="evenodd"/><text fill="#000000" fill-opacity="0" font-family="Arial,Arial_MSFontService,sans-serif" font-size="37.0874" x="1254.37" y="1383.44">1</text><path d="M1301.06 1349.64 1305.22 1349.64 1285.83 1399.62 1281.62 1399.62Z" fill-rule="evenodd"/><text fill="#000000" fill-opacity="0" font-family="Arial,Arial_MSFontService,sans-serif" font-size="49.978" x="1281.62" y="1393.37">/</text><path d="M1311.39 1351.41 1334.43 1351.41 1334.43 1352.7 1318.8 1388.26 1314.91 1388.26 1314.91 1386.94 1329.38 1356.3 1329.38 1355.9 1317.57 1355.9C1316.83 1355.9 1316.25 1355.97 1315.81 1356.1 1315.37 1356.23 1315 1356.43 1314.71 1356.68 1314.41 1356.93 1314.17 1357.26 1313.97 1357.67 1313.77 1358.08 1313.5 1358.9 1313.16 1360.12L1310.85 1360.12Z" fill-rule="evenodd"/><text fill="#000000" fill-opacity="0" font-family="Arial,Arial_MSFontService,sans-serif" font-size="36.8457" x="1310.85" y="1383.65">7</text><path d="M2452.86 820.892C2453.99 820.892 2454.88 821.264 2455.53 822.007 2456.18 822.75 2456.51 823.721 2456.51 824.92 2456.51 825.869 2456.3 826.926 2455.87 828.089L2456.19 828.197C2457.94 825.726 2459.61 823.896 2461.2 822.705 2462.78 821.514 2464.41 820.919 2466.1 820.919 2467.76 820.919 2469.04 821.398 2469.94 822.356 2470.83 823.314 2471.28 824.643 2471.28 826.344 2471.28 827.472 2471.02 829.074 2470.5 831.151L2468.76 838.187C2468.27 840.139 2468.03 841.517 2468.03 842.323 2468.03 843.039 2468.15 843.558 2468.38 843.88 2468.61 844.203 2468.98 844.364 2469.48 844.364 2470.02 844.364 2470.59 844.145 2471.2 843.706 2471.81 843.267 2472.67 842.43 2473.78 841.195L2475.31 842.699C2473.77 844.346 2472.43 845.55 2471.28 846.311 2470.14 847.072 2468.83 847.452 2467.36 847.452 2466.2 847.452 2465.27 847.036 2464.57 846.203 2463.87 845.371 2463.52 844.31 2463.52 843.021 2463.52 841.857 2463.81 840.148 2464.41 837.892L2465.59 833.246C2466.02 831.563 2466.3 830.318 2466.43 829.513 2466.57 828.707 2466.63 828.054 2466.63 827.552 2466.63 826.317 2466.43 825.426 2466.02 824.88 2465.61 824.334 2464.93 824.061 2464 824.061 2463.25 824.061 2462.44 824.361 2461.57 824.961 2460.7 825.561 2459.78 826.465 2458.81 827.673 2457.83 828.882 2457.05 830.054 2456.46 831.191 2455.87 832.328 2455.38 833.729 2455.01 835.394L2452.46 847.023 2447.81 847.023 2451.73 829.996C2452.12 828.277 2452.32 826.953 2452.32 826.022 2452.32 825.305 2452.2 824.786 2451.97 824.464 2451.74 824.142 2451.37 823.981 2450.87 823.981 2450.32 823.981 2449.73 824.209 2449.11 824.665 2448.49 825.122 2447.65 825.95 2446.57 827.149L2445.04 825.646C2446.69 823.927 2448.06 822.705 2449.15 821.98 2450.24 821.255 2451.48 820.892 2452.86 820.892Z" fill-rule="evenodd"/><text fill="#000000" fill-opacity="0" font-family="Arial,Arial_MSFontService,sans-serif" font-size="26.5601" x="2445.04" y="844.132">𝑛</text><path d="M2496.14 835.099 2529.22 835.099 2529.22 838.67 2496.14 838.67ZM2496.14 823.954 2529.22 823.954 2529.22 827.525 2496.14 827.525Z" fill-rule="evenodd"/><text fill="#000000" fill-opacity="0" font-family="Arial,Arial_MSFontService,sans-serif" font-size="14.7168" x="2496.14" y="836.831">=</text><path d="M2595.67 816.246 2585.17 832.923 2585.17 833.299 2595.67 833.299 2595.67 826.612C2595.67 824.929 2595.7 823.045 2595.75 820.959 2595.8 818.874 2595.87 817.302 2595.94 816.246ZM2596.45 810.177 2600.29 810.177 2600.29 833.299 2600.85 833.299C2601.89 833.299 2602.63 833.223 2603.08 833.071 2603.53 832.919 2603.9 832.65 2604.2 832.265 2604.49 831.88 2604.76 831.249 2605.01 830.372L2607.06 830.372 2606.73 835.904 2600.29 835.904 2600.29 840.309C2600.29 841.508 2600.33 842.385 2600.41 842.94 2600.49 843.495 2600.62 843.934 2600.81 844.256 2601 844.579 2601.28 844.847 2601.64 845.062 2602.01 845.277 2602.61 845.492 2603.43 845.707L2603.43 847.023 2592.53 847.023 2592.53 845.707C2593.64 845.42 2594.38 845.102 2594.76 844.753 2595.13 844.404 2595.38 843.907 2595.49 843.263 2595.61 842.618 2595.67 841.634 2595.67 840.309L2595.67 835.904 2580.74 835.904 2580.74 833.89ZM2566.02 809.935 2567.49 809.935C2567.39 811.654 2567.33 814.035 2567.33 817.079L2567.33 840.013C2567.33 841.052 2567.39 841.835 2567.51 842.363 2567.62 842.891 2567.83 843.321 2568.13 843.652 2568.42 843.983 2568.85 844.243 2569.4 844.431 2569.96 844.619 2570.65 844.762 2571.5 844.861 2572.34 844.959 2573.45 845.026 2574.83 845.062L2574.83 847.023 2554.98 847.023 2554.98 845.062C2556.97 844.973 2558.39 844.852 2559.24 844.7 2560.09 844.547 2560.74 844.319 2561.18 844.015 2561.63 843.71 2561.96 843.281 2562.16 842.726 2562.37 842.171 2562.47 841.266 2562.47 840.013L2562.47 818.233C2562.47 817.517 2562.35 816.994 2562.1 816.662 2561.85 816.331 2561.48 816.166 2561 816.166 2560.42 816.166 2559.61 816.461 2558.55 817.052 2557.5 817.643 2556.19 818.457 2554.63 819.496L2553.45 817.428Z" fill-rule="evenodd"/><text fill="#000000" fill-opacity="0" font-family="Arial,Arial_MSFontService,sans-serif" font-size="37.0874" x="2553.45" y="842.387">14</text><path d="M2208.52 820.892C2209.65 820.892 2210.54 821.264 2211.19 822.007 2211.85 822.75 2212.17 823.721 2212.17 824.92 2212.17 825.869 2211.96 826.926 2211.53 828.089L2211.85 828.197C2213.61 825.726 2215.28 823.896 2216.86 822.705 2218.44 821.514 2220.08 820.919 2221.76 820.919 2223.43 820.919 2224.71 821.398 2225.6 822.356 2226.5 823.314 2226.94 824.643 2226.94 826.344 2226.94 827.472 2226.68 829.074 2226.17 831.151L2224.42 838.187C2223.94 840.139 2223.69 841.517 2223.69 842.323 2223.69 843.039 2223.81 843.558 2224.04 843.88 2224.28 844.203 2224.64 844.364 2225.15 844.364 2225.68 844.364 2226.26 844.145 2226.86 843.706 2227.47 843.267 2228.33 842.43 2229.44 841.195L2230.97 842.699C2229.43 844.346 2228.09 845.55 2226.94 846.311 2225.8 847.072 2224.49 847.452 2223.02 847.452 2221.86 847.452 2220.93 847.036 2220.23 846.203 2219.53 845.371 2219.18 844.31 2219.18 843.021 2219.18 841.857 2219.48 840.148 2220.07 837.892L2221.25 833.246C2221.68 831.563 2221.96 830.318 2222.1 829.513 2222.23 828.707 2222.3 828.054 2222.3 827.552 2222.3 826.317 2222.09 825.426 2221.68 824.88 2221.27 824.334 2220.6 824.061 2219.67 824.061 2218.91 824.061 2218.1 824.361 2217.24 824.961 2216.37 825.561 2215.45 826.465 2214.47 827.673 2213.49 828.882 2212.71 830.054 2212.12 831.191 2211.53 832.328 2211.05 833.729 2210.67 835.394L2208.12 847.023 2203.47 847.023 2207.39 829.996C2207.79 828.277 2207.98 826.953 2207.98 826.022 2207.98 825.305 2207.87 824.786 2207.64 824.464 2207.4 824.142 2207.04 823.981 2206.53 823.981 2205.98 823.981 2205.39 824.209 2204.78 824.665 2204.16 825.122 2203.31 825.95 2202.24 827.149L2200.71 825.646C2202.35 823.927 2203.72 822.705 2204.82 821.98 2205.91 821.255 2207.14 820.892 2208.52 820.892Z" fill-rule="evenodd"/><text fill="#000000" fill-opacity="0" font-family="Arial,Arial_MSFontService,sans-serif" font-size="26.5601" x="2200.71" y="844.132">𝑛</text><path d="M2251.8 835.099 2284.89 835.099 2284.89 838.67 2251.8 838.67ZM2251.8 823.954 2284.89 823.954 2284.89 827.525 2251.8 827.525Z" fill-rule="evenodd"/><text fill="#000000" fill-opacity="0" font-family="Arial,Arial_MSFontService,sans-serif" font-size="14.7168" x="2251.8" y="836.831">=</text><path d="M2308.84 810.365 2331.89 810.365 2331.89 811.654 2316.26 847.211 2312.36 847.211 2312.36 845.895 2326.84 815.253 2326.84 814.85 2315.02 814.85C2314.29 814.85 2313.7 814.917 2313.26 815.051 2312.82 815.185 2312.46 815.378 2312.16 815.628 2311.87 815.879 2311.62 816.21 2311.42 816.622 2311.23 817.034 2310.96 817.849 2310.62 819.066L2308.31 819.066Z" fill-rule="evenodd"/><text fill="#000000" fill-opacity="0" font-family="Arial,Arial_MSFontService,sans-serif" font-size="36.8457" x="2308.31" y="842.605">7</text><path d="M1450.82 820.892C1451.95 820.892 1452.84 821.264 1453.49 822.007 1454.14 822.75 1454.47 823.721 1454.47 824.92 1454.47 825.869 1454.26 826.926 1453.83 828.089L1454.15 828.197C1455.9 825.726 1457.57 823.896 1459.16 822.705 1460.74 821.514 1462.37 820.919 1464.06 820.919 1465.72 820.919 1467 821.398 1467.9 822.356 1468.79 823.314 1469.24 824.643 1469.24 826.344 1469.24 827.472 1468.98 829.074 1468.46 831.151L1466.72 838.187C1466.23 840.139 1465.99 841.517 1465.99 842.323 1465.99 843.039 1466.11 843.558 1466.34 843.88 1466.57 844.203 1466.94 844.364 1467.44 844.364 1467.98 844.364 1468.55 844.145 1469.16 843.706 1469.77 843.267 1470.63 842.43 1471.74 841.195L1473.27 842.699C1471.73 844.346 1470.39 845.55 1469.24 846.311 1468.09 847.072 1466.79 847.452 1465.32 847.452 1464.16 847.452 1463.22 847.036 1462.53 846.203 1461.83 845.371 1461.48 844.31 1461.48 843.021 1461.48 841.857 1461.77 840.148 1462.37 837.892L1463.55 833.246C1463.98 831.563 1464.26 830.318 1464.39 829.513 1464.53 828.707 1464.59 828.054 1464.59 827.552 1464.59 826.317 1464.39 825.426 1463.98 824.88 1463.57 824.334 1462.89 824.061 1461.96 824.061 1461.21 824.061 1460.4 824.361 1459.53 824.961 1458.66 825.561 1457.74 826.465 1456.77 827.673 1455.79 828.882 1455.01 830.054 1454.42 831.191 1453.83 832.328 1453.34 833.729 1452.97 835.394L1450.41 847.023 1445.77 847.023 1449.69 829.996C1450.08 828.277 1450.28 826.953 1450.28 826.022 1450.28 825.305 1450.16 824.786 1449.93 824.464 1449.7 824.142 1449.33 823.981 1448.83 823.981 1448.28 823.981 1447.69 824.209 1447.07 824.665 1446.45 825.122 1445.61 825.95 1444.53 827.149L1443 825.646C1444.65 823.927 1446.02 822.705 1447.11 821.98 1448.2 821.255 1449.44 820.892 1450.82 820.892Z" fill-rule="evenodd"/><text fill="#000000" fill-opacity="0" font-family="Arial,Arial_MSFontService,sans-serif" font-size="26.5601" x="1443" y="844.132">𝑛</text><path d="M1494.1 835.099 1527.18 835.099 1527.18 838.67 1494.1 838.67ZM1494.1 823.954 1527.18 823.954 1527.18 827.525 1494.1 827.525Z" fill-rule="evenodd"/><text fill="#000000" fill-opacity="0" font-family="Arial,Arial_MSFontService,sans-serif" font-size="14.7168" x="1494.1" y="836.831">=</text><path d="M1550.63 829.513 1583.72 829.513 1583.72 833.085 1550.63 833.085Z" fill-rule="evenodd"/><text fill="#000000" fill-opacity="0" font-family="Arial,Arial_MSFontService,sans-serif" font-size="3.57178" x="1550.63" y="832.638">−</text><path d="M1634.88 816.246 1624.38 832.923 1624.38 833.299 1634.88 833.299 1634.88 826.612C1634.88 824.929 1634.91 823.045 1634.96 820.959 1635.01 818.874 1635.08 817.302 1635.15 816.246ZM1635.66 810.177 1639.5 810.177 1639.5 833.299 1640.06 833.299C1641.1 833.299 1641.84 833.223 1642.29 833.071 1642.74 832.919 1643.11 832.65 1643.41 832.265 1643.7 831.88 1643.97 831.249 1644.22 830.372L1646.27 830.372 1645.94 835.904 1639.5 835.904 1639.5 840.309C1639.5 841.508 1639.54 842.385 1639.62 842.94 1639.7 843.495 1639.83 843.934 1640.02 844.256 1640.21 844.579 1640.49 844.847 1640.85 845.062 1641.22 845.277 1641.82 845.492 1642.64 845.707L1642.64 847.023 1631.74 847.023 1631.74 845.707C1632.85 845.42 1633.59 845.102 1633.97 844.753 1634.34 844.404 1634.59 843.907 1634.7 843.263 1634.82 842.618 1634.88 841.634 1634.88 840.309L1634.88 835.904 1619.95 835.904 1619.95 833.89ZM1605.23 809.935 1606.7 809.935C1606.6 811.654 1606.54 814.035 1606.54 817.079L1606.54 840.013C1606.54 841.052 1606.6 841.835 1606.72 842.363 1606.83 842.891 1607.04 843.321 1607.34 843.652 1607.63 843.983 1608.06 844.243 1608.61 844.431 1609.17 844.619 1609.86 844.762 1610.71 844.861 1611.55 844.959 1612.66 845.026 1614.04 845.062L1614.04 847.023 1594.19 847.023 1594.19 845.062C1596.18 844.973 1597.6 844.852 1598.45 844.7 1599.3 844.547 1599.95 844.319 1600.39 844.015 1600.84 843.71 1601.17 843.281 1601.37 842.726 1601.58 842.171 1601.68 841.266 1601.68 840.013L1601.68 818.233C1601.68 817.517 1601.56 816.994 1601.31 816.662 1601.06 816.331 1600.69 816.166 1600.21 816.166 1599.63 816.166 1598.82 816.461 1597.76 817.052 1596.71 817.643 1595.4 818.457 1593.84 819.496L1592.66 817.428Z" fill-rule="evenodd"/><text fill="#000000" fill-opacity="0" font-family="Arial,Arial_MSFontService,sans-serif" font-size="37.0874" x="1592.66" y="842.387">14</text><path d="M1713.51 820.892C1714.64 820.892 1715.53 821.264 1716.19 822.007 1716.84 822.75 1717.17 823.721 1717.17 824.92 1717.17 825.869 1716.95 826.926 1716.52 828.089L1716.84 828.197C1718.6 825.726 1720.27 823.896 1721.85 822.705 1723.44 821.514 1725.07 820.919 1726.75 820.919 1728.42 820.919 1729.7 821.398 1730.59 822.356 1731.49 823.314 1731.94 824.643 1731.94 826.344 1731.94 827.472 1731.68 829.074 1731.16 831.151L1729.41 838.187C1728.93 840.139 1728.69 841.517 1728.69 842.323 1728.69 843.039 1728.8 843.558 1729.04 843.88 1729.27 844.203 1729.64 844.364 1730.14 844.364 1730.67 844.364 1731.25 844.145 1731.86 843.706 1732.47 843.267 1733.32 842.43 1734.43 841.195L1735.97 842.699C1734.43 844.346 1733.08 845.55 1731.94 846.311 1730.79 847.072 1729.48 847.452 1728.02 847.452 1726.85 847.452 1725.92 847.036 1725.22 846.203 1724.52 845.371 1724.18 844.31 1724.18 843.021 1724.18 841.857 1724.47 840.148 1725.06 837.892L1726.24 833.246C1726.67 831.563 1726.96 830.318 1727.09 829.513 1727.22 828.707 1727.29 828.054 1727.29 827.552 1727.29 826.317 1727.08 825.426 1726.67 824.88 1726.26 824.334 1725.59 824.061 1724.66 824.061 1723.91 824.061 1723.1 824.361 1722.23 824.961 1721.36 825.561 1720.44 826.465 1719.46 827.673 1718.49 828.882 1717.7 830.054 1717.11 831.191 1716.52 832.328 1716.04 833.729 1715.66 835.394L1713.11 847.023 1708.47 847.023 1712.39 829.996C1712.78 828.277 1712.98 826.953 1712.98 826.022 1712.98 825.305 1712.86 824.786 1712.63 824.464 1712.4 824.142 1712.03 823.981 1711.53 823.981 1710.97 823.981 1710.39 824.209 1709.77 824.665 1709.15 825.122 1708.3 825.95 1707.23 827.149L1705.7 825.646C1707.35 823.927 1708.72 822.705 1709.81 821.98 1710.9 821.255 1712.14 820.892 1713.51 820.892Z" fill-rule="evenodd"/><text fill="#000000" fill-opacity="0" font-family="Arial,Arial_MSFontService,sans-serif" font-size="26.5601" x="1705.7" y="844.132">𝑛</text><path d="M1756.79 835.099 1789.88 835.099 1789.88 838.67 1756.79 838.67ZM1756.79 823.954 1789.88 823.954 1789.88 827.525 1756.79 827.525Z" fill-rule="evenodd"/><text fill="#000000" fill-opacity="0" font-family="Arial,Arial_MSFontService,sans-serif" font-size="14.7168" x="1756.79" y="836.831">=</text><path d="M1813.33 829.513 1846.41 829.513 1846.41 833.085 1813.33 833.085Z" fill-rule="evenodd"/><text fill="#000000" fill-opacity="0" font-family="Arial,Arial_MSFontService,sans-serif" font-size="3.57178" x="1813.33" y="832.638">−</text><path d="M1855.09 810.365 1878.13 810.365 1878.13 811.654 1862.5 847.211 1858.61 847.211 1858.61 845.895 1873.08 815.253 1873.08 814.85 1861.26 814.85C1860.53 814.85 1859.94 814.917 1859.5 815.051 1859.07 815.185 1858.7 815.378 1858.4 815.628 1858.11 815.879 1857.86 816.21 1857.67 816.622 1857.47 817.034 1857.2 817.849 1856.86 819.066L1854.55 819.066Z" fill-rule="evenodd"/><text fill="#000000" fill-opacity="0" font-family="Arial,Arial_MSFontService,sans-serif" font-size="36.8457" x="1854.55" y="842.605">7</text><path d="M1967.89 820.892C1969.02 820.892 1969.91 821.264 1970.56 822.007 1971.22 822.75 1971.54 823.721 1971.54 824.92 1971.54 825.869 1971.33 826.926 1970.9 828.089L1971.22 828.197C1972.98 825.726 1974.65 823.896 1976.23 822.705 1977.82 821.514 1979.45 820.919 1981.13 820.919 1982.8 820.919 1984.08 821.398 1984.97 822.356 1985.87 823.314 1986.31 824.643 1986.31 826.344 1986.31 827.472 1986.06 829.074 1985.54 831.151L1983.79 838.187C1983.31 840.139 1983.07 841.517 1983.07 842.323 1983.07 843.039 1983.18 843.558 1983.41 843.88 1983.65 844.203 1984.01 844.364 1984.52 844.364 1985.05 844.364 1985.63 844.145 1986.23 843.706 1986.84 843.267 1987.7 842.43 1988.81 841.195L1990.34 842.699C1988.8 844.346 1987.46 845.55 1986.31 846.311 1985.17 847.072 1983.86 847.452 1982.39 847.452 1981.23 847.452 1980.3 847.036 1979.6 846.203 1978.9 845.371 1978.55 844.31 1978.55 843.021 1978.55 841.857 1978.85 840.148 1979.44 837.892L1980.62 833.246C1981.05 831.563 1981.33 830.318 1981.47 829.513 1981.6 828.707 1981.67 828.054 1981.67 827.552 1981.67 826.317 1981.46 825.426 1981.05 824.88 1980.64 824.334 1979.97 824.061 1979.04 824.061 1978.29 824.061 1977.47 824.361 1976.61 824.961 1975.74 825.561 1974.82 826.465 1973.84 827.673 1972.86 828.882 1972.08 830.054 1971.49 831.191 1970.9 832.328 1970.42 833.729 1970.04 835.394L1967.49 847.023 1962.84 847.023 1966.76 829.996C1967.16 828.277 1967.35 826.953 1967.35 826.022 1967.35 825.305 1967.24 824.786 1967.01 824.464 1966.77 824.142 1966.41 823.981 1965.9 823.981 1965.35 823.981 1964.76 824.209 1964.15 824.665 1963.53 825.122 1962.68 825.95 1961.61 827.149L1960.08 825.646C1961.72 823.927 1963.09 822.705 1964.19 821.98 1965.28 821.255 1966.51 820.892 1967.89 820.892Z" fill-rule="evenodd"/><text fill="#000000" fill-opacity="0" font-family="Arial,Arial_MSFontService,sans-serif" font-size="26.5601" x="1960.08" y="844.132">𝑛</text><path d="M2011.17 835.099 2044.26 835.099 2044.26 838.67 2011.17 838.67ZM2011.17 823.954 2044.26 823.954 2044.26 827.525 2011.17 827.525Z" fill-rule="evenodd"/><text fill="#000000" fill-opacity="0" font-family="Arial,Arial_MSFontService,sans-serif" font-size="14.7168" x="2011.17" y="836.831">=</text><path d="M2078.93 812.218C2077.7 812.218 2076.66 812.585 2075.83 813.319 2075 814.053 2074.32 815.109 2073.81 816.488 2073.3 817.866 2072.94 819.545 2072.73 821.523 2072.51 823.502 2072.4 825.735 2072.4 828.224 2072.4 834.06 2072.95 838.344 2074.03 841.074 2075.11 843.804 2076.79 845.169 2079.06 845.169 2081.23 845.169 2082.84 843.885 2083.89 841.316 2084.93 838.747 2085.46 834.767 2085.46 829.378 2085.46 825.261 2085.19 821.926 2084.65 819.375 2084.11 816.824 2083.37 814.993 2082.41 813.883 2081.45 812.773 2080.29 812.218 2078.93 812.218ZM2079.06 809.935C2082.99 809.935 2085.9 811.448 2087.82 814.474 2089.74 817.499 2090.69 822.074 2090.69 828.197 2090.69 834.535 2089.67 839.328 2087.62 842.578 2085.57 845.827 2082.57 847.452 2078.64 847.452 2074.77 847.452 2071.89 845.93 2070 842.887 2068.11 839.843 2067.17 835.224 2067.17 829.029 2067.17 825.735 2067.46 822.888 2068.04 820.489 2068.62 818.09 2069.44 816.107 2070.48 814.541 2071.53 812.974 2072.79 811.815 2074.26 811.063 2075.73 810.311 2077.33 809.935 2079.06 809.935Z" fill-rule="evenodd"/><text fill="#000000" fill-opacity="0" font-family="Arial,Arial_MSFontService,sans-serif" font-size="37.5171" x="2067.17" y="842.763">0</text></g></svg>