<svg width="4237" height="1327" xmlns="http://www.w3.org/2000/svg" xmlns:xlink="http://www.w3.org/1999/xlink" overflow="hidden"><defs><clipPath id="clip0"><rect x="179" y="576" width="4237" height="1327"/></clipPath></defs><g clip-path="url(#clip0)" transform="translate(-179 -576)"><path d="M1019.18 1472.15 1744.18 1472.15 1744.18 1851.15 1019.18 1851.15Z" stroke="#000000" stroke-width="7.44449" stroke-miterlimit="8" fill="none" fill-rule="evenodd"/><text font-family="Cambria,Cambria_MSFontService,sans-serif" font-weight="400" font-size="135" transform="matrix(1 0 0 1 1235.33 1630)">Pitch <tspan font-size="135" x="-122.831" y="161">detection</tspan></text><path d="M2208.18 1472.15 2933.18 1472.15 2933.18 1851.15 2208.18 1851.15Z" stroke="#000000" stroke-width="7.44449" stroke-miterlimit="8" fill="none" fill-rule="evenodd"/><text font-family="Cambria,Cambria_MSFontService,sans-serif" font-weight="400" font-size="135" transform="matrix(1 0 0 1 2282.54 1630)">Simulated <tspan font-size="135" x="105.002" y="161">source</tspan></text><path d="M2208.18 641.154 2933.18 641.154 2933.18 1021.15 2208.18 1021.15Z" stroke="#000000" stroke-width="7.44449" stroke-miterlimit="8" fill="none" fill-rule="evenodd"/><text font-family="Cambria,Cambria_MSFontService,sans-serif" font-weight="400" font-size="135" transform="matrix(1 0 0 1 2309.95 800)">Adaptive <tspan font-size="135" x="117.072" y="161">filter</tspan></text><path d="M3257.18 647.154 3982.18 647.154 3982.18 1027.15 3257.18 1027.15Z" stroke="#000000" stroke-width="7.44449" stroke-miterlimit="8" fill="none" fill-rule="evenodd"/><text font-family="Cambria,Cambria_MSFontService,sans-serif" font-weight="400" font-size="135" transform="matrix(1 0 0 1 3331.53 807)">Simulated <tspan font-size="135" x="105.002" y="160">source</tspan></text><path d="M338.682 1235.65 680.051 1235.65 680.051 1656.33 678.182 1654.48 980.433 1654.48 980.433 1658.19 676.313 1658.19 676.313 1237.52 678.182 1239.39 338.682 1239.39ZM972.989 1634 1017.68 1656.33 972.989 1678.65Z" fill-rule="evenodd"/><path d="M0.0754593 0.0520332 341.552 0.0520332 341.552 409.691 339.692 407.828 1831.83 407.828 1831.83 411.555 337.83 411.555 337.83 1.91547 339.692 3.77891 0.0754593 3.77891ZM1824.39 387.331 1869.08 409.691 1824.39 432.052Z" fill-rule="evenodd" transform="matrix(1 0 0 -1 339 1239)"/><path d="M1742.68 1657.24 2169.51 1657.29 2169.51 1661.03 1742.68 1661ZM2162.08 1636.65 2206.68 1659.15 2162.07 1681.65Z" fill-rule="evenodd"/><path d="M24.973 0.0974627 24.9737 414.869 21.2236 414.869 21.2229 0.0974627ZM45.5985 407.422 23.0987 452.097 0.598473 407.422Z" fill-rule="evenodd" transform="matrix(1 0 0 -1 2651 1465)"/><path d="M2434.53 1022.65 2434.53 1421.39 2430.85 1421.39 2430.85 1022.65ZM2454.69 1413.93 2432.69 1458.65 2410.69 1413.93Z" fill-rule="evenodd"/><path d="M25.1846 0.0989066 25.1853 414.87 21.4352 414.87 21.4345 0.0989066ZM45.8101 407.423 23.3103 452.099 0.810084 407.423Z" fill-rule="evenodd" transform="matrix(1 0 0 -1 3596 1472)"/><path d="M2931.75 827.853 3218.51 833.416 3218.45 837.164 2931.68 831.616ZM3211.47 812.651 3255.68 836.018 3210.61 857.651Z" fill-rule="evenodd"/><path d="M0.88417 20.683 305.678 20.6837 305.678 24.4338 0.88417 24.4331ZM298.237 0.0585384 342.884 22.5587 298.237 45.0586Z" fill-rule="evenodd" transform="matrix(1 0 0 -1 3981 859)"/><path d="M290.257 1086.73C291.549 1086.73 292.684 1086.87 293.664 1087.16 294.643 1087.46 295.507 1087.9 296.257 1088.51 297.007 1089.11 297.674 1089.89 298.257 1090.85 298.841 1091.81 299.403 1093.11 299.945 1094.76 300.487 1096.4 300.997 1098.45 301.476 1100.88 301.955 1103.32 302.382 1105.85 302.757 1108.48L303.382 1108.48C307.382 1102.85 310.414 1098.74 312.476 1096.13 314.539 1093.53 316.278 1091.59 317.695 1090.32 319.112 1089.05 320.476 1088.15 321.789 1087.63 323.101 1087.11 324.841 1086.85 327.007 1086.85 328.966 1086.85 330.57 1087.1 331.82 1087.6L329.32 1098.91 324.945 1098.91C324.695 1097.16 323.966 1096.29 322.757 1096.29 322.382 1096.29 321.987 1096.35 321.57 1096.48 321.153 1096.6 320.643 1096.87 320.039 1097.29 319.434 1097.71 318.549 1098.52 317.382 1099.73 316.216 1100.93 314.903 1102.41 313.445 1104.16 311.987 1105.91 310.487 1107.75 308.945 1109.66L304.695 1114.98C305.445 1118.98 306.153 1122.43 306.82 1125.35 307.487 1128.27 308.08 1130.7 308.601 1132.63 309.122 1134.57 309.58 1136.1 309.976 1137.23 310.372 1138.35 310.799 1139.2 311.257 1139.76 311.716 1140.32 312.184 1140.72 312.664 1140.95 313.143 1141.17 313.695 1141.29 314.32 1141.29 315.445 1141.29 316.539 1140.85 317.601 1139.98 318.664 1139.1 320.195 1137.12 322.195 1134.04L326.257 1136.73C323.341 1141.06 320.705 1144.11 318.351 1145.88 315.997 1147.65 313.195 1148.54 309.945 1148.54 308.153 1148.54 306.632 1148.22 305.382 1147.57 304.132 1146.92 303.049 1145.89 302.132 1144.48 301.216 1143.06 300.403 1140.85 299.695 1137.85 298.403 1132.52 297.612 1128.43 297.32 1125.6L296.695 1125.6C292.278 1131.81 288.997 1136.27 286.851 1138.98 284.705 1141.68 282.934 1143.68 281.539 1144.98 280.143 1146.27 278.789 1147.17 277.476 1147.7 276.164 1148.22 274.424 1148.48 272.257 1148.48 270.299 1148.48 268.695 1148.23 267.445 1147.73L269.945 1136.41 274.32 1136.41C274.57 1138.16 275.299 1139.04 276.507 1139.04 277.091 1139.04 277.705 1138.88 278.351 1138.57 278.997 1138.26 279.924 1137.51 281.132 1136.32 282.341 1135.13 284.007 1133.27 286.132 1130.73 288.257 1128.18 291.341 1124.37 295.382 1119.29 294.757 1116 294.112 1112.83 293.445 1109.79 292.778 1106.75 292.091 1103.91 291.382 1101.29 290.674 1098.66 290.091 1096.95 289.632 1096.13 289.174 1095.32 288.684 1094.76 288.164 1094.45 287.643 1094.13 286.987 1093.98 286.195 1093.98 285.32 1093.98 284.528 1094.17 283.82 1094.57 283.112 1094.97 282.341 1095.65 281.507 1096.63 280.674 1097.61 279.57 1099.14 278.195 1101.23L274.132 1098.54C276.757 1094.58 279.278 1091.62 281.695 1089.66 284.112 1087.71 286.966 1086.73 290.257 1086.73Z" fill-rule="evenodd"/><text fill="#000000" fill-opacity="0" font-family="Arial,Arial_MSFontService,sans-serif" font-size="61.8125" x="267.445" y="1140.81">ğ‘¥</text><path d="M351.893 1056.98 379.768 1056.98 379.768 1061.79 362.268 1061.79 362.268 1171.35 379.768 1171.35 379.768 1176.16 351.893 1176.16Z" fill-rule="evenodd"/><text fill="#000000" fill-opacity="0" font-family="Arial,Arial_MSFontService,sans-serif" font-size="119.188" x="351.893" y="1161.27">[</text><path d="M402.018 1086.73C404.643 1086.73 406.716 1087.59 408.237 1089.32 409.757 1091.05 410.518 1093.31 410.518 1096.1 410.518 1098.31 410.018 1100.77 409.018 1103.48L409.768 1103.73C413.851 1097.98 417.737 1093.72 421.424 1090.95 425.112 1088.17 428.914 1086.79 432.83 1086.79 436.705 1086.79 439.684 1087.9 441.768 1090.13 443.851 1092.36 444.893 1095.46 444.893 1099.41 444.893 1102.04 444.289 1105.77 443.08 1110.6L439.018 1126.98C437.893 1131.52 437.33 1134.73 437.33 1136.6 437.33 1138.27 437.601 1139.48 438.143 1140.23 438.684 1140.98 439.539 1141.35 440.705 1141.35 441.955 1141.35 443.289 1140.84 444.705 1139.82 446.122 1138.8 448.122 1136.85 450.705 1133.98L454.268 1137.48C450.684 1141.31 447.559 1144.11 444.893 1145.88 442.226 1147.65 439.184 1148.54 435.768 1148.54 433.059 1148.54 430.893 1147.57 429.268 1145.63 427.643 1143.7 426.83 1141.23 426.83 1138.23 426.83 1135.52 427.518 1131.54 428.893 1126.29L431.643 1115.48C432.643 1111.56 433.299 1108.66 433.612 1106.79 433.924 1104.91 434.08 1103.39 434.08 1102.23 434.08 1099.35 433.601 1097.28 432.643 1096.01 431.684 1094.74 430.122 1094.1 427.955 1094.1 426.205 1094.1 424.32 1094.8 422.299 1096.2 420.278 1097.59 418.132 1099.7 415.862 1102.51 413.591 1105.32 411.768 1108.05 410.393 1110.7 409.018 1113.34 407.893 1116.6 407.018 1120.48L401.08 1147.54 390.268 1147.54 399.393 1107.91C400.309 1103.91 400.768 1100.83 400.768 1098.66 400.768 1097 400.497 1095.79 399.955 1095.04 399.414 1094.29 398.559 1093.91 397.393 1093.91 396.101 1093.91 394.737 1094.45 393.299 1095.51 391.862 1096.57 389.893 1098.5 387.393 1101.29L383.83 1097.79C387.664 1093.79 390.851 1090.95 393.393 1089.26 395.934 1087.57 398.809 1086.73 402.018 1086.73Z" fill-rule="evenodd"/><text fill="#000000" fill-opacity="0" font-family="Arial,Arial_MSFontService,sans-serif" font-size="61.8125" x="383.83" y="1140.81">ğ‘›</text><path d="M461.124 1056.98 488.999 1056.98 488.999 1176.16 461.124 1176.16 461.124 1171.35 478.624 1171.35 478.624 1061.79 461.124 1061.79Z" fill-rule="evenodd"/><text fill="#000000" fill-opacity="0" font-family="Arial,Arial_MSFontService,sans-serif" font-size="119.188" x="461.124" y="1161.27">]</text><path d="M4110.89 652.382C4112.6 652.382 4114.06 652.612 4115.27 653.07 4116.1 653.403 4116.93 653.955 4117.77 654.726 4118.6 655.497 4119.34 656.57 4119.99 657.945 4120.63 659.32 4121.19 660.862 4121.67 662.57 4122.15 664.278 4122.68 666.737 4123.27 669.945 4124.27 675.32 4125.24 680.976 4126.17 686.914 4127.11 692.851 4127.91 698.362 4128.58 703.445 4132.62 697.612 4136.05 691.903 4138.86 686.32 4141.67 680.737 4143.69 675.882 4144.92 671.757 4146.15 667.632 4146.77 664.278 4146.77 661.695 4146.77 659.737 4146.35 658.403 4145.52 657.695 4144.68 656.987 4143.27 656.57 4141.27 656.445L4141.89 653.382 4158.33 653.382 4160.02 656.507C4156.85 665.174 4152.56 674.445 4147.14 684.32 4141.81 693.987 4135.71 703.612 4128.83 713.195 4122.25 722.32 4116.77 728.924 4112.39 733.007 4109.35 735.799 4106.41 737.799 4103.58 739.007 4101.33 739.924 4098.93 740.382 4096.39 740.382 4095.52 740.382 4094.51 740.309 4093.36 740.164 4092.22 740.018 4091.33 739.82 4090.71 739.57L4093.39 727.445 4098.33 727.445C4098.33 730.112 4099.25 731.445 4101.08 731.445 4103.5 731.445 4106.31 729.934 4109.52 726.914 4112.73 723.893 4116.5 719.341 4120.83 713.257 4119.62 705.966 4117.98 697.174 4115.89 686.882 4113.68 675.882 4112.23 669.07 4111.52 666.445 4110.64 663.278 4109.73 661.257 4108.77 660.382 4108.18 659.841 4107.46 659.57 4106.58 659.57 4105.25 659.57 4104 660.112 4102.83 661.195 4101.66 662.278 4100.23 664.153 4098.52 666.82L4094.46 664.132C4097.33 659.841 4100.02 656.809 4102.52 655.039 4105.02 653.268 4107.81 652.382 4110.89 652.382Z" fill-rule="evenodd"/><text fill="#000000" fill-opacity="0" font-family="Arial,Arial_MSFontService,sans-serif" font-size="88" x="4090.71" y="729.382">ğ‘¦</text><path d="M4178.33 622.57 4206.21 622.57 4206.21 627.382 4188.71 627.382 4188.71 736.945 4206.21 736.945 4206.21 741.757 4178.33 741.757Z" fill-rule="evenodd"/><text fill="#000000" fill-opacity="0" font-family="Arial,Arial_MSFontService,sans-serif" font-size="119.188" x="4178.33" y="726.859">[</text><path d="M4228.46 652.32C4231.08 652.32 4233.16 653.184 4234.68 654.914 4236.2 656.643 4236.96 658.903 4236.96 661.695 4236.96 663.903 4236.46 666.362 4235.46 669.07L4236.21 669.32C4240.29 663.57 4244.18 659.309 4247.86 656.539 4251.55 653.768 4255.35 652.382 4259.27 652.382 4263.15 652.382 4266.12 653.497 4268.21 655.726 4270.29 657.955 4271.33 661.049 4271.33 665.007 4271.33 667.632 4270.73 671.362 4269.52 676.195L4265.46 692.57C4264.33 697.112 4263.77 700.32 4263.77 702.195 4263.77 703.862 4264.04 705.07 4264.58 705.82 4265.12 706.57 4265.98 706.945 4267.15 706.945 4268.4 706.945 4269.73 706.434 4271.15 705.414 4272.56 704.393 4274.56 702.445 4277.15 699.57L4280.71 703.07C4277.12 706.903 4274 709.705 4271.33 711.476 4268.67 713.247 4265.62 714.132 4262.21 714.132 4259.5 714.132 4257.33 713.164 4255.71 711.226 4254.08 709.289 4253.27 706.82 4253.27 703.82 4253.27 701.112 4253.96 697.132 4255.33 691.882L4258.08 681.07C4259.08 677.153 4259.74 674.257 4260.05 672.382 4260.36 670.507 4260.52 668.987 4260.52 667.82 4260.52 664.945 4260.04 662.872 4259.08 661.601 4258.12 660.33 4256.56 659.695 4254.4 659.695 4252.65 659.695 4250.76 660.393 4248.74 661.789 4246.72 663.184 4244.57 665.289 4242.3 668.101 4240.03 670.914 4238.21 673.643 4236.83 676.289 4235.46 678.934 4234.33 682.195 4233.46 686.07L4227.52 713.132 4216.71 713.132 4225.83 673.507C4226.75 669.507 4227.21 666.424 4227.21 664.257 4227.21 662.591 4226.94 661.382 4226.4 660.632 4225.85 659.882 4225 659.507 4223.83 659.507 4222.54 659.507 4221.18 660.039 4219.74 661.101 4218.3 662.164 4216.33 664.091 4213.83 666.882L4210.27 663.382C4214.1 659.382 4217.29 656.539 4219.83 654.851 4222.37 653.164 4225.25 652.32 4228.46 652.32Z" fill-rule="evenodd"/><text fill="#000000" fill-opacity="0" font-family="Arial,Arial_MSFontService,sans-serif" font-size="61.8125" x="4210.27" y="706.406">ğ‘›</text><path d="M4287.56 622.57 4315.44 622.57 4315.44 741.757 4287.56 741.757 4287.56 736.945 4305.06 736.945 4305.06 627.382 4287.56 627.382Z" fill-rule="evenodd"/><text fill="#000000" fill-opacity="0" font-family="Arial,Arial_MSFontService,sans-serif" font-size="119.188" x="4287.56" y="726.859">]</text><path d="M3626.88 1541.09C3630.96 1541.09 3634.48 1541.42 3637.44 1542.09L3635 1552.71 3629.5 1552.71C3628.92 1550.34 3628.16 1548.63 3627.22 1547.59 3626.28 1546.54 3624.9 1546.02 3623.07 1546.02 3620.69 1546.02 3618.68 1546.68 3617.03 1547.99 3615.39 1549.3 3613.98 1551.25 3612.82 1553.84 3611.65 1556.42 3610.57 1559.9 3609.57 1564.27L3608 1571.09 3624.07 1571.09 3622.69 1577.4 3606.57 1577.4 3594.94 1631.9C3593.02 1640.94 3590.09 1647.68 3586.13 1652.12 3582.17 1656.55 3577.19 1658.77 3571.19 1658.77 3569.44 1658.77 3568.07 1658.67 3567.07 1658.46L3568.13 1652.96C3568.55 1653.09 3569.52 1653.15 3571.07 1653.15 3572.94 1653.15 3574.55 1652.67 3575.88 1651.71 3577.21 1650.75 3578.45 1649.09 3579.6 1646.71 3580.74 1644.34 3581.8 1641.04 3582.75 1636.84L3596.19 1577.4 3585.63 1577.4 3586.57 1573.09C3589.36 1572.92 3591.37 1572.69 3592.6 1572.4 3593.83 1572.11 3594.78 1571.67 3595.47 1571.09 3596.16 1570.5 3596.74 1569.74 3597.22 1568.8 3597.7 1567.87 3598.32 1566.15 3599.07 1563.65 3601.27 1556.15 3604.68 1550.51 3609.28 1546.74 3613.89 1542.97 3619.75 1541.09 3626.88 1541.09Z" fill-rule="evenodd"/><text fill="#000000" fill-opacity="0" font-family="Arial,Arial_MSFontService,sans-serif" font-size="117.688" x="3567.07" y="1644.06">ğ‘“</text><path d="M3647.01 1610.67C3649.22 1610.67 3651.27 1610.79 3653.16 1611.03 3655.05 1611.27 3657.01 1611.65 3659.04 1612.16L3656.5 1623.29 3651.14 1623.29C3651.11 1621.71 3650.99 1620.41 3650.8 1619.36 3650.6 1618.32 3650.28 1617.49 3649.84 1616.89 3649.4 1616.28 3648.83 1615.85 3648.12 1615.59 3647.41 1615.33 3646.54 1615.19 3645.51 1615.16 3643.87 1615.16 3642.31 1615.52 3640.81 1616.25 3639.31 1616.98 3637.92 1617.98 3636.63 1619.27 3635.34 1620.56 3634.17 1622.06 3633.11 1623.79 3632.05 1625.51 3631.14 1627.38 3630.39 1629.37 3629.63 1631.37 3629.05 1633.45 3628.64 1635.62 3628.23 1637.78 3628.02 1639.94 3628.02 1642.09 3628.02 1645.3 3628.66 1647.74 3629.93 1649.42 3631.2 1651.1 3633.11 1651.94 3635.65 1651.94 3637.08 1651.94 3638.39 1651.81 3639.6 1651.56 3640.81 1651.3 3641.99 1650.87 3643.15 1650.26 3644.3 1649.66 3645.48 1648.86 3646.71 1647.88 3647.94 1646.89 3649.29 1645.68 3650.77 1644.22 3651.35 1644.83 3651.9 1645.43 3652.43 1646.02 3652.96 1646.61 3653.51 1647.21 3654.09 1647.81 3650.82 1651.2 3647.55 1653.72 3644.28 1655.37 3641.01 1657.02 3637.5 1657.85 3633.75 1657.85 3629.05 1657.85 3625.46 1656.48 3622.96 1653.74 3620.46 1651 3619.21 1647.08 3619.21 1642 3619.21 1639.15 3619.53 1636.41 3620.17 1633.76 3620.8 1631.11 3621.72 1628.62 3622.92 1626.29 3624.11 1623.96 3625.54 1621.84 3627.21 1619.93 3628.87 1618.02 3630.73 1616.38 3632.79 1615 3634.85 1613.62 3637.08 1612.56 3639.47 1611.8 3641.86 1611.04 3644.37 1610.67 3647.01 1610.67Z" fill-rule="evenodd"/><text fill="#000000" fill-opacity="0" font-family="Arial,Arial_MSFontService,sans-serif" font-size="47.1812" x="3619.21" y="1651.95">ğ‘</text></g></svg>