<svg width="2709" height="816" xmlns="http://www.w3.org/2000/svg" xmlns:xlink="http://www.w3.org/1999/xlink" overflow="hidden"><defs><clipPath id="clip0"><rect x="881" y="960" width="2709" height="816"/></clipPath></defs><g clip-path="url(#clip0)" transform="translate(-881 -960)"><rect x="1508.5" y="1512.5" width="446" height="233" stroke="#000000" stroke-width="4.58333" stroke-miterlimit="8" fill="#FFFFFF"/><text font-family="Cambria,Cambria_MSFontService,sans-serif" font-weight="400" font-size="83" transform="matrix(1 0 0 1 1641.57 1608)">Pitch <tspan font-size="83" x="-75.625" y="99">detection</tspan></text><rect x="2240.5" y="1512.5" width="446" height="233" stroke="#000000" stroke-width="4.58333" stroke-miterlimit="8" fill="#FFFFFF"/><text font-family="Cambria,Cambria_MSFontService,sans-serif" font-weight="400" font-size="83" transform="matrix(1 0 0 1 2286.32 1608)">Simulated <tspan font-size="83" x="64.648" y="99">larynx</tspan></text><rect x="2240.5" y="1000.5" width="446" height="234" stroke="#000000" stroke-width="4.58333" stroke-miterlimit="8" fill="#FFFFFF"/><text font-family="Cambria,Cambria_MSFontService,sans-serif" font-weight="400" font-size="83" transform="matrix(1 0 0 1 2387.37 1097)">LMS <tspan font-size="83" x="-91.7586" y="99">Equalizer</tspan></text><rect x="2886.5" y="1004.5" width="446" height="234" stroke="#000000" stroke-width="4.58333" stroke-miterlimit="8" fill="#FFFFFF"/><text font-family="Cambria,Cambria_MSFontService,sans-serif" font-weight="400" font-size="83" transform="matrix(1 0 0 1 2932.16 1101)">Simulated <tspan font-size="83" x="64.648" y="99">larynx</tspan></text><path d="M929.513 1348.27C930.35 1348.27 931.087 1348.36 931.721 1348.55 932.356 1348.74 932.917 1349.03 933.403 1349.42 933.89 1349.81 934.322 1350.32 934.7 1350.94 935.078 1351.56 935.443 1352.41 935.794 1353.47 936.146 1354.54 936.477 1355.87 936.787 1357.45 937.098 1359.03 937.375 1360.67 937.618 1362.37L938.023 1362.37C940.617 1358.72 942.583 1356.05 943.92 1354.37 945.258 1352.68 946.386 1351.42 947.304 1350.6 948.223 1349.77 949.108 1349.19 949.959 1348.85 950.81 1348.52 951.938 1348.35 953.343 1348.35 954.613 1348.35 955.653 1348.51 956.463 1348.83L954.842 1356.17 952.005 1356.17C951.843 1355.03 951.37 1354.47 950.587 1354.47 950.344 1354.47 950.087 1354.51 949.817 1354.59 949.547 1354.67 949.216 1354.85 948.824 1355.12 948.432 1355.39 947.858 1355.91 947.102 1356.7 946.345 1357.48 945.494 1358.44 944.548 1359.57 943.603 1360.71 942.63 1361.9 941.63 1363.14L938.875 1366.58C939.361 1369.18 939.82 1371.42 940.253 1373.31 940.685 1375.2 941.07 1376.78 941.408 1378.03 941.745 1379.29 942.042 1380.28 942.299 1381.01 942.556 1381.74 942.833 1382.29 943.13 1382.65 943.427 1383.02 943.731 1383.28 944.042 1383.42 944.353 1383.57 944.711 1383.65 945.116 1383.65 945.845 1383.65 946.555 1383.36 947.243 1382.8 947.932 1382.23 948.925 1380.94 950.222 1378.95L952.857 1380.69C950.965 1383.5 949.256 1385.48 947.73 1386.63 946.203 1387.77 944.386 1388.35 942.279 1388.35 941.117 1388.35 940.131 1388.14 939.32 1387.72 938.51 1387.3 937.807 1386.63 937.213 1385.71 936.619 1384.79 936.092 1383.36 935.632 1381.42 934.795 1377.96 934.281 1375.31 934.092 1373.47L933.687 1373.47C930.823 1377.5 928.695 1380.39 927.304 1382.15 925.913 1383.9 924.764 1385.2 923.859 1386.04 922.954 1386.88 922.076 1387.46 921.225 1387.8 920.374 1388.14 919.246 1388.31 917.841 1388.31 916.571 1388.31 915.531 1388.15 914.72 1387.82L916.341 1380.49 919.178 1380.49C919.34 1381.62 919.813 1382.19 920.597 1382.19 920.975 1382.19 921.374 1382.09 921.792 1381.88 922.211 1381.68 922.812 1381.19 923.596 1380.42 924.379 1379.65 925.46 1378.45 926.838 1376.8 928.216 1375.15 930.215 1372.68 932.836 1369.38 932.431 1367.25 932.012 1365.19 931.58 1363.22 931.147 1361.25 930.702 1359.41 930.242 1357.71 929.783 1356.01 929.405 1354.89 929.107 1354.37 928.81 1353.84 928.493 1353.47 928.155 1353.27 927.817 1353.07 927.392 1352.97 926.878 1352.97 926.311 1352.97 925.798 1353.1 925.338 1353.35 924.879 1353.61 924.379 1354.05 923.839 1354.69 923.299 1355.32 922.583 1356.32 921.691 1357.67L919.057 1355.93C920.759 1353.36 922.393 1351.44 923.961 1350.17 925.528 1348.9 927.378 1348.27 929.513 1348.27Z" fill-rule="evenodd"/><text fill="#000000" fill-opacity="0" font-family="Arial,Arial_MSFontService,sans-serif" font-size="40.0815" x="914.72" y="1383.34">ğ‘¥</text><path d="M969.357 1328.98 987.432 1328.98 987.432 1332.1 976.085 1332.1 976.085 1403.14 987.432 1403.14 987.432 1406.26 969.357 1406.26Z" fill-rule="evenodd"/><text fill="#000000" fill-opacity="0" font-family="Arial,Arial_MSFontService,sans-serif" font-size="77.2856" x="969.357" y="1396.6">[</text><path d="M1001.53 1348.27C1003.23 1348.27 1004.58 1348.83 1005.56 1349.95 1006.55 1351.07 1007.04 1352.54 1007.04 1354.35 1007.04 1355.78 1006.72 1357.37 1006.07 1359.13L1006.55 1359.29C1009.2 1355.56 1011.72 1352.8 1014.11 1351 1016.5 1349.21 1018.97 1348.31 1021.51 1348.31 1024.02 1348.31 1025.95 1349.03 1027.3 1350.47 1028.66 1351.92 1029.33 1353.93 1029.33 1356.49 1029.33 1358.2 1028.94 1360.61 1028.16 1363.75L1025.52 1374.37C1024.79 1377.31 1024.43 1379.39 1024.43 1380.61 1024.43 1381.69 1024.6 1382.47 1024.95 1382.96 1025.3 1383.44 1025.86 1383.69 1026.62 1383.69 1027.43 1383.69 1028.29 1383.36 1029.21 1382.69 1030.13 1382.03 1031.42 1380.77 1033.1 1378.9L1035.41 1381.17C1033.09 1383.66 1031.06 1385.48 1029.33 1386.63 1027.6 1387.77 1025.63 1388.35 1023.41 1388.35 1021.66 1388.35 1020.25 1387.72 1019.2 1386.46 1018.15 1385.21 1017.62 1383.61 1017.62 1381.66 1017.62 1379.9 1018.06 1377.32 1018.96 1373.92L1020.74 1366.91C1021.39 1364.37 1021.81 1362.49 1022.02 1361.28 1022.22 1360.06 1022.32 1359.07 1022.32 1358.32 1022.32 1356.45 1022.01 1355.11 1021.39 1354.28 1020.77 1353.46 1019.75 1353.05 1018.35 1353.05 1017.21 1353.05 1015.99 1353.5 1014.68 1354.41 1013.37 1355.31 1011.98 1356.68 1010.51 1358.5 1009.03 1360.32 1007.85 1362.09 1006.96 1363.81 1006.07 1365.52 1005.34 1367.64 1004.77 1370.15L1000.92 1387.7 993.91 1387.7 999.827 1362.01C1000.42 1359.41 1000.72 1357.41 1000.72 1356.01 1000.72 1354.93 1000.54 1354.14 1000.19 1353.66 999.84 1353.17 999.286 1352.93 998.53 1352.93 997.692 1352.93 996.807 1353.27 995.875 1353.96 994.943 1354.65 993.667 1355.9 992.046 1357.71L989.735 1355.44C992.221 1352.85 994.288 1351 995.936 1349.91 997.584 1348.81 999.449 1348.27 1001.53 1348.27Z" fill-rule="evenodd"/><text fill="#000000" fill-opacity="0" font-family="Arial,Arial_MSFontService,sans-serif" font-size="40.0815" x="989.735" y="1383.34">ğ‘›</text><path d="M1039.48 1328.98 1057.55 1328.98 1057.55 1406.26 1039.48 1406.26 1039.48 1403.14 1050.83 1403.14 1050.83 1332.1 1039.48 1332.1Z" fill-rule="evenodd"/><text fill="#000000" fill-opacity="0" font-family="Arial,Arial_MSFontService,sans-serif" font-size="77.2856" x="1039.48" y="1396.6">]</text><path d="M1090 1366.85 1300.05 1366.85 1300.05 1625.92 1298.9 1624.78 1484.88 1624.78 1484.88 1627.07 1297.75 1627.07 1297.75 1368 1298.9 1369.15 1090 1369.15ZM1480.3 1612.17 1507.8 1625.92 1480.3 1639.67Z"/><path d="M0-1.14583 210.15-1.14583 210.15 250.748 209.005 249.602 1127.29 249.602 1127.29 251.894 207.859 251.894 207.859 0 209.005 1.14583 0 1.14583ZM1122.71 236.998 1150.21 250.748 1122.71 264.498Z" transform="matrix(1 0 0 -1 1090 1367.75)"/><path d="M1954 1626.85 2217.18 1626.88 2217.18 1629.17 1954 1629.15ZM2212.6 1614.27 2240.1 1628.02 2212.59 1641.77Z"/><path d="M1.14583-1.48628e-06 1.14616 255.31-1.1455 255.31-1.14583 1.48628e-06ZM13.7503 250.726 0.000360892 278.226-13.7497 250.726Z" transform="matrix(1 0 0 -1 2527 1508.23)"/><path d="M2380.15 1236 2380.15 1481.16 2377.85 1481.16 2377.85 1236ZM2392.75 1476.57 2379 1504.07 2365.25 1476.57Z"/><path d="M3075.58 1569.04C3078.23 1569.04 3080.51 1569.26 3082.43 1569.69L3080.85 1576.58 3077.28 1576.58C3076.91 1575.04 3076.41 1573.93 3075.81 1573.26 3075.2 1572.58 3074.3 1572.24 3073.11 1572.24 3071.57 1572.24 3070.27 1572.67 3069.2 1573.52 3068.13 1574.37 3067.22 1575.64 3066.46 1577.31 3065.71 1578.99 3065 1581.24 3064.36 1584.08L3063.34 1588.5 3073.76 1588.5 3072.87 1592.59 3062.41 1592.59 3054.87 1627.93C3053.63 1633.79 3051.73 1638.16 3049.16 1641.04 3046.59 1643.92 3043.36 1645.36 3039.47 1645.36 3038.34 1645.36 3037.45 1645.29 3036.8 1645.15L3037.49 1641.59C3037.76 1641.67 3038.39 1641.71 3039.39 1641.71 3040.61 1641.71 3041.65 1641.4 3042.51 1640.78 3043.38 1640.15 3044.18 1639.07 3044.92 1637.53 3045.67 1635.99 3046.35 1633.86 3046.97 1631.13L3055.68 1592.59 3048.83 1592.59 3049.44 1589.79C3051.25 1589.68 3052.56 1589.54 3053.35 1589.35 3054.15 1589.16 3054.77 1588.87 3055.22 1588.5 3055.66 1588.12 3056.04 1587.62 3056.35 1587.02 3056.66 1586.41 3057.06 1585.29 3057.55 1583.67 3058.98 1578.81 3061.19 1575.16 3064.17 1572.71 3067.16 1570.27 3070.96 1569.04 3075.58 1569.04Z" fill-rule="evenodd"/><text fill="#000000" fill-opacity="0" font-family="Arial,Arial_MSFontService,sans-serif" font-size="76.313" x="3036.8" y="1635.82">ğ‘“</text><path d="M3088.6 1613.67C3090.05 1613.67 3091.39 1613.75 3092.63 1613.91 3093.87 1614.07 3095.16 1614.32 3096.49 1614.66L3094.82 1621.95 3091.31 1621.95C3091.29 1620.92 3091.21 1620.06 3091.08 1619.38 3090.95 1618.69 3090.75 1618.15 3090.46 1617.75 3090.17 1617.36 3089.79 1617.07 3089.33 1616.91 3088.86 1616.74 3088.29 1616.64 3087.61 1616.62 3086.54 1616.62 3085.51 1616.86 3084.53 1617.34 3083.55 1617.81 3082.63 1618.47 3081.79 1619.32 3080.95 1620.16 3080.18 1621.15 3079.48 1622.28 3078.79 1623.41 3078.19 1624.63 3077.7 1625.94 3077.2 1627.26 3076.82 1628.62 3076.55 1630.04 3076.28 1631.46 3076.15 1632.87 3076.15 1634.28 3076.15 1636.39 3076.56 1637.99 3077.4 1639.09 3078.23 1640.2 3079.48 1640.75 3081.15 1640.75 3082.08 1640.75 3082.95 1640.66 3083.74 1640.49 3084.54 1640.33 3085.31 1640.04 3086.06 1639.65 3086.82 1639.25 3087.6 1638.73 3088.4 1638.08 3089.21 1637.44 3090.1 1636.64 3091.07 1635.68 3091.45 1636.08 3091.81 1636.47 3092.16 1636.86 3092.5 1637.25 3092.87 1637.64 3093.24 1638.04 3091.1 1640.26 3088.95 1641.91 3086.81 1643 3084.66 1644.08 3082.36 1644.62 3079.9 1644.62 3076.82 1644.62 3074.46 1643.72 3072.83 1641.92 3071.19 1640.13 3070.37 1637.56 3070.37 1634.23 3070.37 1632.36 3070.58 1630.56 3070.99 1628.82 3071.41 1627.08 3072.01 1625.45 3072.8 1623.92 3073.58 1622.39 3074.52 1621 3075.61 1619.75 3076.7 1618.5 3077.92 1617.42 3079.27 1616.52 3080.62 1615.61 3082.08 1614.91 3083.65 1614.42 3085.22 1613.92 3086.87 1613.67 3088.6 1613.67Z" fill-rule="evenodd"/><text fill="#000000" fill-opacity="0" font-family="Arial,Arial_MSFontService,sans-serif" font-size="30.9468" x="3070.37" y="1640.75">ğ‘</text><path d="M3111.48 1568.52 3129.55 1568.52 3129.55 1571.64 3118.2 1571.64 3118.2 1642.68 3129.55 1642.68 3129.55 1645.8 3111.48 1645.8Z" fill-rule="evenodd"/><text fill="#000000" fill-opacity="0" font-family="Arial,Arial_MSFontService,sans-serif" font-size="77.2856" x="3111.48" y="1636.14">[</text><path d="M3143.65 1587.81C3145.35 1587.81 3146.7 1588.37 3147.68 1589.49 3148.67 1590.61 3149.16 1592.08 3149.16 1593.89 3149.16 1595.32 3148.84 1596.91 3148.19 1598.67L3148.67 1598.83C3151.32 1595.1 3153.84 1592.34 3156.23 1590.54 3158.62 1588.75 3161.09 1587.85 3163.63 1587.85 3166.14 1587.85 3168.07 1588.57 3169.42 1590.02 3170.77 1591.46 3171.45 1593.47 3171.45 1596.03 3171.45 1597.74 3171.06 1600.15 3170.28 1603.29L3167.64 1613.91C3166.91 1616.85 3166.55 1618.93 3166.55 1620.15 3166.55 1621.23 3166.72 1622.01 3167.07 1622.5 3167.42 1622.98 3167.98 1623.23 3168.74 1623.23 3169.55 1623.23 3170.41 1622.9 3171.33 1622.24 3172.25 1621.57 3173.54 1620.31 3175.22 1618.45L3177.53 1620.72C3175.21 1623.2 3173.18 1625.02 3171.45 1626.17 3169.72 1627.31 3167.75 1627.89 3165.53 1627.89 3163.78 1627.89 3162.37 1627.26 3161.32 1626 3160.26 1624.75 3159.74 1623.15 3159.74 1621.2 3159.74 1619.45 3160.18 1616.87 3161.08 1613.46L3162.86 1606.45C3163.51 1603.91 3163.93 1602.03 3164.14 1600.82 3164.34 1599.6 3164.44 1598.61 3164.44 1597.86 3164.44 1595.99 3164.13 1594.65 3163.51 1593.83 3162.89 1593 3161.87 1592.59 3160.47 1592.59 3159.33 1592.59 3158.11 1593.04 3156.8 1593.95 3155.49 1594.85 3154.1 1596.22 3152.63 1598.04 3151.15 1599.86 3149.97 1601.63 3149.08 1603.35 3148.19 1605.07 3147.46 1607.18 3146.89 1609.69L3143.04 1627.24 3136.03 1627.24 3141.95 1601.55C3142.54 1598.95 3142.84 1596.95 3142.84 1595.55 3142.84 1594.47 3142.66 1593.68 3142.31 1593.2 3141.96 1592.71 3141.41 1592.47 3140.65 1592.47 3139.81 1592.47 3138.93 1592.81 3138 1593.5 3137.06 1594.19 3135.79 1595.44 3134.17 1597.25L3131.86 1594.98C3134.34 1592.39 3136.41 1590.54 3138.06 1589.45 3139.7 1588.35 3141.57 1587.81 3143.65 1587.81Z" fill-rule="evenodd"/><text fill="#000000" fill-opacity="0" font-family="Arial,Arial_MSFontService,sans-serif" font-size="40.0815" x="3131.86" y="1622.88">ğ‘›</text><path d="M3181.6 1568.52 3199.67 1568.52 3199.67 1645.8 3181.6 1645.8 3181.6 1642.68 3192.95 1642.68 3192.95 1571.64 3181.6 1571.64Z" fill-rule="evenodd"/><text fill="#000000" fill-opacity="0" font-family="Arial,Arial_MSFontService,sans-serif" font-size="77.2856" x="3181.6" y="1636.14">]</text><path d="M1.14583-1.48628e-06 1.14616 255.31-1.1455 255.31-1.14583 1.48628e-06ZM13.7503 250.726 0.000360892 278.226-13.7497 250.726Z" transform="matrix(1 0 0 -1 3109 1512.23)"/><path d="M2686.02 1115.85 2862.63 1119.25 2862.59 1121.54 2685.98 1118.15ZM2858.29 1106.56 2885.52 1120.84 2857.76 1134.06Z"/><path d="M1.96305e-06-1.14583 187.736-1.14551 187.736 1.14615-1.96305e-06 1.14583ZM183.153-13.7497 210.653 0.000360892 183.153 13.7503Z" transform="matrix(1 0 0 -1 3332 1121)"/><path d="M3429.7 1013.68C3430.54 1013.68 3431.27 1013.78 3431.91 1013.97 3432.54 1014.16 3433.1 1014.45 3433.59 1014.84 3434.08 1015.23 3434.51 1015.74 3434.89 1016.36 3435.26 1016.98 3435.63 1017.82 3435.98 1018.89 3436.33 1019.96 3436.66 1021.28 3436.97 1022.86 3437.28 1024.44 3437.56 1026.08 3437.8 1027.79L3438.21 1027.79C3440.8 1024.14 3442.77 1021.47 3444.11 1019.78 3445.44 1018.09 3446.57 1016.84 3447.49 1016.01 3448.41 1015.19 3449.29 1014.61 3450.14 1014.27 3451 1013.93 3452.12 1013.76 3453.53 1013.76 3454.8 1013.76 3455.84 1013.93 3456.65 1014.25L3455.03 1021.59 3452.19 1021.59C3452.03 1020.45 3451.56 1019.88 3450.77 1019.88 3450.53 1019.88 3450.27 1019.92 3450 1020.01 3449.73 1020.09 3449.4 1020.26 3449.01 1020.53 3448.62 1020.8 3448.04 1021.33 3447.29 1022.11 3446.53 1022.9 3445.68 1023.86 3444.73 1024.99 3443.79 1026.12 3442.82 1027.31 3441.82 1028.56L3439.06 1032C3439.55 1034.6 3440.01 1036.84 3440.44 1038.73 3440.87 1040.62 3441.26 1042.19 3441.59 1043.45 3441.93 1044.71 3442.23 1045.7 3442.48 1046.43 3442.74 1047.16 3443.02 1047.71 3443.32 1048.07 3443.61 1048.44 3443.92 1048.69 3444.23 1048.84 3444.54 1048.99 3444.9 1049.06 3445.3 1049.06 3446.03 1049.06 3446.74 1048.78 3447.43 1048.21 3448.12 1047.64 3449.11 1046.36 3450.41 1044.36L3453.04 1046.1C3451.15 1048.91 3449.44 1050.89 3447.92 1052.04 3446.39 1053.19 3444.57 1053.76 3442.46 1053.76 3441.3 1053.76 3440.32 1053.56 3439.51 1053.14 3438.7 1052.72 3437.99 1052.05 3437.4 1051.13 3436.8 1050.21 3436.28 1048.78 3435.82 1046.83 3434.98 1043.38 3434.47 1040.73 3434.28 1038.89L3433.87 1038.89C3431.01 1042.92 3428.88 1045.81 3427.49 1047.56 3426.1 1049.32 3424.95 1050.62 3424.04 1051.45 3423.14 1052.29 3422.26 1052.88 3421.41 1053.22 3420.56 1053.56 3419.43 1053.72 3418.03 1053.72 3416.76 1053.72 3415.72 1053.56 3414.91 1053.24L3416.53 1045.9 3419.36 1045.9C3419.53 1047.04 3420 1047.6 3420.78 1047.6 3421.16 1047.6 3421.56 1047.5 3421.98 1047.3 3422.4 1047.1 3423 1046.61 3423.78 1045.84 3424.56 1045.07 3425.65 1043.86 3427.02 1042.21 3428.4 1040.57 3430.4 1038.09 3433.02 1034.8 3432.62 1032.66 3432.2 1030.61 3431.77 1028.64 3431.33 1026.67 3430.89 1024.83 3430.43 1023.13 3429.97 1021.42 3429.59 1020.31 3429.29 1019.78 3429 1019.26 3428.68 1018.89 3428.34 1018.69 3428 1018.49 3427.58 1018.38 3427.06 1018.38 3426.5 1018.38 3425.98 1018.51 3425.52 1018.77 3425.06 1019.03 3424.56 1019.47 3424.02 1020.11 3423.48 1020.74 3422.77 1021.73 3421.88 1023.09L3419.24 1021.34C3420.94 1018.78 3422.58 1016.86 3424.15 1015.59 3425.71 1014.32 3427.56 1013.68 3429.7 1013.68Z" fill-rule="evenodd"/><text fill="#000000" fill-opacity="0" font-family="Arial,Arial_MSFontService,sans-serif" font-size="40.0815" x="3414.91" y="1048.75">ğ‘¥</text><path d="M3469.54 994.392 3487.62 994.392 3487.62 997.513 3476.27 997.513 3476.27 1068.56 3487.62 1068.56 3487.62 1071.68 3469.54 1071.68Z" fill-rule="evenodd"/><text fill="#000000" fill-opacity="0" font-family="Arial,Arial_MSFontService,sans-serif" font-size="77.2856" x="3469.54" y="1062.02">[</text><path d="M3501.71 1013.68C3503.42 1013.68 3504.76 1014.24 3505.75 1015.36 3506.73 1016.49 3507.23 1017.95 3507.23 1019.76 3507.23 1021.19 3506.9 1022.79 3506.25 1024.54L3506.74 1024.71C3509.39 1020.98 3511.91 1018.22 3514.3 1016.42 3516.69 1014.62 3519.15 1013.72 3521.69 1013.72 3524.21 1013.72 3526.14 1014.45 3527.49 1015.89 3528.84 1017.34 3529.52 1019.34 3529.52 1021.91 3529.52 1023.61 3529.12 1026.03 3528.34 1029.16L3525.71 1039.78C3524.98 1042.73 3524.61 1044.81 3524.61 1046.02 3524.61 1047.1 3524.79 1047.89 3525.14 1048.37 3525.49 1048.86 3526.04 1049.1 3526.8 1049.1 3527.61 1049.1 3528.48 1048.77 3529.39 1048.11 3530.31 1047.45 3531.61 1046.19 3533.29 1044.32L3535.6 1046.59C3533.27 1049.08 3531.25 1050.89 3529.52 1052.04 3527.79 1053.19 3525.81 1053.76 3523.6 1053.76 3521.84 1053.76 3520.44 1053.14 3519.38 1051.88 3518.33 1050.62 3517.8 1049.02 3517.8 1047.08 3517.8 1045.32 3518.25 1042.74 3519.14 1039.34L3520.92 1032.33C3521.57 1029.79 3522 1027.91 3522.2 1026.69 3522.4 1025.48 3522.5 1024.49 3522.5 1023.73 3522.5 1021.87 3522.19 1020.53 3521.57 1019.7 3520.95 1018.88 3519.94 1018.47 3518.53 1018.47 3517.4 1018.47 3516.18 1018.92 3514.87 1019.82 3513.56 1020.73 3512.16 1022.09 3510.69 1023.92 3509.22 1025.74 3508.04 1027.51 3507.15 1029.23 3506.25 1030.94 3505.52 1033.06 3504.96 1035.57L3501.11 1053.12 3494.1 1053.12 3500.01 1027.42C3500.61 1024.83 3500.9 1022.83 3500.9 1021.42 3500.9 1020.34 3500.73 1019.56 3500.38 1019.07 3500.03 1018.59 3499.47 1018.34 3498.72 1018.34 3497.88 1018.34 3496.99 1018.69 3496.06 1019.38 3495.13 1020.07 3493.85 1021.32 3492.23 1023.13L3489.92 1020.86C3492.41 1018.26 3494.47 1016.42 3496.12 1015.32 3497.77 1014.23 3499.63 1013.68 3501.71 1013.68Z" fill-rule="evenodd"/><text fill="#000000" fill-opacity="0" font-family="Arial,Arial_MSFontService,sans-serif" font-size="40.0815" x="3489.92" y="1048.75">ğ‘›</text><path d="M3539.66 994.392 3557.74 994.392 3557.74 1071.68 3539.66 1071.68 3539.66 1068.56 3551.01 1068.56 3551.01 997.513 3539.66 997.513Z" fill-rule="evenodd"/><text fill="#000000" fill-opacity="0" font-family="Arial,Arial_MSFontService,sans-serif" font-size="77.2856" x="3539.66" y="1062.02">]</text></g></svg>