<svg width="2581" height="355" xmlns="http://www.w3.org/2000/svg" xmlns:xlink="http://www.w3.org/1999/xlink" overflow="hidden"><defs><clipPath id="clip0"><rect x="970" y="1042" width="2581" height="355"/></clipPath></defs><g clip-path="url(#clip0)" transform="translate(-970 -1042)"><path d="M970 1229 3550 1229" stroke="#262626" stroke-width="2.29167" stroke-linejoin="round" stroke-miterlimit="10" fill="none" fill-rule="evenodd"/><path d="M991.5 1072.3 1013.27 1067.71 1034.46 1064.27 1056.23 1061.41 1077.43 1059.11 1099.19 1057.39 1120.96 1055.1 1142.16 1053.38 1163.92 1051.66 1185.12 1050.51 1206.89 1049.94 1228.08 1049.37 1249.85 1050.51 1271.04 1052.81 1292.81 1056.82 1314.01 1063.13 1335.77 1072.3 1356.97 1083.77 1378.74 1098.1 1400.5 1115.88 1421.7 1136.52 1443.47 1160.02 1464.66 1185.83 1486.43 1212.77 1507.62 1240.87 1529.39 1268.96 1550.59 1295.91 1572.35 1321.14 1593.55 1342.92 1615.32 1361.27 1637.08 1375.03 1658.28 1383.63 1680.05 1386.5 1701.24 1383.63 1723.01 1375.03 1744.2 1361.27 1765.97 1342.92 1787.17 1321.14 1808.93 1295.91 1830.13 1268.96 1851.9 1240.87 1873.09 1212.77 1894.86 1185.83 1916.63 1160.02 1937.82 1136.52 1959.59 1115.88 1980.78 1098.1 2002.55 1083.77 2023.75 1072.3 2045.51 1063.13 2066.71 1056.82 2088.48 1052.81 2109.67 1049.37 2131.44 1047.65 2152.63 1047.07 2174.4 1046.5 2196.17 1046.5 2217.36 1046.5 2239.13 1047.07 2260.33 1047.65 2282.1 1049.37 2303.29 1052.81 2325.06 1056.82 2346.25 1063.13 2368.02 1072.3 2389.22 1083.77 2410.98 1098.1 2432.18 1115.88 2453.95 1136.52 2475.71 1160.02 2496.91 1185.83 2518.68 1212.77 2539.87 1240.87 2561.64 1268.96 2582.83 1295.91 2604.6 1321.14 2625.8 1342.92 2647.56 1361.27 2668.76 1375.03 2690.53 1383.63 2711.72 1386.5 2733.49 1383.63 2755.26 1375.03 2776.45 1360.7 2798.22 1342.35 2819.41 1319.42 2841.18 1293.04 2862.38 1264.38 2884.14 1235.13 2905.34 1205.32 2927.11 1177.22 2948.3 1150.85 2970.07 1127.34 2991.26 1107.28 3013.03 1091.22 3034.8 1079.18 3055.99 1072.3 3077.76 1069.43 3098.96 1070.58 3120.72 1075.17 3141.92 1083.77 3163.69 1094.66 3184.88 1107.85 3206.65 1122.76 3227.84 1137.66 3249.61 1153.14 3270.81 1168.62 3292.57 1182.39 3314.34 1195.57 3335.54 1206.47 3357.31 1216.21 3378.5 1223.67" stroke="#0072BD" stroke-width="9.16667" stroke-linejoin="round" stroke-miterlimit="10" fill="none" fill-rule="evenodd"/><path d="M983.5 1072.5C983.5 1067.53 987.529 1063.5 992.5 1063.5 997.47 1063.5 1001.5 1067.53 1001.5 1072.5 1001.5 1077.47 997.47 1081.5 992.5 1081.5 987.529 1081.5 983.5 1077.47 983.5 1072.5Z" stroke="#000000" stroke-width="0" stroke-linejoin="round" stroke-miterlimit="10" fill="#FF0000" fill-rule="evenodd"/><path d="M1004.5 1229.5C1004.5 1224.53 1008.53 1220.5 1013.5 1220.5 1018.47 1220.5 1022.5 1224.53 1022.5 1229.5 1022.5 1234.47 1018.47 1238.5 1013.5 1238.5 1008.53 1238.5 1004.5 1234.47 1004.5 1229.5Z" stroke="#000000" stroke-width="0" stroke-linejoin="round" stroke-miterlimit="10" fill="#FF0000" fill-rule="evenodd"/><path d="M1026.5 1229.5C1026.5 1224.53 1030.53 1220.5 1035.5 1220.5 1040.47 1220.5 1044.5 1224.53 1044.5 1229.5 1044.5 1234.47 1040.47 1238.5 1035.5 1238.5 1030.53 1238.5 1026.5 1234.47 1026.5 1229.5Z" stroke="#000000" stroke-width="0" stroke-linejoin="round" stroke-miterlimit="10" fill="#FF0000" fill-rule="evenodd"/><path d="M1047.5 1229.5C1047.5 1224.53 1051.53 1220.5 1056.5 1220.5 1061.47 1220.5 1065.5 1224.53 1065.5 1229.5 1065.5 1234.47 1061.47 1238.5 1056.5 1238.5 1051.53 1238.5 1047.5 1234.47 1047.5 1229.5Z" stroke="#000000" stroke-width="0" stroke-linejoin="round" stroke-miterlimit="10" fill="#FF0000" fill-rule="evenodd"/><path d="M1068.5 1229.5C1068.5 1224.53 1072.75 1220.5 1078 1220.5 1083.25 1220.5 1087.5 1224.53 1087.5 1229.5 1087.5 1234.47 1083.25 1238.5 1078 1238.5 1072.75 1238.5 1068.5 1234.47 1068.5 1229.5Z" stroke="#000000" stroke-width="0" stroke-linejoin="round" stroke-miterlimit="10" fill="#FF0000" fill-rule="evenodd"/><path d="M1090.5 1229.5C1090.5 1224.53 1094.53 1220.5 1099.5 1220.5 1104.47 1220.5 1108.5 1224.53 1108.5 1229.5 1108.5 1234.47 1104.47 1238.5 1099.5 1238.5 1094.53 1238.5 1090.5 1234.47 1090.5 1229.5Z" stroke="#000000" stroke-width="0" stroke-linejoin="round" stroke-miterlimit="10" fill="#FF0000" fill-rule="evenodd"/><path d="M1111.5 1229.5C1111.5 1224.53 1115.75 1220.5 1121 1220.5 1126.25 1220.5 1130.5 1224.53 1130.5 1229.5 1130.5 1234.47 1126.25 1238.5 1121 1238.5 1115.75 1238.5 1111.5 1234.47 1111.5 1229.5Z" stroke="#000000" stroke-width="0" stroke-linejoin="round" stroke-miterlimit="10" fill="#FF0000" fill-rule="evenodd"/><path d="M1133.5 1229.5C1133.5 1224.53 1137.53 1220.5 1142.5 1220.5 1147.47 1220.5 1151.5 1224.53 1151.5 1229.5 1151.5 1234.47 1147.47 1238.5 1142.5 1238.5 1137.53 1238.5 1133.5 1234.47 1133.5 1229.5Z" stroke="#000000" stroke-width="0" stroke-linejoin="round" stroke-miterlimit="10" fill="#FF0000" fill-rule="evenodd"/><path d="M1154.5 1229.5C1154.5 1224.53 1158.75 1220.5 1164 1220.5 1169.25 1220.5 1173.5 1224.53 1173.5 1229.5 1173.5 1234.47 1169.25 1238.5 1164 1238.5 1158.75 1238.5 1154.5 1234.47 1154.5 1229.5Z" stroke="#000000" stroke-width="0" stroke-linejoin="round" stroke-miterlimit="10" fill="#FF0000" fill-rule="evenodd"/><path d="M1176.5 1229.5C1176.5 1224.53 1180.53 1220.5 1185.5 1220.5 1190.47 1220.5 1194.5 1224.53 1194.5 1229.5 1194.5 1234.47 1190.47 1238.5 1185.5 1238.5 1180.53 1238.5 1176.5 1234.47 1176.5 1229.5Z" stroke="#000000" stroke-width="0" stroke-linejoin="round" stroke-miterlimit="10" fill="#FF0000" fill-rule="evenodd"/><path d="M1197.5 1229.5C1197.5 1224.53 1201.75 1220.5 1207 1220.5 1212.25 1220.5 1216.5 1224.53 1216.5 1229.5 1216.5 1234.47 1212.25 1238.5 1207 1238.5 1201.75 1238.5 1197.5 1234.47 1197.5 1229.5Z" stroke="#000000" stroke-width="0" stroke-linejoin="round" stroke-miterlimit="10" fill="#FF0000" fill-rule="evenodd"/><path d="M1219.5 1229.5C1219.5 1224.53 1223.53 1220.5 1228.5 1220.5 1233.47 1220.5 1237.5 1224.53 1237.5 1229.5 1237.5 1234.47 1233.47 1238.5 1228.5 1238.5 1223.53 1238.5 1219.5 1234.47 1219.5 1229.5Z" stroke="#000000" stroke-width="0" stroke-linejoin="round" stroke-miterlimit="10" fill="#FF0000" fill-rule="evenodd"/><path d="M1240.5 1229.5C1240.5 1224.53 1244.75 1220.5 1250 1220.5 1255.25 1220.5 1259.5 1224.53 1259.5 1229.5 1259.5 1234.47 1255.25 1238.5 1250 1238.5 1244.75 1238.5 1240.5 1234.47 1240.5 1229.5Z" stroke="#000000" stroke-width="0" stroke-linejoin="round" stroke-miterlimit="10" fill="#FF0000" fill-rule="evenodd"/><path d="M1262.5 1229.5C1262.5 1224.53 1266.53 1220.5 1271.5 1220.5 1276.47 1220.5 1280.5 1224.53 1280.5 1229.5 1280.5 1234.47 1276.47 1238.5 1271.5 1238.5 1266.53 1238.5 1262.5 1234.47 1262.5 1229.5Z" stroke="#000000" stroke-width="0" stroke-linejoin="round" stroke-miterlimit="10" fill="#FF0000" fill-rule="evenodd"/><path d="M1283.5 1229.5C1283.5 1224.53 1287.75 1220.5 1293 1220.5 1298.25 1220.5 1302.5 1224.53 1302.5 1229.5 1302.5 1234.47 1298.25 1238.5 1293 1238.5 1287.75 1238.5 1283.5 1234.47 1283.5 1229.5Z" stroke="#000000" stroke-width="0" stroke-linejoin="round" stroke-miterlimit="10" fill="#FF0000" fill-rule="evenodd"/><path d="M1305.5 1229.5C1305.5 1224.53 1309.53 1220.5 1314.5 1220.5 1319.47 1220.5 1323.5 1224.53 1323.5 1229.5 1323.5 1234.47 1319.47 1238.5 1314.5 1238.5 1309.53 1238.5 1305.5 1234.47 1305.5 1229.5Z" stroke="#000000" stroke-width="0" stroke-linejoin="round" stroke-miterlimit="10" fill="#FF0000" fill-rule="evenodd"/><path d="M1326.5 1072.5C1326.5 1067.53 1330.75 1063.5 1336 1063.5 1341.25 1063.5 1345.5 1067.53 1345.5 1072.5 1345.5 1077.47 1341.25 1081.5 1336 1081.5 1330.75 1081.5 1326.5 1077.47 1326.5 1072.5Z" stroke="#000000" stroke-width="0" stroke-linejoin="round" stroke-miterlimit="10" fill="#FF0000" fill-rule="evenodd"/><path d="M1348.5 1229.5C1348.5 1224.53 1352.53 1220.5 1357.5 1220.5 1362.47 1220.5 1366.5 1224.53 1366.5 1229.5 1366.5 1234.47 1362.47 1238.5 1357.5 1238.5 1352.53 1238.5 1348.5 1234.47 1348.5 1229.5Z" stroke="#000000" stroke-width="0" stroke-linejoin="round" stroke-miterlimit="10" fill="#FF0000" fill-rule="evenodd"/><path d="M1369.5 1229.5C1369.5 1224.53 1373.75 1220.5 1379 1220.5 1384.25 1220.5 1388.5 1224.53 1388.5 1229.5 1388.5 1234.47 1384.25 1238.5 1379 1238.5 1373.75 1238.5 1369.5 1234.47 1369.5 1229.5Z" stroke="#000000" stroke-width="0" stroke-linejoin="round" stroke-miterlimit="10" fill="#FF0000" fill-rule="evenodd"/><path d="M1391.5 1229.5C1391.5 1224.53 1395.53 1220.5 1400.5 1220.5 1405.47 1220.5 1409.5 1224.53 1409.5 1229.5 1409.5 1234.47 1405.47 1238.5 1400.5 1238.5 1395.53 1238.5 1391.5 1234.47 1391.5 1229.5Z" stroke="#000000" stroke-width="0" stroke-linejoin="round" stroke-miterlimit="10" fill="#FF0000" fill-rule="evenodd"/><path d="M1412.5 1229.5C1412.5 1224.53 1416.75 1220.5 1422 1220.5 1427.25 1220.5 1431.5 1224.53 1431.5 1229.5 1431.5 1234.47 1427.25 1238.5 1422 1238.5 1416.75 1238.5 1412.5 1234.47 1412.5 1229.5Z" stroke="#000000" stroke-width="0" stroke-linejoin="round" stroke-miterlimit="10" fill="#FF0000" fill-rule="evenodd"/><path d="M1434.5 1229.5C1434.5 1224.53 1438.53 1220.5 1443.5 1220.5 1448.47 1220.5 1452.5 1224.53 1452.5 1229.5 1452.5 1234.47 1448.47 1238.5 1443.5 1238.5 1438.53 1238.5 1434.5 1234.47 1434.5 1229.5Z" stroke="#000000" stroke-width="0" stroke-linejoin="round" stroke-miterlimit="10" fill="#FF0000" fill-rule="evenodd"/><path d="M1455.5 1229.5C1455.5 1224.53 1459.75 1220.5 1465 1220.5 1470.25 1220.5 1474.5 1224.53 1474.5 1229.5 1474.5 1234.47 1470.25 1238.5 1465 1238.5 1459.75 1238.5 1455.5 1234.47 1455.5 1229.5Z" stroke="#000000" stroke-width="0" stroke-linejoin="round" stroke-miterlimit="10" fill="#FF0000" fill-rule="evenodd"/><path d="M1477.5 1229.5C1477.5 1224.53 1481.53 1220.5 1486.5 1220.5 1491.47 1220.5 1495.5 1224.53 1495.5 1229.5 1495.5 1234.47 1491.47 1238.5 1486.5 1238.5 1481.53 1238.5 1477.5 1234.47 1477.5 1229.5Z" stroke="#000000" stroke-width="0" stroke-linejoin="round" stroke-miterlimit="10" fill="#FF0000" fill-rule="evenodd"/><path d="M1499.5 1229.5C1499.5 1224.53 1503.53 1220.5 1508.5 1220.5 1513.47 1220.5 1517.5 1224.53 1517.5 1229.5 1517.5 1234.47 1513.47 1238.5 1508.5 1238.5 1503.53 1238.5 1499.5 1234.47 1499.5 1229.5Z" stroke="#000000" stroke-width="0" stroke-linejoin="round" stroke-miterlimit="10" fill="#FF0000" fill-rule="evenodd"/><path d="M1520.5 1229.5C1520.5 1224.53 1524.53 1220.5 1529.5 1220.5 1534.47 1220.5 1538.5 1224.53 1538.5 1229.5 1538.5 1234.47 1534.47 1238.5 1529.5 1238.5 1524.53 1238.5 1520.5 1234.47 1520.5 1229.5Z" stroke="#000000" stroke-width="0" stroke-linejoin="round" stroke-miterlimit="10" fill="#FF0000" fill-rule="evenodd"/><path d="M1542.5 1229.5C1542.5 1224.53 1546.53 1220.5 1551.5 1220.5 1556.47 1220.5 1560.5 1224.53 1560.5 1229.5 1560.5 1234.47 1556.47 1238.5 1551.5 1238.5 1546.53 1238.5 1542.5 1234.47 1542.5 1229.5Z" stroke="#000000" stroke-width="0" stroke-linejoin="round" stroke-miterlimit="10" fill="#FF0000" fill-rule="evenodd"/><path d="M1563.5 1229.5C1563.5 1224.53 1567.53 1220.5 1572.5 1220.5 1577.47 1220.5 1581.5 1224.53 1581.5 1229.5 1581.5 1234.47 1577.47 1238.5 1572.5 1238.5 1567.53 1238.5 1563.5 1234.47 1563.5 1229.5Z" stroke="#000000" stroke-width="0" stroke-linejoin="round" stroke-miterlimit="10" fill="#FF0000" fill-rule="evenodd"/><path d="M1585.5 1229.5C1585.5 1224.53 1589.53 1220.5 1594.5 1220.5 1599.47 1220.5 1603.5 1224.53 1603.5 1229.5 1603.5 1234.47 1599.47 1238.5 1594.5 1238.5 1589.53 1238.5 1585.5 1234.47 1585.5 1229.5Z" stroke="#000000" stroke-width="0" stroke-linejoin="round" stroke-miterlimit="10" fill="#FF0000" fill-rule="evenodd"/><path d="M1606.5 1229.5C1606.5 1224.53 1610.53 1220.5 1615.5 1220.5 1620.47 1220.5 1624.5 1224.53 1624.5 1229.5 1624.5 1234.47 1620.47 1238.5 1615.5 1238.5 1610.53 1238.5 1606.5 1234.47 1606.5 1229.5Z" stroke="#000000" stroke-width="0" stroke-linejoin="round" stroke-miterlimit="10" fill="#FF0000" fill-rule="evenodd"/><path d="M1628.5 1229.5C1628.5 1224.53 1632.53 1220.5 1637.5 1220.5 1642.47 1220.5 1646.5 1224.53 1646.5 1229.5 1646.5 1234.47 1642.47 1238.5 1637.5 1238.5 1632.53 1238.5 1628.5 1234.47 1628.5 1229.5Z" stroke="#000000" stroke-width="0" stroke-linejoin="round" stroke-miterlimit="10" fill="#FF0000" fill-rule="evenodd"/><path d="M1649.5 1229.5C1649.5 1224.53 1653.53 1220.5 1658.5 1220.5 1663.47 1220.5 1667.5 1224.53 1667.5 1229.5 1667.5 1234.47 1663.47 1238.5 1658.5 1238.5 1653.53 1238.5 1649.5 1234.47 1649.5 1229.5Z" stroke="#000000" stroke-width="0" stroke-linejoin="round" stroke-miterlimit="10" fill="#FF0000" fill-rule="evenodd"/><path d="M1671.5 1387C1671.5 1381.75 1675.53 1377.5 1680.5 1377.5 1685.47 1377.5 1689.5 1381.75 1689.5 1387 1689.5 1392.25 1685.47 1396.5 1680.5 1396.5 1675.53 1396.5 1671.5 1392.25 1671.5 1387Z" stroke="#000000" stroke-width="0" stroke-linejoin="round" stroke-miterlimit="10" fill="#FF0000" fill-rule="evenodd"/><path d="M1692.5 1229.5C1692.5 1224.53 1696.53 1220.5 1701.5 1220.5 1706.47 1220.5 1710.5 1224.53 1710.5 1229.5 1710.5 1234.47 1706.47 1238.5 1701.5 1238.5 1696.53 1238.5 1692.5 1234.47 1692.5 1229.5Z" stroke="#000000" stroke-width="0" stroke-linejoin="round" stroke-miterlimit="10" fill="#FF0000" fill-rule="evenodd"/><path d="M1714.5 1229.5C1714.5 1224.53 1718.53 1220.5 1723.5 1220.5 1728.47 1220.5 1732.5 1224.53 1732.5 1229.5 1732.5 1234.47 1728.47 1238.5 1723.5 1238.5 1718.53 1238.5 1714.5 1234.47 1714.5 1229.5Z" stroke="#000000" stroke-width="0" stroke-linejoin="round" stroke-miterlimit="10" fill="#FF0000" fill-rule="evenodd"/><path d="M1735.5 1229.5C1735.5 1224.53 1739.53 1220.5 1744.5 1220.5 1749.47 1220.5 1753.5 1224.53 1753.5 1229.5 1753.5 1234.47 1749.47 1238.5 1744.5 1238.5 1739.53 1238.5 1735.5 1234.47 1735.5 1229.5Z" stroke="#000000" stroke-width="0" stroke-linejoin="round" stroke-miterlimit="10" fill="#FF0000" fill-rule="evenodd"/><path d="M1757.5 1229.5C1757.5 1224.53 1761.53 1220.5 1766.5 1220.5 1771.47 1220.5 1775.5 1224.53 1775.5 1229.5 1775.5 1234.47 1771.47 1238.5 1766.5 1238.5 1761.53 1238.5 1757.5 1234.47 1757.5 1229.5Z" stroke="#000000" stroke-width="0" stroke-linejoin="round" stroke-miterlimit="10" fill="#FF0000" fill-rule="evenodd"/><path d="M1778.5 1229.5C1778.5 1224.53 1782.53 1220.5 1787.5 1220.5 1792.47 1220.5 1796.5 1224.53 1796.5 1229.5 1796.5 1234.47 1792.47 1238.5 1787.5 1238.5 1782.53 1238.5 1778.5 1234.47 1778.5 1229.5Z" stroke="#000000" stroke-width="0" stroke-linejoin="round" stroke-miterlimit="10" fill="#FF0000" fill-rule="evenodd"/><path d="M1800.5 1229.5C1800.5 1224.53 1804.53 1220.5 1809.5 1220.5 1814.47 1220.5 1818.5 1224.53 1818.5 1229.5 1818.5 1234.47 1814.47 1238.5 1809.5 1238.5 1804.53 1238.5 1800.5 1234.47 1800.5 1229.5Z" stroke="#000000" stroke-width="0" stroke-linejoin="round" stroke-miterlimit="10" fill="#FF0000" fill-rule="evenodd"/><path d="M1821.5 1229.5C1821.5 1224.53 1825.75 1220.5 1831 1220.5 1836.25 1220.5 1840.5 1224.53 1840.5 1229.5 1840.5 1234.47 1836.25 1238.5 1831 1238.5 1825.75 1238.5 1821.5 1234.47 1821.5 1229.5Z" stroke="#000000" stroke-width="0" stroke-linejoin="round" stroke-miterlimit="10" fill="#FF0000" fill-rule="evenodd"/><path d="M1843.5 1229.5C1843.5 1224.53 1847.53 1220.5 1852.5 1220.5 1857.47 1220.5 1861.5 1224.53 1861.5 1229.5 1861.5 1234.47 1857.47 1238.5 1852.5 1238.5 1847.53 1238.5 1843.5 1234.47 1843.5 1229.5Z" stroke="#000000" stroke-width="0" stroke-linejoin="round" stroke-miterlimit="10" fill="#FF0000" fill-rule="evenodd"/><path d="M1864.5 1229.5C1864.5 1224.53 1868.75 1220.5 1874 1220.5 1879.25 1220.5 1883.5 1224.53 1883.5 1229.5 1883.5 1234.47 1879.25 1238.5 1874 1238.5 1868.75 1238.5 1864.5 1234.47 1864.5 1229.5Z" stroke="#000000" stroke-width="0" stroke-linejoin="round" stroke-miterlimit="10" fill="#FF0000" fill-rule="evenodd"/><path d="M1885.5 1229.5C1885.5 1224.53 1889.75 1220.5 1895 1220.5 1900.25 1220.5 1904.5 1224.53 1904.5 1229.5 1904.5 1234.47 1900.25 1238.5 1895 1238.5 1889.75 1238.5 1885.5 1234.47 1885.5 1229.5Z" stroke="#000000" stroke-width="0" stroke-linejoin="round" stroke-miterlimit="10" fill="#FF0000" fill-rule="evenodd"/><path d="M1907.5 1229.5C1907.5 1224.53 1911.75 1220.5 1917 1220.5 1922.25 1220.5 1926.5 1224.53 1926.5 1229.5 1926.5 1234.47 1922.25 1238.5 1917 1238.5 1911.75 1238.5 1907.5 1234.47 1907.5 1229.5Z" stroke="#000000" stroke-width="0" stroke-linejoin="round" stroke-miterlimit="10" fill="#FF0000" fill-rule="evenodd"/><path d="M1928.5 1229.5C1928.5 1224.53 1932.75 1220.5 1938 1220.5 1943.25 1220.5 1947.5 1224.53 1947.5 1229.5 1947.5 1234.47 1943.25 1238.5 1938 1238.5 1932.75 1238.5 1928.5 1234.47 1928.5 1229.5Z" stroke="#000000" stroke-width="0" stroke-linejoin="round" stroke-miterlimit="10" fill="#FF0000" fill-rule="evenodd"/><path d="M1950.5 1229.5C1950.5 1224.53 1954.75 1220.5 1960 1220.5 1965.25 1220.5 1969.5 1224.53 1969.5 1229.5 1969.5 1234.47 1965.25 1238.5 1960 1238.5 1954.75 1238.5 1950.5 1234.47 1950.5 1229.5Z" stroke="#000000" stroke-width="0" stroke-linejoin="round" stroke-miterlimit="10" fill="#FF0000" fill-rule="evenodd"/><path d="M1971.5 1229.5C1971.5 1224.53 1975.75 1220.5 1981 1220.5 1986.25 1220.5 1990.5 1224.53 1990.5 1229.5 1990.5 1234.47 1986.25 1238.5 1981 1238.5 1975.75 1238.5 1971.5 1234.47 1971.5 1229.5Z" stroke="#000000" stroke-width="0" stroke-linejoin="round" stroke-miterlimit="10" fill="#FF0000" fill-rule="evenodd"/><path d="M1993.5 1229.5C1993.5 1224.53 1997.75 1220.5 2003 1220.5 2008.25 1220.5 2012.5 1224.53 2012.5 1229.5 2012.5 1234.47 2008.25 1238.5 2003 1238.5 1997.75 1238.5 1993.5 1234.47 1993.5 1229.5Z" stroke="#000000" stroke-width="0" stroke-linejoin="round" stroke-miterlimit="10" fill="#FF0000" fill-rule="evenodd"/><path d="M2014.5 1072.5C2014.5 1067.53 2018.75 1063.5 2024 1063.5 2029.25 1063.5 2033.5 1067.53 2033.5 1072.5 2033.5 1077.47 2029.25 1081.5 2024 1081.5 2018.75 1081.5 2014.5 1077.47 2014.5 1072.5Z" stroke="#000000" stroke-width="0" stroke-linejoin="round" stroke-miterlimit="10" fill="#FF0000" fill-rule="evenodd"/><path d="M2036.5 1229.5C2036.5 1224.53 2040.53 1220.5 2045.5 1220.5 2050.47 1220.5 2054.5 1224.53 2054.5 1229.5 2054.5 1234.47 2050.47 1238.5 2045.5 1238.5 2040.53 1238.5 2036.5 1234.47 2036.5 1229.5Z" stroke="#000000" stroke-width="0" stroke-linejoin="round" stroke-miterlimit="10" fill="#FF0000" fill-rule="evenodd"/><path d="M2058.5 1229.5C2058.5 1224.53 2062.53 1220.5 2067.5 1220.5 2072.47 1220.5 2076.5 1224.53 2076.5 1229.5 2076.5 1234.47 2072.47 1238.5 2067.5 1238.5 2062.53 1238.5 2058.5 1234.47 2058.5 1229.5Z" stroke="#000000" stroke-width="0" stroke-linejoin="round" stroke-miterlimit="10" fill="#FF0000" fill-rule="evenodd"/><path d="M2079.5 1229.5C2079.5 1224.53 2083.53 1220.5 2088.5 1220.5 2093.47 1220.5 2097.5 1224.53 2097.5 1229.5 2097.5 1234.47 2093.47 1238.5 2088.5 1238.5 2083.53 1238.5 2079.5 1234.47 2079.5 1229.5Z" stroke="#000000" stroke-width="0" stroke-linejoin="round" stroke-miterlimit="10" fill="#FF0000" fill-rule="evenodd"/><path d="M2101.5 1229.5C2101.5 1224.53 2105.53 1220.5 2110.5 1220.5 2115.47 1220.5 2119.5 1224.53 2119.5 1229.5 2119.5 1234.47 2115.47 1238.5 2110.5 1238.5 2105.53 1238.5 2101.5 1234.47 2101.5 1229.5Z" stroke="#000000" stroke-width="0" stroke-linejoin="round" stroke-miterlimit="10" fill="#FF0000" fill-rule="evenodd"/><path d="M2122.5 1229.5C2122.5 1224.53 2126.53 1220.5 2131.5 1220.5 2136.47 1220.5 2140.5 1224.53 2140.5 1229.5 2140.5 1234.47 2136.47 1238.5 2131.5 1238.5 2126.53 1238.5 2122.5 1234.47 2122.5 1229.5Z" stroke="#000000" stroke-width="0" stroke-linejoin="round" stroke-miterlimit="10" fill="#FF0000" fill-rule="evenodd"/><path d="M2144.5 1229.5C2144.5 1224.53 2148.53 1220.5 2153.5 1220.5 2158.47 1220.5 2162.5 1224.53 2162.5 1229.5 2162.5 1234.47 2158.47 1238.5 2153.5 1238.5 2148.53 1238.5 2144.5 1234.47 2144.5 1229.5Z" stroke="#000000" stroke-width="0" stroke-linejoin="round" stroke-miterlimit="10" fill="#FF0000" fill-rule="evenodd"/><path d="M2165.5 1229.5C2165.5 1224.53 2169.53 1220.5 2174.5 1220.5 2179.47 1220.5 2183.5 1224.53 2183.5 1229.5 2183.5 1234.47 2179.47 1238.5 2174.5 1238.5 2169.53 1238.5 2165.5 1234.47 2165.5 1229.5Z" stroke="#000000" stroke-width="0" stroke-linejoin="round" stroke-miterlimit="10" fill="#FF0000" fill-rule="evenodd"/><path d="M2187.5 1229.5C2187.5 1224.53 2191.53 1220.5 2196.5 1220.5 2201.47 1220.5 2205.5 1224.53 2205.5 1229.5 2205.5 1234.47 2201.47 1238.5 2196.5 1238.5 2191.53 1238.5 2187.5 1234.47 2187.5 1229.5Z" stroke="#000000" stroke-width="0" stroke-linejoin="round" stroke-miterlimit="10" fill="#FF0000" fill-rule="evenodd"/><path d="M2208.5 1229.5C2208.5 1224.53 2212.53 1220.5 2217.5 1220.5 2222.47 1220.5 2226.5 1224.53 2226.5 1229.5 2226.5 1234.47 2222.47 1238.5 2217.5 1238.5 2212.53 1238.5 2208.5 1234.47 2208.5 1229.5Z" stroke="#000000" stroke-width="0" stroke-linejoin="round" stroke-miterlimit="10" fill="#FF0000" fill-rule="evenodd"/><path d="M2230.5 1229.5C2230.5 1224.53 2234.53 1220.5 2239.5 1220.5 2244.47 1220.5 2248.5 1224.53 2248.5 1229.5 2248.5 1234.47 2244.47 1238.5 2239.5 1238.5 2234.53 1238.5 2230.5 1234.47 2230.5 1229.5Z" stroke="#000000" stroke-width="0" stroke-linejoin="round" stroke-miterlimit="10" fill="#FF0000" fill-rule="evenodd"/><path d="M2251.5 1229.5C2251.5 1224.53 2255.53 1220.5 2260.5 1220.5 2265.47 1220.5 2269.5 1224.53 2269.5 1229.5 2269.5 1234.47 2265.47 1238.5 2260.5 1238.5 2255.53 1238.5 2251.5 1234.47 2251.5 1229.5Z" stroke="#000000" stroke-width="0" stroke-linejoin="round" stroke-miterlimit="10" fill="#FF0000" fill-rule="evenodd"/><path d="M2273.5 1229.5C2273.5 1224.53 2277.53 1220.5 2282.5 1220.5 2287.47 1220.5 2291.5 1224.53 2291.5 1229.5 2291.5 1234.47 2287.47 1238.5 2282.5 1238.5 2277.53 1238.5 2273.5 1234.47 2273.5 1229.5Z" stroke="#000000" stroke-width="0" stroke-linejoin="round" stroke-miterlimit="10" fill="#FF0000" fill-rule="evenodd"/><path d="M2294.5 1229.5C2294.5 1224.53 2298.53 1220.5 2303.5 1220.5 2308.47 1220.5 2312.5 1224.53 2312.5 1229.5 2312.5 1234.47 2308.47 1238.5 2303.5 1238.5 2298.53 1238.5 2294.5 1234.47 2294.5 1229.5Z" stroke="#000000" stroke-width="0" stroke-linejoin="round" stroke-miterlimit="10" fill="#FF0000" fill-rule="evenodd"/><path d="M2316.5 1229.5C2316.5 1224.53 2320.53 1220.5 2325.5 1220.5 2330.47 1220.5 2334.5 1224.53 2334.5 1229.5 2334.5 1234.47 2330.47 1238.5 2325.5 1238.5 2320.53 1238.5 2316.5 1234.47 2316.5 1229.5Z" stroke="#000000" stroke-width="0" stroke-linejoin="round" stroke-miterlimit="10" fill="#FF0000" fill-rule="evenodd"/><path d="M2338.5 1229.5C2338.5 1224.53 2342.31 1220.5 2347 1220.5 2351.69 1220.5 2355.5 1224.53 2355.5 1229.5 2355.5 1234.47 2351.69 1238.5 2347 1238.5 2342.31 1238.5 2338.5 1234.47 2338.5 1229.5Z" stroke="#000000" stroke-width="0" stroke-linejoin="round" stroke-miterlimit="10" fill="#FF0000" fill-rule="evenodd"/><path d="M2359.5 1072.5C2359.5 1067.53 2363.53 1063.5 2368.5 1063.5 2373.47 1063.5 2377.5 1067.53 2377.5 1072.5 2377.5 1077.47 2373.47 1081.5 2368.5 1081.5 2363.53 1081.5 2359.5 1077.47 2359.5 1072.5Z" stroke="#000000" stroke-width="0" stroke-linejoin="round" stroke-miterlimit="10" fill="#FF0000" fill-rule="evenodd"/><path d="M2380.5 1229.5C2380.5 1224.53 2384.75 1220.5 2390 1220.5 2395.25 1220.5 2399.5 1224.53 2399.5 1229.5 2399.5 1234.47 2395.25 1238.5 2390 1238.5 2384.75 1238.5 2380.5 1234.47 2380.5 1229.5Z" stroke="#000000" stroke-width="0" stroke-linejoin="round" stroke-miterlimit="10" fill="#FF0000" fill-rule="evenodd"/><path d="M2402.5 1229.5C2402.5 1224.53 2406.53 1220.5 2411.5 1220.5 2416.47 1220.5 2420.5 1224.53 2420.5 1229.5 2420.5 1234.47 2416.47 1238.5 2411.5 1238.5 2406.53 1238.5 2402.5 1234.47 2402.5 1229.5Z" stroke="#000000" stroke-width="0" stroke-linejoin="round" stroke-miterlimit="10" fill="#FF0000" fill-rule="evenodd"/><path d="M2423.5 1229.5C2423.5 1224.53 2427.75 1220.5 2433 1220.5 2438.25 1220.5 2442.5 1224.53 2442.5 1229.5 2442.5 1234.47 2438.25 1238.5 2433 1238.5 2427.75 1238.5 2423.5 1234.47 2423.5 1229.5Z" stroke="#000000" stroke-width="0" stroke-linejoin="round" stroke-miterlimit="10" fill="#FF0000" fill-rule="evenodd"/><path d="M2445.5 1229.5C2445.5 1224.53 2449.53 1220.5 2454.5 1220.5 2459.47 1220.5 2463.5 1224.53 2463.5 1229.5 2463.5 1234.47 2459.47 1238.5 2454.5 1238.5 2449.53 1238.5 2445.5 1234.47 2445.5 1229.5Z" stroke="#000000" stroke-width="0" stroke-linejoin="round" stroke-miterlimit="10" fill="#FF0000" fill-rule="evenodd"/><path d="M2466.5 1229.5C2466.5 1224.53 2470.75 1220.5 2476 1220.5 2481.25 1220.5 2485.5 1224.53 2485.5 1229.5 2485.5 1234.47 2481.25 1238.5 2476 1238.5 2470.75 1238.5 2466.5 1234.47 2466.5 1229.5Z" stroke="#000000" stroke-width="0" stroke-linejoin="round" stroke-miterlimit="10" fill="#FF0000" fill-rule="evenodd"/><path d="M2488.5 1229.5C2488.5 1224.53 2492.53 1220.5 2497.5 1220.5 2502.47 1220.5 2506.5 1224.53 2506.5 1229.5 2506.5 1234.47 2502.47 1238.5 2497.5 1238.5 2492.53 1238.5 2488.5 1234.47 2488.5 1229.5Z" stroke="#000000" stroke-width="0" stroke-linejoin="round" stroke-miterlimit="10" fill="#FF0000" fill-rule="evenodd"/><path d="M2509.5 1229.5C2509.5 1224.53 2513.75 1220.5 2519 1220.5 2524.25 1220.5 2528.5 1224.53 2528.5 1229.5 2528.5 1234.47 2524.25 1238.5 2519 1238.5 2513.75 1238.5 2509.5 1234.47 2509.5 1229.5Z" stroke="#000000" stroke-width="0" stroke-linejoin="round" stroke-miterlimit="10" fill="#FF0000" fill-rule="evenodd"/><path d="M2531.5 1229.5C2531.5 1224.53 2535.53 1220.5 2540.5 1220.5 2545.47 1220.5 2549.5 1224.53 2549.5 1229.5 2549.5 1234.47 2545.47 1238.5 2540.5 1238.5 2535.53 1238.5 2531.5 1234.47 2531.5 1229.5Z" stroke="#000000" stroke-width="0" stroke-linejoin="round" stroke-miterlimit="10" fill="#FF0000" fill-rule="evenodd"/><path d="M2552.5 1229.5C2552.5 1224.53 2556.75 1220.5 2562 1220.5 2567.25 1220.5 2571.5 1224.53 2571.5 1229.5 2571.5 1234.47 2567.25 1238.5 2562 1238.5 2556.75 1238.5 2552.5 1234.47 2552.5 1229.5Z" stroke="#000000" stroke-width="0" stroke-linejoin="round" stroke-miterlimit="10" fill="#FF0000" fill-rule="evenodd"/><path d="M2574.5 1229.5C2574.5 1224.53 2578.53 1220.5 2583.5 1220.5 2588.47 1220.5 2592.5 1224.53 2592.5 1229.5 2592.5 1234.47 2588.47 1238.5 2583.5 1238.5 2578.53 1238.5 2574.5 1234.47 2574.5 1229.5Z" stroke="#000000" stroke-width="0" stroke-linejoin="round" stroke-miterlimit="10" fill="#FF0000" fill-rule="evenodd"/><path d="M2595.5 1229.5C2595.5 1224.53 2599.75 1220.5 2605 1220.5 2610.25 1220.5 2614.5 1224.53 2614.5 1229.5 2614.5 1234.47 2610.25 1238.5 2605 1238.5 2599.75 1238.5 2595.5 1234.47 2595.5 1229.5Z" stroke="#000000" stroke-width="0" stroke-linejoin="round" stroke-miterlimit="10" fill="#FF0000" fill-rule="evenodd"/><path d="M2617.5 1229.5C2617.5 1224.53 2621.53 1220.5 2626.5 1220.5 2631.47 1220.5 2635.5 1224.53 2635.5 1229.5 2635.5 1234.47 2631.47 1238.5 2626.5 1238.5 2621.53 1238.5 2617.5 1234.47 2617.5 1229.5Z" stroke="#000000" stroke-width="0" stroke-linejoin="round" stroke-miterlimit="10" fill="#FF0000" fill-rule="evenodd"/><path d="M2638.5 1229.5C2638.5 1224.53 2642.75 1220.5 2648 1220.5 2653.25 1220.5 2657.5 1224.53 2657.5 1229.5 2657.5 1234.47 2653.25 1238.5 2648 1238.5 2642.75 1238.5 2638.5 1234.47 2638.5 1229.5Z" stroke="#000000" stroke-width="0" stroke-linejoin="round" stroke-miterlimit="10" fill="#FF0000" fill-rule="evenodd"/><path d="M2660.5 1229.5C2660.5 1224.53 2664.53 1220.5 2669.5 1220.5 2674.47 1220.5 2678.5 1224.53 2678.5 1229.5 2678.5 1234.47 2674.47 1238.5 2669.5 1238.5 2664.53 1238.5 2660.5 1234.47 2660.5 1229.5Z" stroke="#000000" stroke-width="0" stroke-linejoin="round" stroke-miterlimit="10" fill="#FF0000" fill-rule="evenodd"/><path d="M2681.5 1229.5C2681.5 1224.53 2685.75 1220.5 2691 1220.5 2696.25 1220.5 2700.5 1224.53 2700.5 1229.5 2700.5 1234.47 2696.25 1238.5 2691 1238.5 2685.75 1238.5 2681.5 1234.47 2681.5 1229.5Z" stroke="#000000" stroke-width="0" stroke-linejoin="round" stroke-miterlimit="10" fill="#FF0000" fill-rule="evenodd"/><path d="M2703.5 1387C2703.5 1381.75 2707.53 1377.5 2712.5 1377.5 2717.47 1377.5 2721.5 1381.75 2721.5 1387 2721.5 1392.25 2717.47 1396.5 2712.5 1396.5 2707.53 1396.5 2703.5 1392.25 2703.5 1387Z" stroke="#000000" stroke-width="0" stroke-linejoin="round" stroke-miterlimit="10" fill="#FF0000" fill-rule="evenodd"/><path d="M2724.5 1229.5C2724.5 1224.53 2728.75 1220.5 2734 1220.5 2739.25 1220.5 2743.5 1224.53 2743.5 1229.5 2743.5 1234.47 2739.25 1238.5 2734 1238.5 2728.75 1238.5 2724.5 1234.47 2724.5 1229.5Z" stroke="#000000" stroke-width="0" stroke-linejoin="round" stroke-miterlimit="10" fill="#FF0000" fill-rule="evenodd"/><path d="M2746.5 1229.5C2746.5 1224.53 2750.53 1220.5 2755.5 1220.5 2760.47 1220.5 2764.5 1224.53 2764.5 1229.5 2764.5 1234.47 2760.47 1238.5 2755.5 1238.5 2750.53 1238.5 2746.5 1234.47 2746.5 1229.5Z" stroke="#000000" stroke-width="0" stroke-linejoin="round" stroke-miterlimit="10" fill="#FF0000" fill-rule="evenodd"/><path d="M2767.5 1229.5C2767.5 1224.53 2771.75 1220.5 2777 1220.5 2782.25 1220.5 2786.5 1224.53 2786.5 1229.5 2786.5 1234.47 2782.25 1238.5 2777 1238.5 2771.75 1238.5 2767.5 1234.47 2767.5 1229.5Z" stroke="#000000" stroke-width="0" stroke-linejoin="round" stroke-miterlimit="10" fill="#FF0000" fill-rule="evenodd"/><path d="M2789.5 1229.5C2789.5 1224.53 2793.53 1220.5 2798.5 1220.5 2803.47 1220.5 2807.5 1224.53 2807.5 1229.5 2807.5 1234.47 2803.47 1238.5 2798.5 1238.5 2793.53 1238.5 2789.5 1234.47 2789.5 1229.5Z" stroke="#000000" stroke-width="0" stroke-linejoin="round" stroke-miterlimit="10" fill="#FF0000" fill-rule="evenodd"/><path d="M2810.5 1229.5C2810.5 1224.53 2814.53 1220.5 2819.5 1220.5 2824.47 1220.5 2828.5 1224.53 2828.5 1229.5 2828.5 1234.47 2824.47 1238.5 2819.5 1238.5 2814.53 1238.5 2810.5 1234.47 2810.5 1229.5Z" stroke="#000000" stroke-width="0" stroke-linejoin="round" stroke-miterlimit="10" fill="#FF0000" fill-rule="evenodd"/><path d="M2832.5 1229.5C2832.5 1224.53 2836.53 1220.5 2841.5 1220.5 2846.47 1220.5 2850.5 1224.53 2850.5 1229.5 2850.5 1234.47 2846.47 1238.5 2841.5 1238.5 2836.53 1238.5 2832.5 1234.47 2832.5 1229.5Z" stroke="#000000" stroke-width="0" stroke-linejoin="round" stroke-miterlimit="10" fill="#FF0000" fill-rule="evenodd"/><path d="M2853.5 1229.5C2853.5 1224.53 2857.53 1220.5 2862.5 1220.5 2867.47 1220.5 2871.5 1224.53 2871.5 1229.5 2871.5 1234.47 2867.47 1238.5 2862.5 1238.5 2857.53 1238.5 2853.5 1234.47 2853.5 1229.5Z" stroke="#000000" stroke-width="0" stroke-linejoin="round" stroke-miterlimit="10" fill="#FF0000" fill-rule="evenodd"/><path d="M2875.5 1229.5C2875.5 1224.53 2879.53 1220.5 2884.5 1220.5 2889.47 1220.5 2893.5 1224.53 2893.5 1229.5 2893.5 1234.47 2889.47 1238.5 2884.5 1238.5 2879.53 1238.5 2875.5 1234.47 2875.5 1229.5Z" stroke="#000000" stroke-width="0" stroke-linejoin="round" stroke-miterlimit="10" fill="#FF0000" fill-rule="evenodd"/><path d="M2897.5 1229.5C2897.5 1224.53 2901.31 1220.5 2906 1220.5 2910.69 1220.5 2914.5 1224.53 2914.5 1229.5 2914.5 1234.47 2910.69 1238.5 2906 1238.5 2901.31 1238.5 2897.5 1234.47 2897.5 1229.5Z" stroke="#000000" stroke-width="0" stroke-linejoin="round" stroke-miterlimit="10" fill="#FF0000" fill-rule="evenodd"/><path d="M2918.5 1229.5C2918.5 1224.53 2922.53 1220.5 2927.5 1220.5 2932.47 1220.5 2936.5 1224.53 2936.5 1229.5 2936.5 1234.47 2932.47 1238.5 2927.5 1238.5 2922.53 1238.5 2918.5 1234.47 2918.5 1229.5Z" stroke="#000000" stroke-width="0" stroke-linejoin="round" stroke-miterlimit="10" fill="#FF0000" fill-rule="evenodd"/><path d="M2940.5 1229.5C2940.5 1224.53 2944.53 1220.5 2949.5 1220.5 2954.47 1220.5 2958.5 1224.53 2958.5 1229.5 2958.5 1234.47 2954.47 1238.5 2949.5 1238.5 2944.53 1238.5 2940.5 1234.47 2940.5 1229.5Z" stroke="#000000" stroke-width="0" stroke-linejoin="round" stroke-miterlimit="10" fill="#FF0000" fill-rule="evenodd"/><path d="M2961.5 1229.5C2961.5 1224.53 2965.53 1220.5 2970.5 1220.5 2975.47 1220.5 2979.5 1224.53 2979.5 1229.5 2979.5 1234.47 2975.47 1238.5 2970.5 1238.5 2965.53 1238.5 2961.5 1234.47 2961.5 1229.5Z" stroke="#000000" stroke-width="0" stroke-linejoin="round" stroke-miterlimit="10" fill="#FF0000" fill-rule="evenodd"/><path d="M2983.5 1229.5C2983.5 1224.53 2987.53 1220.5 2992.5 1220.5 2997.47 1220.5 3001.5 1224.53 3001.5 1229.5 3001.5 1234.47 2997.47 1238.5 2992.5 1238.5 2987.53 1238.5 2983.5 1234.47 2983.5 1229.5Z" stroke="#000000" stroke-width="0" stroke-linejoin="round" stroke-miterlimit="10" fill="#FF0000" fill-rule="evenodd"/><path d="M3004.5 1229.5C3004.5 1224.53 3008.53 1220.5 3013.5 1220.5 3018.47 1220.5 3022.5 1224.53 3022.5 1229.5 3022.5 1234.47 3018.47 1238.5 3013.5 1238.5 3008.53 1238.5 3004.5 1234.47 3004.5 1229.5Z" stroke="#000000" stroke-width="0" stroke-linejoin="round" stroke-miterlimit="10" fill="#FF0000" fill-rule="evenodd"/><path d="M3026.5 1229.5C3026.5 1224.53 3030.53 1220.5 3035.5 1220.5 3040.47 1220.5 3044.5 1224.53 3044.5 1229.5 3044.5 1234.47 3040.47 1238.5 3035.5 1238.5 3030.53 1238.5 3026.5 1234.47 3026.5 1229.5Z" stroke="#000000" stroke-width="0" stroke-linejoin="round" stroke-miterlimit="10" fill="#FF0000" fill-rule="evenodd"/><path d="M3047.5 1072.5C3047.5 1067.53 3051.53 1063.5 3056.5 1063.5 3061.47 1063.5 3065.5 1067.53 3065.5 1072.5 3065.5 1077.47 3061.47 1081.5 3056.5 1081.5 3051.53 1081.5 3047.5 1077.47 3047.5 1072.5Z" stroke="#000000" stroke-width="0" stroke-linejoin="round" stroke-miterlimit="10" fill="#FF0000" fill-rule="evenodd"/><path d="M3069.5 1229.5C3069.5 1224.53 3073.53 1220.5 3078.5 1220.5 3083.47 1220.5 3087.5 1224.53 3087.5 1229.5 3087.5 1234.47 3083.47 1238.5 3078.5 1238.5 3073.53 1238.5 3069.5 1234.47 3069.5 1229.5Z" stroke="#000000" stroke-width="0" stroke-linejoin="round" stroke-miterlimit="10" fill="#FF0000" fill-rule="evenodd"/><path d="M3090.5 1229.5C3090.5 1224.53 3094.53 1220.5 3099.5 1220.5 3104.47 1220.5 3108.5 1224.53 3108.5 1229.5 3108.5 1234.47 3104.47 1238.5 3099.5 1238.5 3094.53 1238.5 3090.5 1234.47 3090.5 1229.5Z" stroke="#000000" stroke-width="0" stroke-linejoin="round" stroke-miterlimit="10" fill="#FF0000" fill-rule="evenodd"/><path d="M3112.5 1229.5C3112.5 1224.53 3116.53 1220.5 3121.5 1220.5 3126.47 1220.5 3130.5 1224.53 3130.5 1229.5 3130.5 1234.47 3126.47 1238.5 3121.5 1238.5 3116.53 1238.5 3112.5 1234.47 3112.5 1229.5Z" stroke="#000000" stroke-width="0" stroke-linejoin="round" stroke-miterlimit="10" fill="#FF0000" fill-rule="evenodd"/><path d="M3133.5 1229.5C3133.5 1224.53 3137.53 1220.5 3142.5 1220.5 3147.47 1220.5 3151.5 1224.53 3151.5 1229.5 3151.5 1234.47 3147.47 1238.5 3142.5 1238.5 3137.53 1238.5 3133.5 1234.47 3133.5 1229.5Z" stroke="#000000" stroke-width="0" stroke-linejoin="round" stroke-miterlimit="10" fill="#FF0000" fill-rule="evenodd"/><path d="M3154.5 1229.5C3154.5 1224.53 3158.75 1220.5 3164 1220.5 3169.25 1220.5 3173.5 1224.53 3173.5 1229.5 3173.5 1234.47 3169.25 1238.5 3164 1238.5 3158.75 1238.5 3154.5 1234.47 3154.5 1229.5Z" stroke="#000000" stroke-width="0" stroke-linejoin="round" stroke-miterlimit="10" fill="#FF0000" fill-rule="evenodd"/><path d="M3176.5 1229.5C3176.5 1224.53 3180.53 1220.5 3185.5 1220.5 3190.47 1220.5 3194.5 1224.53 3194.5 1229.5 3194.5 1234.47 3190.47 1238.5 3185.5 1238.5 3180.53 1238.5 3176.5 1234.47 3176.5 1229.5Z" stroke="#000000" stroke-width="0" stroke-linejoin="round" stroke-miterlimit="10" fill="#FF0000" fill-rule="evenodd"/><path d="M3197.5 1229.5C3197.5 1224.53 3201.75 1220.5 3207 1220.5 3212.25 1220.5 3216.5 1224.53 3216.5 1229.5 3216.5 1234.47 3212.25 1238.5 3207 1238.5 3201.75 1238.5 3197.5 1234.47 3197.5 1229.5Z" stroke="#000000" stroke-width="0" stroke-linejoin="round" stroke-miterlimit="10" fill="#FF0000" fill-rule="evenodd"/><path d="M3219.5 1229.5C3219.5 1224.53 3223.75 1220.5 3229 1220.5 3234.25 1220.5 3238.5 1224.53 3238.5 1229.5 3238.5 1234.47 3234.25 1238.5 3229 1238.5 3223.75 1238.5 3219.5 1234.47 3219.5 1229.5Z" stroke="#000000" stroke-width="0" stroke-linejoin="round" stroke-miterlimit="10" fill="#FF0000" fill-rule="evenodd"/><path d="M3240.5 1229.5C3240.5 1224.53 3244.75 1220.5 3250 1220.5 3255.25 1220.5 3259.5 1224.53 3259.5 1229.5 3259.5 1234.47 3255.25 1238.5 3250 1238.5 3244.75 1238.5 3240.5 1234.47 3240.5 1229.5Z" stroke="#000000" stroke-width="0" stroke-linejoin="round" stroke-miterlimit="10" fill="#FF0000" fill-rule="evenodd"/><path d="M3262.5 1229.5C3262.5 1224.53 3266.75 1220.5 3272 1220.5 3277.25 1220.5 3281.5 1224.53 3281.5 1229.5 3281.5 1234.47 3277.25 1238.5 3272 1238.5 3266.75 1238.5 3262.5 1234.47 3262.5 1229.5Z" stroke="#000000" stroke-width="0" stroke-linejoin="round" stroke-miterlimit="10" fill="#FF0000" fill-rule="evenodd"/><path d="M3283.5 1229.5C3283.5 1224.53 3287.75 1220.5 3293 1220.5 3298.25 1220.5 3302.5 1224.53 3302.5 1229.5 3302.5 1234.47 3298.25 1238.5 3293 1238.5 3287.75 1238.5 3283.5 1234.47 3283.5 1229.5Z" stroke="#000000" stroke-width="0" stroke-linejoin="round" stroke-miterlimit="10" fill="#FF0000" fill-rule="evenodd"/><path d="M3305.5 1229.5C3305.5 1224.53 3309.53 1220.5 3314.5 1220.5 3319.47 1220.5 3323.5 1224.53 3323.5 1229.5 3323.5 1234.47 3319.47 1238.5 3314.5 1238.5 3309.53 1238.5 3305.5 1234.47 3305.5 1229.5Z" stroke="#000000" stroke-width="0" stroke-linejoin="round" stroke-miterlimit="10" fill="#FF0000" fill-rule="evenodd"/><path d="M3326.5 1229.5C3326.5 1224.53 3330.75 1220.5 3336 1220.5 3341.25 1220.5 3345.5 1224.53 3345.5 1229.5 3345.5 1234.47 3341.25 1238.5 3336 1238.5 3330.75 1238.5 3326.5 1234.47 3326.5 1229.5Z" stroke="#000000" stroke-width="0" stroke-linejoin="round" stroke-miterlimit="10" fill="#FF0000" fill-rule="evenodd"/><path d="M3348.5 1229.5C3348.5 1224.53 3352.53 1220.5 3357.5 1220.5 3362.47 1220.5 3366.5 1224.53 3366.5 1229.5 3366.5 1234.47 3362.47 1238.5 3357.5 1238.5 3352.53 1238.5 3348.5 1234.47 3348.5 1229.5Z" stroke="#000000" stroke-width="0" stroke-linejoin="round" stroke-miterlimit="10" fill="#FF0000" fill-rule="evenodd"/><path d="M3369.5 1229.5C3369.5 1224.53 3373.75 1220.5 3379 1220.5 3384.25 1220.5 3388.5 1224.53 3388.5 1229.5 3388.5 1234.47 3384.25 1238.5 3379 1238.5 3373.75 1238.5 3369.5 1234.47 3369.5 1229.5Z" stroke="#000000" stroke-width="0" stroke-linejoin="round" stroke-miterlimit="10" fill="#FF0000" fill-rule="evenodd"/><path d="M0 0 0.000360892 157" stroke="#FF0000" stroke-width="2.29167" stroke-linejoin="round" stroke-miterlimit="10" fill="none" fill-rule="evenodd" transform="matrix(1 0 0 -1 991 1229)"/><path d="M0 0 0.000360892 157" stroke="#FF0000" stroke-width="2.29167" stroke-linejoin="round" stroke-miterlimit="10" fill="none" fill-rule="evenodd" transform="matrix(1 0 0 -1 1335 1229)"/><path d="M1680 1229 1680 1386" stroke="#FF0000" stroke-width="2.29167" stroke-linejoin="round" stroke-miterlimit="10" fill="none" fill-rule="evenodd"/><path d="M0 0 0.000360892 157" stroke="#FF0000" stroke-width="2.29167" stroke-linejoin="round" stroke-miterlimit="10" fill="none" fill-rule="evenodd" transform="matrix(1 0 0 -1 2024 1229)"/><path d="M0 0 0.000360892 157" stroke="#FF0000" stroke-width="2.29167" stroke-linejoin="round" stroke-miterlimit="10" fill="none" fill-rule="evenodd" transform="matrix(1 0 0 -1 2368 1229)"/><path d="M2712 1229 2712 1386" stroke="#FF0000" stroke-width="2.29167" stroke-linejoin="round" stroke-miterlimit="10" fill="none" fill-rule="evenodd"/><path d="M0 0 0.000360892 157" stroke="#FF0000" stroke-width="2.29167" stroke-linejoin="round" stroke-miterlimit="10" fill="none" fill-rule="evenodd" transform="matrix(1 0 0 -1 3056 1229)"/></g></svg>