<svg width="1379" height="1120" xmlns="http://www.w3.org/2000/svg" xmlns:xlink="http://www.w3.org/1999/xlink" overflow="hidden"><defs><clipPath id="clip0"><rect x="1445" y="738" width="1379" height="1120"/></clipPath></defs><g clip-path="url(#clip0)" transform="translate(-1445 -738)"><path d="M1636 1677 2823 1677" stroke="#262626" stroke-width="2.29167" stroke-linejoin="round" stroke-miterlimit="10" fill="none" fill-rule="evenodd"/><path d="M1636 739 2823 739" stroke="#262626" stroke-width="2.29167" stroke-linejoin="round" stroke-miterlimit="10" fill="none" fill-rule="evenodd"/><path d="M0 0 0.000360892 12" stroke="#262626" stroke-width="2.29167" stroke-linejoin="round" stroke-miterlimit="10" fill="none" fill-rule="evenodd" transform="matrix(1 0 0 -1 1804 1677)"/><path d="M0 0 0.000360892 12" stroke="#262626" stroke-width="2.29167" stroke-linejoin="round" stroke-miterlimit="10" fill="none" fill-rule="evenodd" transform="matrix(1 0 0 -1 2016 1677)"/><path d="M0 0 0.000360892 12" stroke="#262626" stroke-width="2.29167" stroke-linejoin="round" stroke-miterlimit="10" fill="none" fill-rule="evenodd" transform="matrix(1 0 0 -1 2229 1677)"/><path d="M0 0 0.000360892 12" stroke="#262626" stroke-width="2.29167" stroke-linejoin="round" stroke-miterlimit="10" fill="none" fill-rule="evenodd" transform="matrix(1 0 0 -1 2442 1677)"/><path d="M0 0 0.000360892 12" stroke="#262626" stroke-width="2.29167" stroke-linejoin="round" stroke-miterlimit="10" fill="none" fill-rule="evenodd" transform="matrix(1 0 0 -1 2655 1677)"/><path d="M1804 739 1804 752" stroke="#262626" stroke-width="2.29167" stroke-linejoin="round" stroke-miterlimit="10" fill="none" fill-rule="evenodd"/><path d="M2016 739 2016 752" stroke="#262626" stroke-width="2.29167" stroke-linejoin="round" stroke-miterlimit="10" fill="none" fill-rule="evenodd"/><path d="M2229 739 2229 752" stroke="#262626" stroke-width="2.29167" stroke-linejoin="round" stroke-miterlimit="10" fill="none" fill-rule="evenodd"/><path d="M2442 739 2442 752" stroke="#262626" stroke-width="2.29167" stroke-linejoin="round" stroke-miterlimit="10" fill="none" fill-rule="evenodd"/><path d="M2655 739 2655 752" stroke="#262626" stroke-width="2.29167" stroke-linejoin="round" stroke-miterlimit="10" fill="none" fill-rule="evenodd"/><text fill="#262626" font-family="Arial,Arial_MSFontService,sans-serif" font-weight="400" font-size="46" transform="matrix(1 0 0 1 1781.2 1747)">-<tspan font-size="46" x="15.4688" y="0">1</tspan><tspan font-size="46" x="196.51" y="0">-</tspan>0.5<tspan font-size="46" x="434.271" y="0">0</tspan><tspan font-size="46" x="630.781" y="0">0.5</tspan><tspan font-size="46" x="861.667" y="0">1</tspan><tspan font-size="50" x="341.458" y="69">Real Part</tspan></text><path d="M0 0 0.000360892 938" stroke="#262626" stroke-width="2.29167" stroke-linejoin="round" stroke-miterlimit="10" fill="none" fill-rule="evenodd" transform="matrix(1 0 0 -1 1636 1677)"/><path d="M0 0 0.000360892 938" stroke="#262626" stroke-width="2.29167" stroke-linejoin="round" stroke-miterlimit="10" fill="none" fill-rule="evenodd" transform="matrix(1 0 0 -1 2823 1677)"/><path d="M1636 1635 1647 1635" stroke="#262626" stroke-width="2.29167" stroke-linejoin="round" stroke-miterlimit="10" fill="none" fill-rule="evenodd"/><path d="M1636 1421 1647 1421" stroke="#262626" stroke-width="2.29167" stroke-linejoin="round" stroke-miterlimit="10" fill="none" fill-rule="evenodd"/><path d="M1636 1208 1647 1208" stroke="#262626" stroke-width="2.29167" stroke-linejoin="round" stroke-miterlimit="10" fill="none" fill-rule="evenodd"/><path d="M1636 995 1647 995.001" stroke="#262626" stroke-width="2.29167" stroke-linejoin="round" stroke-miterlimit="10" fill="none" fill-rule="evenodd"/><path d="M1636 782 1647 782" stroke="#262626" stroke-width="2.29167" stroke-linejoin="round" stroke-miterlimit="10" fill="none" fill-rule="evenodd"/><path d="M0 0 12 0.000360892" stroke="#262626" stroke-width="2.29167" stroke-linejoin="round" stroke-miterlimit="10" fill="none" fill-rule="evenodd" transform="matrix(-1 0 0 1 2823 1635)"/><path d="M0 0 12 0.000360892" stroke="#262626" stroke-width="2.29167" stroke-linejoin="round" stroke-miterlimit="10" fill="none" fill-rule="evenodd" transform="matrix(-1 0 0 1 2823 1421)"/><path d="M0 0 12 0.000360892" stroke="#262626" stroke-width="2.29167" stroke-linejoin="round" stroke-miterlimit="10" fill="none" fill-rule="evenodd" transform="matrix(-1 0 0 1 2823 1208)"/><path d="M0 0 12 0.000360892" stroke="#262626" stroke-width="2.29167" stroke-linejoin="round" stroke-miterlimit="10" fill="none" fill-rule="evenodd" transform="matrix(-1 0 0 1 2823 995)"/><path d="M0 0 12 0.000360892" stroke="#262626" stroke-width="2.29167" stroke-linejoin="round" stroke-miterlimit="10" fill="none" fill-rule="evenodd" transform="matrix(-1 0 0 1 2823 782)"/><text fill="#262626" font-family="Arial,Arial_MSFontService,sans-serif" font-weight="400" font-size="46" transform="matrix(1 0 0 1 1574.95 1657)">-<tspan font-size="46" x="15.4688" y="0">1</tspan><tspan font-size="46" x="-38.3856" y="-214">-</tspan><tspan font-size="46" x="-22.9169" y="-214">0.5</tspan><tspan font-size="46" x="13.75" y="-428">0</tspan><tspan font-size="46" x="-24.0625" y="-641">0.5</tspan><tspan font-size="46" x="13.75" y="-855">1</tspan></text><text fill="#262626" font-family="Arial,Arial_MSFontService,sans-serif" font-weight="400" font-size="50" transform="matrix(-1.83697e-16 -1 1 -1.83697e-16 1509.93 1373)">I<tspan font-size="50" x="13" y="2.38806e-15">m</tspan><tspan font-size="50" x="59" y="-0.000244141">a</tspan><tspan font-size="50" x="86" y="-0.000244141">g</tspan><tspan font-size="50" x="117" y="-0.000244141">i</tspan><tspan font-size="50" x="127" y="-0.000244141">n</tspan><tspan font-size="50" x="155" y="-0.000244141">a</tspan><tspan font-size="50" x="182" y="-0.000244141">r</tspan><tspan font-size="50" x="200" y="3.67394e-14">y</tspan><tspan font-size="50" x="235" y="-0.000244141">P</tspan><tspan font-size="50" x="269" y="-0.000244141">a</tspan><tspan font-size="50" x="296" y="-0.000244141">r</tspan><tspan font-size="50" x="314" y="5.76809e-14">t</tspan></text><path d="M1805.5 1159.91C1813.79 1159.91 1820.38 1166.69 1820.38 1175L1820.38 1175C1820.38 1183.53 1813.79 1190.31 1805.5 1190.31 1797.43 1190.31 1790.84 1183.53 1790.84 1175 1790.84 1166.69 1797.43 1159.91 1805.5 1159.91ZM1805.5 1157.5C1796.15 1157.5 1788.5 1165.37 1788.5 1175 1788.5 1184.62 1796.15 1192.5 1805.5 1192.5 1815.06 1192.5 1822.5 1184.62 1822.5 1175L1822.5 1175C1822.5 1165.37 1815.06 1157.5 1805.5 1157.5Z" stroke="#000000" stroke-width="0" stroke-linejoin="round" stroke-miterlimit="10" fill="#0072BD" fill-rule="evenodd"/><path d="M1805.5 1226.69C1813.79 1226.69 1820.38 1233.47 1820.38 1242L1820.38 1242C1820.38 1250.31 1813.79 1257.09 1805.5 1257.09 1797.43 1257.09 1790.84 1250.31 1790.84 1242 1790.84 1233.47 1797.43 1226.69 1805.5 1226.69ZM1805.5 1224.5C1796.15 1224.5 1788.5 1232.16 1788.5 1242 1788.5 1251.62 1796.15 1259.5 1805.5 1259.5 1815.06 1259.5 1822.5 1251.62 1822.5 1242L1822.5 1242C1822.5 1232.16 1815.06 1224.5 1805.5 1224.5Z" stroke="#000000" stroke-width="0" stroke-linejoin="round" stroke-miterlimit="10" fill="#0072BD" fill-rule="evenodd"/><path d="M1816 1093.69C1824.31 1093.69 1831.09 1100.47 1831.09 1109L1831.09 1109C1831.09 1117.31 1824.31 1124.09 1816 1124.09 1807.69 1124.09 1800.91 1117.31 1800.91 1109 1800.91 1100.47 1807.69 1093.69 1816 1093.69ZM1816 1091.5C1806.38 1091.5 1798.5 1099.16 1798.5 1109 1798.5 1118.62 1806.38 1126.5 1816 1126.5 1825.62 1126.5 1833.5 1118.62 1833.5 1109L1833.5 1109C1833.5 1099.16 1825.62 1091.5 1816 1091.5Z" stroke="#000000" stroke-width="0" stroke-linejoin="round" stroke-miterlimit="10" fill="#0072BD" fill-rule="evenodd"/><path d="M1816 1293.84C1824.31 1293.84 1831.09 1300.43 1831.09 1308.5L1831.09 1308.5C1831.09 1316.79 1824.31 1323.38 1816 1323.38 1807.69 1323.38 1800.91 1316.79 1800.91 1308.5 1800.91 1300.43 1807.69 1293.84 1816 1293.84ZM1816 1291.5C1806.38 1291.5 1798.5 1299.15 1798.5 1308.5 1798.5 1317.85 1806.38 1325.5 1816 1325.5 1825.62 1325.5 1833.5 1317.85 1833.5 1308.5L1833.5 1308.5C1833.5 1299.15 1825.62 1291.5 1816 1291.5Z" stroke="#000000" stroke-width="0" stroke-linejoin="round" stroke-miterlimit="10" fill="#0072BD" fill-rule="evenodd"/><path d="M1836 1030.84C1844.31 1030.84 1851.09 1037.43 1851.09 1045.5L1851.09 1045.5C1851.09 1053.79 1844.31 1060.38 1836 1060.38 1827.69 1060.38 1820.91 1053.79 1820.91 1045.5 1820.91 1037.43 1827.69 1030.84 1836 1030.84ZM1836 1028.5C1826.37 1028.5 1818.5 1036.15 1818.5 1045.5 1818.5 1055.06 1826.37 1062.5 1836 1062.5 1845.62 1062.5 1853.5 1055.06 1853.5 1045.5L1853.5 1045.5C1853.5 1036.15 1845.62 1028.5 1836 1028.5Z" stroke="#000000" stroke-width="0" stroke-linejoin="round" stroke-miterlimit="10" fill="#0072BD" fill-rule="evenodd"/><path d="M1836 1356.91C1844.31 1356.91 1851.09 1363.69 1851.09 1372L1851.09 1372C1851.09 1380.53 1844.31 1387.31 1836 1387.31 1827.69 1387.31 1820.91 1380.53 1820.91 1372 1820.91 1363.69 1827.69 1356.91 1836 1356.91ZM1836 1354.5C1826.37 1354.5 1818.5 1362.37 1818.5 1372 1818.5 1381.84 1826.37 1389.5 1836 1389.5 1845.62 1389.5 1853.5 1381.84 1853.5 1372L1853.5 1372C1853.5 1362.37 1845.62 1354.5 1836 1354.5Z" stroke="#000000" stroke-width="0" stroke-linejoin="round" stroke-miterlimit="10" fill="#0072BD" fill-rule="evenodd"/><path d="M1867 970.906C1875.31 970.906 1882.09 977.687 1882.09 986L1882.09 986C1882.09 994.312 1875.31 1001.09 1867 1001.09 1858.47 1001.09 1851.69 994.312 1851.69 986 1851.69 977.687 1858.47 970.906 1867 970.906ZM1867 968.5C1857.37 968.5 1849.5 976.375 1849.5 986 1849.5 995.625 1857.37 1003.5 1867 1003.5 1876.62 1003.5 1884.5 995.625 1884.5 986L1884.5 986C1884.5 976.375 1876.62 968.5 1867 968.5Z" stroke="#000000" stroke-width="0" stroke-linejoin="round" stroke-miterlimit="10" fill="#0072BD" fill-rule="evenodd"/><path d="M1867 1416.84C1875.31 1416.84 1882.09 1423.43 1882.09 1431.5L1882.09 1431.5C1882.09 1439.58 1875.31 1446.16 1867 1446.16 1858.47 1446.16 1851.69 1439.58 1851.69 1431.5 1851.69 1423.43 1858.47 1416.84 1867 1416.84ZM1867 1414.5C1857.37 1414.5 1849.5 1422.15 1849.5 1431.5 1849.5 1440.85 1857.37 1448.5 1867 1448.5 1876.62 1448.5 1884.5 1440.85 1884.5 1431.5L1884.5 1431.5C1884.5 1422.15 1876.62 1414.5 1867 1414.5Z" stroke="#000000" stroke-width="0" stroke-linejoin="round" stroke-miterlimit="10" fill="#0072BD" fill-rule="evenodd"/><path d="M1906 916.687C1914.53 916.687 1921.31 923.469 1921.31 932L1921.31 932C1921.31 940.312 1914.53 947.094 1906 947.094 1897.69 947.094 1890.91 940.312 1890.91 932 1890.91 923.469 1897.69 916.687 1906 916.687ZM1906 914.5C1896.38 914.5 1888.5 922.375 1888.5 932 1888.5 941.625 1896.38 949.5 1906 949.5 1915.63 949.5 1923.5 941.625 1923.5 932L1923.5 932C1923.5 922.375 1915.63 914.5 1906 914.5Z" stroke="#000000" stroke-width="0" stroke-linejoin="round" stroke-miterlimit="10" fill="#0072BD" fill-rule="evenodd"/><path d="M1906 1470.84C1914.53 1470.84 1921.31 1477.43 1921.31 1485.5L1921.31 1485.5C1921.31 1493.58 1914.53 1500.38 1906 1500.38 1897.69 1500.38 1890.91 1493.58 1890.91 1485.5 1890.91 1477.43 1897.69 1470.84 1906 1470.84ZM1906 1468.5C1896.38 1468.5 1888.5 1476.15 1888.5 1485.5 1888.5 1494.85 1896.38 1502.5 1906 1502.5 1915.63 1502.5 1923.5 1494.85 1923.5 1485.5L1923.5 1485.5C1923.5 1476.15 1915.63 1468.5 1906 1468.5Z" stroke="#000000" stroke-width="0" stroke-linejoin="round" stroke-miterlimit="10" fill="#0072BD" fill-rule="evenodd"/><path d="M1953.5 869.838C1961.57 869.838 1968.16 876.425 1968.16 884.5L1968.16 884.5C1968.16 892.788 1961.57 899.375 1953.5 899.375 1945.21 899.375 1938.62 892.788 1938.62 884.5 1938.62 876.425 1945.21 869.838 1953.5 869.838ZM1953.5 867.5C1944.15 867.5 1936.5 875.15 1936.5 884.5 1936.5 893.85 1944.15 901.5 1953.5 901.5 1962.85 901.5 1970.5 893.85 1970.5 884.5L1970.5 884.5C1970.5 875.15 1962.85 867.5 1953.5 867.5Z" stroke="#000000" stroke-width="0" stroke-linejoin="round" stroke-miterlimit="10" fill="#0072BD" fill-rule="evenodd"/><path d="M1953.5 1517.69C1961.57 1517.69 1968.16 1524.47 1968.16 1533L1968.16 1533C1968.16 1541.31 1961.57 1548.09 1953.5 1548.09 1945.21 1548.09 1938.62 1541.31 1938.62 1533 1938.62 1524.47 1945.21 1517.69 1953.5 1517.69ZM1953.5 1515.5C1944.15 1515.5 1936.5 1523.38 1936.5 1533 1936.5 1542.63 1944.15 1550.5 1953.5 1550.5 1962.85 1550.5 1970.5 1542.63 1970.5 1533L1970.5 1533C1970.5 1523.38 1962.85 1515.5 1953.5 1515.5Z" stroke="#000000" stroke-width="0" stroke-linejoin="round" stroke-miterlimit="10" fill="#0072BD" fill-rule="evenodd"/><path d="M2007.5 830.625C2015.57 830.625 2022.16 837.212 2022.16 845.5L2022.16 845.5C2022.16 853.575 2015.57 860.162 2007.5 860.162 1999.43 860.162 1992.84 853.575 1992.84 845.5 1992.84 837.212 1999.43 830.625 2007.5 830.625ZM2007.5 828.5C1998.15 828.5 1990.5 836.15 1990.5 845.5 1990.5 854.85 1998.15 862.5 2007.5 862.5 2016.85 862.5 2024.5 854.85 2024.5 845.5L2024.5 845.5C2024.5 836.15 2016.85 828.5 2007.5 828.5Z" stroke="#000000" stroke-width="0" stroke-linejoin="round" stroke-miterlimit="10" fill="#0072BD" fill-rule="evenodd"/><path d="M2007.5 1556.91C2015.57 1556.91 2022.16 1563.69 2022.16 1572L2022.16 1572C2022.16 1580.31 2015.57 1587.09 2007.5 1587.09 1999.43 1587.09 1992.84 1580.31 1992.84 1572 1992.84 1563.69 1999.43 1556.91 2007.5 1556.91ZM2007.5 1554.5C1998.15 1554.5 1990.5 1562.37 1990.5 1572 1990.5 1581.62 1998.15 1589.5 2007.5 1589.5 2016.85 1589.5 2024.5 1581.62 2024.5 1572L2024.5 1572C2024.5 1562.37 2016.85 1554.5 2007.5 1554.5Z" stroke="#000000" stroke-width="0" stroke-linejoin="round" stroke-miterlimit="10" fill="#0072BD" fill-rule="evenodd"/><path d="M2067 800.838C2075.53 800.838 2082.31 807.425 2082.31 815.5L2082.31 815.5C2082.31 823.575 2075.53 830.163 2067 830.163 2058.69 830.163 2051.91 823.575 2051.91 815.5 2051.91 807.425 2058.69 800.838 2067 800.838ZM2067 798.5C2057.38 798.5 2049.5 806.15 2049.5 815.5 2049.5 824.85 2057.38 832.5 2067 832.5 2076.84 832.5 2084.5 824.85 2084.5 815.5L2084.5 815.5C2084.5 806.15 2076.84 798.5 2067 798.5Z" stroke="#000000" stroke-width="0" stroke-linejoin="round" stroke-miterlimit="10" fill="#0072BD" fill-rule="evenodd"/><path d="M2067 1587.84C2075.53 1587.84 2082.31 1594.42 2082.31 1602.5L2082.31 1602.5C2082.31 1610.57 2075.53 1617.16 2067 1617.16 2058.69 1617.16 2051.91 1610.57 2051.91 1602.5 2051.91 1594.42 2058.69 1587.84 2067 1587.84ZM2067 1585.5C2057.38 1585.5 2049.5 1593.15 2049.5 1602.5 2049.5 1611.85 2057.38 1619.5 2067 1619.5 2076.84 1619.5 2084.5 1611.85 2084.5 1602.5L2084.5 1602.5C2084.5 1593.15 2076.84 1585.5 2067 1585.5Z" stroke="#000000" stroke-width="0" stroke-linejoin="round" stroke-miterlimit="10" fill="#0072BD" fill-rule="evenodd"/><path d="M2130.5 779.838C2138.57 779.838 2145.16 786.425 2145.16 794.5L2145.16 794.5C2145.16 802.575 2138.57 809.163 2130.5 809.163 2122.21 809.163 2115.62 802.575 2115.62 794.5 2115.62 786.425 2122.21 779.838 2130.5 779.838ZM2130.5 777.5C2120.94 777.5 2113.5 785.15 2113.5 794.5 2113.5 803.85 2120.94 811.5 2130.5 811.5 2139.85 811.5 2147.5 803.85 2147.5 794.5L2147.5 794.5C2147.5 785.15 2139.85 777.5 2130.5 777.5Z" stroke="#000000" stroke-width="0" stroke-linejoin="round" stroke-miterlimit="10" fill="#0072BD" fill-rule="evenodd"/><path d="M2130.5 1607.91C2138.57 1607.91 2145.16 1614.69 2145.16 1623L2145.16 1623C2145.16 1631.31 2138.57 1638.09 2130.5 1638.09 2122.21 1638.09 2115.62 1631.31 2115.62 1623 2115.62 1614.69 2122.21 1607.91 2130.5 1607.91ZM2130.5 1605.5C2120.94 1605.5 2113.5 1613.38 2113.5 1623 2113.5 1632.62 2120.94 1640.5 2130.5 1640.5 2139.85 1640.5 2147.5 1632.62 2147.5 1623L2147.5 1623C2147.5 1613.38 2139.85 1605.5 2130.5 1605.5Z" stroke="#000000" stroke-width="0" stroke-linejoin="round" stroke-miterlimit="10" fill="#0072BD" fill-rule="evenodd"/><path d="M2196.5 768.838C2204.79 768.838 2211.37 775.425 2211.37 783.5L2211.37 783.5C2211.37 791.788 2204.79 798.375 2196.5 798.375 2188.42 798.375 2181.84 791.788 2181.84 783.5 2181.84 775.425 2188.42 768.838 2196.5 768.838ZM2196.5 766.5C2187.15 766.5 2179.5 774.15 2179.5 783.5 2179.5 793.063 2187.15 800.5 2196.5 800.5 2205.85 800.5 2213.5 793.063 2213.5 783.5L2213.5 783.5C2213.5 774.15 2205.85 766.5 2196.5 766.5Z" stroke="#000000" stroke-width="0" stroke-linejoin="round" stroke-miterlimit="10" fill="#0072BD" fill-rule="evenodd"/><path d="M2196.5 1618.69C2204.79 1618.69 2211.37 1625.47 2211.37 1634L2211.37 1634C2211.37 1642.31 2204.79 1649.09 2196.5 1649.09 2188.42 1649.09 2181.84 1642.31 2181.84 1634 2181.84 1625.47 2188.42 1618.69 2196.5 1618.69ZM2196.5 1616.5C2187.15 1616.5 2179.5 1624.16 2179.5 1634 2179.5 1643.62 2187.15 1651.5 2196.5 1651.5 2205.85 1651.5 2213.5 1643.62 2213.5 1634L2213.5 1634C2213.5 1624.16 2205.85 1616.5 2196.5 1616.5Z" stroke="#000000" stroke-width="0" stroke-linejoin="round" stroke-miterlimit="10" fill="#0072BD" fill-rule="evenodd"/><path d="M2263.5 768.838C2271.57 768.838 2278.16 775.425 2278.16 783.5L2278.16 783.5C2278.16 791.788 2271.57 798.375 2263.5 798.375 2255.21 798.375 2248.62 791.788 2248.62 783.5 2248.62 775.425 2255.21 768.838 2263.5 768.838ZM2263.5 766.5C2253.94 766.5 2246.5 774.15 2246.5 783.5 2246.5 793.063 2253.94 800.5 2263.5 800.5 2272.85 800.5 2280.5 793.063 2280.5 783.5L2280.5 783.5C2280.5 774.15 2272.85 766.5 2263.5 766.5Z" stroke="#000000" stroke-width="0" stroke-linejoin="round" stroke-miterlimit="10" fill="#0072BD" fill-rule="evenodd"/><path d="M2263.5 1618.69C2271.57 1618.69 2278.16 1625.47 2278.16 1634L2278.16 1634C2278.16 1642.31 2271.57 1649.09 2263.5 1649.09 2255.21 1649.09 2248.62 1642.31 2248.62 1634 2248.62 1625.47 2255.21 1618.69 2263.5 1618.69ZM2263.5 1616.5C2253.94 1616.5 2246.5 1624.16 2246.5 1634 2246.5 1643.62 2253.94 1651.5 2263.5 1651.5 2272.85 1651.5 2280.5 1643.62 2280.5 1634L2280.5 1634C2280.5 1624.16 2272.85 1616.5 2263.5 1616.5Z" stroke="#000000" stroke-width="0" stroke-linejoin="round" stroke-miterlimit="10" fill="#0072BD" fill-rule="evenodd"/><path d="M2329.5 779.838C2337.79 779.838 2344.38 786.425 2344.38 794.5L2344.38 794.5C2344.38 802.575 2337.79 809.163 2329.5 809.163 2321.43 809.163 2314.84 802.575 2314.84 794.5 2314.84 786.425 2321.43 779.838 2329.5 779.838ZM2329.5 777.5C2320.15 777.5 2312.5 785.15 2312.5 794.5 2312.5 803.85 2320.15 811.5 2329.5 811.5 2338.85 811.5 2346.5 803.85 2346.5 794.5L2346.5 794.5C2346.5 785.15 2338.85 777.5 2329.5 777.5Z" stroke="#000000" stroke-width="0" stroke-linejoin="round" stroke-miterlimit="10" fill="#0072BD" fill-rule="evenodd"/><path d="M2329.5 1607.91C2337.79 1607.91 2344.38 1614.69 2344.38 1623L2344.38 1623C2344.38 1631.31 2337.79 1638.09 2329.5 1638.09 2321.43 1638.09 2314.84 1631.31 2314.84 1623 2314.84 1614.69 2321.43 1607.91 2329.5 1607.91ZM2329.5 1605.5C2320.15 1605.5 2312.5 1613.38 2312.5 1623 2312.5 1632.62 2320.15 1640.5 2329.5 1640.5 2338.85 1640.5 2346.5 1632.62 2346.5 1623L2346.5 1623C2346.5 1613.38 2338.85 1605.5 2329.5 1605.5Z" stroke="#000000" stroke-width="0" stroke-linejoin="round" stroke-miterlimit="10" fill="#0072BD" fill-rule="evenodd"/><path d="M2393 800.838C2401.53 800.838 2408.31 807.425 2408.31 815.5L2408.31 815.5C2408.31 823.575 2401.53 830.163 2393 830.163 2384.69 830.163 2377.91 823.575 2377.91 815.5 2377.91 807.425 2384.69 800.838 2393 800.838ZM2393 798.5C2383.38 798.5 2375.5 806.15 2375.5 815.5 2375.5 824.85 2383.38 832.5 2393 832.5 2402.84 832.5 2410.5 824.85 2410.5 815.5L2410.5 815.5C2410.5 806.15 2402.84 798.5 2393 798.5Z" stroke="#000000" stroke-width="0" stroke-linejoin="round" stroke-miterlimit="10" fill="#0072BD" fill-rule="evenodd"/><path d="M2393 1587.84C2401.53 1587.84 2408.31 1594.42 2408.31 1602.5L2408.31 1602.5C2408.31 1610.57 2401.53 1617.16 2393 1617.16 2384.69 1617.16 2377.91 1610.57 2377.91 1602.5 2377.91 1594.42 2384.69 1587.84 2393 1587.84ZM2393 1585.5C2383.38 1585.5 2375.5 1593.15 2375.5 1602.5 2375.5 1611.85 2383.38 1619.5 2393 1619.5 2402.84 1619.5 2410.5 1611.85 2410.5 1602.5L2410.5 1602.5C2410.5 1593.15 2402.84 1585.5 2393 1585.5Z" stroke="#000000" stroke-width="0" stroke-linejoin="round" stroke-miterlimit="10" fill="#0072BD" fill-rule="evenodd"/><path d="M2452.5 830.625C2460.57 830.625 2467.16 837.212 2467.16 845.5L2467.16 845.5C2467.16 853.575 2460.57 860.162 2452.5 860.162 2444.43 860.162 2437.84 853.575 2437.84 845.5 2437.84 837.212 2444.43 830.625 2452.5 830.625ZM2452.5 828.5C2443.15 828.5 2435.5 836.15 2435.5 845.5 2435.5 854.85 2443.15 862.5 2452.5 862.5 2461.85 862.5 2469.5 854.85 2469.5 845.5L2469.5 845.5C2469.5 836.15 2461.85 828.5 2452.5 828.5Z" stroke="#000000" stroke-width="0" stroke-linejoin="round" stroke-miterlimit="10" fill="#0072BD" fill-rule="evenodd"/><path d="M2452.5 1556.91C2460.57 1556.91 2467.16 1563.69 2467.16 1572L2467.16 1572C2467.16 1580.31 2460.57 1587.09 2452.5 1587.09 2444.43 1587.09 2437.84 1580.31 2437.84 1572 2437.84 1563.69 2444.43 1556.91 2452.5 1556.91ZM2452.5 1554.5C2443.15 1554.5 2435.5 1562.37 2435.5 1572 2435.5 1581.62 2443.15 1589.5 2452.5 1589.5 2461.85 1589.5 2469.5 1581.62 2469.5 1572L2469.5 1572C2469.5 1562.37 2461.85 1554.5 2452.5 1554.5Z" stroke="#000000" stroke-width="0" stroke-linejoin="round" stroke-miterlimit="10" fill="#0072BD" fill-rule="evenodd"/><path d="M2506.5 869.838C2514.57 869.838 2521.38 876.425 2521.38 884.5L2521.38 884.5C2521.38 892.788 2514.57 899.375 2506.5 899.375 2498.43 899.375 2491.84 892.788 2491.84 884.5 2491.84 876.425 2498.43 869.838 2506.5 869.838ZM2506.5 867.5C2497.15 867.5 2489.5 875.15 2489.5 884.5 2489.5 893.85 2497.15 901.5 2506.5 901.5 2515.85 901.5 2523.5 893.85 2523.5 884.5L2523.5 884.5C2523.5 875.15 2515.85 867.5 2506.5 867.5Z" stroke="#000000" stroke-width="0" stroke-linejoin="round" stroke-miterlimit="10" fill="#0072BD" fill-rule="evenodd"/><path d="M2506.5 1517.69C2514.57 1517.69 2521.38 1524.47 2521.38 1533L2521.38 1533C2521.38 1541.31 2514.57 1548.09 2506.5 1548.09 2498.43 1548.09 2491.84 1541.31 2491.84 1533 2491.84 1524.47 2498.43 1517.69 2506.5 1517.69ZM2506.5 1515.5C2497.15 1515.5 2489.5 1523.38 2489.5 1533 2489.5 1542.63 2497.15 1550.5 2506.5 1550.5 2515.85 1550.5 2523.5 1542.63 2523.5 1533L2523.5 1533C2523.5 1523.38 2515.85 1515.5 2506.5 1515.5Z" stroke="#000000" stroke-width="0" stroke-linejoin="round" stroke-miterlimit="10" fill="#0072BD" fill-rule="evenodd"/><path d="M2554 916.687C2562.31 916.687 2569.09 923.469 2569.09 932L2569.09 932C2569.09 940.312 2562.31 947.094 2554 947.094 2545.47 947.094 2538.69 940.312 2538.69 932 2538.69 923.469 2545.47 916.687 2554 916.687ZM2554 914.5C2544.38 914.5 2536.5 922.375 2536.5 932 2536.5 941.625 2544.38 949.5 2554 949.5 2563.62 949.5 2571.5 941.625 2571.5 932L2571.5 932C2571.5 922.375 2563.62 914.5 2554 914.5Z" stroke="#000000" stroke-width="0" stroke-linejoin="round" stroke-miterlimit="10" fill="#0072BD" fill-rule="evenodd"/><path d="M2554 1470.84C2562.31 1470.84 2569.09 1477.43 2569.09 1485.5L2569.09 1485.5C2569.09 1493.58 2562.31 1500.38 2554 1500.38 2545.47 1500.38 2538.69 1493.58 2538.69 1485.5 2538.69 1477.43 2545.47 1470.84 2554 1470.84ZM2554 1468.5C2544.38 1468.5 2536.5 1476.15 2536.5 1485.5 2536.5 1494.85 2544.38 1502.5 2554 1502.5 2563.62 1502.5 2571.5 1494.85 2571.5 1485.5L2571.5 1485.5C2571.5 1476.15 2563.62 1468.5 2554 1468.5Z" stroke="#000000" stroke-width="0" stroke-linejoin="round" stroke-miterlimit="10" fill="#0072BD" fill-rule="evenodd"/><path d="M2655 1159.91C2663.31 1159.91 2670.09 1166.69 2670.09 1175L2670.09 1175C2670.09 1183.53 2663.31 1190.31 2655 1190.31 2646.47 1190.31 2639.69 1183.53 2639.69 1175 2639.69 1166.69 2646.47 1159.91 2655 1159.91ZM2655 1157.5C2645.16 1157.5 2637.5 1165.37 2637.5 1175 2637.5 1184.62 2645.16 1192.5 2655 1192.5 2664.62 1192.5 2672.5 1184.62 2672.5 1175L2672.5 1175C2672.5 1165.37 2664.62 1157.5 2655 1157.5Z" stroke="#000000" stroke-width="0" stroke-linejoin="round" stroke-miterlimit="10" fill="#0072BD" fill-rule="evenodd"/><path d="M2655 1226.69C2663.31 1226.69 2670.09 1233.47 2670.09 1242L2670.09 1242C2670.09 1250.31 2663.31 1257.09 2655 1257.09 2646.47 1257.09 2639.69 1250.31 2639.69 1242 2639.69 1233.47 2646.47 1226.69 2655 1226.69ZM2655 1224.5C2645.16 1224.5 2637.5 1232.16 2637.5 1242 2637.5 1251.62 2645.16 1259.5 2655 1259.5 2664.62 1259.5 2672.5 1251.62 2672.5 1242L2672.5 1242C2672.5 1232.16 2664.62 1224.5 2655 1224.5Z" stroke="#000000" stroke-width="0" stroke-linejoin="round" stroke-miterlimit="10" fill="#0072BD" fill-rule="evenodd"/><path d="M2644 1093.69C2652.31 1093.69 2659.09 1100.47 2659.09 1109L2659.09 1109C2659.09 1117.31 2652.31 1124.09 2644 1124.09 2635.69 1124.09 2628.91 1117.31 2628.91 1109 2628.91 1100.47 2635.69 1093.69 2644 1093.69ZM2644 1091.5C2634.38 1091.5 2626.5 1099.16 2626.5 1109 2626.5 1118.62 2634.38 1126.5 2644 1126.5 2653.62 1126.5 2661.5 1118.62 2661.5 1109L2661.5 1109C2661.5 1099.16 2653.62 1091.5 2644 1091.5Z" stroke="#000000" stroke-width="0" stroke-linejoin="round" stroke-miterlimit="10" fill="#0072BD" fill-rule="evenodd"/><path d="M2644 1293.84C2652.31 1293.84 2659.09 1300.43 2659.09 1308.5L2659.09 1308.5C2659.09 1316.79 2652.31 1323.38 2644 1323.38 2635.69 1323.38 2628.91 1316.79 2628.91 1308.5 2628.91 1300.43 2635.69 1293.84 2644 1293.84ZM2644 1291.5C2634.38 1291.5 2626.5 1299.15 2626.5 1308.5 2626.5 1317.85 2634.38 1325.5 2644 1325.5 2653.62 1325.5 2661.5 1317.85 2661.5 1308.5L2661.5 1308.5C2661.5 1299.15 2653.62 1291.5 2644 1291.5Z" stroke="#000000" stroke-width="0" stroke-linejoin="round" stroke-miterlimit="10" fill="#0072BD" fill-rule="evenodd"/><path d="M2623.5 1030.84C2631.57 1030.84 2638.16 1037.43 2638.16 1045.5L2638.16 1045.5C2638.16 1053.79 2631.57 1060.38 2623.5 1060.38 2615.43 1060.38 2608.84 1053.79 2608.84 1045.5 2608.84 1037.43 2615.43 1030.84 2623.5 1030.84ZM2623.5 1028.5C2614.15 1028.5 2606.5 1036.15 2606.5 1045.5 2606.5 1055.06 2614.15 1062.5 2623.5 1062.5 2632.85 1062.5 2640.5 1055.06 2640.5 1045.5L2640.5 1045.5C2640.5 1036.15 2632.85 1028.5 2623.5 1028.5Z" stroke="#000000" stroke-width="0" stroke-linejoin="round" stroke-miterlimit="10" fill="#0072BD" fill-rule="evenodd"/><path d="M2623.5 1356.91C2631.57 1356.91 2638.16 1363.69 2638.16 1372L2638.16 1372C2638.16 1380.53 2631.57 1387.31 2623.5 1387.31 2615.43 1387.31 2608.84 1380.53 2608.84 1372 2608.84 1363.69 2615.43 1356.91 2623.5 1356.91ZM2623.5 1354.5C2614.15 1354.5 2606.5 1362.37 2606.5 1372 2606.5 1381.84 2614.15 1389.5 2623.5 1389.5 2632.85 1389.5 2640.5 1381.84 2640.5 1372L2640.5 1372C2640.5 1362.37 2632.85 1354.5 2623.5 1354.5Z" stroke="#000000" stroke-width="0" stroke-linejoin="round" stroke-miterlimit="10" fill="#0072BD" fill-rule="evenodd"/><path d="M2593 970.906C2601.31 970.906 2608.09 977.687 2608.09 986L2608.09 986C2608.09 994.312 2601.31 1001.09 2593 1001.09 2584.69 1001.09 2577.91 994.312 2577.91 986 2577.91 977.687 2584.69 970.906 2593 970.906ZM2593 968.5C2583.37 968.5 2575.5 976.375 2575.5 986 2575.5 995.625 2583.37 1003.5 2593 1003.5 2602.62 1003.5 2610.5 995.625 2610.5 986L2610.5 986C2610.5 976.375 2602.62 968.5 2593 968.5Z" stroke="#000000" stroke-width="0" stroke-linejoin="round" stroke-miterlimit="10" fill="#0072BD" fill-rule="evenodd"/><path d="M2593 1416.84C2601.31 1416.84 2608.09 1423.43 2608.09 1431.5L2608.09 1431.5C2608.09 1439.58 2601.31 1446.16 2593 1446.16 2584.69 1446.16 2577.91 1439.58 2577.91 1431.5 2577.91 1423.43 2584.69 1416.84 2593 1416.84ZM2593 1414.5C2583.37 1414.5 2575.5 1422.15 2575.5 1431.5 2575.5 1440.85 2583.37 1448.5 2593 1448.5 2602.62 1448.5 2610.5 1440.85 2610.5 1431.5L2610.5 1431.5C2610.5 1422.15 2602.62 1414.5 2593 1414.5Z" stroke="#000000" stroke-width="0" stroke-linejoin="round" stroke-miterlimit="10" fill="#0072BD" fill-rule="evenodd"/><path d="M2217 1195 2242 1221M2217 1221 2242 1195" stroke="#0072BD" stroke-width="2.29167" stroke-miterlimit="8" fill="none" fill-rule="evenodd"/><path d="M2217 1195 2242 1221M2217 1221 2242 1195" stroke="#0072BD" stroke-width="2.29167" stroke-miterlimit="8" fill="none" fill-rule="evenodd"/><path d="M2217 1195 2242 1221M2217 1221 2242 1195" stroke="#0072BD" stroke-width="2.29167" stroke-miterlimit="8" fill="none" fill-rule="evenodd"/><path d="M2217 1195 2242 1221M2217 1221 2242 1195" stroke="#0072BD" stroke-width="2.29167" stroke-miterlimit="8" fill="none" fill-rule="evenodd"/><path d="M2217 1195 2242 1221M2217 1221 2242 1195" stroke="#0072BD" stroke-width="2.29167" stroke-miterlimit="8" fill="none" fill-rule="evenodd"/><path d="M2217 1195 2242 1221M2217 1221 2242 1195" stroke="#0072BD" stroke-width="2.29167" stroke-miterlimit="8" fill="none" fill-rule="evenodd"/><path d="M2217 1195 2242 1221M2217 1221 2242 1195" stroke="#0072BD" stroke-width="2.29167" stroke-miterlimit="8" fill="none" fill-rule="evenodd"/><path d="M2217 1195 2242 1221M2217 1221 2242 1195" stroke="#0072BD" stroke-width="2.29167" stroke-miterlimit="8" fill="none" fill-rule="evenodd"/><path d="M2217 1195 2242 1221M2217 1221 2242 1195" stroke="#0072BD" stroke-width="2.29167" stroke-miterlimit="8" fill="none" fill-rule="evenodd"/><path d="M2217 1195 2242 1221M2217 1221 2242 1195" stroke="#0072BD" stroke-width="2.29167" stroke-miterlimit="8" fill="none" fill-rule="evenodd"/><path d="M2217 1195 2242 1221M2217 1221 2242 1195" stroke="#0072BD" stroke-width="2.29167" stroke-miterlimit="8" fill="none" fill-rule="evenodd"/><path d="M2217 1195 2242 1221M2217 1221 2242 1195" stroke="#0072BD" stroke-width="2.29167" stroke-miterlimit="8" fill="none" fill-rule="evenodd"/><path d="M2217 1195 2242 1221M2217 1221 2242 1195" stroke="#0072BD" stroke-width="2.29167" stroke-miterlimit="8" fill="none" fill-rule="evenodd"/><path d="M2217 1195 2242 1221M2217 1221 2242 1195" stroke="#0072BD" stroke-width="2.29167" stroke-miterlimit="8" fill="none" fill-rule="evenodd"/><path d="M2217 1195 2242 1221M2217 1221 2242 1195" stroke="#0072BD" stroke-width="2.29167" stroke-miterlimit="8" fill="none" fill-rule="evenodd"/><path d="M2217 1195 2242 1221M2217 1221 2242 1195" stroke="#0072BD" stroke-width="2.29167" stroke-miterlimit="8" fill="none" fill-rule="evenodd"/><path d="M2217 1195 2242 1221M2217 1221 2242 1195" stroke="#0072BD" stroke-width="2.29167" stroke-miterlimit="8" fill="none" fill-rule="evenodd"/><path d="M2217 1195 2242 1221M2217 1221 2242 1195" stroke="#0072BD" stroke-width="2.29167" stroke-miterlimit="8" fill="none" fill-rule="evenodd"/><path d="M2217 1195 2242 1221M2217 1221 2242 1195" stroke="#0072BD" stroke-width="2.29167" stroke-miterlimit="8" fill="none" fill-rule="evenodd"/><path d="M2217 1195 2242 1221M2217 1221 2242 1195" stroke="#0072BD" stroke-width="2.29167" stroke-miterlimit="8" fill="none" fill-rule="evenodd"/><path d="M2217 1195 2242 1221M2217 1221 2242 1195" stroke="#0072BD" stroke-width="2.29167" stroke-miterlimit="8" fill="none" fill-rule="evenodd"/><path d="M2217 1195 2242 1221M2217 1221 2242 1195" stroke="#0072BD" stroke-width="2.29167" stroke-miterlimit="8" fill="none" fill-rule="evenodd"/><path d="M2217 1195 2242 1221M2217 1221 2242 1195" stroke="#0072BD" stroke-width="2.29167" stroke-miterlimit="8" fill="none" fill-rule="evenodd"/><path d="M2217 1195 2242 1221M2217 1221 2242 1195" stroke="#0072BD" stroke-width="2.29167" stroke-miterlimit="8" fill="none" fill-rule="evenodd"/><path d="M2217 1195 2242 1221M2217 1221 2242 1195" stroke="#0072BD" stroke-width="2.29167" stroke-miterlimit="8" fill="none" fill-rule="evenodd"/><path d="M2217 1195 2242 1221M2217 1221 2242 1195" stroke="#0072BD" stroke-width="2.29167" stroke-miterlimit="8" fill="none" fill-rule="evenodd"/><path d="M2217 1195 2242 1221M2217 1221 2242 1195" stroke="#0072BD" stroke-width="2.29167" stroke-miterlimit="8" fill="none" fill-rule="evenodd"/><path d="M2217 1195 2242 1221M2217 1221 2242 1195" stroke="#0072BD" stroke-width="2.29167" stroke-miterlimit="8" fill="none" fill-rule="evenodd"/><path d="M2217 1195 2242 1221M2217 1221 2242 1195" stroke="#0072BD" stroke-width="2.29167" stroke-miterlimit="8" fill="none" fill-rule="evenodd"/><path d="M2217 1195 2242 1221M2217 1221 2242 1195" stroke="#0072BD" stroke-width="2.29167" stroke-miterlimit="8" fill="none" fill-rule="evenodd"/><path d="M2217 1195 2242 1221M2217 1221 2242 1195" stroke="#0072BD" stroke-width="2.29167" stroke-miterlimit="8" fill="none" fill-rule="evenodd"/><path d="M2217 1195 2242 1221M2217 1221 2242 1195" stroke="#0072BD" stroke-width="2.29167" stroke-miterlimit="8" fill="none" fill-rule="evenodd"/><path d="M2217 1195 2242 1221M2217 1221 2242 1195" stroke="#0072BD" stroke-width="2.29167" stroke-miterlimit="8" fill="none" fill-rule="evenodd"/><path d="M2217 1195 2242 1221M2217 1221 2242 1195" stroke="#0072BD" stroke-width="2.29167" stroke-miterlimit="8" fill="none" fill-rule="evenodd"/><path d="M2217 1195 2242 1221M2217 1221 2242 1195" stroke="#0072BD" stroke-width="2.29167" stroke-miterlimit="8" fill="none" fill-rule="evenodd"/><path d="M2217 1195 2242 1221M2217 1221 2242 1195" stroke="#0072BD" stroke-width="2.29167" stroke-miterlimit="8" fill="none" fill-rule="evenodd"/><path d="M2217 1195 2242 1221M2217 1221 2242 1195" stroke="#0072BD" stroke-width="2.29167" stroke-miterlimit="8" fill="none" fill-rule="evenodd"/><path d="M2217 1195 2242 1221M2217 1221 2242 1195" stroke="#0072BD" stroke-width="2.29167" stroke-miterlimit="8" fill="none" fill-rule="evenodd"/><path d="M2217 1195 2242 1221M2217 1221 2242 1195" stroke="#0072BD" stroke-width="2.29167" stroke-miterlimit="8" fill="none" fill-rule="evenodd"/><path d="M2217 1195 2242 1221M2217 1221 2242 1195" stroke="#0072BD" stroke-width="2.29167" stroke-miterlimit="8" fill="none" fill-rule="evenodd"/><path d="M2656 1195 2656 1191.55 2653.71 1191.55 2653.71 1195 2656 1195ZM2655.43 1181.21 2655.43 1177.76 2653.14 1177.76 2653.14 1181.21 2655.43 1181.21ZM2654.28 1167.42 2654.28 1165.7 2654.28 1165.12 2654.28 1163.97 2651.99 1163.97 2651.99 1165.7 2651.99 1165.7 2651.99 1167.42 2654.28 1167.42ZM2652.56 1153.63 2652.56 1150.76 2652.56 1150.76 2652.56 1150.18 2650.27 1150.18 2650.27 1151.33 2650.27 1151.33 2650.85 1153.63 2652.56 1153.63ZM2650.85 1139.84 2650.85 1139.27 2650.85 1139.27 2650.27 1136.4 2647.98 1136.97 2648.55 1139.27 2648.55 1139.84 2648.55 1140.42 2650.85 1139.84ZM2648.55 1126.05 2648.55 1124.9 2648.55 1124.9 2647.98 1122.61 2645.69 1123.18 2645.69 1125.48 2645.69 1125.48 2646.26 1126.63 2648.55 1126.05ZM2645.69 1112.26 2644.55 1109.39 2642.25 1109.97 2643.4 1112.84 2645.69 1112.26ZM2642.25 1099.05 2642.25 1099.05 2642.25 1098.48 2641.11 1095.6 2638.82 1096.18 2639.96 1099.62 2639.96 1099.62 2639.96 1099.62 2642.25 1099.05ZM2638.25 1085.83 2637.67 1083.54 2637.67 1083.54 2637.67 1082.39 2635.38 1082.96 2635.38 1084.11 2635.38 1084.69 2635.95 1086.41 2638.25 1085.83ZM2634.24 1072.62 2633.66 1070.32 2633.66 1070.32 2633.09 1069.17 2630.8 1069.75 2631.37 1070.9 2631.37 1070.9 2631.95 1073.19 2634.24 1072.62ZM2629.65 1059.41 2629.08 1058.26 2629.08 1058.26 2628.51 1055.96 2626.22 1057.11 2626.79 1058.83 2627.36 1058.83 2627.36 1059.98 2629.65 1059.41ZM2624.5 1046.77 2623.93 1045.04 2623.93 1045.04 2623.35 1043.32 2621.06 1044.47 2622.21 1045.62 2622.21 1046.19 2622.21 1047.34 2624.5 1046.77ZM2619.35 1034.13 2618.77 1032.98 2618.77 1032.98 2618.2 1031.25 2618.2 1031.25 2617.63 1030.68 2615.91 1031.25 2615.91 1031.83 2615.91 1031.83 2617.05 1034.13 2617.05 1034.13 2617.05 1034.7 2619.35 1034.13ZM2613.62 1020.91 2612.47 1019.76 2612.47 1019.76 2611.9 1018.04 2611.9 1018.04 2611.9 1018.04 2609.61 1019.19 2610.18 1019.19 2610.18 1019.19 2610.75 1020.91 2610.75 1020.91 2611.33 1022.06 2613.62 1020.91ZM2607.32 1008.84 2606.75 1008.27 2606.75 1008.27 2605.6 1006.55 2605.6 1006.55 2605.6 1005.97 2603.31 1007.12 2603.88 1007.7 2603.88 1007.7 2605.03 1009.42 2605.03 1009.42 2605.03 1009.99 2607.32 1008.84ZM2600.45 996.779 2599.87 995.63 2599.87 995.63 2598.73 993.907 2598.73 993.907 2598.73 993.907 2597.01 994.481 2597.01 995.056 2597.01 995.056 2598.15 996.779 2598.15 996.779 2598.73 997.928 2600.45 996.779ZM2593.57 984.714 2593 984.139 2593 984.139 2591.85 982.416 2591.85 982.416 2591.85 981.841 2589.56 982.99 2590.14 983.565 2590.14 983.565 2591.28 985.288 2591.28 985.288 2591.28 985.863 2593.57 984.714ZM2586.13 973.223 2586.13 973.223 2586.13 973.223 2584.98 971.499 2584.98 971.499 2584.41 970.35 2584.41 970.35 2584.41 970.35 2582.12 971.499 2582.69 971.499 2582.69 971.499 2583.26 973.223 2583.26 973.223 2584.41 974.372 2584.41 974.372 2584.41 974.372 2586.13 973.223ZM2578.11 961.732 2578.11 961.732 2577.54 960.583 2577.54 960.583 2576.39 958.859 2576.39 958.859 2576.39 958.859 2574.67 960.008 2574.67 960.583 2574.67 960.583 2575.25 961.732 2575.25 961.732 2576.39 962.881 2576.39 962.881 2578.11 961.732ZM2570.09 950.241 2569.52 949.666 2569.52 949.666 2568.95 948.517 2568.95 948.517 2567.8 947.942 2566.08 949.092 2566.65 950.241 2566.65 950.241 2567.8 951.39 2567.8 951.39 2568.37 951.964 2570.09 950.241ZM2561.5 939.324 2560.93 938.75 2560.93 938.75 2560.35 937.6 2560.35 937.6 2559.21 937.026 2557.49 938.175 2558.06 938.75 2558.06 938.75 2559.21 939.899 2559.21 939.899 2559.78 941.048 2561.5 939.324ZM2552.91 928.982 2552.34 928.408 2552.34 928.408 2551.76 927.259 2551.19 927.259 2550.62 926.684 2550.62 926.109 2550.62 926.109 2548.9 927.833 2548.9 927.833 2548.9 927.833 2549.47 928.982 2549.47 928.982 2550.62 930.131 2550.62 930.131 2551.19 930.131 2552.91 928.982ZM2543.75 918.64 2542.6 917.491 2542.6 917.491 2542.03 916.917 2542.03 916.917 2541.45 915.768 2539.74 917.491 2540.31 918.066 2540.31 918.066 2540.88 919.215 2541.45 919.215 2542.03 919.789 2543.75 918.64ZM2534.01 908.298 2533.44 907.724 2533.44 907.724 2532.29 906.575 2532.29 906.575 2531.72 906 2531.72 906 2530 907.724 2530 907.724 2531.15 908.298 2531.15 908.298 2531.72 909.447 2531.72 909.447 2532.29 910.022 2534.01 908.298Z" fill="#0072BD" fill-rule="evenodd"/><path d="M2524 899.277 2523.43 899.277 2523.43 899.277 2522.86 898.129 2522.86 898.129 2521.71 897.555 2521.71 897.555 2521.71 896.981 2520 898.703 2520.57 899.277 2520.57 899.277 2521.14 899.852 2521.14 899.852 2522.28 901 2522.28 901 2522.28 901 2524 899.277ZM2513.7 890.091 2513.13 889.517 2513.13 889.517 2512.56 888.943 2512.56 888.943 2511.42 888.368 2511.42 887.794 2511.42 887.794 2509.7 889.517 2510.27 889.517 2510.27 890.091 2510.84 890.665 2510.84 890.665 2511.99 891.239 2511.99 891.239 2512.56 891.813 2513.7 890.091ZM2503.41 880.904 2502.84 880.33 2502.84 880.33 2502.26 879.756 2502.26 879.756 2501.12 879.182 2501.12 879.182 2500.55 878.608 2499.4 880.33 2499.98 880.904 2499.98 880.904 2500.55 881.478 2500.55 881.478 2501.69 882.053 2501.69 882.053 2501.69 882.627 2503.41 880.904ZM2492.54 872.292 2492.54 872.292 2492.54 872.292 2491.97 871.718 2491.97 871.718 2490.82 870.569 2490.82 870.569 2490.25 869.995 2490.25 869.995 2488.54 871.718 2488.54 871.718 2489.68 872.292 2489.68 872.292 2490.25 873.44 2490.25 873.44 2491.4 874.014 2491.4 874.014 2491.4 874.014 2492.54 872.292ZM2481.67 863.679 2481.67 863.679 2481.67 863.679 2480.53 863.105 2480.53 863.105 2479.96 862.531 2479.38 862.531 2478.81 861.957 2477.67 863.679 2478.24 864.254 2478.24 864.254 2478.81 864.828 2478.81 864.828 2479.96 865.402 2479.96 865.402 2480.53 865.402 2481.67 863.679ZM2470.23 856.215 2470.23 855.641 2470.23 855.641 2469.66 855.067 2469.09 855.067 2468.52 854.493 2468.52 854.493 2467.37 853.919 2466.23 855.641 2466.8 856.215 2467.37 856.215 2467.94 856.789 2467.94 856.789 2468.52 857.938 2469.09 857.938 2469.09 857.938 2470.23 856.215ZM2458.79 848.177 2458.22 847.603 2458.22 847.603 2457.08 847.029 2457.08 847.029 2456.51 846.455 2456.51 846.455 2455.93 846.455 2454.79 848.177 2455.36 848.751 2455.36 848.751 2455.93 848.751 2455.93 848.751 2457.08 849.9 2457.08 849.9 2457.65 849.9 2458.79 848.177ZM2447.35 841.287 2446.78 840.713 2446.78 840.713 2446.21 840.139 2446.21 840.139 2445.07 839.565 2445.07 839.565 2444.49 839.565 2444.49 839.565 2444.49 838.99 2442.78 841.287 2443.35 841.287 2443.35 841.287 2443.92 841.861 2443.92 841.861 2445.07 842.435 2445.07 842.435 2445.64 843.01 2445.64 843.01 2446.21 843.01 2447.35 841.287ZM2435.34 834.397 2434.77 833.823 2434.77 833.823 2434.2 833.249 2434.2 833.249 2433.05 832.675 2433.05 832.675 2432.48 832.675 2432.48 832.675 2431.34 834.397 2431.34 834.397 2431.91 834.971 2431.91 834.971 2433.05 835.545 2433.05 835.545 2433.63 836.12 2433.63 836.12 2434.2 836.12 2435.34 834.397ZM2422.76 827.507 2422.76 827.507 2422.76 827.507 2422.19 826.933 2422.19 826.933 2421.04 826.359 2421.04 826.359 2420.47 826.359 2420.47 826.359 2419.9 826.359 2418.75 828.081 2419.33 828.081 2419.33 828.081 2419.9 828.656 2419.9 828.656 2421.04 829.23 2421.04 829.23 2421.61 829.804 2421.61 829.804 2422.19 829.804 2422.76 827.507ZM2410.75 821.766 2409.6 821.191 2409.6 821.191 2409.03 820.617 2409.03 820.617 2407.89 820.043 2407.89 820.043 2407.31 820.043 2406.74 821.766 2407.31 822.34 2407.31 822.34 2407.89 822.914 2407.89 822.914 2409.03 822.914 2409.03 823.488 2409.6 823.488 2410.75 821.766ZM2398.16 816.024 2397.59 816.024 2397.59 816.024 2397.02 815.45 2397.02 815.45 2395.87 814.876 2395.87 814.876 2395.3 814.876 2395.3 814.876 2394.73 814.301 2394.16 816.598 2394.16 816.598 2394.16 816.598 2395.3 817.172 2395.3 817.172 2395.87 817.746 2395.87 817.746 2397.02 817.746 2397.02 817.746 2397.02 817.746 2398.16 816.024ZM2385.58 810.856 2384.43 810.282 2384.43 810.282 2383.86 809.708 2383.86 809.708 2383.29 809.708 2382.72 809.708 2382.15 809.134 2382.15 809.134 2382.15 809.134 2381 811.431 2381 811.431 2381.57 811.431 2382.15 812.005 2382.15 812.005 2382.72 812.005 2383.29 812.005 2383.86 812.579 2383.86 812.579 2384.43 812.579 2385.58 810.856ZM2372.42 805.689 2371.85 805.689 2371.85 805.689 2370.71 805.115 2370.71 805.115 2370.13 805.115 2370.13 805.115 2368.99 804.541 2368.99 804.541 2368.99 804.541 2368.42 806.837 2368.42 806.837 2368.42 806.837 2369.56 807.411 2369.56 807.411 2370.13 807.411 2370.13 807.411 2371.28 807.986 2371.28 807.986 2371.85 807.986 2372.42 805.689ZM2359.27 801.096 2358.69 801.096 2358.69 801.096 2358.12 801.096 2358.12 801.096 2356.98 800.522 2356.98 800.522 2356.41 800.522 2356.41 800.522 2355.83 799.947 2355.26 802.244 2355.83 802.818 2355.83 802.818 2356.41 802.818 2356.41 802.818 2357.55 802.818 2357.55 802.818 2358.12 803.392 2358.12 803.392 2358.69 803.392 2359.27 801.096ZM2346.11 797.077 2346.11 797.077 2346.11 797.077 2344.97 797.077 2344.97 797.077 2344.39 796.502 2344.39 796.502 2343.25 796.502 2343.25 796.502 2342.68 796.502 2342.11 798.225 2342.68 798.799 2342.68 798.799 2343.82 798.799 2343.82 798.799 2344.39 799.373 2344.39 799.373 2345.54 799.373 2345.54 799.373 2345.54 799.373 2346.11 797.077ZM2332.95 793.632 2332.38 793.632 2332.38 793.632 2331.24 793.057 2331.24 793.057 2330.67 793.057 2330.67 793.057 2329.52 793.057 2329.52 793.057 2329.52 793.057 2328.95 794.78 2328.95 795.354 2328.95 795.354 2330.09 795.354 2330.09 795.354 2330.67 795.928 2330.67 795.928 2331.81 795.928 2331.81 795.928 2332.38 795.928 2332.95 793.632ZM2319.23 790.761 2319.23 790.761 2318.65 790.187 2318.08 790.187 2317.51 790.187 2317.51 790.187 2316.94 790.187 2316.37 790.187 2315.79 789.612 2315.22 791.909 2316.37 792.483 2316.37 792.483 2316.94 792.483 2316.94 792.483 2318.08 792.483 2318.08 792.483 2318.65 793.057 2318.65 793.057 2319.23 790.761ZM2306.07 787.89 2305.5 787.89 2305.5 787.89 2304.93 787.89 2304.35 787.89 2303.78 787.316 2303.78 787.316 2302.64 787.316 2302.64 787.316 2302.64 787.316 2302.07 789.612 2302.64 789.612 2302.64 789.612 2303.21 789.612 2303.21 789.612 2304.35 789.612 2304.35 789.612 2304.93 790.187 2304.93 790.187 2305.5 790.187 2306.07 787.89ZM2292.34 785.593 2291.77 785.593 2291.77 785.593 2290.63 785.593 2290.63 785.593 2290.06 785.593 2290.06 785.593 2288.91 785.019 2288.91 785.019 2288.91 785.019 2288.34 787.316 2288.91 787.316 2288.91 787.316 2289.48 787.316 2289.48 787.89 2290.63 787.89 2290.63 787.89 2291.2 787.89 2291.2 787.89 2291.77 787.89 2292.34 785.593ZM2278.62 783.871 2278.04 783.871 2278.04 783.871 2276.9 783.871 2276.9 783.871 2276.33 783.871 2276.33 783.871 2275.18 783.297 2275.18 783.297 2275.18 783.297 2274.61 785.593 2275.18 785.593 2275.18 785.593 2275.76 785.593 2275.76 785.593 2276.9 786.167 2276.9 786.167 2277.47 786.167 2277.47 786.167 2278.04 786.167 2278.62 783.871ZM2264.89 782.722 2264.32 782.148 2264.32 782.148 2263.17 782.148 2263.17 782.148 2262.6 782.148 2262.6 782.148 2261.46 782.148 2261.46 782.148 2261.46 782.148 2260.88 784.445 2261.46 784.445 2261.46 784.445 2262.03 784.445 2262.03 784.445 2263.17 784.445 2263.17 784.445 2263.74 784.445 2263.74 784.445 2264.32 784.445 2264.89 782.722ZM2251.16 781.574 2250.59 781.574 2250.59 781.574 2249.44 781.574 2249.44 781.574 2248.87 781.574 2248.87 781.574 2247.73 781.574 2247.73 781.574 2247.73 781.574 2247.73 783.871 2247.73 783.871 2247.73 783.871 2248.3 783.871 2248.3 783.871 2249.44 783.871 2249.44 783.871 2250.02 783.871 2250.02 783.871 2250.59 783.871 2251.16 781.574ZM2237.43 781 2236.86 781 2236.29 781 2235.72 781 2235.72 781 2235.14 781 2234.57 781 2234 781 2234 781 2234 781 2234 783.297 2234 783.297 2234 783.297 2234.57 783.297 2234.57 783.297 2235.72 783.297 2235.72 783.297 2236.29 783.297 2236.29 783.297 2237.43 783.297 2237.43 781Z" fill="#0072BD" fill-rule="evenodd"/><path d="M2223 781 2221.86 781 2221.86 781 2221.28 781 2221.28 781 2220.14 781 2220.14 781 2219.57 781 2219.57 781 2219.57 781 2219.57 783.283 2219.57 783.283 2219.57 783.283 2220.14 783.283 2220.14 783.283 2221.28 783.283 2221.28 783.283 2221.86 783.283 2221.86 783.283 2223 783.283 2223 781ZM2209.27 781.571 2208.13 781.571 2208.13 781.571 2207.56 781.571 2207.56 781.571 2206.41 781.571 2206.41 781.571 2205.84 781.571 2205.84 781.571 2205.84 781.571 2205.84 783.854 2205.84 783.854 2205.84 783.854 2206.41 783.854 2206.41 783.854 2207.56 783.854 2207.56 783.854 2208.13 783.854 2208.13 783.854 2209.27 783.854 2209.27 781.571ZM2194.97 782.141 2194.4 782.141 2194.4 782.141 2193.83 782.712 2193.83 782.712 2192.68 782.712 2192.68 782.712 2192.11 782.712 2192.11 782.712 2192.11 782.712 2192.11 784.995 2192.11 784.995 2192.11 784.995 2192.68 784.995 2192.68 784.995 2193.83 784.424 2193.83 784.424 2194.4 784.424 2194.4 784.424 2195.54 784.424 2194.97 782.141ZM2181.24 783.854 2180.67 783.854 2180.67 783.854 2179.53 783.854 2179.53 783.854 2178.96 783.854 2178.96 783.854 2177.81 783.854 2177.81 783.854 2178.38 786.137 2178.38 786.137 2178.96 786.137 2178.96 786.137 2180.1 786.137 2180.1 786.137 2180.67 786.137 2180.67 786.137 2181.82 786.137 2181.24 783.854ZM2167.52 785.566 2167.52 785.566 2167.52 785.566 2166.94 785.566 2166.94 785.566 2165.8 785.566 2165.8 785.566 2165.23 785.566 2165.23 785.566 2164.08 786.137 2164.66 787.849 2165.23 787.849 2165.8 787.849 2166.37 787.849 2166.37 787.849 2166.94 787.849 2166.94 787.849 2168.09 787.849 2168.09 787.849 2168.09 787.849 2167.52 785.566ZM2154.36 787.849 2153.79 787.849 2153.79 787.849 2153.22 787.849 2152.65 787.849 2152.07 787.849 2152.07 787.849 2151.5 787.849 2150.93 787.849 2150.93 788.42 2150.93 790.703 2151.5 790.703 2151.5 790.703 2152.65 790.132 2152.65 790.132 2153.22 790.132 2153.22 790.132 2154.36 789.561 2154.36 789.561 2154.36 789.561 2154.36 787.849ZM2140.63 790.132 2140.06 790.132 2140.06 790.132 2139.49 790.703 2138.92 790.703 2138.35 790.703 2138.35 790.703 2137.77 790.703 2137.2 790.703 2137.2 790.703 2137.77 792.986 2138.35 792.986 2138.35 792.986 2138.92 792.986 2138.92 792.986 2140.06 792.986 2140.06 792.986 2140.63 792.415 2140.63 792.415 2141.21 792.415 2140.63 790.132ZM2126.91 792.986 2126.33 793.557 2126.33 793.557 2125.19 793.557 2125.19 793.557 2124.62 794.127 2124.62 794.127 2124.05 794.127 2124.05 796.41 2125.19 796.41 2125.19 796.41 2126.33 795.84 2126.33 795.84 2126.91 795.84 2126.91 795.84 2128.05 795.84 2126.91 792.986ZM2113.75 796.981 2113.18 796.981 2113.18 796.981 2112.61 796.981 2112.61 796.981 2111.46 797.552 2111.46 797.552 2110.89 797.552 2110.89 797.552 2110.32 797.552 2111.46 799.835 2111.46 799.835 2111.46 799.835 2112.03 799.835 2112.03 799.835 2113.18 799.264 2113.18 799.264 2113.75 799.264 2113.75 799.264 2114.32 799.264 2113.75 796.981ZM2100.59 800.976 2100.59 800.976 2100.59 800.976 2099.45 800.976 2099.45 800.976 2098.88 801.547 2098.88 801.547 2097.73 801.547 2097.73 801.547 2097.16 802.118 2098.31 803.83 2098.31 803.83 2098.31 803.83 2099.45 803.83 2099.45 803.83 2100.02 803.259 2100.02 803.259 2101.17 802.689 2101.17 802.689 2101.17 802.689 2100.59 800.976ZM2087.44 804.972 2086.87 805.542 2086.87 805.542 2085.72 805.542 2085.72 805.542 2085.15 806.113 2085.15 806.113 2084.58 806.113 2085.15 808.396 2085.72 808.396 2085.72 807.826 2086.29 807.826 2086.29 807.826 2087.44 807.826 2087.44 807.826 2088.01 807.255 2087.44 804.972ZM2074.28 809.538 2073.71 810.109 2073.71 810.109 2073.14 810.679 2072.57 810.679 2071.99 810.679 2071.99 810.679 2071.42 811.25 2071.99 812.962 2072.57 812.962 2073.14 812.962 2073.71 812.962 2073.71 812.391 2074.28 812.391 2074.28 812.391 2075.43 811.821 2074.28 809.538ZM2061.7 815.245 2061.7 815.245 2061.7 815.245 2060.55 815.816 2060.55 815.816 2059.98 815.816 2059.98 815.816 2058.84 816.387 2058.84 816.387 2058.27 816.387 2059.41 818.67 2059.98 818.099 2059.98 818.099 2060.55 818.099 2061.13 818.099 2061.7 817.528 2061.7 817.528 2062.27 817.528 2062.84 817.528 2062.84 816.958 2061.7 815.245ZM2049.11 820.953 2048.54 820.953 2048.54 820.953 2047.97 821.524 2047.97 821.524 2046.83 821.524 2046.83 821.524 2046.25 822.094 2046.25 822.094 2047.4 824.377 2047.4 824.377 2047.97 823.807 2047.97 823.807 2049.11 823.236 2049.11 823.236 2049.69 822.665 2049.69 822.665 2050.26 822.665 2049.11 820.953ZM2037.1 826.66 2036.53 826.66 2036.53 826.66 2035.96 827.231 2035.96 827.231 2034.81 827.802 2034.81 827.802 2034.24 827.802 2034.24 827.802 2033.67 828.373 2034.81 830.656 2035.39 830.085 2035.39 830.085 2035.96 829.514 2035.96 829.514 2037.1 829.514 2037.1 829.514 2037.67 828.943 2037.67 828.943 2037.67 828.943 2037.1 826.66ZM2024.52 832.939 2023.95 833.509 2023.95 833.509 2022.8 834.08 2022.8 834.08 2022.23 834.651 2022.23 834.651 2021.66 834.651 2022.8 836.934 2022.8 836.363 2022.8 836.363 2023.95 835.792 2023.95 835.792 2024.52 835.792 2024.52 835.792 2025.66 835.222 2024.52 832.939ZM2012.51 839.788 2012.51 839.788 2011.93 840.359 2011.93 840.359 2010.79 840.929 2010.79 840.929 2010.22 841.5 2010.22 841.5 2009.65 841.5 2010.79 843.783 2010.79 843.212 2010.79 843.212 2011.93 842.641 2011.93 842.641 2012.51 842.641 2012.51 842.641 2013.65 842.071 2013.65 842.071 2012.51 839.788ZM2000.49 847.208 2000.49 847.208 2000.49 847.208 1999.92 847.778 1999.92 847.778 1998.78 848.349 1998.78 848.349 1998.21 848.92 1999.35 850.632 1999.92 850.632 1999.92 850.632 2000.49 849.491 2001.07 849.491 2001.64 849.491 2001.64 849.491 2002.21 848.92 2000.49 847.208ZM1989.06 854.627 1989.06 854.627 1988.48 855.198 1988.48 855.198 1987.34 855.769 1987.34 855.769 1986.77 856.34 1986.77 856.34 1986.2 856.34 1987.34 858.623 1987.91 858.052 1987.91 858.052 1988.48 857.481 1989.06 857.481 1989.63 857.481 1989.63 856.91 1990.2 856.34 1990.2 856.34 1989.06 854.627ZM1978.19 862.618 1977.04 863.189 1977.04 863.189 1976.47 863.759 1976.47 863.759 1975.33 864.33 1975.33 864.33 1975.33 864.33 1976.47 866.613 1977.04 866.042 1977.04 866.042 1977.62 865.472 1977.62 865.472 1978.76 864.901 1978.76 864.901 1979.33 864.33 1978.19 862.618ZM1966.75 870.609 1966.75 871.179 1966.75 871.179 1966.18 871.75 1966.18 871.75 1965.03 872.321 1965.03 872.321 1964.46 872.891 1965.6 874.604 1966.75 874.033 1966.75 874.033 1967.32 873.462 1967.32 873.462 1968.46 872.891 1968.46 872.891 1968.46 872.891 1966.75 870.609ZM1956.45 879.741 1955.31 879.741 1955.31 879.741 1954.74 880.882 1954.74 880.882 1953.59 881.453 1953.59 881.453 1953.59 881.453 1954.74 883.165 1955.31 883.165 1955.31 883.165 1956.45 882.594 1956.45 882.594 1957.02 881.453 1957.02 881.453 1957.6 881.453 1956.45 879.741ZM1945.58 888.302 1945.01 888.873 1945.01 888.873 1944.44 889.443 1944.44 889.443 1943.3 890.585 1943.3 890.585 1943.3 890.585 1944.44 892.297 1945.01 892.297 1945.01 892.297 1946.16 891.156 1946.16 891.156 1946.73 890.585 1946.73 890.585 1947.3 890.014 1945.58 888.302ZM1935.86 898.005 1934.72 898.575 1934.72 898.575 1934.14 899.146 1934.14 899.146 1933 899.717 1933 900.288 1933 900.288 1934.72 902 1934.72 901.429 1934.72 901.429 1935.86 900.858 1935.86 900.858 1936.43 900.288 1936.43 900.288 1937 899.717 1935.86 898.005Z" fill="#0072BD" fill-rule="evenodd"/><path d="M1925.29 908 1925.29 908 1925.29 908 1924.14 908.573 1924.14 908.573 1923.57 909.72 1923.57 909.72 1923 910.293 1924.71 912.014 1924.71 911.44 1924.71 911.44 1925.86 910.293 1925.86 910.293 1926.43 909.72 1926.43 909.72 1927 909.147 1925.29 908ZM1916.14 917.748 1915.57 917.748 1915.57 917.748 1915 918.895 1914.43 918.895 1913.86 920.042 1913.86 920.042 1913.86 920.042 1915.57 921.762 1915.57 921.188 1915.57 921.188 1916.14 920.615 1916.14 920.615 1917.29 919.468 1917.29 919.468 1917.86 918.895 1916.14 917.748ZM1907 928.069 1906.43 928.643 1905.86 928.643 1905.29 929.789 1905.29 929.789 1904.14 930.363 1906.43 932.083 1907 930.936 1907 930.936 1907.57 930.363 1908.14 930.363 1908.71 929.789 1907 928.069ZM1897.86 938.391 1897.29 938.964 1897.29 938.964 1896.71 940.111 1896.71 940.111 1895.57 940.684 1895.57 941.258 1895.57 941.258 1897.29 942.405 1897.86 942.405 1897.86 942.405 1898.43 941.258 1898.43 941.258 1899.57 940.111 1899.57 940.111 1899.57 940.111 1897.86 938.391ZM1889.29 949.286 1888.71 949.859 1888.71 949.859 1888.14 951.006 1888.14 951.006 1887 952.153 1889.29 953.873 1889.86 952.153 1889.86 952.153 1891 951.579 1891 951.579 1891 951.006 1889.29 949.286ZM1881.29 960.754 1880.14 961.901 1880.14 961.901 1879.57 963.047 1879.57 963.047 1879 963.621 1880.71 964.768 1881.29 964.194 1881.29 964.194 1882.43 963.047 1882.43 963.047 1883 961.901 1881.29 960.754ZM1873.29 972.222 1872.71 973.369 1872.71 973.369 1871.57 974.516 1871.57 974.516 1871.57 975.089 1873.29 976.236 1873.86 975.663 1873.86 975.663 1874.43 974.516 1874.43 974.516 1875 973.369 1873.29 972.222ZM1865.86 983.69 1865.86 984.264 1865.86 984.264 1864.71 985.411 1864.71 985.411 1864.14 986.557 1866.43 987.704 1867 986.557 1867 986.557 1867.57 985.411 1867.57 985.411 1868.14 984.837 1865.86 983.69ZM1859 995.732 1859 995.732 1859 995.732 1857.86 997.452 1857.86 997.452 1857.29 998.599 1859 999.746 1860.14 998.599 1860.14 998.599 1860.71 996.879 1860.71 996.879 1860.71 996.879 1859 995.732ZM1852.14 1007.77 1852.14 1008.35 1852.14 1008.35 1851 1009.49 1851 1009.49 1850.43 1010.64 1852.71 1011.79 1853.29 1010.64 1853.29 1010.64 1853.86 1009.49 1853.86 1009.49 1853.86 1008.92 1852.14 1007.77ZM1845.86 1019.82 1845.86 1019.82 1845.86 1019.82 1845.29 1022.11 1845.29 1022.11 1844.71 1023.26 1846.43 1024.4 1847 1022.68 1847 1022.68 1848.14 1020.96 1848.14 1020.96 1848.14 1020.96 1845.86 1019.82ZM1840.14 1032.43 1840.14 1033 1840.14 1033 1839 1034.72 1839 1034.72 1838.43 1035.87 1840.71 1036.44 1841.29 1035.87 1841.29 1035.87 1841.86 1034.15 1841.86 1034.15 1841.86 1033.58 1840.14 1032.43ZM1834.43 1045.05 1833.86 1047.34 1833.86 1047.34 1833.29 1048.49 1835.57 1049.06 1836.14 1047.91 1836.14 1047.91 1836.71 1046.19 1834.43 1045.05ZM1829.86 1058.23 1829.29 1058.23 1828.71 1060.53 1828.71 1060.53 1828.14 1061.1 1830.43 1062.25 1830.43 1061.1 1830.43 1061.1 1831.57 1058.81 1831.57 1058.81 1829.86 1058.23ZM1824.71 1071.42 1824.14 1072.57 1824.14 1072.57 1823.57 1074.29 1825.86 1074.86 1826.43 1073.72 1826.43 1073.14 1827 1072 1824.71 1071.42ZM1820.71 1084.61 1820.14 1086.33 1820.14 1086.33 1819.57 1087.48 1821.86 1088.05 1822.43 1086.9 1822.43 1086.9 1823 1085.18 1820.71 1084.61ZM1816.71 1097.8 1816.71 1098.95 1816.71 1098.95 1816.14 1101.24 1818.43 1101.81 1819 1099.52 1819 1099.52 1819 1098.37 1816.71 1097.8ZM1813.29 1110.99 1813.29 1112.71 1813.29 1112.71 1812.71 1114.43 1815 1115 1815.57 1113.28 1815.57 1113.28 1815.57 1111.56 1813.29 1110.99ZM1810.43 1124.75 1810.43 1124.75 1810.43 1124.75 1809.86 1128.19 1812.14 1128.19 1812.71 1125.32 1812.71 1125.32 1812.71 1125.32 1810.43 1124.75ZM1808.14 1137.94 1808.14 1139.09 1808.14 1139.09 1807.57 1141.38 1809.86 1141.95 1810.43 1139.66 1810.43 1139.09 1810.43 1138.51 1808.14 1137.94ZM1805.86 1151.7 1805.86 1155.14 1808.14 1155.71 1808.14 1152.27 1805.86 1151.7ZM1804.71 1165.46 1804.14 1168.9 1806.43 1169.48 1807 1166.04 1804.71 1165.46ZM1803.57 1179.22 1803 1182.66 1805.29 1182.66 1805.86 1179.22 1803.57 1179.22ZM1803 1192.99 1803 1197 1805.29 1197 1805.29 1192.99 1803 1192.99Z" fill="#0072BD" fill-rule="evenodd"/><path d="M1803 1207 1803 1210.44 1805.29 1210.44 1805.29 1207 1803 1207ZM1803 1220.74 1803 1224.18 1805.29 1224.18 1805.29 1220.74 1803 1220.74ZM1803 1234.48 1803.57 1237.92 1805.86 1237.92 1805.86 1234.48 1803 1234.48ZM1804.14 1248.22 1804.72 1251.09 1804.72 1251.66 1804.72 1251.66 1807.01 1251.09 1807.01 1251.09 1807.01 1251.09 1806.43 1247.65 1804.14 1248.22ZM1805.86 1261.96 1806.43 1265.4 1808.15 1264.83 1808.15 1261.39 1805.86 1261.96ZM1807.58 1275.71 1808.15 1277.42 1808.15 1277.42 1808.15 1279.14 1810.44 1278.57 1810.44 1276.85 1810.44 1276.85 1809.87 1275.13 1807.58 1275.71ZM1809.87 1289.45 1810.44 1291.74 1810.44 1291.74 1811.01 1292.31 1813.3 1292.31 1812.73 1291.16 1812.73 1291.16 1812.15 1288.87 1809.87 1289.45ZM1812.73 1302.62 1813.3 1303.76 1813.3 1303.76 1813.87 1306.05 1816.16 1305.48 1815.59 1303.19 1815.59 1303.19 1815.01 1302.04 1812.73 1302.62ZM1816.16 1316.36 1816.73 1317.5 1816.73 1317.5 1816.73 1319.22 1819.59 1319.22 1819.02 1317.5 1819.02 1316.93 1818.45 1315.21 1816.16 1316.36ZM1820.16 1329.53 1820.16 1330.1 1820.16 1330.1 1820.74 1332.96 1823.02 1331.82 1822.45 1329.53 1822.45 1329.53 1821.88 1328.95 1820.16 1329.53ZM1824.17 1342.69 1824.17 1343.84 1824.17 1343.84 1825.31 1346.13 1827.03 1344.98 1826.46 1342.69 1826.46 1342.69 1826.46 1342.12 1824.17 1342.69ZM1828.75 1355.29 1828.75 1355.86 1828.75 1355.86 1829.32 1358.15 1829.89 1358.15 1829.89 1358.73 1832.18 1358.15 1831.61 1357.58 1831.61 1357.58 1830.46 1355.29 1830.46 1355.29 1830.46 1354.72 1828.75 1355.29ZM1833.32 1368.46 1833.9 1369.6 1833.9 1369.6 1835.04 1371.32 1835.04 1371.32 1835.04 1371.89 1836.76 1370.75 1836.76 1370.75 1836.76 1370.18 1836.18 1368.46 1836.18 1368.46 1835.61 1367.89 1833.32 1368.46ZM1839.04 1381.05 1839.04 1381.63 1839.04 1381.63 1840.19 1383.35 1840.19 1383.35 1840.19 1384.49 1842.48 1383.35 1841.91 1382.2 1841.91 1382.2 1841.33 1380.48 1841.33 1380.48 1841.33 1380.48 1839.04 1381.05ZM1844.77 1393.65 1845.34 1394.8 1845.34 1394.8 1845.91 1396.51 1845.91 1396.51 1846.48 1397.09 1848.2 1395.94 1848.2 1395.37 1848.2 1395.37 1847.05 1393.65 1847.05 1393.65 1847.05 1393.08 1844.77 1393.65ZM1851.06 1406.25 1851.06 1406.25 1851.06 1406.82 1852.2 1407.96 1852.2 1407.96 1852.2 1409.11 1854.49 1407.96 1853.92 1406.82 1853.92 1406.82 1853.35 1405.67 1853.35 1405.67 1852.78 1405.1 1851.06 1406.25ZM1857.35 1418.27 1857.93 1418.84 1857.93 1418.84 1859.07 1420.56 1859.07 1420.56 1859.07 1421.13 1861.36 1419.99 1860.79 1419.42 1860.79 1419.42 1860.21 1418.27 1860.21 1418.27 1859.64 1417.13 1857.35 1418.27ZM1864.22 1430.29 1864.79 1430.87 1864.79 1430.87 1865.94 1432.01 1865.94 1432.01 1866.51 1433.16 1868.22 1432.01 1867.65 1430.87 1867.65 1430.87 1867.08 1429.72 1867.08 1429.72 1866.51 1429.15 1864.22 1430.29ZM1871.66 1441.75 1872.8 1442.89 1872.8 1443.46 1873.37 1444.04 1873.37 1444.61 1873.95 1444.61 1875.66 1443.46 1875.66 1443.46 1875.66 1443.46 1874.52 1441.75 1874.52 1441.75 1873.95 1440.6 1871.66 1441.75ZM1879.67 1453.2 1880.24 1454.34 1880.24 1454.34 1881.38 1455.49 1881.38 1455.49 1881.96 1456.06 1883.67 1454.91 1883.1 1454.34 1883.1 1454.34 1882.53 1453.2 1882.53 1453.2 1881.38 1452.05 1879.67 1453.2ZM1887.68 1464.65 1888.25 1465.22 1888.25 1465.22 1888.82 1466.36 1888.82 1466.36 1889.97 1467.51 1891.68 1465.79 1891.11 1465.22 1891.11 1465.22 1889.97 1464.07 1889.97 1464.07 1889.39 1463.5 1887.68 1464.65ZM1896.26 1475.53 1896.83 1476.1 1896.83 1476.1 1897.4 1477.24 1897.4 1477.24 1898.55 1477.82 1900.26 1476.67 1899.69 1476.1 1899.69 1476.1 1898.55 1474.95 1898.55 1474.95 1897.98 1473.81 1896.26 1475.53ZM1904.84 1485.83 1905.41 1486.4 1905.41 1486.4 1905.99 1487.55 1906.56 1487.55 1907.13 1488.69 1907.13 1488.69 1907.13 1488.69 1908.85 1486.98 1908.85 1486.98 1908.85 1486.98 1908.27 1485.83 1907.7 1485.83 1907.13 1485.26 1907.13 1485.26 1906.56 1484.69 1904.84 1485.83ZM1914 1496.14 1914.57 1497.28 1915.14 1497.28 1915.71 1497.85 1915.71 1498.43 1916.28 1499 1918 1497.28 1917.43 1496.71 1917.43 1496.71 1916.28 1495.56 1916.28 1495.56 1915.71 1494.99 1914 1496.14Z" fill="#0072BD" fill-rule="evenodd"/><path d="M1924 1506.72 1924.57 1507.29 1924.57 1507.86 1925.72 1508.44 1925.72 1508.44 1926.29 1509.01 1928 1507.86 1926.86 1506.72 1926.86 1506.72 1926.29 1506.15 1926.29 1506.15 1925.72 1505 1924 1506.72ZM1933.72 1516.45 1934.3 1517.03 1934.3 1517.03 1934.87 1517.6 1934.87 1517.6 1936.01 1518.74 1936.01 1518.74 1936.01 1518.74 1937.73 1517.03 1937.73 1517.03 1937.73 1517.03 1936.58 1515.88 1936.58 1515.88 1936.01 1515.31 1936.01 1515.31 1935.44 1514.74 1933.72 1516.45ZM1943.45 1526.19 1944.59 1526.76 1944.59 1526.76 1945.16 1527.33 1945.16 1527.33 1946.31 1527.91 1946.31 1527.91 1946.31 1527.91 1948.02 1526.19 1948.02 1526.19 1948.02 1526.19 1946.88 1525.62 1946.88 1525.62 1946.31 1525.04 1946.31 1525.04 1945.16 1524.47 1943.45 1526.19ZM1954.32 1534.78 1954.89 1535.35 1954.89 1535.35 1955.46 1536.5 1955.46 1536.5 1956.6 1537.07 1956.6 1537.07 1956.6 1537.07 1958.32 1535.35 1958.32 1535.35 1958.32 1535.35 1957.18 1534.78 1957.18 1534.78 1956.6 1533.63 1956.6 1533.63 1955.46 1533.06 1954.32 1534.78ZM1965.18 1543.37 1965.18 1543.94 1965.18 1543.94 1966.33 1544.52 1966.33 1544.52 1966.9 1545.09 1966.9 1545.09 1967.47 1545.66 1969.19 1543.94 1968.62 1543.37 1968.62 1543.37 1967.47 1542.8 1967.47 1542.8 1966.9 1542.22 1966.9 1542.22 1966.33 1541.65 1965.18 1543.37ZM1976.05 1551.96 1976.62 1552.53 1976.62 1552.53 1977.2 1553.11 1977.2 1553.11 1978.34 1553.68 1978.34 1553.68 1978.91 1554.25 1980.06 1551.96 1979.48 1551.96 1979.48 1551.96 1978.91 1551.39 1978.91 1551.39 1977.77 1550.81 1977.77 1550.81 1977.2 1550.24 1976.05 1551.96ZM1986.92 1559.98 1987.49 1560.55 1987.49 1560.55 1988.64 1561.12 1988.64 1561.12 1989.21 1561.7 1989.21 1561.7 1989.78 1562.27 1990.92 1559.98 1990.35 1559.98 1990.35 1559.98 1989.78 1558.83 1989.78 1558.83 1989.21 1558.83 1988.64 1558.83 1988.64 1558.26 1986.92 1559.98ZM1998.36 1568 1998.93 1568 1998.93 1568 2000.08 1568.57 2000.08 1568.57 2000.65 1569.14 2000.65 1569.14 2001.79 1569.71 2001.79 1569.71 2002.36 1568 2002.36 1568 2001.79 1566.85 2001.79 1566.85 2001.22 1566.85 2000.65 1566.85 2000.08 1566.28 2000.08 1566.28 2000.08 1565.7 1998.36 1568ZM2010.37 1574.87 2010.94 1575.44 2010.94 1575.44 2012.09 1576.01 2012.09 1576.01 2012.66 1576.59 2012.66 1576.59 2013.23 1576.59 2014.38 1574.87 2013.8 1574.3 2013.8 1574.3 2012.66 1573.72 2012.66 1573.72 2012.09 1573.72 2012.09 1573.72 2011.52 1573.15 2010.37 1574.87ZM2022.38 1581.74 2022.96 1582.31 2022.96 1582.31 2024.1 1582.89 2024.1 1582.89 2024.67 1583.46 2024.67 1583.46 2025.24 1583.46 2026.39 1581.74 2025.82 1581.17 2025.82 1581.17 2024.67 1580.59 2024.67 1580.59 2024.1 1580.59 2024.1 1580.59 2023.53 1580.02 2022.38 1581.74ZM2034.4 1588.61 2034.97 1588.61 2034.97 1588.61 2036.11 1589.18 2036.11 1589.18 2036.68 1589.76 2036.68 1589.76 2037.26 1590.33 2038.4 1588.04 2037.83 1587.47 2037.83 1587.47 2037.26 1586.89 2037.26 1586.89 2036.11 1586.89 2036.11 1586.89 2035.54 1586.32 2034.4 1588.61ZM2046.98 1594.91 2046.98 1594.91 2046.98 1594.91 2048.12 1594.91 2048.12 1594.91 2048.7 1595.48 2048.7 1595.48 2049.84 1596.06 2049.84 1596.06 2049.84 1596.06 2050.98 1593.77 2050.98 1593.77 2050.98 1593.77 2049.84 1593.77 2049.84 1593.19 2049.27 1593.19 2049.27 1593.19 2048.12 1592.62 2048.12 1592.62 2047.55 1592.62 2046.98 1594.91ZM2059.56 1600.07 2060.14 1600.64 2060.14 1600.64 2060.71 1600.64 2060.71 1600.64 2061.85 1601.21 2061.85 1601.21 2062.42 1601.78 2063.57 1599.49 2063 1598.92 2062.42 1598.92 2061.85 1598.92 2061.85 1598.92 2061.28 1598.35 2060.71 1598.35 2060.14 1598.35 2059.56 1600.07ZM2072.15 1605.79 2072.15 1605.79 2072.15 1605.79 2072.72 1605.79 2073.29 1605.79 2073.86 1606.37 2073.86 1606.37 2075.01 1606.37 2075.01 1606.94 2075.01 1606.94 2076.15 1604.65 2075.58 1604.65 2075.58 1604.65 2074.44 1604.07 2074.44 1604.07 2073.86 1603.5 2073.86 1603.5 2073.29 1603.5 2072.72 1603.5 2072.72 1603.5 2072.15 1605.79ZM2084.73 1610.37 2085.3 1610.37 2085.3 1610.37 2085.88 1610.95 2085.88 1610.95 2087.02 1610.95 2087.02 1610.95 2087.59 1611.52 2087.59 1611.52 2088.16 1611.52 2088.74 1609.23 2088.16 1609.23 2088.16 1609.23 2087.59 1608.66 2087.59 1608.66 2086.45 1608.66 2086.45 1608.66 2085.88 1608.08 2085.88 1608.08 2085.88 1608.08 2084.73 1610.37ZM2097.89 1614.96 2099.03 1614.96 2099.03 1614.96 2099.6 1615.53 2099.6 1615.53 2100.75 1615.53 2100.75 1615.53 2101.32 1616.1 2101.89 1613.81 2101.32 1613.81 2101.32 1613.81 2100.18 1613.24 2100.18 1613.24 2099.6 1613.24 2099.6 1613.24 2098.46 1612.67 2097.89 1614.96ZM2111.04 1618.96 2111.62 1618.96 2111.62 1618.96 2112.76 1619.54 2112.76 1619.54 2113.33 1619.54 2113.33 1619.54 2114.48 1620.11 2114.48 1620.11 2114.48 1620.11 2115.05 1617.82 2115.05 1617.82 2115.05 1617.82 2113.9 1617.25 2113.9 1617.25 2113.33 1617.25 2113.33 1617.25 2112.19 1616.67 2112.19 1616.67 2111.62 1616.67 2111.04 1618.96ZM2124.2 1622.4 2124.77 1622.4 2124.77 1622.4 2125.34 1622.97 2125.34 1622.97 2126.49 1622.97 2126.49 1622.97 2127.06 1623.55 2127.06 1623.55 2128.2 1623.55 2128.2 1621.26 2128.2 1620.68 2128.2 1620.68 2127.06 1620.68 2127.06 1620.68 2126.49 1620.68 2126.49 1620.68 2125.34 1620.11 2125.34 1620.11 2125.34 1620.11 2124.2 1622.4ZM2137.93 1625.84 2138.5 1625.84 2138.5 1625.84 2139.07 1625.84 2139.64 1625.84 2140.22 1625.84 2140.22 1626.41 2140.79 1626.41 2141.36 1626.41 2141.36 1626.41 2141.93 1624.12 2141.93 1624.12 2141.93 1624.12 2140.79 1624.12 2140.79 1624.12 2140.22 1623.55 2140.22 1623.55 2139.07 1623.55 2139.07 1623.55 2138.5 1623.55 2137.93 1625.84ZM2151.66 1628.7 2152.23 1628.7 2152.23 1628.7 2152.8 1628.7 2153.37 1628.7 2153.94 1628.7 2153.94 1628.7 2154.52 1629.27 2155.09 1626.98 2154.52 1626.98 2154.52 1626.98 2153.37 1626.41 2153.37 1626.41 2152.8 1626.41 2152.8 1626.41 2152.23 1625.84 2151.66 1628.7ZM2165.38 1630.99 2165.38 1630.99 2165.38 1630.99 2165.96 1630.99 2165.96 1630.99 2167.1 1630.99 2167.1 1630.99 2167.67 1630.99 2167.67 1630.99 2168.82 1630.99 2168.82 1628.7 2168.24 1628.7 2168.24 1628.7 2167.1 1628.7 2167.1 1628.7 2166.53 1628.7 2166.53 1628.7 2165.38 1628.7 2165.38 1628.7 2165.38 1628.7 2165.38 1630.99ZM2179.11 1632.71 2179.11 1632.71 2179.11 1632.71 2179.68 1632.71 2179.68 1632.71 2180.83 1632.71 2180.83 1632.71 2181.4 1632.71 2181.4 1632.71 2182.54 1632.71 2182.54 1630.42 2181.97 1630.42 2181.97 1630.42 2180.83 1630.42 2180.83 1630.42 2180.26 1630.42 2180.26 1630.42 2179.11 1630.42 2179.11 1630.42 2179.11 1630.42 2179.11 1632.71ZM2192.27 1633.85 2192.84 1633.85 2192.84 1633.85 2193.98 1633.85 2193.98 1633.85 2194.56 1633.85 2194.56 1633.85 2195.7 1634.43 2195.7 1634.43 2195.7 1634.43 2196.27 1632.14 2195.7 1632.14 2195.7 1632.14 2194.56 1632.14 2194.56 1632.14 2193.98 1632.14 2193.98 1632.14 2192.84 1631.56 2192.84 1631.56 2192.84 1631.56 2192.27 1633.85ZM2206 1635 2206.57 1635 2206.57 1635 2207.71 1635 2207.71 1635 2208.28 1635 2208.28 1635 2209.43 1635 2209.43 1635 2209.43 1635 2210 1632.71 2209.43 1632.71 2209.43 1632.71 2208.28 1632.71 2208.28 1632.71 2207.71 1632.71 2207.71 1632.71 2206.57 1632.71 2206.57 1632.71 2206.57 1632.71 2206 1635Z" fill="#0072BD" fill-rule="evenodd"/><path d="M2221 1636 2221 1636 2221 1636 2222.15 1636 2222.15 1636 2222.72 1636 2222.72 1636 2223.87 1636 2223.87 1636 2224.44 1636 2224.44 1633.71 2223.87 1633.71 2223.87 1633.71 2222.72 1633.71 2222.72 1633.71 2222.15 1633.71 2222.15 1633.71 2221 1633.71 2221 1633.71 2221 1633.71 2221 1636ZM2234.75 1636 2234.75 1636 2235.33 1636 2235.9 1636 2235.9 1636 2236.47 1636 2237.05 1636 2237.62 1636 2237.62 1636 2238.19 1636 2238.19 1633.71 2237.62 1633.71 2237.62 1633.71 2236.47 1633.71 2236.47 1633.71 2235.9 1633.71 2235.9 1633.71 2234.75 1633.71 2234.75 1633.71 2234.75 1633.71 2234.75 1636ZM2248.51 1635.43 2249.08 1635.43 2249.08 1635.43 2249.66 1635.43 2249.66 1635.43 2250.8 1635.43 2250.8 1635.43 2251.37 1635.43 2251.37 1635.43 2251.95 1635.43 2251.37 1633.14 2251.37 1633.14 2251.37 1633.14 2250.23 1633.14 2250.23 1633.14 2249.66 1633.14 2249.66 1633.14 2248.51 1633.14 2248.51 1633.14 2247.94 1633.14 2248.51 1635.43ZM2262.26 1634.86 2262.84 1634.86 2262.84 1634.86 2263.41 1634.86 2263.41 1634.86 2264.56 1634.28 2264.56 1634.28 2265.13 1634.28 2265.13 1634.28 2265.7 1634.28 2265.7 1631.99 2265.13 1632.57 2265.13 1632.57 2263.98 1632.57 2263.98 1632.57 2263.41 1632.57 2263.41 1632.57 2262.26 1632.57 2262.26 1632.57 2262.26 1632.57 2262.26 1634.86ZM2276.02 1633.14 2276.59 1633.14 2276.59 1633.14 2277.16 1633.14 2277.16 1633.14 2278.31 1633.14 2278.31 1633.14 2278.88 1633.14 2278.88 1633.14 2279.46 1633.14 2279.46 1630.85 2278.88 1630.85 2278.88 1630.85 2277.74 1630.85 2277.74 1630.85 2277.16 1630.85 2277.16 1630.85 2276.02 1631.42 2276.02 1631.42 2276.02 1631.42 2276.02 1633.14ZM2289.77 1631.42 2290.34 1631.42 2290.34 1631.42 2290.92 1631.42 2290.92 1631.42 2292.06 1631.42 2292.06 1631.42 2292.64 1631.42 2292.64 1631.42 2293.21 1631.42 2292.64 1629.13 2292.64 1629.13 2292.64 1629.13 2291.49 1629.13 2291.49 1629.13 2290.92 1629.13 2290.92 1629.13 2289.77 1629.13 2289.77 1629.13 2289.2 1629.71 2289.77 1631.42ZM2303.53 1629.71 2304.1 1629.71 2304.1 1629.71 2304.67 1629.13 2305.25 1629.13 2305.82 1629.13 2305.82 1629.13 2306.39 1629.13 2306.96 1629.13 2306.39 1626.85 2306.39 1626.85 2305.25 1626.85 2305.25 1626.85 2304.67 1627.42 2304.67 1627.42 2303.53 1627.42 2303.53 1627.42 2302.95 1627.42 2303.53 1629.71ZM2316.71 1626.85 2316.71 1626.85 2317.28 1626.85 2317.85 1626.85 2317.85 1626.85 2318.43 1626.85 2319 1626.27 2319.57 1626.27 2319.57 1626.27 2320.15 1626.27 2319.57 1623.98 2319 1623.98 2319 1623.98 2318.43 1624.56 2318.43 1624.56 2317.28 1624.56 2317.28 1624.56 2316.71 1624.56 2316.71 1624.56 2316.71 1624.56 2316.71 1626.85ZM2330.46 1623.98 2331.04 1623.98 2331.04 1623.98 2331.61 1623.98 2331.61 1623.98 2332.75 1623.41 2332.75 1623.41 2333.33 1623.41 2333.33 1623.41 2333.9 1622.84 2333.33 1621.12 2332.75 1621.12 2332.75 1621.12 2332.18 1621.12 2332.18 1621.12 2331.04 1621.12 2331.04 1621.12 2330.46 1621.7 2330.46 1621.7 2329.89 1621.7 2330.46 1623.98ZM2343.64 1620.55 2343.64 1620.55 2343.64 1620.55 2344.79 1620.55 2344.79 1620.55 2345.36 1619.98 2345.36 1619.98 2346.51 1619.98 2346.51 1619.98 2347.08 1619.41 2346.51 1617.12 2345.94 1617.69 2345.94 1617.69 2344.79 1617.69 2344.79 1617.69 2344.22 1618.26 2344.22 1618.26 2343.07 1618.26 2343.07 1618.26 2343.07 1618.26 2343.64 1620.55ZM2356.82 1616.55 2357.4 1616.55 2357.4 1616.55 2358.54 1615.97 2358.54 1615.97 2359.12 1615.97 2359.12 1615.97 2360.26 1615.4 2360.26 1615.4 2360.26 1615.4 2359.69 1613.69 2359.69 1613.69 2359.69 1613.69 2358.54 1613.69 2358.54 1613.69 2357.97 1614.26 2357.97 1614.26 2356.82 1614.26 2356.82 1614.26 2356.25 1614.26 2356.82 1616.55ZM2370.01 1612.54 2370.58 1611.97 2370.58 1611.97 2371.15 1611.97 2371.15 1611.97 2372.3 1611.4 2372.3 1611.4 2372.87 1611.4 2372.87 1611.4 2373.44 1611.4 2372.87 1609.11 2372.3 1609.11 2372.3 1609.11 2371.73 1609.11 2371.73 1609.11 2370.58 1609.68 2370.58 1609.68 2370.01 1609.68 2370.01 1609.68 2369.43 1610.25 2370.01 1612.54ZM2383.19 1607.39 2383.19 1607.39 2383.76 1607.39 2384.33 1607.39 2384.33 1606.82 2384.91 1606.82 2384.91 1606.82 2386.05 1606.25 2386.05 1606.25 2386.05 1606.25 2385.48 1603.96 2385.48 1603.96 2384.91 1604.53 2384.33 1604.53 2384.33 1604.53 2383.76 1605.1 2383.19 1605.1 2382.61 1605.1 2382.61 1605.1 2382.61 1605.68 2383.19 1607.39ZM2395.8 1602.24 2396.37 1602.24 2396.37 1602.24 2397.51 1601.67 2397.51 1601.67 2398.09 1601.1 2398.09 1601.1 2399.23 1601.1 2398.09 1598.81 2397.51 1599.38 2397.51 1599.38 2396.37 1599.38 2396.37 1599.38 2395.8 1599.95 2395.8 1599.95 2395.22 1600.53 2395.8 1602.24ZM2408.4 1597.09 2409.55 1596.52 2409.55 1596.52 2410.12 1595.95 2410.12 1595.95 2411.27 1595.38 2411.27 1595.38 2411.84 1595.38 2410.7 1593.09 2410.12 1593.66 2410.12 1593.66 2409.55 1593.66 2409.55 1594.23 2408.4 1594.23 2408.4 1594.23 2407.83 1594.8 2408.4 1597.09ZM2421.01 1590.8 2421.58 1590.8 2421.58 1590.8 2422.73 1590.23 2422.73 1590.23 2423.3 1589.65 2423.3 1589.65 2424.45 1589.08 2423.3 1587.37 2422.16 1587.37 2422.16 1587.37 2421.58 1587.94 2421.58 1587.94 2420.44 1588.51 2420.44 1588.51 2419.87 1589.08 2421.01 1590.8ZM2433.05 1584.51 2433.62 1584.51 2433.62 1584.51 2434.77 1583.93 2434.77 1583.93 2435.34 1583.36 2435.34 1583.36 2436.49 1582.79 2436.49 1582.79 2436.49 1582.79 2435.34 1580.5 2435.34 1581.07 2435.34 1581.07 2434.19 1581.07 2434.19 1581.07 2433.62 1581.64 2433.62 1581.64 2432.47 1582.22 2432.47 1582.22 2431.9 1582.22 2433.05 1584.51ZM2445.08 1577.64 2445.65 1577.64 2445.65 1577.64 2446.8 1577.07 2446.8 1577.07 2447.37 1576.49 2447.37 1576.49 2448.52 1575.92 2447.37 1574.21 2446.23 1574.21 2446.23 1574.21 2445.65 1574.78 2445.65 1574.78 2444.51 1575.35 2444.51 1575.35 2443.94 1575.92 2445.08 1577.64ZM2457.12 1570.77 2457.69 1570.2 2457.69 1570.2 2458.84 1569.63 2458.84 1569.63 2459.41 1569.06 2459.41 1569.06 2459.98 1568.48 2458.84 1566.77 2458.26 1567.34 2458.26 1567.34 2457.69 1567.34 2457.69 1567.34 2456.54 1568.48 2456.54 1568.48 2455.97 1568.48 2457.12 1570.77ZM2468.58 1563.33 2469.15 1562.76 2469.15 1562.76 2469.73 1562.19 2470.3 1562.19 2470.87 1561.62 2470.87 1561.62 2471.44 1561.05 2470.3 1559.33 2469.73 1559.33 2469.15 1559.33 2468.58 1560.47 2468.58 1560.47 2468.01 1561.05 2467.43 1561.05 2467.43 1561.05 2468.58 1563.33ZM2480.04 1555.32 2480.04 1554.75 2480.61 1554.75 2481.19 1554.18 2481.19 1554.18 2482.33 1553.61 2482.33 1553.61 2482.91 1553.04 2481.19 1551.32 2480.61 1551.89 2480.61 1551.89 2479.47 1552.46 2479.47 1552.46 2478.89 1553.04 2478.89 1553.04 2478.89 1553.04 2480.04 1555.32ZM2490.93 1546.74 2491.5 1546.74 2491.5 1546.74 2492.65 1545.6 2492.65 1545.6 2493.22 1545.03 2493.22 1545.03 2493.8 1545.03 2492.65 1542.74 2492.08 1543.31 2492.08 1543.31 2490.93 1543.88 2490.93 1543.88 2490.36 1545.03 2490.36 1545.03 2489.78 1545.03 2490.93 1546.74ZM2501.82 1538.16 2502.96 1537.59 2502.96 1537.59 2503.54 1537.02 2503.54 1537.02 2504.68 1535.87 2504.68 1535.87 2504.68 1535.87 2502.96 1534.15 2502.96 1534.15 2502.96 1534.15 2502.39 1535.3 2502.39 1535.3 2501.25 1535.87 2501.25 1535.87 2500.67 1536.44 2501.82 1538.16ZM2512.71 1529.01 2513.28 1528.43 2513.28 1528.43 2513.85 1527.86 2513.85 1527.86 2515 1527.29 2515 1527.29 2515 1526.72 2513.28 1525 2513.28 1525.57 2513.28 1525.57 2512.71 1526.14 2512.71 1526.14 2511.56 1526.72 2511.56 1526.72 2510.99 1527.29 2512.71 1529.01Z" fill="#0072BD" fill-rule="evenodd"/><path d="M2522.15 1519 2523.3 1518.43 2523.3 1518.43 2523.87 1517.28 2523.87 1517.28 2525.02 1516.71 2523.3 1515 2522.72 1515.57 2522.72 1515.57 2521.57 1516.71 2521.57 1516.71 2521 1517.28 2522.15 1519ZM2532.48 1509.28 2532.48 1509.28 2532.48 1509.28 2533.62 1508.13 2533.62 1508.13 2534.2 1507.56 2534.2 1507.56 2534.77 1506.99 2533.05 1505.27 2533.05 1505.85 2533.05 1505.85 2531.9 1506.42 2531.9 1506.42 2531.33 1507.56 2531.33 1507.56 2530.76 1507.56 2532.48 1509.28ZM2541.66 1499.55 2542.23 1498.98 2542.23 1498.98 2542.81 1498.41 2542.81 1498.41 2543.95 1497.27 2543.95 1497.27 2544.53 1497.27 2542.81 1495.55 2542.23 1495.55 2542.23 1495.55 2541.66 1496.69 2541.08 1496.69 2540.51 1497.27 2540.51 1497.84 2539.94 1497.84 2541.66 1499.55ZM2551.41 1489.26 2551.41 1488.69 2551.99 1488.69 2552.56 1487.54 2552.56 1487.54 2553.14 1486.4 2551.41 1485.26 2550.84 1485.83 2550.84 1485.83 2549.69 1486.97 2549.69 1486.97 2549.69 1487.54 2551.41 1489.26ZM2560.02 1478.96 2560.59 1478.39 2560.59 1478.39 2561.17 1477.25 2561.17 1477.25 2562.32 1476.1 2562.32 1476.1 2562.32 1476.1 2560.59 1474.39 2560.02 1474.96 2560.02 1474.96 2559.45 1476.1 2559.45 1476.1 2558.3 1476.68 2558.3 1477.25 2558.3 1477.25 2560.02 1478.96ZM2568.63 1468.1 2569.2 1467.52 2569.2 1467.52 2569.78 1466.38 2569.78 1466.38 2570.92 1465.24 2570.92 1465.24 2568.63 1463.52 2568.63 1464.09 2568.05 1465.24 2568.05 1465.24 2566.91 1465.81 2566.91 1465.81 2566.91 1466.38 2568.63 1468.1ZM2576.66 1456.66 2577.81 1455.51 2577.81 1455.51 2578.38 1454.37 2578.38 1454.37 2578.96 1453.8 2577.24 1452.65 2576.66 1453.23 2576.66 1453.23 2575.51 1454.37 2575.51 1454.37 2574.94 1455.51 2576.66 1456.66ZM2584.7 1445.22 2585.27 1444.65 2585.27 1444.65 2586.42 1443.5 2586.42 1443.5 2586.99 1442.36 2584.7 1441.21 2584.7 1441.79 2584.7 1441.79 2583.55 1443.5 2583.55 1443.5 2582.97 1444.07 2584.7 1445.22ZM2592.16 1433.78 2592.16 1433.78 2592.16 1433.78 2593.3 1432.06 2593.3 1432.06 2593.88 1430.92 2592.16 1429.78 2591.58 1430.92 2591.58 1430.92 2590.43 1432.64 2590.43 1432.64 2590.43 1432.64 2592.16 1433.78ZM2599.62 1421.77 2600.19 1420.62 2600.19 1420.62 2600.76 1418.91 2600.76 1418.91 2601.34 1418.91 2599.04 1417.77 2599.04 1418.34 2599.04 1418.34 2598.47 1419.48 2598.47 1419.48 2597.32 1420.62 2599.62 1421.77ZM2605.93 1409.76 2605.93 1409.76 2605.93 1409.76 2607.08 1408.04 2607.08 1408.04 2607.65 1406.9 2605.93 1405.75 2605.35 1406.9 2605.35 1406.9 2604.21 1408.61 2604.21 1408.61 2604.21 1408.61 2605.93 1409.76ZM2612.24 1397.75 2612.81 1396.6 2612.81 1396.6 2613.96 1394.89 2612.24 1393.74 2611.09 1395.46 2611.09 1395.46 2610.52 1396.6 2612.24 1397.75ZM2618.55 1385.16 2619.13 1383.45 2619.13 1383.45 2619.7 1382.3 2617.98 1381.16 2617.4 1382.3 2617.4 1382.3 2616.26 1384.02 2618.55 1385.16ZM2623.72 1372.58 2624.29 1371.44 2624.29 1371.44 2625.44 1369.72 2625.44 1369.72 2623.14 1368.58 2623.14 1368.58 2622.57 1370.29 2622.57 1370.87 2622 1371.44 2623.72 1372.58ZM2628.88 1360 2629.46 1358.28 2629.46 1358.28 2630.6 1356.57 2628.31 1355.42 2627.73 1357.71 2627.16 1357.71 2627.16 1358.85 2628.88 1360ZM2634.05 1346.84 2634.05 1346.27 2634.05 1346.27 2634.62 1343.98 2634.62 1343.98 2634.62 1343.41 2632.9 1342.84 2632.32 1342.84 2632.32 1342.84 2631.75 1345.7 2631.75 1345.7 2631.75 1346.27 2634.05 1346.84ZM2638.06 1333.69 2638.06 1333.12 2638.06 1333.12 2639.21 1330.26 2636.92 1329.68 2635.77 1331.97 2635.77 1332.54 2635.77 1333.12 2638.06 1333.69ZM2642.08 1320.53 2642.65 1317.67 2642.65 1317.67 2642.65 1317.1 2640.36 1316.53 2640.36 1317.1 2640.36 1317.67 2639.78 1319.96 2642.08 1320.53ZM2644.95 1306.81 2646.1 1303.95 2646.1 1303.95 2646.1 1303.38 2643.8 1303.38 2643.8 1303.38 2643.8 1303.38 2643.23 1306.23 2644.95 1306.81ZM2648.39 1293.65 2648.97 1291.94 2648.97 1291.94 2648.97 1290.22 2646.67 1289.65 2646.1 1291.36 2646.1 1291.36 2646.1 1293.08 2648.39 1293.65ZM2650.69 1279.93 2651.26 1277.64 2651.26 1277.64 2651.26 1276.49 2648.97 1275.92 2648.97 1277.07 2648.97 1277.64 2648.39 1279.35 2650.69 1279.93ZM2652.98 1266.2 2652.98 1266.2 2652.98 1266.2 2653.56 1262.77 2651.26 1262.77 2650.69 1265.63 2650.69 1265.63 2650.69 1266.2 2652.98 1266.2ZM2654.7 1252.47 2654.7 1251.9 2654.7 1251.33 2654.7 1249.04 2652.41 1249.04 2652.41 1251.33 2652.41 1251.33 2652.41 1252.47 2654.7 1252.47ZM2655.85 1238.74 2655.85 1235.31 2653.56 1235.31 2653.56 1238.74 2655.85 1238.74ZM2656.43 1225.02 2656.43 1221.59 2654.13 1221.59 2654.13 1225.02 2656.43 1225.02ZM2657 1211.29 2657 1208.43 2654.7 1208.43 2654.7 1211.29 2657 1211.29ZM2657 1208.43 2657 1205 2654.7 1205 2654.7 1208.43 2657 1208.43Z" fill="#0072BD" fill-rule="evenodd"/><text font-family="Arial,Arial_MSFontService,sans-serif" font-weight="400" font-size="46" transform="matrix(1 0 0 1 2242.97 1202)">40</text></g></svg>