<svg xmlns="http://www.w3.org/2000/svg" version="1.1"
  xmlns:xlink="http://www.w3.org/1999/xlink"
  width="100%" height="100%" viewBox="0 8 210 82">
<title>Feedforward Comb Filter</title>
<defs>
	<marker id="EndArrow" viewBox="0 0 10 10" refX="8.5" refY="5"
		markerUnits="strokeWidth" orient="auto"
		markerWidth="8" markerHeight="8">
		<polyline points="10,5 0,10 4,5 0,0 10,5" fill="black" />
	</marker>
	<marker id="StartArrow" viewBox="0 0 10 10" refX="2.5" refY="5"
		markerUnits="strokeWidth" orient="auto"
		markerWidth="8" markerHeight="8">
		<polyline points="0,5 10,0 6,5 10,10 0,5" fill="black" />
	</marker>
</defs>
<g style="stroke:black;stroke-width:1;fill:none">
	<circle cx="148" cy="80" r="8" />
	<rect x="55" y="30" width="45" height="20" />
	<circle cx="40" cy="80" r="2" fill="black" />
	<path d="M115,30 L130,40 L115,50 Z" />
	<g marker-end="url(#EndArrow)">
		<path d="M25,80 H138" /><path d="M156,80 H190" /><path d="M100,40 H113" />
		<path d="M40,80 V40 H53" /><path d="M130, 40 H148 V70" />
		<path d="M57,23 H100" marker-start="url(#StartArrow)" />
	</g>
</g>
<text font-size="12" font-style="italic" fill="black">
	<tspan x="2" y="83">x[n]</tspan>
	<tspan x="190" y="83">y[n]</tspan>
	<tspan x="143" y="85" font-size="15" font-style="normal">+</tspan>
	<tspan x="75" y="20">K</tspan>
	<tspan x="123" y="33">&#x03b1;</tspan>
</text>
<text font-size="12" fill="black" x="63" y="43">Delay</text>
</svg>