<svg width="1716" height="689" xmlns="http://www.w3.org/2000/svg" xmlns:xlink="http://www.w3.org/1999/xlink" overflow="hidden"><defs><clipPath id="clip0"><rect x="1304" y="956" width="1716" height="689"/></clipPath></defs><g clip-path="url(#clip0)" transform="translate(-1304 -956)"><path d="M1453 1486 2947 1486" stroke="#262626" stroke-width="2.29167" stroke-linejoin="round" stroke-miterlimit="10" fill="none" fill-rule="evenodd"/><path d="M1453 989 2947 989" stroke="#262626" stroke-width="2.29167" stroke-linejoin="round" stroke-miterlimit="10" fill="none" fill-rule="evenodd"/><path d="M0 0 0.000360892 15.0001" stroke="#262626" stroke-width="2.29167" stroke-linejoin="round" stroke-miterlimit="10" fill="none" fill-rule="evenodd" transform="matrix(1 0 0 -1 1453 1486)"/><path d="M0 0 0.000360892 15.0001" stroke="#262626" stroke-width="2.29167" stroke-linejoin="round" stroke-miterlimit="10" fill="none" fill-rule="evenodd" transform="matrix(1 0 0 -1 1640 1486)"/><path d="M0 0 0.000360892 15.0001" stroke="#262626" stroke-width="2.29167" stroke-linejoin="round" stroke-miterlimit="10" fill="none" fill-rule="evenodd" transform="matrix(1 0 0 -1 1826 1486)"/><path d="M0 0 0.000360892 15.0001" stroke="#262626" stroke-width="2.29167" stroke-linejoin="round" stroke-miterlimit="10" fill="none" fill-rule="evenodd" transform="matrix(1 0 0 -1 2013 1486)"/><path d="M0 0 0.000360892 15.0001" stroke="#262626" stroke-width="2.29167" stroke-linejoin="round" stroke-miterlimit="10" fill="none" fill-rule="evenodd" transform="matrix(1 0 0 -1 2200 1486)"/><path d="M0 0 0.000360892 15.0001" stroke="#262626" stroke-width="2.29167" stroke-linejoin="round" stroke-miterlimit="10" fill="none" fill-rule="evenodd" transform="matrix(1 0 0 -1 2387 1486)"/><path d="M0 0 0.000360892 15.0001" stroke="#262626" stroke-width="2.29167" stroke-linejoin="round" stroke-miterlimit="10" fill="none" fill-rule="evenodd" transform="matrix(1 0 0 -1 2574 1486)"/><path d="M0 0 0.000360892 15.0001" stroke="#262626" stroke-width="2.29167" stroke-linejoin="round" stroke-miterlimit="10" fill="none" fill-rule="evenodd" transform="matrix(1 0 0 -1 2760 1486)"/><path d="M0 0 0.000360892 15.0001" stroke="#262626" stroke-width="2.29167" stroke-linejoin="round" stroke-miterlimit="10" fill="none" fill-rule="evenodd" transform="matrix(1 0 0 -1 2947 1486)"/><path d="M1453 989 1453 1005" stroke="#262626" stroke-width="2.29167" stroke-linejoin="round" stroke-miterlimit="10" fill="none" fill-rule="evenodd"/><path d="M1640 989 1640 1005" stroke="#262626" stroke-width="2.29167" stroke-linejoin="round" stroke-miterlimit="10" fill="none" fill-rule="evenodd"/><path d="M1826 989 1826 1005" stroke="#262626" stroke-width="2.29167" stroke-linejoin="round" stroke-miterlimit="10" fill="none" fill-rule="evenodd"/><path d="M2013 989 2013 1005" stroke="#262626" stroke-width="2.29167" stroke-linejoin="round" stroke-miterlimit="10" fill="none" fill-rule="evenodd"/><path d="M2200 989 2200 1005" stroke="#262626" stroke-width="2.29167" stroke-linejoin="round" stroke-miterlimit="10" fill="none" fill-rule="evenodd"/><path d="M2387 989 2387 1005" stroke="#262626" stroke-width="2.29167" stroke-linejoin="round" stroke-miterlimit="10" fill="none" fill-rule="evenodd"/><path d="M2574 989 2574 1005" stroke="#262626" stroke-width="2.29167" stroke-linejoin="round" stroke-miterlimit="10" fill="none" fill-rule="evenodd"/><path d="M2760 989 2760 1005" stroke="#262626" stroke-width="2.29167" stroke-linejoin="round" stroke-miterlimit="10" fill="none" fill-rule="evenodd"/><path d="M2947 989 2947 1005" stroke="#262626" stroke-width="2.29167" stroke-linejoin="round" stroke-miterlimit="10" fill="none" fill-rule="evenodd"/><text fill="#262626" font-family="Arial,Arial_MSFontService,sans-serif" font-weight="400" font-size="41" transform="matrix(1 0 0 1 1442.6 1547)">0<tspan font-size="41" x="151.25" y="0">1000</tspan><tspan font-size="41" x="340.885" y="0">2000</tspan><tspan font-size="41" x="526.51" y="0">3000</tspan><tspan font-size="41" x="712.708" y="0">4000</tspan><tspan font-size="41" x="898.906" y="0">5000</tspan><tspan font-size="41" x="1087.97" y="0">6000</tspan><tspan font-size="41" x="1274.17" y="0">7000</tspan><tspan font-size="41" x="1459.79" y="0">8000</tspan><tspan font-size="46" x="602.708" y="60">Frequency (Hz)</tspan></text><path d="M0 0 0.000360892 497" stroke="#262626" stroke-width="2.29167" stroke-linejoin="round" stroke-miterlimit="10" fill="none" fill-rule="evenodd" transform="matrix(1 0 0 -1 1453 1486)"/><path d="M0 0 0.000360892 497" stroke="#262626" stroke-width="2.29167" stroke-linejoin="round" stroke-miterlimit="10" fill="none" fill-rule="evenodd" transform="matrix(1 0 0 -1 2947 1486)"/><path d="M1453 1486 1468 1486" stroke="#262626" stroke-width="2.29167" stroke-linejoin="round" stroke-miterlimit="10" fill="none" fill-rule="evenodd"/><path d="M1453 1362 1468 1362" stroke="#262626" stroke-width="2.29167" stroke-linejoin="round" stroke-miterlimit="10" fill="none" fill-rule="evenodd"/><path d="M1453 1237 1468 1237" stroke="#262626" stroke-width="2.29167" stroke-linejoin="round" stroke-miterlimit="10" fill="none" fill-rule="evenodd"/><path d="M1453 1114 1468 1114" stroke="#262626" stroke-width="2.29167" stroke-linejoin="round" stroke-miterlimit="10" fill="none" fill-rule="evenodd"/><path d="M1453 989 1468 989" stroke="#262626" stroke-width="2.29167" stroke-linejoin="round" stroke-miterlimit="10" fill="none" fill-rule="evenodd"/><path d="M0 0 15.0001 0.000360892" stroke="#262626" stroke-width="2.29167" stroke-linejoin="round" stroke-miterlimit="10" fill="none" fill-rule="evenodd" transform="matrix(-1 0 0 1 2947 1486)"/><path d="M0 0 15.0001 0.000360892" stroke="#262626" stroke-width="2.29167" stroke-linejoin="round" stroke-miterlimit="10" fill="none" fill-rule="evenodd" transform="matrix(-1 0 0 1 2947 1362)"/><path d="M0 0 15.0001 0.000360892" stroke="#262626" stroke-width="2.29167" stroke-linejoin="round" stroke-miterlimit="10" fill="none" fill-rule="evenodd" transform="matrix(-1 0 0 1 2947 1237)"/><path d="M0 0 15.0001 0.000360892" stroke="#262626" stroke-width="2.29167" stroke-linejoin="round" stroke-miterlimit="10" fill="none" fill-rule="evenodd" transform="matrix(-1 0 0 1 2947 1114)"/><path d="M0 0 15.0001 0.000360892" stroke="#262626" stroke-width="2.29167" stroke-linejoin="round" stroke-miterlimit="10" fill="none" fill-rule="evenodd" transform="matrix(-1 0 0 1 2947 989)"/><text fill="#262626" font-family="Arial,Arial_MSFontService,sans-serif" font-weight="400" font-size="41" transform="matrix(1 0 0 1 1377.29 1506)">-<tspan font-size="41" x="13.75" y="0">20</tspan><tspan font-size="41" x="0" y="-125">-</tspan><tspan font-size="41" x="13.75" y="-125">10</tspan><tspan font-size="41" x="37.8125" y="-249">0</tspan><tspan font-size="41" x="13.75" y="-373">10</tspan><tspan font-size="41" x="13.75" y="-497">20</tspan></text><text fill="#262626" font-family="Arial,Arial_MSFontService,sans-serif" font-weight="400" font-size="46" transform="matrix(-1.83697e-16 -1 1 -1.83697e-16 1363.29 1392)">M<tspan font-size="46" x="38" y="6.98049e-15">a</tspan><tspan font-size="46" x="62" y="1.13892e-14">g</tspan><tspan font-size="46" x="85" y="1.56142e-14">n</tspan><tspan font-size="46" x="109" y="2.0023e-14">i</tspan><tspan font-size="46" x="116" y="-0.000244141">t</tspan><tspan font-size="46" x="133" y="2.44317e-14">u</tspan><tspan font-size="46" x="158" y="2.90241e-14">d</tspan><tspan font-size="46" x="179" y="3.28818e-14">e</tspan><tspan font-size="46" x="220" y="-0.000244141">(</tspan><tspan font-size="46" x="234" y="4.29851e-14">d</tspan><tspan font-size="46" x="258" y="4.73938e-14">B</tspan><tspan font-size="46" x="289" y="-0.000244141">)</tspan></text><path d="M1453 1163 1453.57 1163 1453.57 1163 1454.71 1163.57 1454.71 1163.57 1455.29 1164.15 1455.29 1164.15 1456.43 1164.15 1456.43 1164.15 1457 1164.72 1457.57 1164.72 1458.14 1165.86 1458.14 1165.86 1458.71 1166.44 1459.29 1166.44 1459.86 1167.58 1459.86 1167.58 1460.43 1169.3 1461 1169.3 1461.57 1170.44 1461.57 1170.44 1462.14 1171.59 1462.14 1171.59 1463.29 1173.31 1463.29 1173.88 1463.86 1175.6 1463.86 1175.6 1465 1177.89 1465 1177.89 1465.57 1179.61 1466.14 1180.18 1466.71 1182.47 1466.71 1182.47 1467.29 1184.76 1467.86 1184.76 1468.43 1187.63 1468.43 1187.63 1469 1191.06 1469.57 1191.06 1470.14 1194.5 1470.14 1194.5 1470.71 1197.93 1470.71 1197.93 1471.86 1201.37 1471.86 1201.94 1472.43 1205.38 1472.43 1205.95 1473.57 1209.96 1473.57 1210.53 1474.14 1215.12 1474.71 1215.12 1475.29 1220.27 1475.29 1220.27 1475.86 1225.42 1476.43 1226 1477 1231.72 1477 1231.72 1477.57 1238.02 1478.14 1238.6 1478.71 1245.47 1478.71 1245.47 1479.29 1252.91 1479.29 1253.49 1480.43 1261.5 1480.43 1261.5 1481 1270.67 1481 1270.67 1482.14 1280.98 1482.14 1281.55 1482.71 1293 1483.29 1293 1483.86 1306.17 1483.86 1306.17 1484.43 1321.64 1485 1321.64 1485.57 1339.39 1485.57 1339.96 1486.14 1361.15 1486.71 1361.73 1487.29 1389.21 1487.29 1389.21 1487.86 1425.87 1487.86 1427.01 1489 1483.71 1489 1485.43 1489 1486" stroke="#0072BD" stroke-width="2.29167" stroke-linejoin="round" stroke-miterlimit="10" fill="none" fill-rule="evenodd"/><path d="M1491 1486 1491 1469.96 1491.57 1469.39 1492.15 1418.42 1492.15 1417.85 1492.72 1383.49 1493.3 1382.34 1493.87 1357.14 1493.87 1356.57 1494.45 1335.95 1494.45 1335.95 1495.6 1318.2 1495.6 1318.2 1496.17 1303.88 1496.17 1303.31 1497.32 1290.71 1497.32 1290.71 1497.9 1279.26 1497.9 1279.26 1499.05 1268.95 1499.05 1268.95 1499.62 1259.79 1500.2 1259.79 1500.77 1251.77 1500.77 1251.77 1501.35 1243.75 1501.92 1243.75 1502.5 1236.88 1502.5 1236.88 1503.07 1230.58 1503.07 1230.58 1504.22 1224.85 1504.22 1224.85 1504.8 1219.12 1504.8 1219.12 1505.94 1213.97 1505.94 1213.97 1506.52 1209.39 1507.09 1209.39 1507.67 1204.81 1507.67 1204.81 1508.24 1200.8 1508.82 1200.8 1509.39 1197.36 1509.39 1196.79 1509.97 1193.35 1510.54 1193.35 1511.12 1190.49 1511.12 1189.92 1511.69 1187.63 1511.69 1187.63 1512.84 1184.76 1512.84 1184.19 1513.42 1181.9 1513.42 1181.9 1514.57 1179.61 1514.57 1179.61 1515.14 1177.32 1515.72 1177.32 1516.29 1175.03 1516.29 1175.03 1516.87 1173.31 1517.44 1173.31 1518.02 1171.59 1518.02 1171.59 1518.59 1169.87 1519.17 1169.87 1519.74 1168.73 1519.74 1168.73 1520.31 1167.58 1520.31 1167.58 1521.46 1166.44 1521.46 1166.44 1522.04 1165.86 1522.04 1165.86 1523.19 1164.72 1523.19 1164.72 1523.76 1164.15 1524.34 1164.15 1524.91 1163.57 1524.91 1163.57 1526.06 1163.57 1526.06 1163.57 1526.64 1163 1526.64 1163 1527.79 1163 1527.79 1163 1527.79 1163 1528.36 1163 1528.36 1163 1529.51 1163.57 1529.51 1163.57 1530.09 1164.15 1530.09 1164.15 1531.24 1164.15 1531.24 1164.15 1531.81 1165.29 1531.81 1165.29 1532.96 1165.86 1532.96 1165.86 1533.54 1167.01 1533.54 1167.01 1534.69 1168.15 1534.69 1168.15 1535.26 1169.3 1535.26 1169.3 1536.41 1171.02 1536.41 1171.02 1536.98 1172.16 1536.98 1172.16 1538.13 1173.88 1538.13 1173.88 1538.71 1176.17 1538.71 1176.17 1539.86 1177.89 1539.86 1177.89 1540.43 1180.18 1540.43 1180.18 1541.58 1183.04 1541.58 1183.04 1542.16 1185.33 1542.16 1185.91 1543.31 1188.2 1543.31 1188.2 1543.88 1191.63 1543.88 1191.63 1545.03 1195.07 1545.03 1195.07 1545.61 1198.51 1545.61 1198.51 1546.76 1202.52 1546.76 1202.52 1547.33 1206.52 1547.33 1206.52 1548.48 1211.11 1548.48 1211.11 1549.06 1216.26 1549.06 1216.26 1550.2 1221.41 1550.2 1221.41 1550.78 1226.57 1550.78 1227.14 1551.93 1232.87 1551.93 1232.87 1552.5 1239.74 1552.5 1239.74 1553.65 1246.61 1553.65 1247.19 1554.23 1254.63 1554.23 1255.2 1555.38 1263.22 1555.38 1263.22 1555.95 1272.96 1555.95 1272.96 1557.1 1283.84 1557.1 1283.84 1557.68 1295.29 1557.68 1295.87 1558.83 1309.04 1558.83 1309.61 1559.4 1324.5 1559.4 1325.07 1560.55 1343.4 1560.55 1343.97 1561.13 1366.31 1561.13 1366.88 1562.28 1395.51 1562.28 1395.51 1562.85 1435.6 1562.85 1436.18 1564 1486" stroke="#0072BD" stroke-width="2.29167" stroke-linejoin="round" stroke-miterlimit="10" fill="none" fill-rule="evenodd"/><path d="M1566 1486 1566 1457.94 1566 1457.37 1567.16 1410.4 1567.16 1409.26 1567.74 1377.76 1567.74 1377.19 1568.9 1352.56 1568.9 1351.99 1569.48 1331.94 1570.06 1331.94 1570.64 1315.34 1570.64 1315.34 1571.21 1301.02 1571.79 1300.45 1572.37 1288.42 1572.37 1288.42 1572.95 1276.97 1573.53 1276.97 1574.11 1267.23 1574.11 1267.23 1574.69 1258.07 1574.69 1258.07 1575.85 1250.05 1575.85 1250.05 1576.43 1242.6 1576.43 1242.6 1577.59 1235.73 1577.59 1235.73 1578.17 1229.43 1578.75 1228.86 1579.33 1223.71 1579.33 1223.71 1579.9 1217.98 1580.48 1217.98 1581.06 1213.4 1581.06 1213.4 1581.64 1208.24 1581.64 1208.24 1582.8 1204.23 1582.8 1204.23 1583.38 1200.23 1583.38 1200.23 1584.54 1196.22 1584.54 1196.22 1585.12 1192.78 1585.12 1192.78 1586.28 1189.92 1586.28 1189.92 1586.86 1186.48 1587.44 1186.48 1588.02 1183.62 1588.02 1183.62 1588.6 1181.33 1589.17 1181.33 1589.75 1179.04 1589.75 1179.04 1590.33 1176.74 1590.33 1176.74 1591.49 1175.03 1591.49 1174.45 1592.07 1172.74 1592.07 1172.74 1593.23 1171.02 1593.23 1171.02 1593.81 1169.87 1594.39 1169.87 1594.97 1168.15 1594.97 1168.15 1595.55 1167.58 1596.13 1167.58 1596.71 1166.44 1596.71 1166.44 1597.29 1165.29 1597.87 1165.29 1598.44 1164.72 1598.44 1164.72 1599.02 1164.15 1599.02 1164.15 1600.18 1163.57 1600.18 1163.57 1600.76 1163.57 1600.76 1163.57 1601.92 1163 1601.92 1163 1602.5 1163 1602.5 1163 1603.08 1163 1603.66 1163 1603.66 1163 1604.24 1163.57 1604.82 1163.57 1605.4 1164.15 1605.4 1164.15 1605.98 1164.72 1606.56 1164.72 1607.14 1165.29 1607.14 1165.29 1607.71 1165.86 1607.71 1165.86 1608.87 1167.01 1608.87 1167.01 1609.45 1168.15 1609.45 1168.15 1610.61 1169.3 1610.61 1169.3 1611.19 1171.02 1611.77 1171.02 1612.35 1172.74 1612.35 1172.74 1612.93 1174.45 1613.51 1174.45 1614.09 1176.17 1614.09 1176.17 1614.67 1178.46 1615.25 1178.46 1615.83 1180.75 1615.83 1180.75 1616.4 1183.04 1616.4 1183.62 1617.56 1185.91 1617.56 1185.91 1618.14 1189.34 1618.14 1189.34 1619.3 1192.21 1619.3 1192.21 1619.88 1195.64 1620.46 1195.64 1621.04 1199.08 1621.04 1199.65 1621.62 1203.09 1622.2 1203.09 1622.78 1207.67 1622.78 1207.67 1623.36 1212.25 1623.94 1212.25 1624.52 1216.83 1624.52 1216.83 1625.1 1221.99 1625.1 1222.56 1626.25 1228.29 1626.25 1228.29 1626.83 1234.01 1626.83 1234.01 1627.99 1240.89 1627.99 1240.89 1628.57 1248.33 1629.15 1248.33 1629.73 1256.35 1629.73 1256.35 1630.31 1264.94 1630.89 1265.51 1631.47 1274.68 1631.47 1275.25 1632.05 1285.56 1632.05 1286.13 1633.21 1298.16 1633.21 1298.16 1633.79 1311.9 1633.79 1312.47 1634.94 1328.51 1634.94 1328.51 1635.52 1347.41 1635.52 1347.98 1636.68 1371.46 1636.68 1372.03 1637.26 1402.39 1637.84 1402.96 1638.42 1445.34 1638.42 1446.48 1639 1486" stroke="#0072BD" stroke-width="2.29167" stroke-linejoin="round" stroke-miterlimit="10" fill="none" fill-rule="evenodd"/><path d="M1641 1486 1641.57 1446.48 1641.57 1445.34 1642.14 1402.96 1642.14 1402.39 1643.29 1372.03 1643.29 1371.46 1643.86 1347.98 1644.43 1347.41 1645 1328.51 1645 1328.51 1645.57 1312.47 1646.14 1311.9 1646.71 1298.16 1646.71 1298.16 1647.29 1286.13 1647.86 1285.56 1648.43 1275.25 1648.43 1274.68 1649 1265.51 1649 1264.94 1650.14 1256.35 1650.14 1256.35 1650.71 1248.33 1650.71 1248.33 1651.86 1240.89 1651.86 1240.89 1652.43 1234.01 1653 1234.01 1653.57 1228.29 1653.57 1228.29 1654.14 1222.56 1654.71 1221.99 1655.29 1216.83 1655.29 1216.83 1655.86 1212.25 1656.43 1212.25 1657 1207.67 1657 1207.67 1657.57 1203.09 1657.57 1203.09 1658.71 1199.65 1658.71 1199.08 1659.29 1195.64 1659.29 1195.64 1660.43 1192.21 1660.43 1192.21 1661 1189.34 1661.57 1189.34 1662.14 1185.91 1662.14 1185.91 1662.71 1183.62 1663.29 1183.04 1663.86 1180.75 1663.86 1180.75 1664.43 1178.46 1665 1178.46 1665.57 1176.17 1665.57 1176.17 1666.14 1174.45 1666.14 1174.45 1667.29 1172.74 1667.29 1172.74 1667.86 1171.02 1667.86 1171.02 1669 1169.3 1669 1169.3 1669.57 1168.15 1670.14 1168.15 1670.71 1167.01 1670.71 1167.01 1671.29 1165.86 1671.86 1165.86 1672.43 1165.29 1672.43 1165.29 1673 1164.72 1673.57 1164.72 1674.14 1164.15 1674.14 1164.15 1674.71 1163.57 1674.71 1163.57 1675.86 1163 1675.86 1163 1676.43 1163 1676.43 1163 1677 1163 1677.57 1163 1677.57 1163 1678.14 1163.57 1678.71 1163.57 1679.29 1163.57 1679.29 1163.57 1679.86 1164.15 1680.43 1164.15 1681 1164.72 1681 1164.72 1681.57 1165.29 1681.57 1165.29 1682.71 1166.44 1682.71 1166.44 1683.29 1167.58 1683.29 1167.58 1684.43 1168.15 1684.43 1168.15 1685 1169.87 1685 1169.87 1686.14 1171.02 1686.14 1171.02 1686.71 1172.74 1687.29 1172.74 1687.86 1174.45 1687.86 1175.03 1689 1176.74 1689 1176.74 1689.57 1179.04 1689.57 1179.04 1690.71 1181.33 1690.71 1181.33 1691.29 1183.62 1691.29 1183.62 1692.43 1186.48 1692.43 1186.48 1693 1189.92 1693 1189.92 1694.14 1192.78 1694.14 1192.78 1694.71 1196.22 1694.71 1196.22 1695.86 1200.23 1695.86 1200.23 1696.43 1204.23 1696.43 1204.23 1697.57 1208.24 1697.57 1208.24 1698.14 1213.4 1698.14 1213.4 1699.29 1217.98 1699.29 1217.98 1699.86 1223.71 1699.86 1223.71 1701 1228.86 1701 1229.43 1701.57 1235.73 1701.57 1235.73 1702.71 1242.6 1702.71 1242.6 1703.29 1250.05 1703.29 1250.05 1704.43 1258.07 1704.43 1258.07 1705 1267.23 1705 1267.23 1706.14 1276.97 1706.14 1276.97 1706.71 1288.42 1706.71 1288.42 1707.86 1300.45 1707.86 1301.02 1708.43 1315.34 1708.43 1315.34 1709.57 1331.94 1709.57 1331.94 1710.14 1351.99 1710.14 1352.56 1711.29 1377.19 1711.29 1377.76 1711.86 1409.26 1711.86 1410.4 1713 1457.37 1713 1457.94 1713 1486" stroke="#0072BD" stroke-width="2.29167" stroke-linejoin="round" stroke-miterlimit="10" fill="none" fill-rule="evenodd"/><path d="M1715 1486 1716.15 1436.18 1716.15 1435.6 1716.72 1395.51 1716.72 1395.51 1717.87 1366.88 1717.87 1366.31 1718.45 1343.97 1718.45 1343.4 1719.6 1325.07 1719.6 1324.5 1720.17 1309.61 1720.17 1309.04 1721.32 1295.87 1721.32 1295.29 1721.9 1283.84 1721.9 1283.84 1723.05 1272.96 1723.05 1272.96 1723.62 1263.22 1723.62 1263.22 1724.77 1255.2 1724.77 1254.63 1725.35 1247.19 1725.35 1246.61 1726.5 1239.74 1726.5 1239.74 1727.07 1232.87 1727.07 1232.87 1728.22 1227.14 1728.22 1226.57 1728.8 1221.41 1728.8 1221.41 1729.94 1216.26 1729.94 1216.26 1730.52 1211.11 1730.52 1211.11 1731.67 1206.52 1731.67 1206.52 1732.24 1202.52 1732.82 1202.52 1733.39 1198.51 1733.39 1198.51 1733.97 1195.07 1734.54 1195.07 1735.12 1191.63 1735.12 1191.63 1735.69 1188.2 1735.69 1188.2 1736.84 1185.91 1736.84 1185.33 1737.42 1183.04 1737.42 1183.04 1738.57 1180.18 1738.57 1180.18 1739.14 1177.89 1739.72 1177.89 1740.29 1176.17 1740.29 1176.17 1740.87 1173.88 1741.44 1173.88 1742.02 1172.16 1742.02 1172.16 1742.59 1171.02 1743.17 1171.02 1743.74 1169.3 1743.74 1169.3 1744.31 1168.15 1744.31 1168.15 1745.46 1167.01 1745.46 1167.01 1746.04 1165.86 1746.04 1165.86 1747.19 1165.29 1747.19 1165.29 1747.76 1164.15 1748.34 1164.15 1748.91 1164.15 1748.91 1164.15 1749.49 1163.57 1750.06 1163.57 1750.64 1163 1750.64 1163 1751.21 1163 1751.79 1163 1751.79 1163 1752.36 1163 1752.36 1163 1752.94 1163.57 1752.94 1163.57 1754.09 1163.57 1754.09 1163.57 1754.66 1164.15 1754.66 1164.15 1755.81 1164.72 1755.81 1164.72 1756.39 1165.86 1756.96 1165.86 1757.54 1166.44 1757.54 1166.44 1758.11 1167.58 1758.68 1167.58 1759.26 1168.73 1759.26 1168.73 1759.83 1169.87 1760.41 1169.87 1760.98 1171.59 1760.98 1171.59 1761.56 1173.31 1761.56 1173.31 1762.71 1175.03 1762.71 1175.03 1763.28 1177.32 1763.28 1177.32 1764.43 1179.61 1764.43 1179.61 1765.01 1181.9 1765.58 1181.9 1766.16 1184.19 1766.16 1184.76 1766.73 1187.63 1767.31 1187.63 1767.88 1189.92 1767.88 1190.49 1768.46 1193.35 1768.46 1193.35 1769.61 1196.79 1769.61 1197.36 1770.18 1200.8 1770.18 1200.8 1771.33 1204.81 1771.33 1204.81 1771.91 1209.39 1771.91 1209.39 1773.06 1213.97 1773.06 1213.97 1773.63 1219.12 1774.2 1219.12 1774.78 1224.85 1774.78 1224.85 1775.35 1230.58 1775.93 1230.58 1776.5 1236.88 1776.5 1236.88 1777.08 1243.75 1777.08 1243.75 1778.23 1251.77 1778.23 1251.77 1778.8 1259.79 1778.8 1259.79 1779.95 1268.95 1779.95 1268.95 1780.53 1279.26 1781.1 1279.26 1781.68 1290.71 1781.68 1290.71 1782.25 1303.31 1782.83 1303.88 1783.4 1318.2 1783.4 1318.2 1783.98 1335.95 1784.55 1335.95 1785.13 1356.57 1785.13 1357.14 1785.7 1382.34 1785.7 1383.49 1786.85 1417.85 1786.85 1418.42 1787.43 1469.39 1787.43 1469.96 1788 1486" stroke="#0072BD" stroke-width="2.29167" stroke-linejoin="round" stroke-miterlimit="10" fill="none" fill-rule="evenodd"/><path d="M1790 1486 1790 1485.43 1790 1483.71 1790.58 1427.01 1791.16 1425.87 1791.74 1389.21 1791.74 1389.21 1792.32 1361.73 1792.9 1361.15 1793.48 1339.96 1793.48 1339.39 1794.06 1321.64 1794.06 1321.64 1795.21 1306.17 1795.21 1306.17 1795.79 1293 1795.79 1293 1796.95 1281.55 1796.95 1280.98 1797.53 1270.67 1798.11 1270.67 1798.69 1261.5 1798.69 1261.5 1799.27 1253.49 1799.85 1252.91 1800.43 1245.47 1800.43 1245.47 1801.01 1238.6 1801.59 1238.02 1802.17 1231.72 1802.17 1231.72 1802.75 1226 1802.75 1225.42 1803.9 1220.27 1803.9 1220.27 1804.48 1215.12 1804.48 1215.12 1805.64 1210.53 1805.64 1209.96 1806.22 1205.95 1806.8 1205.38 1807.38 1201.94 1807.38 1201.37 1807.96 1197.93 1808.54 1197.93 1809.12 1194.5 1809.12 1194.5 1809.7 1191.06 1810.28 1191.06 1810.86 1187.63 1810.86 1187.63 1811.44 1184.76 1811.44 1184.76 1812.6 1182.47 1812.6 1182.47 1813.17 1180.18 1813.17 1179.61 1814.33 1177.89 1814.33 1177.89 1814.91 1175.6 1815.49 1175.6 1816.07 1173.88 1816.07 1173.31 1816.65 1171.59 1817.23 1171.59 1817.81 1170.44 1817.81 1170.44 1818.39 1169.3 1818.39 1169.3 1819.55 1167.58 1819.55 1167.58 1820.13 1166.44 1820.13 1166.44 1821.29 1165.86 1821.29 1165.86 1821.87 1164.72 1821.87 1164.72 1823.02 1164.15 1823.02 1164.15 1823.6 1164.15 1824.18 1164.15 1824.76 1163.57 1824.76 1163.57 1825.34 1163 1825.92 1163 1826.5 1163 1826.5 1163 1827.08 1163 1827.08 1163 1828.24 1163.57 1828.24 1163.57 1828.82 1164.15 1828.82 1164.15 1829.98 1164.15 1829.98 1164.15 1830.56 1164.72 1831.13 1164.72 1831.71 1165.86 1831.71 1165.86 1832.29 1166.44 1832.87 1166.44 1833.45 1167.58 1833.45 1167.58 1834.03 1169.3 1834.61 1169.3 1835.19 1170.44 1835.19 1170.44 1835.77 1171.59 1835.77 1171.59 1836.93 1173.31 1836.93 1173.88 1837.51 1175.6 1837.51 1175.6 1838.67 1177.89 1838.67 1177.89 1839.25 1179.61 1839.83 1180.18 1840.4 1182.47 1840.4 1182.47 1840.98 1184.76 1841.56 1184.76 1842.14 1187.63 1842.14 1187.63 1842.72 1191.06 1843.3 1191.06 1843.88 1194.5 1843.88 1194.5 1844.46 1197.93 1844.46 1197.93 1845.62 1201.37 1845.62 1201.94 1846.2 1205.38 1846.2 1205.95 1847.36 1209.96 1847.36 1210.53 1847.94 1215.12 1848.52 1215.12 1849.1 1220.27 1849.1 1220.27 1850.25 1225.42 1850.25 1226 1850.83 1231.72 1850.83 1231.72 1851.99 1238.02 1851.99 1238.6 1852.57 1245.47 1852.57 1245.47 1853.73 1252.91 1853.73 1253.49 1854.31 1261.5 1854.31 1261.5 1855.47 1270.67 1855.47 1270.67 1856.05 1280.98 1856.05 1281.55 1857.21 1293 1857.21 1293 1857.79 1306.17 1857.79 1306.17 1858.94 1321.64 1858.94 1321.64 1859.52 1339.39 1859.52 1339.96 1860.68 1361.15 1860.68 1361.73 1861.26 1389.21 1861.26 1389.21 1862.42 1425.87 1862.42 1427.01 1863 1483.71 1863 1485.43 1863 1486" stroke="#0072BD" stroke-width="2.29167" stroke-linejoin="round" stroke-miterlimit="10" fill="none" fill-rule="evenodd"/><path d="M1865 1486 1865 1469.96 1865 1469.39 1865.58 1418.42 1865.58 1417.85 1866.74 1383.49 1866.74 1382.34 1867.32 1357.14 1867.32 1356.57 1868.48 1335.95 1868.48 1335.95 1869.06 1318.2 1869.06 1318.2 1870.21 1303.88 1870.21 1303.31 1870.79 1290.71 1870.79 1290.71 1871.95 1279.26 1871.95 1279.26 1872.53 1268.95 1872.53 1268.95 1873.69 1259.79 1873.69 1259.79 1874.27 1251.77 1874.27 1251.77 1875.43 1243.75 1875.43 1243.75 1876.01 1236.88 1876.01 1236.88 1877.17 1230.58 1877.17 1230.58 1877.75 1224.85 1877.75 1224.85 1878.9 1219.12 1878.9 1219.12 1879.48 1213.97 1879.48 1213.97 1880.64 1209.39 1880.64 1209.39 1881.22 1204.81 1881.22 1204.81 1882.38 1200.8 1882.38 1200.8 1882.96 1197.36 1882.96 1196.79 1884.12 1193.35 1884.12 1193.35 1884.7 1190.49 1884.7 1189.92 1885.86 1187.63 1885.86 1187.63 1886.44 1184.76 1886.44 1184.19 1887.6 1181.9 1887.6 1181.9 1888.17 1179.61 1888.17 1179.61 1889.33 1177.32 1889.33 1177.32 1889.91 1175.03 1889.91 1175.03 1891.07 1173.31 1891.07 1173.31 1891.65 1171.59 1891.65 1171.59 1892.81 1169.87 1892.81 1169.87 1893.39 1168.73 1893.97 1168.73 1894.55 1167.58 1894.55 1167.58 1895.13 1166.44 1895.71 1166.44 1896.29 1165.86 1896.29 1165.86 1896.87 1164.72 1897.44 1164.72 1898.02 1164.15 1898.02 1164.15 1898.6 1163.57 1898.6 1163.57 1899.76 1163.57 1899.76 1163.57 1900.34 1163 1900.34 1163 1901.5 1163 1901.5 1163 1901.5 1163 1902.08 1163 1902.66 1163 1903.24 1163.57 1903.24 1163.57 1903.82 1164.15 1904.4 1164.15 1904.98 1164.15 1904.98 1164.15 1905.56 1165.29 1906.13 1165.29 1906.71 1165.86 1906.71 1165.86 1907.29 1167.01 1907.29 1167.01 1908.45 1168.15 1908.45 1168.15 1909.03 1169.3 1909.03 1169.3 1910.19 1171.02 1910.19 1171.02 1910.77 1172.16 1911.35 1172.16 1911.93 1173.88 1911.93 1173.88 1912.51 1176.17 1913.09 1176.17 1913.67 1177.89 1913.67 1177.89 1914.25 1180.18 1914.25 1180.18 1915.4 1183.04 1915.4 1183.04 1915.98 1185.33 1915.98 1185.91 1917.14 1188.2 1917.14 1188.2 1917.72 1191.63 1917.72 1191.63 1918.88 1195.07 1918.88 1195.07 1919.46 1198.51 1920.04 1198.51 1920.62 1202.52 1920.62 1202.52 1921.2 1206.52 1921.78 1206.52 1922.36 1211.11 1922.36 1211.11 1922.94 1216.26 1922.94 1216.26 1924.1 1221.41 1924.1 1221.41 1924.67 1226.57 1924.67 1227.14 1925.83 1232.87 1925.83 1232.87 1926.41 1239.74 1926.99 1239.74 1927.57 1246.61 1927.57 1247.19 1928.15 1254.63 1928.73 1255.2 1929.31 1263.22 1929.31 1263.22 1929.89 1272.96 1930.47 1272.96 1931.05 1283.84 1931.05 1283.84 1931.63 1295.29 1931.63 1295.87 1932.79 1309.04 1932.79 1309.61 1933.37 1324.5 1933.37 1325.07 1934.52 1343.4 1934.52 1343.97 1935.1 1366.31 1935.68 1366.88 1936.26 1395.51 1936.26 1395.51 1936.84 1435.6 1937.42 1436.18 1938 1486" stroke="#0072BD" stroke-width="2.29167" stroke-linejoin="round" stroke-miterlimit="10" fill="none" fill-rule="evenodd"/><path d="M1940 1486 1940 1457.94 1940 1457.37 1941.14 1410.4 1941.14 1409.26 1941.71 1377.76 1941.71 1377.19 1942.86 1352.56 1942.86 1351.99 1943.43 1331.94 1944 1331.94 1944.57 1315.34 1944.57 1315.34 1945.14 1301.02 1945.71 1300.45 1946.29 1288.42 1946.29 1288.42 1946.86 1276.97 1947.43 1276.97 1948 1267.23 1948 1267.23 1948.57 1258.07 1948.57 1258.07 1949.71 1250.05 1949.71 1250.05 1950.29 1242.6 1950.29 1242.6 1951.43 1235.73 1951.43 1235.73 1952 1229.43 1952.57 1228.86 1953.14 1223.71 1953.14 1223.71 1953.71 1217.98 1954.29 1217.98 1954.86 1213.4 1954.86 1213.4 1955.43 1208.24 1955.43 1208.24 1956.57 1204.23 1956.57 1204.23 1957.14 1200.23 1957.14 1200.23 1958.29 1196.22 1958.29 1196.22 1958.86 1192.78 1958.86 1192.78 1960 1189.92 1960 1189.92 1960.57 1186.48 1961.14 1186.48 1961.71 1183.62 1961.71 1183.62 1962.29 1181.33 1962.86 1181.33 1963.43 1179.04 1963.43 1179.04 1964 1176.74 1964 1176.74 1965.14 1175.03 1965.14 1174.45 1965.71 1172.74 1965.71 1172.74 1966.86 1171.02 1966.86 1171.02 1967.43 1169.87 1968 1169.87 1968.57 1168.15 1968.57 1168.15 1969.14 1167.58 1969.71 1167.58 1970.29 1166.44 1970.29 1166.44 1970.86 1165.29 1971.43 1165.29 1972 1164.72 1972 1164.72 1972.57 1164.15 1972.57 1164.15 1973.71 1163.57 1973.71 1163.57 1974.29 1163.57 1974.29 1163.57 1975.43 1163 1975.43 1163 1976 1163 1976 1163 1976.57 1163 1977.14 1163 1977.14 1163 1977.71 1163.57 1978.29 1163.57 1978.86 1164.15 1978.86 1164.15 1979.43 1164.72 1980 1164.72 1980.57 1165.29 1980.57 1165.29 1981.14 1165.86 1981.14 1165.86 1982.29 1167.01 1982.29 1167.01 1982.86 1168.15 1982.86 1168.15 1984 1169.3 1984 1169.3 1984.57 1171.02 1985.14 1171.02 1985.71 1172.74 1985.71 1172.74 1986.29 1174.45 1986.86 1174.45 1987.43 1176.17 1987.43 1176.17 1988 1178.46 1988.57 1178.46 1989.14 1180.75 1989.14 1180.75 1989.71 1183.04 1989.71 1183.62 1990.86 1185.91 1990.86 1185.91 1991.43 1189.34 1991.43 1189.34 1992.57 1192.21 1992.57 1192.21 1993.14 1195.64 1993.71 1195.64 1994.29 1199.08 1994.29 1199.65 1994.86 1203.09 1995.43 1203.09 1996 1207.67 1996 1207.67 1996.57 1212.25 1997.14 1212.25 1997.71 1216.83 1997.71 1216.83 1998.29 1221.99 1998.29 1222.56 1999.43 1228.29 1999.43 1228.29 2000 1234.01 2000 1234.01 2001.14 1240.89 2001.14 1240.89 2001.71 1248.33 2002.29 1248.33 2002.86 1256.35 2002.86 1256.35 2003.43 1264.94 2004 1265.51 2004.57 1274.68 2004.57 1275.25 2005.14 1285.56 2005.14 1286.13 2006.29 1298.16 2006.29 1298.16 2006.86 1311.9 2006.86 1312.47 2008 1328.51 2008 1328.51 2008.57 1347.41 2008.57 1347.98 2009.71 1371.46 2009.71 1372.03 2010.29 1402.39 2010.86 1402.96 2011.43 1445.34 2011.43 1446.48 2012 1486" stroke="#0072BD" stroke-width="2.29167" stroke-linejoin="round" stroke-miterlimit="10" fill="none" fill-rule="evenodd"/><path d="M2014 1486 2014.58 1446.48 2014.58 1445.34 2015.74 1402.96 2015.74 1402.39 2016.32 1372.03 2016.32 1371.46 2017.48 1347.98 2017.48 1347.41 2018.06 1328.51 2018.06 1328.51 2019.21 1312.47 2019.21 1311.9 2019.79 1298.16 2019.79 1298.16 2020.95 1286.13 2020.95 1285.56 2021.53 1275.25 2021.53 1274.68 2022.69 1265.51 2022.69 1264.94 2023.27 1256.35 2023.27 1256.35 2024.43 1248.33 2024.43 1248.33 2025.01 1240.89 2025.01 1240.89 2026.17 1234.01 2026.17 1234.01 2026.75 1228.29 2026.75 1228.29 2027.9 1222.56 2027.9 1221.99 2028.48 1216.83 2028.48 1216.83 2029.64 1212.25 2029.64 1212.25 2030.22 1207.67 2030.22 1207.67 2031.38 1203.09 2031.38 1203.09 2031.96 1199.65 2031.96 1199.08 2033.12 1195.64 2033.12 1195.64 2033.7 1192.21 2033.7 1192.21 2034.86 1189.34 2034.86 1189.34 2035.44 1185.91 2035.44 1185.91 2036.6 1183.62 2036.6 1183.04 2037.17 1180.75 2037.17 1180.75 2038.33 1178.46 2038.33 1178.46 2038.91 1176.17 2038.91 1176.17 2040.07 1174.45 2040.07 1174.45 2040.65 1172.74 2040.65 1172.74 2041.81 1171.02 2041.81 1171.02 2042.39 1169.3 2042.39 1169.3 2043.55 1168.15 2043.55 1168.15 2044.13 1167.01 2044.13 1167.01 2045.29 1165.86 2045.29 1165.86 2045.86 1165.29 2045.86 1165.29 2047.02 1164.72 2047.02 1164.72 2047.6 1164.15 2047.6 1164.15 2048.76 1163.57 2048.76 1163.57 2049.34 1163 2049.34 1163 2050.5 1163 2050.5 1163 2050.5 1163 2051.08 1163 2051.08 1163 2052.24 1163.57 2052.24 1163.57 2052.82 1163.57 2052.82 1163.57 2053.98 1164.15 2053.98 1164.15 2054.56 1164.72 2054.56 1164.72 2055.71 1165.29 2055.71 1165.29 2056.29 1166.44 2056.87 1166.44 2057.45 1167.58 2057.45 1167.58 2058.03 1168.15 2058.61 1168.15 2059.19 1169.87 2059.19 1169.87 2059.77 1171.02 2059.77 1171.02 2060.93 1172.74 2060.93 1172.74 2061.51 1174.45 2061.51 1175.03 2062.67 1176.74 2062.67 1176.74 2063.25 1179.04 2063.83 1179.04 2064.4 1181.33 2064.4 1181.33 2064.98 1183.62 2065.56 1183.62 2066.14 1186.48 2066.14 1186.48 2066.72 1189.92 2067.3 1189.92 2067.88 1192.78 2067.88 1192.78 2068.46 1196.22 2068.46 1196.22 2069.62 1200.23 2069.62 1200.23 2070.2 1204.23 2070.2 1204.23 2071.36 1208.24 2071.36 1208.24 2071.94 1213.4 2072.52 1213.4 2073.1 1217.98 2073.1 1217.98 2073.67 1223.71 2074.25 1223.71 2074.83 1228.86 2074.83 1229.43 2075.41 1235.73 2075.99 1235.73 2076.57 1242.6 2076.57 1242.6 2077.15 1250.05 2077.15 1250.05 2078.31 1258.07 2078.31 1258.07 2078.89 1267.23 2078.89 1267.23 2080.05 1276.97 2080.05 1276.97 2080.63 1288.42 2081.21 1288.42 2081.79 1300.45 2081.79 1301.02 2082.36 1315.34 2082.94 1315.34 2083.52 1331.94 2083.52 1331.94 2084.1 1351.99 2084.68 1352.56 2085.26 1377.19 2085.26 1377.76 2085.84 1409.26 2085.84 1410.4 2087 1457.37 2087 1457.94 2087 1486" stroke="#0072BD" stroke-width="2.29167" stroke-linejoin="round" stroke-miterlimit="10" fill="none" fill-rule="evenodd"/><path d="M2089 1486 2089.58 1436.18 2089.58 1435.6 2090.16 1395.51 2090.74 1395.51 2091.32 1366.88 2091.32 1366.31 2091.9 1343.97 2092.48 1343.4 2093.06 1325.07 2093.06 1324.5 2093.64 1309.61 2093.64 1309.04 2094.79 1295.87 2094.79 1295.29 2095.37 1283.84 2095.37 1283.84 2096.53 1272.96 2096.53 1272.96 2097.11 1263.22 2097.69 1263.22 2098.27 1255.2 2098.27 1254.63 2098.85 1247.19 2099.43 1246.61 2100.01 1239.74 2100.01 1239.74 2100.59 1232.87 2100.59 1232.87 2101.75 1227.14 2101.75 1226.57 2102.33 1221.41 2102.33 1221.41 2103.48 1216.26 2103.48 1216.26 2104.06 1211.11 2104.06 1211.11 2105.22 1206.52 2105.22 1206.52 2105.8 1202.52 2106.38 1202.52 2106.96 1198.51 2106.96 1198.51 2107.54 1195.07 2108.12 1195.07 2108.7 1191.63 2108.7 1191.63 2109.28 1188.2 2109.28 1188.2 2110.44 1185.91 2110.44 1185.33 2111.02 1183.04 2111.02 1183.04 2112.17 1180.18 2112.17 1180.18 2112.75 1177.89 2113.33 1177.89 2113.91 1176.17 2113.91 1176.17 2114.49 1173.88 2115.07 1173.88 2115.65 1172.16 2115.65 1172.16 2116.23 1171.02 2116.81 1171.02 2117.39 1169.3 2117.39 1169.3 2117.97 1168.15 2117.97 1168.15 2119.13 1167.01 2119.13 1167.01 2119.71 1165.86 2119.71 1165.86 2120.86 1165.29 2120.86 1165.29 2121.44 1164.15 2122.02 1164.15 2122.6 1164.15 2122.6 1164.15 2123.18 1163.57 2123.76 1163.57 2124.34 1163 2124.34 1163 2124.92 1163 2125.5 1163 2125.5 1163 2126.08 1163 2126.08 1163 2126.66 1163.57 2126.66 1163.57 2127.82 1163.57 2127.82 1163.57 2128.4 1164.15 2128.4 1164.15 2129.56 1164.72 2129.56 1164.72 2130.13 1165.86 2130.71 1165.86 2131.29 1166.44 2131.29 1166.44 2131.87 1167.58 2132.45 1167.58 2133.03 1168.73 2133.03 1168.73 2133.61 1169.87 2134.19 1169.87 2134.77 1171.59 2134.77 1171.59 2135.35 1173.31 2135.35 1173.31 2136.51 1175.03 2136.51 1175.03 2137.09 1177.32 2137.09 1177.32 2138.25 1179.61 2138.25 1179.61 2138.83 1181.9 2139.4 1181.9 2139.98 1184.19 2139.98 1184.76 2140.56 1187.63 2141.14 1187.63 2141.72 1189.92 2141.72 1190.49 2142.3 1193.35 2142.88 1193.35 2143.46 1196.79 2143.46 1197.36 2144.04 1200.8 2144.04 1200.8 2145.2 1204.81 2145.2 1204.81 2145.78 1209.39 2145.78 1209.39 2146.94 1213.97 2146.94 1213.97 2147.52 1219.12 2148.1 1219.12 2148.67 1224.85 2148.67 1224.85 2149.25 1230.58 2149.83 1230.58 2150.41 1236.88 2150.41 1236.88 2150.99 1243.75 2150.99 1243.75 2152.15 1251.77 2152.15 1251.77 2152.73 1259.79 2152.73 1259.79 2153.89 1268.95 2153.89 1268.95 2154.47 1279.26 2155.05 1279.26 2155.63 1290.71 2155.63 1290.71 2156.21 1303.31 2156.79 1303.88 2157.36 1318.2 2157.36 1318.2 2157.94 1335.95 2158.52 1335.95 2159.1 1356.57 2159.1 1357.14 2159.68 1382.34 2159.68 1383.49 2160.84 1417.85 2160.84 1418.42 2161.42 1469.39 2161.42 1469.96 2162 1486" stroke="#0072BD" stroke-width="2.29167" stroke-linejoin="round" stroke-miterlimit="10" fill="none" fill-rule="evenodd"/><path d="M2164 1486 2164 1485.43 2164 1483.71 2164.57 1427.01 2165.15 1425.87 2165.72 1389.21 2165.72 1389.21 2166.3 1361.73 2166.87 1361.15 2167.45 1339.96 2167.45 1339.39 2168.02 1321.64 2168.02 1321.64 2169.17 1306.17 2169.17 1306.17 2169.75 1293 2169.75 1293 2170.9 1281.55 2170.9 1280.98 2171.47 1270.67 2172.05 1270.67 2172.62 1261.5 2172.62 1261.5 2173.2 1253.49 2173.77 1252.91 2174.35 1245.47 2174.35 1245.47 2175.5 1238.6 2175.5 1238.02 2176.07 1231.72 2176.07 1231.72 2177.22 1226 2177.22 1225.42 2177.8 1220.27 2177.8 1220.27 2178.94 1215.12 2178.94 1215.12 2179.52 1210.53 2179.52 1209.96 2180.67 1205.95 2180.67 1205.38 2181.24 1201.94 2181.24 1201.37 2182.39 1197.93 2182.39 1197.93 2182.97 1194.5 2182.97 1194.5 2184.12 1191.06 2184.12 1191.06 2184.69 1187.63 2184.69 1187.63 2185.84 1184.76 2185.84 1184.76 2186.42 1182.47 2186.42 1182.47 2187.57 1180.18 2187.57 1179.61 2188.14 1177.89 2188.14 1177.89 2189.29 1175.6 2189.29 1175.6 2189.87 1173.88 2189.87 1173.31 2191.02 1171.59 2191.02 1171.59 2191.59 1170.44 2191.59 1170.44 2192.74 1169.3 2192.74 1169.3 2193.31 1167.58 2193.31 1167.58 2194.46 1166.44 2194.46 1166.44 2195.04 1165.86 2195.04 1165.86 2196.19 1164.72 2196.19 1164.72 2196.76 1164.15 2196.76 1164.15 2197.91 1164.15 2197.91 1164.15 2198.49 1163.57 2198.49 1163.57 2199.64 1163 2199.64 1163 2200.21 1163 2200.21 1163 2201.36 1163 2201.36 1163 2201.94 1163.57 2201.94 1163.57 2203.09 1164.15 2203.09 1164.15 2203.66 1164.15 2203.66 1164.15 2204.81 1164.72 2204.81 1164.72 2205.39 1165.86 2205.39 1165.86 2206.54 1166.44 2206.54 1166.44 2207.11 1167.58 2207.11 1167.58 2208.26 1169.3 2208.26 1169.3 2208.83 1170.44 2208.83 1170.44 2209.98 1171.59 2209.98 1171.59 2210.56 1173.31 2210.56 1173.88 2211.71 1175.6 2211.71 1175.6 2212.28 1177.89 2212.28 1177.89 2213.43 1179.61 2213.43 1180.18 2214.01 1182.47 2214.01 1182.47 2215.16 1184.76 2215.16 1184.76 2215.73 1187.63 2215.73 1187.63 2216.88 1191.06 2216.88 1191.06 2217.46 1194.5 2218.03 1194.5 2218.61 1197.93 2218.61 1197.93 2219.18 1201.37 2219.76 1201.94 2220.33 1205.38 2220.33 1205.95 2220.91 1209.96 2221.48 1210.53 2222.06 1215.12 2222.06 1215.12 2222.63 1220.27 2222.63 1220.27 2223.78 1225.42 2223.78 1226 2224.35 1231.72 2224.35 1231.72 2225.5 1238.02 2225.5 1238.6 2226.08 1245.47 2226.65 1245.47 2227.23 1252.91 2227.23 1253.49 2227.8 1261.5 2228.38 1261.5 2228.95 1270.67 2228.95 1270.67 2229.53 1280.98 2230.1 1281.55 2230.68 1293 2230.68 1293 2231.25 1306.17 2231.25 1306.17 2232.4 1321.64 2232.4 1321.64 2232.98 1339.39 2232.98 1339.96 2234.13 1361.15 2234.13 1361.73 2234.7 1389.21 2235.28 1389.21 2235.85 1425.87 2235.85 1427.01 2236.43 1483.71 2237 1485.43 2237 1486" stroke="#0072BD" stroke-width="2.29167" stroke-linejoin="round" stroke-miterlimit="10" fill="none" fill-rule="evenodd"/><path d="M2239 1486 2239 1469.96 2239 1469.39 2239.57 1418.42 2239.57 1417.85 2240.71 1383.49 2240.71 1382.34 2241.29 1357.14 2241.29 1356.57 2242.43 1335.95 2242.43 1335.95 2243 1318.2 2243.57 1318.2 2244.14 1303.88 2244.14 1303.31 2244.71 1290.71 2245.29 1290.71 2245.86 1279.26 2245.86 1279.26 2246.43 1268.95 2246.43 1268.95 2247.57 1259.79 2247.57 1259.79 2248.14 1251.77 2248.14 1251.77 2249.29 1243.75 2249.29 1243.75 2249.86 1236.88 2250.43 1236.88 2251 1230.58 2251 1230.58 2251.57 1224.85 2252.14 1224.85 2252.71 1219.12 2252.71 1219.12 2253.29 1213.97 2253.86 1213.97 2254.43 1209.39 2254.43 1209.39 2255 1204.81 2255 1204.81 2256.14 1200.8 2256.14 1200.8 2256.71 1197.36 2256.71 1196.79 2257.86 1193.35 2257.86 1193.35 2258.43 1190.49 2259 1189.92 2259.57 1187.63 2259.57 1187.63 2260.14 1184.76 2260.71 1184.19 2261.29 1181.9 2261.29 1181.9 2261.86 1179.61 2262.43 1179.61 2263 1177.32 2263 1177.32 2263.57 1175.03 2263.57 1175.03 2264.71 1173.31 2264.71 1173.31 2265.29 1171.59 2265.29 1171.59 2266.43 1169.87 2266.43 1169.87 2267 1168.73 2267.57 1168.73 2268.14 1167.58 2268.14 1167.58 2268.71 1166.44 2269.29 1166.44 2269.86 1165.86 2269.86 1165.86 2270.43 1164.72 2271 1164.72 2271.57 1164.15 2271.57 1164.15 2272.14 1163.57 2272.14 1163.57 2273.29 1163.57 2273.29 1163.57 2273.86 1163 2273.86 1163 2275 1163 2275 1163 2275 1163 2275.57 1163 2276.14 1163 2276.71 1163.57 2276.71 1163.57 2277.29 1164.15 2277.86 1164.15 2278.43 1164.15 2278.43 1164.15 2279 1165.29 2279.57 1165.29 2280.14 1165.86 2280.14 1165.86 2280.71 1167.01 2280.71 1167.01 2281.86 1168.15 2281.86 1168.15 2282.43 1169.3 2282.43 1169.3 2283.57 1171.02 2283.57 1171.02 2284.14 1172.16 2284.71 1172.16 2285.29 1173.88 2285.29 1173.88 2285.86 1176.17 2286.43 1176.17 2287 1177.89 2287 1177.89 2287.57 1180.18 2287.57 1180.18 2288.71 1183.04 2288.71 1183.04 2289.29 1185.33 2289.29 1185.91 2290.43 1188.2 2290.43 1188.2 2291 1191.63 2291 1191.63 2292.14 1195.07 2292.14 1195.07 2292.71 1198.51 2293.29 1198.51 2293.86 1202.52 2293.86 1202.52 2294.43 1206.52 2295 1206.52 2295.57 1211.11 2295.57 1211.11 2296.14 1216.26 2296.14 1216.26 2297.29 1221.41 2297.29 1221.41 2297.86 1226.57 2297.86 1227.14 2299 1232.87 2299 1232.87 2299.57 1239.74 2300.14 1239.74 2300.71 1246.61 2300.71 1247.19 2301.29 1254.63 2301.86 1255.2 2302.43 1263.22 2302.43 1263.22 2303 1272.96 2303.57 1272.96 2304.14 1283.84 2304.14 1283.84 2304.71 1295.29 2304.71 1295.87 2305.86 1309.04 2305.86 1309.61 2306.43 1324.5 2306.43 1325.07 2307.57 1343.4 2307.57 1343.97 2308.14 1366.31 2308.71 1366.88 2309.29 1395.51 2309.29 1395.51 2309.86 1435.6 2310.43 1436.18 2311 1486" stroke="#0072BD" stroke-width="2.29167" stroke-linejoin="round" stroke-miterlimit="10" fill="none" fill-rule="evenodd"/><path d="M2313 1486 2313 1457.94 2313 1457.37 2314.16 1410.4 2314.16 1409.26 2314.74 1377.76 2314.74 1377.19 2315.9 1352.56 2315.9 1351.99 2316.48 1331.94 2317.06 1331.94 2317.64 1315.34 2317.64 1315.34 2318.21 1301.02 2318.79 1300.45 2319.37 1288.42 2319.37 1288.42 2319.95 1276.97 2320.53 1276.97 2321.11 1267.23 2321.11 1267.23 2321.69 1258.07 2321.69 1258.07 2322.85 1250.05 2322.85 1250.05 2323.43 1242.6 2323.43 1242.6 2324.59 1235.73 2324.59 1235.73 2325.17 1229.43 2325.75 1228.86 2326.33 1223.71 2326.33 1223.71 2326.9 1217.98 2327.48 1217.98 2328.06 1213.4 2328.06 1213.4 2328.64 1208.24 2328.64 1208.24 2329.8 1204.23 2329.8 1204.23 2330.38 1200.23 2330.38 1200.23 2331.54 1196.22 2331.54 1196.22 2332.12 1192.78 2332.12 1192.78 2333.28 1189.92 2333.28 1189.92 2333.86 1186.48 2334.44 1186.48 2335.02 1183.62 2335.02 1183.62 2336.17 1181.33 2336.17 1181.33 2336.75 1179.04 2336.75 1179.04 2337.91 1176.74 2337.91 1176.74 2338.49 1175.03 2338.49 1174.45 2339.65 1172.74 2339.65 1172.74 2340.23 1171.02 2340.23 1171.02 2341.39 1169.87 2341.39 1169.87 2341.97 1168.15 2341.97 1168.15 2343.13 1167.58 2343.13 1167.58 2343.71 1166.44 2343.71 1166.44 2344.86 1165.29 2344.86 1165.29 2345.44 1164.72 2345.44 1164.72 2346.6 1164.15 2346.6 1164.15 2347.18 1163.57 2347.18 1163.57 2348.34 1163.57 2348.34 1163.57 2348.92 1163 2348.92 1163 2349.5 1163 2350.08 1163 2350.08 1163 2350.66 1163 2350.66 1163 2351.82 1163.57 2351.82 1163.57 2352.4 1164.15 2352.4 1164.15 2353.56 1164.72 2353.56 1164.72 2354.13 1165.29 2354.13 1165.29 2355.29 1165.86 2355.29 1165.86 2355.87 1167.01 2355.87 1167.01 2357.03 1168.15 2357.03 1168.15 2357.61 1169.3 2357.61 1169.3 2358.77 1171.02 2358.77 1171.02 2359.35 1172.74 2359.35 1172.74 2360.51 1174.45 2360.51 1174.45 2361.09 1176.17 2361.09 1176.17 2362.25 1178.46 2362.25 1178.46 2362.83 1180.75 2362.83 1180.75 2363.98 1183.04 2363.98 1183.62 2364.56 1185.91 2364.56 1185.91 2365.72 1189.34 2365.72 1189.34 2366.3 1192.21 2366.3 1192.21 2367.46 1195.64 2367.46 1195.64 2368.04 1199.08 2368.04 1199.65 2369.2 1203.09 2369.2 1203.09 2369.78 1207.67 2369.78 1207.67 2370.94 1212.25 2370.94 1212.25 2371.52 1216.83 2371.52 1216.83 2372.67 1221.99 2372.67 1222.56 2373.25 1228.29 2373.25 1228.29 2374.41 1234.01 2374.41 1234.01 2374.99 1240.89 2374.99 1240.89 2376.15 1248.33 2376.15 1248.33 2376.73 1256.35 2376.73 1256.35 2377.89 1264.94 2377.89 1265.51 2378.47 1274.68 2378.47 1275.25 2379.63 1285.56 2379.63 1286.13 2380.21 1298.16 2380.79 1298.16 2381.36 1311.9 2381.36 1312.47 2381.94 1328.51 2382.52 1328.51 2383.1 1347.41 2383.1 1347.98 2383.68 1371.46 2383.68 1372.03 2384.84 1402.39 2384.84 1402.96 2385.42 1445.34 2385.42 1446.48 2386 1486" stroke="#0072BD" stroke-width="2.29167" stroke-linejoin="round" stroke-miterlimit="10" fill="none" fill-rule="evenodd"/><path d="M2388 1486 2388.57 1446.48 2389.15 1445.34 2389.72 1402.96 2389.72 1402.39 2390.3 1372.03 2390.87 1371.46 2391.45 1347.98 2391.45 1347.41 2392.02 1328.51 2392.02 1328.51 2393.17 1312.47 2393.17 1311.9 2393.75 1298.16 2393.75 1298.16 2394.9 1286.13 2394.9 1285.56 2395.47 1275.25 2396.05 1274.68 2396.62 1265.51 2396.62 1264.94 2397.2 1256.35 2397.77 1256.35 2398.35 1248.33 2398.35 1248.33 2398.92 1240.89 2399.5 1240.89 2400.07 1234.01 2400.07 1234.01 2400.65 1228.29 2400.65 1228.29 2401.8 1222.56 2401.8 1221.99 2402.37 1216.83 2402.37 1216.83 2403.52 1212.25 2403.52 1212.25 2404.09 1207.67 2404.67 1207.67 2405.24 1203.09 2405.24 1203.09 2405.82 1199.65 2406.39 1199.08 2406.97 1195.64 2406.97 1195.64 2407.54 1192.21 2408.12 1192.21 2408.69 1189.34 2408.69 1189.34 2409.27 1185.91 2409.27 1185.91 2410.42 1183.62 2410.42 1183.04 2410.99 1180.75 2410.99 1180.75 2412.14 1178.46 2412.14 1178.46 2412.72 1176.17 2413.29 1176.17 2413.87 1174.45 2413.87 1174.45 2414.44 1172.74 2415.02 1172.74 2415.59 1171.02 2415.59 1171.02 2416.17 1169.3 2416.74 1169.3 2417.31 1168.15 2417.31 1168.15 2417.89 1167.01 2417.89 1167.01 2419.04 1165.86 2419.04 1165.86 2419.61 1165.29 2419.61 1165.29 2420.76 1164.72 2420.76 1164.72 2421.34 1164.15 2421.91 1164.15 2422.49 1163.57 2422.49 1163.57 2423.06 1163 2423.64 1163 2424.21 1163 2424.21 1163 2424.79 1163 2424.79 1163 2424.79 1163 2425.94 1163.57 2425.94 1163.57 2426.51 1163.57 2426.51 1163.57 2427.66 1164.15 2427.66 1164.15 2428.24 1164.72 2428.24 1164.72 2429.39 1165.29 2429.39 1165.29 2429.96 1166.44 2430.54 1166.44 2431.11 1167.58 2431.11 1167.58 2431.69 1168.15 2432.26 1168.15 2432.83 1169.87 2432.83 1169.87 2433.41 1171.02 2433.41 1171.02 2434.56 1172.74 2434.56 1172.74 2435.13 1174.45 2435.13 1175.03 2436.28 1176.74 2436.28 1176.74 2436.86 1179.04 2437.43 1179.04 2438.01 1181.33 2438.01 1181.33 2438.58 1183.62 2439.16 1183.62 2439.73 1186.48 2439.73 1186.48 2440.31 1189.92 2440.88 1189.92 2441.46 1192.78 2441.46 1192.78 2442.03 1196.22 2442.03 1196.22 2443.18 1200.23 2443.18 1200.23 2443.76 1204.23 2443.76 1204.23 2444.91 1208.24 2444.91 1208.24 2445.48 1213.4 2446.05 1213.4 2446.63 1217.98 2446.63 1217.98 2447.2 1223.71 2447.78 1223.71 2448.35 1228.86 2448.35 1229.43 2448.93 1235.73 2449.5 1235.73 2450.08 1242.6 2450.08 1242.6 2450.65 1250.05 2450.65 1250.05 2451.8 1258.07 2451.8 1258.07 2452.38 1267.23 2452.38 1267.23 2453.53 1276.97 2453.53 1276.97 2454.1 1288.42 2454.68 1288.42 2455.25 1300.45 2455.25 1301.02 2455.83 1315.34 2456.4 1315.34 2456.98 1331.94 2456.98 1331.94 2457.55 1351.99 2458.13 1352.56 2458.7 1377.19 2458.7 1377.76 2459.28 1409.26 2459.28 1410.4 2460.43 1457.37 2460.43 1457.94 2461 1486" stroke="#0072BD" stroke-width="2.29167" stroke-linejoin="round" stroke-miterlimit="10" fill="none" fill-rule="evenodd"/><path d="M2463 1486 2463.57 1436.18 2463.57 1435.6 2464.14 1395.51 2464.71 1395.51 2465.29 1366.88 2465.29 1366.31 2465.86 1343.97 2466.43 1343.4 2467 1325.07 2467 1324.5 2467.57 1309.61 2467.57 1309.04 2468.71 1295.87 2468.71 1295.29 2469.29 1283.84 2469.29 1283.84 2470.43 1272.96 2470.43 1272.96 2471 1263.22 2471.57 1263.22 2472.14 1255.2 2472.14 1254.63 2472.71 1247.19 2473.29 1246.61 2473.86 1239.74 2473.86 1239.74 2474.43 1232.87 2474.43 1232.87 2475.57 1227.14 2475.57 1226.57 2476.14 1221.41 2476.14 1221.41 2477.29 1216.26 2477.29 1216.26 2477.86 1211.11 2477.86 1211.11 2479 1206.52 2479 1206.52 2479.57 1202.52 2480.14 1202.52 2480.71 1198.51 2480.71 1198.51 2481.29 1195.07 2481.86 1195.07 2482.43 1191.63 2482.43 1191.63 2483 1188.2 2483 1188.2 2484.14 1185.91 2484.14 1185.33 2484.71 1183.04 2484.71 1183.04 2485.86 1180.18 2485.86 1180.18 2486.43 1177.89 2487 1177.89 2487.57 1176.17 2487.57 1176.17 2488.14 1173.88 2488.71 1173.88 2489.29 1172.16 2489.29 1172.16 2489.86 1171.02 2490.43 1171.02 2491 1169.3 2491 1169.3 2491.57 1168.15 2491.57 1168.15 2492.71 1167.01 2492.71 1167.01 2493.29 1165.86 2493.29 1165.86 2494.43 1165.29 2494.43 1165.29 2495 1164.15 2495.57 1164.15 2496.14 1164.15 2496.14 1164.15 2496.71 1163.57 2497.29 1163.57 2497.86 1163 2497.86 1163 2499 1163 2499 1163 2499 1163 2499.57 1163 2499.57 1163 2500.71 1163.57 2500.71 1163.57 2501.29 1163.57 2501.29 1163.57 2502.43 1164.15 2502.43 1164.15 2503 1164.72 2503 1164.72 2504.14 1165.86 2504.14 1165.86 2504.71 1166.44 2504.71 1166.44 2505.86 1167.58 2505.86 1167.58 2506.43 1168.73 2506.43 1168.73 2507.57 1169.87 2507.57 1169.87 2508.14 1171.59 2508.14 1171.59 2509.29 1173.31 2509.29 1173.31 2509.86 1175.03 2509.86 1175.03 2511 1177.32 2511 1177.32 2511.57 1179.61 2511.57 1179.61 2512.71 1181.9 2512.71 1181.9 2513.29 1184.19 2513.29 1184.76 2514.43 1187.63 2514.43 1187.63 2515 1189.92 2515 1190.49 2516.14 1193.35 2516.14 1193.35 2516.71 1196.79 2516.71 1197.36 2517.86 1200.8 2517.86 1200.8 2518.43 1204.81 2518.43 1204.81 2519.57 1209.39 2519.57 1209.39 2520.14 1213.97 2520.14 1213.97 2521.29 1219.12 2521.29 1219.12 2521.86 1224.85 2521.86 1224.85 2523 1230.58 2523 1230.58 2523.57 1236.88 2523.57 1236.88 2524.71 1243.75 2524.71 1243.75 2525.29 1251.77 2525.29 1251.77 2526.43 1259.79 2526.43 1259.79 2527 1268.95 2527 1268.95 2528.14 1279.26 2528.14 1279.26 2528.71 1290.71 2528.71 1290.71 2529.86 1303.31 2529.86 1303.88 2530.43 1318.2 2530.43 1318.2 2531.57 1335.95 2531.57 1335.95 2532.14 1356.57 2532.14 1357.14 2533.29 1382.34 2533.29 1383.49 2533.86 1417.85 2533.86 1418.42 2535 1469.39 2535 1469.96 2535 1486" stroke="#0072BD" stroke-width="2.29167" stroke-linejoin="round" stroke-miterlimit="10" fill="none" fill-rule="evenodd"/><path d="M2537 1486 2537 1485.43 2537 1483.71 2538.15 1427.01 2538.15 1425.87 2538.72 1389.21 2538.72 1389.21 2539.87 1361.73 2539.87 1361.15 2540.45 1339.96 2541.02 1339.39 2541.6 1321.64 2541.6 1321.64 2542.17 1306.17 2542.75 1306.17 2543.32 1293 2543.32 1293 2543.9 1281.55 2544.47 1280.98 2545.05 1270.67 2545.05 1270.67 2545.62 1261.5 2545.62 1261.5 2546.77 1253.49 2546.77 1252.91 2547.35 1245.47 2547.35 1245.47 2548.5 1238.6 2548.5 1238.02 2549.07 1231.72 2549.65 1231.72 2550.22 1226 2550.22 1225.42 2550.8 1220.27 2551.37 1220.27 2551.94 1215.12 2551.94 1215.12 2552.52 1210.53 2553.09 1209.96 2553.67 1205.95 2553.67 1205.38 2554.24 1201.94 2554.24 1201.37 2555.39 1197.93 2555.39 1197.93 2555.97 1194.5 2555.97 1194.5 2557.12 1191.06 2557.12 1191.06 2557.69 1187.63 2558.27 1187.63 2558.84 1184.76 2558.84 1184.76 2559.42 1182.47 2559.99 1182.47 2560.57 1180.18 2560.57 1179.61 2561.14 1177.89 2561.72 1177.89 2562.29 1175.6 2562.29 1175.6 2562.87 1173.88 2562.87 1173.31 2564.02 1171.59 2564.02 1171.59 2564.59 1170.44 2564.59 1170.44 2565.74 1169.3 2565.74 1169.3 2566.31 1167.58 2566.89 1167.58 2567.46 1166.44 2567.46 1166.44 2568.04 1165.86 2568.61 1165.86 2569.19 1164.72 2569.19 1164.72 2569.76 1164.15 2569.76 1164.15 2570.91 1164.15 2570.91 1164.15 2571.49 1163.57 2571.49 1163.57 2572.64 1163 2572.64 1163 2573.21 1163 2573.79 1163 2574.36 1163 2574.36 1163 2574.94 1163.57 2575.51 1163.57 2576.09 1164.15 2576.09 1164.15 2576.66 1164.15 2577.24 1164.15 2577.81 1164.72 2577.81 1164.72 2578.39 1165.86 2578.39 1165.86 2579.54 1166.44 2579.54 1166.44 2580.11 1167.58 2580.11 1167.58 2581.26 1169.3 2581.26 1169.3 2581.83 1170.44 2582.41 1170.44 2582.98 1171.59 2582.98 1171.59 2583.56 1173.31 2584.13 1173.88 2584.71 1175.6 2584.71 1175.6 2585.28 1177.89 2585.86 1177.89 2586.43 1179.61 2586.43 1180.18 2587.01 1182.47 2587.01 1182.47 2588.16 1184.76 2588.16 1184.76 2588.73 1187.63 2588.73 1187.63 2589.88 1191.06 2589.88 1191.06 2590.46 1194.5 2591.03 1194.5 2591.61 1197.93 2591.61 1197.93 2592.18 1201.37 2592.76 1201.94 2593.33 1205.38 2593.33 1205.95 2593.91 1209.96 2594.48 1210.53 2595.06 1215.12 2595.06 1215.12 2595.63 1220.27 2595.63 1220.27 2596.78 1225.42 2596.78 1226 2597.35 1231.72 2597.35 1231.72 2598.5 1238.02 2598.5 1238.6 2599.08 1245.47 2599.65 1245.47 2600.23 1252.91 2600.23 1253.49 2600.8 1261.5 2601.38 1261.5 2601.95 1270.67 2601.95 1270.67 2602.53 1280.98 2603.1 1281.55 2603.68 1293 2603.68 1293 2604.25 1306.17 2604.25 1306.17 2605.4 1321.64 2605.4 1321.64 2605.98 1339.39 2605.98 1339.96 2607.13 1361.15 2607.13 1361.73 2607.7 1389.21 2608.28 1389.21 2608.85 1425.87 2608.85 1427.01 2609.43 1483.71 2610 1485.43 2610 1486" stroke="#0072BD" stroke-width="2.29167" stroke-linejoin="round" stroke-miterlimit="10" fill="none" fill-rule="evenodd"/><path d="M2613 1486 2613 1469.96 2613 1469.39 2613.57 1418.42 2613.57 1417.85 2614.71 1383.49 2614.71 1382.34 2615.29 1357.14 2615.29 1356.57 2616.43 1335.95 2616.43 1335.95 2617 1318.2 2617.57 1318.2 2618.14 1303.88 2618.14 1303.31 2618.71 1290.71 2619.29 1290.71 2619.86 1279.26 2619.86 1279.26 2620.43 1268.95 2620.43 1268.95 2621.57 1259.79 2621.57 1259.79 2622.14 1251.77 2622.14 1251.77 2623.29 1243.75 2623.29 1243.75 2623.86 1236.88 2624.43 1236.88 2625 1230.58 2625 1230.58 2625.57 1224.85 2626.14 1224.85 2626.71 1219.12 2626.71 1219.12 2627.29 1213.97 2627.86 1213.97 2628.43 1209.39 2628.43 1209.39 2629 1204.81 2629 1204.81 2630.14 1200.8 2630.14 1200.8 2630.71 1197.36 2630.71 1196.79 2631.86 1193.35 2631.86 1193.35 2632.43 1190.49 2633 1189.92 2633.57 1187.63 2633.57 1187.63 2634.14 1184.76 2634.71 1184.19 2635.29 1181.9 2635.29 1181.9 2635.86 1179.61 2636.43 1179.61 2637 1177.32 2637 1177.32 2637.57 1175.03 2637.57 1175.03 2638.71 1173.31 2638.71 1173.31 2639.29 1171.59 2639.29 1171.59 2640.43 1169.87 2640.43 1169.87 2641 1168.73 2641.57 1168.73 2642.14 1167.58 2642.14 1167.58 2642.71 1166.44 2643.29 1166.44 2643.86 1165.86 2643.86 1165.86 2644.43 1164.72 2645 1164.72 2645.57 1164.15 2645.57 1164.15 2646.14 1163.57 2646.14 1163.57 2647.29 1163.57 2647.29 1163.57 2647.86 1163 2647.86 1163 2649 1163 2649 1163 2649 1163 2649.57 1163 2650.14 1163 2650.71 1163.57 2650.71 1163.57 2651.29 1164.15 2651.86 1164.15 2652.43 1164.15 2652.43 1164.15 2653 1165.29 2653.57 1165.29 2654.14 1165.86 2654.14 1165.86 2654.71 1167.01 2654.71 1167.01 2655.86 1168.15 2655.86 1168.15 2656.43 1169.3 2656.43 1169.3 2657.57 1171.02 2657.57 1171.02 2658.14 1172.16 2658.71 1172.16 2659.29 1173.88 2659.29 1173.88 2660.43 1176.17 2660.43 1176.17 2661 1177.89 2661 1177.89 2662.14 1180.18 2662.14 1180.18 2662.71 1183.04 2662.71 1183.04 2663.86 1185.33 2663.86 1185.91 2664.43 1188.2 2664.43 1188.2 2665.57 1191.63 2665.57 1191.63 2666.14 1195.07 2666.14 1195.07 2667.29 1198.51 2667.29 1198.51 2667.86 1202.52 2667.86 1202.52 2669 1206.52 2669 1206.52 2669.57 1211.11 2669.57 1211.11 2670.71 1216.26 2670.71 1216.26 2671.29 1221.41 2671.29 1221.41 2672.43 1226.57 2672.43 1227.14 2673 1232.87 2673 1232.87 2674.14 1239.74 2674.14 1239.74 2674.71 1246.61 2674.71 1247.19 2675.86 1254.63 2675.86 1255.2 2676.43 1263.22 2676.43 1263.22 2677.57 1272.96 2677.57 1272.96 2678.14 1283.84 2678.14 1283.84 2679.29 1295.29 2679.29 1295.87 2679.86 1309.04 2679.86 1309.61 2681 1324.5 2681 1325.07 2681.57 1343.4 2681.57 1343.97 2682.71 1366.31 2682.71 1366.88 2683.29 1395.51 2683.29 1395.51 2684.43 1435.6 2684.43 1436.18 2685 1486" stroke="#0072BD" stroke-width="2.29167" stroke-linejoin="round" stroke-miterlimit="10" fill="none" fill-rule="evenodd"/><path d="M2687 1486 2687.57 1457.94 2687.57 1457.37 2688.14 1410.4 2688.14 1409.26 2689.29 1377.76 2689.29 1377.19 2689.86 1352.56 2689.86 1351.99 2691 1331.94 2691 1331.94 2691.57 1315.34 2691.57 1315.34 2692.71 1301.02 2692.71 1300.45 2693.29 1288.42 2693.29 1288.42 2694.43 1276.97 2694.43 1276.97 2695 1267.23 2695 1267.23 2696.14 1258.07 2696.14 1258.07 2696.71 1250.05 2696.71 1250.05 2697.86 1242.6 2697.86 1242.6 2698.43 1235.73 2698.43 1235.73 2699.57 1229.43 2699.57 1228.86 2700.14 1223.71 2700.14 1223.71 2701.29 1217.98 2701.29 1217.98 2701.86 1213.4 2701.86 1213.4 2703 1208.24 2703 1208.24 2703.57 1204.23 2704.14 1204.23 2704.71 1200.23 2704.71 1200.23 2705.29 1196.22 2705.86 1196.22 2706.43 1192.78 2706.43 1192.78 2707 1189.92 2707 1189.92 2708.14 1186.48 2708.14 1186.48 2708.71 1183.62 2708.71 1183.62 2709.86 1181.33 2709.86 1181.33 2710.43 1179.04 2710.43 1179.04 2711.57 1176.74 2711.57 1176.74 2712.14 1175.03 2712.71 1174.45 2713.29 1172.74 2713.29 1172.74 2713.86 1171.02 2714.43 1171.02 2715 1169.87 2715 1169.87 2715.57 1168.15 2715.57 1168.15 2716.71 1167.58 2716.71 1167.58 2717.29 1166.44 2717.29 1166.44 2718.43 1165.29 2718.43 1165.29 2719 1164.72 2719.57 1164.72 2720.14 1164.15 2720.14 1164.15 2720.71 1163.57 2721.29 1163.57 2721.86 1163.57 2721.86 1163.57 2722.43 1163 2723 1163 2723 1163 2723.57 1163 2723.57 1163 2724.14 1163 2724.14 1163 2725.29 1163.57 2725.29 1163.57 2725.86 1164.15 2725.86 1164.15 2727 1164.72 2727 1164.72 2727.57 1165.29 2728.14 1165.29 2728.71 1165.86 2728.71 1165.86 2729.29 1167.01 2729.86 1167.01 2730.43 1168.15 2730.43 1168.15 2731 1169.3 2731.57 1169.3 2732.14 1171.02 2732.14 1171.02 2732.71 1172.74 2732.71 1172.74 2733.86 1174.45 2733.86 1174.45 2734.43 1176.17 2734.43 1176.17 2735.57 1178.46 2735.57 1178.46 2736.14 1180.75 2736.71 1180.75 2737.29 1183.04 2737.29 1183.62 2737.86 1185.91 2738.43 1185.91 2739 1189.34 2739 1189.34 2739.57 1192.21 2740.14 1192.21 2740.71 1195.64 2740.71 1195.64 2741.29 1199.08 2741.29 1199.65 2742.43 1203.09 2742.43 1203.09 2743 1207.67 2743 1207.67 2744.14 1212.25 2744.14 1212.25 2744.71 1216.83 2745.29 1216.83 2745.86 1221.99 2745.86 1222.56 2746.43 1228.29 2747 1228.29 2747.57 1234.01 2747.57 1234.01 2748.14 1240.89 2748.71 1240.89 2749.29 1248.33 2749.29 1248.33 2749.86 1256.35 2749.86 1256.35 2751 1264.94 2751 1265.51 2751.57 1274.68 2751.57 1275.25 2752.71 1285.56 2752.71 1286.13 2753.29 1298.16 2753.86 1298.16 2754.43 1311.9 2754.43 1312.47 2755 1328.51 2755.57 1328.51 2756.14 1347.41 2756.14 1347.98 2756.71 1371.46 2756.71 1372.03 2757.86 1402.39 2757.86 1402.96 2758.43 1445.34 2758.43 1446.48 2759 1486" stroke="#0072BD" stroke-width="2.29167" stroke-linejoin="round" stroke-miterlimit="10" fill="none" fill-rule="evenodd"/><path d="M2762 1486 2762 1446.48 2762.57 1445.34 2763.14 1402.96 2763.14 1402.39 2763.71 1372.03 2764.29 1371.46 2764.86 1347.98 2764.86 1347.41 2765.43 1328.51 2765.43 1328.51 2766.57 1312.47 2766.57 1311.9 2767.14 1298.16 2767.14 1298.16 2768.29 1286.13 2768.29 1285.56 2768.86 1275.25 2769.43 1274.68 2770 1265.51 2770 1264.94 2770.57 1256.35 2771.14 1256.35 2771.71 1248.33 2771.71 1248.33 2772.29 1240.89 2772.86 1240.89 2773.43 1234.01 2773.43 1234.01 2774 1228.29 2774 1228.29 2775.14 1222.56 2775.14 1221.99 2775.71 1216.83 2775.71 1216.83 2776.86 1212.25 2776.86 1212.25 2777.43 1207.67 2778 1207.67 2778.57 1203.09 2778.57 1203.09 2779.14 1199.65 2779.71 1199.08 2780.29 1195.64 2780.29 1195.64 2780.86 1192.21 2781.43 1192.21 2782 1189.34 2782 1189.34 2782.57 1185.91 2782.57 1185.91 2783.71 1183.62 2783.71 1183.04 2784.29 1180.75 2784.29 1180.75 2785.43 1178.46 2785.43 1178.46 2786 1176.17 2786.57 1176.17 2787.14 1174.45 2787.14 1174.45 2787.71 1172.74 2788.29 1172.74 2788.86 1171.02 2788.86 1171.02 2789.43 1169.3 2790 1169.3 2790.57 1168.15 2790.57 1168.15 2791.14 1167.01 2791.14 1167.01 2792.29 1165.86 2792.29 1165.86 2792.86 1165.29 2792.86 1165.29 2794 1164.72 2794 1164.72 2794.57 1164.15 2795.14 1164.15 2795.71 1163.57 2795.71 1163.57 2796.29 1163 2796.86 1163 2797.43 1163 2797.43 1163 2798 1163 2798 1163 2798 1163 2799.14 1163.57 2799.14 1163.57 2799.71 1163.57 2799.71 1163.57 2800.86 1164.15 2800.86 1164.15 2801.43 1164.72 2801.43 1164.72 2802.57 1165.29 2802.57 1165.29 2803.14 1166.44 2803.71 1166.44 2804.29 1167.58 2804.29 1167.58 2804.86 1168.15 2805.43 1168.15 2806 1169.87 2806 1169.87 2806.57 1171.02 2806.57 1171.02 2807.71 1172.74 2807.71 1172.74 2808.29 1174.45 2808.29 1175.03 2809.43 1176.74 2809.43 1176.74 2810 1179.04 2810.57 1179.04 2811.14 1181.33 2811.14 1181.33 2811.71 1183.62 2812.29 1183.62 2812.86 1186.48 2812.86 1186.48 2813.43 1189.92 2814 1189.92 2814.57 1192.78 2814.57 1192.78 2815.14 1196.22 2815.14 1196.22 2816.29 1200.23 2816.29 1200.23 2816.86 1204.23 2816.86 1204.23 2818 1208.24 2818 1208.24 2818.57 1213.4 2819.14 1213.4 2819.71 1217.98 2819.71 1217.98 2820.29 1223.71 2820.86 1223.71 2821.43 1228.86 2821.43 1229.43 2822.57 1235.73 2822.57 1235.73 2823.14 1242.6 2823.14 1242.6 2824.29 1250.05 2824.29 1250.05 2824.86 1258.07 2824.86 1258.07 2826 1267.23 2826 1267.23 2826.57 1276.97 2826.57 1276.97 2827.71 1288.42 2827.71 1288.42 2828.29 1300.45 2828.29 1301.02 2829.43 1315.34 2829.43 1315.34 2830 1331.94 2830 1331.94 2831.14 1351.99 2831.14 1352.56 2831.71 1377.19 2831.71 1377.76 2832.86 1409.26 2832.86 1410.4 2833.43 1457.37 2833.43 1457.94 2834 1486" stroke="#0072BD" stroke-width="2.29167" stroke-linejoin="round" stroke-miterlimit="10" fill="none" fill-rule="evenodd"/><path d="M2837 1486 2837.57 1436.18 2837.57 1435.6 2838.71 1395.51 2838.71 1395.51 2839.29 1366.88 2839.29 1366.31 2840.43 1343.97 2840.43 1343.4 2841 1325.07 2841 1324.5 2842.14 1309.61 2842.14 1309.04 2842.71 1295.87 2842.71 1295.29 2843.86 1283.84 2843.86 1283.84 2844.43 1272.96 2844.43 1272.96 2845.57 1263.22 2845.57 1263.22 2846.14 1255.2 2846.14 1254.63 2847.29 1247.19 2847.29 1246.61 2847.86 1239.74 2847.86 1239.74 2849 1232.87 2849 1232.87 2849.57 1227.14 2849.57 1226.57 2850.71 1221.41 2850.71 1221.41 2851.29 1216.26 2851.29 1216.26 2852.43 1211.11 2852.43 1211.11 2853 1206.52 2853 1206.52 2854.14 1202.52 2854.14 1202.52 2854.71 1198.51 2854.71 1198.51 2855.86 1195.07 2855.86 1195.07 2856.43 1191.63 2856.43 1191.63 2857.57 1188.2 2857.57 1188.2 2858.14 1185.91 2858.14 1185.33 2859.29 1183.04 2859.29 1183.04 2859.86 1180.18 2859.86 1180.18 2861 1177.89 2861 1177.89 2861.57 1176.17 2861.57 1176.17 2862.71 1173.88 2862.71 1173.88 2863.29 1172.16 2863.29 1172.16 2864.43 1171.02 2864.43 1171.02 2865 1169.3 2865.57 1169.3 2866.14 1168.15 2866.14 1168.15 2866.71 1167.01 2867.29 1167.01 2867.86 1165.86 2867.86 1165.86 2868.43 1165.29 2869 1165.29 2869.57 1164.15 2869.57 1164.15 2870.14 1164.15 2870.14 1164.15 2871.29 1163.57 2871.29 1163.57 2871.86 1163 2871.86 1163 2873 1163 2873 1163 2873 1163 2873.57 1163 2874.14 1163 2874.71 1163.57 2874.71 1163.57 2875.29 1163.57 2875.86 1163.57 2876.43 1164.15 2876.43 1164.15 2877 1164.72 2877.57 1164.72 2878.14 1165.86 2878.14 1165.86 2878.71 1166.44 2878.71 1166.44 2879.86 1167.58 2879.86 1167.58 2880.43 1168.73 2880.43 1168.73 2881.57 1169.87 2881.57 1169.87 2882.14 1171.59 2882.71 1171.59 2883.29 1173.31 2883.29 1173.31 2883.86 1175.03 2884.43 1175.03 2885 1177.32 2885 1177.32 2885.57 1179.61 2886.14 1179.61 2886.71 1181.9 2886.71 1181.9 2887.29 1184.19 2887.29 1184.76 2888.43 1187.63 2888.43 1187.63 2889 1189.92 2889 1190.49 2890.14 1193.35 2890.14 1193.35 2890.71 1196.79 2891.29 1197.36 2891.86 1200.8 2891.86 1200.8 2892.43 1204.81 2893 1204.81 2893.57 1209.39 2893.57 1209.39 2894.14 1213.97 2894.14 1213.97 2895.29 1219.12 2895.29 1219.12 2895.86 1224.85 2895.86 1224.85 2897 1230.58 2897 1230.58 2897.57 1236.88 2897.57 1236.88 2898.71 1243.75 2898.71 1243.75 2899.29 1251.77 2899.86 1251.77 2900.43 1259.79 2900.43 1259.79 2901 1268.95 2901.57 1268.95 2902.14 1279.26 2902.14 1279.26 2902.71 1290.71 2902.71 1290.71 2903.86 1303.31 2903.86 1303.88 2904.43 1318.2 2904.43 1318.2 2905.57 1335.95 2905.57 1335.95 2906.14 1356.57 2906.71 1357.14 2907.29 1382.34 2907.29 1383.49 2907.86 1417.85 2908.43 1418.42 2909 1469.39 2909 1469.96 2909 1486" stroke="#0072BD" stroke-width="2.29167" stroke-linejoin="round" stroke-miterlimit="10" fill="none" fill-rule="evenodd"/><path d="M2911 1486 2911 1485.43 2911 1483.71 2912.14 1427.01 2912.14 1425.87 2912.71 1389.21 2912.71 1389.21 2913.86 1361.73 2913.86 1361.15 2914.43 1339.96 2915 1339.39 2915.57 1321.64 2915.57 1321.64 2916.14 1306.17 2916.71 1306.17 2917.29 1293 2917.29 1293 2917.86 1281.55 2918.43 1280.98 2919 1270.67 2919 1270.67 2919.57 1261.5 2919.57 1261.5 2920.71 1253.49 2920.71 1252.91 2921.29 1245.47 2921.29 1245.47 2922.43 1238.6 2922.43 1238.02 2923 1231.72 2923.57 1231.72 2924.14 1226 2924.14 1225.42 2924.71 1220.27 2925.29 1220.27 2925.86 1215.12 2925.86 1215.12 2926.43 1210.53 2927 1209.96 2927.57 1205.95 2927.57 1205.38 2928.14 1201.94 2928.14 1201.37 2929.29 1197.93 2929.29 1197.93 2929.86 1194.5 2929.86 1194.5 2931 1191.06 2931 1191.06 2931.57 1187.63 2932.14 1187.63 2932.71 1184.76 2932.71 1184.76 2933.29 1182.47 2933.86 1182.47 2934.43 1180.18 2934.43 1179.61 2935 1177.89 2935.57 1177.89 2936.14 1175.6 2936.14 1175.6 2936.71 1173.88 2936.71 1173.31 2937.86 1171.59 2937.86 1171.59 2938.43 1170.44 2938.43 1170.44 2939.57 1169.3 2939.57 1169.3 2940.14 1167.58 2940.71 1167.58 2941.29 1166.44 2941.29 1166.44 2941.86 1165.86 2942.43 1165.86 2943 1164.72 2943 1164.72 2943.57 1164.15 2943.57 1164.15 2944.71 1164.15 2944.71 1164.15 2945.29 1163.57 2945.29 1163.57 2946.43 1163 2946.43 1163 2947 1163" stroke="#0072BD" stroke-width="2.29167" stroke-linejoin="round" stroke-miterlimit="10" fill="none" fill-rule="evenodd"/></g></svg>