<svg width="1546" height="195" xmlns="http://www.w3.org/2000/svg" xmlns:xlink="http://www.w3.org/1999/xlink" overflow="hidden"><defs><clipPath id="clip0"><rect x="1342" y="1333" width="1546" height="195"/></clipPath></defs><g clip-path="url(#clip0)" transform="translate(-1342 -1333)"><path d="M1343.5 1430.5 1343.5 1430.5 1344.07 1430.5 1344.07 1430.5 1344.65 1430.5 1345.22 1430.5 1345.22 1430.5 1345.79 1430.5 1345.79 1430.5 1346.36 1430.5 1346.36 1430.5 1346.94 1430.5 1346.94 1430.5 1347.51 1430.5 1348.08 1430.5 1348.08 1430.5 1348.66 1430.5 1348.66 1430.5 1349.23 1430.5 1349.23 1430.5 1349.8 1430.5 1350.38 1430.5 1350.38 1430.5 1350.95 1430.5 1350.95 1430.5 1351.52 1430.5 1352.09 1430.5 1352.09 1430.5 1352.67 1430.5 1352.67 1430.5 1353.24 1430.5 1353.81 1430.5 1353.81 1430.5 1354.39 1430.5 1354.39 1430.5 1354.96 1430.5 1354.96 1430.5 1355.53 1430.5 1355.53 1430.5 1356.11 1430.5 1356.11 1430.5 1356.68 1430.5 1357.25 1430.5 1357.25 1430.5 1357.82 1430.5 1357.82 1430.5 1358.4 1430.5 1358.97 1430.5 1358.97 1430.5 1359.54 1430.5 1359.54 1430.5 1360.12 1430.5 1360.69 1430.5 1360.69 1430.5 1361.26 1430.5 1361.26 1430.5 1361.83 1430.5 1362.41 1430.5 1362.41 1430.5 1362.98 1430.5 1362.98 1430.5 1363.55 1430.5 1363.55 1430.5 1364.13 1430.5 1364.13 1430.5 1364.7 1430.5 1364.7 1430.5 1365.27 1430.5 1365.85 1430.5 1365.85 1430.5 1366.42 1430.5 1366.42 1430.5 1366.99 1430.5 1367.56 1430.5 1367.56 1430.5 1368.14 1430.5 1368.14 1430.5 1368.71 1430.5 1369.28 1429.93 1369.28 1429.93 1369.86 1429.93 1369.86 1429.93 1370.43 1429.93 1370.43 1429.93 1371 1429.93 1371.58 1429.93 1371.58 1429.93 1372.15 1429.93 1372.15 1429.93 1372.72 1429.93 1372.72 1429.93 1373.29 1429.93 1373.87 1429.93 1373.87 1429.36 1374.44 1429.36 1374.44 1429.36 1375.01 1429.36 1375.59 1429.36 1375.59 1428.79 1376.16 1428.79 1376.16 1428.79 1376.73 1428.79 1377.3 1428.79 1377.3 1428.21 1377.88 1428.21 1377.88 1428.21 1378.45 1428.21 1378.45 1427.64 1379.02 1427.64 1379.02 1427.07 1379.6 1427.07 1380.17 1426.5 1380.17 1426.5 1380.74 1426.5 1380.74 1425.93 1381.32 1425.36 1381.32 1425.36 1381.89 1424.79 1382.46 1424.21 1382.46 1424.21 1383.03 1423.64 1383.03 1423.07 1383.61 1422.5 1384.18 1421.93 1384.18 1421.36 1384.75 1420.79 1384.75 1420.21 1385.33 1419.64 1385.9 1419.07 1385.9 1418.5 1386.47 1417.36 1386.47 1416.79 1387.05 1416.21 1387.05 1415.07 1387.62 1414.5 1387.62 1413.36 1388.19 1412.79 1388.19 1411.64 1388.76 1410.5 1389.34 1409.36 1389.34 1408.21 1389.91 1407.07 1389.91 1405.93 1390.48 1404.79 1391.06 1403.64 1391.06 1401.93 1391.63 1400.79 1391.63 1399.64 1392.2 1397.93 1392.78 1396.79 1392.78 1395.07 1393.35 1393.93 1393.35 1392.21 1393.92 1390.5 1394.49 1388.79 1394.49 1387.07 1395.07 1385.93 1395.07 1384.21 1395.64 1382.5 1395.64 1380.79 1396.21 1378.5 1396.21 1376.79 1396.79 1375.07 1396.79 1373.36 1397.36 1371.64 1397.93 1369.93 1397.93 1367.64 1398.5 1365.93 1398.5 1364.21 1399.08 1362.5 1399.65 1360.79 1399.65 1359.07 1400.22 1357.36 1400.22 1355.64 1400.8 1353.93 1401.37 1352.21 1401.37 1350.5 1401.94 1348.79 1401.94 1347.64 1402.52 1345.93 1402.52 1344.79 1403.09 1343.07 1403.66 1341.93 1403.66 1340.79 1404.23 1339.64 1404.23 1338.5 1404.81 1337.93 1404.81 1336.79 1405.38 1336.21 1405.38 1335.64 1405.95 1335.07 1406.53 1335.07 1406.53 1334.5 1407.1 1334.5 1407.1 1334.5 1407.67 1334.5 1408.25 1335.07 1408.25 1335.07 1408.82 1335.64 1408.82 1336.21 1409.39 1336.79 1409.96 1337.93 1409.96 1339.07 1410.54 1340.21 1410.54 1341.36 1411.11 1343.07 1411.11 1344.79 1411.68 1346.5 1411.68 1348.21 1412.26 1350.5 1412.83 1352.79 1412.83 1355.07 1413.4 1357.93 1413.4 1360.21 1413.97 1363.07 1413.97 1365.93 1414.55 1368.79 1415.12 1372.21 1415.12 1375.07 1415.69 1378.5 1415.69 1381.93 1416.27 1385.36 1416.84 1389.36 1416.84 1392.79 1417.41 1396.79 1417.99 1400.21 1417.99 1404.21 1418.56 1408.21 1418.56 1412.21 1419.13 1416.21 1419.13 1420.21 1419.7 1424.21 1419.7 1428.21 1420.28 1432.79 1420.28 1436.79 1420.85 1440.79 1421.42 1444.79 1421.42 1448.79 1422 1452.79 1422 1456.79 1422.57 1460.21 1423.14 1464.21 1423.14 1468.21 1423.72 1471.64 1423.72 1475.64 1424.29 1479.07 1424.86 1482.5 1424.86 1485.36 1425.43 1488.79 1425.43 1491.64 1426.01 1495.07 1426.58 1497.93 1426.58 1500.79 1427.15 1503.07 1427.15 1505.93 1427.73 1508.21 1427.73 1510.5 1428.3 1512.21 1428.3 1514.5 1428.87 1516.21 1428.87 1517.36 1429.44 1519.07 1430.02 1520.79 1430.02 1521.93 1430.59 1523.07 1430.59 1523.64 1431.16 1524.79 1431.74 1525.36 1431.74 1525.93 1432.31 1525.93 1432.31 1526.5 1432.88 1526.5 1433.46 1526.5 1433.46 1526.5 1434.03 1525.93 1434.03 1525.36 1434.6 1525.36 1434.6 1524.79 1435.17 1523.64 1435.75 1523.07 1435.75 1521.93 1436.32 1521.36 1436.32 1520.21 1436.89 1519.07 1436.89 1517.36 1437.47 1516.21 1437.47 1515.07 1438.04 1513.36 1438.61 1512.21 1438.61 1510.5 1439.19 1508.79 1439.19 1507.07 1439.76 1505.36 1440.33 1503.64 1440.33 1501.93 1440.9 1500.21 1440.9 1498.5 1441.48 1496.79 1442.05 1495.07 1442.05 1493.36 1442.62 1491.07 1442.62 1489.36 1443.2 1487.64 1443.2 1485.93 1443.77 1484.21 1443.77 1481.93 1444.34 1480.21 1444.92 1478.5 1444.92 1476.79 1445.49 1475.07 1445.49 1473.93 1446.06 1471.64 1446.06 1470.5 1446.63 1468.79 1447.21 1467.07 1447.21 1465.36 1447.78 1464.21 1447.78 1463.07 1448.35 1461.36 1448.93 1460.21 1448.93 1458.5 1449.5 1457.36 1449.5 1456.21 1450.07 1455.07 1450.64 1453.93 1450.64 1452.79 1451.22 1451.64 1451.22 1450.5 1451.79 1449.36 1451.79 1448.21 1452.36 1447.64 1452.36 1446.5 1452.94 1445.93 1452.94 1444.79 1453.51 1444.21 1454.08 1443.07 1454.08 1442.5 1454.66 1441.93 1454.66 1441.36 1455.23 1440.79 1455.8 1439.64 1455.8 1439.64 1456.37 1439.07 1456.37 1438.5 1456.95 1437.93 1457.52 1437.36 1457.52 1436.79 1458.09 1436.21 1458.09 1436.21 1458.67 1435.64 1459.24 1435.07 1459.24 1435.07 1459.81 1434.5 1459.81 1434.5 1460.39 1434.5 1460.39 1433.93 1460.96 1433.36 1460.96 1433.36 1461.53 1433.36 1462.1 1432.79 1462.1 1432.79 1462.68 1432.79 1462.68 1432.79 1463.25 1432.21 1463.82 1432.21 1463.82 1432.21 1464.4 1431.64 1464.4 1431.64 1464.97 1431.64 1465.54 1431.64 1465.54 1431.64 1466.11 1431.64 1466.11 1431.64 1466.69 1431.07 1466.69 1431.07 1467.26 1431.07 1467.83 1431.07 1467.83 1431.07 1468.41 1431.07 1468.41 1431.07 1468.98 1431.07 1468.98 1430.5 1469.55 1430.5 1469.55 1430.5 1470.13 1430.5 1470.7 1430.5 1470.7 1430.5 1471.27 1430.5 1471.27 1430.5 1471.84 1430.5 1472.42 1430.5 1472.42 1430.5 1472.99 1430.5 1472.99 1430.5 1473.56 1430.5 1474.14 1430.5 1474.14 1430.5 1474.71 1430.5 1474.71 1430.5 1475.28 1430.5 1475.28 1430.5 1475.86 1430.5 1475.86 1430.5 1476.43 1430.5 1477 1430.5 1477 1430.5 1477.57 1430.5 1477.57 1430.5 1478.15 1430.5 1478.15 1430.5 1478.72 1430.5 1479.29 1430.5 1479.29 1430.5 1479.87 1430.5 1479.87 1430.5 1480.44 1430.5 1481.01 1430.5 1481.01 1430.5 1481.58 1430.5 1481.58 1430.5 1482.16 1430.5 1482.73 1430.5 1482.73 1430.5 1483.3 1430.5 1483.3 1430.5 1483.88 1430.5 1483.88 1430.5 1484.45 1430.5 1484.45 1430.5 1485.02 1430.5 1485.02 1430.5 1485.6 1430.5 1486.17 1430.5 1486.17 1430.5 1486.74 1430.5 1486.74 1430.5 1487.31 1430.5 1487.89 1430.5 1487.89 1430.5 1488.46 1430.5 1488.46 1430.5 1489.03 1430.5 1489.61 1430.5 1489.61 1430.5 1490.18 1430.5 1490.18 1430.5 1490.75 1430.5 1491.33 1430.5 1491.33 1430.5 1491.9 1430.5 1491.9 1430.5 1492.47 1430.5 1492.47 1430.5 1493.04 1430.5 1493.04 1430.5 1493.62 1430.5 1493.62 1430.5 1494.19 1430.5 1494.76 1430.5 1494.76 1430.5 1495.34 1430.5 1495.34 1430.5 1495.91 1430.5 1496.48 1430.5 1496.48 1430.5 1497.06 1430.5 1497.06 1430.5 1497.63 1430.5 1498.2 1430.5 1498.2 1430.5 1498.77 1430.5 1498.77 1430.5 1499.35 1430.5 1499.92 1430.5 1499.92 1430.5 1500.49 1430.5 1500.49 1430.5 1501.07 1430.5 1501.07 1430.5 1501.64 1430.5 1501.64 1430.5 1502.21 1430.5 1502.21 1430.5 1502.78 1430.5 1503.36 1430.5 1503.36 1430.5 1503.93 1430.5 1503.93 1430.5 1504.5 1430.5 1505.08 1430.5 1505.08 1430.5 1505.65 1430.5 1506.22 1430.5 1506.22 1430.5 1506.8 1430.5 1506.8 1430.5 1507.37 1430.5 1507.37 1430.5 1507.94 1430.5 1507.94 1430.5 1508.51 1430.5 1509.09 1430.5 1509.09 1430.5 1509.66 1430.5 1509.66 1430.5 1510.23 1430.5 1510.23 1430.5 1510.81 1430.5 1511.38 1430.5 1511.38 1430.5 1511.95 1430.5 1511.95 1430.5 1512.53 1430.5 1513.1 1430.5 1513.1 1430.5 1513.67 1430.5 1513.67 1430.5 1514.24 1430.5 1514.82 1430.5 1514.82 1430.5 1515.39 1430.5 1515.39 1430.5 1515.96 1430.5 1515.96 1430.5 1516.54 1430.5 1516.54 1430.5 1517.11 1430.5 1517.11 1430.5 1517.68 1430.5 1518.25 1430.5 1518.25 1430.5 1518.83 1430.5 1518.83 1430.5 1519.4 1430.5 1519.97 1430.5 1519.97 1430.5 1520.55 1430.5 1520.55 1430.5 1521.12 1430.5 1521.69 1430.5 1521.69 1430.5 1522.27 1430.5 1522.27 1430.5 1522.84 1430.5 1523.41 1430.5 1523.41 1429.93 1523.98 1429.93 1523.98 1429.93 1524.56 1429.93 1524.56 1429.93 1525.13 1429.93 1525.13 1429.93 1525.7 1429.93 1525.7 1429.93 1526.28 1429.93 1526.85 1429.93 1526.85 1429.93 1527.42 1429.93 1527.42 1429.93 1528 1429.93 1528.57 1429.36 1528.57 1429.36 1529.14 1429.36 1529.14 1429.36 1529.71 1429.36 1530.29 1428.79 1530.29 1428.79 1530.86 1428.79 1530.86 1428.79 1531.43 1428.79 1532.01 1428.21 1532.01 1428.21 1532.58 1428.21 1532.58 1428.21 1533.15 1427.64 1533.15 1427.64 1533.72 1427.07 1533.72 1427.07 1534.3 1426.5 1534.3 1426.5 1534.87 1426.5 1535.44 1425.93 1535.44 1425.36 1536.02 1425.36 1536.02 1424.79 1536.59 1424.21 1537.16 1424.21 1537.16 1423.64 1537.74 1423.07 1537.74 1422.5 1538.31 1421.93 1538.88 1421.36 1538.88 1420.79 1539.45 1420.21 1539.45 1419.64 1540.03 1419.07 1540.03 1418.5 1540.6 1417.36 1541.17 1416.79 1541.17 1416.21 1541.75 1415.07 1541.75 1414.5 1542.32 1413.36 1542.32 1412.79 1542.89 1411.64 1542.89 1410.5 1543.47 1409.36 1544.04 1408.21 1544.04 1407.07 1544.61 1405.93 1544.61 1404.79 1545.18 1403.64 1545.76 1401.93 1545.76 1400.79 1546.33 1399.64 1546.33 1397.93 1546.9 1396.79 1547.48 1395.07 1547.48 1393.93 1548.05 1392.21 1548.05 1390.5 1548.62 1388.79 1548.62 1387.07 1549.2 1385.93 1549.2 1384.21 1549.77 1382.5 1550.34 1380.79 1550.34 1378.5 1550.91 1376.79 1550.91 1375.07 1551.49 1373.36 1552.06 1371.64 1552.06 1369.93 1552.63 1367.64 1552.63 1365.93 1553.21 1364.21 1553.78 1362.5 1553.78 1360.79 1554.35 1359.07 1554.35 1357.36 1554.92 1355.64 1555.5 1353.93 1555.5 1352.21 1556.07 1350.5 1556.07 1348.79 1556.64 1347.64 1556.64 1345.93 1557.22 1344.79 1557.22 1343.07 1557.79 1341.93 1557.79 1340.79 1558.36 1339.64 1558.94 1338.5 1558.94 1337.93 1559.51 1336.79 1559.51 1336.21 1560.08 1335.64 1560.65 1335.07 1560.65 1335.07 1561.23 1334.5 1561.23 1334.5 1561.8 1334.5 1562.37 1334.5 1562.37 1335.07 1562.95 1335.07 1562.95 1335.64 1563.52 1336.21 1564.09 1336.79 1564.09 1337.93 1564.67 1339.07 1564.67 1340.21 1565.24 1341.36 1565.24 1343.07 1565.81 1344.79 1565.81 1346.5 1566.38 1348.21 1566.38 1350.5 1566.96 1352.79 1567.53 1355.07 1567.53 1357.93 1568.1 1360.21 1568.1 1363.07 1568.68 1365.93 1569.25 1368.79 1569.25 1372.21 1569.82 1375.07 1569.82 1378.5 1570.39 1381.93 1570.97 1385.36 1570.97 1389.36 1571.54 1392.79 1571.54 1396.79 1572.11 1400.21 1572.11 1404.21 1572.69 1408.21 1573.26 1412.21 1573.26 1416.21 1573.83 1420.21 1573.83 1424.21 1574.41 1428.21 1574.41 1432.79 1574.98 1436.79 1574.98 1440.79 1575.55 1444.79 1576.12 1448.79 1576.12 1452.79 1576.7 1456.79 1576.7 1460.21 1577.27 1464.21 1577.84 1468.21 1577.84 1471.64 1578.42 1475.64 1578.42 1479.07 1578.99 1482.5 1579.56 1485.36 1579.56 1488.79 1580.14 1491.64 1580.14 1495.07 1580.71 1497.93 1580.71 1500.79 1581.28 1503.07 1581.28 1505.93 1581.85 1508.21 1582.43 1510.5 1582.43 1512.21 1583 1514.5 1583 1516.21 1583.57 1517.36 1583.57 1519.07 1584.15 1520.79 1584.72 1521.93 1584.72 1523.07 1585.29 1523.64 1585.29 1524.79 1585.86 1525.36 1586.44 1525.93 1586.44 1525.93 1587.01 1526.5 1587.01 1526.5 1587.58 1526.5 1588.16 1526.5 1588.16 1525.93 1588.73 1525.36 1588.73 1525.36 1589.3 1524.79 1589.3 1523.64 1589.88 1523.07 1589.88 1521.93 1590.45 1521.36 1590.45 1520.21 1591.02 1519.07 1591.59 1517.36 1591.59 1516.21 1592.17 1515.07 1592.74 1513.36 1592.74 1512.21 1593.31 1510.5 1593.31 1508.79 1593.89 1507.07 1594.46 1505.36 1594.46 1503.64 1595.03 1501.93 1595.03 1500.21 1595.61 1498.5 1596.18 1496.79 1596.18 1495.07 1596.75 1493.36 1596.75 1491.07 1597.32 1489.36 1597.32 1487.64 1597.9 1485.93 1597.9 1484.21 1598.47 1481.93 1598.47 1480.21 1599.04 1478.5 1599.62 1476.79 1599.62 1475.07 1600.19 1473.93 1600.19 1471.64 1600.76 1470.5 1601.33 1468.79 1601.33 1467.07 1601.91 1465.36 1601.91 1464.21 1602.48 1463.07 1603.05 1461.36 1603.05 1460.21 1603.63 1458.5 1603.63 1457.36 1604.2 1456.21 1604.2 1455.07 1604.77 1453.93 1605.35 1452.79 1605.35 1451.64 1605.92 1450.5 1605.92 1449.36 1606.49 1448.21 1606.49 1447.64 1607.06 1446.5 1607.06 1445.93 1607.64 1444.79 1608.21 1444.21 1608.21 1443.07 1608.78 1442.5 1608.78 1441.93 1609.36 1441.36 1609.93 1440.79 1609.93 1439.64 1610.5 1439.64 1610.5 1439.07 1611.08 1438.5 1611.65 1437.93 1611.65 1437.36 1612.22 1436.79 1612.22 1436.21 1612.79 1436.21 1612.79 1435.64 1613.37 1435.07 1613.37 1435.07 1613.94 1434.5 1614.51 1434.5 1614.51 1434.5 1615.09 1433.93 1615.09 1433.36 1615.66 1433.36 1615.66 1433.36 1616.23 1432.79 1616.81 1432.79 1616.81 1432.79 1617.38 1432.79 1617.38 1432.21 1617.95 1432.21 1618.52 1432.21 1618.52 1431.64 1619.1 1431.64 1619.1 1431.64 1619.67 1431.64 1620.24 1431.64 1620.24 1431.64 1620.82 1431.64 1620.82 1431.07 1621.39 1431.07 1621.39 1431.07 1621.96 1431.07 1621.96 1431.07 1622.53 1431.07 1622.53 1431.07 1623.11 1431.07 1623.68 1430.5 1623.68 1430.5 1624.25 1430.5 1624.25 1430.5 1624.83 1430.5 1625.4 1430.5 1625.4 1430.5 1625.97 1430.5 1625.97 1430.5 1626.55 1430.5 1627.12 1430.5 1627.12 1430.5 1627.69 1430.5 1627.69 1430.5 1628.26 1430.5 1628.84 1430.5 1628.84 1430.5 1629.41 1430.5 1629.41 1430.5 1629.98 1430.5 1629.98 1430.5 1630.56 1430.5 1630.56 1430.5 1631.13 1430.5 1631.13 1430.5 1631.7 1430.5 1632.28 1430.5 1632.28 1430.5 1632.85 1430.5 1632.85 1430.5 1633.42 1430.5 1633.99 1430.5 1633.99 1430.5 1634.57 1430.5 1634.57 1430.5 1635.14 1430.5 1635.71 1430.5 1635.71 1430.5 1636.29 1430.5 1636.29 1430.5 1636.86 1430.5 1637.43 1430.5 1637.43 1430.5 1638 1430.5 1638 1430.5 1638.58 1430.5 1638.58 1430.5 1639.15 1430.5 1639.15 1430.5 1639.72 1430.5 1640.3 1430.5 1640.3 1430.5 1640.87 1430.5 1640.87 1430.5 1641.44 1430.5 1642.02 1430.5 1642.02 1430.5 1642.59 1430.5 1642.59 1430.5 1643.16 1430.5 1643.73 1430.5 1643.73 1430.5 1644.31 1430.5 1644.31 1430.5 1644.88 1430.5 1644.88 1430.5 1645.45 1430.5 1645.45 1430.5 1646.03 1430.5 1646.6 1430.5 1646.6 1430.5 1647.17 1430.5 1647.17 1430.5 1647.75 1430.5 1647.75 1430.5 1648.32 1430.5 1648.89 1430.5 1648.89 1430.5 1649.46 1430.5 1649.46 1430.5 1650.04 1430.5 1650.61 1430.5 1650.61 1430.5 1651.18 1430.5 1651.18 1430.5 1651.76 1430.5 1652.33 1430.5 1652.33 1430.5 1652.9 1430.5 1652.9 1430.5 1653.47 1430.5 1653.47 1430.5 1654.05 1430.5 1654.05 1430.5 1654.62 1430.5 1654.62 1430.5 1655.19 1430.5 1655.77 1430.5 1655.77 1430.5 1656.34 1430.5 1656.34 1430.5 1656.91 1430.5 1657.49 1430.5 1657.49 1430.5 1658.06 1430.5 1658.06 1430.5 1658.63 1430.5 1659.2 1430.5 1659.2 1430.5 1659.78 1430.5 1659.78 1430.5 1660.35 1430.5 1660.92 1430.5 1660.92 1430.5 1661.5 1430.5 1661.5 1430.5 1662.07 1430.5 1662.07 1430.5 1662.64 1430.5 1662.64 1430.5 1663.22 1430.5 1663.22 1430.5 1663.79 1430.5 1664.36 1430.5 1664.36 1430.5 1664.93 1430.5 1664.93 1430.5 1665.51 1430.5 1666.08 1430.5 1666.08 1430.5 1666.65 1430.5 1666.65 1430.5 1667.23 1430.5 1667.8 1430.5 1667.8 1430.5 1668.37 1430.5 1668.37 1430.5 1668.95 1430.5 1669.52 1430.5 1669.52 1430.5 1670.09 1430.5 1670.09 1430.5 1670.66 1430.5 1670.66 1430.5 1671.24 1430.5 1671.24 1430.5 1671.81 1430.5 1671.81 1430.5 1672.38 1430.5 1672.96 1430.5 1672.96 1430.5 1673.53 1430.5 1673.53 1430.5 1674.1 1430.5 1674.67 1430.5 1674.67 1430.5 1675.25 1430.5 1675.25 1430.5 1675.82 1430.5 1676.39 1430.5 1676.39 1430.5 1676.97 1430.5 1676.97 1430.5 1677.54 1430.5 1677.54 1429.93 1678.11 1429.93 1678.69 1429.93 1678.69 1429.93 1679.26 1429.93 1679.26 1429.93 1679.83 1429.93 1679.83 1429.93 1680.4 1429.93 1680.98 1429.93 1680.98 1429.93 1681.55 1429.93 1681.55 1429.93 1682.12 1429.93 1682.7 1429.93 1682.7 1429.36 1683.27 1429.36 1683.27 1429.36 1683.84 1429.36 1684.42 1429.36 1684.42 1428.79 1684.99 1428.79 1684.99 1428.79 1685.56 1428.79 1685.56 1428.79 1686.13 1428.21 1686.13 1428.21 1686.71 1428.21 1686.71 1428.21 1687.28 1427.64 1687.85 1427.64 1687.85 1427.07 1688.43 1427.07 1688.43 1426.5 1689 1426.5 1689.57 1426.5 1689.57 1425.93 1690.14 1425.36 1690.14 1425.36 1690.72 1424.79 1691.29 1424.21 1691.29 1424.21 1691.86 1423.64 1691.86 1423.07 1692.44 1422.5 1693.01 1421.93 1693.01 1421.36 1693.58 1420.79 1693.58 1420.21 1694.16 1419.64 1694.16 1419.07 1694.73 1418.5 1694.73 1417.36 1695.3 1416.79 1695.3 1416.21 1695.87 1415.07 1696.45 1414.5 1696.45 1413.36 1697.02 1412.79 1697.02 1411.64 1697.59 1410.5 1698.17 1409.36 1698.17 1408.21 1698.74 1407.07 1698.74 1405.93 1699.31 1404.79 1699.89 1403.64 1699.89 1401.93 1700.46 1400.79 1700.46 1399.64 1701.03 1397.93 1701.03 1396.79 1701.6 1395.07 1702.18 1393.93 1702.18 1392.21 1702.75 1390.5 1702.75 1388.79 1703.32 1387.07 1703.32 1385.93 1703.9 1384.21 1703.9 1382.5 1704.47 1380.79 1705.04 1378.5 1705.04 1376.79 1705.61 1375.07 1705.61 1373.36 1706.19 1371.64 1706.76 1369.93 1706.76 1367.64 1707.33 1365.93 1707.33 1364.21 1707.91 1362.5 1708.48 1360.79 1708.48 1359.07 1709.05 1357.36 1709.05 1355.64 1709.63 1353.93 1709.63 1352.21 1710.2 1350.5 1710.77 1348.79 1710.77 1347.64 1711.34 1345.93 1711.34 1344.79 1711.92 1343.07 1711.92 1341.93 1712.49 1340.79 1712.49 1339.64 1713.06 1338.5 1713.64 1337.93 1713.64 1336.79 1714.21 1336.21 1714.21 1335.64 1714.78 1335.07 1715.36 1335.07 1715.36 1334.5 1715.93 1334.5 1715.93 1334.5 1716.5 1334.5 1717.07 1335.07 1717.07 1335.07 1717.65 1335.64 1717.65 1336.21 1718.22 1336.79 1718.22 1337.93 1718.79 1339.07 1718.79 1340.21 1719.37 1341.36 1719.94 1343.07 1719.94 1344.79 1720.51 1346.5 1720.51 1348.21 1721.09 1350.5 1721.09 1352.79 1721.66 1355.07 1722.23 1357.93 1722.23 1360.21 1722.8 1363.07 1722.8 1365.93 1723.38 1368.79 1723.95 1372.21 1723.95 1375.07 1724.52 1378.5 1725.1 1381.93 1725.1 1385.36 1725.67 1389.36 1725.67 1392.79 1726.24 1396.79 1726.24 1400.21 1726.81 1404.21 1726.81 1408.21 1727.39 1412.21 1727.39 1416.21 1727.96 1420.21 1728.53 1424.21 1728.53 1428.21 1729.11 1432.79 1729.11 1436.79 1729.68 1440.79 1730.25 1444.79 1730.25 1448.79 1730.83 1452.79 1730.83 1456.79 1731.4 1460.21 1731.97 1464.21 1731.97 1468.21 1732.54 1471.64 1732.54 1475.64 1733.12 1479.07 1733.12 1482.5 1733.69 1485.36 1734.26 1488.79 1734.26 1491.64 1734.84 1495.07 1734.84 1497.93 1735.41 1500.79 1735.41 1503.07 1735.98 1505.93 1735.98 1508.21 1736.56 1510.5 1737.13 1512.21 1737.13 1514.5 1737.7 1516.21 1737.7 1517.36 1738.27 1519.07 1738.85 1520.79 1738.85 1521.93 1739.42 1523.07 1739.42 1523.64 1739.99 1524.79 1740.57 1525.36 1740.57 1525.93 1741.14 1525.93 1741.14 1526.5 1741.71 1526.5 1741.71 1526.5 1742.28 1526.5 1742.28 1525.93 1742.86 1525.36 1743.43 1525.36 1743.43 1524.79 1744 1523.64 1744 1523.07 1744.58 1521.93 1744.58 1521.36 1745.15 1520.21 1745.72 1519.07 1745.72 1517.36 1746.3 1516.21 1746.3 1515.07 1746.87 1513.36 1747.44 1512.21 1747.44 1510.5 1748.01 1508.79 1748.01 1507.07 1748.59 1505.36 1749.16 1503.64 1749.16 1501.93 1749.73 1500.21 1749.73 1498.5 1750.31 1496.79 1750.31 1495.07 1750.88 1493.36 1750.88 1491.07 1751.45 1489.36 1752.03 1487.64 1752.03 1485.93 1752.6 1484.21 1752.6 1481.93 1753.17 1480.21 1753.17 1478.5 1753.74 1476.79 1754.32 1475.07 1754.32 1473.93 1754.89 1471.64 1754.89 1470.5 1755.46 1468.79 1756.04 1467.07 1756.04 1465.36 1756.61 1464.21 1756.61 1463.07 1757.18 1461.36 1757.76 1460.21 1757.76 1458.5 1758.33 1457.36 1758.33 1456.21 1758.9 1455.07 1758.9 1453.93 1759.47 1452.79 1759.47 1451.64 1760.05 1450.5 1760.05 1449.36 1760.62 1448.21 1761.19 1447.64 1761.19 1446.5 1761.77 1445.93 1761.77 1444.79 1762.34 1444.21 1762.91 1443.07 1762.91 1442.5 1763.48 1441.93 1763.48 1441.36 1764.06 1440.79 1764.63 1439.64 1764.63 1439.64 1765.2 1439.07 1765.2 1438.5 1765.78 1437.93 1766.35 1437.36 1766.35 1436.79 1766.92 1436.21 1766.92 1436.21 1767.5 1435.64 1767.5 1435.07 1768.07 1435.07 1768.07 1434.5 1768.64 1434.5 1769.21 1434.5 1769.21 1433.93 1769.79 1433.36 1769.79 1433.36 1770.36 1433.36 1770.93 1432.79 1770.93 1432.79 1771.51 1432.79 1771.51 1432.79 1772.08 1432.21 1772.65 1432.21 1772.65 1432.21 1773.23 1431.64 1773.23 1431.64 1773.8 1431.64 1773.8 1431.64 1774.37 1431.64 1774.37 1431.64 1774.94 1431.64 1775.52 1431.07 1775.52 1431.07 1776.09 1431.07 1776.09 1431.07 1776.66 1431.07 1776.66 1431.07 1777.24 1431.07 1777.81 1431.07 1777.81 1430.5 1778.38 1430.5 1778.38 1430.5 1778.95 1430.5 1779.53 1430.5 1779.53 1430.5 1780.1 1430.5 1780.1 1430.5 1780.67 1430.5 1781.25 1430.5 1781.25 1430.5 1781.82 1430.5 1781.82 1430.5 1782.39 1430.5 1782.39 1430.5 1782.97 1430.5 1782.97 1430.5 1783.54 1430.5 1783.54 1430.5 1784.11 1430.5 1784.68 1430.5 1784.68 1430.5 1785.26 1430.5 1785.26 1430.5 1785.83 1430.5 1786.4 1430.5 1786.4 1430.5 1786.98 1430.5 1786.98 1430.5 1787.55 1430.5 1788.12 1430.5 1788.12 1430.5 1788.7 1430.5 1788.7 1430.5 1789.27 1430.5 1789.84 1430.5 1789.84 1430.5 1790.41 1430.5 1790.41 1430.5 1790.99 1430.5 1790.99 1430.5 1791.56 1430.5 1791.56 1430.5 1792.13 1430.5 1792.13 1430.5 1792.71 1430.5 1793.28 1430.5 1793.28 1430.5 1793.85 1430.5 1793.85 1430.5 1794.42 1430.5 1795 1430.5 1795 1430.5 1795.57 1430.5 1795.57 1430.5 1796.14 1430.5 1796.72 1430.5 1796.72 1430.5 1797.29 1430.5 1797.29 1430.5 1797.86 1430.5 1798.44 1430.5 1798.44 1430.5 1799.01 1430.5 1799.01 1430.5 1799.58 1430.5 1799.58 1430.5 1800.15 1430.5 1800.15 1430.5 1800.73 1430.5 1800.73 1430.5 1801.3 1430.5 1801.87 1430.5 1801.87 1430.5 1802.45 1430.5 1802.45 1430.5 1803.02 1430.5 1803.59 1430.5 1803.59 1430.5 1804.17 1430.5 1804.17 1430.5 1804.74 1430.5 1805.31 1430.5 1805.31 1430.5 1805.88 1430.5 1805.88 1430.5 1806.46 1430.5 1806.46 1430.5 1807.03 1430.5 1807.6 1430.5 1807.6 1430.5 1808.18 1430.5 1808.18 1430.5 1808.75 1430.5 1808.75 1430.5 1809.32 1430.5 1809.32 1430.5 1809.9 1430.5 1810.47 1430.5 1810.47 1430.5 1811.04 1430.5 1811.61 1430.5 1811.61 1430.5 1812.19 1430.5 1812.19 1430.5 1812.76 1430.5 1813.33 1430.5 1813.33 1430.5 1813.91 1430.5 1813.91 1430.5 1814.48 1430.5 1814.48 1430.5 1815.05 1430.5 1815.05 1430.5 1815.62 1430.5 1815.62 1430.5 1816.2 1430.5 1816.77 1430.5 1816.77 1430.5 1817.34 1430.5 1817.34 1430.5 1817.92 1430.5 1818.49 1430.5 1818.49 1430.5 1819.06 1430.5 1819.06 1430.5 1819.64 1430.5 1820.21 1430.5 1820.21 1430.5 1820.78 1430.5 1820.78 1430.5 1821.35 1430.5 1821.93 1430.5 1821.93 1430.5 1822.5 1430.5 1822.5 1430.5 1823.07 1430.5 1823.07 1430.5 1823.65 1430.5 1823.65 1430.5 1824.22 1430.5 1824.22 1430.5 1824.79 1430.5 1825.37 1430.5 1825.37 1430.5 1825.94 1430.5 1825.94 1430.5 1826.51 1430.5 1827.08 1430.5 1827.08 1430.5 1827.66 1430.5 1827.66 1430.5 1828.23 1430.5 1828.8 1430.5 1828.8 1430.5 1829.38 1430.5 1829.38 1430.5 1829.95 1430.5 1830.52 1430.5 1830.52 1430.5 1831.09 1430.5 1831.09 1430.5 1831.67 1430.5 1831.67 1430.5 1832.24 1429.93 1832.24 1429.93 1832.81 1429.93 1832.81 1429.93 1833.39 1429.93 1833.96 1429.93 1833.96 1429.93 1834.53 1429.93 1834.53 1429.93 1835.11 1429.93 1835.68 1429.93 1835.68 1429.93 1836.25 1429.93 1836.25 1429.93 1836.82 1429.93 1837.4 1429.36 1837.4 1429.36 1837.97 1429.36 1837.97 1429.36 1838.54 1429.36 1838.54 1428.79 1839.12 1428.79 1839.69 1428.79 1839.69 1428.79 1840.26 1428.79 1840.26 1428.21 1840.84 1428.21 1840.84 1428.21 1841.41 1428.21 1841.41 1427.64 1841.98 1427.64 1842.55 1427.07 1842.55 1427.07 1843.13 1426.5 1843.13 1426.5 1843.7 1426.5 1844.27 1425.93 1844.27 1425.36 1844.85 1425.36 1844.85 1424.79 1845.42 1424.21 1845.99 1424.21 1845.99 1423.64 1846.56 1423.07 1846.56 1422.5 1847.14 1421.93 1847.14 1421.36 1847.71 1420.79 1847.71 1420.21 1848.28 1419.64 1848.86 1419.07 1848.86 1418.5 1849.43 1417.36 1849.43 1416.79 1850 1416.21 1850 1415.07 1850.58 1414.5 1851.15 1413.36 1851.15 1412.79 1851.72 1411.64 1851.72 1410.5 1852.29 1409.36 1852.87 1408.21 1852.87 1407.07 1853.44 1405.93 1853.44 1404.79 1854.01 1403.64 1854.59 1401.93 1854.59 1400.79 1855.16 1399.64 1855.16 1397.93 1855.73 1396.79 1855.73 1395.07 1856.31 1393.93 1856.31 1392.21 1856.88 1390.5 1857.45 1388.79 1857.45 1387.07 1858.02 1385.93 1858.02 1384.21 1858.6 1382.5 1859.17 1380.79 1859.17 1378.5 1859.74 1376.79 1859.74 1375.07 1860.32 1373.36 1860.89 1371.64 1860.89 1369.93 1861.46 1367.64 1861.46 1365.93 1862.04 1364.21 1862.61 1362.5 1862.61 1360.79 1863.18 1359.07 1863.18 1357.36 1863.75 1355.64 1863.75 1353.93 1864.33 1352.21 1864.33 1350.5 1864.9 1348.79 1864.9 1347.64 1865.47 1345.93 1866.05 1344.79 1866.05 1343.07 1866.62 1341.93 1866.62 1340.79 1867.19 1339.64 1867.76 1338.5 1867.76 1337.93 1868.34 1336.79 1868.34 1336.21 1868.91 1335.64 1869.48 1335.07 1869.48 1335.07 1870.06 1334.5 1870.06 1334.5 1870.63 1334.5 1870.63 1334.5 1871.2 1335.07 1871.78 1335.07 1871.78 1335.64 1872.35 1336.21 1872.35 1336.79 1872.92 1337.93 1872.92 1339.07 1873.49 1340.21 1873.49 1341.36 1874.07 1343.07 1874.64 1344.79 1874.64 1346.5 1875.21 1348.21 1875.21 1350.5 1875.79 1352.79 1876.36 1355.07 1876.36 1357.93 1876.93 1360.21 1876.93 1363.07 1877.51 1365.93 1878.08 1368.79 1878.08 1372.21 1878.65 1375.07 1878.65 1378.5 1879.22 1381.93 1879.22 1385.36 1879.8 1389.36 1879.8 1392.79 1880.37 1396.79 1880.94 1400.21 1880.94 1404.21 1881.52 1408.21 1881.52 1412.21 1882.09 1416.21 1882.09 1420.21 1882.66 1424.21 1883.23 1428.21 1883.23 1432.79 1883.81 1436.79 1883.81 1440.79 1884.38 1444.79 1884.95 1448.79 1884.95 1452.79 1885.53 1456.79 1885.53 1460.21 1886.1 1464.21 1886.67 1468.21 1886.67 1471.64 1887.25 1475.64 1887.25 1479.07 1887.82 1482.5 1887.82 1485.36 1888.39 1488.79 1888.39 1491.64 1888.96 1495.07 1888.96 1497.93 1889.54 1500.79 1890.11 1503.07 1890.11 1505.93 1890.68 1508.21 1890.68 1510.5 1891.26 1512.21 1891.83 1514.5 1891.83 1516.21 1892.4 1517.36 1892.4 1519.07 1892.98 1520.79 1893.55 1521.93 1893.55 1523.07 1894.12 1523.64 1894.12 1524.79 1894.69 1525.36 1895.27 1525.93 1895.27 1525.93 1895.84 1526.5 1895.84 1526.5 1896.41 1526.5 1896.41 1526.5 1896.99 1525.93 1896.99 1525.36 1897.56 1525.36 1897.56 1524.79 1898.13 1523.64 1898.7 1523.07 1898.7 1521.93 1899.28 1521.36 1899.85 1520.21 1899.85 1519.07 1900.42 1517.36 1900.42 1516.21 1901 1515.07 1901.57 1513.36 1901.57 1512.21 1902.14 1510.5 1902.14 1508.79 1902.72 1507.07 1902.72 1505.36 1903.29 1503.64 1903.86 1501.93 1903.86 1500.21 1904.43 1498.5 1904.43 1496.79 1905.01 1495.07 1905.01 1493.36 1905.58 1491.07 1905.58 1489.36 1906.15 1487.64 1906.73 1485.93 1906.73 1484.21 1907.3 1481.93 1907.3 1480.21 1907.87 1478.5 1908.45 1476.79 1908.45 1475.07 1909.02 1473.93 1909.02 1471.64 1909.59 1470.5 1910.16 1468.79 1910.16 1467.07 1910.74 1465.36 1910.74 1464.21 1911.31 1463.07 1911.31 1461.36 1911.88 1460.21 1911.88 1458.5 1912.46 1457.36 1913.03 1456.21 1913.03 1455.07 1913.6 1453.93 1913.6 1452.79 1914.18 1451.64 1914.18 1450.5 1914.75 1449.36 1915.32 1448.21 1915.32 1447.64 1915.89 1446.5 1915.89 1445.93 1916.47 1444.79 1917.04 1444.21 1917.04 1443.07 1917.61 1442.5 1917.61 1441.93 1918.19 1441.36 1918.76 1440.79 1918.76 1439.64 1919.33 1439.64 1919.33 1439.07 1919.9 1438.5 1919.9 1437.93 1920.48 1437.36 1920.48 1436.79 1921.05 1436.21 1921.05 1436.21 1921.62 1435.64 1922.2 1435.07 1922.2 1435.07 1922.77 1434.5 1922.77 1434.5 1923.34 1434.5 1923.92 1433.93 1923.92 1433.36 1924.49 1433.36 1924.49 1433.36 1925.06 1432.79 1925.63 1432.79 1925.63 1432.79 1926.21 1432.79 1926.21 1432.21 1926.78 1432.21 1927.35 1432.21 1927.35 1431.64 1927.93 1431.64 1927.93 1431.64 1928.5 1431.64 1928.5 1431.64 1929.07 1431.64 1929.07 1431.64 1929.65 1431.07 1929.65 1431.07 1930.22 1431.07 1930.79 1431.07 1930.79 1431.07 1931.36 1431.07 1931.36 1431.07 1931.94 1431.07 1932.51 1430.5 1932.51 1430.5 1933.08 1430.5 1933.08 1430.5 1933.66 1430.5 1934.23 1430.5 1934.23 1430.5 1934.8 1430.5 1934.8 1430.5 1935.37 1430.5 1935.95 1430.5 1935.95 1430.5 1936.52 1430.5 1936.52 1430.5 1937.09 1430.5 1937.09 1430.5 1937.67 1430.5 1937.67 1430.5 1938.24 1430.5 1938.24 1430.5 1938.81 1430.5 1939.39 1430.5 1939.39 1430.5 1939.96 1430.5 1939.96 1430.5 1940.53 1430.5 1941.1 1430.5 1941.1 1430.5 1941.68 1430.5 1941.68 1430.5 1942.25 1430.5 1942.82 1430.5 1942.82 1430.5 1943.4 1430.5 1943.4 1430.5 1943.97 1430.5 1943.97 1430.5 1944.54 1430.5 1945.12 1430.5 1945.12 1430.5 1945.69 1430.5 1945.69 1430.5 1946.26 1430.5 1946.26 1430.5 1946.83 1430.5 1947.41 1430.5 1947.41 1430.5 1947.98 1430.5 1947.98 1430.5 1948.55 1430.5 1949.13 1430.5 1949.13 1430.5 1949.7 1430.5 1949.7 1430.5 1950.27 1430.5 1950.84 1430.5 1950.84 1430.5 1951.42 1430.5 1951.42 1430.5 1951.99 1430.5 1951.99 1430.5 1952.56 1430.5 1952.56 1430.5 1953.14 1430.5 1953.14 1430.5 1953.71 1430.5 1954.28 1430.5 1954.28 1430.5 1954.86 1430.5 1954.86 1430.5 1955.43 1430.5 1956 1430.5 1956 1430.5 1956.57 1430.5 1956.57 1430.5 1957.15 1430.5 1957.72 1430.5 1957.72 1430.5 1958.29 1430.5 1958.29 1430.5 1958.87 1430.5 1959.44 1430.5 1959.44 1430.5 1960.01 1430.5 1960.01 1430.5 1960.59 1430.5 1960.59 1430.5 1961.16 1430.5 1961.16 1430.5 1961.73 1430.5 1961.73 1430.5 1962.3 1430.5 1962.88 1430.5 1962.88 1430.5 1963.45 1430.5 1963.45 1430.5 1964.02 1430.5 1964.6 1430.5 1964.6 1430.5 1965.17 1430.5 1965.17 1430.5 1965.74 1430.5 1966.31 1430.5 1966.31 1430.5 1966.89 1430.5 1966.89 1430.5 1967.46 1430.5 1968.03 1430.5 1968.03 1430.5 1968.61 1430.5 1968.61 1430.5 1969.18 1430.5 1969.18 1430.5 1969.75 1430.5 1969.75 1430.5 1970.33 1430.5 1970.33 1430.5 1970.9 1430.5 1971.47 1430.5 1971.47 1430.5 1972.04 1430.5 1972.04 1430.5 1972.62 1430.5 1973.19 1430.5 1973.19 1430.5 1973.76 1430.5 1973.76 1430.5 1974.34 1430.5 1974.91 1430.5 1974.91 1430.5 1975.48 1430.5 1975.48 1430.5 1976.06 1430.5 1976.06 1430.5 1976.63 1430.5 1977.2 1430.5 1977.2 1430.5 1977.77 1430.5 1977.77 1430.5 1978.35 1430.5 1978.35 1430.5 1978.92 1430.5 1978.92 1430.5 1979.49 1430.5 1980.07 1430.5 1980.07 1430.5 1980.64 1430.5 1980.64 1430.5 1981.21 1430.5 1981.79 1430.5 1981.79 1430.5 1982.36 1430.5 1982.36 1430.5 1982.93 1430.5 1983.5 1430.5 1983.5 1430.5 1984.08 1430.5 1984.08 1430.5 1984.65 1430.5 1984.65 1430.5 1985.22 1430.5 1985.22 1430.5 1985.8 1430.5 1986.37 1430.5 1986.37 1429.93 1986.94 1429.93 1986.94 1429.93 1987.51 1429.93 1988.09 1429.93 1988.09 1429.93 1988.66 1429.93 1988.66 1429.93 1989.23 1429.93 1989.81 1429.93 1989.81 1429.93 1990.38 1429.93 1990.38 1429.93 1990.95 1429.93 1991.53 1429.93 1991.53 1429.36 1992.1 1429.36 1992.1 1429.36 1992.67 1429.36 1992.67 1429.36 1993.24 1428.79 1993.24 1428.79 1993.82 1428.79 1993.82 1428.79 1994.39 1428.79 1994.96 1428.21 1994.96 1428.21 1995.54 1428.21 1995.54 1428.21 1996.11 1427.64 1996.68 1427.64 1996.68 1427.07 1997.26 1427.07 1997.26 1426.5 1997.83 1426.5 1998.4 1426.5 1998.4 1425.93 1998.97 1425.36 1998.97 1425.36 1999.55 1424.79 2000.12 1424.21 2000.12 1424.21 2000.69 1423.64 2000.69 1423.07 2001.27 1422.5 2001.27 1421.93 2001.84 1421.36 2001.84 1420.79 2002.41 1420.21 2002.41 1419.64 2002.98 1419.07 2003.56 1418.5 2003.56 1417.36 2004.13 1416.79 2004.13 1416.21 2004.7 1415.07 2005.28 1414.5 2005.28 1413.36 2005.85 1412.79 2005.85 1411.64 2006.42 1410.5 2007 1409.36 2007 1408.21 2007.57 1407.07 2007.57 1405.93 2008.14 1404.79 2008.14 1403.64 2008.71 1401.93 2009.29 1400.79 2009.29 1399.64 2009.86 1397.93 2009.86 1396.79 2010.43 1395.07 2010.43 1393.93 2011.01 1392.21 2011.01 1390.5 2011.58 1388.79 2012.15 1387.07 2012.15 1385.93 2012.73 1384.21 2012.73 1382.5 2013.3 1380.79 2013.87 1378.5 2013.87 1376.79 2014.44 1375.07 2014.44 1373.36 2015.02 1371.64 2015.59 1369.93 2015.59 1367.64 2016.16 1365.93 2016.16 1364.21 2016.74 1362.5 2016.74 1360.79 2017.31 1359.07 2017.31 1357.36 2017.88 1355.64 2018.45 1353.93 2018.45 1352.21 2019.03 1350.5 2019.03 1348.79 2019.6 1347.64 2019.6 1345.93 2020.17 1344.79 2020.75 1343.07 2020.75 1341.93 2021.32 1340.79 2021.32 1339.64 2021.89 1338.5 2022.47 1337.93 2022.47 1336.79 2023.04 1336.21 2023.04 1335.64 2023.61 1335.07 2024.18 1335.07 2024.18 1334.5 2024.76 1334.5 2024.76 1334.5 2025.33 1334.5 2025.33 1335.07 2025.9 1335.07 2025.9 1335.64 2026.48 1336.21 2026.48 1336.79 2027.05 1337.93 2027.62 1339.07 2027.62 1340.21 2028.2 1341.36 2028.2 1343.07 2028.77 1344.79 2029.34 1346.5 2029.34 1348.21 2029.91 1350.5 2030.49 1352.79 2030.49 1355.07 2031.06 1357.93 2031.06 1360.21 2031.63 1363.07 2031.63 1365.93 2032.21 1368.79 2032.78 1372.21 2032.78 1375.07 2033.35 1378.5 2033.35 1381.93 2033.93 1385.36 2033.93 1389.36 2034.5 1392.79 2034.5 1396.79 2035.07 1400.21 2035.64 1404.21 2035.64 1408.21 2036.22 1412.21 2036.22 1416.21 2036.79 1420.21 2037.36 1424.21 2037.36 1428.21 2037.94 1432.79 2037.94 1436.79 2038.51 1440.79 2039.08 1444.79 2039.08 1448.79 2039.65 1452.79 2039.65 1456.79 2040.23 1460.21 2040.23 1464.21 2040.8 1468.21 2041.37 1471.64 2041.37 1475.64 2041.95 1479.07 2041.95 1482.5 2042.52 1485.36 2042.52 1488.79 2043.09 1491.64 2043.09 1495.07 2043.67 1497.93 2044.24 1500.79 2044.24 1503.07 2044.81 1505.93 2044.81 1508.21 2045.38 1510.5 2045.96 1512.21 2045.96 1514.5 2046.53 1516.21 2046.53 1517.36 2047.1 1519.07 2047.68 1520.79 2047.68 1521.93 2048.25 1523.07 2048.25 1523.64 2048.82 1524.79 2048.82 1525.36 2049.4 1525.93 2049.4 1525.93 2049.97 1526.5 2050.54 1526.5 2050.54 1526.5 2051.11 1526.5 2051.11 1525.93 2051.69 1525.36 2051.69 1525.36 2052.26 1524.79 2052.83 1523.64 2052.83 1523.07 2053.41 1521.93 2053.41 1521.36 2053.98 1520.21 2054.55 1519.07 2054.55 1517.36 2055.12 1516.21 2055.12 1515.07 2055.7 1513.36 2056.27 1512.21 2056.27 1510.5 2056.84 1508.79 2056.84 1507.07 2057.42 1505.36 2057.42 1503.64 2057.99 1501.93 2057.99 1500.21 2058.56 1498.5 2058.56 1496.79 2059.14 1495.07 2059.71 1493.36 2059.71 1491.07 2060.28 1489.36 2060.28 1487.64 2060.85 1485.93 2061.43 1484.21 2061.43 1481.93 2062 1480.21 2062 1478.5 2062.57 1476.79 2063.15 1475.07 2063.15 1473.93 2063.72 1471.64 2063.72 1470.5 2064.29 1468.79 2064.87 1467.07 2064.87 1465.36 2065.44 1464.21 2065.44 1463.07 2066.01 1461.36 2066.01 1460.21 2066.58 1458.5 2066.58 1457.36 2067.16 1456.21 2067.16 1455.07 2067.73 1453.93 2068.3 1452.79 2068.3 1451.64 2068.88 1450.5 2068.88 1449.36 2069.45 1448.21 2070.02 1447.64 2070.02 1446.5 2070.59 1445.93 2070.59 1444.79 2071.17 1444.21 2071.74 1443.07 2071.74 1442.5 2072.31 1441.93 2072.31 1441.36 2072.89 1440.79 2072.89 1439.64 2073.46 1439.64 2074.03 1439.07 2074.03 1438.5 2074.61 1437.93 2074.61 1437.36 2075.18 1436.79 2075.18 1436.21 2075.75 1436.21 2076.32 1435.64 2076.32 1435.07 2076.9 1435.07 2076.9 1434.5 2077.47 1434.5 2078.04 1434.5 2078.04 1433.93 2078.62 1433.36 2078.62 1433.36 2079.19 1433.36 2079.76 1432.79 2079.76 1432.79 2080.34 1432.79 2080.34 1432.79 2080.91 1432.21 2080.91 1432.21 2081.48 1432.21 2081.48 1431.64 2082.05 1431.64 2082.63 1431.64 2082.63 1431.64 2083.2 1431.64 2083.2 1431.64 2083.77 1431.64 2083.77 1431.07 2084.35 1431.07 2084.92 1431.07 2084.92 1431.07 2085.49 1431.07 2085.49 1431.07 2086.07 1431.07 2086.64 1431.07 2086.64 1430.5 2087.21 1430.5 2087.21 1430.5 2087.78 1430.5 2088.36 1430.5 2088.36 1430.5 2088.93 1430.5 2088.93 1430.5 2089.5 1430.5 2089.5 1430.5 2090.08 1430.5 2090.08 1430.5 2090.65 1430.5 2090.65 1430.5 2091.22 1430.5 2091.79 1430.5 2091.79 1430.5 2092.37 1430.5 2092.37 1430.5 2092.94 1430.5 2093.51 1430.5 2093.51 1430.5 2094.09 1430.5 2094.09 1430.5 2094.66 1430.5 2095.23 1430.5 2095.23 1430.5 2095.81 1430.5 2095.81 1430.5 2096.38 1430.5 2096.95 1430.5 2096.95 1430.5 2097.52 1430.5 2097.52 1430.5 2098.1 1430.5 2098.1 1430.5 2098.67 1430.5 2098.67 1430.5 2099.24 1430.5 2099.24 1430.5 2099.82 1430.5 2100.39 1430.5 2100.39 1430.5 2100.96 1430.5 2100.96 1430.5 2101.54 1430.5 2102.11 1430.5 2102.11 1430.5 2102.68 1430.5 2102.68 1430.5 2103.25 1430.5 2103.83 1430.5 2103.83 1430.5 2104.4 1430.5 2104.4 1430.5 2104.97 1430.5 2104.97 1430.5 2105.55 1430.5 2106.12 1430.5 2106.12 1430.5 2106.69 1430.5 2106.69 1430.5 2107.26 1430.5 2107.26 1430.5 2107.84 1430.5 2107.84 1430.5 2108.41 1430.5 2108.98 1430.5 2108.98 1430.5 2109.56 1430.5 2109.56 1430.5 2110.13 1430.5 2110.7 1430.5 2110.7 1430.5 2111.28 1430.5 2111.28 1430.5 2111.85 1430.5 2112.42 1430.5 2112.42 1430.5 2112.99 1430.5 2112.99 1430.5 2113.57 1430.5 2113.57 1430.5 2114.14 1430.5 2114.14 1430.5 2114.71 1430.5 2115.29 1430.5 2115.29 1430.5 2115.86 1430.5 2115.86 1430.5 2116.43 1430.5 2116.43 1430.5 2117.01 1430.5 2117.58 1430.5 2117.58 1430.5 2118.15 1430.5 2118.72 1430.5 2118.72 1430.5 2119.3 1430.5 2119.3 1430.5 2119.87 1430.5 2120.44 1430.5 2120.44 1430.5 2121.02 1430.5 2121.02 1430.5 2121.59 1430.5 2121.59 1430.5 2122.16 1430.5 2122.16 1430.5 2122.74 1430.5 2122.74 1430.5 2123.31 1430.5 2123.88 1430.5 2123.88 1430.5 2124.45 1430.5 2124.45 1430.5 2125.03 1430.5 2125.6 1430.5 2125.6 1430.5 2126.17 1430.5 2126.17 1430.5 2126.75 1430.5 2127.32 1430.5 2127.32 1430.5 2127.89 1430.5 2127.89 1430.5 2128.46 1430.5 2129.04 1430.5 2129.04 1430.5 2129.61 1430.5 2129.61 1430.5 2130.18 1430.5 2130.18 1430.5 2130.76 1430.5 2130.76 1430.5 2131.33 1430.5 2131.33 1430.5 2131.9 1430.5 2132.48 1430.5 2132.48 1430.5 2133.05 1430.5 2133.05 1430.5 2133.62 1430.5 2134.19 1430.5 2134.19 1430.5 2134.77 1430.5 2134.77 1430.5 2135.34 1430.5 2135.91 1430.5 2135.91 1430.5 2136.49 1430.5 2136.49 1430.5 2137.06 1430.5 2137.06 1430.5 2137.63 1430.5 2138.21 1430.5 2138.21 1430.5 2138.78 1430.5 2138.78 1430.5 2139.35 1430.5 2139.35 1430.5 2139.92 1430.5 2139.92 1430.5 2140.5 1430.5 2141.07 1429.93 2141.07 1429.93 2141.64 1429.93 2141.64 1429.93 2142.22 1429.93 2142.79 1429.93 2142.79 1429.93 2143.36 1429.93 2143.36 1429.93 2143.93 1429.93 2144.51 1429.93 2144.51 1429.93 2145.08 1429.93 2145.08 1429.93 2145.65 1429.93 2145.65 1429.36 2146.23 1429.36 2146.23 1429.36 2146.8 1429.36 2147.37 1429.36 2147.37 1428.79 2147.95 1428.79 2147.95 1428.79 2148.52 1428.79 2148.52 1428.79 2149.09 1428.21 2149.66 1428.21 2149.66 1428.21 2150.24 1428.21 2150.24 1427.64 2150.81 1427.64 2151.38 1427.07 2151.38 1427.07 2151.96 1426.5 2151.96 1426.5 2152.53 1426.5 2153.1 1425.93 2153.1 1425.36 2153.68 1425.36 2153.68 1424.79 2154.25 1424.21 2154.25 1424.21 2154.82 1423.64 2154.82 1423.07 2155.39 1422.5 2155.39 1421.93 2155.97 1421.36 2156.54 1420.79 2156.54 1420.21 2157.11 1419.64 2157.11 1419.07 2157.69 1418.5 2158.26 1417.36 2158.26 1416.79 2158.83 1416.21 2158.83 1415.07 2159.4 1414.5 2159.98 1413.36 2159.98 1412.79 2160.55 1411.64 2161.12 1410.5 2161.12 1409.36 2161.7 1408.21 2161.7 1407.07 2162.27 1405.93 2162.27 1404.79 2162.84 1403.64 2162.84 1401.93 2163.42 1400.79 2163.42 1399.64 2163.99 1397.93 2164.56 1396.79 2164.56 1395.07 2165.13 1393.93 2165.13 1392.21 2165.71 1390.5 2166.28 1388.79 2166.28 1387.07 2166.85 1385.93 2166.85 1384.21 2167.43 1382.5 2168 1380.79 2168 1378.5 2168.57 1376.79 2168.57 1375.07 2169.15 1373.36 2169.15 1371.64 2169.72 1369.93 2170.29 1367.64 2170.29 1365.93 2170.86 1364.21 2170.86 1362.5 2171.44 1360.79 2171.44 1359.07 2172.01 1357.36 2172.01 1355.64 2172.58 1353.93 2173.16 1352.21 2173.16 1350.5 2173.73 1348.79 2173.73 1347.64 2174.3 1345.93 2174.88 1344.79 2174.88 1343.07 2175.45 1341.93 2175.45 1340.79 2176.02 1339.64 2176.59 1338.5 2176.59 1337.93 2177.17 1336.79 2177.17 1336.21 2177.74 1335.64 2177.74 1335.07 2178.31 1335.07 2178.31 1334.5 2178.89 1334.5 2179.46 1334.5 2179.46 1334.5 2180.03 1335.07 2180.03 1335.07 2180.6 1335.64 2180.6 1336.21 2181.18 1336.79 2181.75 1337.93 2181.75 1339.07 2182.32 1340.21 2182.32 1341.36 2182.9 1343.07 2183.47 1344.79 2183.47 1346.5 2184.04 1348.21 2184.04 1350.5 2184.62 1352.79 2185.19 1355.07 2185.19 1357.93 2185.76 1360.21 2185.76 1363.07 2186.33 1365.93 2186.33 1368.79 2186.91 1372.21 2186.91 1375.07 2187.48 1378.5 2187.48 1381.93 2188.05 1385.36 2188.63 1389.36 2188.63 1392.79 2189.2 1396.79 2189.2 1400.21 2189.77 1404.21 2190.34 1408.21 2190.34 1412.21 2190.92 1416.21 2190.92 1420.21 2191.49 1424.21 2192.06 1428.21 2192.06 1432.79 2192.64 1436.79 2192.64 1440.79 2193.21 1444.79 2193.78 1448.79 2193.78 1452.79 2194.36 1456.79 2194.36 1460.21 2194.93 1464.21 2194.93 1468.21 2195.5 1471.64 2195.5 1475.64 2196.07 1479.07 2196.07 1482.5 2196.65 1485.36 2197.22 1488.79 2197.22 1491.64 2197.79 1495.07 2197.79 1497.93 2198.37 1500.79 2198.94 1503.07 2198.94 1505.93 2199.51 1508.21 2199.51 1510.5 2200.09 1512.21 2200.66 1514.5 2200.66 1516.21 2201.23 1517.36 2201.23 1519.07 2201.8 1520.79 2202.38 1521.93 2202.38 1523.07 2202.95 1523.64 2202.95 1524.79 2203.52 1525.36 2203.52 1525.93 2204.1 1525.93 2204.1 1526.5 2204.67 1526.5 2205.24 1526.5 2205.24 1526.5 2205.82 1525.93 2205.82 1525.36 2206.39 1525.36 2206.96 1524.79 2206.96 1523.64 2207.53 1523.07 2207.53 1521.93 2208.11 1521.36 2208.68 1520.21 2208.68 1519.07 2209.25 1517.36 2209.25 1516.21 2209.83 1515.07 2209.83 1513.36 2210.4 1512.21 2210.4 1510.5 2210.97 1508.79 2211.54 1507.07 2211.54 1505.36 2212.12 1503.64 2212.12 1501.93 2212.69 1500.21 2212.69 1498.5 2213.26 1496.79 2213.84 1495.07 2213.84 1493.36 2214.41 1491.07 2214.41 1489.36 2214.98 1487.64 2215.56 1485.93 2215.56 1484.21 2216.13 1481.93 2216.13 1480.21 2216.7 1478.5 2217.27 1476.79 2217.27 1475.07 2217.85 1473.93 2217.85 1471.64 2218.42 1470.5 2218.42 1468.79 2218.99 1467.07 2218.99 1465.36 2219.57 1464.21 2219.57 1463.07 2220.14 1461.36 2220.71 1460.21 2220.71 1458.5 2221.29 1457.36 2221.29 1456.21 2221.86 1455.07 2222.43 1453.93 2222.43 1452.79 2223 1451.64 2223 1450.5 2223.58 1449.36 2224.15 1448.21 2224.15 1447.64 2224.72 1446.5 2224.72 1445.93 2225.3 1444.79 2225.87 1444.21 2225.87 1443.07 2226.44 1442.5 2226.44 1441.93 2227.01 1441.36 2227.01 1440.79 2227.59 1439.64 2227.59 1439.64 2228.16 1439.07 2228.16 1438.5 2228.73 1437.93 2229.31 1437.36 2229.31 1436.79 2229.88 1436.21 2229.88 1436.21 2230.45 1435.64 2231.03 1435.07 2231.03 1435.07 2231.6 1434.5 2231.6 1434.5 2232.17 1434.5 2232.74 1433.93 2232.74 1433.36 2233.32 1433.36 2233.32 1433.36 2233.89 1432.79 2234.46 1432.79 2234.46 1432.79 2235.04 1432.79 2235.04 1432.21 2235.61 1432.21 2235.61 1432.21 2236.18 1431.64 2236.18 1431.64 2236.76 1431.64 2236.76 1431.64 2237.33 1431.64 2237.9 1431.64 2237.9 1431.64 2238.47 1431.07 2238.47 1431.07 2239.05 1431.07 2239.62 1431.07 2239.62 1431.07 2240.19 1431.07 2240.19 1431.07 2240.77 1431.07 2241.34 1430.5 2241.34 1430.5 2241.91 1430.5 2241.91 1430.5 2242.49 1430.5 2242.49 1430.5 2243.06 1430.5 2243.63 1430.5 2243.63 1430.5 2244.2 1430.5 2244.2 1430.5 2244.78 1430.5 2244.78 1430.5 2245.35 1430.5 2245.35 1430.5 2245.92 1430.5 2246.5 1430.5 2246.5 1430.5 2247.07 1430.5 2247.07 1430.5 2247.64 1430.5 2248.21 1430.5 2248.21 1430.5 2248.79 1430.5 2249.36 1430.5 2249.36 1430.5 2249.93 1430.5 2249.93 1430.5 2250.51 1430.5 2250.51 1430.5 2251.08 1430.5 2251.08 1430.5 2251.65 1430.5 2251.65 1430.5 2252.23 1430.5 2252.8 1430.5 2252.8 1430.5 2253.37 1430.5 2253.37 1430.5 2253.94 1430.5 2254.52 1430.5 2254.52 1430.5 2255.09 1430.5 2255.09 1430.5 2255.66 1430.5 2256.24 1430.5 2256.24 1430.5 2256.81 1430.5 2256.81 1430.5 2257.38 1430.5 2257.96 1430.5 2257.96 1430.5 2258.53 1430.5 2258.53 1430.5 2259.1 1430.5 2259.1 1430.5 2259.67 1430.5 2259.67 1430.5 2260.25 1430.5 2260.25 1430.5 2260.82 1430.5 2261.39 1430.5 2261.39 1430.5 2261.97 1430.5 2261.97 1430.5 2262.54 1430.5 2263.11 1430.5 2263.11 1430.5 2263.68 1430.5 2263.68 1430.5 2264.26 1430.5 2264.83 1430.5 2264.83 1430.5 2265.4 1430.5 2265.4 1430.5 2265.98 1430.5 2266.55 1430.5 2266.55 1430.5 2267.12 1430.5 2267.12 1430.5 2267.7 1430.5 2267.7 1430.5 2268.27 1430.5 2268.27 1430.5 2268.84 1430.5 2268.84 1430.5 2269.41 1430.5 2269.99 1430.5 2269.99 1430.5 2270.56 1430.5 2270.56 1430.5 2271.13 1430.5 2271.71 1430.5 2271.71 1430.5 2272.28 1430.5 2272.28 1430.5 2272.85 1430.5 2273.43 1430.5 2273.43 1430.5 2274 1430.5 2274 1430.5 2274.57 1430.5 2274.57 1430.5 2275.14 1430.5 2275.72 1430.5 2275.72 1430.5 2276.29 1430.5 2276.29 1430.5 2276.86 1430.5 2276.86 1430.5 2277.44 1430.5 2277.44 1430.5 2278.01 1430.5 2278.58 1430.5 2278.58 1430.5 2279.16 1430.5 2279.16 1430.5 2279.73 1430.5 2280.3 1430.5 2280.3 1430.5 2280.87 1430.5 2280.87 1430.5 2281.45 1430.5 2282.02 1430.5 2282.02 1430.5 2282.59 1430.5 2282.59 1430.5 2283.17 1430.5 2283.17 1430.5 2283.74 1430.5 2283.74 1430.5 2284.31 1430.5 2284.88 1430.5 2284.88 1430.5 2285.46 1430.5 2285.46 1430.5 2286.03 1430.5 2286.03 1430.5 2286.6 1430.5 2287.18 1430.5 2287.18 1430.5 2287.75 1430.5 2287.75 1430.5 2288.32 1430.5 2288.9 1430.5 2288.9 1430.5 2289.47 1430.5 2289.47 1430.5 2290.04 1430.5 2290.61 1430.5 2290.61 1430.5 2291.19 1430.5 2291.19 1430.5 2291.76 1430.5 2291.76 1430.5 2292.33 1430.5 2292.33 1430.5 2292.91 1430.5 2293.48 1430.5 2293.48 1430.5 2294.05 1430.5 2294.05 1430.5 2294.62 1430.5 2295.2 1430.5 2295.2 1429.93 2295.77 1429.93 2295.77 1429.93 2296.34 1429.93 2296.92 1429.93 2296.92 1429.93 2297.49 1429.93 2297.49 1429.93 2298.06 1429.93 2298.64 1429.93 2298.64 1429.93 2299.21 1429.93 2299.21 1429.93 2299.78 1429.93 2299.78 1429.93 2300.35 1429.36 2300.35 1429.36 2300.93 1429.36 2300.93 1429.36 2301.5 1429.36 2302.07 1428.79 2302.07 1428.79 2302.65 1428.79 2302.65 1428.79 2303.22 1428.79 2303.79 1428.21 2303.79 1428.21 2304.37 1428.21 2304.37 1428.21 2304.94 1427.64 2305.51 1427.64 2305.51 1427.07 2306.08 1427.07 2306.08 1426.5 2306.66 1426.5 2306.66 1426.5 2307.23 1425.93 2307.8 1425.36 2307.8 1425.36 2308.38 1424.79 2308.38 1424.21 2308.95 1424.21 2308.95 1423.64 2309.52 1423.07 2309.52 1422.5 2310.1 1421.93 2310.67 1421.36 2310.67 1420.79 2311.24 1420.21 2311.24 1419.64 2311.81 1419.07 2312.39 1418.5 2312.39 1417.36 2312.96 1416.79 2312.96 1416.21 2313.53 1415.07 2314.11 1414.5 2314.11 1413.36 2314.68 1412.79 2314.68 1411.64 2315.25 1410.5 2315.25 1409.36 2315.82 1408.21 2315.82 1407.07 2316.4 1405.93 2316.97 1404.79 2316.97 1403.64 2317.54 1401.93 2317.54 1400.79 2318.12 1399.64 2318.12 1397.93 2318.69 1396.79 2319.26 1395.07 2319.26 1393.93 2319.84 1392.21 2319.84 1390.5 2320.41 1388.79 2320.98 1387.07 2320.98 1385.93 2321.55 1384.21 2321.55 1382.5 2322.13 1380.79 2322.7 1378.5 2322.7 1376.79 2323.27 1375.07 2323.27 1373.36 2323.85 1371.64 2323.85 1369.93 2324.42 1367.64 2324.42 1365.93 2324.99 1364.21 2324.99 1362.5 2325.57 1360.79 2326.14 1359.07 2326.14 1357.36 2326.71 1355.64 2326.71 1353.93 2327.28 1352.21 2327.86 1350.5 2327.86 1348.79 2328.43 1347.64 2328.43 1345.93 2329 1344.79 2329.58 1343.07 2329.58 1341.93 2330.15 1340.79 2330.15 1339.64 2330.72 1338.5 2331.29 1337.93 2331.29 1336.79 2331.87 1336.21 2331.87 1335.64 2332.44 1335.07 2332.44 1335.07 2333.01 1334.5 2333.01 1334.5 2333.59 1334.5 2333.59 1334.5 2334.16 1335.07 2334.73 1335.07 2334.73 1335.64 2335.31 1336.21 2335.31 1336.79 2335.88 1337.93 2336.45 1339.07 2336.45 1340.21 2337.02 1341.36 2337.6 1343.07 2337.6 1344.79 2338.17 1346.5 2338.17 1348.21 2338.74 1350.5 2338.74 1352.79 2339.32 1355.07 2339.89 1357.93 2339.89 1360.21 2340.46 1363.07 2340.46 1365.93 2341.04 1368.79 2341.04 1372.21 2341.61 1375.07 2341.61 1378.5 2342.18 1381.93 2342.75 1385.36 2342.75 1389.36 2343.33 1392.79 2343.33 1396.79 2343.9 1400.21 2344.47 1404.21 2344.47 1408.21 2345.05 1412.21 2345.05 1416.21 2345.62 1420.21 2346.19 1424.21 2346.19 1428.21 2346.77 1432.79 2346.77 1436.79 2347.34 1440.79 2347.34 1444.79 2347.91 1448.79 2347.91 1452.79 2348.48 1456.79 2349.06 1460.21 2349.06 1464.21 2349.63 1468.21 2349.63 1471.64 2350.2 1475.64 2350.2 1479.07 2350.78 1482.5 2351.35 1485.36 2351.35 1488.79 2351.92 1491.64 2351.92 1495.07 2352.49 1497.93 2353.07 1500.79 2353.07 1503.07 2353.64 1505.93 2353.64 1508.21 2354.21 1510.5 2354.79 1512.21 2354.79 1514.5 2355.36 1516.21 2355.36 1517.36 2355.93 1519.07 2355.93 1520.79 2356.51 1521.93 2356.51 1523.07 2357.08 1523.64 2357.08 1524.79 2357.65 1525.36 2358.22 1525.93 2358.22 1525.93 2358.8 1526.5 2358.8 1526.5 2359.37 1526.5 2359.94 1526.5 2359.94 1525.93 2360.52 1525.36 2360.52 1525.36 2361.09 1524.79 2361.66 1523.64 2361.66 1523.07 2362.24 1521.93 2362.24 1521.36 2362.81 1520.21 2363.38 1519.07 2363.38 1517.36 2363.95 1516.21 2363.95 1515.07 2364.53 1513.36 2364.53 1512.21 2365.1 1510.5 2365.1 1508.79 2365.67 1507.07 2365.67 1505.36 2366.25 1503.64 2366.82 1501.93 2366.82 1500.21 2367.39 1498.5 2367.39 1496.79 2367.96 1495.07 2368.54 1493.36 2368.54 1491.07 2369.11 1489.36 2369.11 1487.64 2369.68 1485.93 2370.26 1484.21 2370.26 1481.93 2370.83 1480.21 2370.83 1478.5 2371.4 1476.79 2371.98 1475.07 2371.98 1473.93 2372.55 1471.64 2372.55 1470.5 2373.12 1468.79 2373.12 1467.07 2373.69 1465.36 2373.69 1464.21 2374.27 1463.07 2374.27 1461.36 2374.84 1460.21 2375.41 1458.5 2375.41 1457.36 2375.99 1456.21 2375.99 1455.07 2376.56 1453.93 2377.13 1452.79 2377.13 1451.64 2377.71 1450.5 2377.71 1449.36 2378.28 1448.21 2378.85 1447.64 2378.85 1446.5 2379.42 1445.93 2379.42 1444.79 2380 1444.21 2380 1443.07 2380.57 1442.5 2381.14 1441.93 2381.14 1441.36 2381.72 1440.79 2381.72 1439.64 2382.29 1439.64 2382.29 1439.07 2382.86 1438.5 2383.44 1437.93 2383.44 1437.36 2384.01 1436.79 2384.01 1436.21 2384.58 1436.21 2385.15 1435.64 2385.15 1435.07 2385.73 1435.07 2385.73 1434.5 2386.3 1434.5 2386.87 1434.5 2386.87 1433.93 2387.45 1433.36 2387.45 1433.36 2388.02 1433.36 2388.02 1432.79 2388.59 1432.79 2388.59 1432.79 2389.16 1432.79 2389.16 1432.21 2389.74 1432.21 2390.31 1432.21 2390.31 1431.64 2390.88 1431.64 2390.88 1431.64 2391.46 1431.64 2392.03 1431.64 2392.03 1431.64 2392.6 1431.64 2392.6 1431.07 2393.18 1431.07 2393.75 1431.07 2393.75 1431.07 2394.32 1431.07 2394.32 1431.07 2394.89 1431.07 2395.47 1431.07 2395.47 1430.5 2396.04 1430.5 2396.04 1430.5 2396.61 1430.5 2396.61 1430.5 2397.19 1430.5 2397.19 1430.5 2397.76 1430.5 2397.76 1430.5 2398.33 1430.5 2398.91 1430.5 2398.91 1430.5 2399.48 1430.5 2399.48 1430.5 2400.05 1430.5 2400.62 1430.5 2400.62 1430.5 2401.2 1430.5 2401.2 1430.5 2401.77 1430.5 2402.34 1430.5 2402.34 1430.5 2402.92 1430.5 2402.92 1430.5 2403.49 1430.5 2403.49 1430.5 2404.06 1430.5 2404.63 1430.5 2404.63 1430.5 2405.21 1430.5 2405.21 1430.5 2405.78 1430.5 2405.78 1430.5 2406.35 1430.5 2406.35 1430.5 2406.93 1430.5 2407.5 1430.5 2407.5 1430.5 2408.07 1430.5 2408.07 1430.5 2408.65 1430.5 2409.22 1430.5 2409.22 1430.5 2409.79 1430.5 2409.79 1430.5 2410.36 1430.5 2410.94 1430.5 2410.94 1430.5 2411.51 1430.5 2411.51 1430.5 2412.08 1430.5 2412.08 1430.5 2412.66 1430.5 2413.23 1430.5 2413.23 1430.5 2413.8 1430.5 2413.8 1430.5 2414.38 1430.5 2414.38 1430.5 2414.95 1430.5 2414.95 1430.5 2415.52 1430.5 2416.09 1430.5 2416.09 1430.5 2416.67 1430.5 2416.67 1430.5 2417.24 1430.5 2417.81 1430.5 2417.81 1430.5 2418.39 1430.5 2418.39 1430.5 2418.96 1430.5 2419.53 1430.5 2419.53 1430.5 2420.1 1430.5 2420.1 1430.5 2420.68 1430.5 2420.68 1430.5 2421.25 1430.5 2421.25 1430.5 2421.82 1430.5 2422.4 1430.5 2422.4 1430.5 2422.97 1430.5 2422.97 1430.5 2423.54 1430.5 2424.12 1430.5 2424.12 1430.5 2424.69 1430.5 2424.69 1430.5 2425.26 1430.5 2425.83 1430.5 2425.83 1430.5 2426.41 1430.5 2426.41 1430.5 2426.98 1430.5 2427.55 1430.5 2427.55 1430.5 2428.13 1430.5 2428.13 1430.5 2428.7 1430.5 2428.7 1430.5 2429.27 1430.5 2429.27 1430.5 2429.85 1430.5 2429.85 1430.5 2430.42 1430.5 2430.99 1430.5 2430.99 1430.5 2431.56 1430.5 2431.56 1430.5 2432.14 1430.5 2432.71 1430.5 2432.71 1430.5 2433.28 1430.5 2433.28 1430.5 2433.86 1430.5 2434.43 1430.5 2434.43 1430.5 2435 1430.5 2435 1430.5 2435.57 1430.5 2435.57 1430.5 2436.15 1430.5 2436.72 1430.5 2436.72 1430.5 2437.29 1430.5 2437.29 1430.5 2437.87 1430.5 2437.87 1430.5 2438.44 1430.5 2438.44 1430.5 2439.01 1430.5 2439.59 1430.5 2439.59 1430.5 2440.16 1430.5 2440.16 1430.5 2440.73 1430.5 2441.3 1430.5 2441.3 1430.5 2441.88 1430.5 2441.88 1430.5 2442.45 1430.5 2443.02 1430.5 2443.02 1430.5 2443.6 1430.5 2443.6 1430.5 2444.17 1430.5 2444.17 1430.5 2444.74 1430.5 2444.74 1430.5 2445.32 1430.5 2445.89 1430.5 2445.89 1430.5 2446.46 1430.5 2446.46 1430.5 2447.03 1430.5 2447.03 1430.5 2447.61 1430.5 2448.18 1430.5 2448.18 1430.5 2448.75 1430.5 2448.75 1430.5 2449.33 1430.5 2449.9 1429.93 2449.9 1429.93 2450.47 1429.93 2450.47 1429.93 2451.04 1429.93 2451.62 1429.93 2451.62 1429.93 2452.19 1429.93 2452.19 1429.93 2452.76 1429.93 2452.76 1429.93 2453.34 1429.93 2453.34 1429.93 2453.91 1429.93 2454.48 1429.93 2454.48 1429.36 2455.06 1429.36 2455.06 1429.36 2455.63 1429.36 2455.63 1429.36 2456.2 1428.79 2456.77 1428.79 2456.77 1428.79 2457.35 1428.79 2457.35 1428.79 2457.92 1428.21 2458.49 1428.21 2458.49 1428.21 2459.07 1428.21 2459.07 1427.64 2459.64 1427.64 2460.21 1427.07 2460.21 1427.07 2460.79 1426.5 2460.79 1426.5 2461.36 1426.5 2461.36 1425.93 2461.93 1425.36 2461.93 1425.36 2462.5 1424.79 2462.5 1424.21 2463.08 1424.21 2463.65 1423.64 2463.65 1423.07 2464.22 1422.5 2464.22 1421.93 2464.8 1421.36 2465.37 1420.79 2465.37 1420.21 2465.94 1419.64 2465.94 1419.07 2466.52 1418.5 2467.09 1417.36 2467.09 1416.79 2467.66 1416.21 2467.66 1415.07 2468.23 1414.5 2468.81 1413.36 2468.81 1412.79 2469.38 1411.64 2469.38 1410.5 2469.95 1409.36 2469.95 1408.21 2470.53 1407.07 2470.53 1405.93 2471.1 1404.79 2471.67 1403.64 2471.67 1401.93 2472.24 1400.79 2472.24 1399.64 2472.82 1397.93 2473.39 1396.79 2473.39 1395.07 2473.96 1393.93 2473.96 1392.21 2474.54 1390.5 2475.11 1388.79 2475.11 1387.07 2475.68 1385.93 2475.68 1384.21 2476.26 1382.5 2476.26 1380.79 2476.83 1378.5 2476.83 1376.79 2477.4 1375.07 2477.97 1373.36 2477.97 1371.64 2478.55 1369.93 2478.55 1367.64 2479.12 1365.93 2479.12 1364.21 2479.69 1362.5 2480.27 1360.79 2480.27 1359.07 2480.84 1357.36 2480.84 1355.64 2481.41 1353.93 2481.99 1352.21 2481.99 1350.5 2482.56 1348.79 2482.56 1347.64 2483.13 1345.93 2483.7 1344.79 2483.7 1343.07 2484.28 1341.93 2484.28 1340.79 2484.85 1339.64 2484.85 1338.5 2485.42 1337.93 2485.42 1336.79 2486 1336.21 2486 1335.64 2486.57 1335.07 2487.14 1335.07 2487.14 1334.5 2487.71 1334.5 2487.71 1334.5 2488.29 1334.5 2488.86 1335.07 2488.86 1335.07 2489.43 1335.64 2489.43 1336.21 2490.01 1336.79 2490.58 1337.93 2490.58 1339.07 2491.15 1340.21 2491.15 1341.36 2491.73 1343.07 2492.3 1344.79 2492.3 1346.5 2492.87 1348.21 2492.87 1350.5 2493.44 1352.79 2493.44 1355.07 2494.02 1357.93 2494.02 1360.21 2494.59 1363.07 2494.59 1365.93 2495.16 1368.79 2495.74 1372.21 2495.74 1375.07 2496.31 1378.5 2496.31 1381.93 2496.88 1385.36 2497.46 1389.36 2497.46 1392.79 2498.03 1396.79 2498.03 1400.21 2498.6 1404.21 2499.17 1408.21 2499.17 1412.21 2499.75 1416.21 2499.75 1420.21 2500.32 1424.21 2500.89 1428.21 2500.89 1432.79 2501.47 1436.79 2501.47 1440.79 2502.04 1444.79 2502.04 1448.79 2502.61 1452.79 2502.61 1456.79 2503.19 1460.21 2503.19 1464.21 2503.76 1468.21 2504.33 1471.64 2504.33 1475.64 2504.9 1479.07 2504.9 1482.5 2505.48 1485.36 2506.05 1488.79 2506.05 1491.64 2506.62 1495.07 2506.62 1497.93 2507.2 1500.79 2507.77 1503.07 2507.77 1505.93 2508.34 1508.21 2508.34 1510.5 2508.91 1512.21 2508.91 1514.5 2509.49 1516.21 2510.06 1517.36 2510.06 1519.07 2510.63 1520.79 2510.63 1521.93 2511.21 1523.07 2511.21 1523.64 2511.78 1524.79 2512.35 1525.36 2512.35 1525.93 2512.93 1525.93 2512.93 1526.5 2513.5 1526.5 2514.07 1526.5 2514.07 1526.5 2514.64 1525.93 2514.64 1525.36 2515.22 1525.36 2515.79 1524.79 2515.79 1523.64 2516.36 1523.07 2516.36 1521.93 2516.94 1521.36 2516.94 1520.21 2517.51 1519.07 2517.51 1517.36 2518.08 1516.21 2518.08 1515.07 2518.66 1513.36 2519.23 1512.21 2519.23 1510.5 2519.8 1508.79 2519.8 1507.07 2520.37 1505.36 2520.95 1503.64 2520.95 1501.93 2521.52 1500.21 2521.52 1498.5 2522.09 1496.79 2522.67 1495.07 2522.67 1493.36 2523.24 1491.07 2523.24 1489.36 2523.81 1487.64 2524.38 1485.93 2524.38 1484.21 2524.96 1481.93 2524.96 1480.21 2525.53 1478.5 2525.53 1476.79 2526.1 1475.07 2526.1 1473.93 2526.68 1471.64 2526.68 1470.5 2527.25 1468.79 2527.82 1467.07 2527.82 1465.36 2528.4 1464.21 2528.4 1463.07 2528.97 1461.36 2529.54 1460.21 2529.54 1458.5 2530.11 1457.36 2530.11 1456.21 2530.69 1455.07 2531.26 1453.93 2531.26 1452.79 2531.83 1451.64 2531.83 1450.5 2532.41 1449.36 2532.98 1448.21 2532.98 1447.64 2533.55 1446.5 2533.55 1445.93 2534.13 1444.79 2534.13 1444.21 2534.7 1443.07 2534.7 1442.5 2535.27 1441.93 2535.27 1441.36 2535.84 1440.79 2536.42 1439.64 2536.42 1439.64 2536.99 1439.07 2536.99 1438.5 2537.56 1437.93 2538.14 1437.36 2538.14 1436.79 2538.71 1436.21 2538.71 1436.21 2539.28 1435.64 2539.85 1435.07 2539.85 1435.07 2540.43 1434.5 2540.43 1434.5 2541 1434.5 2541 1433.93 2541.57 1433.36 2542.15 1433.36 2542.15 1433.36 2542.72 1432.79 2542.72 1432.79 2543.29 1432.79 2543.29 1432.79 2543.87 1432.21 2543.87 1432.21 2544.44 1432.21 2545.01 1431.64 2545.01 1431.64 2545.58 1431.64 2545.58 1431.64 2546.16 1431.64 2546.73 1431.64 2546.73 1431.64 2547.3 1431.07 2547.3 1431.07 2547.88 1431.07 2548.45 1431.07 2548.45 1431.07 2549.02 1431.07 2549.02 1431.07 2549.6 1431.07 2549.6 1430.5 2550.17 1430.5 2550.17 1430.5 2550.74 1430.5 2551.31 1430.5 2551.31 1430.5 2551.89 1430.5 2551.89 1430.5 2552.46 1430.5 2552.46 1430.5 2553.03 1430.5 2553.61 1430.5 2553.61 1430.5 2554.18 1430.5 2554.75 1430.5 2554.75 1430.5 2555.33 1430.5 2555.33 1430.5 2555.9 1430.5 2556.47 1430.5 2556.47 1430.5 2557.04 1430.5 2557.04 1430.5 2557.62 1430.5 2557.62 1430.5 2558.19 1430.5 2558.19 1430.5 2558.76 1430.5 2558.76 1430.5 2559.34 1430.5 2559.91 1430.5 2559.91 1430.5 2560.48 1430.5 2560.48 1430.5 2561.05 1430.5 2561.63 1430.5 2561.63 1430.5 2562.2 1430.5 2562.2 1430.5 2562.77 1430.5 2563.35 1430.5 2563.35 1430.5 2563.92 1430.5 2563.92 1430.5 2564.49 1430.5 2565.07 1430.5 2565.07 1430.5 2565.64 1430.5 2565.64 1430.5 2566.21 1430.5 2566.21 1430.5 2566.78 1430.5 2566.78 1430.5 2567.36 1430.5 2567.36 1430.5 2567.93 1430.5 2568.5 1430.5 2568.5 1430.5 2569.08 1430.5 2569.08 1430.5 2569.65 1430.5 2570.22 1430.5 2570.22 1430.5 2570.8 1430.5 2570.8 1430.5 2571.37 1430.5 2571.94 1430.5 2571.94 1430.5 2572.51 1430.5 2572.51 1430.5 2573.09 1430.5 2573.09 1430.5 2573.66 1430.5 2574.23 1430.5 2574.23 1430.5 2574.81 1430.5 2574.81 1430.5 2575.38 1430.5 2575.38 1430.5 2575.95 1430.5 2575.95 1430.5 2576.52 1430.5 2577.1 1430.5 2577.1 1430.5 2577.67 1430.5 2577.67 1430.5 2578.24 1430.5 2578.82 1430.5 2578.82 1430.5 2579.39 1430.5 2579.39 1430.5 2579.96 1430.5 2580.54 1430.5 2580.54 1430.5 2581.11 1430.5 2581.11 1430.5 2581.68 1430.5 2581.68 1430.5 2582.25 1430.5 2582.25 1430.5 2582.83 1430.5 2583.4 1430.5 2583.4 1430.5 2583.97 1430.5 2583.97 1430.5 2584.55 1430.5 2584.55 1430.5 2585.12 1430.5 2585.69 1430.5 2585.69 1430.5 2586.27 1430.5 2586.27 1430.5 2586.84 1430.5 2587.41 1430.5 2587.41 1430.5 2587.98 1430.5 2587.98 1430.5 2588.56 1430.5 2589.13 1430.5 2589.13 1430.5 2589.7 1430.5 2589.7 1430.5 2590.28 1430.5 2590.28 1430.5 2590.85 1430.5 2590.85 1430.5 2591.42 1430.5 2591.42 1430.5 2591.99 1430.5 2592.57 1430.5 2592.57 1430.5 2593.14 1430.5 2593.14 1430.5 2593.71 1430.5 2594.29 1430.5 2594.29 1430.5 2594.86 1430.5 2594.86 1430.5 2595.43 1430.5 2596.01 1430.5 2596.01 1430.5 2596.58 1430.5 2596.58 1430.5 2597.15 1430.5 2597.72 1430.5 2597.72 1430.5 2598.3 1430.5 2598.3 1430.5 2598.87 1430.5 2598.87 1430.5 2599.44 1430.5 2599.44 1430.5 2600.02 1430.5 2600.59 1430.5 2600.59 1430.5 2601.16 1430.5 2601.16 1430.5 2601.74 1430.5 2602.31 1430.5 2602.31 1430.5 2602.88 1430.5 2602.88 1430.5 2603.45 1430.5 2604.03 1430.5 2604.03 1429.93 2604.6 1429.93 2604.6 1429.93 2605.17 1429.93 2605.17 1429.93 2605.75 1429.93 2606.32 1429.93 2606.32 1429.93 2606.89 1429.93 2606.89 1429.93 2607.46 1429.93 2607.46 1429.93 2608.04 1429.93 2608.04 1429.93 2608.61 1429.93 2609.18 1429.36 2609.18 1429.36 2609.76 1429.36 2609.76 1429.36 2610.33 1429.36 2610.9 1428.79 2610.9 1428.79 2611.48 1428.79 2611.48 1428.79 2612.05 1428.79 2612.62 1428.21 2612.62 1428.21 2613.19 1428.21 2613.19 1428.21 2613.77 1427.64 2613.77 1427.64 2614.34 1427.07 2614.34 1427.07 2614.91 1426.5 2615.49 1426.5 2615.49 1426.5 2616.06 1425.93 2616.06 1425.36 2616.63 1425.36 2616.63 1424.79 2617.21 1424.21 2617.78 1424.21 2617.78 1423.64 2618.35 1423.07 2618.35 1422.5 2618.92 1421.93 2619.5 1421.36 2619.5 1420.79 2620.07 1420.21 2620.07 1419.64 2620.64 1419.07 2621.22 1418.5 2621.22 1417.36 2621.79 1416.79 2621.79 1416.21 2622.36 1415.07 2622.36 1414.5 2622.94 1413.36 2622.94 1412.79 2623.51 1411.64 2623.51 1410.5 2624.08 1409.36 2624.65 1408.21 2624.65 1407.07 2625.23 1405.93 2625.23 1404.79 2625.8 1403.64 2626.37 1401.93 2626.37 1400.79 2626.95 1399.64 2626.95 1397.93 2627.52 1396.79 2628.09 1395.07 2628.09 1393.93 2628.66 1392.21 2628.66 1390.5 2629.24 1388.79 2629.81 1387.07 2629.81 1385.93 2630.38 1384.21 2630.38 1382.5 2630.96 1380.79 2630.96 1378.5 2631.53 1376.79 2631.53 1375.07 2632.1 1373.36 2632.1 1371.64 2632.68 1369.93 2633.25 1367.64 2633.25 1365.93 2633.82 1364.21 2633.82 1362.5 2634.39 1360.79 2634.97 1359.07 2634.97 1357.36 2635.54 1355.64 2635.54 1353.93 2636.11 1352.21 2636.69 1350.5 2636.69 1348.79 2637.26 1347.64 2637.26 1345.93 2637.83 1344.79 2638.41 1343.07 2638.41 1341.93 2638.98 1340.79 2638.98 1339.64 2639.55 1338.5 2639.55 1337.93 2640.12 1336.79 2640.12 1336.21 2640.7 1335.64 2640.7 1335.07 2641.27 1335.07 2641.84 1334.5 2641.84 1334.5 2642.42 1334.5 2642.99 1334.5 2642.99 1335.07 2643.56 1335.07 2643.56 1335.64 2644.13 1336.21 2644.71 1336.79 2644.71 1337.93 2645.28 1339.07 2645.28 1340.21 2645.85 1341.36 2645.85 1343.07 2646.43 1344.79 2646.43 1346.5 2647 1348.21 2647.57 1350.5 2647.57 1352.79 2648.15 1355.07 2648.15 1357.93 2648.72 1360.21 2648.72 1363.07 2649.29 1365.93 2649.86 1368.79 2649.86 1372.21 2650.44 1375.07 2650.44 1378.5 2651.01 1381.93 2651.58 1385.36 2651.58 1389.36 2652.16 1392.79 2652.16 1396.79 2652.73 1400.21 2653.3 1404.21 2653.3 1408.21 2653.88 1412.21 2653.88 1416.21 2654.45 1420.21 2654.45 1424.21 2655.02 1428.21 2655.02 1432.79 2655.59 1436.79 2655.59 1440.79 2656.17 1444.79 2656.74 1448.79 2656.74 1452.79 2657.31 1456.79 2657.31 1460.21 2657.89 1464.21 2658.46 1468.21 2658.46 1471.64 2659.03 1475.64 2659.03 1479.07 2659.6 1482.5 2660.18 1485.36 2660.18 1488.79 2660.75 1491.64 2660.75 1495.07 2661.32 1497.93 2661.9 1500.79 2661.9 1503.07 2662.47 1505.93 2662.47 1508.21 2663.04 1510.5 2663.04 1512.21 2663.62 1514.5 2663.62 1516.21 2664.19 1517.36 2664.19 1519.07 2664.76 1520.79 2665.33 1521.93 2665.33 1523.07 2665.91 1523.64 2665.91 1524.79 2666.48 1525.36 2667.05 1525.93 2667.05 1525.93 2667.63 1526.5 2667.63 1526.5 2668.2 1526.5 2668.77 1526.5 2668.77 1525.93 2669.35 1525.36 2669.35 1525.36 2669.92 1524.79 2670.49 1523.64 2670.49 1523.07 2671.06 1521.93 2671.06 1521.36 2671.64 1520.21 2671.64 1519.07 2672.21 1517.36 2672.21 1516.21 2672.78 1515.07 2672.78 1513.36 2673.36 1512.21 2673.93 1510.5 2673.93 1508.79 2674.5 1507.07 2674.5 1505.36 2675.08 1503.64 2675.65 1501.93 2675.65 1500.21 2676.22 1498.5 2676.22 1496.79 2676.79 1495.07 2677.37 1493.36 2677.37 1491.07 2677.94 1489.36 2677.94 1487.64 2678.51 1485.93 2678.51 1484.21 2679.09 1481.93 2679.66 1480.21 2679.66 1478.5 2680.23 1476.79 2680.23 1475.07 2680.8 1473.93 2680.8 1471.64 2681.38 1470.5 2681.38 1468.79 2681.95 1467.07 2682.52 1465.36 2682.52 1464.21 2683.1 1463.07 2683.1 1461.36 2683.67 1460.21 2684.24 1458.5 2684.24 1457.36 2684.82 1456.21 2684.82 1455.07 2685.39 1453.93 2685.96 1452.79 2685.96 1451.64 2686.53 1450.5 2686.53 1449.36 2687.11 1448.21 2687.11 1447.64 2687.68 1446.5 2687.68 1445.93 2688.25 1444.79 2688.83 1444.21 2688.83 1443.07 2689.4 1442.5 2689.4 1441.93 2689.97 1441.36 2690.55 1440.79 2690.55 1439.64 2691.12 1439.64 2691.12 1439.07 2691.69 1438.5 2692.26 1437.93 2692.26 1437.36 2692.84 1436.79 2692.84 1436.21 2693.41 1436.21 2693.98 1435.64 2693.98 1435.07 2694.56 1435.07 2694.56 1434.5 2695.13 1434.5 2695.13 1434.5 2695.7 1433.93 2695.7 1433.36 2696.27 1433.36 2696.27 1433.36 2696.85 1432.79 2697.42 1432.79 2697.42 1432.79 2697.99 1432.79 2697.99 1432.21 2698.57 1432.21 2699.14 1432.21 2699.14 1431.64 2699.71 1431.64 2699.71 1431.64 2700.29 1431.64 2700.86 1431.64 2700.86 1431.64 2701.43 1431.64 2701.43 1431.07 2702 1431.07 2702.58 1431.07 2702.58 1431.07 2703.15 1431.07 2703.15 1431.07 2703.72 1431.07 2703.72 1431.07 2704.3 1430.5 2704.3 1430.5 2704.87 1430.5 2704.87 1430.5 2705.44 1430.5 2706.02 1430.5 2706.02 1430.5 2706.59 1430.5 2706.59 1430.5 2707.16 1430.5 2707.73 1430.5 2707.73 1430.5 2708.31 1430.5 2708.31 1430.5 2708.88 1430.5 2709.45 1430.5 2709.45 1430.5 2710.03 1430.5 2710.03 1430.5 2710.6 1430.5 2710.6 1430.5 2711.17 1430.5 2711.75 1430.5 2711.75 1430.5 2712.32 1430.5 2712.32 1430.5 2712.89 1430.5 2712.89 1430.5 2713.46 1430.5 2713.46 1430.5 2714.04 1430.5 2714.61 1430.5 2714.61 1430.5 2715.18 1430.5 2715.18 1430.5 2715.76 1430.5 2716.33 1430.5 2716.33 1430.5 2716.9 1430.5 2716.9 1430.5 2717.47 1430.5 2718.05 1430.5 2718.05 1430.5 2718.62 1430.5 2718.62 1430.5 2719.19 1430.5 2719.19 1430.5 2719.77 1430.5 2719.77 1430.5 2720.34 1430.5 2720.91 1430.5 2720.91 1430.5 2721.49 1430.5 2721.49 1430.5 2722.06 1430.5 2722.06 1430.5 2722.63 1430.5 2723.2 1430.5 2723.2 1430.5 2723.78 1430.5 2723.78 1430.5 2724.35 1430.5 2724.92 1430.5 2724.92 1430.5 2725.5 1430.5 2725.5 1430.5 2726.07 1430.5 2726.64 1430.5 2726.64 1430.5 2727.22 1430.5 2727.22 1430.5 2727.79 1430.5 2727.79 1430.5 2728.36 1430.5 2728.36 1430.5 2728.93 1430.5 2728.93 1430.5 2729.51 1430.5 2730.08 1430.5 2730.08 1430.5 2730.65 1430.5 2731.23 1430.5 2731.23 1430.5 2731.8 1430.5 2731.8 1430.5 2732.37 1430.5 2732.94 1430.5 2732.94 1430.5 2733.52 1430.5 2733.52 1430.5 2734.09 1430.5 2734.09 1430.5 2734.66 1430.5 2735.24 1430.5 2735.24 1430.5 2735.81 1430.5 2735.81 1430.5 2736.38 1430.5 2736.38 1430.5 2736.96 1430.5 2736.96 1430.5 2737.53 1430.5 2738.1 1430.5 2738.1 1430.5 2738.67 1430.5 2738.67 1430.5 2739.25 1430.5 2739.82 1430.5 2739.82 1430.5 2740.39 1430.5 2740.39 1430.5 2740.97 1430.5 2741.54 1430.5 2741.54 1430.5 2742.11 1430.5 2742.11 1430.5 2742.69 1430.5 2742.69 1430.5 2743.26 1430.5 2743.83 1430.5 2743.83 1430.5 2744.4 1430.5 2744.4 1430.5 2744.98 1430.5 2744.98 1430.5 2745.55 1430.5 2745.55 1430.5 2746.12 1430.5 2746.7 1430.5 2746.7 1430.5 2747.27 1430.5 2747.27 1430.5 2747.84 1430.5 2748.42 1430.5 2748.42 1430.5 2748.99 1430.5 2748.99 1430.5 2749.56 1430.5 2750.13 1430.5 2750.13 1430.5 2750.71 1430.5 2750.71 1430.5 2751.28 1430.5 2751.28 1430.5 2751.85 1430.5 2751.85 1430.5 2752.43 1430.5 2753 1430.5 2753 1430.5 2753.57 1430.5 2753.57 1430.5 2754.14 1430.5 2754.14 1430.5 2754.72 1430.5 2755.29 1430.5 2755.29 1430.5 2755.86 1430.5 2755.86 1430.5 2756.44 1430.5 2757.01 1430.5 2757.01 1430.5 2757.58 1430.5 2757.58 1430.5 2758.16 1430.5 2758.73 1429.93 2758.73 1429.93 2759.3 1429.93 2759.3 1429.93 2759.87 1429.93 2759.87 1429.93 2760.45 1429.93 2760.45 1429.93 2761.02 1429.93 2761.02 1429.93 2761.59 1429.93 2762.17 1429.93 2762.17 1429.93 2762.74 1429.93 2762.74 1429.93 2763.31 1429.36 2763.89 1429.36 2763.89 1429.36 2764.46 1429.36 2764.46 1429.36 2765.03 1428.79 2765.6 1428.79 2765.6 1428.79 2766.18 1428.79 2766.18 1428.79 2766.75 1428.21 2767.32 1428.21 2767.32 1428.21 2767.9 1428.21 2767.9 1427.64 2768.47 1427.64 2768.47 1427.07 2769.04 1427.07 2769.04 1426.5 2769.61 1426.5 2769.61 1426.5 2770.19 1425.93 2770.76 1425.36 2770.76 1425.36 2771.33 1424.79 2771.33 1424.21 2771.91 1424.21 2772.48 1423.64 2772.48 1423.07 2773.05 1422.5 2773.63 1421.93 2773.63 1421.36 2774.2 1420.79 2774.2 1420.21 2774.77 1419.64 2774.77 1419.07 2775.34 1418.5 2775.34 1417.36 2775.92 1416.79 2776.49 1416.21 2776.49 1415.07 2777.06 1414.5 2777.06 1413.36 2777.64 1412.79 2777.64 1411.64 2778.21 1410.5 2778.78 1409.36 2778.78 1408.21 2779.36 1407.07 2779.36 1405.93 2779.93 1404.79 2780.5 1403.64 2780.5 1401.93 2781.07 1400.79 2781.07 1399.64 2781.65 1397.93 2782.22 1396.79 2782.22 1395.07 2782.79 1393.93 2782.79 1392.21 2783.37 1390.5 2783.37 1388.79 2783.94 1387.07 2783.94 1385.93 2784.51 1384.21 2785.08 1382.5 2785.08 1380.79 2785.66 1378.5 2785.66 1376.79 2786.23 1375.07 2786.23 1373.36 2786.8 1371.64 2787.38 1369.93 2787.38 1367.64 2787.95 1365.93 2787.95 1364.21 2788.52 1362.5 2789.1 1360.79 2789.1 1359.07 2789.67 1357.36 2789.67 1355.64 2790.24 1353.93 2790.81 1352.21 2790.81 1350.5 2791.39 1348.79 2791.39 1347.64 2791.96 1345.93 2791.96 1344.79 2792.53 1343.07 2792.53 1341.93 2793.11 1340.79 2793.11 1339.64 2793.68 1338.5 2794.25 1337.93 2794.25 1336.79 2794.83 1336.21 2794.83 1335.64 2795.4 1335.07 2795.97 1335.07 2795.97 1334.5 2796.54 1334.5 2796.54 1334.5 2797.12 1334.5 2797.69 1335.07 2797.69 1335.07 2798.26 1335.64 2798.26 1336.21 2798.84 1336.79 2799.41 1337.93 2799.41 1339.07 2799.98 1340.21 2799.98 1341.36 2800.55 1343.07 2800.55 1344.79 2801.13 1346.5 2801.13 1348.21 2801.7 1350.5 2801.7 1352.79 2802.27 1355.07 2802.85 1357.93 2802.85 1360.21 2803.42 1363.07 2803.42 1365.93 2803.99 1368.79 2804.57 1372.21 2804.57 1375.07 2805.14 1378.5 2805.14 1381.93 2805.71 1385.36 2806.28 1389.36 2806.28 1392.79 2806.86 1396.79 2806.86 1400.21 2807.43 1404.21 2807.43 1408.21 2808 1412.21 2808.58 1416.21 2808.58 1420.21 2809.15 1424.21 2809.15 1428.21 2809.72 1432.79 2809.72 1436.79 2810.3 1440.79 2810.3 1444.79 2810.87 1448.79 2811.44 1452.79 2811.44 1456.79 2812.01 1460.21 2812.01 1464.21 2812.59 1468.21 2813.16 1471.64 2813.16 1475.64 2813.73 1479.07 2813.73 1482.5 2814.31 1485.36 2814.88 1488.79 2814.88 1491.64 2815.45 1495.07 2815.45 1497.93 2816.02 1500.79 2816.02 1503.07 2816.6 1505.93 2816.6 1508.21 2817.17 1510.5 2817.74 1512.21 2817.74 1514.5 2818.32 1516.21 2818.32 1517.36 2818.89 1519.07 2819.46 1520.79 2819.46 1521.93 2820.04 1523.07 2820.04 1523.64 2820.61 1524.79 2821.18 1525.36 2821.18 1525.93 2821.75 1525.93 2821.75 1526.5 2822.33 1526.5 2822.9 1526.5 2822.9 1526.5 2823.47 1525.93 2823.47 1525.36 2824.05 1525.36 2824.05 1524.79 2824.62 1523.64 2824.62 1523.07 2825.19 1521.93 2825.19 1521.36 2825.77 1520.21 2826.34 1519.07 2826.34 1517.36 2826.91 1516.21 2826.91 1515.07 2827.48 1513.36 2828.06 1512.21 2828.06 1510.5 2828.63 1508.79 2828.63 1507.07 2829.2 1505.36 2829.78 1503.64 2829.78 1501.93 2830.35 1500.21 2830.35 1498.5 2830.92 1496.79 2831.5 1495.07 2831.5 1493.36 2832.07 1491.07 2832.07 1489.36 2832.64 1487.64 2832.64 1485.93 2833.21 1484.21 2833.21 1481.93 2833.79 1480.21 2833.79 1478.5 2834.36 1476.79 2834.93 1475.07 2834.93 1473.93 2835.51 1471.64 2835.51 1470.5 2836.08 1468.79 2836.65 1467.07 2836.65 1465.36 2837.22 1464.21 2837.22 1463.07 2837.8 1461.36 2838.37 1460.21 2838.37 1458.5 2838.94 1457.36 2838.94 1456.21 2839.52 1455.07 2839.52 1453.93 2840.09 1452.79 2840.66 1451.64 2840.66 1450.5 2841.24 1449.36 2841.24 1448.21 2841.81 1447.64 2841.81 1446.5 2842.38 1445.93 2842.38 1444.79 2842.95 1444.21 2843.53 1443.07 2843.53 1442.5 2844.1 1441.93 2844.1 1441.36 2844.67 1440.79 2845.25 1439.64 2845.25 1439.64 2845.82 1439.07 2845.82 1438.5 2846.39 1437.93 2846.97 1437.36 2846.97 1436.79 2847.54 1436.21 2847.54 1436.21 2848.11 1435.64 2848.11 1435.07 2848.68 1435.07 2848.68 1434.5 2849.26 1434.5 2849.83 1434.5 2849.83 1433.93 2850.4 1433.36 2850.4 1433.36 2850.98 1433.36 2850.98 1432.79 2851.55 1432.79 2852.12 1432.79 2852.12 1432.79 2852.69 1432.21 2852.69 1432.21 2853.27 1432.21 2853.84 1431.64 2853.84 1431.64 2854.41 1431.64 2854.41 1431.64 2854.99 1431.64 2855.56 1431.64 2855.56 1431.64 2856.13 1431.07 2856.13 1431.07 2856.71 1431.07 2856.71 1431.07 2857.28 1431.07 2857.28 1431.07 2857.85 1431.07 2857.85 1431.07 2858.42 1430.5 2859 1430.5 2859 1430.5 2859.57 1430.5 2859.57 1430.5 2860.14 1430.5 2860.72 1430.5 2860.72 1430.5 2861.29 1430.5 2861.86 1430.5 2861.86 1430.5 2862.44 1430.5 2862.44 1430.5 2863.01 1430.5 2863.58 1430.5 2863.58 1430.5 2864.15 1430.5 2864.15 1430.5 2864.73 1430.5 2864.73 1430.5 2865.3 1430.5 2865.3 1430.5 2865.87 1430.5 2865.87 1430.5 2866.45 1430.5 2867.02 1430.5 2867.02 1430.5 2867.59 1430.5 2867.59 1430.5 2868.17 1430.5 2868.74 1430.5 2868.74 1430.5 2869.31 1430.5 2869.31 1430.5 2869.88 1430.5 2870.46 1430.5 2870.46 1430.5 2871.03 1430.5 2871.03 1430.5 2871.6 1430.5 2871.6 1430.5 2872.18 1430.5 2872.75 1430.5 2872.75 1430.5 2873.32 1430.5 2873.32 1430.5 2873.89 1430.5 2873.89 1430.5 2874.47 1430.5 2874.47 1430.5 2875.04 1430.5 2875.61 1430.5 2875.61 1430.5 2876.19 1430.5 2876.19 1430.5 2876.76 1430.5 2877.33 1430.5 2877.33 1430.5 2877.91 1430.5 2877.91 1430.5 2878.48 1430.5 2879.05 1430.5 2879.05 1430.5 2879.62 1430.5 2879.62 1430.5 2880.2 1430.5 2880.2 1430.5 2880.77 1430.5 2880.77 1430.5 2881.34 1430.5 2881.92 1430.5 2881.92 1430.5 2882.49 1430.5 2882.49 1430.5 2883.06 1430.5 2883.06 1430.5 2883.64 1430.5 2884.21 1430.5 2884.21 1430.5 2884.78 1430.5 2884.78 1430.5 2885.35 1430.5 2885.93 1430.5 2885.93 1430.5 2886.5 1430.5" stroke="#0072BD" stroke-width="3.4375" stroke-linejoin="round" stroke-miterlimit="10" fill="none" fill-rule="evenodd"/></g></svg>