<svg width="2060" height="677" xmlns="http://www.w3.org/2000/svg" xmlns:xlink="http://www.w3.org/1999/xlink" overflow="hidden"><defs><clipPath id="clip0"><rect x="1098" y="1589" width="2060" height="677"/></clipPath></defs><g clip-path="url(#clip0)" transform="translate(-1098 -1589)"><rect x="2590.5" y="1644.5" width="275" height="192" stroke="#000000" stroke-width="3.4375" stroke-miterlimit="8" fill="none"/><text font-family="Times New Roman,Times New Roman_MSFontService,sans-serif" font-weight="400" font-size="73" transform="matrix(1 0 0 1 2661.85 1723)">Unit<tspan font-size="73" x="-22.3438" y="88">Delay</tspan></text><path d="M2927.98 1677.51C2930.19 1677.51 2932.2 1677.64 2934.02 1677.9 2935.84 1678.16 2937.65 1678.62 2939.46 1679.26L2937.85 1686.74 2934.97 1686.74C2934.7 1684.63 2934.01 1683.02 2932.88 1681.93 2931.75 1680.84 2929.98 1680.29 2927.55 1680.29 2925.68 1680.29 2924.15 1680.77 2922.99 1681.73 2921.83 1682.7 2921.24 1683.96 2921.24 1685.53 2921.24 1686.39 2921.39 1687.14 2921.69 1687.79 2921.99 1688.45 2922.59 1689.17 2923.49 1689.95 2924.39 1690.74 2925.79 1691.7 2927.69 1692.84 2929.19 1693.74 2930.39 1694.57 2931.29 1695.32 2932.2 1696.06 2932.91 1696.81 2933.43 1697.54 2933.96 1698.28 2934.34 1699.06 2934.57 1699.88 2934.81 1700.7 2934.93 1701.69 2934.93 1702.85 2934.93 1704.97 2934.37 1706.78 2933.24 1708.29 2932.11 1709.8 2930.58 1710.92 2928.64 1711.66 2926.7 1712.4 2924.5 1712.76 2922.03 1712.76 2920.05 1712.76 2918.12 1712.61 2916.22 1712.32 2914.32 1712.02 2912.2 1711.52 2909.87 1710.8L2911.58 1703.03 2914.36 1703.03C2914.46 1705.31 2915.1 1707.04 2916.29 1708.2 2917.48 1709.37 2919.37 1709.95 2921.96 1709.95 2924.21 1709.95 2925.98 1709.44 2927.25 1708.43 2928.52 1707.42 2929.16 1705.99 2929.16 1704.14 2929.16 1703.07 2928.98 1702.15 2928.62 1701.38 2928.27 1700.6 2927.68 1699.86 2926.88 1699.15 2926.07 1698.43 2924.78 1697.54 2923.03 1696.47 2921.17 1695.36 2919.73 1694.35 2918.69 1693.44 2917.66 1692.54 2916.88 1691.56 2916.36 1690.5 2915.84 1689.45 2915.58 1688.23 2915.58 1686.85 2915.58 1684.97 2916.08 1683.33 2917.09 1681.91 2918.1 1680.5 2919.54 1679.41 2921.42 1678.65 2923.3 1677.89 2925.48 1677.51 2927.98 1677.51Z" fill-rule="evenodd"/><text fill="#000000" fill-opacity="0" font-family="Arial,Arial_MSFontService,sans-serif" font-size="35.2524" x="2909.87" y="1708.36">𝑠</text><path d="M3141.95 1657.3 3157.85 1657.3 3157.85 1725.27 3141.95 1725.27 3141.95 1722.53 3151.93 1722.53 3151.93 1660.04 3141.95 1660.04ZM2951.53 1657.3 2967.43 1657.3 2967.43 1660.04 2957.45 1660.04 2957.45 1722.53 2967.43 1722.53 2967.43 1725.27 2951.53 1725.27Z" fill-rule="evenodd"/><path d="M2980.3 1677.48C2981.8 1677.48 2982.98 1677.97 2983.85 1678.95 2984.71 1679.94 2985.15 1681.23 2985.15 1682.82 2985.15 1684.08 2984.86 1685.48 2984.29 1687.03L2984.72 1687.17C2987.05 1683.89 2989.26 1681.46 2991.37 1679.88 2993.47 1678.3 2995.64 1677.51 2997.87 1677.51 3000.08 1677.51 3001.78 1678.15 3002.97 1679.42 3004.16 1680.69 3004.75 1682.45 3004.75 1684.71 3004.75 1686.21 3004.41 1688.34 3003.72 1691.09L3001.4 1700.43C3000.76 1703.02 3000.44 1704.85 3000.44 1705.92 3000.44 1706.87 3000.59 1707.56 3000.9 1707.99 3001.21 1708.41 3001.7 1708.63 3002.36 1708.63 3003.08 1708.63 3003.84 1708.34 3004.64 1707.76 3005.45 1707.17 3006.59 1706.06 3008.07 1704.42L3010.1 1706.42C3008.05 1708.6 3006.27 1710.2 3004.75 1711.21 3003.23 1712.22 3001.5 1712.73 2999.55 1712.73 2998 1712.73 2996.77 1712.18 2995.84 1711.07 2994.91 1709.97 2994.45 1708.56 2994.45 1706.85 2994.45 1705.3 2994.84 1703.03 2995.63 1700.04L2997.2 1693.87C2997.77 1691.64 2998.14 1689.99 2998.32 1688.92 2998.5 1687.85 2998.59 1686.98 2998.59 1686.32 2998.59 1684.68 2998.31 1683.49 2997.77 1682.77 2997.22 1682.04 2996.33 1681.68 2995.09 1681.68 2994.09 1681.68 2993.02 1682.08 2991.87 1682.88 2990.71 1683.67 2989.49 1684.87 2988.19 1686.48 2986.9 1688.08 2985.86 1689.64 2985.08 1691.15 2984.29 1692.65 2983.65 1694.51 2983.15 1696.72L2979.76 1712.16 2973.6 1712.16 2978.8 1689.56C2979.33 1687.28 2979.59 1685.52 2979.59 1684.28 2979.59 1683.33 2979.43 1682.64 2979.12 1682.22 2978.81 1681.79 2978.33 1681.57 2977.66 1681.57 2976.93 1681.57 2976.15 1681.88 2975.33 1682.48 2974.51 1683.09 2973.38 1684.19 2971.96 1685.78L2969.93 1683.78C2972.11 1681.5 2973.93 1679.88 2975.38 1678.92 2976.83 1677.96 2978.47 1677.48 2980.3 1677.48Z" fill-rule="evenodd"/><text fill="#000000" fill-opacity="0" font-family="Arial,Arial_MSFontService,sans-serif" font-size="35.2524" x="2969.93" y="1708.32">𝑛</text><path d="M3033.76 1688.92 3077.67 1688.92 3077.67 1693.66 3033.76 1693.66Z" fill-rule="evenodd"/><text fill="#000000" fill-opacity="0" font-family="Arial,Arial_MSFontService,sans-serif" font-size="4.74072" x="3033.76" y="1693.07">−</text><path d="M3120.1 1662.93C3122.78 1662.93 3125.13 1663.35 3127.15 1664.18 3129.17 1665.01 3130.72 1666.21 3131.79 1667.76 3132.86 1669.32 3133.39 1671.18 3133.39 1673.34 3133.39 1675.36 3132.99 1677.14 3132.18 1678.67 3131.37 1680.2 3130.24 1681.54 3128.77 1682.68 3127.31 1683.82 3125.42 1684.94 3123.09 1686.03L3123.09 1686.35C3124.54 1686.61 3125.94 1687.06 3127.28 1687.69 3128.62 1688.32 3129.81 1689.13 3130.86 1690.13 3131.91 1691.13 3132.74 1692.32 3133.37 1693.71 3134 1695.1 3134.32 1696.69 3134.32 1698.47 3134.32 1701.23 3133.72 1703.67 3132.52 1705.81 3131.32 1707.95 3129.48 1709.64 3127.01 1710.87 3124.54 1712.11 3121.53 1712.73 3117.99 1712.73 3115.95 1712.73 3113.74 1712.5 3111.38 1712.03 3109.02 1711.57 3106.85 1710.96 3104.88 1710.2L3104.88 1702.64 3109.15 1702.64C3109.98 1705.11 3111.08 1706.91 3112.45 1708.02 3113.82 1709.14 3115.68 1709.7 3118.03 1709.7 3121.12 1709.7 3123.45 1708.85 3125.03 1707.17 3126.61 1705.48 3127.4 1702.98 3127.4 1699.68 3127.4 1696.21 3126.36 1693.56 3124.27 1691.73 3122.17 1689.9 3119.11 1688.99 3115.07 1688.99L3111.86 1688.99 3111.86 1685.85C3115.07 1685.66 3117.77 1685.04 3119.97 1684 3122.17 1682.95 3123.8 1681.61 3124.87 1679.97 3125.94 1678.33 3126.48 1676.49 3126.48 1674.45 3126.48 1671.81 3125.77 1669.78 3124.37 1668.35 3122.97 1666.92 3120.93 1666.21 3118.24 1666.21 3116.01 1666.21 3114.19 1666.82 3112.79 1668.03 3111.39 1669.24 3110.35 1671.09 3109.69 1673.59L3105.41 1673.59 3105.41 1666.82C3108.17 1665.51 3110.74 1664.54 3113.14 1663.89 3115.54 1663.25 3117.86 1662.93 3120.1 1662.93Z" fill-rule="evenodd"/><text fill="#000000" fill-opacity="0" font-family="Arial,Arial_MSFontService,sans-serif" font-size="49.7954" x="3104.88" y="1706.5">3</text><path d="M2316.55 1677.51C2318.76 1677.51 2320.78 1677.64 2322.59 1677.9 2324.41 1678.16 2326.22 1678.62 2328.03 1679.26L2326.43 1686.74 2323.54 1686.74C2323.28 1684.63 2322.58 1683.02 2321.45 1681.93 2320.33 1680.84 2318.55 1680.29 2316.13 1680.29 2314.25 1680.29 2312.73 1680.77 2311.56 1681.73 2310.4 1682.7 2309.82 1683.96 2309.82 1685.53 2309.82 1686.39 2309.96 1687.14 2310.26 1687.79 2310.56 1688.45 2311.16 1689.17 2312.06 1689.95 2312.96 1690.74 2314.37 1691.7 2316.27 1692.84 2317.76 1693.74 2318.96 1694.57 2319.87 1695.32 2320.77 1696.06 2321.48 1696.81 2322.01 1697.54 2322.53 1698.28 2322.91 1699.06 2323.15 1699.88 2323.38 1700.7 2323.5 1701.69 2323.5 1702.85 2323.5 1704.97 2322.94 1706.78 2321.81 1708.29 2320.68 1709.8 2319.15 1710.92 2317.21 1711.66 2315.28 1712.4 2313.07 1712.76 2310.6 1712.76 2308.63 1712.76 2306.69 1712.61 2304.79 1712.32 2302.89 1712.02 2300.77 1711.52 2298.45 1710.8L2300.16 1703.03 2302.94 1703.03C2303.03 1705.31 2303.67 1707.04 2304.86 1708.2 2306.05 1709.37 2307.94 1709.95 2310.53 1709.95 2312.79 1709.95 2314.55 1709.44 2315.82 1708.43 2317.09 1707.42 2317.73 1705.99 2317.73 1704.14 2317.73 1703.07 2317.55 1702.15 2317.19 1701.38 2316.84 1700.6 2316.26 1699.86 2315.45 1699.15 2314.64 1698.43 2313.36 1697.54 2311.6 1696.47 2309.74 1695.36 2308.3 1694.35 2307.27 1693.44 2306.23 1692.54 2305.46 1691.56 2304.93 1690.5 2304.41 1689.45 2304.15 1688.23 2304.15 1686.85 2304.15 1684.97 2304.65 1683.33 2305.66 1681.91 2306.67 1680.5 2308.12 1679.41 2309.99 1678.65 2311.87 1677.89 2314.06 1677.51 2316.55 1677.51Z" fill-rule="evenodd"/><text fill="#000000" fill-opacity="0" font-family="Arial,Arial_MSFontService,sans-serif" font-size="35.2524" x="2298.45" y="1708.36">𝑠</text><path d="M2530.53 1657.3 2546.42 1657.3 2546.42 1725.27 2530.53 1725.27 2530.53 1722.53 2540.51 1722.53 2540.51 1660.04 2530.53 1660.04ZM2340.1 1657.3 2356 1657.3 2356 1660.04 2346.02 1660.04 2346.02 1722.53 2356 1722.53 2356 1725.27 2340.1 1725.27Z" fill-rule="evenodd"/><path d="M2368.87 1677.48C2370.37 1677.48 2371.55 1677.97 2372.42 1678.95 2373.29 1679.94 2373.72 1681.23 2373.72 1682.82 2373.72 1684.08 2373.44 1685.48 2372.86 1687.03L2373.29 1687.17C2375.62 1683.89 2377.84 1681.46 2379.94 1679.88 2382.04 1678.3 2384.21 1677.51 2386.45 1677.51 2388.66 1677.51 2390.35 1678.15 2391.54 1679.42 2392.73 1680.69 2393.32 1682.45 2393.32 1684.71 2393.32 1686.21 2392.98 1688.34 2392.29 1691.09L2389.97 1700.43C2389.33 1703.02 2389.01 1704.85 2389.01 1705.92 2389.01 1706.87 2389.17 1707.56 2389.48 1707.99 2389.78 1708.41 2390.27 1708.63 2390.94 1708.63 2391.65 1708.63 2392.41 1708.34 2393.22 1707.76 2394.03 1707.17 2395.17 1706.06 2396.64 1704.42L2398.67 1706.42C2396.63 1708.6 2394.85 1710.2 2393.32 1711.21 2391.8 1712.22 2390.07 1712.73 2388.12 1712.73 2386.58 1712.73 2385.34 1712.18 2384.41 1711.07 2383.49 1709.97 2383.02 1708.56 2383.02 1706.85 2383.02 1705.3 2383.42 1703.03 2384.2 1700.04L2385.77 1693.87C2386.34 1691.64 2386.71 1689.99 2386.89 1688.92 2387.07 1687.85 2387.16 1686.98 2387.16 1686.32 2387.16 1684.68 2386.89 1683.49 2386.34 1682.77 2385.79 1682.04 2384.9 1681.68 2383.67 1681.68 2382.67 1681.68 2381.59 1682.08 2380.44 1682.88 2379.29 1683.67 2378.06 1684.87 2376.77 1686.48 2375.47 1688.08 2374.43 1689.64 2373.65 1691.15 2372.86 1692.65 2372.22 1694.51 2371.72 1696.72L2368.34 1712.16 2362.17 1712.16 2367.38 1689.56C2367.9 1687.28 2368.16 1685.52 2368.16 1684.28 2368.16 1683.33 2368.01 1682.64 2367.7 1682.22 2367.39 1681.79 2366.9 1681.57 2366.23 1681.57 2365.5 1681.57 2364.72 1681.88 2363.9 1682.48 2363.08 1683.09 2361.96 1684.19 2360.53 1685.78L2358.5 1683.78C2360.69 1681.5 2362.5 1679.88 2363.95 1678.92 2365.4 1677.96 2367.04 1677.48 2368.87 1677.48Z" fill-rule="evenodd"/><text fill="#000000" fill-opacity="0" font-family="Arial,Arial_MSFontService,sans-serif" font-size="35.2524" x="2358.5" y="1708.32">𝑛</text><path d="M2422.33 1688.92 2466.25 1688.92 2466.25 1693.66 2422.33 1693.66Z" fill-rule="evenodd"/><text fill="#000000" fill-opacity="0" font-family="Arial,Arial_MSFontService,sans-serif" font-size="4.74072" x="2422.33" y="1693.07">−</text><path d="M2508.81 1662.93C2513.23 1662.93 2516.57 1663.9 2518.83 1665.84 2521.08 1667.77 2522.21 1670.58 2522.21 1674.27 2522.21 1675.53 2522.09 1676.69 2521.84 1677.74 2521.59 1678.8 2521.2 1679.85 2520.66 1680.88 2520.13 1681.91 2519.41 1683.02 2518.51 1684.21 2517.6 1685.4 2516.61 1686.61 2515.51 1687.83 2514.42 1689.05 2512.53 1691.09 2509.84 1693.94 2505.33 1698.72 2502.01 1702.89 2499.9 1706.45L2513.34 1706.45C2514.5 1706.45 2515.44 1706.38 2516.15 1706.24 2516.87 1706.1 2517.44 1705.86 2517.86 1705.53 2518.29 1705.19 2518.63 1704.76 2518.88 1704.23 2519.13 1703.69 2519.45 1702.87 2519.83 1701.75L2522.85 1701.75 2522.25 1712.16 2492.91 1712.16 2492.91 1710.45C2493.94 1707.95 2495.31 1705.4 2497.05 1702.78 2498.78 1700.17 2501.24 1697.09 2504.43 1693.55 2507.18 1690.51 2509.17 1688.2 2510.38 1686.64 2511.71 1684.93 2512.7 1683.45 2513.36 1682.2 2514.01 1680.95 2514.48 1679.77 2514.76 1678.67 2515.05 1677.56 2515.19 1676.45 2515.19 1675.34 2515.19 1673.55 2514.91 1671.98 2514.34 1670.61 2513.77 1669.25 2512.89 1668.17 2511.72 1667.39 2510.54 1666.6 2509.06 1666.21 2507.28 1666.21 2502.83 1666.21 2499.84 1668.68 2498.3 1673.63L2493.98 1673.63 2493.98 1666.78C2496.86 1665.43 2499.55 1664.45 2502.06 1663.84 2504.56 1663.24 2506.81 1662.93 2508.81 1662.93Z" fill-rule="evenodd"/><text fill="#000000" fill-opacity="0" font-family="Arial,Arial_MSFontService,sans-serif" font-size="49.2251" x="2492.91" y="1706">2</text><path d="M1712.39 1677.51C1714.6 1677.51 1716.61 1677.64 1718.43 1677.9 1720.25 1678.16 1722.06 1678.62 1723.87 1679.26L1722.26 1686.74 1719.38 1686.74C1719.12 1684.63 1718.42 1683.02 1717.29 1681.93 1716.16 1680.84 1714.39 1680.29 1711.96 1680.29 1710.09 1680.29 1708.56 1680.77 1707.4 1681.73 1706.24 1682.7 1705.65 1683.96 1705.65 1685.53 1705.65 1686.39 1705.8 1687.14 1706.1 1687.79 1706.4 1688.45 1707 1689.17 1707.9 1689.95 1708.8 1690.74 1710.2 1691.7 1712.11 1692.84 1713.6 1693.74 1714.8 1694.57 1715.71 1695.32 1716.61 1696.06 1717.32 1696.81 1717.84 1697.54 1718.37 1698.28 1718.75 1699.06 1718.98 1699.88 1719.22 1700.7 1719.34 1701.69 1719.34 1702.85 1719.34 1704.97 1718.78 1706.78 1717.65 1708.29 1716.52 1709.8 1714.99 1710.92 1713.05 1711.66 1711.11 1712.4 1708.91 1712.76 1706.44 1712.76 1704.47 1712.76 1702.53 1712.61 1700.63 1712.32 1698.73 1712.02 1696.61 1711.52 1694.28 1710.8L1695.99 1703.03 1698.77 1703.03C1698.87 1705.31 1699.51 1707.04 1700.7 1708.2 1701.89 1709.37 1703.78 1709.95 1706.37 1709.95 1708.62 1709.95 1710.39 1709.44 1711.66 1708.43 1712.93 1707.42 1713.57 1705.99 1713.57 1704.14 1713.57 1703.07 1713.39 1702.15 1713.03 1701.38 1712.68 1700.6 1712.09 1699.86 1711.29 1699.15 1710.48 1698.43 1709.19 1697.54 1707.44 1696.47 1705.58 1695.36 1704.14 1694.35 1703.1 1693.44 1702.07 1692.54 1701.29 1691.56 1700.77 1690.5 1700.25 1689.45 1699.99 1688.23 1699.99 1686.85 1699.99 1684.97 1700.49 1683.33 1701.5 1681.91 1702.51 1680.5 1703.95 1679.41 1705.83 1678.65 1707.71 1677.89 1709.9 1677.51 1712.39 1677.51Z" fill-rule="evenodd"/><text fill="#000000" fill-opacity="0" font-family="Arial,Arial_MSFontService,sans-serif" font-size="35.2524" x="1694.28" y="1708.36">𝑠</text><path d="M1926.36 1657.3 1942.26 1657.3 1942.26 1725.27 1926.36 1725.27 1926.36 1722.53 1936.34 1722.53 1936.34 1660.04 1926.36 1660.04ZM1735.94 1657.3 1751.84 1657.3 1751.84 1660.04 1741.86 1660.04 1741.86 1722.53 1751.84 1722.53 1751.84 1725.27 1735.94 1725.27Z" fill-rule="evenodd"/><path d="M1764.71 1677.48C1766.21 1677.48 1767.39 1677.97 1768.26 1678.95 1769.12 1679.94 1769.56 1681.23 1769.56 1682.82 1769.56 1684.08 1769.27 1685.48 1768.7 1687.03L1769.13 1687.17C1771.46 1683.89 1773.67 1681.46 1775.78 1679.88 1777.88 1678.3 1780.05 1677.51 1782.28 1677.51 1784.49 1677.51 1786.19 1678.15 1787.38 1679.42 1788.57 1680.69 1789.16 1682.45 1789.16 1684.71 1789.16 1686.21 1788.82 1688.34 1788.13 1691.09L1785.81 1700.43C1785.17 1703.02 1784.85 1704.85 1784.85 1705.92 1784.85 1706.87 1785 1707.56 1785.31 1707.99 1785.62 1708.41 1786.11 1708.63 1786.77 1708.63 1787.49 1708.63 1788.25 1708.34 1789.06 1707.76 1789.86 1707.17 1791 1706.06 1792.48 1704.42L1794.51 1706.42C1792.47 1708.6 1790.68 1710.2 1789.16 1711.21 1787.64 1712.22 1785.91 1712.73 1783.96 1712.73 1782.41 1712.73 1781.18 1712.18 1780.25 1711.07 1779.32 1709.97 1778.86 1708.56 1778.86 1706.85 1778.86 1705.3 1779.25 1703.03 1780.04 1700.04L1781.61 1693.87C1782.18 1691.64 1782.55 1689.99 1782.73 1688.92 1782.91 1687.85 1783 1686.98 1783 1686.32 1783 1684.68 1782.72 1683.49 1782.18 1682.77 1781.63 1682.04 1780.74 1681.68 1779.5 1681.68 1778.5 1681.68 1777.43 1682.08 1776.28 1682.88 1775.12 1683.67 1773.9 1684.87 1772.61 1686.48 1771.31 1688.08 1770.27 1689.64 1769.49 1691.15 1768.7 1692.65 1768.06 1694.51 1767.56 1696.72L1764.18 1712.16 1758.01 1712.16 1763.21 1689.56C1763.74 1687.28 1764 1685.52 1764 1684.28 1764 1683.33 1763.84 1682.64 1763.53 1682.22 1763.22 1681.79 1762.74 1681.57 1762.07 1681.57 1761.34 1681.57 1760.56 1681.88 1759.74 1682.48 1758.92 1683.09 1757.79 1684.19 1756.37 1685.78L1754.34 1683.78C1756.52 1681.5 1758.34 1679.88 1759.79 1678.92 1761.24 1677.96 1762.88 1677.48 1764.71 1677.48Z" fill-rule="evenodd"/><text fill="#000000" fill-opacity="0" font-family="Arial,Arial_MSFontService,sans-serif" font-size="35.2524" x="1754.34" y="1708.32">𝑛</text><path d="M1818.17 1688.92 1862.08 1688.92 1862.08 1693.66 1818.17 1693.66Z" fill-rule="evenodd"/><text fill="#000000" fill-opacity="0" font-family="Arial,Arial_MSFontService,sans-serif" font-size="4.74072" x="1818.17" y="1693.07">−</text><path d="M1907.18 1662.93 1909.14 1662.93C1909 1665.21 1908.93 1668.37 1908.93 1672.41L1908.93 1702.85C1908.93 1704.23 1909 1705.27 1909.16 1705.97 1909.31 1706.67 1909.59 1707.24 1909.98 1707.68 1910.37 1708.12 1910.93 1708.47 1911.67 1708.72 1912.41 1708.97 1913.33 1709.16 1914.45 1709.29 1915.57 1709.42 1917.04 1709.51 1918.87 1709.56L1918.87 1712.16 1892.53 1712.16 1892.53 1709.56C1895.17 1709.44 1897.05 1709.28 1898.18 1709.07 1899.31 1708.87 1900.17 1708.57 1900.76 1708.17 1901.36 1707.76 1901.79 1707.19 1902.06 1706.45 1902.34 1705.72 1902.47 1704.52 1902.47 1702.85L1902.47 1673.95C1902.47 1673 1902.31 1672.3 1901.97 1671.86 1901.64 1671.42 1901.16 1671.2 1900.51 1671.2 1899.75 1671.2 1898.67 1671.59 1897.27 1672.38 1895.87 1673.16 1894.13 1674.24 1892.07 1675.62L1890.5 1672.88Z" fill-rule="evenodd"/><text fill="#000000" fill-opacity="0" font-family="Arial,Arial_MSFontService,sans-serif" font-size="49.2251" x="1890.5" y="1706">1</text><path d="M1656 1738.85 1958.85 1738.85 1958.85 1741.15 1656 1741.15ZM1954.27 1726.25 1981.77 1740 1954.27 1753.75Z"/><path d="M2338.5 2134C2338.5 2094.51 2370.29 2062.5 2409.5 2062.5 2448.71 2062.5 2480.5 2094.51 2480.5 2134 2480.5 2173.49 2448.71 2205.5 2409.5 2205.5 2370.29 2205.5 2338.5 2173.49 2338.5 2134Z" stroke="#000000" stroke-width="3.4375" stroke-linejoin="round" stroke-miterlimit="10" fill="none" fill-rule="evenodd"/><text font-family="Times New Roman,Times New Roman_MSFontService,sans-serif" font-weight="400" font-size="110" transform="matrix(1 0 0 1 2378.32 2174)">+</text><rect x="1985.5" y="1644.5" width="275" height="192" stroke="#000000" stroke-width="3.4375" stroke-miterlimit="8" fill="none"/><text font-family="Times New Roman,Times New Roman_MSFontService,sans-serif" font-weight="400" font-size="73" transform="matrix(1 0 0 1 2056.85 1723)">Unit<tspan font-size="73" x="-22.3439" y="88">Delay</tspan></text><path d="M1235.03 1677.56C1237.24 1677.56 1239.25 1677.69 1241.07 1677.95 1242.89 1678.21 1244.7 1678.66 1246.51 1679.31L1244.9 1686.79 1242.02 1686.79C1241.76 1684.68 1241.06 1683.07 1239.93 1681.98 1238.8 1680.89 1237.03 1680.34 1234.6 1680.34 1232.73 1680.34 1231.2 1680.82 1230.04 1681.78 1228.88 1682.75 1228.29 1684.01 1228.29 1685.58 1228.29 1686.43 1228.44 1687.19 1228.74 1687.84 1229.04 1688.5 1229.64 1689.22 1230.54 1690 1231.44 1690.78 1232.84 1691.75 1234.75 1692.89 1236.24 1693.79 1237.44 1694.62 1238.35 1695.36 1239.25 1696.11 1239.96 1696.85 1240.48 1697.59 1241.01 1698.33 1241.39 1699.11 1241.62 1699.93 1241.86 1700.75 1241.98 1701.74 1241.98 1702.9 1241.98 1705.02 1241.42 1706.83 1240.29 1708.34 1239.16 1709.85 1237.63 1710.97 1235.69 1711.71 1233.75 1712.44 1231.55 1712.81 1229.08 1712.81 1227.11 1712.81 1225.17 1712.66 1223.27 1712.37 1221.37 1712.07 1219.25 1711.56 1216.92 1710.85L1218.63 1703.08 1221.41 1703.08C1221.51 1705.36 1222.15 1707.08 1223.34 1708.25 1224.53 1709.41 1226.42 1710 1229.01 1710 1231.26 1710 1233.03 1709.49 1234.3 1708.48 1235.57 1707.47 1236.21 1706.04 1236.21 1704.19 1236.21 1703.12 1236.03 1702.2 1235.67 1701.42 1235.32 1700.65 1234.73 1699.91 1233.93 1699.2 1233.12 1698.48 1231.83 1697.59 1230.08 1696.52 1228.22 1695.41 1226.78 1694.4 1225.75 1693.49 1224.71 1692.59 1223.93 1691.61 1223.41 1690.55 1222.89 1689.49 1222.63 1688.28 1222.63 1686.9 1222.63 1685.02 1223.13 1683.38 1224.14 1681.96 1225.15 1680.55 1226.59 1679.46 1228.47 1678.7 1230.35 1677.94 1232.54 1677.56 1235.03 1677.56Z" fill-rule="evenodd"/><text fill="#000000" fill-opacity="0" font-family="Arial,Arial_MSFontService,sans-serif" font-size="35.2524" x="1216.92" y="1708.41">𝑠</text><path d="M1320.74 1657.35 1336.64 1657.35 1336.64 1725.32 1320.74 1725.32 1320.74 1722.58 1330.72 1722.58 1330.72 1660.09 1320.74 1660.09ZM1258.58 1657.35 1274.48 1657.35 1274.48 1660.09 1264.5 1660.09 1264.5 1722.58 1274.48 1722.58 1274.48 1725.32 1258.58 1725.32Z" fill-rule="evenodd"/><path d="M1287.35 1677.52C1288.85 1677.52 1290.03 1678.02 1290.9 1679 1291.76 1679.99 1292.2 1681.28 1292.2 1682.87 1292.2 1684.13 1291.91 1685.53 1291.34 1687.08L1291.77 1687.22C1294.1 1683.94 1296.31 1681.51 1298.42 1679.93 1300.52 1678.35 1302.69 1677.56 1304.92 1677.56 1307.13 1677.56 1308.83 1678.19 1310.02 1679.47 1311.21 1680.74 1311.8 1682.5 1311.8 1684.76 1311.8 1686.26 1311.46 1688.38 1310.77 1691.14L1308.45 1700.48C1307.81 1703.07 1307.49 1704.9 1307.49 1705.97 1307.49 1706.92 1307.64 1707.61 1307.95 1708.04 1308.26 1708.46 1308.75 1708.68 1309.41 1708.68 1310.13 1708.68 1310.89 1708.39 1311.7 1707.8 1312.5 1707.22 1313.64 1706.11 1315.12 1704.47L1317.15 1706.47C1315.11 1708.65 1313.32 1710.25 1311.8 1711.26 1310.28 1712.27 1308.55 1712.78 1306.6 1712.78 1305.05 1712.78 1303.82 1712.22 1302.89 1711.12 1301.96 1710.01 1301.5 1708.61 1301.5 1706.89 1301.5 1705.35 1301.89 1703.08 1302.68 1700.09L1304.25 1693.92C1304.82 1691.69 1305.19 1690.03 1305.37 1688.97 1305.55 1687.9 1305.64 1687.03 1305.64 1686.36 1305.64 1684.72 1305.36 1683.54 1304.82 1682.82 1304.27 1682.09 1303.38 1681.73 1302.14 1681.73 1301.14 1681.73 1300.07 1682.13 1298.92 1682.92 1297.76 1683.72 1296.54 1684.92 1295.25 1686.52 1293.95 1688.13 1292.91 1689.68 1292.13 1691.19 1291.34 1692.7 1290.7 1694.56 1290.2 1696.77L1286.82 1712.21 1280.65 1712.21 1285.85 1689.61C1286.38 1687.33 1286.64 1685.57 1286.64 1684.33 1286.64 1683.38 1286.48 1682.69 1286.17 1682.26 1285.86 1681.84 1285.38 1681.62 1284.71 1681.62 1283.98 1681.62 1283.2 1681.93 1282.38 1682.53 1281.56 1683.14 1280.44 1684.24 1279.01 1685.83L1276.98 1683.83C1279.16 1681.55 1280.98 1679.93 1282.43 1678.97 1283.88 1678 1285.52 1677.52 1287.35 1677.52Z" fill-rule="evenodd"/><text fill="#000000" fill-opacity="0" font-family="Arial,Arial_MSFontService,sans-serif" font-size="35.2524" x="1276.98" y="1708.37">𝑛</text><path d="M1099.5 1924C1099.5 1884.51 1131.29 1852.5 1170.5 1852.5 1209.71 1852.5 1241.5 1884.51 1241.5 1924 1241.5 1963.49 1209.71 1995.5 1170.5 1995.5 1131.29 1995.5 1099.5 1963.49 1099.5 1924Z" stroke="#000000" stroke-width="3.4375" stroke-linejoin="round" stroke-miterlimit="10" fill="none" fill-rule="evenodd"/><path d="M1166.23 1926.28C1164.74 1926.28 1163.55 1926.78 1162.69 1927.77 1161.82 1928.77 1161.21 1930.18 1160.85 1932 1160.49 1933.82 1160.32 1936.07 1160.32 1938.75 1160.32 1943.36 1160.79 1946.71 1161.74 1948.8 1162.69 1950.9 1164.2 1951.94 1166.27 1951.94 1168.22 1951.94 1169.66 1950.97 1170.6 1949.02 1171.54 1947.07 1172.01 1943.96 1172.01 1939.68 1172.01 1935.12 1171.54 1931.74 1170.6 1929.56 1169.66 1927.37 1168.21 1926.28 1166.23 1926.28ZM1166.27 1923.71C1168.34 1923.71 1170.07 1924.08 1171.47 1924.82 1172.87 1925.55 1174.01 1926.58 1174.88 1927.9 1175.74 1929.22 1176.36 1930.8 1176.73 1932.64 1177.1 1934.48 1177.28 1936.51 1177.28 1938.72 1177.28 1943.92 1176.3 1947.85 1174.34 1950.51 1172.38 1953.18 1169.56 1954.51 1165.88 1954.51 1162.24 1954.51 1159.53 1953.25 1157.73 1950.73 1155.94 1948.21 1155.04 1944.42 1155.04 1939.36 1155.04 1935.84 1155.52 1932.91 1156.48 1930.57 1157.45 1928.23 1158.77 1926.5 1160.44 1925.39 1162.12 1924.27 1164.06 1923.71 1166.27 1923.71ZM1131.02 1903.86C1129.52 1903.86 1128.34 1904.36 1127.47 1905.35 1126.6 1906.35 1125.99 1907.76 1125.63 1909.58 1125.28 1911.39 1125.1 1913.65 1125.1 1916.33 1125.1 1920.94 1125.57 1924.29 1126.53 1926.38 1127.48 1928.47 1128.98 1929.52 1131.05 1929.52 1133 1929.52 1134.44 1928.55 1135.38 1926.6 1136.32 1924.65 1136.79 1921.54 1136.79 1917.26 1136.79 1912.7 1136.32 1909.32 1135.38 1907.14 1134.44 1904.95 1132.99 1903.86 1131.02 1903.86ZM1161.74 1901.86 1166.91 1901.86 1135.47 1953.94 1130.23 1953.94ZM1201.58 1901.29C1206 1901.29 1209.34 1902.26 1211.59 1904.19 1213.85 1906.13 1214.98 1908.94 1214.98 1912.62 1214.98 1913.88 1214.85 1915.04 1214.6 1916.1 1214.36 1917.16 1213.96 1918.2 1213.43 1919.24 1212.89 1920.27 1212.18 1921.38 1211.27 1922.57 1210.37 1923.76 1209.37 1924.96 1208.28 1926.19 1207.18 1927.41 1205.3 1929.45 1202.61 1932.3 1198.1 1937.08 1194.78 1941.25 1192.67 1944.81L1206.1 1944.81C1207.27 1944.81 1208.21 1944.74 1208.92 1944.6 1209.63 1944.46 1210.2 1944.22 1210.63 1943.88 1211.06 1943.55 1211.4 1943.12 1211.65 1942.58 1211.9 1942.05 1212.21 1941.22 1212.59 1940.11L1215.62 1940.11 1215.01 1950.51 1185.68 1950.51 1185.68 1948.8C1186.7 1946.31 1188.08 1943.75 1189.81 1941.14 1191.55 1938.53 1194.01 1935.45 1197.19 1931.91 1199.95 1928.87 1201.93 1926.56 1203.15 1924.99 1204.48 1923.28 1205.47 1921.8 1206.12 1920.56 1206.77 1919.31 1207.24 1918.13 1207.53 1917.03 1207.81 1915.92 1207.96 1914.81 1207.96 1913.69 1207.96 1911.91 1207.67 1910.34 1207.1 1908.97 1206.53 1907.6 1205.66 1906.53 1204.48 1905.75 1203.31 1904.96 1201.83 1904.57 1200.04 1904.57 1195.6 1904.57 1192.61 1907.04 1191.06 1911.98L1186.75 1911.98 1186.75 1905.14C1189.62 1903.78 1192.32 1902.8 1194.82 1902.2 1197.33 1901.59 1199.58 1901.29 1201.58 1901.29ZM1131.05 1901.29C1133.12 1901.29 1134.85 1901.66 1136.26 1902.39 1137.66 1903.13 1138.79 1904.16 1139.66 1905.48 1140.53 1906.8 1141.15 1908.38 1141.51 1910.22 1141.88 1912.06 1142.07 1914.09 1142.07 1916.3 1142.07 1921.5 1141.09 1925.43 1139.13 1928.09 1137.16 1930.76 1134.34 1932.09 1130.66 1932.09 1127.02 1932.09 1124.31 1930.83 1122.52 1928.31 1120.72 1925.79 1119.82 1922 1119.82 1916.94 1119.82 1913.42 1120.31 1910.49 1121.27 1908.15 1122.23 1905.81 1123.55 1904.08 1125.22 1902.96 1126.9 1901.85 1128.84 1901.29 1131.05 1901.29Z" fill-rule="evenodd"/><text fill="#000000" fill-opacity="0" font-family="Arial,Arial_MSFontService,sans-serif" font-size="53.2173" x="1119.82" y="1947.85">%2</text><path d="M2337.92 2135.11 1168.85 2135.11 1168.85 2017.92 1171.15 2017.92 1171.15 2133.96 1170 2132.82 2337.92 2132.82ZM1156.25 2022.5 1170 1995 1183.75 2022.5Z"/><rect x="1381.5" y="1644.5" width="275" height="192" stroke="#000000" stroke-width="3.4375" stroke-miterlimit="8" fill="none"/><text font-family="Times New Roman,Times New Roman_MSFontService,sans-serif" font-weight="400" font-size="73" transform="matrix(1 0 0 1 1452.69 1723)">Unit<tspan font-size="73" x="-22.3438" y="88">Delay</tspan></text><path d="M1168.85 1852.25 1168.85 1738.85 1357.36 1738.85 1357.36 1741.15 1170 1741.15 1171.15 1740 1171.15 1852.25ZM1352.78 1726.25 1380.28 1740 1352.78 1753.75Z"/><path d="M0 1.14583-187.003 1.14583-185.857 0-185.857 393.433-187.003 392.287 361.379 392.287 361.379 394.579-188.148 394.579-188.148-1.14583 0-1.14583ZM356.796 379.683 384.296 393.433 356.796 407.183Z" transform="matrix(-1 0 0 1 2864.3 1740)"/><path d="M2260 1738.85 2410.74 1738.85 2410.74 2039.4 2408.45 2039.4 2408.45 1740 2409.59 1741.15 2260 1741.15ZM2423.34 2034.82 2409.59 2062.32 2395.84 2034.82Z"/><path d="M2260 1738.85 2567.08 1738.85 2567.08 1741.15 2260 1741.15ZM2562.5 1726.25 2590 1740 2562.5 1753.75Z"/><path d="M2567.3 1930.7 2571.33 1930.7 2565.84 1952.48 2566.31 1952.62C2568.23 1950.29 2570.17 1948.57 2572.12 1947.47 2574.07 1946.36 2576.23 1945.81 2578.6 1945.81 2581.03 1945.81 2582.93 1946.5 2584.31 1947.88 2585.69 1949.26 2586.37 1951.14 2586.37 1953.51 2586.37 1954.27 2586.3 1955.22 2586.14 1956.36 2585.99 1957.5 2585.8 1958.51 2585.59 1959.39L2582.77 1970.51C2582.37 1972.11 2582.17 1973.5 2582.17 1974.68 2582.17 1975.61 2582.32 1976.25 2582.63 1976.61 2582.94 1976.97 2583.38 1977.14 2583.95 1977.14 2584.64 1977.14 2585.41 1976.82 2586.25 1976.18 2587.09 1975.54 2588.11 1974.54 2589.3 1973.19L2591.86 1975.75C2589.53 1978.13 2587.45 1979.82 2585.61 1980.82 2583.77 1981.81 2581.74 1982.31 2579.53 1982.31 2577.11 1982.31 2575.29 1981.72 2574.08 1980.53 2572.87 1979.34 2572.26 1977.52 2572.26 1975.08 2572.26 1973.2 2572.58 1971.02 2573.22 1968.55L2574.86 1962.35C2575.27 1960.81 2575.61 1959.29 2575.9 1957.81 2576.18 1956.32 2576.32 1955.12 2576.32 1954.19 2576.32 1953.17 2576.11 1952.38 2575.68 1951.84 2575.25 1951.29 2574.61 1951.02 2573.76 1951.02 2572.54 1951.02 2571.13 1951.78 2569.51 1953.32 2567.9 1954.85 2566.69 1956.36 2565.9 1957.86 2565.1 1959.36 2564.48 1961.22 2564.03 1963.46L2560.1 1981.74 2549.87 1981.74 2558.89 1941.46C2559.42 1939.13 2559.68 1937.44 2559.68 1936.37 2559.68 1935.84 2559.62 1935.43 2559.52 1935.14 2559.41 1934.84 2559.25 1934.6 2559.04 1934.41 2558.82 1934.22 2558.54 1934.07 2558.18 1933.96 2557.82 1933.85 2557.12 1933.73 2556.08 1933.59L2556.65 1931.27Z" fill="#4472C4" fill-rule="evenodd"/><text fill="#000000" fill-opacity="0" font-family="Arial,Arial_MSFontService,sans-serif" font-size="51.6133" x="2549.87" y="1975.86">𝒉</text><path d="M2608.74 1960.97C2611.27 1960.97 2613.34 1961.31 2614.95 1961.99 2616.55 1962.67 2617.71 1963.59 2618.43 1964.76 2619.14 1965.92 2619.5 1967.28 2619.5 1968.83 2619.5 1970.2 2619.25 1971.47 2618.74 1972.64 2618.23 1973.81 2617.35 1975.15 2616.1 1976.65 2614.85 1978.15 2612.74 1980.3 2609.77 1983.09 2608.86 1983.96 2607.77 1985.09 2606.5 1986.5 2605.23 1987.9 2604.22 1989.11 2603.48 1990.11L2603.48 1990.37 2612.67 1990.37C2613.79 1990.37 2614.63 1990.28 2615.18 1990.12 2615.73 1989.96 2616.17 1989.67 2616.49 1989.27 2616.81 1988.86 2617.07 1988.25 2617.28 1987.44L2620.25 1987.44 2619.66 1996.71 2595.95 1996.71 2595.95 1995C2597.28 1991.94 2600 1988.01 2604.1 1983.2 2605.97 1981.01 2607.39 1979.2 2608.36 1977.79 2609.34 1976.37 2610.06 1975.04 2610.55 1973.78 2611.03 1972.52 2611.27 1971.22 2611.27 1969.87 2611.27 1967.97 2610.85 1966.48 2610 1965.41 2609.16 1964.33 2608 1963.79 2606.54 1963.79 2603.72 1963.79 2601.92 1965.82 2601.13 1969.87L2596.47 1969.87 2596.47 1963.76C2599.28 1962.62 2601.55 1961.87 2603.28 1961.51 2605 1961.15 2606.82 1960.97 2608.74 1960.97Z" fill="#4472C4" fill-rule="evenodd"/><text fill="#000000" fill-opacity="0" font-family="Arial,Arial_MSFontService,sans-serif" font-size="35.7388" x="2595.95" y="1992.24">𝟐</text><path d="M2653.82 1965.92 2697.73 1965.92 2697.73 1970.66 2653.82 1970.66ZM2653.82 1951.12 2697.73 1951.12 2697.73 1955.86 2653.82 1955.86Z" fill="#4472C4" fill-rule="evenodd"/><text fill="#000000" fill-opacity="0" font-family="Arial,Arial_MSFontService,sans-serif" font-size="19.5332" x="2653.82" y="1968.21">=</text><path d="M2744.59 1930.7 2748.62 1930.7 2743.13 1952.48 2743.59 1952.62C2745.51 1950.29 2747.45 1948.57 2749.4 1947.47 2751.35 1946.36 2753.51 1945.81 2755.89 1945.81 2758.31 1945.81 2760.21 1946.5 2761.59 1947.88 2762.97 1949.26 2763.66 1951.14 2763.66 1953.51 2763.66 1954.27 2763.58 1955.22 2763.43 1956.36 2763.27 1957.5 2763.09 1958.51 2762.87 1959.39L2760.06 1970.51C2759.65 1972.11 2759.45 1973.5 2759.45 1974.68 2759.45 1975.61 2759.61 1976.25 2759.92 1976.61 2760.22 1976.97 2760.66 1977.14 2761.23 1977.14 2761.92 1977.14 2762.69 1976.82 2763.53 1976.18 2764.38 1975.54 2765.39 1974.54 2766.58 1973.19L2769.15 1975.75C2766.82 1978.13 2764.73 1979.82 2762.89 1980.82 2761.05 1981.81 2759.02 1982.31 2756.81 1982.31 2754.39 1982.31 2752.57 1981.72 2751.36 1980.53 2750.15 1979.34 2749.54 1977.52 2749.54 1975.08 2749.54 1973.2 2749.86 1971.02 2750.5 1968.55L2752.14 1962.35C2752.55 1960.81 2752.89 1959.29 2753.18 1957.81 2753.46 1956.32 2753.61 1955.12 2753.61 1954.19 2753.61 1953.17 2753.39 1952.38 2752.96 1951.84 2752.54 1951.29 2751.9 1951.02 2751.04 1951.02 2749.83 1951.02 2748.41 1951.78 2746.8 1953.32 2745.18 1954.85 2743.98 1956.36 2743.18 1957.86 2742.38 1959.36 2741.76 1961.22 2741.31 1963.46L2737.39 1981.74 2727.16 1981.74 2736.18 1941.46C2736.7 1939.13 2736.96 1937.44 2736.96 1936.37 2736.96 1935.84 2736.91 1935.43 2736.8 1935.14 2736.69 1934.84 2736.53 1934.6 2736.32 1934.41 2736.1 1934.22 2735.82 1934.07 2735.46 1933.96 2735.11 1933.85 2734.41 1933.73 2733.36 1933.59L2733.93 1931.27Z" fill="#4472C4" fill-rule="evenodd"/><text fill="#000000" fill-opacity="0" font-family="Arial,Arial_MSFontService,sans-serif" font-size="51.6133" x="2727.16" y="1975.86">𝒉</text><path d="M2786.1 1960.97C2789.36 1960.97 2791.96 1961.63 2793.91 1962.96 2795.86 1964.29 2796.84 1966.14 2796.84 1968.52 2796.84 1970.53 2796.26 1972.25 2795.12 1973.7 2793.97 1975.15 2792.05 1976.5 2789.36 1977.74L2789.36 1977.97C2791.88 1978.44 2793.86 1979.45 2795.32 1981 2796.78 1982.55 2797.51 1984.47 2797.51 1986.77 2797.51 1988.77 2797.02 1990.55 2796.05 1992.11 2795.07 1993.67 2793.59 1994.9 2791.61 1995.79 2789.62 1996.68 2787.22 1997.12 2784.39 1997.12 2782.44 1997.12 2780.52 1996.94 2778.64 1996.59 2776.76 1996.24 2775.12 1995.74 2773.73 1995.1L2773.73 1988.61 2778.38 1988.61C2778.89 1990.57 2779.59 1992 2780.51 1992.89 2781.42 1993.78 2782.62 1994.22 2784.1 1994.22 2787.76 1994.22 2789.59 1991.96 2789.59 1987.44 2789.59 1985.01 2788.95 1983.2 2787.66 1982.01 2786.38 1980.82 2784.42 1980.22 2781.8 1980.22L2779.76 1980.22 2779.76 1977.27C2782.76 1977.15 2785.04 1976.45 2786.59 1975.16 2788.14 1973.88 2788.92 1972.02 2788.92 1969.59 2788.92 1967.67 2788.53 1966.23 2787.75 1965.25 2786.98 1964.28 2785.85 1963.79 2784.36 1963.79 2782.91 1963.79 2781.72 1964.31 2780.79 1965.34 2779.86 1966.38 2779.22 1967.89 2778.88 1969.9L2774.22 1969.9 2774.22 1963.76C2778.58 1961.9 2782.54 1960.97 2786.1 1960.97Z" fill="#4472C4" fill-rule="evenodd"/><text fill="#000000" fill-opacity="0" font-family="Arial,Arial_MSFontService,sans-serif" font-size="36.1528" x="2773.73" y="1992.6">𝟑</text><path d="M2831.1 1965.92 2875.01 1965.92 2875.01 1970.66 2831.1 1970.66ZM2831.1 1951.12 2875.01 1951.12 2875.01 1955.86 2831.1 1955.86Z" fill="#4472C4" fill-rule="evenodd"/><text fill="#000000" fill-opacity="0" font-family="Arial,Arial_MSFontService,sans-serif" font-size="19.5332" x="2831.1" y="1968.21">=</text><path d="M2925.61 1932.52 2930.18 1932.52C2930.03 1934.8 2929.96 1937.96 2929.96 1942L2929.96 1971.8C2929.96 1973.18 2930.04 1974.21 2930.19 1974.92 2930.35 1975.62 2930.62 1976.19 2931.01 1976.63 2931.41 1977.07 2931.97 1977.41 2932.71 1977.66 2933.44 1977.91 2934.37 1978.1 2935.49 1978.23 2936.6 1978.36 2938.08 1978.45 2939.91 1978.5L2939.91 1981.74 2909.15 1981.74 2909.15 1978.5C2911.78 1978.38 2913.67 1978.22 2914.8 1978.02 2915.92 1977.82 2916.79 1977.51 2917.38 1977.11 2917.97 1976.7 2918.41 1976.13 2918.68 1975.4 2918.95 1974.66 2919.09 1973.46 2919.09 1971.8L2919.09 1946.03C2919.09 1945.05 2918.91 1944.35 2918.54 1943.92 2918.17 1943.5 2917.67 1943.28 2917.02 1943.28 2916.43 1943.28 2915.59 1943.55 2914.51 1944.1 2913.43 1944.65 2911.65 1945.76 2909.18 1947.45L2907.01 1943.67Z" fill="#4472C4" fill-rule="evenodd"/><text fill="#000000" fill-opacity="0" font-family="Arial,Arial_MSFontService,sans-serif" font-size="49.2251" x="2907.01" y="1975.59">𝟏</text><path d="M1724.15 1931 1728.18 1931 1722.69 1952.78 1723.15 1952.92C1725.08 1950.59 1727.01 1948.87 1728.96 1947.77 1730.91 1946.66 1733.07 1946.11 1735.45 1946.11 1737.87 1946.11 1739.78 1946.8 1741.15 1948.18 1742.53 1949.56 1743.22 1951.43 1743.22 1953.81 1743.22 1954.57 1743.14 1955.52 1742.99 1956.66 1742.83 1957.8 1742.65 1958.81 1742.44 1959.69L1739.62 1970.81C1739.22 1972.4 1739.02 1973.79 1739.02 1974.98 1739.02 1975.91 1739.17 1976.55 1739.48 1976.91 1739.79 1977.26 1740.23 1977.44 1740.8 1977.44 1741.49 1977.44 1742.25 1977.12 1743.1 1976.48 1743.94 1975.84 1744.96 1974.84 1746.14 1973.49L1748.71 1976.05C1746.38 1978.43 1744.3 1980.11 1742.45 1981.11 1740.61 1982.11 1738.59 1982.61 1736.38 1982.61 1733.95 1982.61 1732.14 1982.02 1730.92 1980.83 1729.71 1979.64 1729.11 1977.82 1729.11 1975.37 1729.11 1973.5 1729.43 1971.32 1730.07 1968.85L1731.71 1962.65C1732.11 1961.1 1732.46 1959.59 1732.74 1958.1 1733.03 1956.62 1733.17 1955.41 1733.17 1954.49 1733.17 1953.46 1732.96 1952.68 1732.53 1952.13 1732.1 1951.59 1731.46 1951.31 1730.6 1951.31 1729.39 1951.31 1727.98 1952.08 1726.36 1953.61 1724.75 1955.15 1723.54 1956.66 1722.74 1958.16 1721.95 1959.66 1721.32 1961.52 1720.87 1963.75L1716.95 1982.04 1706.72 1982.04 1715.74 1941.76C1716.26 1939.43 1716.52 1937.73 1716.52 1936.66 1716.52 1936.14 1716.47 1935.73 1716.36 1935.43 1716.26 1935.14 1716.1 1934.89 1715.88 1934.7 1715.67 1934.51 1715.38 1934.37 1715.03 1934.26 1714.67 1934.15 1713.97 1934.03 1712.92 1933.88L1713.49 1931.57Z" fill="#4472C4" fill-rule="evenodd"/><text fill="#000000" fill-opacity="0" font-family="Arial,Arial_MSFontService,sans-serif" font-size="51.6133" x="1706.72" y="1976.16">𝒉</text><path d="M1767.6 1961.27 1770.91 1961.27C1770.81 1962.92 1770.76 1965.22 1770.76 1968.15L1770.76 1989.78C1770.76 1990.78 1770.81 1991.54 1770.93 1992.05 1771.04 1992.56 1771.24 1992.97 1771.52 1993.29 1771.81 1993.61 1772.22 1993.86 1772.75 1994.04 1773.29 1994.22 1773.96 1994.36 1774.77 1994.46 1775.58 1994.55 1776.65 1994.61 1777.98 1994.65L1777.98 1997 1755.64 1997 1755.64 1994.65C1757.56 1994.56 1758.93 1994.45 1759.75 1994.3 1760.57 1994.15 1761.19 1993.93 1761.62 1993.64 1762.05 1993.35 1762.37 1992.93 1762.57 1992.4 1762.77 1991.86 1762.87 1990.99 1762.87 1989.78L1762.87 1971.07C1762.87 1970.37 1762.73 1969.86 1762.46 1969.55 1762.2 1969.24 1761.83 1969.08 1761.36 1969.08 1760.93 1969.08 1760.32 1969.28 1759.54 1969.68 1758.75 1970.07 1757.47 1970.88 1755.67 1972.11L1754.09 1969.37Z" fill="#4472C4" fill-rule="evenodd"/><text fill="#000000" fill-opacity="0" font-family="Arial,Arial_MSFontService,sans-serif" font-size="35.7388" x="1754.09" y="1992.54">𝟏</text><path d="M1810.66 1966.21 1854.58 1966.21 1854.58 1970.95 1810.66 1970.95ZM1810.66 1951.42 1854.58 1951.42 1854.58 1956.16 1810.66 1956.16Z" fill="#4472C4" fill-rule="evenodd"/><text fill="#000000" fill-opacity="0" font-family="Arial,Arial_MSFontService,sans-serif" font-size="19.5332" x="1810.66" y="1968.51">=</text><path d="M1902.54 1936.81C1900.85 1936.81 1899.52 1937.55 1898.55 1939.03 1897.57 1940.52 1896.87 1942.73 1896.44 1945.66 1896.02 1948.6 1895.8 1952.42 1895.8 1957.12 1895.8 1962.35 1896.03 1966.51 1896.5 1969.6 1896.96 1972.69 1897.69 1974.96 1898.69 1976.43 1899.69 1977.89 1901.02 1978.62 1902.68 1978.62 1903.59 1978.62 1904.38 1978.4 1905.05 1977.96 1905.73 1977.52 1906.34 1976.83 1906.87 1975.89 1907.41 1974.95 1907.86 1973.7 1908.24 1972.15 1908.62 1970.59 1908.9 1968.66 1909.06 1966.34 1909.23 1964.02 1909.31 1961.44 1909.31 1958.59 1909.31 1954.33 1909.15 1950.76 1908.83 1947.86 1908.51 1944.96 1908.05 1942.72 1907.46 1941.16 1906.86 1939.59 1906.16 1938.47 1905.36 1937.8 1904.55 1937.14 1903.61 1936.81 1902.54 1936.81ZM1902.75 1932.81C1908.6 1932.81 1912.96 1934.8 1915.83 1938.79 1918.71 1942.77 1920.15 1948.85 1920.15 1957.05 1920.15 1965.47 1918.62 1971.83 1915.57 1976.14 1912.51 1980.45 1908.03 1982.61 1902.11 1982.61 1896.27 1982.61 1891.95 1980.58 1889.16 1976.53 1886.36 1972.48 1884.97 1966.36 1884.97 1958.16 1884.97 1949.94 1886.52 1943.66 1889.64 1939.32 1892.75 1934.98 1897.12 1932.81 1902.75 1932.81Z" fill="#4472C4" fill-rule="evenodd"/><text fill="#000000" fill-opacity="0" font-family="Arial,Arial_MSFontService,sans-serif" font-size="49.7954" x="1884.97" y="1976.39">𝟎</text></g></svg>