<svg width="3313" height="509" xmlns="http://www.w3.org/2000/svg" xmlns:xlink="http://www.w3.org/1999/xlink" overflow="hidden"><defs><clipPath id="clip0"><rect x="400" y="1723" width="3313" height="509"/></clipPath></defs><g clip-path="url(#clip0)" transform="translate(-400 -1723)"><path d="M400 2232 417.796 2232 436.167 2232 417.796 2106.52 400 2232ZM490.704 2232 509.074 2232 527.444 2232 509.074 1978.18 490.704 2232ZM581.981 2232 600.352 2232 618.722 2232 600.352 1904.85 581.981 2232ZM673.259 2232 691.63 2232 710 2232 691.63 1855 673.259 2232Z" fill="#0000FF" fill-rule="evenodd"/><path d="M764 2232 782.371 2232 800.167 2232 782.371 1818.81 764 2232ZM855.278 2232 873.074 2232 891.445 2232 873.074 1790.77 855.278 2232ZM946.556 2232 964.352 2232 982.722 2232 964.352 1769.6 946.556 2232ZM1037.83 2232 1055.63 2232 1074 2232 1055.63 1753 1037.83 2232Z" fill="#0000FF" fill-rule="evenodd"/><path d="M1128 2232 1146.31 2232 1164.62 2232 1146.31 1740.2 1128 2232ZM1218.98 2232 1237.29 2232 1255.61 2232 1237.29 1731.6 1218.98 2232ZM1309.97 2232 1328.28 2232 1346.59 2232 1328.28 1725.87 1309.97 2232ZM1400.95 2232 1419.26 2232 1437 2232 1419.26 1723 1400.95 2232Z" fill="#0000FF" fill-rule="evenodd"/><path d="M1492 2232 1510.34 2232 1528.67 2232 1510.34 1723 1492 2232ZM1583.11 2232 1601.45 2232 1619.78 2232 1601.45 1724.72 1583.11 2232ZM1674.22 2232 1692.55 2232 1710.89 2232 1692.55 1728.73 1674.22 2232ZM1765.33 2232 1783.66 2232 1802 2232 1783.66 1734.45 1765.33 2232Z" fill="#0000FF" fill-rule="evenodd"/><path d="M1856 2232 1874.37 2232 1892.17 2232 1874.37 1742 1856 2232ZM1947.28 2232 1965.65 2232 1983.44 2232 1965.65 1751.17 1947.28 2232ZM2038.56 2232 2056.35 2232 2074.72 2232 2056.35 1762.63 2038.56 2232ZM2129.26 2232 2147.63 2232 2166 2232 2147.63 1775.81 2129.26 2232Z" fill="#0000FF" fill-rule="evenodd"/><path d="M2220 2232 2238.31 2232 2256.62 2232 2238.31 1790 2220 2232ZM2310.98 2232 2329.29 2232 2347.61 2232 2329.29 1806.62 2310.98 2232ZM2401.97 2232 2420.28 2232 2438.02 2232 2420.28 1824.4 2401.97 2232ZM2492.95 2232 2511.26 2232 2529 2232 2511.26 1843.89 2492.95 2232Z" fill="#0000FF" fill-rule="evenodd"/><path d="M2584 2232 2601.8 2232 2620.17 2232 2601.8 1865 2584 2232ZM2675.28 2232 2693.07 2232 2711.44 2232 2693.07 1887.33 2675.28 2232ZM2765.98 2232 2784.35 2232 2802.72 2232 2784.35 1910.8 2765.98 2232ZM2857.26 2232 2875.63 2232 2894 2232 2875.63 1936 2857.26 2232Z" fill="#0000FF" fill-rule="evenodd"/><path d="M2948 2232 2966.35 2232 2984.7 2232 2966.35 1962 2948 2232ZM3039.18 2232 3057.53 2232 3075.31 2232 3057.53 1990.09 3039.18 2232ZM3130.36 2232 3148.14 2232 3166.49 2232 3148.14 2019.32 3130.36 2232ZM3221.54 2232 3239.32 2232 3257.67 2232 3239.32 2050.28 3221.54 2232ZM3312.15 2232 3330.5 2232 3348.85 2232 3330.5 2081.81 3312.15 2232ZM3403.33 2232 3421.68 2232 3440.03 2232 3421.68 2115.63 3403.33 2232ZM3494.51 2232 3512.86 2232 3531.21 2232 3512.86 2150.03 3494.51 2232ZM3585.69 2232 3604.04 2232 3622.39 2232 3604.04 2186.14 3585.69 2232ZM3676.87 2232 3694.65 2232 3713 2232 3694.65 2223.4 3676.87 2232Z" fill="#0000FF" fill-rule="evenodd"/></g></svg>