<svg width="2725" height="508" xmlns="http://www.w3.org/2000/svg" xmlns:xlink="http://www.w3.org/1999/xlink" overflow="hidden"><defs><clipPath id="clip0"><rect x="897" y="972" width="2725" height="508"/></clipPath></defs><g clip-path="url(#clip0)" transform="translate(-897 -972)"><path d="M899 1225.5 902.437 1447.21 905.301 1225.5 908.166 994.624 911.03 1225.5 914.467 1462.1 917.332 1225.5 920.769 983.739 923.633 1225.5 926.498 1471.27 929.362 1225.5 932.799 978.583 935.664 1225.5 938.528 1467.83 941.392 1225.5 944.83 997.488 947.694 1225.5 950.558 1425.44 953.996 1225.5 956.86 1069.67 959.724 1225.5 963.162 1321.17 966.026 1225.5 968.89 1202.58 972.328 1225.5 975.192 1171.65 978.056 1225.5 980.921 1350.96 984.358 1225.5 987.222 1044.47 990.66 1225.5 993.524 1437.47 996.388 1225.5 999.253 1013.53 1002.69 1225.5 1005.55 1406.53 1008.42 1225.5 1011.86 1100.04 1014.72 1225.5 1017.58 1279.35 1020.45 1225.5 1023.89 1248.42 1026.75 1225.5 1029.61 1129.83 1032.48 1225.5 1035.92 1381.33 1038.78 1225.5 1042.22 1025.56 1045.08 1225.5 1047.95 1453.51 1050.81 1225.5 1054.25 982.593 1057.11 1225.5 1060.55 1474.71 1063.41 1225.5 1066.28 974 1069.14 1225.5 1072.58 1477 1075.44 1225.5 1078.31 976.291 1081.75 1225.5 1084.61 1468.41 1087.48 1225.5 1090.34 997.488 1093.78 1225.5 1096.64 1425.44 1099.51 1225.5 1102.94 1069.67 1105.81 1225.5 1108.67 1321.17 1112.11 1225.5 1114.97 1202.58 1117.84 1225.5 1120.7 1171.65 1124.14 1225.5 1127 1350.96 1130.44 1225.5 1133.3 1044.47 1136.17 1225.5 1139.03 1437.47 1142.47 1225.5 1145.34 1013.53 1148.2 1225.5 1151.64 1406.53 1154.5 1225.5 1157.37 1100.04 1160.23 1225.5 1163.67 1279.35 1166.53 1225.5 1169.4 1248.42 1172.83 1225.5 1175.7 1129.83 1178.56 1225.5 1182 1381.33 1184.86 1225.5 1187.73 1025.56 1190.59 1225.5 1194.03 1453.51 1196.89 1225.5 1200.33 983.739 1203.2 1225.5 1206.06 1470.13 1208.92 1225.5 1212.36 985.458 1215.23 1225.5 1218.09 1457.52 1221.53 1225.5 1224.39 1001.5 1227.26 1225.5 1230.12 1444.35 1233.56 1225.5 1236.42 1009.52 1239.86 1225.5 1242.72 1441.48 1245.59 1225.5 1248.45 1006.65 1251.89 1225.5 1254.75 1449.5 1257.62 1225.5 1260.48 993.478 1263.92 1225.5 1266.78 1465.54 1270.22 1225.5 1273.09 980.875 1275.95 1225.5 1278.81 1467.83 1282.25 1225.5 1285.12 997.488 1287.98 1225.5 1291.42 1425.44 1294.28 1225.5 1297.15 1068.53 1300.01 1225.5 1303.45 1325.76 1306.31 1225.5 1309.75 1191.13 1312.61 1225.5 1315.48 1191.13 1318.34 1225.5 1321.78 1325.76 1324.64 1225.5 1327.51 1068.53 1330.95 1225.5 1333.81 1425.44 1336.67 1225.5 1340.11 997.488 1342.98 1225.5 1345.84 1468.41 1348.71 1225.5 1352.14 976.291 1355.01 1225.5 1357.87 1477 1361.31 1225.5 1364.17 974 1367.04 1225.5 1369.9 1474.71 1373.34 1225.5 1376.2 982.593 1379.64 1225.5 1382.5 1453.51 1385.37 1225.5 1388.23 1025.56 1391.67 1225.5 1394.53 1381.33 1397.4 1225.5 1400.84 1129.83 1403.7 1225.5 1406.57 1248.42 1410 1225.5 1412.87 1279.35 1415.73 1225.5 1418.6 1100.04 1422.03 1225.5 1424.9 1406.53 1427.76 1225.5 1431.2 1013.53 1434.06 1225.5 1436.93 1437.47 1439.79 1225.5 1443.23 1045.04 1446.09 1225.5 1449.53 1346.38 1452.4 1225.5 1455.26 1183.11 1458.12 1225.5 1461.56 1183.11 1464.43 1225.5 1467.29 1346.38 1470.73 1225.5 1473.59 1045.04 1476.46 1225.5 1479.89 1437.47 1482.76 1225.5 1485.62 1013.53 1488.49 1225.5 1491.92 1406.53 1494.79 1225.5 1497.65 1100.04 1501.09 1225.5 1503.95 1279.35 1506.82 1225.5 1509.68 1248.42 1513.12 1225.5 1515.98 1129.83 1519.42 1225.5 1522.29 1381.33 1525.15 1225.5 1528.01 1025.56 1531.45 1225.5 1534.32 1453.51 1537.18 1225.5 1540.62 983.739 1543.48 1225.5 1546.35 1470.13 1549.21 1225.5 1552.65 985.458 1555.51 1225.5 1558.95 1457.52 1561.81 1225.5 1564.68 1001.5 1567.54 1225.5 1570.98 1444.35 1573.84 1225.5 1576.71 1009.52 1579.57 1225.5 1583.01 1441.48 1585.87 1225.5 1589.31 1006.65 1592.18 1225.5 1595.04 1449.5 1597.9 1225.5 1601.34 993.478 1604.21 1225.5 1607.07 1465.54 1610.51 1225.5 1613.37 980.875 1616.24 1225.5 1619.1 1467.83 1622.54 1225.5 1625.4 997.488 1628.84 1225.5 1631.7 1425.44 1634.57 1225.5 1637.43 1068.53 1640.87 1225.5 1643.73 1325.76 1646.6 1225.5 1650.04 1191.13 1652.9 1225.5 1655.76 1191.13 1659.2 1225.5 1662.07 1325.76 1664.93 1225.5 1667.8 1068.53 1671.23 1225.5 1674.1 1425.44 1676.96 1225.5 1680.4 997.488 1683.26 1225.5 1686.13 1467.83 1688.99 1225.5 1692.43 980.875 1695.29 1225.5 1698.73 1465.54 1701.59 1225.5 1704.46 993.478 1707.32 1225.5 1710.76 1449.5 1713.62 1225.5 1716.49 1006.65 1719.93 1225.5 1722.79 1441.48 1725.66 1225.5 1729.09 1008.95 1731.96 1225.5 1734.82 1443.2 1737.69 1225.5 1741.12 1006.08 1743.99 1225.5 1746.85 1445.49 1750.29 1225.5 1753.15 1005.51 1756.02 1225.5 1758.88 1444.92 1762.32 1225.5 1765.18 1007.8 1768.62 1225.5 1771.49 1442.05 1774.35 1225.5 1777.21 1009.52 1780.65 1225.5 1783.52 1444.35 1786.95 1225.5 1789.82 1001.5 1792.68 1225.5 1795.55 1457.52 1798.98 1225.5 1801.85 985.458 1804.71 1225.5 1807.58 1470.13 1811.01 1225.5 1813.88 983.739 1816.74 1225.5 1820.18 1453.51 1823.04 1225.5 1825.91 1025.56 1828.77 1225.5 1832.21 1382.47 1835.07 1225.5 1838.51 1125.24 1841.38 1225.5 1844.24 1260.45 1847.1 1225.5 1850.54 1260.45 1853.41 1225.5 1856.84 1125.24 1859.71 1225.5 1862.57 1382.47 1865.44 1225.5 1868.87 1025.56 1871.74 1225.5 1874.6 1453.51 1878.04 1225.5 1880.9 983.739 1883.77 1225.5 1886.63 1470.13 1890.07 1225.5 1892.93 985.458 1895.8 1225.5 1898.66 1457.52 1902.1 1225.5 1904.96 1001.5 1908.4 1225.5 1911.27 1444.35 1914.13 1225.5 1916.99 1009.52 1920.43 1225.5 1923.3 1442.05 1926.73 1225.5 1929.6 1007.8 1932.46 1225.5 1935.33 1444.92 1938.76 1225.5 1941.63 1005.51 1944.49 1225.5 1947.93 1445.49 1950.79 1225.5 1953.66 1006.08 1956.52 1225.5 1959.96 1443.2 1962.82 1225.5 1965.69 1008.95 1969.13 1225.5 1971.99 1441.48 1974.85 1225.5 1978.29 1006.65 1981.16 1225.5 1984.02 1449.5 1986.89 1225.5 1990.32 993.478 1993.19 1225.5 1996.05 1465.54 1999.49 1225.5 2002.35 980.875 2005.22 1225.5 2008.65 1467.83 2011.52 1225.5 2014.38 997.488 2017.82 1225.5 2020.68 1425.44 2023.55 1225.5 2026.41 1069.67 2029.85 1225.5 2032.72 1321.17 2035.58 1225.5 2039.02 1202.58 2041.88 1225.5 2044.75 1171.65 2048.18 1225.5 2051.05 1350.96 2053.91 1225.5 2056.78 1044.47 2060.21 1225.5 2063.08 1437.47 2065.94 1225.5 2069.38 1013.53 2072.24 1225.5 2075.11 1405.96 2078.54 1225.5 2081.41 1104.62 2084.27 1225.5 2087.71 1267.89 2090.58 1225.5 2093.44 1267.89 2096.3 1225.5 2099.74 1104.62 2102.61 1225.5 2106.04 1405.96 2108.91 1225.5 2111.77 1013.53 2114.64 1225.5 2118.07 1437.47 2120.94 1225.5 2123.8 1044.47 2126.67 1225.5 2130.1 1350.96 2132.97 1225.5 2135.83 1171.65 2139.27 1225.5 2142.13 1202.58 2145 1225.5 2148.44 1321.17 2151.3 1225.5 2154.16 1069.67 2157.6 1225.5 2160.47 1425.44 2163.33 1225.5 2166.19 997.488 2169.63 1225.5 2172.5 1468.41 2175.93 1225.5 2178.8 976.291 2181.66 1225.5 2184.53 1477 2187.96 1225.5 2190.83 974 2193.69 1225.5 2197.13 1474.71 2199.99 1225.5 2202.86 982.593 2205.72 1225.5 2209.16 1453.51 2212.02 1225.5 2214.89 1025.56 2217.75 1225.5 2221.19 1382.47 2224.05 1225.5 2227.49 1125.24 2230.36 1225.5 2233.22 1260.45 2236.08 1225.5 2239.52 1260.45 2242.39 1225.5 2245.82 1125.24 2248.69 1225.5 2251.55 1382.47 2254.42 1225.5 2257.85 1025.56 2260.72 1225.5 2263.58 1453.51 2267.02 1225.5 2269.88 982.593 2272.75 1225.5 2275.61 1474.71 2279.05 1225.5 2281.92 974 2284.78 1225.5 2288.22 1477 2291.08 1225.5 2293.95 976.291 2297.38 1225.5 2300.25 1468.41 2303.11 1225.5 2305.98 997.488 2309.41 1225.5 2312.28 1425.44 2315.71 1225.5 2318.58 1068.53 2321.44 1225.5 2324.31 1325.76 2327.74 1225.5 2330.61 1191.13 2333.47 1225.5 2336.91 1191.13 2339.77 1225.5 2342.64 1325.76 2345.5 1225.5 2348.94 1068.53 2351.81 1225.5 2354.67 1425.44 2358.11 1225.5 2360.97 997.488 2363.84 1225.5 2367.27 1467.83 2370.14 1225.5 2373 980.875 2375.87 1225.5 2379.3 1465.54 2382.17 1225.5 2385.6 993.478 2388.47 1225.5 2391.33 1449.5 2394.2 1225.5 2397.64 1006.65 2400.5 1225.5 2403.36 1441.48 2406.8 1225.5 2409.67 1009.52 2412.53 1225.5 2415.39 1444.35 2418.83 1225.5 2421.7 1001.5 2425.13 1225.5 2428 1457.52 2430.86 1225.5 2433.73 985.458 2437.16 1225.5 2440.03 1470.13 2442.89 1225.5 2445.76 983.739 2449.19 1225.5 2452.06 1453.51 2455.5 1225.5 2458.36 1025.56 2461.22 1225.5 2464.09 1381.33 2467.53 1225.5 2470.39 1129.83 2473.25 1225.5 2476.69 1248.42 2479.56 1225.5 2482.42 1279.35 2485.28 1225.5 2488.72 1100.04 2491.59 1225.5 2495.02 1406.53 2497.89 1225.5 2500.75 1013.53 2503.62 1225.5 2507.05 1437.47 2509.92 1225.5 2512.78 1045.04 2516.22 1225.5 2519.08 1346.38 2521.95 1225.5 2525.39 1183.11 2528.25 1225.5 2531.11 1183.11 2533.98 1225.5 2537.42 1346.38 2540.28 1225.5 2543.14 1045.04 2546.58 1225.5 2549.45 1437.47 2552.31 1225.5 2555.18 1013.53 2558.61 1225.5 2561.48 1406.53 2564.91 1225.5 2567.78 1100.04 2570.64 1225.5 2573.51 1279.35 2576.94 1225.5 2579.81 1248.42 2582.67 1225.5 2586.11 1129.83 2588.97 1225.5 2591.84 1381.33 2595.28 1225.5 2598.14 1025.56 2601 1225.5 2603.87 1453.51 2607.31 1225.5 2610.17 982.593 2613.04 1225.5 2616.47 1474.71 2619.34 1225.5 2622.2 974 2625.07 1225.5 2628.5 1477 2631.37 1225.5 2634.8 976.291 2637.67 1225.5 2640.53 1468.41 2643.4 1225.5 2646.83 997.488 2649.7 1225.5 2652.56 1425.44 2656 1225.5 2658.87 1068.53 2661.73 1225.5 2664.59 1325.76 2668.03 1225.5 2670.9 1191.13 2673.76 1225.5 2677.2 1191.13 2680.06 1225.5 2682.93 1325.76 2686.36 1225.5 2689.23 1068.53 2692.09 1225.5 2694.96 1425.44 2698.39 1225.5 2701.26 997.488 2704.69 1225.5 2707.56 1467.83 2710.42 1225.5 2713.29 980.875 2716.73 1225.5 2719.59 1465.54 2722.45 1225.5 2725.89 993.478 2728.76 1225.5 2731.62 1449.5 2734.48 1225.5 2737.92 1006.65 2740.79 1225.5 2744.22 1441.48 2747.09 1225.5 2749.95 1008.95 2752.82 1225.5 2756.25 1443.2 2759.12 1225.5 2761.98 1006.08 2764.85 1225.5 2768.28 1445.49 2771.15 1225.5 2774.59 1005.51 2777.45 1225.5 2780.31 1444.92 2783.18 1225.5 2786.62 1007.8 2789.48 1225.5 2792.34 1442.05 2795.78 1225.5 2798.65 1009.52 2801.51 1225.5 2804.38 1444.35 2807.81 1225.5 2810.68 1001.5 2814.11 1225.5 2816.98 1457.52 2819.84 1225.5 2822.71 985.458 2826.14 1225.5 2829.01 1470.13 2831.87 1225.5 2835.31 983.739 2838.17 1225.5 2841.04 1453.51 2844.48 1225.5 2847.34 1025.56 2850.2 1225.5 2853.07 1382.47 2856.51 1225.5 2859.37 1125.24 2862.23 1225.5 2865.67 1260.45 2868.54 1225.5 2871.4 1260.45 2874.27 1225.5 2877.7 1125.24 2880.57 1225.5 2884 1382.47 2886.87 1225.5 2889.73 1025.56 2892.6 1225.5 2896.03 1453.51 2898.9 1225.5 2901.76 983.739 2905.2 1225.5 2908.06 1470.13 2910.93 1225.5 2914.37 985.458 2917.23 1225.5 2920.1 1457.52 2922.96 1225.5 2926.4 1001.5 2929.26 1225.5 2932.13 1444.35 2935.56 1225.5 2938.43 1009.52 2941.29 1225.5 2944.16 1441.48 2947.59 1225.5 2950.46 1006.65 2953.89 1225.5 2956.76 1449.5 2959.62 1225.5 2962.49 993.478 2965.92 1225.5 2968.79 1465.54 2972.23 1225.5 2975.09 980.875 2977.96 1225.5 2980.82 1467.83 2984.26 1225.5 2987.12 997.488 2989.99 1225.5 2992.85 1425.44 2996.29 1225.5 2999.15 1069.67 3002.02 1225.5 3005.45 1321.17 3008.32 1225.5 3011.18 1202.58 3014.05 1225.5 3017.48 1171.65 3020.35 1225.5 3023.79 1350.96 3026.65 1225.5 3029.51 1044.47 3032.38 1225.5 3035.82 1437.47 3038.68 1225.5 3042.12 1013.53 3044.98 1225.5 3047.85 1406.53 3050.71 1225.5 3054.15 1100.04 3057.01 1225.5 3059.88 1279.35 3063.31 1225.5 3066.18 1248.42 3069.04 1225.5 3071.91 1129.83 3075.34 1225.5 3078.21 1381.33 3081.07 1225.5 3083.94 1025.56 3087.37 1225.5 3090.24 1453.51 3093.68 1225.5 3096.54 982.593 3099.4 1225.5 3102.27 1474.71 3105.71 1225.5 3108.57 974 3111.43 1225.5 3114.87 1477 3117.74 1225.5 3120.6 976.291 3124.04 1225.5 3126.9 1468.41 3129.77 1225.5 3133.2 997.488 3136.07 1225.5 3138.93 1425.44 3141.8 1225.5 3145.23 1068.53 3148.1 1225.5 3150.96 1325.76 3154.4 1225.5 3157.26 1191.13 3160.13 1225.5 3163.57 1191.13 3166.43 1225.5 3169.29 1325.76 3172.16 1225.5 3175.6 1068.53 3178.46 1225.5 3181.33 1425.44 3184.76 1225.5 3187.63 997.488 3190.49 1225.5 3193.93 1468.41 3196.79 1225.5 3199.66 976.291 3203.09 1225.5 3205.96 1477 3208.82 1225.5 3211.69 974 3215.12 1225.5 3217.99 1474.71 3220.85 1225.5 3224.29 982.593 3227.15 1225.5 3230.02 1453.51 3233.46 1225.5 3236.32 1025.56 3239.19 1225.5 3242.05 1382.47 3245.49 1225.5 3248.35 1125.24 3251.22 1225.5 3254.65 1260.45 3257.52 1225.5 3260.38 1260.45 3263.82 1225.5 3266.68 1125.24 3269.55 1225.5 3272.98 1382.47 3275.85 1225.5 3278.71 1025.56 3281.58 1225.5 3285.02 1453.51 3287.88 1225.5 3291.32 982.593 3294.18 1225.5 3297.05 1474.71 3299.91 1225.5 3303.35 974 3306.21 1225.5 3309.08 1477 3311.94 1225.5 3315.38 976.291 3318.24 1225.5 3321.11 1468.41 3324.54 1225.5 3327.41 997.488 3330.27 1225.5 3333.14 1425.44 3336.57 1225.5 3339.44 1069.67 3342.88 1225.5 3345.74 1321.17 3348.6 1225.5 3351.47 1202.58 3354.91 1225.5 3357.77 1171.65 3361.21 1225.5 3364.07 1350.96 3366.94 1225.5 3369.8 1044.47 3373.24 1225.5 3376.1 1437.47 3378.97 1225.5 3382.4 1013.53 3385.27 1225.5 3388.13 1406.53 3391 1225.5 3394.43 1100.04 3397.3 1225.5 3400.16 1279.35 3403.03 1225.5 3406.46 1248.42 3409.33 1225.5 3412.77 1129.83 3415.63 1225.5 3418.49 1381.33 3421.36 1225.5 3424.8 1025.56 3427.66 1225.5 3431.1 1453.51 3433.96 1225.5 3436.83 982.593 3439.69 1225.5 3443.13 1474.71 3445.99 1225.5 3448.86 974 3452.29 1225.5 3455.16 1477 3458.02 1225.5 3460.89 976.291 3464.32 1225.5 3467.19 1468.41 3470.05 1225.5 3473.49 997.488 3476.35 1225.5 3479.22 1425.44 3482.66 1225.5 3485.52 1068.53 3488.38 1225.5 3491.25 1325.76 3494.69 1225.5 3497.55 1191.13 3500.99 1225.5 3503.85 1191.13 3506.72 1225.5 3509.58 1325.76 3513.02 1225.5 3515.88 1068.53 3518.75 1225.5 3522.18 1425.44 3525.05 1225.5 3527.91 997.488 3530.78 1225.5 3534.21 1467.83 3537.08 1225.5 3539.94 978.583 3543.38 1225.5 3546.25 1471.27 3549.11 1225.5 3552.55 983.739 3555.41 1225.5 3558.28 1462.1 3561.14 1225.5 3564.58 994.624 3567.44 1225.5 3570.88 1447.21 3573.74 1225.5 3576.61 1017.54 3579.47 1225.5 3582.91 1412.84 3585.77 1225.5 3588.64 1065.66 3592.07 1225.5 3594.94 1353.26 3597.8 1225.5 3600.67 1132.69 3604.1 1225.5 3606.97 1285.08 3610.41 1225.5 3613.27 1195.14 3616.14 1225.5 3619 1234.09" stroke="#FF0000" stroke-width="2.29167" stroke-linejoin="round" stroke-miterlimit="10" fill="none" fill-rule="evenodd"/><path d="M899.5 1010.02 902.937 1004.29 905.802 999.134 908.666 995.124 911.53 992.26 914.968 989.395 917.832 986.531 921.269 984.239 924.134 982.521 926.998 980.229 929.862 979.083 933.3 979.083 936.164 980.229 939.028 983.666 941.893 989.395 945.33 997.989 948.194 1010.02 951.059 1026.06 954.496 1046.11 957.36 1070.17 960.225 1098.82 963.662 1130.33 966.526 1165.85 969.391 1203.08 972.828 1241.47 975.692 1279.85 978.557 1317.09 981.421 1351.46 984.858 1381.83 987.723 1407.03 991.16 1425.94 994.024 1437.97 996.888 1441.98 999.753 1437.97 1003.19 1425.94 1006.05 1407.03 1008.92 1381.83 1012.36 1351.46 1015.22 1317.09 1018.08 1279.85 1020.95 1241.47 1024.39 1203.08 1027.25 1165.85 1030.12 1130.33 1032.98 1098.82 1036.42 1070.17 1039.28 1046.11 1042.72 1026.06 1045.58 1010.02 1048.45 997.989 1051.31 989.395 1054.75 983.093 1057.61 979.083 1061.05 976.792 1063.91 975.073 1066.78 974.5 1069.64 974.5 1073.08 974.5 1075.94 975.073 1078.81 976.792 1082.25 979.083 1085.11 983.093 1087.98 989.395 1090.84 997.989 1094.28 1010.02 1097.14 1026.06 1100.01 1046.11 1103.44 1070.17 1106.31 1098.82 1109.17 1130.33 1112.61 1165.85 1115.47 1203.08 1118.34 1241.47 1121.2 1279.85 1124.64 1317.09 1127.5 1351.46 1130.94 1381.83 1133.81 1407.03 1136.67 1425.94 1139.53 1437.97 1142.97 1441.98 1145.84 1437.97 1148.7 1425.94 1152.14 1407.03 1155 1381.83 1157.87 1351.46 1160.73 1317.09 1164.17 1279.85 1167.03 1241.47 1169.9 1203.08 1173.33 1165.85 1176.2 1130.33 1179.06 1098.82 1182.5 1070.17 1185.36 1046.11 1188.23 1026.06 1191.09 1010.02 1194.53 997.989 1197.39 989.395 1200.83 984.239 1203.7 981.375 1206.56 981.375 1209.42 983.093 1212.86 985.958 1215.73 989.968 1218.59 993.978 1222.03 997.989 1224.89 1002 1227.76 1004.86 1230.62 1007.15 1234.06 1008.87 1236.92 1010.02 1240.36 1010.02 1243.22 1010.02 1246.09 1008.87 1248.95 1007.15 1252.39 1004.86 1255.25 1002 1258.12 997.989 1260.98 993.978 1264.42 989.968 1267.28 985.958 1270.72 983.093 1273.59 981.375 1276.45 981.375 1279.31 984.239 1282.75 989.395 1285.62 997.989 1288.48 1010.02 1291.92 1026.06 1294.78 1046.11 1297.65 1069.03 1300.51 1095.95 1303.95 1125.74 1306.81 1157.83 1310.25 1191.63 1313.11 1226 1315.98 1260.95 1318.84 1294.17 1322.28 1326.26 1325.14 1356.05 1328.01 1382.97 1331.45 1405.89 1334.31 1425.94 1337.17 1441.98 1340.61 1454.01 1343.48 1462.6 1346.34 1468.91 1349.21 1472.92 1352.64 1475.21 1355.51 1476.93 1358.37 1477.5 1361.81 1477.5 1364.67 1477.5 1367.54 1476.93 1370.4 1475.21 1373.84 1472.92 1376.7 1468.91 1380.14 1462.6 1383 1454.01 1385.87 1441.98 1388.73 1425.94 1392.17 1405.89 1395.04 1381.83 1397.9 1353.76 1401.34 1321.67 1404.2 1286.15 1407.07 1248.92 1410.5 1210.53 1413.37 1172.15 1416.23 1134.91 1419.1 1100.54 1422.53 1070.17 1425.4 1044.97 1428.26 1026.06 1431.7 1014.03 1434.56 1010.02 1437.43 1014.03 1440.29 1026.06 1443.73 1045.54 1446.59 1072.46 1450.03 1105.12 1452.9 1142.93 1455.76 1183.61 1458.62 1226 1462.06 1268.39 1464.93 1309.07 1467.79 1346.88 1471.23 1379.54 1474.09 1406.46 1476.96 1425.94 1480.39 1437.97 1483.26 1441.98 1486.12 1437.97 1488.99 1425.94 1492.42 1407.03 1495.29 1381.83 1498.15 1351.46 1501.59 1317.09 1504.45 1279.85 1507.32 1241.47 1510.18 1203.08 1513.62 1165.85 1516.48 1130.33 1519.92 1098.82 1522.79 1070.17 1525.65 1046.11 1528.51 1026.06 1531.95 1010.02 1534.82 997.989 1537.68 989.395 1541.12 984.239 1543.98 981.375 1546.85 981.375 1549.71 983.093 1553.15 985.958 1556.01 989.968 1559.45 993.978 1562.31 997.989 1565.18 1002 1568.04 1004.86 1571.48 1007.15 1574.34 1008.87 1577.21 1010.02 1580.07 1010.02 1583.51 1010.02 1586.37 1008.87 1589.81 1007.15 1592.68 1004.86 1595.54 1002 1598.4 997.989 1601.84 993.978 1604.71 989.968 1607.57 985.958 1611.01 983.093 1613.87 981.375 1616.74 981.375 1619.6 984.239 1623.04 989.395 1625.9 997.989 1629.34 1010.02 1632.2 1026.06 1635.07 1046.11 1637.93 1069.03 1641.37 1095.95 1644.23 1125.74 1647.1 1157.83 1650.54 1191.63 1653.4 1226 1656.26 1260.95 1659.7 1294.17 1662.57 1326.26 1665.43 1356.05 1668.3 1382.97 1671.73 1405.89 1674.6 1425.94 1677.46 1441.98 1680.9 1454.01 1683.76 1462.6 1686.63 1468.33 1689.49 1470.63 1692.93 1470.63 1695.79 1468.91 1699.23 1466.04 1702.09 1462.03 1704.96 1458.02 1707.82 1454.01 1711.26 1450 1714.13 1447.14 1716.99 1444.85 1720.43 1443.13 1723.29 1441.98 1726.16 1441.98 1729.59 1442.55 1732.46 1443.13 1735.32 1443.7 1738.19 1444.27 1741.62 1445.42 1744.49 1445.99 1747.35 1445.99 1750.79 1446.56 1753.65 1445.99 1756.52 1445.99 1759.38 1445.42 1762.82 1444.27 1765.68 1443.7 1769.12 1443.13 1771.99 1442.55 1774.85 1441.98 1777.71 1441.98 1781.15 1443.13 1784.02 1444.85 1787.45 1447.14 1790.32 1450 1793.18 1454.01 1796.05 1458.02 1799.48 1462.03 1802.35 1466.04 1805.21 1468.91 1808.08 1470.63 1811.51 1470.63 1814.38 1468.33 1817.24 1462.6 1820.68 1454.01 1823.54 1441.98 1826.41 1425.94 1829.27 1405.89 1832.71 1382.97 1835.57 1356.05 1839.01 1326.26 1841.88 1294.17 1844.74 1260.95 1847.6 1226 1851.04 1191.63 1853.91 1157.83 1857.34 1125.74 1860.21 1095.95 1863.07 1069.03 1865.94 1046.11 1869.37 1026.06 1872.24 1010.02 1875.1 997.989 1878.54 989.395 1881.4 984.239 1884.27 981.375 1887.13 981.375 1890.57 983.093 1893.43 985.958 1896.3 989.968 1899.16 993.978 1902.6 997.989 1905.46 1002 1908.9 1004.86 1911.77 1007.15 1914.63 1008.87 1917.49 1010.02 1920.93 1010.02 1923.8 1009.45 1927.23 1008.87 1930.1 1008.3 1932.96 1007.73 1935.83 1006.58 1939.26 1006.01 1942.13 1006.01 1944.99 1005.44 1948.43 1006.01 1951.29 1006.01 1954.16 1006.58 1957.02 1007.73 1960.46 1008.3 1963.32 1008.87 1966.19 1009.45 1969.63 1010.02 1972.49 1010.02 1975.36 1008.87 1978.79 1007.15 1981.66 1004.86 1984.52 1002 1987.39 997.989 1990.82 993.978 1993.69 989.968 1996.55 985.958 1999.99 983.093 2002.85 981.375 2005.72 981.375 2009.15 984.239 2012.02 989.395 2014.88 997.989 2018.32 1010.02 2021.18 1026.06 2024.05 1046.11 2026.91 1070.17 2030.35 1098.82 2033.22 1130.33 2036.08 1165.85 2039.52 1203.08 2042.38 1241.47 2045.25 1279.85 2048.68 1317.09 2051.55 1351.46 2054.41 1381.83 2057.28 1407.03 2060.71 1425.94 2063.58 1437.97 2066.44 1441.98 2069.88 1437.97 2072.74 1425.94 2075.61 1406.46 2079.04 1379.54 2081.91 1346.88 2084.77 1309.07 2088.21 1268.39 2091.08 1226 2093.94 1183.61 2096.8 1142.93 2100.24 1105.12 2103.11 1072.46 2106.54 1045.54 2109.41 1026.06 2112.27 1014.03 2115.14 1010.02 2118.57 1014.03 2121.44 1026.06 2124.3 1044.97 2127.17 1070.17 2130.6 1100.54 2133.47 1134.91 2136.33 1172.15 2139.77 1210.53 2142.63 1248.92 2145.5 1286.15 2148.94 1321.67 2151.8 1353.76 2154.66 1381.83 2158.1 1405.89 2160.97 1425.94 2163.83 1441.98 2166.69 1454.01 2170.13 1462.6 2173 1468.91 2176.43 1472.92 2179.3 1475.21 2182.16 1476.93 2185.03 1477.5 2188.46 1477.5 2191.33 1477.5 2194.19 1476.93 2197.63 1475.21 2200.49 1472.92 2203.36 1468.91 2206.22 1462.6 2209.66 1454.01 2212.52 1441.98 2215.39 1425.94 2218.25 1405.89 2221.69 1382.97 2224.55 1356.05 2227.99 1326.26 2230.86 1294.17 2233.72 1260.95 2236.58 1226 2240.02 1191.63 2242.89 1157.83 2246.32 1125.74 2249.19 1095.95 2252.05 1069.03 2254.92 1046.11 2258.35 1026.06 2261.22 1010.02 2264.08 997.989 2267.52 989.395 2270.38 983.093 2273.25 979.083 2276.11 976.792 2279.55 975.073 2282.42 974.5 2285.28 974.5 2288.72 974.5 2291.58 975.073 2294.45 976.792 2297.88 979.083 2300.75 983.093 2303.61 989.395 2306.48 997.989 2309.91 1010.02 2312.78 1026.06 2316.21 1046.11 2319.08 1069.03 2321.94 1095.95 2324.81 1125.74 2328.24 1157.83 2331.11 1191.63 2333.97 1226 2337.41 1260.95 2340.27 1294.17 2343.14 1326.26 2346 1356.05 2349.44 1382.97 2352.31 1405.89 2355.17 1425.94 2358.61 1441.98 2361.47 1454.01 2364.34 1462.6 2367.77 1468.33 2370.64 1470.63 2373.5 1470.63 2376.37 1468.91 2379.8 1466.04 2382.67 1462.03 2386.1 1458.02 2388.97 1454.01 2391.83 1450 2394.7 1447.14 2398.14 1444.85 2401 1443.13 2403.86 1441.98 2407.3 1441.98 2410.17 1441.98 2413.03 1443.13 2415.89 1444.85 2419.33 1447.14 2422.2 1450 2425.63 1454.01 2428.5 1458.02 2431.36 1462.03 2434.23 1466.04 2437.66 1468.91 2440.53 1470.63 2443.39 1470.63 2446.26 1468.33 2449.69 1462.6 2452.56 1454.01 2456 1441.98 2458.86 1425.94 2461.72 1405.89 2464.59 1381.83 2468.03 1353.76 2470.89 1321.67 2473.75 1286.15 2477.19 1248.92 2480.06 1210.53 2482.92 1172.15 2485.78 1134.91 2489.22 1100.54 2492.09 1070.17 2495.52 1044.97 2498.39 1026.06 2501.25 1014.03 2504.12 1010.02 2507.55 1014.03 2510.42 1026.06 2513.28 1045.54 2516.72 1072.46 2519.58 1105.12 2522.45 1142.93 2525.89 1183.61 2528.75 1226 2531.61 1268.39 2534.48 1309.07 2537.92 1346.88 2540.78 1379.54 2543.64 1406.46 2547.08 1425.94 2549.95 1437.97 2552.81 1441.98 2555.68 1437.97 2559.11 1425.94 2561.98 1407.03 2565.41 1381.83 2568.28 1351.46 2571.14 1317.09 2574.01 1279.85 2577.44 1241.47 2580.31 1203.08 2583.17 1165.85 2586.61 1130.33 2589.47 1098.82 2592.34 1070.17 2595.78 1046.11 2598.64 1026.06 2601.51 1010.02 2604.37 997.989 2607.81 989.395 2610.67 983.093 2613.54 979.083 2616.97 976.792 2619.84 975.073 2622.7 974.5 2625.57 974.5 2629 974.5 2631.87 975.073 2635.3 976.792 2638.17 979.083 2641.03 983.093 2643.9 989.395 2647.33 997.989 2650.2 1010.02 2653.06 1026.06 2656.5 1046.11 2659.37 1069.03 2662.23 1095.95 2665.09 1125.74 2668.53 1157.83 2671.4 1191.63 2674.26 1226 2677.7 1260.95 2680.56 1294.17 2683.43 1326.26 2686.86 1356.05 2689.73 1382.97 2692.59 1405.89 2695.46 1425.94 2698.89 1441.98 2701.76 1454.01 2705.2 1462.6 2708.06 1468.33 2710.92 1470.63 2713.79 1470.63 2717.23 1468.91 2720.09 1466.04 2722.95 1462.03 2726.39 1458.02 2729.26 1454.01 2732.12 1450 2734.98 1447.14 2738.42 1444.85 2741.29 1443.13 2744.72 1441.98 2747.59 1441.98 2750.45 1442.55 2753.32 1443.13 2756.75 1443.7 2759.62 1444.27 2762.48 1445.42 2765.35 1445.99 2768.78 1445.99 2771.65 1446.56 2775.09 1445.99 2777.95 1445.99 2780.81 1445.42 2783.68 1444.27 2787.12 1443.7 2789.98 1443.13 2792.84 1442.55 2796.28 1441.98 2799.15 1441.98 2802.01 1443.13 2804.87 1444.85 2808.31 1447.14 2811.18 1450 2814.61 1454.01 2817.48 1458.02 2820.34 1462.03 2823.21 1466.04 2826.64 1468.91 2829.51 1470.63 2832.37 1470.63 2835.81 1468.33 2838.67 1462.6 2841.54 1454.01 2844.98 1441.98 2847.84 1425.94 2850.7 1405.89 2853.57 1382.97 2857.01 1356.05 2859.87 1326.26 2862.73 1294.17 2866.17 1260.95 2869.04 1226 2871.9 1191.63 2874.77 1157.83 2878.2 1125.74 2881.07 1095.95 2884.5 1069.03 2887.37 1046.11 2890.23 1026.06 2893.1 1010.02 2896.53 997.989 2899.4 989.395 2902.26 984.239 2905.7 981.375 2908.56 981.375 2911.43 983.093 2914.87 985.958 2917.73 989.968 2920.6 993.978 2923.46 997.989 2926.9 1002 2929.76 1004.86 2932.63 1007.15 2936.06 1008.87 2938.93 1010.02 2941.79 1010.02 2944.66 1010.02 2948.09 1008.87 2950.96 1007.15 2954.39 1004.86 2957.26 1002 2960.12 997.989 2962.99 993.978 2966.42 989.968 2969.29 985.958 2972.73 983.093 2975.59 981.375 2978.46 981.375 2981.32 984.239 2984.76 989.395 2987.62 997.989 2990.49 1010.02 2993.35 1026.06 2996.79 1046.11 2999.65 1070.17 3002.52 1098.82 3005.95 1130.33 3008.82 1165.85 3011.68 1203.08 3014.55 1241.47 3017.98 1279.85 3020.85 1317.09 3024.29 1351.46 3027.15 1381.83 3030.01 1407.03 3032.88 1425.94 3036.32 1437.97 3039.18 1441.98 3042.62 1437.97 3045.48 1425.94 3048.35 1407.03 3051.21 1381.83 3054.65 1351.46 3057.51 1317.09 3060.38 1279.85 3063.81 1241.47 3066.68 1203.08 3069.54 1165.85 3072.41 1130.33 3075.84 1098.82 3078.71 1070.17 3081.57 1046.11 3084.44 1026.06 3087.87 1010.02 3090.74 997.989 3094.18 989.395 3097.04 983.093 3099.9 979.083 3102.77 976.792 3106.21 975.073 3109.07 974.5 3111.93 974.5 3115.37 974.5 3118.24 975.073 3121.1 976.792 3124.54 979.083 3127.4 983.093 3130.27 989.395 3133.7 997.989 3136.57 1010.02 3139.43 1026.06 3142.3 1046.11 3145.73 1069.03 3148.6 1095.95 3151.46 1125.74 3154.9 1157.83 3157.76 1191.63 3160.63 1226 3164.07 1260.95 3166.93 1294.17 3169.79 1326.26 3172.66 1356.05 3176.1 1382.97 3178.96 1405.89 3181.83 1425.94 3185.26 1441.98 3188.13 1454.01 3190.99 1462.6 3194.43 1468.91 3197.29 1472.92 3200.16 1475.21 3203.59 1476.93 3206.46 1477.5 3209.32 1477.5 3212.19 1477.5 3215.62 1476.93 3218.49 1475.21 3221.35 1472.92 3224.79 1468.91 3227.65 1462.6 3230.52 1454.01 3233.96 1441.98 3236.82 1425.94 3239.69 1405.89 3242.55 1382.97 3245.99 1356.05 3248.85 1326.26 3251.72 1294.17 3255.15 1260.95 3258.02 1226 3260.88 1191.63 3264.32 1157.83 3267.18 1125.74 3270.05 1095.95 3273.48 1069.03 3276.35 1046.11 3279.21 1026.06 3282.08 1010.02 3285.52 997.989 3288.38 989.395 3291.82 983.093 3294.68 979.083 3297.55 976.792 3300.41 975.073 3303.85 974.5 3306.71 974.5 3309.58 974.5 3312.44 975.073 3315.88 976.792 3318.74 979.083 3321.61 983.093 3325.04 989.395 3327.91 997.989 3330.77 1010.02 3333.64 1026.06 3337.07 1046.11 3339.94 1070.17 3343.38 1098.82 3346.24 1130.33 3349.1 1165.85 3351.97 1203.08 3355.41 1241.47 3358.27 1279.85 3361.71 1317.09 3364.57 1351.46 3367.44 1381.83 3370.3 1407.03 3373.74 1425.94 3376.6 1437.97 3379.47 1441.98 3382.9 1437.97 3385.77 1425.94 3388.63 1407.03 3391.5 1381.83 3394.93 1351.46 3397.8 1317.09 3400.66 1279.85 3403.53 1241.47 3406.96 1203.08 3409.83 1165.85 3413.27 1130.33 3416.13 1098.82 3418.99 1070.17 3421.86 1046.11 3425.3 1026.06 3428.16 1010.02 3431.6 997.989 3434.46 989.395 3437.33 983.093 3440.19 979.083 3443.63 976.792 3446.49 975.073 3449.36 974.5 3452.79 974.5 3455.66 974.5 3458.52 975.073 3461.39 976.792 3464.82 979.083 3467.69 983.093 3470.55 989.395 3473.99 997.989 3476.85 1010.02 3479.72 1026.06 3483.16 1046.11 3486.02 1069.03 3488.88 1095.95 3491.75 1125.74 3495.19 1157.83 3498.05 1191.63 3501.49 1226 3504.35 1260.95 3507.22 1294.17 3510.08 1326.26 3513.52 1356.05 3516.38 1382.97 3519.25 1405.89 3522.68 1425.94 3525.55 1441.98 3528.41 1454.01 3531.28 1462.6 3534.71 1468.33 3537.58 1471.77 3540.44 1472.92 3543.88 1472.92 3546.75 1471.77 3549.61 1470.05 3553.05 1467.76 3555.91 1465.47 3558.78 1462.6 3561.64 1460.31 3565.08 1456.88 3567.94 1452.87 3571.38 1447.71 3574.24 1441.98 3577.11 1433.96 3579.97 1424.79 3583.41 1413.34 3586.27 1400.16 3589.14 1385.84 3592.57 1370.37 3595.44 1353.76 3598.3 1336 3601.17 1318.81 3604.6 1301.62 3607.47 1285.58 3610.91 1270.11 3613.77 1256.36 3616.64 1244.33 3619.5 1234.59" stroke="#0072BD" stroke-width="4.58333" stroke-linejoin="round" stroke-miterlimit="10" fill="none" fill-rule="evenodd"/></g></svg>