<svg width="3599" height="820" xmlns="http://www.w3.org/2000/svg" xmlns:xlink="http://www.w3.org/1999/xlink" overflow="hidden"><defs><clipPath id="clip0"><rect x="261" y="925" width="3599" height="820"/></clipPath></defs><g clip-path="url(#clip0)" transform="translate(-261 -925)"><path d="M333.725 980.003 343.918 980.003 343.918 1021.35 383.036 1021.35 383.036 1030.89 343.918 1030.89 343.918 1072.24 333.725 1072.24 333.725 1030.89 294.607 1030.89 294.607 1021.35 333.725 1021.35Z" fill-rule="evenodd"/><text fill="#000000" fill-opacity="0" font-family="Arial,Arial_MSFontService,sans-serif" font-size="92.2339" x="294.607" y="1060.71">+</text><path d="M439.707 969.021 443.655 969.021C443.368 973.615 443.224 979.979 443.224 988.114L443.224 1049.41C443.224 1052.19 443.38 1054.28 443.691 1055.69 444.002 1057.1 444.552 1058.25 445.341 1059.14 446.131 1060.02 447.267 1060.72 448.751 1061.22 450.234 1061.72 452.1 1062.1 454.349 1062.37 456.599 1062.63 459.565 1062.81 463.25 1062.91L463.25 1068.15 410.206 1068.15 410.206 1062.91C415.518 1062.67 419.31 1062.34 421.583 1061.94 423.856 1061.53 425.591 1060.92 426.787 1060.11 427.983 1059.29 428.857 1058.14 429.407 1056.66 429.957 1055.18 430.232 1052.76 430.232 1049.41L430.232 991.2C430.232 989.286 429.897 987.887 429.227 987.001 428.557 986.116 427.577 985.674 426.285 985.674 424.753 985.674 422.576 986.463 419.753 988.042 416.93 989.621 413.436 991.799 409.273 994.574L406.115 989.047Z" fill-rule="evenodd"/><text fill="#000000" fill-opacity="0" font-family="Arial,Arial_MSFontService,sans-serif" font-size="99.1245" x="406.115" y="1055.76">1</text><path d="M0 0 32.0003 0.000360892" stroke="#262626" stroke-width="10.3125" stroke-linejoin="round" stroke-miterlimit="10" fill="none" fill-rule="evenodd" transform="matrix(-1 0 0 1 3778 1675)"/><path d="M488 1353 3855 1353" stroke="#262626" stroke-width="10.3125" stroke-linejoin="round" stroke-miterlimit="10" fill="none" fill-rule="evenodd"/><path d="M541.5 1030.5C541.5 1012.27 556.274 997.5 574.5 997.5 592.725 997.5 607.5 1012.27 607.5 1030.5 607.5 1048.73 592.725 1063.5 574.5 1063.5 556.274 1063.5 541.5 1048.73 541.5 1030.5Z" stroke="#000000" stroke-width="0" stroke-linejoin="round" stroke-miterlimit="10" fill-rule="evenodd"/><path d="M653.5 1030.5C653.5 1012.27 668.051 997.5 686 997.5 703.949 997.5 718.5 1012.27 718.5 1030.5 718.5 1048.73 703.949 1063.5 686 1063.5 668.051 1063.5 653.5 1048.73 653.5 1030.5Z" stroke="#000000" stroke-width="0" stroke-linejoin="round" stroke-miterlimit="10" fill-rule="evenodd"/><path d="M763.5 1676.5C763.5 1658.27 778.051 1643.5 796 1643.5 813.949 1643.5 828.5 1658.27 828.5 1676.5 828.5 1694.73 813.949 1709.5 796 1709.5 778.051 1709.5 763.5 1694.73 763.5 1676.5Z" stroke="#000000" stroke-width="0" stroke-linejoin="round" stroke-miterlimit="10" fill-rule="evenodd"/><path d="M874.5 1030.5C874.5 1012.27 889.051 997.5 907 997.5 924.949 997.5 939.5 1012.27 939.5 1030.5 939.5 1048.73 924.949 1063.5 907 1063.5 889.051 1063.5 874.5 1048.73 874.5 1030.5Z" stroke="#000000" stroke-width="0" stroke-linejoin="round" stroke-miterlimit="10" fill-rule="evenodd"/><path d="M984.5 1676.5C984.5 1658.27 999.051 1643.5 1017 1643.5 1034.95 1643.5 1049.5 1658.27 1049.5 1676.5 1049.5 1694.73 1034.95 1709.5 1017 1709.5 999.051 1709.5 984.5 1694.73 984.5 1676.5Z" stroke="#000000" stroke-width="0" stroke-linejoin="round" stroke-miterlimit="10" fill-rule="evenodd"/><path d="M1094.5 1030.5C1094.5 1012.27 1109.27 997.5 1127.5 997.5 1145.73 997.5 1160.5 1012.27 1160.5 1030.5 1160.5 1048.73 1145.73 1063.5 1127.5 1063.5 1109.27 1063.5 1094.5 1048.73 1094.5 1030.5Z" stroke="#000000" stroke-width="0" stroke-linejoin="round" stroke-miterlimit="10" fill-rule="evenodd"/><path d="M1204.5 1030.5C1204.5 1012.27 1219.27 997.5 1237.5 997.5 1255.73 997.5 1270.5 1012.27 1270.5 1030.5 1270.5 1048.73 1255.73 1063.5 1237.5 1063.5 1219.27 1063.5 1204.5 1048.73 1204.5 1030.5Z" stroke="#000000" stroke-width="0" stroke-linejoin="round" stroke-miterlimit="10" fill-rule="evenodd"/><path d="M1315.5 1030.5C1315.5 1012.27 1330.27 997.5 1348.5 997.5 1366.73 997.5 1381.5 1012.27 1381.5 1030.5 1381.5 1048.73 1366.73 1063.5 1348.5 1063.5 1330.27 1063.5 1315.5 1048.73 1315.5 1030.5Z" stroke="#000000" stroke-width="0" stroke-linejoin="round" stroke-miterlimit="10" fill-rule="evenodd"/><path d="M1425.5 1030.5C1425.5 1012.27 1440.27 997.5 1458.5 997.5 1476.73 997.5 1491.5 1012.27 1491.5 1030.5 1491.5 1048.73 1476.73 1063.5 1458.5 1063.5 1440.27 1063.5 1425.5 1048.73 1425.5 1030.5Z" stroke="#000000" stroke-width="0" stroke-linejoin="round" stroke-miterlimit="10" fill-rule="evenodd"/><path d="M1537.5 1676.5C1537.5 1658.27 1552.05 1643.5 1570 1643.5 1587.95 1643.5 1602.5 1658.27 1602.5 1676.5 1602.5 1694.73 1587.95 1709.5 1570 1709.5 1552.05 1709.5 1537.5 1694.73 1537.5 1676.5Z" stroke="#000000" stroke-width="0" stroke-linejoin="round" stroke-miterlimit="10" fill-rule="evenodd"/><path d="M1647.5 1676.5C1647.5 1658.27 1662.05 1643.5 1680 1643.5 1697.95 1643.5 1712.5 1658.27 1712.5 1676.5 1712.5 1694.73 1697.95 1709.5 1680 1709.5 1662.05 1709.5 1647.5 1694.73 1647.5 1676.5Z" stroke="#000000" stroke-width="0" stroke-linejoin="round" stroke-miterlimit="10" fill-rule="evenodd"/><path d="M1758.5 1676.5C1758.5 1658.27 1773.05 1643.5 1791 1643.5 1808.95 1643.5 1823.5 1658.27 1823.5 1676.5 1823.5 1694.73 1808.95 1709.5 1791 1709.5 1773.05 1709.5 1758.5 1694.73 1758.5 1676.5Z" stroke="#000000" stroke-width="0" stroke-linejoin="round" stroke-miterlimit="10" fill-rule="evenodd"/><path d="M1868.5 1030.5C1868.5 1012.27 1883.05 997.5 1901 997.5 1918.95 997.5 1933.5 1012.27 1933.5 1030.5 1933.5 1048.73 1918.95 1063.5 1901 1063.5 1883.05 1063.5 1868.5 1048.73 1868.5 1030.5Z" stroke="#000000" stroke-width="0" stroke-linejoin="round" stroke-miterlimit="10" fill-rule="evenodd"/><path d="M1978.5 1676.5C1978.5 1658.27 1993.27 1643.5 2011.5 1643.5 2029.73 1643.5 2044.5 1658.27 2044.5 1676.5 2044.5 1694.73 2029.73 1709.5 2011.5 1709.5 1993.27 1709.5 1978.5 1694.73 1978.5 1676.5Z" stroke="#000000" stroke-width="0" stroke-linejoin="round" stroke-miterlimit="10" fill-rule="evenodd"/><path d="M2088.5 1676.5C2088.5 1658.27 2103.27 1643.5 2121.5 1643.5 2139.73 1643.5 2154.5 1658.27 2154.5 1676.5 2154.5 1694.73 2139.73 1709.5 2121.5 1709.5 2103.27 1709.5 2088.5 1694.73 2088.5 1676.5Z" stroke="#000000" stroke-width="0" stroke-linejoin="round" stroke-miterlimit="10" fill-rule="evenodd"/><path d="M0 0 0.000360892 323" stroke="#000000" stroke-width="39.5314" stroke-linejoin="round" stroke-miterlimit="10" fill="none" fill-rule="evenodd" transform="matrix(1 0 0 -1 575 1353)"/><path d="M0 0 0.000360892 323" stroke="#000000" stroke-width="39.5314" stroke-linejoin="round" stroke-miterlimit="10" fill="none" fill-rule="evenodd" transform="matrix(1 0 0 -1 685 1353)"/><path d="M796 1353 796 1675" stroke="#000000" stroke-width="39.5314" stroke-linejoin="round" stroke-miterlimit="10" fill="none" fill-rule="evenodd"/><path d="M0 0 0.000360892 323" stroke="#000000" stroke-width="39.5314" stroke-linejoin="round" stroke-miterlimit="10" fill="none" fill-rule="evenodd" transform="matrix(1 0 0 -1 906 1353)"/><path d="M1017 1353 1017 1675" stroke="#000000" stroke-width="39.5314" stroke-linejoin="round" stroke-miterlimit="10" fill="none" fill-rule="evenodd"/><path d="M0 0 0.000360892 323" stroke="#000000" stroke-width="39.5314" stroke-linejoin="round" stroke-miterlimit="10" fill="none" fill-rule="evenodd" transform="matrix(1 0 0 -1 1127 1353)"/><path d="M0 0 0.000360892 323" stroke="#000000" stroke-width="39.5314" stroke-linejoin="round" stroke-miterlimit="10" fill="none" fill-rule="evenodd" transform="matrix(1 0 0 -1 1238 1353)"/><path d="M0 0 0.000360892 323" stroke="#000000" stroke-width="39.5314" stroke-linejoin="round" stroke-miterlimit="10" fill="none" fill-rule="evenodd" transform="matrix(1 0 0 -1 1348 1353)"/><path d="M0 0 0.000360892 323" stroke="#000000" stroke-width="39.5314" stroke-linejoin="round" stroke-miterlimit="10" fill="none" fill-rule="evenodd" transform="matrix(1 0 0 -1 1459 1353)"/><path d="M1569 1353 1569 1675" stroke="#000000" stroke-width="39.5314" stroke-linejoin="round" stroke-miterlimit="10" fill="none" fill-rule="evenodd"/><path d="M1680 1353 1680 1675" stroke="#000000" stroke-width="39.5314" stroke-linejoin="round" stroke-miterlimit="10" fill="none" fill-rule="evenodd"/><path d="M1790 1353 1790 1675" stroke="#000000" stroke-width="39.5314" stroke-linejoin="round" stroke-miterlimit="10" fill="none" fill-rule="evenodd"/><path d="M0 0 0.000360892 323" stroke="#000000" stroke-width="39.5314" stroke-linejoin="round" stroke-miterlimit="10" fill="none" fill-rule="evenodd" transform="matrix(1 0 0 -1 1901 1353)"/><path d="M2011 1353 2011 1675" stroke="#000000" stroke-width="39.5314" stroke-linejoin="round" stroke-miterlimit="10" fill="none" fill-rule="evenodd"/><path d="M2121 1353 2121 1675" stroke="#000000" stroke-width="39.5314" stroke-linejoin="round" stroke-miterlimit="10" fill="none" fill-rule="evenodd"/><path d="M2199.5 1030.5C2199.5 1012.27 2214.05 997.5 2232 997.5 2249.95 997.5 2264.5 1012.27 2264.5 1030.5 2264.5 1048.73 2249.95 1063.5 2232 1063.5 2214.05 1063.5 2199.5 1048.73 2199.5 1030.5Z" stroke="#000000" stroke-width="0" stroke-linejoin="round" stroke-miterlimit="10" fill="#0000FF" fill-rule="evenodd"/><path d="M2309.5 1030.5C2309.5 1012.27 2324.27 997.5 2342.5 997.5 2360.73 997.5 2375.5 1012.27 2375.5 1030.5 2375.5 1048.73 2360.73 1063.5 2342.5 1063.5 2324.27 1063.5 2309.5 1048.73 2309.5 1030.5Z" stroke="#000000" stroke-width="0" stroke-linejoin="round" stroke-miterlimit="10" fill="#0000FF" fill-rule="evenodd"/><path d="M2419.5 1676.5C2419.5 1658.27 2434.27 1643.5 2452.5 1643.5 2470.73 1643.5 2485.5 1658.27 2485.5 1676.5 2485.5 1694.73 2470.73 1709.5 2452.5 1709.5 2434.27 1709.5 2419.5 1694.73 2419.5 1676.5Z" stroke="#000000" stroke-width="0" stroke-linejoin="round" stroke-miterlimit="10" fill="#0000FF" fill-rule="evenodd"/><path d="M2531.5 1030.5C2531.5 1012.27 2546.05 997.5 2564 997.5 2581.95 997.5 2596.5 1012.27 2596.5 1030.5 2596.5 1048.73 2581.95 1063.5 2564 1063.5 2546.05 1063.5 2531.5 1048.73 2531.5 1030.5Z" stroke="#000000" stroke-width="0" stroke-linejoin="round" stroke-miterlimit="10" fill="#0000FF" fill-rule="evenodd"/><path d="M2641.5 1676.5C2641.5 1658.27 2656.05 1643.5 2674 1643.5 2691.95 1643.5 2706.5 1658.27 2706.5 1676.5 2706.5 1694.73 2691.95 1709.5 2674 1709.5 2656.05 1709.5 2641.5 1694.73 2641.5 1676.5Z" stroke="#000000" stroke-width="0" stroke-linejoin="round" stroke-miterlimit="10" fill="#0000FF" fill-rule="evenodd"/><path d="M2752.5 1030.5C2752.5 1012.27 2767.05 997.5 2785 997.5 2802.95 997.5 2817.5 1012.27 2817.5 1030.5 2817.5 1048.73 2802.95 1063.5 2785 1063.5 2767.05 1063.5 2752.5 1048.73 2752.5 1030.5Z" stroke="#000000" stroke-width="0" stroke-linejoin="round" stroke-miterlimit="10" fill="#0000FF" fill-rule="evenodd"/><path d="M2862.5 1030.5C2862.5 1012.27 2877.27 997.5 2895.5 997.5 2913.73 997.5 2928.5 1012.27 2928.5 1030.5 2928.5 1048.73 2913.73 1063.5 2895.5 1063.5 2877.27 1063.5 2862.5 1048.73 2862.5 1030.5Z" stroke="#000000" stroke-width="0" stroke-linejoin="round" stroke-miterlimit="10" fill="#0000FF" fill-rule="evenodd"/><path d="M2973.5 1030.5C2973.5 1012.27 2988.05 997.5 3006 997.5 3023.95 997.5 3038.5 1012.27 3038.5 1030.5 3038.5 1048.73 3023.95 1063.5 3006 1063.5 2988.05 1063.5 2973.5 1048.73 2973.5 1030.5Z" stroke="#000000" stroke-width="0" stroke-linejoin="round" stroke-miterlimit="10" fill="#0000FF" fill-rule="evenodd"/><path d="M3083.5 1030.5C3083.5 1012.27 3098.05 997.5 3116 997.5 3133.95 997.5 3148.5 1012.27 3148.5 1030.5 3148.5 1048.73 3133.95 1063.5 3116 1063.5 3098.05 1063.5 3083.5 1048.73 3083.5 1030.5Z" stroke="#000000" stroke-width="0" stroke-linejoin="round" stroke-miterlimit="10" fill="#0000FF" fill-rule="evenodd"/><path d="M3193.5 1676.5C3193.5 1658.27 3208.27 1643.5 3226.5 1643.5 3244.73 1643.5 3259.5 1658.27 3259.5 1676.5 3259.5 1694.73 3244.73 1709.5 3226.5 1709.5 3208.27 1709.5 3193.5 1694.73 3193.5 1676.5Z" stroke="#000000" stroke-width="0" stroke-linejoin="round" stroke-miterlimit="10" fill="#0000FF" fill-rule="evenodd"/><path d="M3303.5 1676.5C3303.5 1658.27 3318.27 1643.5 3336.5 1643.5 3354.73 1643.5 3369.5 1658.27 3369.5 1676.5 3369.5 1694.73 3354.73 1709.5 3336.5 1709.5 3318.27 1709.5 3303.5 1694.73 3303.5 1676.5Z" stroke="#000000" stroke-width="0" stroke-linejoin="round" stroke-miterlimit="10" fill="#0000FF" fill-rule="evenodd"/><path d="M3415.5 1676.5C3415.5 1658.27 3430.05 1643.5 3448 1643.5 3465.95 1643.5 3480.5 1658.27 3480.5 1676.5 3480.5 1694.73 3465.95 1709.5 3448 1709.5 3430.05 1709.5 3415.5 1694.73 3415.5 1676.5Z" stroke="#000000" stroke-width="0" stroke-linejoin="round" stroke-miterlimit="10" fill="#0000FF" fill-rule="evenodd"/><path d="M3525.5 1030.5C3525.5 1012.27 3540.05 997.5 3558 997.5 3575.95 997.5 3590.5 1012.27 3590.5 1030.5 3590.5 1048.73 3575.95 1063.5 3558 1063.5 3540.05 1063.5 3525.5 1048.73 3525.5 1030.5Z" stroke="#000000" stroke-width="0" stroke-linejoin="round" stroke-miterlimit="10" fill="#0000FF" fill-rule="evenodd"/><path d="M3635.5 1676.5C3635.5 1658.27 3650.5 1643.5 3669 1643.5 3687.5 1643.5 3702.5 1658.27 3702.5 1676.5 3702.5 1694.73 3687.5 1709.5 3669 1709.5 3650.5 1709.5 3635.5 1694.73 3635.5 1676.5Z" stroke="#000000" stroke-width="0" stroke-linejoin="round" stroke-miterlimit="10" fill="#0000FF" fill-rule="evenodd"/><path d="M3746.5 1676.5C3746.5 1658.27 3761.27 1643.5 3779.5 1643.5 3797.73 1643.5 3812.5 1658.27 3812.5 1676.5 3812.5 1694.73 3797.73 1709.5 3779.5 1709.5 3761.27 1709.5 3746.5 1694.73 3746.5 1676.5Z" stroke="#000000" stroke-width="0" stroke-linejoin="round" stroke-miterlimit="10" fill="#0000FF" fill-rule="evenodd"/><path d="M0 0 0.000360892 323" stroke="#0000FF" stroke-width="39.5314" stroke-linejoin="round" stroke-miterlimit="10" fill="none" fill-rule="evenodd" transform="matrix(1 0 0 -1 2232 1353)"/><path d="M0 0 0.000360892 323" stroke="#0000FF" stroke-width="39.5314" stroke-linejoin="round" stroke-miterlimit="10" fill="none" fill-rule="evenodd" transform="matrix(1 0 0 -1 2342 1353)"/><path d="M2453 1353 2453 1675" stroke="#0000FF" stroke-width="39.5314" stroke-linejoin="round" stroke-miterlimit="10" fill="none" fill-rule="evenodd"/><path d="M0 0 0.000360892 323" stroke="#0000FF" stroke-width="39.5314" stroke-linejoin="round" stroke-miterlimit="10" fill="none" fill-rule="evenodd" transform="matrix(1 0 0 -1 2563 1353)"/><path d="M2674 1353 2674 1675" stroke="#0000FF" stroke-width="39.5314" stroke-linejoin="round" stroke-miterlimit="10" fill="none" fill-rule="evenodd"/><path d="M0 0 0.000360892 323" stroke="#0000FF" stroke-width="39.5314" stroke-linejoin="round" stroke-miterlimit="10" fill="none" fill-rule="evenodd" transform="matrix(1 0 0 -1 2784 1353)"/><path d="M0 0 0.000360892 323" stroke="#0000FF" stroke-width="39.5314" stroke-linejoin="round" stroke-miterlimit="10" fill="none" fill-rule="evenodd" transform="matrix(1 0 0 -1 2895 1353)"/><path d="M0 0 0.000360892 323" stroke="#0000FF" stroke-width="39.5314" stroke-linejoin="round" stroke-miterlimit="10" fill="none" fill-rule="evenodd" transform="matrix(1 0 0 -1 3005 1353)"/><path d="M0 0 0.000360892 323" stroke="#0000FF" stroke-width="39.5314" stroke-linejoin="round" stroke-miterlimit="10" fill="none" fill-rule="evenodd" transform="matrix(1 0 0 -1 3116 1353)"/><path d="M3226 1353 3226 1675" stroke="#0000FF" stroke-width="39.5314" stroke-linejoin="round" stroke-miterlimit="10" fill="none" fill-rule="evenodd"/><path d="M3337 1353 3337 1675" stroke="#0000FF" stroke-width="39.5314" stroke-linejoin="round" stroke-miterlimit="10" fill="none" fill-rule="evenodd"/><path d="M3447 1353 3447 1675" stroke="#0000FF" stroke-width="39.5314" stroke-linejoin="round" stroke-miterlimit="10" fill="none" fill-rule="evenodd"/><path d="M0 0 0.000360892 323" stroke="#0000FF" stroke-width="39.5314" stroke-linejoin="round" stroke-miterlimit="10" fill="none" fill-rule="evenodd" transform="matrix(1 0 0 -1 3558 1353)"/><path d="M3668 1353 3668 1675" stroke="#0000FF" stroke-width="39.5314" stroke-linejoin="round" stroke-miterlimit="10" fill="none" fill-rule="evenodd"/><path d="M3778 1353 3778 1675" stroke="#0000FF" stroke-width="39.5314" stroke-linejoin="round" stroke-miterlimit="10" fill="none" fill-rule="evenodd"/><path d="M293.174 1663.01 381.604 1663.01 381.604 1672.56 293.174 1672.56Z" fill-rule="evenodd"/><text fill="#000000" fill-opacity="0" font-family="Arial,Arial_MSFontService,sans-serif" font-size="9.54639" x="293.174" y="1671.37">−</text><path d="M438.275 1610.69 442.223 1610.69C441.936 1615.28 441.792 1621.65 441.792 1629.78L441.792 1691.08C441.792 1693.85 441.948 1695.95 442.259 1697.36 442.57 1698.77 443.12 1699.92 443.909 1700.8 444.699 1701.69 445.835 1702.38 447.319 1702.89 448.802 1703.39 450.668 1703.77 452.917 1704.03 455.167 1704.3 458.133 1704.48 461.818 1704.57L461.818 1709.81 408.774 1709.81 408.774 1704.57C414.086 1704.33 417.878 1704.01 420.151 1703.6 422.424 1703.2 424.159 1702.59 425.355 1701.77 426.551 1700.96 427.425 1699.81 427.975 1698.33 428.525 1696.84 428.8 1694.43 428.8 1691.08L428.8 1632.87C428.8 1630.95 428.465 1629.55 427.795 1628.67 427.125 1627.78 426.145 1627.34 424.853 1627.34 423.321 1627.34 421.144 1628.13 418.321 1629.71 415.498 1631.29 412.004 1633.47 407.841 1636.24L404.683 1630.71Z" fill-rule="evenodd"/><text fill="#000000" fill-opacity="0" font-family="Arial,Arial_MSFontService,sans-serif" font-size="99.1245" x="404.683" y="1697.42">1</text></g></svg>