<svg width="2685" height="855" xmlns="http://www.w3.org/2000/svg" xmlns:xlink="http://www.w3.org/1999/xlink" overflow="hidden"><defs><clipPath id="clip0"><rect x="258" y="981" width="2685" height="855"/></clipPath></defs><g clip-path="url(#clip0)" transform="translate(-258 -981)"><path d="M633.5 1153.78 802.583 1153.78 802.583 1157.22 633.5 1157.22ZM798 1141.75 825.5 1155.5 798 1169.25Z"/><path d="M633.5 1318.78 802.583 1318.78 802.583 1322.22 633.5 1322.22ZM798 1306.75 825.5 1320.5 798 1334.25Z"/><path d="M633.5 1511.78 802.583 1511.78 802.583 1515.22 633.5 1515.22ZM798 1499.75 825.5 1513.5 798 1527.25Z"/><path d="M633.5 1731.78 802.583 1731.78 802.583 1735.22 633.5 1735.22ZM798 1719.75 825.5 1733.5 798 1747.25Z"/><rect x="825.5" y="1073.5" width="440" height="135" stroke="#000000" stroke-width="3.4375" stroke-miterlimit="8" fill="none"/><text font-family="Arial,Arial_MSFontService,sans-serif" font-weight="400" font-size="83" transform="matrix(1 0 0 1 858 1169)">{<tspan font-style="italic" font-size="83" x="27.5" y="0">g</tspan><tspan font-size="83" x="73.3334" y="0">[0],</tspan><tspan font-style="italic" font-size="83" x="187.917" y="0">g</tspan><tspan font-size="83" x="233.75" y="0">[4]}</tspan></text><rect x="825.5" y="1265.5" width="440" height="136" stroke="#000000" stroke-width="3.4375" stroke-miterlimit="8" fill="none"/><text font-family="Arial,Arial_MSFontService,sans-serif" font-weight="400" font-size="83" transform="matrix(1 0 0 1 858 1362)">{<tspan font-style="italic" font-size="83" x="27.5" y="0">g</tspan><tspan font-size="83" x="73.3334" y="0">[1],</tspan><tspan font-style="italic" font-size="83" x="187.917" y="0">g</tspan><tspan font-size="83" x="233.75" y="0">[5]}</tspan></text><rect x="825.5" y="1458.5" width="440" height="135" stroke="#000000" stroke-width="3.4375" stroke-miterlimit="8" fill="none"/><text font-family="Arial,Arial_MSFontService,sans-serif" font-weight="400" font-size="83" transform="matrix(1 0 0 1 858 1554)">{<tspan font-style="italic" font-size="83" x="27.5" y="0">g</tspan><tspan font-size="83" x="73.3334" y="0">[2],</tspan><tspan font-style="italic" font-size="83" x="187.917" y="0">g</tspan><tspan font-size="83" x="233.75" y="0">[6]}</tspan></text><rect x="825.5" y="1650.5" width="440" height="136" stroke="#000000" stroke-width="3.4375" stroke-miterlimit="8" fill="none"/><text font-family="Arial,Arial_MSFontService,sans-serif" font-weight="400" font-size="83" transform="matrix(1 0 0 1 858 1747)">{<tspan font-style="italic" font-size="83" x="27.5" y="0">g</tspan><tspan font-size="83" x="73.3334" y="0">[3],</tspan><tspan font-style="italic" font-size="83" x="187.917" y="0">g</tspan><tspan font-size="83" x="233.75" y="0">[7]}</tspan></text><path d="M0 0 0.000360892 578" stroke="#000000" stroke-width="3.4375" stroke-linejoin="round" stroke-miterlimit="10" fill="none" fill-rule="evenodd" transform="matrix(1 0 0 -1 633.5 1733.5)"/><path d="M303.5 1428.78 610.584 1428.78 610.584 1432.22 303.5 1432.22ZM606 1416.75 633.5 1430.5 606 1444.25Z"/><path d="M1265.5 1128.5 2035.5 1128.5" stroke="#000000" stroke-width="3.4375" stroke-linejoin="round" stroke-miterlimit="10" fill="none" fill-rule="evenodd"/><path d="M1265.5 1320.5 2035.5 1320.5" stroke="#000000" stroke-width="3.4375" stroke-linejoin="round" stroke-miterlimit="10" fill="none" fill-rule="evenodd"/><path d="M1265.5 1513.5 2035.5 1513.5" stroke="#000000" stroke-width="3.4375" stroke-linejoin="round" stroke-miterlimit="10" fill="none" fill-rule="evenodd"/><path d="M1265.5 1705.5 2035.5 1705.5" stroke="#000000" stroke-width="3.4375" stroke-linejoin="round" stroke-miterlimit="10" fill="none" fill-rule="evenodd"/><path d="M2035.5 1128.5 2365.5 1348.5" stroke="#000000" stroke-width="3.4375" stroke-linejoin="round" stroke-miterlimit="10" fill="none" fill-rule="evenodd"/><path d="M0 0 330 165" stroke="#000000" stroke-width="3.4375" stroke-linejoin="round" stroke-miterlimit="10" fill="none" fill-rule="evenodd" transform="matrix(1 0 0 -1 2035.5 1705.5)"/><path d="M0 0 330 55" stroke="#000000" stroke-width="3.4375" stroke-linejoin="round" stroke-miterlimit="10" fill="none" fill-rule="evenodd" transform="matrix(1 0 0 -1 2035.5 1513.5)"/><path d="M2035.5 1320.5 2365.5 1403.5" stroke="#000000" stroke-width="3.4375" stroke-linejoin="round" stroke-miterlimit="10" fill="none" fill-rule="evenodd"/><path d="M2503.5 1428.78 2837.58 1428.78 2837.58 1432.22 2503.5 1432.22ZM2833 1416.75 2860.5 1430.5 2833 1444.25Z"/><path d="M2503.5 1430.5 2420.5 1210.5" stroke="#000000" stroke-width="3.4375" stroke-linejoin="round" stroke-miterlimit="10" fill="none" fill-rule="evenodd"/><path d="M228.397-0.491227 233.71 17.3213 235.801 26.5586 237.563 35.7388 238.889 45.071 239.896 54.4415 240.466 63.8971 240.656 73.3406 240.406 83.9159 239.715 94.4255 238.52 104.699 236.884 114.837 234.872 124.839 232.352 134.617 229.458 144.185 226.119 153.576 222.471 162.701 218.373 171.595 209.133 188.512 198.49 204.395 186.52 219.086 173.412 232.394 166.381 238.544 159.129 244.285 151.624 249.649 143.866 254.634 135.915 259.18 127.716 263.345 119.312 267.013 110.672 270.294 101.894 273.076 92.9224 275.354 83.8393 277.185 74.5556 278.514 65.138 279.276 55.6194 279.593 41.3615 278.967 27.2168 277.142 17.2698 275.032 17.9849 271.67 27.6582 273.733 41.5135 275.533 55.5056 276.157 64.862 275.849 74.0694 275.111 83.1607 273.815 92.0776 272.021 100.856 269.799 109.453 267.081 117.938 263.862 126.159 260.28 134.21 256.195 142.009 251.741 149.626 246.851 156.996 241.59 164.119 235.956 170.963 229.981 183.855 216.914 195.635 202.48 206.117 186.863 215.252 170.155 219.279 161.424 222.881 152.424 226.167 143.19 229.023 133.758 231.503 124.161 233.491 114.288 235.105 104.301 236.285 94.1995 236.969 83.8341 237.219 73.4094 237.034 64.1029 236.479 54.8085 235.486 45.554 234.187 36.3862 232.449 27.3164 230.415 18.3037 225.103 0.491227ZM17.6273 273.351 22.662 289.091 0 268.312 30.22 262.65Z" transform="matrix(-0.783711 -0.621126 -0.621126 0.783711 2691.86 1369.24)"/><path d="M2347.5 1343.5C2347.5 1335.77 2353.54 1329.5 2361 1329.5 2368.46 1329.5 2374.5 1335.77 2374.5 1343.5 2374.5 1351.23 2368.46 1357.5 2361 1357.5 2353.54 1357.5 2347.5 1351.23 2347.5 1343.5Z" stroke="#000000" stroke-width="3.4375" stroke-linejoin="round" stroke-miterlimit="10" fill="#FFFFFF" fill-rule="evenodd"/><path d="M2342.5 1398.5C2342.5 1390.77 2348.77 1384.5 2356.5 1384.5 2364.23 1384.5 2370.5 1390.77 2370.5 1398.5 2370.5 1406.23 2364.23 1412.5 2356.5 1412.5 2348.77 1412.5 2342.5 1406.23 2342.5 1398.5Z" stroke="#000000" stroke-width="3.4375" stroke-linejoin="round" stroke-miterlimit="10" fill="#FFFFFF" fill-rule="evenodd"/><path d="M2351.5 1458C2351.5 1450.54 2357.77 1444.5 2365.5 1444.5 2373.23 1444.5 2379.5 1450.54 2379.5 1458 2379.5 1465.46 2373.23 1471.5 2365.5 1471.5 2357.77 1471.5 2351.5 1465.46 2351.5 1458Z" stroke="#000000" stroke-width="3.4375" stroke-linejoin="round" stroke-miterlimit="10" fill="#FFFFFF" fill-rule="evenodd"/><path d="M2356.5 1536C2356.5 1528.54 2362.54 1522.5 2370 1522.5 2377.46 1522.5 2383.5 1528.54 2383.5 1536 2383.5 1543.46 2377.46 1549.5 2370 1549.5 2362.54 1549.5 2356.5 1543.46 2356.5 1536Z" stroke="#000000" stroke-width="3.4375" stroke-linejoin="round" stroke-miterlimit="10" fill="#FFFFFF" fill-rule="evenodd"/><text font-family="Arial,Arial_MSFontService,sans-serif" font-style="italic" font-weight="400" font-size="83" transform="matrix(1 0 0 1 2645.5 1362)">s<tspan font-style="normal" font-size="83" x="41.25" y="0">[</tspan><tspan font-size="83" x="64.1668" y="0">m</tspan><tspan font-style="normal" font-size="83" x="132.917" y="0">]</tspan><tspan font-style="normal" font-size="83" x="-1210" y="-275">…,</tspan><tspan font-size="83" x="-1104.58" y="-275">s</tspan><tspan font-style="normal" font-size="83" x="-1063.33" y="-275">[4],</tspan><tspan font-size="83" x="-948.75" y="-275">s</tspan><tspan font-style="normal" font-size="83" x="-907.5" y="-275">[0]</tspan><tspan font-style="normal" font-size="83" x="-1210" y="-83">…,</tspan><tspan font-size="83" x="-1104.58" y="-83">s</tspan><tspan font-style="normal" font-size="83" x="-1063.33" y="-83">[5],</tspan><tspan font-size="83" x="-948.75" y="-83">s</tspan><tspan font-style="normal" font-size="83" x="-907.5" y="-83">[1]</tspan><tspan font-style="normal" font-size="83" x="-1210" y="110">…,</tspan><tspan font-size="83" x="-1104.58" y="110">s</tspan><tspan font-style="normal" font-size="83" x="-1063.33" y="110">[6],</tspan><tspan font-size="83" x="-948.75" y="110">s</tspan><tspan font-style="normal" font-size="83" x="-907.5" y="110">[2]</tspan><tspan font-style="normal" font-size="83" x="-1210" y="302">…,</tspan><tspan font-size="83" x="-1104.58" y="302">s</tspan><tspan font-style="normal" font-size="83" x="-1063.33" y="302">[7],</tspan><tspan font-size="83" x="-948.75" y="302">s</tspan><tspan font-style="normal" font-size="83" x="-907.5" y="302">[3]</tspan><tspan font-style="normal" font-size="83" x="-2337.5" y="0">…,</tspan>a<tspan font-style="normal" font-size="55" x="-2186.25" y="20">1</tspan><tspan font-style="normal" font-size="83" x="-2155.89" y="0">,</tspan>a<tspan font-style="normal" font-size="55" x="-2087.14" y="20">0</tspan><tspan font-size="83" x="-220" y="-220">m</tspan><tspan font-style="normal" font-size="83" x="-151.25" y="-220">=0</tspan><tspan font-size="83" x="-220" y="306">Commutator</tspan><tspan font-style="normal" font-size="83" x="-220" y="405">(</tspan>Periodic<tspan font-style="normal" font-size="83" x="105.417" y="405">)</tspan></text></g></svg>