<svg width="2741" height="508" xmlns="http://www.w3.org/2000/svg" xmlns:xlink="http://www.w3.org/1999/xlink" overflow="hidden"><defs><clipPath id="clip0"><rect x="891" y="972" width="2741" height="508"/></clipPath></defs><g clip-path="url(#clip0)" transform="translate(-891 -972)"><path d="M896 1225 3631 1225" stroke="#262626" stroke-width="2.29167" stroke-linejoin="round" stroke-miterlimit="10" fill="none" fill-rule="evenodd"/><path d="M899.5 1010.02 902.937 1004.29 905.802 999.134 908.666 995.124 911.53 992.26 914.968 989.395 917.832 986.531 921.269 984.239 924.134 982.521 926.998 980.229 929.862 979.083 933.3 979.083 936.164 980.229 939.028 983.666 941.893 989.395 945.33 997.989 948.194 1010.02 951.059 1026.06 954.496 1046.11 957.36 1070.17 960.225 1098.82 963.662 1130.33 966.526 1165.85 969.391 1203.08 972.828 1241.47 975.692 1279.85 978.557 1317.09 981.421 1351.46 984.858 1381.83 987.723 1407.03 991.16 1425.94 994.024 1437.97 996.888 1441.98 999.753 1437.97 1003.19 1425.94 1006.05 1407.03 1008.92 1381.83 1012.36 1351.46 1015.22 1317.09 1018.08 1279.85 1020.95 1241.47 1024.39 1203.08 1027.25 1165.85 1030.12 1130.33 1032.98 1098.82 1036.42 1070.17 1039.28 1046.11 1042.72 1026.06 1045.58 1010.02 1048.45 997.989 1051.31 989.395 1054.75 983.093 1057.61 979.083 1061.05 976.792 1063.91 975.073 1066.78 974.5 1069.64 974.5 1073.08 974.5 1075.94 975.073 1078.81 976.792 1082.25 979.083 1085.11 983.093 1087.98 989.395 1090.84 997.989 1094.28 1010.02 1097.14 1026.06 1100.01 1046.11 1103.44 1070.17 1106.31 1098.82 1109.17 1130.33 1112.61 1165.85 1115.47 1203.08 1118.34 1241.47 1121.2 1279.85 1124.64 1317.09 1127.5 1351.46 1130.94 1381.83 1133.81 1407.03 1136.67 1425.94 1139.53 1437.97 1142.97 1441.98 1145.84 1437.97 1148.7 1425.94 1152.14 1407.03 1155 1381.83 1157.87 1351.46 1160.73 1317.09 1164.17 1279.85 1167.03 1241.47 1169.9 1203.08 1173.33 1165.85 1176.2 1130.33 1179.06 1098.82 1182.5 1070.17 1185.36 1046.11 1188.23 1026.06 1191.09 1010.02 1194.53 997.989 1197.39 989.395 1200.83 984.239 1203.7 981.375 1206.56 981.375 1209.42 983.093 1212.86 985.958 1215.73 989.968 1218.59 993.978 1222.03 997.989 1224.89 1002 1227.76 1004.86 1230.62 1007.15 1234.06 1008.87 1236.92 1010.02 1240.36 1010.02 1243.22 1010.02 1246.09 1008.87 1248.95 1007.15 1252.39 1004.86 1255.25 1002 1258.12 997.989 1260.98 993.978 1264.42 989.968 1267.28 985.958 1270.72 983.093 1273.59 981.375 1276.45 981.375 1279.31 984.239 1282.75 989.395 1285.62 997.989 1288.48 1010.02 1291.92 1026.06 1294.78 1046.11 1297.65 1069.03 1300.51 1095.95 1303.95 1125.74 1306.81 1157.83 1310.25 1191.63 1313.11 1226 1315.98 1260.95 1318.84 1294.17 1322.28 1326.26 1325.14 1356.05 1328.01 1382.97 1331.45 1405.89 1334.31 1425.94 1337.17 1441.98 1340.61 1454.01 1343.48 1462.6 1346.34 1468.91 1349.21 1472.92 1352.64 1475.21 1355.51 1476.93 1358.37 1477.5 1361.81 1477.5 1364.67 1477.5 1367.54 1476.93 1370.4 1475.21 1373.84 1472.92 1376.7 1468.91 1380.14 1462.6 1383 1454.01 1385.87 1441.98 1388.73 1425.94 1392.17 1405.89 1395.04 1381.83 1397.9 1353.76 1401.34 1321.67 1404.2 1286.15 1407.07 1248.92 1410.5 1210.53 1413.37 1172.15 1416.23 1134.91 1419.1 1100.54 1422.53 1070.17 1425.4 1044.97 1428.26 1026.06 1431.7 1014.03 1434.56 1010.02 1437.43 1014.03 1440.29 1026.06 1443.73 1045.54 1446.59 1072.46 1450.03 1105.12 1452.9 1142.93 1455.76 1183.61 1458.62 1226 1462.06 1268.39 1464.93 1309.07 1467.79 1346.88 1471.23 1379.54 1474.09 1406.46 1476.96 1425.94 1480.39 1437.97 1483.26 1441.98 1486.12 1437.97 1488.99 1425.94 1492.42 1407.03 1495.29 1381.83 1498.15 1351.46 1501.59 1317.09 1504.45 1279.85 1507.32 1241.47 1510.18 1203.08 1513.62 1165.85 1516.48 1130.33 1519.92 1098.82 1522.79 1070.17 1525.65 1046.11 1528.51 1026.06 1531.95 1010.02 1534.82 997.989 1537.68 989.395 1541.12 984.239 1543.98 981.375 1546.85 981.375 1549.71 983.093 1553.15 985.958 1556.01 989.968 1559.45 993.978 1562.31 997.989 1565.18 1002 1568.04 1004.86 1571.48 1007.15 1574.34 1008.87 1577.21 1010.02 1580.07 1010.02 1583.51 1010.02 1586.37 1008.87 1589.81 1007.15 1592.68 1004.86 1595.54 1002 1598.4 997.989 1601.84 993.978 1604.71 989.968 1607.57 985.958 1611.01 983.093 1613.87 981.375 1616.74 981.375 1619.6 984.239 1623.04 989.395 1625.9 997.989 1629.34 1010.02 1632.2 1026.06 1635.07 1046.11 1637.93 1069.03 1641.37 1095.95 1644.23 1125.74 1647.1 1157.83 1650.54 1191.63 1653.4 1226 1656.26 1260.95 1659.7 1294.17 1662.57 1326.26 1665.43 1356.05 1668.3 1382.97 1671.73 1405.89 1674.6 1425.94 1677.46 1441.98 1680.9 1454.01 1683.76 1462.6 1686.63 1468.33 1689.49 1470.63 1692.93 1470.63 1695.79 1468.91 1699.23 1466.04 1702.09 1462.03 1704.96 1458.02 1707.82 1454.01 1711.26 1450 1714.13 1447.14 1716.99 1444.85 1720.43 1443.13 1723.29 1441.98 1726.16 1441.98 1729.59 1442.55 1732.46 1443.13 1735.32 1443.7 1738.19 1444.27 1741.62 1445.42 1744.49 1445.99 1747.35 1445.99 1750.79 1446.56 1753.65 1445.99 1756.52 1445.99 1759.38 1445.42 1762.82 1444.27 1765.68 1443.7 1769.12 1443.13 1771.99 1442.55 1774.85 1441.98 1777.71 1441.98 1781.15 1443.13 1784.02 1444.85 1787.45 1447.14 1790.32 1450 1793.18 1454.01 1796.05 1458.02 1799.48 1462.03 1802.35 1466.04 1805.21 1468.91 1808.08 1470.63 1811.51 1470.63 1814.38 1468.33 1817.24 1462.6 1820.68 1454.01 1823.54 1441.98 1826.41 1425.94 1829.27 1405.89 1832.71 1382.97 1835.57 1356.05 1839.01 1326.26 1841.88 1294.17 1844.74 1260.95 1847.6 1226 1851.04 1191.63 1853.91 1157.83 1857.34 1125.74 1860.21 1095.95 1863.07 1069.03 1865.94 1046.11 1869.37 1026.06 1872.24 1010.02 1875.1 997.989 1878.54 989.395 1881.4 984.239 1884.27 981.375 1887.13 981.375 1890.57 983.093 1893.43 985.958 1896.3 989.968 1899.16 993.978 1902.6 997.989 1905.46 1002 1908.9 1004.86 1911.77 1007.15 1914.63 1008.87 1917.49 1010.02 1920.93 1010.02 1923.8 1009.45 1927.23 1008.87 1930.1 1008.3 1932.96 1007.73 1935.83 1006.58 1939.26 1006.01 1942.13 1006.01 1944.99 1005.44 1948.43 1006.01 1951.29 1006.01 1954.16 1006.58 1957.02 1007.73 1960.46 1008.3 1963.32 1008.87 1966.19 1009.45 1969.63 1010.02 1972.49 1010.02 1975.36 1008.87 1978.79 1007.15 1981.66 1004.86 1984.52 1002 1987.39 997.989 1990.82 993.978 1993.69 989.968 1996.55 985.958 1999.99 983.093 2002.85 981.375 2005.72 981.375 2009.15 984.239 2012.02 989.395 2014.88 997.989 2018.32 1010.02 2021.18 1026.06 2024.05 1046.11 2026.91 1070.17 2030.35 1098.82 2033.22 1130.33 2036.08 1165.85 2039.52 1203.08 2042.38 1241.47 2045.25 1279.85 2048.68 1317.09 2051.55 1351.46 2054.41 1381.83 2057.28 1407.03 2060.71 1425.94 2063.58 1437.97 2066.44 1441.98 2069.88 1437.97 2072.74 1425.94 2075.61 1406.46 2079.04 1379.54 2081.91 1346.88 2084.77 1309.07 2088.21 1268.39 2091.08 1226 2093.94 1183.61 2096.8 1142.93 2100.24 1105.12 2103.11 1072.46 2106.54 1045.54 2109.41 1026.06 2112.27 1014.03 2115.14 1010.02 2118.57 1014.03 2121.44 1026.06 2124.3 1044.97 2127.17 1070.17 2130.6 1100.54 2133.47 1134.91 2136.33 1172.15 2139.77 1210.53 2142.63 1248.92 2145.5 1286.15 2148.94 1321.67 2151.8 1353.76 2154.66 1381.83 2158.1 1405.89 2160.97 1425.94 2163.83 1441.98 2166.69 1454.01 2170.13 1462.6 2173 1468.91 2176.43 1472.92 2179.3 1475.21 2182.16 1476.93 2185.03 1477.5 2188.46 1477.5 2191.33 1477.5 2194.19 1476.93 2197.63 1475.21 2200.49 1472.92 2203.36 1468.91 2206.22 1462.6 2209.66 1454.01 2212.52 1441.98 2215.39 1425.94 2218.25 1405.89 2221.69 1382.97 2224.55 1356.05 2227.99 1326.26 2230.86 1294.17 2233.72 1260.95 2236.58 1226 2240.02 1191.63 2242.89 1157.83 2246.32 1125.74 2249.19 1095.95 2252.05 1069.03 2254.92 1046.11 2258.35 1026.06 2261.22 1010.02 2264.08 997.989 2267.52 989.395 2270.38 983.093 2273.25 979.083 2276.11 976.792 2279.55 975.073 2282.42 974.5 2285.28 974.5 2288.72 974.5 2291.58 975.073 2294.45 976.792 2297.88 979.083 2300.75 983.093 2303.61 989.395 2306.48 997.989 2309.91 1010.02 2312.78 1026.06 2316.21 1046.11 2319.08 1069.03 2321.94 1095.95 2324.81 1125.74 2328.24 1157.83 2331.11 1191.63 2333.97 1226 2337.41 1260.95 2340.27 1294.17 2343.14 1326.26 2346 1356.05 2349.44 1382.97 2352.31 1405.89 2355.17 1425.94 2358.61 1441.98 2361.47 1454.01 2364.34 1462.6 2367.77 1468.33 2370.64 1470.63 2373.5 1470.63 2376.37 1468.91 2379.8 1466.04 2382.67 1462.03 2386.1 1458.02 2388.97 1454.01 2391.83 1450 2394.7 1447.14 2398.14 1444.85 2401 1443.13 2403.86 1441.98 2407.3 1441.98 2410.17 1441.98 2413.03 1443.13 2415.89 1444.85 2419.33 1447.14 2422.2 1450 2425.63 1454.01 2428.5 1458.02 2431.36 1462.03 2434.23 1466.04 2437.66 1468.91 2440.53 1470.63 2443.39 1470.63 2446.26 1468.33 2449.69 1462.6 2452.56 1454.01 2456 1441.98 2458.86 1425.94 2461.72 1405.89 2464.59 1381.83 2468.03 1353.76 2470.89 1321.67 2473.75 1286.15 2477.19 1248.92 2480.06 1210.53 2482.92 1172.15 2485.78 1134.91 2489.22 1100.54 2492.09 1070.17 2495.52 1044.97 2498.39 1026.06 2501.25 1014.03 2504.12 1010.02 2507.55 1014.03 2510.42 1026.06 2513.28 1045.54 2516.72 1072.46 2519.58 1105.12 2522.45 1142.93 2525.89 1183.61 2528.75 1226 2531.61 1268.39 2534.48 1309.07 2537.92 1346.88 2540.78 1379.54 2543.64 1406.46 2547.08 1425.94 2549.95 1437.97 2552.81 1441.98 2555.68 1437.97 2559.11 1425.94 2561.98 1407.03 2565.41 1381.83 2568.28 1351.46 2571.14 1317.09 2574.01 1279.85 2577.44 1241.47 2580.31 1203.08 2583.17 1165.85 2586.61 1130.33 2589.47 1098.82 2592.34 1070.17 2595.78 1046.11 2598.64 1026.06 2601.51 1010.02 2604.37 997.989 2607.81 989.395 2610.67 983.093 2613.54 979.083 2616.97 976.792 2619.84 975.073 2622.7 974.5 2625.57 974.5 2629 974.5 2631.87 975.073 2635.3 976.792 2638.17 979.083 2641.03 983.093 2643.9 989.395 2647.33 997.989 2650.2 1010.02 2653.06 1026.06 2656.5 1046.11 2659.37 1069.03 2662.23 1095.95 2665.09 1125.74 2668.53 1157.83 2671.4 1191.63 2674.26 1226 2677.7 1260.95 2680.56 1294.17 2683.43 1326.26 2686.86 1356.05 2689.73 1382.97 2692.59 1405.89 2695.46 1425.94 2698.89 1441.98 2701.76 1454.01 2705.2 1462.6 2708.06 1468.33 2710.92 1470.63 2713.79 1470.63 2717.23 1468.91 2720.09 1466.04 2722.95 1462.03 2726.39 1458.02 2729.26 1454.01 2732.12 1450 2734.98 1447.14 2738.42 1444.85 2741.29 1443.13 2744.72 1441.98 2747.59 1441.98 2750.45 1442.55 2753.32 1443.13 2756.75 1443.7 2759.62 1444.27 2762.48 1445.42 2765.35 1445.99 2768.78 1445.99 2771.65 1446.56 2775.09 1445.99 2777.95 1445.99 2780.81 1445.42 2783.68 1444.27 2787.12 1443.7 2789.98 1443.13 2792.84 1442.55 2796.28 1441.98 2799.15 1441.98 2802.01 1443.13 2804.87 1444.85 2808.31 1447.14 2811.18 1450 2814.61 1454.01 2817.48 1458.02 2820.34 1462.03 2823.21 1466.04 2826.64 1468.91 2829.51 1470.63 2832.37 1470.63 2835.81 1468.33 2838.67 1462.6 2841.54 1454.01 2844.98 1441.98 2847.84 1425.94 2850.7 1405.89 2853.57 1382.97 2857.01 1356.05 2859.87 1326.26 2862.73 1294.17 2866.17 1260.95 2869.04 1226 2871.9 1191.63 2874.77 1157.83 2878.2 1125.74 2881.07 1095.95 2884.5 1069.03 2887.37 1046.11 2890.23 1026.06 2893.1 1010.02 2896.53 997.989 2899.4 989.395 2902.26 984.239 2905.7 981.375 2908.56 981.375 2911.43 983.093 2914.87 985.958 2917.73 989.968 2920.6 993.978 2923.46 997.989 2926.9 1002 2929.76 1004.86 2932.63 1007.15 2936.06 1008.87 2938.93 1010.02 2941.79 1010.02 2944.66 1010.02 2948.09 1008.87 2950.96 1007.15 2954.39 1004.86 2957.26 1002 2960.12 997.989 2962.99 993.978 2966.42 989.968 2969.29 985.958 2972.73 983.093 2975.59 981.375 2978.46 981.375 2981.32 984.239 2984.76 989.395 2987.62 997.989 2990.49 1010.02 2993.35 1026.06 2996.79 1046.11 2999.65 1070.17 3002.52 1098.82 3005.95 1130.33 3008.82 1165.85 3011.68 1203.08 3014.55 1241.47 3017.98 1279.85 3020.85 1317.09 3024.29 1351.46 3027.15 1381.83 3030.01 1407.03 3032.88 1425.94 3036.32 1437.97 3039.18 1441.98 3042.62 1437.97 3045.48 1425.94 3048.35 1407.03 3051.21 1381.83 3054.65 1351.46 3057.51 1317.09 3060.38 1279.85 3063.81 1241.47 3066.68 1203.08 3069.54 1165.85 3072.41 1130.33 3075.84 1098.82 3078.71 1070.17 3081.57 1046.11 3084.44 1026.06 3087.87 1010.02 3090.74 997.989 3094.18 989.395 3097.04 983.093 3099.9 979.083 3102.77 976.792 3106.21 975.073 3109.07 974.5 3111.93 974.5 3115.37 974.5 3118.24 975.073 3121.1 976.792 3124.54 979.083 3127.4 983.093 3130.27 989.395 3133.7 997.989 3136.57 1010.02 3139.43 1026.06 3142.3 1046.11 3145.73 1069.03 3148.6 1095.95 3151.46 1125.74 3154.9 1157.83 3157.76 1191.63 3160.63 1226 3164.07 1260.95 3166.93 1294.17 3169.79 1326.26 3172.66 1356.05 3176.1 1382.97 3178.96 1405.89 3181.83 1425.94 3185.26 1441.98 3188.13 1454.01 3190.99 1462.6 3194.43 1468.91 3197.29 1472.92 3200.16 1475.21 3203.59 1476.93 3206.46 1477.5 3209.32 1477.5 3212.19 1477.5 3215.62 1476.93 3218.49 1475.21 3221.35 1472.92 3224.79 1468.91 3227.65 1462.6 3230.52 1454.01 3233.96 1441.98 3236.82 1425.94 3239.69 1405.89 3242.55 1382.97 3245.99 1356.05 3248.85 1326.26 3251.72 1294.17 3255.15 1260.95 3258.02 1226 3260.88 1191.63 3264.32 1157.83 3267.18 1125.74 3270.05 1095.95 3273.48 1069.03 3276.35 1046.11 3279.21 1026.06 3282.08 1010.02 3285.52 997.989 3288.38 989.395 3291.82 983.093 3294.68 979.083 3297.55 976.792 3300.41 975.073 3303.85 974.5 3306.71 974.5 3309.58 974.5 3312.44 975.073 3315.88 976.792 3318.74 979.083 3321.61 983.093 3325.04 989.395 3327.91 997.989 3330.77 1010.02 3333.64 1026.06 3337.07 1046.11 3339.94 1070.17 3343.38 1098.82 3346.24 1130.33 3349.1 1165.85 3351.97 1203.08 3355.41 1241.47 3358.27 1279.85 3361.71 1317.09 3364.57 1351.46 3367.44 1381.83 3370.3 1407.03 3373.74 1425.94 3376.6 1437.97 3379.47 1441.98 3382.9 1437.97 3385.77 1425.94 3388.63 1407.03 3391.5 1381.83 3394.93 1351.46 3397.8 1317.09 3400.66 1279.85 3403.53 1241.47 3406.96 1203.08 3409.83 1165.85 3413.27 1130.33 3416.13 1098.82 3418.99 1070.17 3421.86 1046.11 3425.3 1026.06 3428.16 1010.02 3431.6 997.989 3434.46 989.395 3437.33 983.093 3440.19 979.083 3443.63 976.792 3446.49 975.073 3449.36 974.5 3452.79 974.5 3455.66 974.5 3458.52 975.073 3461.39 976.792 3464.82 979.083 3467.69 983.093 3470.55 989.395 3473.99 997.989 3476.85 1010.02 3479.72 1026.06 3483.16 1046.11 3486.02 1069.03 3488.88 1095.95 3491.75 1125.74 3495.19 1157.83 3498.05 1191.63 3501.49 1226 3504.35 1260.95 3507.22 1294.17 3510.08 1326.26 3513.52 1356.05 3516.38 1382.97 3519.25 1405.89 3522.68 1425.94 3525.55 1441.98 3528.41 1454.01 3531.28 1462.6 3534.71 1468.33 3537.58 1471.77 3540.44 1472.92 3543.88 1472.92 3546.75 1471.77 3549.61 1470.05 3553.05 1467.76 3555.91 1465.47 3558.78 1462.6 3561.64 1460.31 3565.08 1456.88 3567.94 1452.87 3571.38 1447.71 3574.24 1441.98 3577.11 1433.96 3579.97 1424.79 3583.41 1413.34 3586.27 1400.16 3589.14 1385.84 3592.57 1370.37 3595.44 1353.76 3598.3 1336 3601.17 1318.81 3604.6 1301.62 3607.47 1285.58 3610.91 1270.11 3613.77 1256.36 3616.64 1244.33 3619.5 1234.59" stroke="#0072BD" stroke-width="4.58333" stroke-linejoin="round" stroke-miterlimit="10" fill="none" fill-rule="evenodd"/><path d="M891.5 1010C891.5 1005.86 895.082 1002.5 899.5 1002.5 903.918 1002.5 907.5 1005.86 907.5 1010 907.5 1014.14 903.918 1017.5 899.5 1017.5 895.082 1017.5 891.5 1014.14 891.5 1010Z" stroke="#000000" stroke-width="0" stroke-linejoin="round" stroke-miterlimit="10" fill="#FF0000" fill-rule="evenodd"/><path d="M940.5 1010C940.5 1005.86 943.858 1002.5 948 1002.5 952.142 1002.5 955.5 1005.86 955.5 1010 955.5 1014.14 952.142 1017.5 948 1017.5 943.858 1017.5 940.5 1014.14 940.5 1010Z" stroke="#000000" stroke-width="0" stroke-linejoin="round" stroke-miterlimit="10" fill="#FF0000" fill-rule="evenodd"/><path d="M989.5 1442C989.5 1437.86 992.858 1434.5 997 1434.5 1001.14 1434.5 1004.5 1437.86 1004.5 1442 1004.5 1446.14 1001.14 1449.5 997 1449.5 992.858 1449.5 989.5 1446.14 989.5 1442Z" stroke="#000000" stroke-width="0" stroke-linejoin="round" stroke-miterlimit="10" fill="#FF0000" fill-rule="evenodd"/><path d="M1037.5 1010C1037.5 1005.86 1040.86 1002.5 1045 1002.5 1049.14 1002.5 1052.5 1005.86 1052.5 1010 1052.5 1014.14 1049.14 1017.5 1045 1017.5 1040.86 1017.5 1037.5 1014.14 1037.5 1010Z" stroke="#000000" stroke-width="0" stroke-linejoin="round" stroke-miterlimit="10" fill="#FF0000" fill-rule="evenodd"/><path d="M1086.5 1010C1086.5 1005.86 1089.86 1002.5 1094 1002.5 1098.14 1002.5 1101.5 1005.86 1101.5 1010 1101.5 1014.14 1098.14 1017.5 1094 1017.5 1089.86 1017.5 1086.5 1014.14 1086.5 1010Z" stroke="#000000" stroke-width="0" stroke-linejoin="round" stroke-miterlimit="10" fill="#FF0000" fill-rule="evenodd"/><path d="M1134.5 1442C1134.5 1437.86 1138.08 1434.5 1142.5 1434.5 1146.92 1434.5 1150.5 1437.86 1150.5 1442 1150.5 1446.14 1146.92 1449.5 1142.5 1449.5 1138.08 1449.5 1134.5 1446.14 1134.5 1442Z" stroke="#000000" stroke-width="0" stroke-linejoin="round" stroke-miterlimit="10" fill="#FF0000" fill-rule="evenodd"/><path d="M1183.5 1010C1183.5 1005.86 1187.08 1002.5 1191.5 1002.5 1195.92 1002.5 1199.5 1005.86 1199.5 1010 1199.5 1014.14 1195.92 1017.5 1191.5 1017.5 1187.08 1017.5 1183.5 1014.14 1183.5 1010Z" stroke="#000000" stroke-width="0" stroke-linejoin="round" stroke-miterlimit="10" fill="#FF0000" fill-rule="evenodd"/><path d="M1232.5 1010C1232.5 1005.86 1235.86 1002.5 1240 1002.5 1244.14 1002.5 1247.5 1005.86 1247.5 1010 1247.5 1014.14 1244.14 1017.5 1240 1017.5 1235.86 1017.5 1232.5 1014.14 1232.5 1010Z" stroke="#000000" stroke-width="0" stroke-linejoin="round" stroke-miterlimit="10" fill="#FF0000" fill-rule="evenodd"/><path d="M1280.5 1010C1280.5 1005.86 1284.08 1002.5 1288.5 1002.5 1292.92 1002.5 1296.5 1005.86 1296.5 1010 1296.5 1014.14 1292.92 1017.5 1288.5 1017.5 1284.08 1017.5 1280.5 1014.14 1280.5 1010Z" stroke="#000000" stroke-width="0" stroke-linejoin="round" stroke-miterlimit="10" fill="#FF0000" fill-rule="evenodd"/><path d="M1329.5 1442C1329.5 1437.86 1332.86 1434.5 1337 1434.5 1341.14 1434.5 1344.5 1437.86 1344.5 1442 1344.5 1446.14 1341.14 1449.5 1337 1449.5 1332.86 1449.5 1329.5 1446.14 1329.5 1442Z" stroke="#000000" stroke-width="0" stroke-linejoin="round" stroke-miterlimit="10" fill="#FF0000" fill-rule="evenodd"/><path d="M1378.5 1442C1378.5 1437.86 1381.86 1434.5 1386 1434.5 1390.14 1434.5 1393.5 1437.86 1393.5 1442 1393.5 1446.14 1390.14 1449.5 1386 1449.5 1381.86 1449.5 1378.5 1446.14 1378.5 1442Z" stroke="#000000" stroke-width="0" stroke-linejoin="round" stroke-miterlimit="10" fill="#FF0000" fill-rule="evenodd"/><path d="M1427.5 1010C1427.5 1005.86 1430.63 1002.5 1434.5 1002.5 1438.37 1002.5 1441.5 1005.86 1441.5 1010 1441.5 1014.14 1438.37 1017.5 1434.5 1017.5 1430.63 1017.5 1427.5 1014.14 1427.5 1010Z" stroke="#000000" stroke-width="0" stroke-linejoin="round" stroke-miterlimit="10" fill="#FF0000" fill-rule="evenodd"/><path d="M1475.5 1442C1475.5 1437.86 1478.86 1434.5 1483 1434.5 1487.14 1434.5 1490.5 1437.86 1490.5 1442 1490.5 1446.14 1487.14 1449.5 1483 1449.5 1478.86 1449.5 1475.5 1446.14 1475.5 1442Z" stroke="#000000" stroke-width="0" stroke-linejoin="round" stroke-miterlimit="10" fill="#FF0000" fill-rule="evenodd"/><path d="M1523.5 1010C1523.5 1005.86 1527.08 1002.5 1531.5 1002.5 1535.92 1002.5 1539.5 1005.86 1539.5 1010 1539.5 1014.14 1535.92 1017.5 1531.5 1017.5 1527.08 1017.5 1523.5 1014.14 1523.5 1010Z" stroke="#000000" stroke-width="0" stroke-linejoin="round" stroke-miterlimit="10" fill="#FF0000" fill-rule="evenodd"/><path d="M1572.5 1010C1572.5 1005.86 1576.08 1002.5 1580.5 1002.5 1584.92 1002.5 1588.5 1005.86 1588.5 1010 1588.5 1014.14 1584.92 1017.5 1580.5 1017.5 1576.08 1017.5 1572.5 1014.14 1572.5 1010Z" stroke="#000000" stroke-width="0" stroke-linejoin="round" stroke-miterlimit="10" fill="#FF0000" fill-rule="evenodd"/><path d="M1621.5 1010C1621.5 1005.86 1624.86 1002.5 1629 1002.5 1633.14 1002.5 1636.5 1005.86 1636.5 1010 1636.5 1014.14 1633.14 1017.5 1629 1017.5 1624.86 1017.5 1621.5 1014.14 1621.5 1010Z" stroke="#000000" stroke-width="0" stroke-linejoin="round" stroke-miterlimit="10" fill="#FF0000" fill-rule="evenodd"/><path d="M1669.5 1442C1669.5 1437.86 1673.08 1434.5 1677.5 1434.5 1681.92 1434.5 1685.5 1437.86 1685.5 1442 1685.5 1446.14 1681.92 1449.5 1677.5 1449.5 1673.08 1449.5 1669.5 1446.14 1669.5 1442Z" stroke="#000000" stroke-width="0" stroke-linejoin="round" stroke-miterlimit="10" fill="#FF0000" fill-rule="evenodd"/><path d="M1718.5 1442C1718.5 1437.86 1721.86 1434.5 1726 1434.5 1730.14 1434.5 1733.5 1437.86 1733.5 1442 1733.5 1446.14 1730.14 1449.5 1726 1449.5 1721.86 1449.5 1718.5 1446.14 1718.5 1442Z" stroke="#000000" stroke-width="0" stroke-linejoin="round" stroke-miterlimit="10" fill="#FF0000" fill-rule="evenodd"/><path d="M1767.5 1442C1767.5 1437.86 1770.86 1434.5 1775 1434.5 1779.14 1434.5 1782.5 1437.86 1782.5 1442 1782.5 1446.14 1779.14 1449.5 1775 1449.5 1770.86 1449.5 1767.5 1446.14 1767.5 1442Z" stroke="#000000" stroke-width="0" stroke-linejoin="round" stroke-miterlimit="10" fill="#FF0000" fill-rule="evenodd"/><path d="M1816.5 1442C1816.5 1437.86 1819.63 1434.5 1823.5 1434.5 1827.37 1434.5 1830.5 1437.86 1830.5 1442 1830.5 1446.14 1827.37 1449.5 1823.5 1449.5 1819.63 1449.5 1816.5 1446.14 1816.5 1442Z" stroke="#000000" stroke-width="0" stroke-linejoin="round" stroke-miterlimit="10" fill="#FF0000" fill-rule="evenodd"/><path d="M1864.5 1010C1864.5 1005.86 1867.86 1002.5 1872 1002.5 1876.14 1002.5 1879.5 1005.86 1879.5 1010 1879.5 1014.14 1876.14 1017.5 1872 1017.5 1867.86 1017.5 1864.5 1014.14 1864.5 1010Z" stroke="#000000" stroke-width="0" stroke-linejoin="round" stroke-miterlimit="10" fill="#FF0000" fill-rule="evenodd"/><path d="M1913.5 1010C1913.5 1005.86 1916.86 1002.5 1921 1002.5 1925.14 1002.5 1928.5 1005.86 1928.5 1010 1928.5 1014.14 1925.14 1017.5 1921 1017.5 1916.86 1017.5 1913.5 1014.14 1913.5 1010Z" stroke="#000000" stroke-width="0" stroke-linejoin="round" stroke-miterlimit="10" fill="#FF0000" fill-rule="evenodd"/><path d="M1961.5 1010C1961.5 1005.86 1965.08 1002.5 1969.5 1002.5 1973.92 1002.5 1977.5 1005.86 1977.5 1010 1977.5 1014.14 1973.92 1017.5 1969.5 1017.5 1965.08 1017.5 1961.5 1014.14 1961.5 1010Z" stroke="#000000" stroke-width="0" stroke-linejoin="round" stroke-miterlimit="10" fill="#FF0000" fill-rule="evenodd"/><path d="M2010.5 1010C2010.5 1005.86 2013.86 1002.5 2018 1002.5 2022.14 1002.5 2025.5 1005.86 2025.5 1010 2025.5 1014.14 2022.14 1017.5 2018 1017.5 2013.86 1017.5 2010.5 1014.14 2010.5 1010Z" stroke="#000000" stroke-width="0" stroke-linejoin="round" stroke-miterlimit="10" fill="#FF0000" fill-rule="evenodd"/><path d="M2058.5 1442C2058.5 1437.86 2062.08 1434.5 2066.5 1434.5 2070.92 1434.5 2074.5 1437.86 2074.5 1442 2074.5 1446.14 2070.92 1449.5 2066.5 1449.5 2062.08 1449.5 2058.5 1446.14 2058.5 1442Z" stroke="#000000" stroke-width="0" stroke-linejoin="round" stroke-miterlimit="10" fill="#FF0000" fill-rule="evenodd"/><path d="M2107.5 1010C2107.5 1005.86 2110.86 1002.5 2115 1002.5 2119.14 1002.5 2122.5 1005.86 2122.5 1010 2122.5 1014.14 2119.14 1017.5 2115 1017.5 2110.86 1017.5 2107.5 1014.14 2107.5 1010Z" stroke="#000000" stroke-width="0" stroke-linejoin="round" stroke-miterlimit="10" fill="#FF0000" fill-rule="evenodd"/><path d="M2156.5 1442C2156.5 1437.86 2159.86 1434.5 2164 1434.5 2168.14 1434.5 2171.5 1437.86 2171.5 1442 2171.5 1446.14 2168.14 1449.5 2164 1449.5 2159.86 1449.5 2156.5 1446.14 2156.5 1442Z" stroke="#000000" stroke-width="0" stroke-linejoin="round" stroke-miterlimit="10" fill="#FF0000" fill-rule="evenodd"/><path d="M2205.5 1442C2205.5 1437.86 2208.86 1434.5 2213 1434.5 2217.14 1434.5 2220.5 1437.86 2220.5 1442 2220.5 1446.14 2217.14 1449.5 2213 1449.5 2208.86 1449.5 2205.5 1446.14 2205.5 1442Z" stroke="#000000" stroke-width="0" stroke-linejoin="round" stroke-miterlimit="10" fill="#FF0000" fill-rule="evenodd"/><path d="M2253.5 1010C2253.5 1005.86 2256.86 1002.5 2261 1002.5 2265.14 1002.5 2268.5 1005.86 2268.5 1010 2268.5 1014.14 2265.14 1017.5 2261 1017.5 2256.86 1017.5 2253.5 1014.14 2253.5 1010Z" stroke="#000000" stroke-width="0" stroke-linejoin="round" stroke-miterlimit="10" fill="#FF0000" fill-rule="evenodd"/><path d="M2302.5 1010C2302.5 1005.86 2305.86 1002.5 2310 1002.5 2314.14 1002.5 2317.5 1005.86 2317.5 1010 2317.5 1014.14 2314.14 1017.5 2310 1017.5 2305.86 1017.5 2302.5 1014.14 2302.5 1010Z" stroke="#000000" stroke-width="0" stroke-linejoin="round" stroke-miterlimit="10" fill="#FF0000" fill-rule="evenodd"/><path d="M2350.5 1442C2350.5 1437.86 2354.08 1434.5 2358.5 1434.5 2362.92 1434.5 2366.5 1437.86 2366.5 1442 2366.5 1446.14 2362.92 1449.5 2358.5 1449.5 2354.08 1449.5 2350.5 1446.14 2350.5 1442Z" stroke="#000000" stroke-width="0" stroke-linejoin="round" stroke-miterlimit="10" fill="#FF0000" fill-rule="evenodd"/><path d="M2399.5 1442C2399.5 1437.86 2402.86 1434.5 2407 1434.5 2411.14 1434.5 2414.5 1437.86 2414.5 1442 2414.5 1446.14 2411.14 1449.5 2407 1449.5 2402.86 1449.5 2399.5 1446.14 2399.5 1442Z" stroke="#000000" stroke-width="0" stroke-linejoin="round" stroke-miterlimit="10" fill="#FF0000" fill-rule="evenodd"/><path d="M2448.5 1442C2448.5 1437.86 2451.86 1434.5 2456 1434.5 2460.14 1434.5 2463.5 1437.86 2463.5 1442 2463.5 1446.14 2460.14 1449.5 2456 1449.5 2451.86 1449.5 2448.5 1446.14 2448.5 1442Z" stroke="#000000" stroke-width="0" stroke-linejoin="round" stroke-miterlimit="10" fill="#FF0000" fill-rule="evenodd"/><path d="M2496.5 1010C2496.5 1005.86 2500.08 1002.5 2504.5 1002.5 2508.92 1002.5 2512.5 1005.86 2512.5 1010 2512.5 1014.14 2508.92 1017.5 2504.5 1017.5 2500.08 1017.5 2496.5 1014.14 2496.5 1010Z" stroke="#000000" stroke-width="0" stroke-linejoin="round" stroke-miterlimit="10" fill="#FF0000" fill-rule="evenodd"/><path d="M2545.5 1442C2545.5 1437.86 2548.86 1434.5 2553 1434.5 2557.14 1434.5 2560.5 1437.86 2560.5 1442 2560.5 1446.14 2557.14 1449.5 2553 1449.5 2548.86 1449.5 2545.5 1446.14 2545.5 1442Z" stroke="#000000" stroke-width="0" stroke-linejoin="round" stroke-miterlimit="10" fill="#FF0000" fill-rule="evenodd"/><path d="M2594.5 1010C2594.5 1005.86 2597.86 1002.5 2602 1002.5 2606.14 1002.5 2609.5 1005.86 2609.5 1010 2609.5 1014.14 2606.14 1017.5 2602 1017.5 2597.86 1017.5 2594.5 1014.14 2594.5 1010Z" stroke="#000000" stroke-width="0" stroke-linejoin="round" stroke-miterlimit="10" fill="#FF0000" fill-rule="evenodd"/><path d="M2642.5 1010C2642.5 1005.86 2645.86 1002.5 2650 1002.5 2654.14 1002.5 2657.5 1005.86 2657.5 1010 2657.5 1014.14 2654.14 1017.5 2650 1017.5 2645.86 1017.5 2642.5 1014.14 2642.5 1010Z" stroke="#000000" stroke-width="0" stroke-linejoin="round" stroke-miterlimit="10" fill="#FF0000" fill-rule="evenodd"/><path d="M2691.5 1442C2691.5 1437.86 2694.86 1434.5 2699 1434.5 2703.14 1434.5 2706.5 1437.86 2706.5 1442 2706.5 1446.14 2703.14 1449.5 2699 1449.5 2694.86 1449.5 2691.5 1446.14 2691.5 1442Z" stroke="#000000" stroke-width="0" stroke-linejoin="round" stroke-miterlimit="10" fill="#FF0000" fill-rule="evenodd"/><path d="M2739.5 1442C2739.5 1437.86 2743.08 1434.5 2747.5 1434.5 2751.92 1434.5 2755.5 1437.86 2755.5 1442 2755.5 1446.14 2751.92 1449.5 2747.5 1449.5 2743.08 1449.5 2739.5 1446.14 2739.5 1442Z" stroke="#000000" stroke-width="0" stroke-linejoin="round" stroke-miterlimit="10" fill="#FF0000" fill-rule="evenodd"/><path d="M2788.5 1442C2788.5 1437.86 2791.86 1434.5 2796 1434.5 2800.14 1434.5 2803.5 1437.86 2803.5 1442 2803.5 1446.14 2800.14 1449.5 2796 1449.5 2791.86 1449.5 2788.5 1446.14 2788.5 1442Z" stroke="#000000" stroke-width="0" stroke-linejoin="round" stroke-miterlimit="10" fill="#FF0000" fill-rule="evenodd"/><path d="M2837.5 1442C2837.5 1437.86 2840.86 1434.5 2845 1434.5 2849.14 1434.5 2852.5 1437.86 2852.5 1442 2852.5 1446.14 2849.14 1449.5 2845 1449.5 2840.86 1449.5 2837.5 1446.14 2837.5 1442Z" stroke="#000000" stroke-width="0" stroke-linejoin="round" stroke-miterlimit="10" fill="#FF0000" fill-rule="evenodd"/><path d="M2885.5 1010C2885.5 1005.86 2889.08 1002.5 2893.5 1002.5 2897.92 1002.5 2901.5 1005.86 2901.5 1010 2901.5 1014.14 2897.92 1017.5 2893.5 1017.5 2889.08 1017.5 2885.5 1014.14 2885.5 1010Z" stroke="#000000" stroke-width="0" stroke-linejoin="round" stroke-miterlimit="10" fill="#FF0000" fill-rule="evenodd"/><path d="M2934.5 1010C2934.5 1005.86 2937.86 1002.5 2942 1002.5 2946.14 1002.5 2949.5 1005.86 2949.5 1010 2949.5 1014.14 2946.14 1017.5 2942 1017.5 2937.86 1017.5 2934.5 1014.14 2934.5 1010Z" stroke="#000000" stroke-width="0" stroke-linejoin="round" stroke-miterlimit="10" fill="#FF0000" fill-rule="evenodd"/><path d="M2983.5 1010C2983.5 1005.86 2986.86 1002.5 2991 1002.5 2995.14 1002.5 2998.5 1005.86 2998.5 1010 2998.5 1014.14 2995.14 1017.5 2991 1017.5 2986.86 1017.5 2983.5 1014.14 2983.5 1010Z" stroke="#000000" stroke-width="0" stroke-linejoin="round" stroke-miterlimit="10" fill="#FF0000" fill-rule="evenodd"/><path d="M3031.5 1442C3031.5 1437.86 3034.86 1434.5 3039 1434.5 3043.14 1434.5 3046.5 1437.86 3046.5 1442 3046.5 1446.14 3043.14 1449.5 3039 1449.5 3034.86 1449.5 3031.5 1446.14 3031.5 1442Z" stroke="#000000" stroke-width="0" stroke-linejoin="round" stroke-miterlimit="10" fill="#FF0000" fill-rule="evenodd"/><path d="M3080.5 1010C3080.5 1005.86 3083.86 1002.5 3088 1002.5 3092.14 1002.5 3095.5 1005.86 3095.5 1010 3095.5 1014.14 3092.14 1017.5 3088 1017.5 3083.86 1017.5 3080.5 1014.14 3080.5 1010Z" stroke="#000000" stroke-width="0" stroke-linejoin="round" stroke-miterlimit="10" fill="#FF0000" fill-rule="evenodd"/><path d="M3128.5 1010C3128.5 1005.86 3132.08 1002.5 3136.5 1002.5 3140.92 1002.5 3144.5 1005.86 3144.5 1010 3144.5 1014.14 3140.92 1017.5 3136.5 1017.5 3132.08 1017.5 3128.5 1014.14 3128.5 1010Z" stroke="#000000" stroke-width="0" stroke-linejoin="round" stroke-miterlimit="10" fill="#FF0000" fill-rule="evenodd"/><path d="M3177.5 1442C3177.5 1437.86 3180.86 1434.5 3185 1434.5 3189.14 1434.5 3192.5 1437.86 3192.5 1442 3192.5 1446.14 3189.14 1449.5 3185 1449.5 3180.86 1449.5 3177.5 1446.14 3177.5 1442Z" stroke="#000000" stroke-width="0" stroke-linejoin="round" stroke-miterlimit="10" fill="#FF0000" fill-rule="evenodd"/><path d="M3226.5 1442C3226.5 1437.86 3229.86 1434.5 3234 1434.5 3238.14 1434.5 3241.5 1437.86 3241.5 1442 3241.5 1446.14 3238.14 1449.5 3234 1449.5 3229.86 1449.5 3226.5 1446.14 3226.5 1442Z" stroke="#000000" stroke-width="0" stroke-linejoin="round" stroke-miterlimit="10" fill="#FF0000" fill-rule="evenodd"/><path d="M3274.5 1010C3274.5 1005.86 3278.08 1002.5 3282.5 1002.5 3286.92 1002.5 3290.5 1005.86 3290.5 1010 3290.5 1014.14 3286.92 1017.5 3282.5 1017.5 3278.08 1017.5 3274.5 1014.14 3274.5 1010Z" stroke="#000000" stroke-width="0" stroke-linejoin="round" stroke-miterlimit="10" fill="#FF0000" fill-rule="evenodd"/><path d="M3323.5 1010C3323.5 1005.86 3326.86 1002.5 3331 1002.5 3335.14 1002.5 3338.5 1005.86 3338.5 1010 3338.5 1014.14 3335.14 1017.5 3331 1017.5 3326.86 1017.5 3323.5 1014.14 3323.5 1010Z" stroke="#000000" stroke-width="0" stroke-linejoin="round" stroke-miterlimit="10" fill="#FF0000" fill-rule="evenodd"/><path d="M3372.5 1442C3372.5 1437.86 3375.86 1434.5 3380 1434.5 3384.14 1434.5 3387.5 1437.86 3387.5 1442 3387.5 1446.14 3384.14 1449.5 3380 1449.5 3375.86 1449.5 3372.5 1446.14 3372.5 1442Z" stroke="#000000" stroke-width="0" stroke-linejoin="round" stroke-miterlimit="10" fill="#FF0000" fill-rule="evenodd"/><path d="M3420.5 1010C3420.5 1005.86 3423.86 1002.5 3428 1002.5 3432.14 1002.5 3435.5 1005.86 3435.5 1010 3435.5 1014.14 3432.14 1017.5 3428 1017.5 3423.86 1017.5 3420.5 1014.14 3420.5 1010Z" stroke="#000000" stroke-width="0" stroke-linejoin="round" stroke-miterlimit="10" fill="#FF0000" fill-rule="evenodd"/><path d="M3469.5 1010C3469.5 1005.86 3472.86 1002.5 3477 1002.5 3481.14 1002.5 3484.5 1005.86 3484.5 1010 3484.5 1014.14 3481.14 1017.5 3477 1017.5 3472.86 1017.5 3469.5 1014.14 3469.5 1010Z" stroke="#000000" stroke-width="0" stroke-linejoin="round" stroke-miterlimit="10" fill="#FF0000" fill-rule="evenodd"/><path d="M3517.5 1442C3517.5 1437.86 3521.08 1434.5 3525.5 1434.5 3529.92 1434.5 3533.5 1437.86 3533.5 1442 3533.5 1446.14 3529.92 1449.5 3525.5 1449.5 3521.08 1449.5 3517.5 1446.14 3517.5 1442Z" stroke="#000000" stroke-width="0" stroke-linejoin="round" stroke-miterlimit="10" fill="#FF0000" fill-rule="evenodd"/><path d="M3566.5 1442C3566.5 1437.86 3569.86 1434.5 3574 1434.5 3578.14 1434.5 3581.5 1437.86 3581.5 1442 3581.5 1446.14 3578.14 1449.5 3574 1449.5 3569.86 1449.5 3566.5 1446.14 3566.5 1442Z" stroke="#000000" stroke-width="0" stroke-linejoin="round" stroke-miterlimit="10" fill="#FF0000" fill-rule="evenodd"/><path d="M0 0 0.000360892 216" stroke="#FF0000" stroke-width="2.29167" stroke-linejoin="round" stroke-miterlimit="10" fill="none" fill-rule="evenodd" transform="matrix(1 0 0 -1 899 1225)"/><path d="M0 0 0.000360892 216" stroke="#FF0000" stroke-width="2.29167" stroke-linejoin="round" stroke-miterlimit="10" fill="none" fill-rule="evenodd" transform="matrix(1 0 0 -1 948 1225)"/><path d="M996 1225 996 1441" stroke="#FF0000" stroke-width="2.29167" stroke-linejoin="round" stroke-miterlimit="10" fill="none" fill-rule="evenodd"/><path d="M0 0 0.000360892 216" stroke="#FF0000" stroke-width="2.29167" stroke-linejoin="round" stroke-miterlimit="10" fill="none" fill-rule="evenodd" transform="matrix(1 0 0 -1 1045 1225)"/><path d="M0 0 0.000360892 216" stroke="#FF0000" stroke-width="2.29167" stroke-linejoin="round" stroke-miterlimit="10" fill="none" fill-rule="evenodd" transform="matrix(1 0 0 -1 1094 1225)"/><path d="M1142 1225 1142 1441" stroke="#FF0000" stroke-width="2.29167" stroke-linejoin="round" stroke-miterlimit="10" fill="none" fill-rule="evenodd"/><path d="M0 0 0.000360892 216" stroke="#FF0000" stroke-width="2.29167" stroke-linejoin="round" stroke-miterlimit="10" fill="none" fill-rule="evenodd" transform="matrix(1 0 0 -1 1191 1225)"/><path d="M0 0 0.000360892 216" stroke="#FF0000" stroke-width="2.29167" stroke-linejoin="round" stroke-miterlimit="10" fill="none" fill-rule="evenodd" transform="matrix(1 0 0 -1 1240 1225)"/><path d="M0 0 0.000360892 216" stroke="#FF0000" stroke-width="2.29167" stroke-linejoin="round" stroke-miterlimit="10" fill="none" fill-rule="evenodd" transform="matrix(1 0 0 -1 1288 1225)"/><path d="M1337 1225 1337 1441" stroke="#FF0000" stroke-width="2.29167" stroke-linejoin="round" stroke-miterlimit="10" fill="none" fill-rule="evenodd"/><path d="M1385 1225 1385 1441" stroke="#FF0000" stroke-width="2.29167" stroke-linejoin="round" stroke-miterlimit="10" fill="none" fill-rule="evenodd"/><path d="M0 0 0.000360892 216" stroke="#FF0000" stroke-width="2.29167" stroke-linejoin="round" stroke-miterlimit="10" fill="none" fill-rule="evenodd" transform="matrix(1 0 0 -1 1434 1225)"/><path d="M1483 1225 1483 1441" stroke="#FF0000" stroke-width="2.29167" stroke-linejoin="round" stroke-miterlimit="10" fill="none" fill-rule="evenodd"/><path d="M0 0 0.000360892 216" stroke="#FF0000" stroke-width="2.29167" stroke-linejoin="round" stroke-miterlimit="10" fill="none" fill-rule="evenodd" transform="matrix(1 0 0 -1 1531 1225)"/><path d="M0 0 0.000360892 216" stroke="#FF0000" stroke-width="2.29167" stroke-linejoin="round" stroke-miterlimit="10" fill="none" fill-rule="evenodd" transform="matrix(1 0 0 -1 1580 1225)"/><path d="M0 0 0.000360892 216" stroke="#FF0000" stroke-width="2.29167" stroke-linejoin="round" stroke-miterlimit="10" fill="none" fill-rule="evenodd" transform="matrix(1 0 0 -1 1629 1225)"/><path d="M1677 1225 1677 1441" stroke="#FF0000" stroke-width="2.29167" stroke-linejoin="round" stroke-miterlimit="10" fill="none" fill-rule="evenodd"/><path d="M1726 1225 1726 1441" stroke="#FF0000" stroke-width="2.29167" stroke-linejoin="round" stroke-miterlimit="10" fill="none" fill-rule="evenodd"/><path d="M1774 1225 1774 1441" stroke="#FF0000" stroke-width="2.29167" stroke-linejoin="round" stroke-miterlimit="10" fill="none" fill-rule="evenodd"/><path d="M1823 1225 1823 1441" stroke="#FF0000" stroke-width="2.29167" stroke-linejoin="round" stroke-miterlimit="10" fill="none" fill-rule="evenodd"/><path d="M0 0 0.000360892 216" stroke="#FF0000" stroke-width="2.29167" stroke-linejoin="round" stroke-miterlimit="10" fill="none" fill-rule="evenodd" transform="matrix(1 0 0 -1 1872 1225)"/><path d="M0 0 0.000360892 216" stroke="#FF0000" stroke-width="2.29167" stroke-linejoin="round" stroke-miterlimit="10" fill="none" fill-rule="evenodd" transform="matrix(1 0 0 -1 1920 1225)"/><path d="M0 0 0.000360892 216" stroke="#FF0000" stroke-width="2.29167" stroke-linejoin="round" stroke-miterlimit="10" fill="none" fill-rule="evenodd" transform="matrix(1 0 0 -1 1969 1225)"/><path d="M0 0 0.000360892 216" stroke="#FF0000" stroke-width="2.29167" stroke-linejoin="round" stroke-miterlimit="10" fill="none" fill-rule="evenodd" transform="matrix(1 0 0 -1 2018 1225)"/><path d="M2066 1225 2066 1441" stroke="#FF0000" stroke-width="2.29167" stroke-linejoin="round" stroke-miterlimit="10" fill="none" fill-rule="evenodd"/><path d="M0 0 0.000360892 216" stroke="#FF0000" stroke-width="2.29167" stroke-linejoin="round" stroke-miterlimit="10" fill="none" fill-rule="evenodd" transform="matrix(1 0 0 -1 2115 1225)"/><path d="M2163 1225 2163 1441" stroke="#FF0000" stroke-width="2.29167" stroke-linejoin="round" stroke-miterlimit="10" fill="none" fill-rule="evenodd"/><path d="M2212 1225 2212 1441" stroke="#FF0000" stroke-width="2.29167" stroke-linejoin="round" stroke-miterlimit="10" fill="none" fill-rule="evenodd"/><path d="M0 0 0.000360892 216" stroke="#FF0000" stroke-width="2.29167" stroke-linejoin="round" stroke-miterlimit="10" fill="none" fill-rule="evenodd" transform="matrix(1 0 0 -1 2261 1225)"/><path d="M0 0 0.000360892 216" stroke="#FF0000" stroke-width="2.29167" stroke-linejoin="round" stroke-miterlimit="10" fill="none" fill-rule="evenodd" transform="matrix(1 0 0 -1 2309 1225)"/><path d="M2358 1225 2358 1441" stroke="#FF0000" stroke-width="2.29167" stroke-linejoin="round" stroke-miterlimit="10" fill="none" fill-rule="evenodd"/><path d="M2407 1225 2407 1441" stroke="#FF0000" stroke-width="2.29167" stroke-linejoin="round" stroke-miterlimit="10" fill="none" fill-rule="evenodd"/><path d="M2456 1225 2456 1441" stroke="#FF0000" stroke-width="2.29167" stroke-linejoin="round" stroke-miterlimit="10" fill="none" fill-rule="evenodd"/><path d="M0 0 0.000360892 216" stroke="#FF0000" stroke-width="2.29167" stroke-linejoin="round" stroke-miterlimit="10" fill="none" fill-rule="evenodd" transform="matrix(1 0 0 -1 2504 1225)"/><path d="M2552 1225 2552 1441" stroke="#FF0000" stroke-width="2.29167" stroke-linejoin="round" stroke-miterlimit="10" fill="none" fill-rule="evenodd"/><path d="M0 0 0.000360892 216" stroke="#FF0000" stroke-width="2.29167" stroke-linejoin="round" stroke-miterlimit="10" fill="none" fill-rule="evenodd" transform="matrix(1 0 0 -1 2601 1225)"/><path d="M0 0 0.000360892 216" stroke="#FF0000" stroke-width="2.29167" stroke-linejoin="round" stroke-miterlimit="10" fill="none" fill-rule="evenodd" transform="matrix(1 0 0 -1 2650 1225)"/><path d="M2698 1225 2698 1441" stroke="#FF0000" stroke-width="2.29167" stroke-linejoin="round" stroke-miterlimit="10" fill="none" fill-rule="evenodd"/><path d="M2747 1225 2747 1441" stroke="#FF0000" stroke-width="2.29167" stroke-linejoin="round" stroke-miterlimit="10" fill="none" fill-rule="evenodd"/><path d="M2796 1225 2796 1441" stroke="#FF0000" stroke-width="2.29167" stroke-linejoin="round" stroke-miterlimit="10" fill="none" fill-rule="evenodd"/><path d="M2845 1225 2845 1441" stroke="#FF0000" stroke-width="2.29167" stroke-linejoin="round" stroke-miterlimit="10" fill="none" fill-rule="evenodd"/><path d="M0 0 0.000360892 216" stroke="#FF0000" stroke-width="2.29167" stroke-linejoin="round" stroke-miterlimit="10" fill="none" fill-rule="evenodd" transform="matrix(1 0 0 -1 2893 1225)"/><path d="M0 0 0.000360892 216" stroke="#FF0000" stroke-width="2.29167" stroke-linejoin="round" stroke-miterlimit="10" fill="none" fill-rule="evenodd" transform="matrix(1 0 0 -1 2941 1225)"/><path d="M0 0 0.000360892 216" stroke="#FF0000" stroke-width="2.29167" stroke-linejoin="round" stroke-miterlimit="10" fill="none" fill-rule="evenodd" transform="matrix(1 0 0 -1 2990 1225)"/><path d="M3039 1225 3039 1441" stroke="#FF0000" stroke-width="2.29167" stroke-linejoin="round" stroke-miterlimit="10" fill="none" fill-rule="evenodd"/><path d="M0 0 0.000360892 216" stroke="#FF0000" stroke-width="2.29167" stroke-linejoin="round" stroke-miterlimit="10" fill="none" fill-rule="evenodd" transform="matrix(1 0 0 -1 3087 1225)"/><path d="M0 0 0.000360892 216" stroke="#FF0000" stroke-width="2.29167" stroke-linejoin="round" stroke-miterlimit="10" fill="none" fill-rule="evenodd" transform="matrix(1 0 0 -1 3136 1225)"/><path d="M3185 1225 3185 1441" stroke="#FF0000" stroke-width="2.29167" stroke-linejoin="round" stroke-miterlimit="10" fill="none" fill-rule="evenodd"/><path d="M3234 1225 3234 1441" stroke="#FF0000" stroke-width="2.29167" stroke-linejoin="round" stroke-miterlimit="10" fill="none" fill-rule="evenodd"/><path d="M0 0 0.000360892 216" stroke="#FF0000" stroke-width="2.29167" stroke-linejoin="round" stroke-miterlimit="10" fill="none" fill-rule="evenodd" transform="matrix(1 0 0 -1 3282 1225)"/><path d="M0 0 0.000360892 216" stroke="#FF0000" stroke-width="2.29167" stroke-linejoin="round" stroke-miterlimit="10" fill="none" fill-rule="evenodd" transform="matrix(1 0 0 -1 3330 1225)"/><path d="M3379 1225 3379 1441" stroke="#FF0000" stroke-width="2.29167" stroke-linejoin="round" stroke-miterlimit="10" fill="none" fill-rule="evenodd"/><path d="M0 0 0.000360892 216" stroke="#FF0000" stroke-width="2.29167" stroke-linejoin="round" stroke-miterlimit="10" fill="none" fill-rule="evenodd" transform="matrix(1 0 0 -1 3428 1225)"/><path d="M0 0 0.000360892 216" stroke="#FF0000" stroke-width="2.29167" stroke-linejoin="round" stroke-miterlimit="10" fill="none" fill-rule="evenodd" transform="matrix(1 0 0 -1 3476 1225)"/><path d="M3525 1225 3525 1441" stroke="#FF0000" stroke-width="2.29167" stroke-linejoin="round" stroke-miterlimit="10" fill="none" fill-rule="evenodd"/><path d="M3574 1225 3574 1441" stroke="#FF0000" stroke-width="2.29167" stroke-linejoin="round" stroke-miterlimit="10" fill="none" fill-rule="evenodd"/></g></svg>