<svg width="2589" height="619" xmlns="http://www.w3.org/2000/svg" xmlns:xlink="http://www.w3.org/1999/xlink" overflow="hidden"><defs><clipPath id="clip0"><rect x="856" y="1153" width="2589" height="619"/></clipPath></defs><g clip-path="url(#clip0)" transform="translate(-856 -1153)"><rect x="1078.5" y="1531.5" width="275" height="192" stroke="#000000" stroke-width="3.4375" stroke-miterlimit="8" fill="none"/><text font-family="Times New Roman,Times New Roman_MSFontService,sans-serif" font-weight="400" font-size="73" transform="matrix(1 0 0 1 1150.48 1610)">Unit<tspan font-size="73" x="-22.3438" y="88">Delay</tspan></text><path d="M1410.18 1667.66C1412.39 1667.66 1414.4 1667.8 1416.22 1668.06 1418.04 1668.32 1419.85 1668.77 1421.66 1669.41L1420.05 1676.9 1417.17 1676.9C1416.9 1674.78 1416.21 1673.18 1415.08 1672.08 1413.95 1670.99 1412.18 1670.45 1409.75 1670.45 1407.87 1670.45 1406.35 1670.93 1405.19 1671.89 1404.03 1672.85 1403.44 1674.12 1403.44 1675.68 1403.44 1676.54 1403.59 1677.29 1403.89 1677.95 1404.19 1678.6 1404.79 1679.32 1405.69 1680.1 1406.59 1680.89 1407.99 1681.85 1409.89 1682.99 1411.39 1683.89 1412.59 1684.72 1413.49 1685.47 1414.4 1686.22 1415.11 1686.96 1415.63 1687.7 1416.16 1688.43 1416.54 1689.21 1416.77 1690.03 1417.01 1690.85 1417.13 1691.84 1417.13 1693.01 1417.13 1695.12 1416.57 1696.93 1415.44 1698.44 1414.31 1699.95 1412.78 1701.08 1410.84 1701.81 1408.9 1702.55 1406.7 1702.92 1404.23 1702.92 1402.25 1702.92 1400.32 1702.77 1398.42 1702.47 1396.52 1702.17 1394.4 1701.67 1392.07 1700.96L1393.78 1693.19 1396.56 1693.19C1396.66 1695.47 1397.3 1697.19 1398.49 1698.35 1399.68 1699.52 1401.57 1700.1 1404.16 1700.1 1406.41 1700.1 1408.18 1699.6 1409.45 1698.59 1410.72 1697.58 1411.36 1696.14 1411.36 1694.29 1411.36 1693.22 1411.18 1692.3 1410.82 1691.53 1410.46 1690.76 1409.88 1690.01 1409.07 1689.3 1408.27 1688.59 1406.98 1687.7 1405.23 1686.63 1403.37 1685.51 1401.93 1684.5 1400.89 1683.6 1399.86 1682.69 1399.08 1681.71 1398.56 1680.66 1398.04 1679.6 1397.78 1678.38 1397.78 1677 1397.78 1675.13 1398.28 1673.48 1399.29 1672.07 1400.3 1670.65 1401.74 1669.57 1403.62 1668.81 1405.5 1668.05 1407.68 1667.66 1410.18 1667.66Z" fill-rule="evenodd"/><text fill="#000000" fill-opacity="0" font-family="Arial,Arial_MSFontService,sans-serif" font-size="35.2524" x="1392.07" y="1698.51">ğ‘ </text><path d="M1624.15 1647.45 1640.05 1647.45 1640.05 1715.43 1624.15 1715.43 1624.15 1712.68 1634.13 1712.68 1634.13 1650.2 1624.15 1650.2ZM1433.73 1647.45 1449.63 1647.45 1449.63 1650.2 1439.65 1650.2 1439.65 1712.68 1449.63 1712.68 1449.63 1715.43 1433.73 1715.43Z" fill-rule="evenodd"/><path d="M1462.5 1667.63C1464 1667.63 1465.18 1668.12 1466.05 1669.11 1466.91 1670.09 1467.35 1671.38 1467.35 1672.98 1467.35 1674.24 1467.06 1675.64 1466.49 1677.18L1466.92 1677.32C1469.25 1674.05 1471.46 1671.62 1473.57 1670.04 1475.67 1668.45 1477.84 1667.66 1480.07 1667.66 1482.28 1667.66 1483.98 1668.3 1485.17 1669.57 1486.36 1670.84 1486.95 1672.61 1486.95 1674.86 1486.95 1676.36 1486.61 1678.49 1485.92 1681.25L1483.6 1690.58C1482.96 1693.17 1482.64 1695 1482.64 1696.07 1482.64 1697.02 1482.79 1697.71 1483.1 1698.14 1483.41 1698.57 1483.9 1698.78 1484.56 1698.78 1485.28 1698.78 1486.04 1698.49 1486.84 1697.91 1487.65 1697.33 1488.79 1696.22 1490.27 1694.58L1492.3 1696.57C1490.25 1698.76 1488.47 1700.36 1486.95 1701.37 1485.43 1702.38 1483.7 1702.88 1481.75 1702.88 1480.2 1702.88 1478.97 1702.33 1478.04 1701.22 1477.11 1700.12 1476.65 1698.71 1476.65 1697 1476.65 1695.46 1477.04 1693.19 1477.83 1690.19L1479.39 1684.03C1479.97 1681.79 1480.34 1680.14 1480.52 1679.07 1480.7 1678 1480.78 1677.13 1480.78 1676.47 1480.78 1674.83 1480.51 1673.65 1479.97 1672.92 1479.42 1672.2 1478.53 1671.84 1477.29 1671.84 1476.29 1671.84 1475.22 1672.23 1474.07 1673.03 1472.91 1673.83 1471.69 1675.03 1470.39 1676.63 1469.1 1678.23 1468.06 1679.79 1467.28 1681.3 1466.49 1682.81 1465.85 1684.67 1465.35 1686.88L1461.96 1702.31 1455.8 1702.31 1461 1679.71C1461.53 1677.43 1461.79 1675.67 1461.79 1674.44 1461.79 1673.49 1461.63 1672.8 1461.32 1672.37 1461.01 1671.94 1460.53 1671.73 1459.86 1671.73 1459.12 1671.73 1458.35 1672.03 1457.53 1672.64 1456.71 1673.24 1455.58 1674.34 1454.16 1675.93L1452.13 1673.94C1454.31 1671.66 1456.13 1670.04 1457.58 1669.07 1459.03 1668.11 1460.67 1667.63 1462.5 1667.63Z" fill-rule="evenodd"/><text fill="#000000" fill-opacity="0" font-family="Arial,Arial_MSFontService,sans-serif" font-size="35.2524" x="1452.13" y="1698.48">ğ‘›</text><path d="M1515.96 1679.07 1559.87 1679.07 1559.87 1683.81 1515.96 1683.81Z" fill-rule="evenodd"/><text fill="#000000" fill-opacity="0" font-family="Arial,Arial_MSFontService,sans-serif" font-size="4.74072" x="1515.96" y="1683.22">âˆ’</text><path d="M1604.97 1653.09 1606.93 1653.09C1606.79 1655.37 1606.72 1658.53 1606.72 1662.57L1606.72 1693.01C1606.72 1694.39 1606.79 1695.43 1606.95 1696.13 1607.1 1696.83 1607.37 1697.4 1607.77 1697.84 1608.16 1698.28 1608.72 1698.62 1609.46 1698.87 1610.2 1699.12 1611.12 1699.31 1612.24 1699.44 1613.36 1699.57 1614.83 1699.66 1616.66 1699.71L1616.66 1702.31 1590.32 1702.31 1590.32 1699.71C1592.96 1699.59 1594.84 1699.43 1595.97 1699.23 1597.1 1699.03 1597.96 1698.72 1598.55 1698.32 1599.15 1697.92 1599.58 1697.34 1599.85 1696.61 1600.13 1695.87 1600.26 1694.67 1600.26 1693.01L1600.26 1664.1C1600.26 1663.15 1600.1 1662.45 1599.76 1662.02 1599.43 1661.58 1598.94 1661.36 1598.3 1661.36 1597.54 1661.36 1596.46 1661.75 1595.06 1662.53 1593.66 1663.32 1591.92 1664.4 1589.86 1665.78L1588.29 1663.03Z" fill-rule="evenodd"/><text fill="#000000" fill-opacity="0" font-family="Arial,Arial_MSFontService,sans-serif" font-size="49.2251" x="1588.29" y="1696.16">1</text><path d="M1503 1625.85 1656.21 1625.85 1656.21 1628.15 1503 1628.15ZM1651.63 1613.25 1679.13 1627 1651.63 1640.75Z"/><rect x="1682.5" y="1531.5" width="275" height="192" stroke="#000000" stroke-width="3.4375" stroke-miterlimit="8" fill="none"/><text font-family="Times New Roman,Times New Roman_MSFontService,sans-serif" font-weight="400" font-size="73" transform="matrix(1 0 0 1 1754.64 1610)">Unit<tspan font-size="73" x="-22.3438" y="88">Delay</tspan></text><path d="M3141.57 1667.66C3143.78 1667.66 3145.79 1667.8 3147.61 1668.06 3149.43 1668.32 3151.24 1668.77 3153.04 1669.41L3151.44 1676.9 3148.55 1676.9C3148.29 1674.78 3147.6 1673.18 3146.47 1672.08 3145.34 1670.99 3143.56 1670.45 3141.14 1670.45 3139.26 1670.45 3137.74 1670.93 3136.58 1671.89 3135.41 1672.85 3134.83 1674.12 3134.83 1675.68 3134.83 1676.54 3134.98 1677.29 3135.28 1677.95 3135.57 1678.6 3136.17 1679.32 3137.08 1680.1 3137.98 1680.89 3139.38 1681.85 3141.28 1682.99 3142.78 1683.89 3143.98 1684.72 3144.88 1685.47 3145.79 1686.22 3146.5 1686.96 3147.02 1687.7 3147.54 1688.43 3147.92 1689.21 3148.16 1690.03 3148.4 1690.85 3148.52 1691.84 3148.52 1693.01 3148.52 1695.12 3147.95 1696.93 3146.82 1698.44 3145.7 1699.95 3144.16 1701.08 3142.23 1701.81 3140.29 1702.55 3138.09 1702.92 3135.61 1702.92 3133.64 1702.92 3131.71 1702.77 3129.8 1702.47 3127.9 1702.17 3125.79 1701.67 3123.46 1700.96L3125.17 1693.19 3127.95 1693.19C3128.05 1695.47 3128.69 1697.19 3129.88 1698.35 3131.06 1699.52 3132.95 1700.1 3135.54 1700.1 3137.8 1700.1 3139.57 1699.6 3140.84 1698.59 3142.11 1697.58 3142.74 1696.14 3142.74 1694.29 3142.74 1693.22 3142.57 1692.3 3142.21 1691.53 3141.85 1690.76 3141.27 1690.01 3140.46 1689.3 3139.65 1688.59 3138.37 1687.7 3136.61 1686.63 3134.76 1685.51 3133.32 1684.5 3132.28 1683.6 3131.25 1682.69 3130.47 1681.71 3129.95 1680.66 3129.42 1679.6 3129.16 1678.38 3129.16 1677 3129.16 1675.13 3129.67 1673.48 3130.68 1672.07 3131.69 1670.65 3133.13 1669.57 3135.01 1668.81 3136.89 1668.05 3139.07 1667.66 3141.57 1667.66Z" fill-rule="evenodd"/><text fill="#000000" fill-opacity="0" font-family="Arial,Arial_MSFontService,sans-serif" font-size="35.2524" x="3123.46" y="1698.51">ğ‘ </text><path d="M3377.43 1647.45 3393.32 1647.45 3393.32 1715.43 3377.43 1715.43 3377.43 1712.68 3387.41 1712.68 3387.41 1650.2 3377.43 1650.2ZM3165.12 1647.45 3181.02 1647.45 3181.02 1650.2 3171.04 1650.2 3171.04 1712.68 3181.02 1712.68 3181.02 1715.43 3165.12 1715.43Z" fill-rule="evenodd"/><path d="M3193.89 1667.63C3195.38 1667.63 3196.57 1668.12 3197.43 1669.11 3198.3 1670.09 3198.73 1671.38 3198.73 1672.98 3198.73 1674.24 3198.45 1675.64 3197.88 1677.18L3198.31 1677.32C3200.64 1674.05 3202.85 1671.62 3204.95 1670.04 3207.06 1668.45 3209.23 1667.66 3211.46 1667.66 3213.67 1667.66 3215.37 1668.3 3216.56 1669.57 3217.75 1670.84 3218.34 1672.61 3218.34 1674.86 3218.34 1676.36 3217.99 1678.49 3217.31 1681.25L3214.99 1690.58C3214.35 1693.17 3214.03 1695 3214.03 1696.07 3214.03 1697.02 3214.18 1697.71 3214.49 1698.14 3214.8 1698.57 3215.29 1698.78 3215.95 1698.78 3216.66 1698.78 3217.42 1698.49 3218.23 1697.91 3219.04 1697.33 3220.18 1696.22 3221.65 1694.58L3223.69 1696.57C3221.64 1698.76 3219.86 1700.36 3218.34 1701.37 3216.82 1702.38 3215.08 1702.88 3213.14 1702.88 3211.59 1702.88 3210.35 1702.33 3209.43 1701.22 3208.5 1700.12 3208.04 1698.71 3208.04 1697 3208.04 1695.46 3208.43 1693.19 3209.21 1690.19L3210.78 1684.03C3211.35 1681.79 3211.73 1680.14 3211.91 1679.07 3212.08 1678 3212.17 1677.13 3212.17 1676.47 3212.17 1674.83 3211.9 1673.65 3211.35 1672.92 3210.81 1672.2 3209.92 1671.84 3208.68 1671.84 3207.68 1671.84 3206.61 1672.23 3205.45 1673.03 3204.3 1673.83 3203.08 1675.03 3201.78 1676.63 3200.49 1678.23 3199.45 1679.79 3198.66 1681.3 3197.88 1682.81 3197.24 1684.67 3196.74 1686.88L3193.35 1702.31 3187.19 1702.31 3192.39 1679.71C3192.91 1677.43 3193.17 1675.67 3193.17 1674.44 3193.17 1673.49 3193.02 1672.8 3192.71 1672.37 3192.4 1671.94 3191.91 1671.73 3191.25 1671.73 3190.51 1671.73 3189.73 1672.03 3188.91 1672.64 3188.09 1673.24 3186.97 1674.34 3185.55 1675.93L3183.51 1673.94C3185.7 1671.66 3187.52 1670.04 3188.97 1669.07 3190.42 1668.11 3192.06 1667.63 3193.89 1667.63Z" fill-rule="evenodd"/><text fill="#000000" fill-opacity="0" font-family="Arial,Arial_MSFontService,sans-serif" font-size="35.2524" x="3183.51" y="1698.48">ğ‘›</text><path d="M3247.35 1679.07 3291.26 1679.07 3291.26 1683.81 3247.35 1683.81Z" fill-rule="evenodd"/><text fill="#000000" fill-opacity="0" font-family="Arial,Arial_MSFontService,sans-serif" font-size="4.74072" x="3247.35" y="1683.22">âˆ’</text><path d="M3324.56 1667.63C3326.05 1667.63 3327.24 1668.12 3328.1 1669.11 3328.97 1670.09 3329.41 1671.38 3329.41 1672.98 3329.41 1674.28 3329.13 1675.67 3328.59 1677.15L3329.01 1677.29C3331.2 1674.03 3333.37 1671.62 3335.54 1670.04 3337.7 1668.45 3339.89 1667.66 3342.09 1667.66 3344.38 1667.66 3346.11 1668.31 3347.3 1669.61 3348.49 1670.9 3349.08 1672.77 3349.08 1675.22L3349.08 1675.72C3349.08 1675.89 3349.07 1676.07 3349.05 1676.26 3351.09 1673.36 3353.13 1671.2 3355.16 1669.79 3357.19 1668.37 3359.3 1667.66 3361.49 1667.66 3363.67 1667.66 3365.36 1668.29 3366.55 1669.55 3367.74 1670.81 3368.33 1672.58 3368.33 1674.86 3368.33 1676.36 3367.98 1678.49 3367.3 1681.25L3364.98 1690.58C3364.34 1693.17 3364.02 1695 3364.02 1696.07 3364.02 1697.02 3364.17 1697.71 3364.48 1698.14 3364.79 1698.57 3365.28 1698.78 3365.94 1698.78 3366.65 1698.78 3367.41 1698.49 3368.22 1697.91 3369.03 1697.33 3370.17 1696.22 3371.64 1694.58L3373.68 1696.57C3371.63 1698.73 3369.85 1700.33 3368.33 1701.35 3366.81 1702.37 3365.07 1702.88 3363.13 1702.88 3361.58 1702.88 3360.34 1702.33 3359.42 1701.22 3358.49 1700.12 3358.03 1698.71 3358.03 1697 3358.03 1695.46 3358.42 1693.19 3359.2 1690.19L3360.77 1684.03C3361.34 1681.79 3361.72 1680.14 3361.9 1679.07 3362.07 1678 3362.16 1677.13 3362.16 1676.47 3362.16 1674.83 3361.89 1673.65 3361.34 1672.92 3360.8 1672.2 3359.91 1671.84 3358.67 1671.84 3357.67 1671.84 3356.6 1672.21 3355.46 1672.96 3354.32 1673.71 3353.12 1674.87 3351.86 1676.45 3350.6 1678.03 3349.57 1679.59 3348.78 1681.12 3347.98 1682.65 3347.35 1684.52 3346.87 1686.73L3343.63 1702.31 3337.46 1702.31 3341.56 1684.2C3342.06 1681.99 3342.4 1680.36 3342.58 1679.3 3342.75 1678.25 3342.84 1677.34 3342.84 1676.58 3342.84 1674.86 3342.54 1673.65 3341.93 1672.92 3341.33 1672.2 3340.38 1671.84 3339.1 1671.84 3338.2 1671.84 3337.17 1672.21 3336.02 1672.96 3334.86 1673.71 3333.64 1674.91 3332.33 1676.56 3331.02 1678.21 3330 1679.8 3329.26 1681.32 3328.53 1682.84 3327.91 1684.69 3327.41 1686.88L3324.02 1702.31 3317.86 1702.31 3323.06 1679.71C3323.58 1677.43 3323.84 1675.67 3323.84 1674.44 3323.84 1673.49 3323.69 1672.8 3323.38 1672.37 3323.07 1671.94 3322.59 1671.73 3321.92 1671.73 3321.18 1671.73 3320.41 1672.03 3319.59 1672.64 3318.77 1673.24 3317.64 1674.34 3316.22 1675.93L3314.19 1673.94C3316.28 1671.75 3318.08 1670.15 3319.59 1669.14 3321.09 1668.13 3322.75 1667.63 3324.56 1667.63Z" fill-rule="evenodd"/><text fill="#000000" fill-opacity="0" font-family="Arial,Arial_MSFontService,sans-serif" font-size="35.2524" x="3314.19" y="1698.48">ğ‘š</text><path d="M2635 1626.85 2788.21 1626.85 2788.21 1629.15 2635 1629.15ZM2783.63 1614.25 2811.13 1628 2783.63 1641.75Z"/><path d="M2404.39 1250.6C2406.25 1250.6 2407.81 1251.25 2409.06 1252.56 2410.32 1253.87 2410.94 1255.52 2410.94 1257.53 2410.94 1259.53 2410.32 1261.19 2409.06 1262.5 2407.81 1263.8 2406.25 1264.46 2404.39 1264.46 2402.53 1264.46 2400.97 1263.8 2399.72 1262.5 2398.46 1261.19 2397.84 1259.53 2397.84 1257.53 2397.84 1255.52 2398.46 1253.87 2399.72 1252.56 2400.97 1251.25 2402.53 1250.6 2404.39 1250.6ZM2371.84 1250.6C2373.7 1250.6 2375.26 1251.25 2376.51 1252.56 2377.77 1253.87 2378.39 1255.52 2378.39 1257.53 2378.39 1259.53 2377.77 1261.19 2376.51 1262.5 2375.26 1263.8 2373.7 1264.46 2371.84 1264.46 2369.98 1264.46 2368.42 1263.8 2367.17 1262.5 2365.91 1261.19 2365.29 1259.53 2365.29 1257.53 2365.29 1255.52 2365.91 1253.87 2367.17 1252.56 2368.42 1251.25 2369.98 1250.6 2371.84 1250.6ZM2339.29 1250.6C2341.15 1250.6 2342.71 1251.25 2343.96 1252.56 2345.22 1253.87 2345.84 1255.52 2345.84 1257.53 2345.84 1259.53 2345.22 1261.19 2343.96 1262.5 2342.71 1263.8 2341.15 1264.46 2339.29 1264.46 2337.43 1264.46 2335.87 1263.8 2334.62 1262.5 2333.37 1261.19 2332.74 1259.53 2332.74 1257.53 2332.74 1255.52 2333.37 1253.87 2334.62 1252.56 2335.87 1251.25 2337.43 1250.6 2339.29 1250.6Z" fill-rule="evenodd"/><text fill="#000000" fill-opacity="0" font-family="Arial,Arial_MSFontService,sans-serif" font-size="13.8574" x="2332.74" y="1262.72">â‹¯</text><path d="M2041.5 1257C2041.5 1217.51 2073.29 1185.5 2112.5 1185.5 2151.71 1185.5 2183.5 1217.51 2183.5 1257 2183.5 1296.49 2151.71 1328.5 2112.5 1328.5 2073.29 1328.5 2041.5 1296.49 2041.5 1257Z" stroke="#000000" stroke-width="3.4375" stroke-linejoin="round" stroke-miterlimit="10" fill="none" fill-rule="evenodd"/><text font-family="Times New Roman,Times New Roman_MSFontService,sans-serif" font-weight="400" font-size="110" transform="matrix(1 0 0 1 2080.69 1297)">+</text><path d="M1433.5 1255C1433.5 1215.51 1465.51 1183.5 1505 1183.5 1544.49 1183.5 1576.5 1215.51 1576.5 1255 1576.5 1294.49 1544.49 1326.5 1505 1326.5 1465.51 1326.5 1433.5 1294.49 1433.5 1255Z" stroke="#000000" stroke-width="3.4375" stroke-linejoin="round" stroke-miterlimit="10" fill="none" fill-rule="evenodd"/><text font-family="Times New Roman,Times New Roman_MSFontService,sans-serif" font-weight="400" font-size="110" transform="matrix(1 0 0 1 1473.51 1294)">+</text><path d="M2568.5 1257.5C2568.5 1218.29 2600.29 1186.5 2639.5 1186.5 2678.71 1186.5 2710.5 1218.29 2710.5 1257.5 2710.5 1296.71 2678.71 1328.5 2639.5 1328.5 2600.29 1328.5 2568.5 1296.71 2568.5 1257.5Z" stroke="#000000" stroke-width="3.4375" stroke-linejoin="round" stroke-miterlimit="10" fill="none" fill-rule="evenodd"/><text font-family="Times New Roman,Times New Roman_MSFontService,sans-serif" font-weight="400" font-size="110" transform="matrix(1 0 0 1 2607.89 1297)">+</text><path d="M2404.39 1617.74C2406.25 1617.74 2407.81 1618.4 2409.06 1619.7 2410.32 1621.01 2410.94 1622.67 2410.94 1624.67 2410.94 1626.68 2410.32 1628.33 2409.06 1629.64 2407.81 1630.95 2406.25 1631.6 2404.39 1631.6 2402.53 1631.6 2400.97 1630.95 2399.72 1629.64 2398.46 1628.33 2397.84 1626.68 2397.84 1624.67 2397.84 1622.67 2398.46 1621.01 2399.72 1619.7 2400.97 1618.4 2402.53 1617.74 2404.39 1617.74ZM2371.84 1617.74C2373.7 1617.74 2375.26 1618.4 2376.51 1619.7 2377.77 1621.01 2378.39 1622.67 2378.39 1624.67 2378.39 1626.68 2377.77 1628.33 2376.51 1629.64 2375.26 1630.95 2373.7 1631.6 2371.84 1631.6 2369.98 1631.6 2368.42 1630.95 2367.17 1629.64 2365.91 1628.33 2365.29 1626.68 2365.29 1624.67 2365.29 1622.67 2365.91 1621.01 2367.17 1619.7 2368.42 1618.4 2369.98 1617.74 2371.84 1617.74ZM2339.29 1617.74C2341.15 1617.74 2342.71 1618.4 2343.96 1619.7 2345.22 1621.01 2345.84 1622.67 2345.84 1624.67 2345.84 1626.68 2345.22 1628.33 2343.96 1629.64 2342.71 1630.95 2341.15 1631.6 2339.29 1631.6 2337.43 1631.6 2335.87 1630.95 2334.62 1629.64 2333.37 1628.33 2332.74 1626.68 2332.74 1624.67 2332.74 1622.67 2333.37 1621.01 2334.62 1619.7 2335.87 1618.4 2337.43 1617.74 2339.29 1617.74Z" fill-rule="evenodd"/><text fill="#000000" fill-opacity="0" font-family="Arial,Arial_MSFontService,sans-serif" font-size="13.8574" x="2332.74" y="1629.87">â‹¯</text><path d="M2014.34 1667.66C2016.55 1667.66 2018.57 1667.8 2020.38 1668.06 2022.2 1668.32 2024.01 1668.77 2025.82 1669.41L2024.22 1676.9 2021.33 1676.9C2021.07 1674.78 2020.37 1673.18 2019.24 1672.08 2018.11 1670.99 2016.34 1670.45 2013.91 1670.45 2012.04 1670.45 2010.52 1670.93 2009.35 1671.89 2008.19 1672.85 2007.61 1674.12 2007.61 1675.68 2007.61 1676.54 2007.75 1677.29 2008.05 1677.95 2008.35 1678.6 2008.95 1679.32 2009.85 1680.1 2010.75 1680.89 2012.16 1681.85 2014.06 1682.99 2015.55 1683.89 2016.75 1684.72 2017.66 1685.47 2018.56 1686.22 2019.27 1686.96 2019.8 1687.7 2020.32 1688.43 2020.7 1689.21 2020.94 1690.03 2021.17 1690.85 2021.29 1691.84 2021.29 1693.01 2021.29 1695.12 2020.73 1696.93 2019.6 1698.44 2018.47 1699.95 2016.94 1701.08 2015 1701.81 2013.07 1702.55 2010.86 1702.92 2008.39 1702.92 2006.42 1702.92 2004.48 1702.77 2002.58 1702.47 2000.68 1702.17 1998.56 1701.67 1996.23 1700.96L1997.95 1693.19 2000.73 1693.19C2000.82 1695.47 2001.46 1697.19 2002.65 1698.35 2003.84 1699.52 2005.73 1700.1 2008.32 1700.1 2010.58 1700.1 2012.34 1699.6 2013.61 1698.59 2014.88 1697.58 2015.52 1696.14 2015.52 1694.29 2015.52 1693.22 2015.34 1692.3 2014.98 1691.53 2014.63 1690.76 2014.05 1690.01 2013.24 1689.3 2012.43 1688.59 2011.15 1687.7 2009.39 1686.63 2007.53 1685.51 2006.09 1684.5 2005.06 1683.6 2004.02 1682.69 2003.25 1681.71 2002.72 1680.66 2002.2 1679.6 2001.94 1678.38 2001.94 1677 2001.94 1675.13 2002.44 1673.48 2003.45 1672.07 2004.46 1670.65 2005.91 1669.57 2007.78 1668.81 2009.66 1668.05 2011.85 1667.66 2014.34 1667.66Z" fill-rule="evenodd"/><text fill="#000000" fill-opacity="0" font-family="Arial,Arial_MSFontService,sans-serif" font-size="35.2524" x="1996.23" y="1698.51">ğ‘ </text><path d="M2228.31 1647.45 2244.21 1647.45 2244.21 1715.43 2228.31 1715.43 2228.31 1712.68 2238.3 1712.68 2238.3 1650.2 2228.31 1650.2ZM2037.89 1647.45 2053.79 1647.45 2053.79 1650.2 2043.81 1650.2 2043.81 1712.68 2053.79 1712.68 2053.79 1715.43 2037.89 1715.43Z" fill-rule="evenodd"/><path d="M2066.66 1667.63C2068.16 1667.63 2069.34 1668.12 2070.21 1669.11 2071.08 1670.09 2071.51 1671.38 2071.51 1672.98 2071.51 1674.24 2071.22 1675.64 2070.65 1677.18L2071.08 1677.32C2073.41 1674.05 2075.63 1671.62 2077.73 1670.04 2079.83 1668.45 2082 1667.66 2084.23 1667.66 2086.44 1667.66 2088.14 1668.3 2089.33 1669.57 2090.52 1670.84 2091.11 1672.61 2091.11 1674.86 2091.11 1676.36 2090.77 1678.49 2090.08 1681.25L2087.76 1690.58C2087.12 1693.17 2086.8 1695 2086.8 1696.07 2086.8 1697.02 2086.96 1697.71 2087.26 1698.14 2087.57 1698.57 2088.06 1698.78 2088.73 1698.78 2089.44 1698.78 2090.2 1698.49 2091.01 1697.91 2091.82 1697.33 2092.96 1696.22 2094.43 1694.58L2096.46 1696.57C2094.42 1698.76 2092.64 1700.36 2091.11 1701.37 2089.59 1702.38 2087.86 1702.88 2085.91 1702.88 2084.37 1702.88 2083.13 1702.33 2082.2 1701.22 2081.28 1700.12 2080.81 1698.71 2080.81 1697 2080.81 1695.46 2081.21 1693.19 2081.99 1690.19L2083.56 1684.03C2084.13 1681.79 2084.5 1680.14 2084.68 1679.07 2084.86 1678 2084.95 1677.13 2084.95 1676.47 2084.95 1674.83 2084.67 1673.65 2084.13 1672.92 2083.58 1672.2 2082.69 1671.84 2081.45 1671.84 2080.46 1671.84 2079.38 1672.23 2078.23 1673.03 2077.08 1673.83 2075.85 1675.03 2074.56 1676.63 2073.26 1678.23 2072.22 1679.79 2071.44 1681.3 2070.65 1682.81 2070.01 1684.67 2069.51 1686.88L2066.13 1702.31 2059.96 1702.31 2065.17 1679.71C2065.69 1677.43 2065.95 1675.67 2065.95 1674.44 2065.95 1673.49 2065.79 1672.8 2065.49 1672.37 2065.18 1671.94 2064.69 1671.73 2064.02 1671.73 2063.29 1671.73 2062.51 1672.03 2061.69 1672.64 2060.87 1673.24 2059.75 1674.34 2058.32 1675.93L2056.29 1673.94C2058.48 1671.66 2060.29 1670.04 2061.74 1669.07 2063.19 1668.11 2064.83 1667.63 2066.66 1667.63Z" fill-rule="evenodd"/><text fill="#000000" fill-opacity="0" font-family="Arial,Arial_MSFontService,sans-serif" font-size="35.2524" x="2056.29" y="1698.48">ğ‘›</text><path d="M2120.12 1679.07 2164.04 1679.07 2164.04 1683.81 2120.12 1683.81Z" fill-rule="evenodd"/><text fill="#000000" fill-opacity="0" font-family="Arial,Arial_MSFontService,sans-serif" font-size="4.74072" x="2120.12" y="1683.22">âˆ’</text><path d="M2206.6 1653.09C2211.02 1653.09 2214.36 1654.05 2216.62 1655.99 2218.87 1657.93 2220 1660.74 2220 1664.42 2220 1665.68 2219.88 1666.84 2219.63 1667.9 2219.38 1668.95 2218.99 1670 2218.45 1671.03 2217.92 1672.07 2217.2 1673.18 2216.3 1674.37 2215.39 1675.55 2214.39 1676.76 2213.3 1677.98 2212.21 1679.21 2210.32 1681.25 2207.63 1684.1 2203.12 1688.87 2199.8 1693.04 2197.69 1696.61L2211.13 1696.61C2212.29 1696.61 2213.23 1696.54 2213.94 1696.39 2214.66 1696.25 2215.23 1696.01 2215.65 1695.68 2216.08 1695.35 2216.42 1694.92 2216.67 1694.38 2216.92 1693.85 2217.23 1693.02 2217.61 1691.9L2220.64 1691.9 2220.04 1702.31 2190.7 1702.31 2190.7 1700.6C2191.72 1698.11 2193.1 1695.55 2194.84 1692.94 2196.57 1690.32 2199.03 1687.25 2202.22 1683.7 2204.97 1680.66 2206.96 1678.36 2208.17 1676.79 2209.5 1675.08 2210.49 1673.6 2211.15 1672.35 2211.8 1671.1 2212.27 1669.93 2212.55 1668.82 2212.84 1667.72 2212.98 1666.61 2212.98 1665.49 2212.98 1663.71 2212.7 1662.13 2212.13 1660.77 2211.55 1659.4 2210.68 1658.33 2209.51 1657.54 2208.33 1656.76 2206.85 1656.37 2205.07 1656.37 2200.62 1656.37 2197.63 1658.84 2196.09 1663.78L2191.77 1663.78 2191.77 1656.94C2194.65 1655.58 2197.34 1654.6 2199.85 1654 2202.35 1653.39 2204.6 1653.09 2206.6 1653.09Z" fill-rule="evenodd"/><text fill="#000000" fill-opacity="0" font-family="Arial,Arial_MSFontService,sans-serif" font-size="49.2251" x="2190.7" y="1696.16">2</text><path d="M2107 1628.85 2260.21 1628.85 2260.21 1631.15 2107 1631.15ZM2255.63 1616.25 2283.13 1630 2255.63 1643.75Z"/><rect x="2816.5" y="1531.5" width="275" height="192" stroke="#000000" stroke-width="3.4375" stroke-miterlimit="8" fill="none"/><text font-family="Times New Roman,Times New Roman_MSFontService,sans-serif" font-weight="400" font-size="73" transform="matrix(1 0 0 1 2888.54 1610)">Unit<tspan font-size="73" x="-22.3438" y="88">Delay</tspan></text><path d="M3.57886e-06-1.14583 92.6292-1.14554 92.6292 1.14612-3.57886e-06 1.14583ZM88.0459-13.7497 115.546 0.000360892 88.0458 13.7503Z" transform="matrix(-1 0 0 1 2569.55 1257)"/><path d="M3.57886e-06-1.14583 92.6292-1.14554 92.6292 1.14612-3.57886e-06 1.14583ZM88.0459-13.7497 115.546 0.000360892 88.0458 13.7503Z" transform="matrix(-1 0 0 1 2297.55 1257)"/><path d="M2189.78 1426.76 2191.85 1426.76 2185.72 1451.46 2186.14 1451.6C2188.4 1448.61 2190.53 1446.44 2192.54 1445.1 2194.55 1443.75 2196.57 1443.08 2198.62 1443.08 2200.83 1443.08 2202.53 1443.72 2203.72 1444.99 2204.9 1446.26 2205.5 1448.02 2205.5 1450.28 2205.5 1451.78 2205.15 1453.91 2204.46 1456.66L2202.15 1466C2201.51 1468.59 2201.18 1470.42 2201.18 1471.49 2201.18 1472.44 2201.34 1473.13 2201.65 1473.56 2201.96 1473.99 2202.44 1474.2 2203.11 1474.2 2203.82 1474.2 2204.58 1473.91 2205.39 1473.33 2206.2 1472.74 2207.34 1471.63 2208.81 1469.99L2210.84 1471.99C2208.56 1474.39 2206.69 1476.04 2205.23 1476.94 2203.77 1477.85 2202.12 1478.3 2200.29 1478.3 2198.75 1478.3 2197.52 1477.75 2196.6 1476.66 2195.69 1475.57 2195.23 1474.15 2195.23 1472.42 2195.23 1470.87 2195.62 1468.6 2196.41 1465.61L2197.94 1459.44C2198.49 1457.23 2198.86 1455.57 2199.05 1454.47 2199.24 1453.36 2199.33 1452.5 2199.33 1451.89 2199.33 1450.2 2199.06 1449 2198.51 1448.3 2197.96 1447.6 2197.07 1447.25 2195.84 1447.25 2194.86 1447.25 2193.78 1447.66 2192.59 1448.46 2191.41 1449.27 2190.16 1450.5 2188.85 1452.15 2187.54 1453.8 2186.51 1455.38 2185.73 1456.89 2184.96 1458.4 2184.35 1460.2 2183.9 1462.29L2180.65 1477.73 2174.49 1477.73 2183.65 1436.99C2184.22 1434.44 2184.5 1432.69 2184.5 1431.71 2184.5 1430.71 2184.2 1430.01 2183.59 1429.61 2182.99 1429.2 2181.9 1428.98 2180.33 1428.93L2180.76 1427.08Z" fill-rule="evenodd"/><text fill="#000000" fill-opacity="0" font-family="Arial,Arial_MSFontService,sans-serif" font-size="51.542" x="2174.49" y="1471.86">â„</text><path d="M2227.33 1459.18C2229.13 1459.18 2230.66 1459.38 2231.93 1459.79 2233.2 1460.19 2234.23 1460.74 2235.02 1461.43 2235.81 1462.12 2236.39 1462.95 2236.74 1463.92 2237.1 1464.88 2237.27 1465.93 2237.27 1467.05 2237.27 1467.72 2237.22 1468.34 2237.13 1468.92 2237.03 1469.5 2236.87 1470.07 2236.64 1470.63 2236.41 1471.19 2236.1 1471.76 2235.72 1472.33 2235.34 1472.9 2234.87 1473.5 2234.3 1474.14 2233.86 1474.69 2233.3 1475.33 2232.61 1476.05 2231.92 1476.78 2231.17 1477.55 2230.35 1478.38 2229.53 1479.21 2228.67 1480.07 2227.77 1480.97 2226.88 1481.87 2226.01 1482.76 2225.16 1483.63 2224.32 1484.51 2223.54 1485.37 2222.83 1486.2 2222.12 1487.03 2221.55 1487.78 2221.1 1488.47L2230.67 1488.47C2231.48 1488.47 2232.13 1488.44 2232.61 1488.38 2233.1 1488.32 2233.5 1488.19 2233.82 1487.98 2234.14 1487.78 2234.41 1487.46 2234.63 1487.04 2234.86 1486.62 2235.12 1486.03 2235.41 1485.29L2237.82 1485.29C2237.73 1486.52 2237.65 1487.75 2237.57 1488.99 2237.49 1490.23 2237.41 1491.47 2237.32 1492.69L2215.4 1492.69 2215.4 1491.35C2215.82 1490.42 2216.3 1489.5 2216.85 1488.59 2217.41 1487.68 2218.03 1486.77 2218.72 1485.83 2219.41 1484.9 2220.19 1483.94 2221.07 1482.95 2221.95 1481.96 2222.93 1480.93 2224 1479.86 2225.62 1478.23 2226.94 1476.85 2227.96 1475.7 2228.97 1474.56 2229.78 1473.53 2230.36 1472.64 2230.95 1471.74 2231.35 1470.91 2231.57 1470.15 2231.78 1469.39 2231.89 1468.58 2231.89 1467.72 2231.89 1466.84 2231.76 1466.03 2231.51 1465.29 2231.26 1464.54 2230.91 1463.92 2230.44 1463.4 2229.97 1462.88 2229.38 1462.47 2228.67 1462.18 2227.95 1461.89 2227.13 1461.74 2226.2 1461.74 2224.59 1461.74 2223.25 1462.18 2222.16 1463.05 2221.07 1463.92 2220.23 1465.18 2219.62 1466.84L2216.23 1466.84 2216.23 1461.79C2218.44 1460.88 2220.47 1460.21 2222.33 1459.8 2224.18 1459.39 2225.85 1459.18 2227.33 1459.18Z" fill-rule="evenodd"/><text fill="#000000" fill-opacity="0" font-family="Arial,Arial_MSFontService,sans-serif" font-size="33.5132" x="2215.4" y="1488.5">2</text><path d="M3310.69 1437.71 3312.76 1437.71 3306.62 1462.41 3307.05 1462.55C3309.31 1459.56 3311.44 1457.39 3313.45 1456.05 3315.46 1454.71 3317.48 1454.04 3319.53 1454.04 3321.74 1454.04 3323.44 1454.67 3324.62 1455.94 3325.81 1457.21 3326.41 1458.98 3326.41 1461.24 3326.41 1462.73 3326.06 1464.86 3325.37 1467.62L3323.06 1476.95C3322.41 1479.54 3322.09 1481.37 3322.09 1482.44 3322.09 1483.39 3322.25 1484.08 3322.56 1484.51 3322.87 1484.94 3323.35 1485.15 3324.02 1485.15 3324.73 1485.15 3325.49 1484.86 3326.3 1484.28 3327.11 1483.7 3328.25 1482.59 3329.72 1480.95L3331.75 1482.94C3329.47 1485.34 3327.6 1486.99 3326.14 1487.9 3324.68 1488.8 3323.03 1489.25 3321.2 1489.25 3319.66 1489.25 3318.43 1488.71 3317.51 1487.61 3316.6 1486.52 3316.14 1485.11 3316.14 1483.37 3316.14 1481.83 3316.53 1479.56 3317.32 1476.56L3318.85 1470.4C3319.4 1468.19 3319.77 1466.53 3319.96 1465.42 3320.15 1464.32 3320.24 1463.46 3320.24 1462.84 3320.24 1461.15 3319.97 1459.96 3319.42 1459.26 3318.87 1458.56 3317.98 1458.21 3316.75 1458.21 3315.77 1458.21 3314.69 1458.61 3313.5 1459.42 3312.32 1460.23 3311.07 1461.46 3309.76 1463.11 3308.45 1464.76 3307.41 1466.34 3306.64 1467.85 3305.87 1469.36 3305.26 1471.16 3304.81 1473.25L3301.56 1488.68 3295.4 1488.68 3304.56 1447.94C3305.13 1445.4 3305.41 1443.64 3305.41 1442.66 3305.41 1441.67 3305.11 1440.97 3304.5 1440.56 3303.9 1440.16 3302.81 1439.93 3301.24 1439.88L3301.67 1438.03Z" fill-rule="evenodd"/><text fill="#000000" fill-opacity="0" font-family="Arial,Arial_MSFontService,sans-serif" font-size="51.542" x="3295.4" y="1482.81">â„</text><path d="M3342.21 1477.22C3343.49 1477.22 3344.48 1477.64 3345.18 1478.48 3345.88 1479.32 3346.23 1480.42 3346.23 1481.78 3346.23 1482.16 3346.2 1482.53 3346.15 1482.89 3346.1 1483.25 3346 1483.61 3345.86 1483.95L3346.17 1484.08C3347.81 1481.79 3349.45 1480.07 3351.09 1478.93 3352.73 1477.79 3354.41 1477.22 3356.14 1477.22 3357.97 1477.22 3359.33 1477.69 3360.24 1478.63 3361.14 1479.57 3361.6 1480.96 3361.6 1482.79 3361.6 1482.94 3361.6 1483.09 3361.6 1483.24 3361.6 1483.39 3361.58 1483.54 3361.55 1483.69L3361.65 1483.69C3363.25 1481.5 3364.85 1479.88 3366.44 1478.82 3368.02 1477.75 3369.68 1477.22 3371.41 1477.22 3373.23 1477.22 3374.6 1477.72 3375.51 1478.7 3376.41 1479.68 3376.87 1481.06 3376.87 1482.84 3376.87 1483.37 3376.78 1484.09 3376.61 1485 3376.43 1485.91 3376.22 1486.9 3375.97 1487.99 3375.72 1489.08 3375.45 1490.2 3375.16 1491.37 3374.86 1492.53 3374.59 1493.63 3374.33 1494.67 3374.17 1495.34 3374.05 1495.89 3373.95 1496.31 3373.86 1496.73 3373.79 1497.09 3373.73 1497.37 3373.68 1497.66 3373.65 1497.9 3373.63 1498.11 3373.61 1498.32 3373.61 1498.54 3373.61 1498.78 3373.61 1499.44 3373.73 1499.91 3373.97 1500.2 3374.21 1500.5 3374.6 1500.64 3375.13 1500.64 3375.44 1500.64 3375.75 1500.58 3376.06 1500.46 3376.37 1500.34 3376.71 1500.15 3377.06 1499.89 3377.41 1499.64 3377.8 1499.3 3378.22 1498.9 3378.65 1498.49 3379.12 1498 3379.64 1497.44L3381.42 1499.14C3380.59 1500.01 3379.82 1500.75 3379.1 1501.37 3378.39 1501.99 3377.7 1502.5 3377.03 1502.91 3376.37 1503.31 3375.71 1503.62 3375.05 1503.81 3374.4 1504.01 3373.71 1504.11 3372.98 1504.11 3372.33 1504.11 3371.73 1503.99 3371.2 1503.75 3370.66 1503.51 3370.21 1503.18 3369.84 1502.75 3369.47 1502.33 3369.18 1501.83 3368.97 1501.25 3368.77 1500.67 3368.66 1500.04 3368.66 1499.35 3368.66 1497.94 3368.96 1496.12 3369.57 1493.89 3369.9 1492.77 3370.19 1491.69 3370.46 1490.67 3370.73 1489.64 3370.96 1488.69 3371.15 1487.82 3371.34 1486.95 3371.49 1486.17 3371.6 1485.49 3371.71 1484.81 3371.77 1484.25 3371.77 1483.8 3371.77 1482.73 3371.57 1481.94 3371.16 1481.44 3370.75 1480.94 3370.12 1480.69 3369.26 1480.69 3368.72 1480.69 3368.15 1480.83 3367.55 1481.11 3366.95 1481.38 3366.34 1481.77 3365.73 1482.26 3365.11 1482.75 3364.51 1483.33 3363.93 1484 3363.34 1484.68 3362.8 1485.41 3362.3 1486.19 3361.8 1486.98 3361.35 1487.8 3360.96 1488.66 3360.58 1489.53 3360.28 1490.4 3360.07 1491.28L3357.51 1503.65 3352.46 1503.65C3352.7 1502.54 3352.98 1501.36 3353.28 1500.09 3353.58 1498.82 3353.89 1497.54 3354.2 1496.24 3354.51 1494.95 3354.8 1493.67 3355.09 1492.41 3355.37 1491.16 3355.63 1489.98 3355.85 1488.88 3356.08 1487.79 3356.26 1486.8 3356.4 1485.93 3356.53 1485.06 3356.6 1484.37 3356.6 1483.85 3356.6 1482.76 3356.39 1481.96 3355.97 1481.46 3355.55 1480.95 3354.87 1480.69 3353.94 1480.69 3353.11 1480.69 3352.22 1481 3351.27 1481.62 3350.32 1482.24 3349.42 1483.06 3348.57 1484.07 3347.71 1485.08 3346.95 1486.22 3346.28 1487.48 3345.6 1488.75 3345.13 1490.03 3344.85 1491.33L3342.21 1503.65 3337.14 1503.65 3341.02 1486.77C3341.25 1485.84 3341.41 1485.03 3341.52 1484.34 3341.62 1483.65 3341.67 1483.08 3341.67 1482.63 3341.67 1481.37 3341.16 1480.74 3340.14 1480.74 3339.83 1480.74 3339.52 1480.81 3339.2 1480.94 3338.88 1481.07 3338.54 1481.26 3338.19 1481.52 3337.84 1481.78 3337.45 1482.11 3337.04 1482.5 3336.62 1482.9 3336.16 1483.37 3335.64 1483.9L3333.86 1482.22C3334.7 1481.36 3335.48 1480.61 3336.2 1479.98 3336.91 1479.35 3337.6 1478.83 3338.27 1478.43 3338.93 1478.02 3339.58 1477.72 3340.22 1477.52 3340.86 1477.32 3341.52 1477.22 3342.21 1477.22Z" fill-rule="evenodd"/><text fill="#000000" fill-opacity="0" font-family="Arial,Arial_MSFontService,sans-serif" font-size="26.8882" x="3333.86" y="1500.75">ğ‘š</text><path d="M1598.92 1426.76 1600.99 1426.76 1594.86 1451.46 1595.29 1451.6C1597.55 1448.61 1599.68 1446.44 1601.69 1445.1 1603.7 1443.75 1605.72 1443.08 1607.76 1443.08 1609.97 1443.08 1611.67 1443.72 1612.86 1444.99 1614.05 1446.26 1614.64 1448.02 1614.64 1450.28 1614.64 1451.78 1614.3 1453.91 1613.61 1456.66L1611.29 1466C1610.65 1468.59 1610.33 1470.42 1610.33 1471.49 1610.33 1472.44 1610.49 1473.13 1610.79 1473.56 1611.1 1473.99 1611.59 1474.2 1612.26 1474.2 1612.97 1474.2 1613.73 1473.91 1614.54 1473.33 1615.35 1472.74 1616.49 1471.63 1617.96 1469.99L1619.99 1471.99C1617.71 1474.39 1615.84 1476.04 1614.38 1476.94 1612.92 1477.85 1611.27 1478.3 1609.44 1478.3 1607.9 1478.3 1606.67 1477.75 1605.75 1476.66 1604.84 1475.57 1604.38 1474.15 1604.38 1472.42 1604.38 1470.87 1604.77 1468.6 1605.55 1465.61L1607.09 1459.44C1607.63 1457.23 1608 1455.57 1608.19 1454.47 1608.38 1453.36 1608.48 1452.5 1608.48 1451.89 1608.48 1450.2 1608.2 1449 1607.66 1448.3 1607.11 1447.6 1606.22 1447.25 1604.98 1447.25 1604.01 1447.25 1602.93 1447.66 1601.74 1448.46 1600.55 1449.27 1599.31 1450.5 1598 1452.15 1596.69 1453.8 1595.65 1455.38 1594.88 1456.89 1594.11 1458.4 1593.5 1460.2 1593.04 1462.29L1589.8 1477.73 1583.63 1477.73 1592.79 1436.99C1593.36 1434.44 1593.65 1432.69 1593.65 1431.71 1593.65 1430.71 1593.35 1430.01 1592.74 1429.61 1592.13 1429.2 1591.05 1428.98 1589.48 1428.93L1589.91 1427.08Z" fill-rule="evenodd"/><text fill="#000000" fill-opacity="0" font-family="Arial,Arial_MSFontService,sans-serif" font-size="51.542" x="1583.63" y="1471.86">â„</text><path d="M1636.8 1459.36 1638.38 1459.36C1638.35 1460.31 1638.32 1461.16 1638.3 1461.91 1638.29 1462.66 1638.27 1463.39 1638.27 1464.1 1638.26 1464.8 1638.25 1465.5 1638.25 1466.19L1638.25 1485.86C1638.25 1486.4 1638.27 1486.86 1638.3 1487.24 1638.34 1487.63 1638.4 1487.96 1638.47 1488.23 1638.55 1488.5 1638.65 1488.72 1638.78 1488.91 1638.91 1489.1 1639.06 1489.27 1639.24 1489.41 1639.44 1489.61 1639.72 1489.77 1640.06 1489.88 1640.41 1490 1640.85 1490.09 1641.38 1490.17 1641.92 1490.25 1642.56 1490.31 1643.31 1490.35 1644.06 1490.39 1644.96 1490.42 1646.02 1490.44L1646.02 1492.69 1625.49 1492.69 1625.49 1490.44C1626.51 1490.41 1627.38 1490.37 1628.08 1490.32 1628.79 1490.28 1629.39 1490.22 1629.89 1490.14 1630.39 1490.07 1630.8 1489.98 1631.1 1489.88 1631.4 1489.79 1631.66 1489.67 1631.89 1489.54 1632.13 1489.38 1632.34 1489.21 1632.51 1489.03 1632.68 1488.85 1632.82 1488.62 1632.92 1488.34 1633.03 1488.07 1633.11 1487.73 1633.17 1487.34 1633.23 1486.94 1633.26 1486.45 1633.26 1485.86L1633.26 1467.31C1633.26 1466.63 1633.13 1466.16 1632.87 1465.88 1632.61 1465.61 1632.24 1465.47 1631.76 1465.47 1631.22 1465.47 1630.43 1465.74 1629.38 1466.3 1628.32 1466.85 1626.96 1467.67 1625.29 1468.75 1625.06 1468.36 1624.86 1467.96 1624.67 1467.56 1624.48 1467.17 1624.28 1466.76 1624.07 1466.35 1626.21 1465.17 1628.33 1464.01 1630.42 1462.84 1632.52 1461.68 1634.65 1460.52 1636.8 1459.36Z" fill-rule="evenodd"/><text fill="#000000" fill-opacity="0" font-family="Arial,Arial_MSFontService,sans-serif" font-size="33.332" x="1624.07" y="1488.53">1</text><path d="M2714.97 1426.76 2717.04 1426.76 2710.91 1451.46 2711.34 1451.6C2713.59 1448.61 2715.73 1446.44 2717.73 1445.1 2719.74 1443.75 2721.77 1443.08 2723.81 1443.08 2726.02 1443.08 2727.72 1443.72 2728.91 1444.99 2730.1 1446.26 2730.69 1448.02 2730.69 1450.28 2730.69 1451.78 2730.35 1453.91 2729.66 1456.66L2727.34 1466C2726.7 1468.59 2726.38 1470.42 2726.38 1471.49 2726.38 1472.44 2726.53 1473.13 2726.84 1473.56 2727.15 1473.99 2727.64 1474.2 2728.3 1474.2 2729.02 1474.2 2729.78 1473.91 2730.58 1473.33 2731.39 1472.74 2732.53 1471.63 2734.01 1469.99L2736.04 1471.99C2733.76 1474.39 2731.89 1476.04 2730.42 1476.94 2728.96 1477.85 2727.32 1478.3 2725.49 1478.3 2723.94 1478.3 2722.71 1477.75 2721.8 1476.66 2720.88 1475.57 2720.43 1474.15 2720.43 1472.42 2720.43 1470.87 2720.82 1468.6 2721.6 1465.61L2723.13 1459.44C2723.68 1457.23 2724.05 1455.57 2724.24 1454.47 2724.43 1453.36 2724.52 1452.5 2724.52 1451.89 2724.52 1450.2 2724.25 1449 2723.7 1448.3 2723.16 1447.6 2722.27 1447.25 2721.03 1447.25 2720.06 1447.25 2718.98 1447.66 2717.79 1448.46 2716.6 1449.27 2715.35 1450.5 2714.04 1452.15 2712.74 1453.8 2711.7 1455.38 2710.93 1456.89 2710.15 1458.4 2709.54 1460.2 2709.09 1462.29L2705.85 1477.73 2699.68 1477.73 2708.84 1436.99C2709.41 1434.44 2709.7 1432.69 2709.7 1431.71 2709.7 1430.71 2709.39 1430.01 2708.79 1429.61 2708.18 1429.2 2707.09 1428.98 2705.53 1428.93L2705.95 1427.08Z" fill-rule="evenodd"/><text fill="#000000" fill-opacity="0" font-family="Arial,Arial_MSFontService,sans-serif" font-size="51.542" x="2699.68" y="1471.86">â„</text><path d="M2746.5 1466.27C2747.77 1466.27 2748.76 1466.69 2749.46 1467.53 2750.16 1468.36 2750.51 1469.46 2750.51 1470.82 2750.51 1471.2 2750.48 1471.58 2750.43 1471.94 2750.38 1472.3 2750.28 1472.65 2750.15 1473L2750.46 1473.13C2752.1 1470.83 2753.74 1469.12 2755.37 1467.98 2757.01 1466.84 2758.7 1466.27 2760.42 1466.27 2762.25 1466.27 2763.62 1466.74 2764.52 1467.68 2765.43 1468.62 2765.88 1470.01 2765.88 1471.83 2765.88 1471.99 2765.88 1472.14 2765.88 1472.29 2765.88 1472.43 2765.86 1472.58 2765.83 1472.74L2765.93 1472.74C2767.54 1470.55 2769.13 1468.92 2770.72 1467.86 2772.31 1466.8 2773.96 1466.27 2775.69 1466.27 2777.52 1466.27 2778.89 1466.76 2779.79 1467.75 2780.7 1468.73 2781.15 1470.11 2781.15 1471.89 2781.15 1472.42 2781.06 1473.14 2780.89 1474.05 2780.72 1474.95 2780.51 1475.95 2780.26 1477.04 2780.01 1478.12 2779.73 1479.25 2779.44 1480.41 2779.15 1481.58 2778.87 1482.68 2778.61 1483.71 2778.46 1484.39 2778.33 1484.93 2778.24 1485.36 2778.14 1485.78 2778.07 1486.13 2778.02 1486.42 2777.97 1486.7 2777.93 1486.95 2777.91 1487.15 2777.9 1487.36 2777.89 1487.59 2777.89 1487.83 2777.89 1488.48 2778.01 1488.96 2778.25 1489.25 2778.49 1489.54 2778.88 1489.69 2779.42 1489.69 2779.73 1489.69 2780.04 1489.63 2780.35 1489.51 2780.66 1489.39 2780.99 1489.2 2781.34 1488.94 2781.7 1488.68 2782.09 1488.35 2782.51 1487.94 2782.93 1487.54 2783.4 1487.05 2783.92 1486.48L2785.7 1488.19C2784.88 1489.05 2784.1 1489.79 2783.39 1490.42 2782.67 1491.04 2781.98 1491.55 2781.32 1491.95 2780.65 1492.36 2779.99 1492.66 2779.34 1492.86 2778.68 1493.06 2777.99 1493.16 2777.27 1493.16 2776.61 1493.16 2776.02 1493.04 2775.48 1492.8 2774.95 1492.55 2774.49 1492.22 2774.12 1491.8 2773.75 1491.38 2773.46 1490.88 2773.26 1490.3 2773.05 1489.72 2772.95 1489.09 2772.95 1488.4 2772.95 1486.98 2773.25 1485.16 2773.85 1482.94 2774.18 1481.81 2774.48 1480.74 2774.74 1479.71 2775.01 1478.69 2775.24 1477.74 2775.43 1476.87 2775.62 1476 2775.77 1475.22 2775.88 1474.54 2776 1473.86 2776.05 1473.29 2776.05 1472.84 2776.05 1471.77 2775.85 1470.99 2775.44 1470.49 2775.04 1469.99 2774.4 1469.74 2773.54 1469.74 2773.01 1469.74 2772.44 1469.88 2771.83 1470.15 2771.23 1470.43 2770.62 1470.81 2770.01 1471.3 2769.4 1471.8 2768.8 1472.38 2768.21 1473.05 2767.62 1473.72 2767.08 1474.45 2766.58 1475.24 2766.08 1476.02 2765.64 1476.85 2765.25 1477.71 2764.86 1478.57 2764.56 1479.44 2764.35 1480.32L2761.79 1492.69 2756.75 1492.69C2756.99 1491.59 2757.26 1490.4 2757.56 1489.13 2757.86 1487.87 2758.17 1486.59 2758.48 1485.29 2758.79 1484 2759.09 1482.72 2759.37 1481.46 2759.66 1480.2 2759.91 1479.02 2760.14 1477.93 2760.36 1476.83 2760.54 1475.85 2760.68 1474.98 2760.82 1474.11 2760.89 1473.41 2760.89 1472.9 2760.89 1471.81 2760.68 1471.01 2760.25 1470.5 2759.83 1469.99 2759.15 1469.74 2758.22 1469.74 2757.39 1469.74 2756.5 1470.05 2755.56 1470.67 2754.61 1471.29 2753.71 1472.11 2752.85 1473.12 2752 1474.12 2751.23 1475.26 2750.56 1476.53 2749.89 1477.8 2749.41 1479.08 2749.14 1480.37L2746.5 1492.69 2741.43 1492.69 2745.31 1475.82C2745.53 1474.89 2745.7 1474.08 2745.8 1473.39 2745.9 1472.7 2745.95 1472.13 2745.95 1471.68 2745.95 1470.42 2745.45 1469.79 2744.43 1469.79 2744.12 1469.79 2743.8 1469.85 2743.48 1469.98 2743.16 1470.11 2742.83 1470.31 2742.47 1470.57 2742.12 1470.82 2741.74 1471.15 2741.32 1471.55 2740.91 1471.95 2740.44 1472.41 2739.92 1472.95L2738.14 1471.26C2738.98 1470.4 2739.76 1469.66 2740.48 1469.03 2741.2 1468.4 2741.89 1467.88 2742.55 1467.47 2743.22 1467.07 2743.87 1466.77 2744.51 1466.57 2745.14 1466.37 2745.81 1466.27 2746.5 1466.27Z" fill-rule="evenodd"/><text fill="#000000" fill-opacity="0" font-family="Arial,Arial_MSFontService,sans-serif" font-size="26.8882" x="2738.14" y="1489.8">ğ‘š</text><path d="M2792.21 1475.56 2822.02 1475.56 2822.02 1479.52 2792.21 1479.52Z" fill-rule="evenodd"/><text fill="#000000" fill-opacity="0" font-family="Arial,Arial_MSFontService,sans-serif" font-size="3.95947" x="2792.21" y="1479.03">âˆ’</text><path d="M2844.26 1459.36 2845.84 1459.36C2845.81 1460.31 2845.78 1461.16 2845.77 1461.91 2845.75 1462.66 2845.74 1463.39 2845.73 1464.1 2845.72 1464.8 2845.71 1465.5 2845.71 1466.19L2845.71 1485.86C2845.71 1486.4 2845.73 1486.86 2845.77 1487.24 2845.8 1487.63 2845.86 1487.96 2845.93 1488.23 2846.01 1488.5 2846.12 1488.72 2846.24 1488.91 2846.37 1489.1 2846.52 1489.27 2846.7 1489.41 2846.9 1489.61 2847.18 1489.77 2847.53 1489.88 2847.87 1490 2848.31 1490.09 2848.85 1490.17 2849.38 1490.25 2850.02 1490.31 2850.77 1490.35 2851.52 1490.39 2852.43 1490.42 2853.48 1490.44L2853.48 1492.69 2832.96 1492.69 2832.96 1490.44C2833.97 1490.41 2834.84 1490.37 2835.54 1490.32 2836.25 1490.28 2836.85 1490.22 2837.36 1490.14 2837.86 1490.07 2838.26 1489.98 2838.56 1489.88 2838.86 1489.79 2839.12 1489.67 2839.35 1489.54 2839.59 1489.38 2839.8 1489.21 2839.97 1489.03 2840.14 1488.85 2840.28 1488.62 2840.38 1488.34 2840.49 1488.07 2840.57 1487.73 2840.63 1487.34 2840.69 1486.94 2840.72 1486.45 2840.72 1485.86L2840.72 1467.31C2840.72 1466.63 2840.59 1466.16 2840.33 1465.88 2840.07 1465.61 2839.7 1465.47 2839.22 1465.47 2838.68 1465.47 2837.89 1465.74 2836.84 1466.3 2835.79 1466.85 2834.42 1467.67 2832.75 1468.75 2832.52 1468.36 2832.32 1467.96 2832.13 1467.56 2831.94 1467.17 2831.74 1466.76 2831.53 1466.35 2833.67 1465.17 2835.79 1464.01 2837.89 1462.84 2839.98 1461.68 2842.11 1460.52 2844.26 1459.36Z" fill-rule="evenodd"/><text fill="#000000" fill-opacity="0" font-family="Arial,Arial_MSFontService,sans-serif" font-size="33.332" x="2831.53" y="1488.53">1</text><path d="M2040.95 1257.3 1598.91 1255.25 1598.92 1252.96 2040.96 1255.01ZM1603.44 1267.88 1576 1254 1603.56 1240.38Z"/><path d="M857.5 1629.5C857.5 1590.29 889.288 1558.5 928.5 1558.5 967.712 1558.5 999.5 1590.29 999.5 1629.5 999.5 1668.71 967.712 1700.5 928.5 1700.5 889.288 1700.5 857.5 1668.71 857.5 1629.5Z" stroke="#000000" stroke-width="3.4375" stroke-linejoin="round" stroke-miterlimit="10" fill="none" fill-rule="evenodd"/><path d="M923.685 1631.81C922.188 1631.81 921.006 1632.3 920.138 1633.3 919.271 1634.3 918.659 1635.71 918.302 1637.53 917.946 1639.34 917.768 1641.6 917.768 1644.28 917.768 1648.89 918.243 1652.24 919.194 1654.33 920.144 1656.42 921.653 1657.47 923.72 1657.47 925.669 1657.47 927.113 1656.5 928.051 1654.55 928.99 1652.6 929.459 1649.48 929.459 1645.21 929.459 1640.65 928.99 1637.27 928.051 1635.08 927.113 1632.9 925.657 1631.81 923.685 1631.81ZM923.72 1629.24C925.788 1629.24 927.523 1629.61 928.925 1630.34 930.327 1631.08 931.461 1632.11 932.329 1633.43 933.196 1634.75 933.814 1636.33 934.182 1638.17 934.55 1640.01 934.735 1642.04 934.735 1644.25 934.735 1649.45 933.754 1653.38 931.794 1656.04 929.833 1658.71 927.012 1660.04 923.328 1660.04 919.693 1660.04 916.978 1658.78 915.184 1656.26 913.389 1653.74 912.492 1649.95 912.492 1644.89 912.492 1641.37 912.974 1638.44 913.936 1636.1 914.898 1633.76 916.217 1632.03 917.893 1630.91 919.568 1629.8 921.51 1629.24 923.72 1629.24ZM888.468 1609.38C886.971 1609.38 885.789 1609.88 884.921 1610.88 884.054 1611.88 883.442 1613.29 883.086 1615.11 882.729 1616.92 882.551 1619.18 882.551 1621.86 882.551 1626.47 883.026 1629.82 883.977 1631.91 884.927 1634 886.436 1635.05 888.504 1635.05 890.452 1635.05 891.896 1634.07 892.834 1632.13 893.773 1630.18 894.242 1627.06 894.242 1622.79 894.242 1618.22 893.773 1614.85 892.834 1612.66 891.896 1610.48 890.44 1609.38 888.468 1609.38ZM919.194 1607.39 924.362 1607.39 892.924 1659.47 887.684 1659.47ZM959.029 1606.82C963.448 1606.82 966.787 1607.79 969.045 1609.72 971.302 1611.66 972.431 1614.47 972.431 1618.15 972.431 1619.41 972.306 1620.57 972.057 1621.63 971.807 1622.69 971.415 1623.73 970.88 1624.77 970.346 1625.8 969.627 1626.91 968.724 1628.1 967.821 1629.29 966.823 1630.49 965.73 1631.72 964.637 1632.94 962.747 1634.98 960.062 1637.83 955.547 1642.61 952.232 1646.78 950.117 1650.34L963.555 1650.34C964.72 1650.34 965.658 1650.27 966.371 1650.13 967.084 1649.98 967.655 1649.75 968.082 1649.41 968.51 1649.08 968.849 1648.65 969.098 1648.11 969.348 1647.58 969.663 1646.75 970.043 1645.64L973.073 1645.64 972.467 1656.04 943.131 1656.04 943.131 1654.33C944.153 1651.84 945.531 1649.28 947.266 1646.67 949.001 1644.06 951.46 1640.98 954.644 1637.44 957.401 1634.4 959.385 1632.09 960.597 1630.52 961.928 1628.81 962.92 1627.33 963.573 1626.08 964.227 1624.84 964.696 1623.66 964.981 1622.56 965.266 1621.45 965.409 1620.34 965.409 1619.22 965.409 1617.44 965.124 1615.87 964.553 1614.5 963.983 1613.13 963.11 1612.06 961.934 1611.27 960.757 1610.49 959.278 1610.1 957.496 1610.1 953.052 1610.1 950.058 1612.57 948.513 1617.51L944.2 1617.51 944.2 1610.67C947.076 1609.31 949.767 1608.33 952.274 1607.73 954.781 1607.12 957.032 1606.82 959.029 1606.82ZM888.504 1606.82C890.571 1606.82 892.306 1607.19 893.708 1607.92 895.11 1608.66 896.244 1609.69 897.112 1611.01 897.979 1612.33 898.597 1613.91 898.965 1615.75 899.334 1617.59 899.518 1619.61 899.518 1621.82 899.518 1627.03 898.538 1630.96 896.577 1633.62 894.617 1636.28 891.795 1637.62 888.112 1637.62 884.476 1637.62 881.761 1636.36 879.967 1633.84 878.173 1631.32 877.276 1627.53 877.276 1622.47 877.276 1618.95 877.757 1616.02 878.719 1613.68 879.682 1611.34 881 1609.61 882.676 1608.49 884.351 1607.38 886.294 1606.82 888.504 1606.82Z" fill-rule="evenodd"/><text fill="#000000" fill-opacity="0" font-family="Arial,Arial_MSFontService,sans-serif" font-size="53.2173" x="877.276" y="1653.38">%2</text><path d="M0.00962174-1.14579 56.6002-0.670577 56.5809 1.62101-0.00962174 1.14579ZM52.1228-13.3128 79.5064 0.667651 51.8919 14.1862Z" transform="matrix(1 0 0 -1 999 1628.67)"/><path d="M0-1.14583 506.811-1.14583 506.811 280.561 504.519 280.561 504.519 0 505.665 1.14583 0 1.14583ZM519.415 275.977 505.665 303.477 491.915 275.977Z" transform="matrix(-1 1.22465e-16 1.22465e-16 1 1433.67 1254)"/><path d="M1528.6 1434.5 1488.91 1420.83 1507.36 1420.83C1502.71 1409.8 1492.68 1400.96 1479.78 1396.54 1504.74 1387.98 1533.24 1398.04 1543.43 1419.01 1543.72 1419.61 1544 1420.22 1544.26 1420.83L1562.71 1420.83Z" fill="#BFBFBF" fill-rule="evenodd"/><path d="M1498.22 1393.5C1471.26 1393.5 1449.4 1411.86 1449.4 1434.5L1412.5 1434.5C1412.5 1411.86 1434.36 1393.5 1461.33 1393.5Z" fill="#9A9A9A" fill-rule="evenodd"/><path d="M1498.22 1393.5C1471.26 1393.5 1449.4 1411.86 1449.4 1434.5L1412.5 1434.5C1412.5 1411.86 1434.36 1393.5 1461.33 1393.5L1498.22 1393.5C1518.92 1393.5 1537.36 1404.45 1544.26 1420.83L1562.71 1420.83 1528.6 1434.5 1488.91 1420.83 1507.36 1420.83C1502.71 1409.8 1492.68 1400.96 1479.78 1396.54" stroke="#000000" stroke-width="3.4375" stroke-miterlimit="8" fill="none" fill-rule="evenodd"/><path d="M0 0 149.644 0 149.644 158.842" stroke="#000000" stroke-width="2.29167" stroke-miterlimit="8" fill="none" fill-rule="evenodd" transform="matrix(1 0 0 -1 1353 1626.84)"/><path d="M1502.04 1469.37 1427.84 1346.22 1429.81 1345.04 1504 1468.19ZM1419.41 1356.65 1417 1326 1442.97 1342.46Z"/><path d="M2134.6 1436.5 2094.91 1422.83 2113.36 1422.83C2108.71 1411.8 2098.68 1402.96 2085.78 1398.54 2110.74 1389.98 2139.24 1400.04 2149.43 1421.01 2149.72 1421.61 2150 1422.22 2150.26 1422.83L2168.71 1422.83Z" fill="#BFBFBF" fill-rule="evenodd"/><path d="M2104.23 1395.5C2077.26 1395.5 2055.4 1413.86 2055.4 1436.5L2018.5 1436.5C2018.5 1413.86 2040.36 1395.5 2067.33 1395.5Z" fill="#9A9A9A" fill-rule="evenodd"/><path d="M2104.23 1395.5C2077.26 1395.5 2055.4 1413.86 2055.4 1436.5L2018.5 1436.5C2018.5 1413.86 2040.36 1395.5 2067.33 1395.5L2104.23 1395.5C2124.92 1395.5 2143.36 1406.45 2150.26 1422.83L2168.71 1422.83 2134.6 1436.5 2094.91 1422.83 2113.36 1422.83C2108.71 1411.8 2098.68 1402.96 2085.78 1398.54" stroke="#000000" stroke-width="3.4375" stroke-miterlimit="8" fill="none" fill-rule="evenodd"/><path d="M0 0 149.644 0 149.644 158.842" stroke="#000000" stroke-width="2.29167" stroke-miterlimit="8" fill="none" fill-rule="evenodd" transform="matrix(1 0 0 -1 1959 1628.84)"/><path d="M2108.04 1470.37 2033.84 1347.22 2035.81 1346.04 2110 1469.19ZM2025.41 1357.65 2023 1327 2048.97 1343.46Z"/><path d="M2663.6 1434.5 2623.88 1420.83 2642.33 1420.83C2637.61 1409.75 2627.4 1400.88 2614.27 1396.48 2639.54 1388.01 2668.28 1398.16 2678.47 1419.16 2678.74 1419.72 2678.99 1420.27 2679.23 1420.83L2697.68 1420.83Z" fill="#BFBFBF" fill-rule="evenodd"/><path d="M2632.72 1393.5C2605.48 1393.5 2583.4 1411.86 2583.4 1434.5L2546.5 1434.5C2546.5 1411.86 2568.58 1393.5 2595.82 1393.5Z" fill="#9A9A9A" fill-rule="evenodd"/><path d="M2632.72 1393.5C2605.48 1393.5 2583.4 1411.86 2583.4 1434.5L2546.5 1434.5C2546.5 1411.86 2568.58 1393.5 2595.82 1393.5L2632.72 1393.5C2653.63 1393.5 2672.26 1404.45 2679.23 1420.83L2697.68 1420.83 2663.6 1434.5 2623.88 1420.83 2642.33 1420.83C2637.61 1409.75 2627.4 1400.88 2614.27 1396.48" stroke="#000000" stroke-width="3.4375" stroke-miterlimit="8" fill="none" fill-rule="evenodd"/><path d="M0 0 149.644 0 149.644 158.842" stroke="#000000" stroke-width="2.29167" stroke-miterlimit="8" fill="none" fill-rule="evenodd" transform="matrix(1 0 0 -1 2487 1626.84)"/><path d="M2636.04 1469.37 2561.84 1346.22 2563.81 1345.04 2638 1468.19ZM2553.41 1356.65 2551 1326 2576.97 1342.46Z"/><path d="M3266.6 1435.5 3226.91 1421.83 3245.36 1421.83C3240.71 1410.8 3230.68 1401.96 3217.78 1397.54 3242.74 1388.98 3271.24 1399.04 3281.43 1420.01 3281.72 1420.61 3282 1421.22 3282.26 1421.83L3300.71 1421.83Z" fill="#BFBFBF" fill-rule="evenodd"/><path d="M3236.23 1394.5C3209.26 1394.5 3187.4 1412.86 3187.4 1435.5L3150.5 1435.5C3150.5 1412.86 3172.36 1394.5 3199.33 1394.5Z" fill="#9A9A9A" fill-rule="evenodd"/><path d="M3236.23 1394.5C3209.26 1394.5 3187.4 1412.86 3187.4 1435.5L3150.5 1435.5C3150.5 1412.86 3172.36 1394.5 3199.33 1394.5L3236.23 1394.5C3256.92 1394.5 3275.36 1405.45 3282.26 1421.83L3300.71 1421.83 3266.6 1435.5 3226.91 1421.83 3245.36 1421.83C3240.71 1410.8 3230.68 1401.96 3217.78 1397.54" stroke="#000000" stroke-width="3.4375" stroke-miterlimit="8" fill="none" fill-rule="evenodd"/><path d="M0 0 149.644 0 149.644 158.842" stroke="#000000" stroke-width="2.29167" stroke-miterlimit="8" fill="none" fill-rule="evenodd" transform="matrix(1 0 0 -1 3091 1628.84)"/><path d="M3240.04 1470.37 3165.84 1347.22 3167.81 1346.04 3242 1469.19ZM3157.41 1357.65 3155 1327 3180.97 1343.46Z"/><path d="M2710 1256 3244.05 1256 3244.05 1322.44" stroke="#000000" stroke-width="2.29167" stroke-miterlimit="8" fill="none" fill-rule="evenodd"/></g></svg>