<svg width="2253" height="678" xmlns="http://www.w3.org/2000/svg" xmlns:xlink="http://www.w3.org/1999/xlink" overflow="hidden"><defs><clipPath id="clip0"><rect x="1098" y="1589" width="2253" height="678"/></clipPath></defs><g clip-path="url(#clip0)" transform="translate(-1098 -1589)"><rect x="2735.5" y="1644.5" width="275" height="192" stroke="#000000" stroke-width="3.4375" stroke-miterlimit="8" fill="none"/><text font-family="Times New Roman,Times New Roman_MSFontService,sans-serif" font-weight="400" font-size="73" transform="matrix(1 0 0 1 2807.6 1723)">Unit<tspan font-size="73" x="-22.3438" y="88">Delay</tspan></text><path d="M3062.79 1677.51C3065 1677.51 3067.01 1677.64 3068.83 1677.9 3070.65 1678.16 3072.46 1678.62 3074.26 1679.26L3072.66 1686.74 3069.77 1686.74C3069.51 1684.63 3068.82 1683.02 3067.69 1681.93 3066.56 1680.84 3064.78 1680.29 3062.36 1680.29 3060.48 1680.29 3058.96 1680.77 3057.8 1681.73 3056.63 1682.7 3056.05 1683.96 3056.05 1685.53 3056.05 1686.39 3056.2 1687.14 3056.5 1687.79 3056.79 1688.45 3057.39 1689.17 3058.3 1689.95 3059.2 1690.74 3060.6 1691.7 3062.5 1692.84 3064 1693.74 3065.2 1694.57 3066.1 1695.32 3067.01 1696.06 3067.72 1696.81 3068.24 1697.54 3068.76 1698.28 3069.14 1699.06 3069.38 1699.88 3069.62 1700.7 3069.74 1701.69 3069.74 1702.85 3069.74 1704.97 3069.17 1706.78 3068.04 1708.29 3066.92 1709.8 3065.38 1710.92 3063.45 1711.66 3061.51 1712.4 3059.31 1712.76 3056.83 1712.76 3054.86 1712.76 3052.93 1712.61 3051.02 1712.32 3049.12 1712.02 3047.01 1711.52 3044.68 1710.8L3046.39 1703.03 3049.17 1703.03C3049.27 1705.31 3049.91 1707.04 3051.1 1708.2 3052.28 1709.37 3054.17 1709.95 3056.76 1709.95 3059.02 1709.95 3060.79 1709.44 3062.06 1708.43 3063.33 1707.42 3063.96 1705.99 3063.96 1704.14 3063.96 1703.07 3063.79 1702.15 3063.43 1701.38 3063.07 1700.6 3062.49 1699.86 3061.68 1699.15 3060.87 1698.43 3059.59 1697.54 3057.83 1696.47 3055.98 1695.36 3054.54 1694.35 3053.5 1693.44 3052.47 1692.54 3051.69 1691.56 3051.17 1690.5 3050.64 1689.45 3050.38 1688.23 3050.38 1686.85 3050.38 1684.97 3050.89 1683.33 3051.9 1681.91 3052.91 1680.5 3054.35 1679.41 3056.23 1678.65 3058.11 1677.89 3060.29 1677.51 3062.79 1677.51Z" fill-rule="evenodd"/><text fill="#000000" fill-opacity="0" font-family="Arial,Arial_MSFontService,sans-serif" font-size="35.2524" x="3044.68" y="1708.36">ğ‘ </text><path d="M3298.64 1657.3 3314.54 1657.3 3314.54 1725.27 3298.64 1725.27 3298.64 1722.53 3308.63 1722.53 3308.63 1660.04 3298.64 1660.04ZM3086.34 1657.3 3102.24 1657.3 3102.24 1660.04 3092.26 1660.04 3092.26 1722.53 3102.24 1722.53 3102.24 1725.27 3086.34 1725.27Z" fill-rule="evenodd"/><path d="M3115.11 1677.48C3116.6 1677.48 3117.79 1677.97 3118.65 1678.95 3119.52 1679.94 3119.95 1681.23 3119.95 1682.82 3119.95 1684.08 3119.67 1685.48 3119.1 1687.03L3119.53 1687.17C3121.86 1683.89 3124.07 1681.46 3126.17 1679.88 3128.28 1678.3 3130.45 1677.51 3132.68 1677.51 3134.89 1677.51 3136.59 1678.15 3137.78 1679.42 3138.97 1680.69 3139.56 1682.45 3139.56 1684.71 3139.56 1686.21 3139.21 1688.34 3138.53 1691.09L3136.21 1700.43C3135.57 1703.02 3135.25 1704.85 3135.25 1705.92 3135.25 1706.87 3135.4 1707.56 3135.71 1707.99 3136.02 1708.41 3136.51 1708.63 3137.17 1708.63 3137.88 1708.63 3138.64 1708.34 3139.45 1707.76 3140.26 1707.17 3141.4 1706.06 3142.87 1704.42L3144.91 1706.42C3142.86 1708.6 3141.08 1710.2 3139.56 1711.21 3138.04 1712.22 3136.3 1712.73 3134.35 1712.73 3132.81 1712.73 3131.57 1712.18 3130.65 1711.07 3129.72 1709.97 3129.26 1708.56 3129.26 1706.85 3129.26 1705.3 3129.65 1703.03 3130.43 1700.04L3132 1693.87C3132.57 1691.64 3132.95 1689.99 3133.13 1688.92 3133.3 1687.85 3133.39 1686.98 3133.39 1686.32 3133.39 1684.68 3133.12 1683.49 3132.57 1682.77 3132.03 1682.04 3131.14 1681.68 3129.9 1681.68 3128.9 1681.68 3127.83 1682.08 3126.67 1682.88 3125.52 1683.67 3124.3 1684.87 3123 1686.48 3121.71 1688.08 3120.67 1689.64 3119.88 1691.15 3119.1 1692.65 3118.46 1694.51 3117.96 1696.72L3114.57 1712.16 3108.41 1712.16 3113.61 1689.56C3114.13 1687.28 3114.39 1685.52 3114.39 1684.28 3114.39 1683.33 3114.24 1682.64 3113.93 1682.22 3113.62 1681.79 3113.13 1681.57 3112.47 1681.57 3111.73 1681.57 3110.95 1681.88 3110.13 1682.48 3109.31 1683.09 3108.19 1684.19 3106.77 1685.78L3104.73 1683.78C3106.92 1681.5 3108.74 1679.88 3110.19 1678.92 3111.64 1677.96 3113.28 1677.48 3115.11 1677.48Z" fill-rule="evenodd"/><text fill="#000000" fill-opacity="0" font-family="Arial,Arial_MSFontService,sans-serif" font-size="35.2524" x="3104.73" y="1708.32">ğ‘›</text><path d="M3168.57 1688.92 3212.48 1688.92 3212.48 1693.66 3168.57 1693.66Z" fill-rule="evenodd"/><text fill="#000000" fill-opacity="0" font-family="Arial,Arial_MSFontService,sans-serif" font-size="4.74072" x="3168.57" y="1693.07">âˆ’</text><path d="M3245.78 1677.48C3247.27 1677.48 3248.46 1677.97 3249.32 1678.95 3250.19 1679.94 3250.63 1681.23 3250.63 1682.82 3250.63 1684.13 3250.35 1685.52 3249.81 1686.99L3250.23 1687.14C3252.42 1683.88 3254.59 1681.46 3256.76 1679.88 3258.92 1678.3 3261.1 1677.51 3263.31 1677.51 3265.6 1677.51 3267.33 1678.16 3268.52 1679.45 3269.71 1680.75 3270.3 1682.62 3270.3 1685.07L3270.3 1685.57C3270.3 1685.73 3270.29 1685.91 3270.27 1686.1 3272.31 1683.2 3274.35 1681.05 3276.38 1679.63 3278.41 1678.22 3280.52 1677.51 3282.71 1677.51 3284.89 1677.51 3286.58 1678.14 3287.77 1679.4 3288.96 1680.66 3289.55 1682.43 3289.55 1684.71 3289.55 1686.21 3289.2 1688.34 3288.52 1691.09L3286.2 1700.43C3285.56 1703.02 3285.24 1704.85 3285.24 1705.92 3285.24 1706.87 3285.39 1707.56 3285.7 1707.99 3286.01 1708.41 3286.5 1708.63 3287.16 1708.63 3287.87 1708.63 3288.63 1708.34 3289.44 1707.76 3290.25 1707.17 3291.39 1706.06 3292.86 1704.42L3294.9 1706.42C3292.85 1708.58 3291.07 1710.17 3289.55 1711.2 3288.03 1712.22 3286.29 1712.73 3284.34 1712.73 3282.8 1712.73 3281.56 1712.18 3280.64 1711.07 3279.71 1709.97 3279.25 1708.56 3279.25 1706.85 3279.25 1705.3 3279.64 1703.03 3280.42 1700.04L3281.99 1693.87C3282.56 1691.64 3282.94 1689.99 3283.12 1688.92 3283.29 1687.85 3283.38 1686.98 3283.38 1686.32 3283.38 1684.68 3283.11 1683.49 3282.56 1682.77 3282.02 1682.04 3281.12 1681.68 3279.89 1681.68 3278.89 1681.68 3277.82 1682.06 3276.68 1682.8 3275.54 1683.55 3274.34 1684.72 3273.08 1686.3 3271.82 1687.88 3270.79 1689.43 3270 1690.97 3269.2 1692.5 3268.57 1694.37 3268.09 1696.58L3264.85 1712.16 3258.68 1712.16 3262.78 1694.05C3263.28 1691.84 3263.62 1690.21 3263.8 1689.15 3263.97 1688.09 3264.06 1687.18 3264.06 1686.42 3264.06 1684.71 3263.76 1683.49 3263.15 1682.77 3262.55 1682.04 3261.6 1681.68 3260.32 1681.68 3259.42 1681.68 3258.39 1682.06 3257.24 1682.8 3256.08 1683.55 3254.85 1684.75 3253.55 1686.4 3252.24 1688.06 3251.22 1689.64 3250.48 1691.16 3249.75 1692.68 3249.13 1694.54 3248.63 1696.72L3245.24 1712.16 3239.08 1712.16 3244.28 1689.56C3244.8 1687.28 3245.06 1685.52 3245.06 1684.28 3245.06 1683.33 3244.91 1682.64 3244.6 1682.22 3244.29 1681.79 3243.81 1681.57 3243.14 1681.57 3242.4 1681.57 3241.62 1681.88 3240.81 1682.48 3239.99 1683.09 3238.86 1684.19 3237.44 1685.78L3235.41 1683.78C3237.5 1681.6 3239.3 1680 3240.81 1678.99 3242.31 1677.98 3243.97 1677.48 3245.78 1677.48Z" fill-rule="evenodd"/><text fill="#000000" fill-opacity="0" font-family="Arial,Arial_MSFontService,sans-serif" font-size="35.2524" x="3235.41" y="1708.32">ğ‘š</text><path d="M2711.94 2127.53C2713.8 2127.53 2715.36 2128.18 2716.62 2129.49 2717.87 2130.8 2718.5 2132.45 2718.5 2134.46 2718.5 2136.47 2717.87 2138.12 2716.62 2139.43 2715.36 2140.74 2713.8 2141.39 2711.94 2141.39 2710.08 2141.39 2708.52 2140.74 2707.27 2139.43 2706.02 2138.12 2705.39 2136.47 2705.39 2134.46 2705.39 2132.45 2706.02 2130.8 2707.27 2129.49 2708.52 2128.18 2710.08 2127.53 2711.94 2127.53ZM2679.39 2127.53C2681.26 2127.53 2682.81 2128.18 2684.07 2129.49 2685.32 2130.8 2685.95 2132.45 2685.95 2134.46 2685.95 2136.47 2685.32 2138.12 2684.07 2139.43 2682.81 2140.74 2681.26 2141.39 2679.39 2141.39 2677.53 2141.39 2675.97 2140.74 2674.72 2139.43 2673.47 2138.12 2672.84 2136.47 2672.84 2134.46 2672.84 2132.45 2673.47 2130.8 2674.72 2129.49 2675.97 2128.18 2677.53 2127.53 2679.39 2127.53ZM2646.84 2127.53C2648.71 2127.53 2650.26 2128.18 2651.52 2129.49 2652.77 2130.8 2653.4 2132.45 2653.4 2134.46 2653.4 2136.47 2652.77 2138.12 2651.52 2139.43 2650.26 2140.74 2648.71 2141.39 2646.84 2141.39 2644.98 2141.39 2643.43 2140.74 2642.17 2139.43 2640.92 2138.12 2640.29 2136.47 2640.29 2134.46 2640.29 2132.45 2640.92 2130.8 2642.17 2129.49 2643.43 2128.18 2644.98 2127.53 2646.84 2127.53Z" fill-rule="evenodd"/><text fill="#000000" fill-opacity="0" font-family="Arial,Arial_MSFontService,sans-serif" font-size="13.8574" x="2640.29" y="2139.66">â‹¯</text><path d="M1733.5 2134C1733.5 2094.51 1765.29 2062.5 1804.5 2062.5 1843.71 2062.5 1875.5 2094.51 1875.5 2134 1875.5 2173.49 1843.71 2205.5 1804.5 2205.5 1765.29 2205.5 1733.5 2173.49 1733.5 2134Z" stroke="#000000" stroke-width="3.4375" stroke-linejoin="round" stroke-miterlimit="10" fill="none" fill-rule="evenodd"/><text font-family="Times New Roman,Times New Roman_MSFontService,sans-serif" font-weight="400" font-size="110" transform="matrix(1 0 0 1 1773.32 2174)">+</text><path d="M3085.5 2134.5C3085.5 2095.29 3117.51 2063.5 3157 2063.5 3196.49 2063.5 3228.5 2095.29 3228.5 2134.5 3228.5 2173.71 3196.49 2205.5 3157 2205.5 3117.51 2205.5 3085.5 2173.71 3085.5 2134.5Z" stroke="#000000" stroke-width="3.4375" stroke-linejoin="round" stroke-miterlimit="10" fill="none" fill-rule="evenodd"/><text font-family="Times New Roman,Times New Roman_MSFontService,sans-serif" font-weight="400" font-size="110" transform="matrix(1 0 0 1 3125.52 2174)">+</text><path d="M2706.6 1730.71C2708.46 1730.71 2710.02 1731.37 2711.27 1732.67 2712.53 1733.98 2713.15 1735.64 2713.15 1737.64 2713.15 1739.65 2712.53 1741.3 2711.27 1742.61 2710.02 1743.92 2708.46 1744.57 2706.6 1744.57 2704.74 1744.57 2703.18 1743.92 2701.93 1742.61 2700.67 1741.3 2700.05 1739.65 2700.05 1737.64 2700.05 1735.64 2700.67 1733.98 2701.93 1732.67 2703.18 1731.37 2704.74 1730.71 2706.6 1730.71ZM2674.05 1730.71C2675.91 1730.71 2677.47 1731.37 2678.72 1732.67 2679.98 1733.98 2680.6 1735.64 2680.6 1737.64 2680.6 1739.65 2679.98 1741.3 2678.72 1742.61 2677.47 1743.92 2675.91 1744.57 2674.05 1744.57 2672.19 1744.57 2670.63 1743.92 2669.38 1742.61 2668.13 1741.3 2667.5 1739.65 2667.5 1737.64 2667.5 1735.64 2668.13 1733.98 2669.38 1732.67 2670.63 1731.37 2672.19 1730.71 2674.05 1730.71ZM2641.5 1730.71C2643.36 1730.71 2644.92 1731.37 2646.18 1732.67 2647.43 1733.98 2648.06 1735.64 2648.06 1737.64 2648.06 1739.65 2647.43 1741.3 2646.18 1742.61 2644.92 1743.92 2643.36 1744.57 2641.5 1744.57 2639.64 1744.57 2638.08 1743.92 2636.83 1742.61 2635.58 1741.3 2634.95 1739.65 2634.95 1737.64 2634.95 1735.64 2635.58 1733.98 2636.83 1732.67 2638.08 1731.37 2639.64 1730.71 2641.5 1730.71Z" fill-rule="evenodd"/><text fill="#000000" fill-opacity="0" font-family="Arial,Arial_MSFontService,sans-serif" font-size="13.8574" x="2634.95" y="1742.84">â‹¯</text><path d="M2316.55 1677.51C2318.76 1677.51 2320.78 1677.64 2322.59 1677.9 2324.41 1678.16 2326.22 1678.62 2328.03 1679.26L2326.43 1686.74 2323.54 1686.74C2323.28 1684.63 2322.58 1683.02 2321.45 1681.93 2320.33 1680.84 2318.55 1680.29 2316.13 1680.29 2314.25 1680.29 2312.73 1680.77 2311.56 1681.73 2310.4 1682.7 2309.82 1683.96 2309.82 1685.53 2309.82 1686.39 2309.96 1687.14 2310.26 1687.79 2310.56 1688.45 2311.16 1689.17 2312.06 1689.95 2312.96 1690.74 2314.37 1691.7 2316.27 1692.84 2317.76 1693.74 2318.96 1694.57 2319.87 1695.32 2320.77 1696.06 2321.48 1696.81 2322.01 1697.54 2322.53 1698.28 2322.91 1699.06 2323.15 1699.88 2323.38 1700.7 2323.5 1701.69 2323.5 1702.85 2323.5 1704.97 2322.94 1706.78 2321.81 1708.29 2320.68 1709.8 2319.15 1710.92 2317.21 1711.66 2315.28 1712.4 2313.07 1712.76 2310.6 1712.76 2308.63 1712.76 2306.69 1712.61 2304.79 1712.32 2302.89 1712.02 2300.77 1711.52 2298.45 1710.8L2300.16 1703.03 2302.94 1703.03C2303.03 1705.31 2303.67 1707.04 2304.86 1708.2 2306.05 1709.37 2307.94 1709.95 2310.53 1709.95 2312.79 1709.95 2314.55 1709.44 2315.82 1708.43 2317.09 1707.42 2317.73 1705.99 2317.73 1704.14 2317.73 1703.07 2317.55 1702.15 2317.19 1701.38 2316.84 1700.6 2316.26 1699.86 2315.45 1699.15 2314.64 1698.43 2313.36 1697.54 2311.6 1696.47 2309.74 1695.36 2308.3 1694.35 2307.27 1693.44 2306.23 1692.54 2305.46 1691.56 2304.93 1690.5 2304.41 1689.45 2304.15 1688.23 2304.15 1686.85 2304.15 1684.97 2304.65 1683.33 2305.66 1681.91 2306.67 1680.5 2308.12 1679.41 2309.99 1678.65 2311.87 1677.89 2314.06 1677.51 2316.55 1677.51Z" fill-rule="evenodd"/><text fill="#000000" fill-opacity="0" font-family="Arial,Arial_MSFontService,sans-serif" font-size="35.2524" x="2298.45" y="1708.36">ğ‘ </text><path d="M2530.53 1657.3 2546.42 1657.3 2546.42 1725.27 2530.53 1725.27 2530.53 1722.53 2540.51 1722.53 2540.51 1660.04 2530.53 1660.04ZM2340.1 1657.3 2356 1657.3 2356 1660.04 2346.02 1660.04 2346.02 1722.53 2356 1722.53 2356 1725.27 2340.1 1725.27Z" fill-rule="evenodd"/><path d="M2368.87 1677.48C2370.37 1677.48 2371.55 1677.97 2372.42 1678.95 2373.29 1679.94 2373.72 1681.23 2373.72 1682.82 2373.72 1684.08 2373.44 1685.48 2372.86 1687.03L2373.29 1687.17C2375.62 1683.89 2377.84 1681.46 2379.94 1679.88 2382.04 1678.3 2384.21 1677.51 2386.45 1677.51 2388.66 1677.51 2390.35 1678.15 2391.54 1679.42 2392.73 1680.69 2393.32 1682.45 2393.32 1684.71 2393.32 1686.21 2392.98 1688.34 2392.29 1691.09L2389.97 1700.43C2389.33 1703.02 2389.01 1704.85 2389.01 1705.92 2389.01 1706.87 2389.17 1707.56 2389.48 1707.99 2389.78 1708.41 2390.27 1708.63 2390.94 1708.63 2391.65 1708.63 2392.41 1708.34 2393.22 1707.76 2394.03 1707.17 2395.17 1706.06 2396.64 1704.42L2398.67 1706.42C2396.63 1708.6 2394.85 1710.2 2393.32 1711.21 2391.8 1712.22 2390.07 1712.73 2388.12 1712.73 2386.58 1712.73 2385.34 1712.18 2384.41 1711.07 2383.49 1709.97 2383.02 1708.56 2383.02 1706.85 2383.02 1705.3 2383.42 1703.03 2384.2 1700.04L2385.77 1693.87C2386.34 1691.64 2386.71 1689.99 2386.89 1688.92 2387.07 1687.85 2387.16 1686.98 2387.16 1686.32 2387.16 1684.68 2386.89 1683.49 2386.34 1682.77 2385.79 1682.04 2384.9 1681.68 2383.67 1681.68 2382.67 1681.68 2381.59 1682.08 2380.44 1682.88 2379.29 1683.67 2378.06 1684.87 2376.77 1686.48 2375.47 1688.08 2374.43 1689.64 2373.65 1691.15 2372.86 1692.65 2372.22 1694.51 2371.72 1696.72L2368.34 1712.16 2362.17 1712.16 2367.38 1689.56C2367.9 1687.28 2368.16 1685.52 2368.16 1684.28 2368.16 1683.33 2368.01 1682.64 2367.7 1682.22 2367.39 1681.79 2366.9 1681.57 2366.23 1681.57 2365.5 1681.57 2364.72 1681.88 2363.9 1682.48 2363.08 1683.09 2361.96 1684.19 2360.53 1685.78L2358.5 1683.78C2360.69 1681.5 2362.5 1679.88 2363.95 1678.92 2365.4 1677.96 2367.04 1677.48 2368.87 1677.48Z" fill-rule="evenodd"/><text fill="#000000" fill-opacity="0" font-family="Arial,Arial_MSFontService,sans-serif" font-size="35.2524" x="2358.5" y="1708.32">ğ‘›</text><path d="M2422.33 1688.92 2466.25 1688.92 2466.25 1693.66 2422.33 1693.66Z" fill-rule="evenodd"/><text fill="#000000" fill-opacity="0" font-family="Arial,Arial_MSFontService,sans-serif" font-size="4.74072" x="2422.33" y="1693.07">âˆ’</text><path d="M2508.81 1662.93C2513.23 1662.93 2516.57 1663.9 2518.83 1665.84 2521.08 1667.77 2522.21 1670.58 2522.21 1674.27 2522.21 1675.53 2522.09 1676.69 2521.84 1677.74 2521.59 1678.8 2521.2 1679.85 2520.66 1680.88 2520.13 1681.91 2519.41 1683.02 2518.51 1684.21 2517.6 1685.4 2516.61 1686.61 2515.51 1687.83 2514.42 1689.05 2512.53 1691.09 2509.84 1693.94 2505.33 1698.72 2502.01 1702.89 2499.9 1706.45L2513.34 1706.45C2514.5 1706.45 2515.44 1706.38 2516.15 1706.24 2516.87 1706.1 2517.44 1705.86 2517.86 1705.53 2518.29 1705.19 2518.63 1704.76 2518.88 1704.23 2519.13 1703.69 2519.45 1702.87 2519.83 1701.75L2522.85 1701.75 2522.25 1712.16 2492.91 1712.16 2492.91 1710.45C2493.94 1707.95 2495.31 1705.4 2497.05 1702.78 2498.78 1700.17 2501.24 1697.09 2504.43 1693.55 2507.18 1690.51 2509.17 1688.2 2510.38 1686.64 2511.71 1684.93 2512.7 1683.45 2513.36 1682.2 2514.01 1680.95 2514.48 1679.77 2514.76 1678.67 2515.05 1677.56 2515.19 1676.45 2515.19 1675.34 2515.19 1673.55 2514.91 1671.98 2514.34 1670.61 2513.77 1669.25 2512.89 1668.17 2511.72 1667.39 2510.54 1666.6 2509.06 1666.21 2507.28 1666.21 2502.83 1666.21 2499.84 1668.68 2498.3 1673.63L2493.98 1673.63 2493.98 1666.78C2496.86 1665.43 2499.55 1664.45 2502.06 1663.84 2504.56 1663.24 2506.81 1662.93 2508.81 1662.93Z" fill-rule="evenodd"/><text fill="#000000" fill-opacity="0" font-family="Arial,Arial_MSFontService,sans-serif" font-size="49.2251" x="2492.91" y="1706">2</text><path d="M2414 1736.85 2567.21 1736.85 2567.21 1739.15 2414 1739.15ZM2562.63 1724.25 2590.13 1738 2562.63 1751.75Z"/><path d="M1.26595e-06-1.14583 303.734-1.1455 303.734 1.14617-1.26595e-06 1.14583ZM299.151-13.7497 326.651 0.000360892 299.151 13.7503Z" transform="matrix(-1 0 0 1 3087.65 2134)"/><path d="M3.57886e-06-1.14583 92.6292-1.14554 92.6292 1.14612-3.57886e-06 1.14583ZM88.0459-13.7497 115.546 0.000360892 88.0458 13.7503Z" transform="matrix(-1 0 0 1 2595.55 2134)"/><path d="M2448.45 1860.56 2450.51 1860.56 2444.38 1885.26 2444.81 1885.41C2447.07 1882.41 2449.2 1880.24 2451.21 1878.9 2453.22 1877.56 2455.24 1876.89 2457.29 1876.89 2459.5 1876.89 2461.2 1877.52 2462.38 1878.79 2463.57 1880.06 2464.17 1881.83 2464.17 1884.09 2464.17 1885.58 2463.82 1887.71 2463.13 1890.47L2460.82 1899.81C2460.17 1902.4 2459.85 1904.23 2459.85 1905.29 2459.85 1906.25 2460.01 1906.93 2460.32 1907.36 2460.63 1907.79 2461.11 1908 2461.78 1908 2462.49 1908 2463.25 1907.71 2464.06 1907.13 2464.87 1906.55 2466.01 1905.44 2467.48 1903.8L2469.51 1905.79C2467.23 1908.19 2465.36 1909.85 2463.9 1910.75 2462.44 1911.65 2460.79 1912.1 2458.96 1912.1 2457.42 1912.1 2456.19 1911.56 2455.27 1910.46 2454.36 1909.37 2453.9 1907.96 2453.9 1906.22 2453.9 1904.68 2454.29 1902.41 2455.08 1899.41L2456.61 1893.25C2457.16 1891.04 2457.52 1889.38 2457.72 1888.27 2457.91 1887.17 2458 1886.31 2458 1885.69 2458 1884 2457.73 1882.81 2457.18 1882.11 2456.63 1881.41 2455.74 1881.06 2454.51 1881.06 2453.53 1881.06 2452.45 1881.46 2451.26 1882.27 2450.08 1883.08 2448.83 1884.31 2447.52 1885.96 2446.21 1887.61 2445.17 1889.19 2444.4 1890.7 2443.63 1892.21 2443.02 1894.01 2442.57 1896.1L2439.32 1911.53 2433.16 1911.53 2442.32 1870.79C2442.89 1868.25 2443.17 1866.49 2443.17 1865.52 2443.17 1864.52 2442.87 1863.82 2442.26 1863.41 2441.66 1863.01 2440.57 1862.78 2439 1862.74L2439.43 1860.88Z" fill-rule="evenodd"/><text fill="#000000" fill-opacity="0" font-family="Arial,Arial_MSFontService,sans-serif" font-size="51.542" x="2433.16" y="1905.66">â„</text><path d="M2486 1892.98C2487.8 1892.98 2489.33 1893.19 2490.6 1893.59 2491.87 1894 2492.9 1894.55 2493.69 1895.24 2494.48 1895.93 2495.06 1896.75 2495.41 1897.72 2495.76 1898.69 2495.94 1899.73 2495.94 1900.85 2495.94 1901.52 2495.89 1902.15 2495.8 1902.73 2495.7 1903.31 2495.54 1903.87 2495.31 1904.44 2495.07 1905 2494.77 1905.56 2494.39 1906.13 2494.01 1906.7 2493.53 1907.3 2492.97 1907.94 2492.53 1908.49 2491.97 1909.13 2491.28 1909.86 2490.59 1910.58 2489.84 1911.36 2489.02 1912.19 2488.2 1913.01 2487.34 1913.88 2486.44 1914.77 2485.55 1915.67 2484.68 1916.56 2483.83 1917.44 2482.98 1918.32 2482.21 1919.17 2481.5 1920 2480.79 1920.83 2480.22 1921.59 2479.77 1922.28L2489.34 1922.28C2490.15 1922.28 2490.8 1922.25 2491.28 1922.19 2491.77 1922.13 2492.17 1921.99 2492.49 1921.79 2492.81 1921.58 2493.08 1921.27 2493.3 1920.84 2493.53 1920.42 2493.78 1919.84 2494.08 1919.1L2496.48 1919.1C2496.4 1920.32 2496.32 1921.55 2496.24 1922.8 2496.16 1924.04 2496.08 1925.27 2495.99 1926.5L2474.07 1926.5 2474.07 1925.15C2474.49 1924.22 2474.97 1923.3 2475.52 1922.4 2476.07 1921.49 2476.7 1920.57 2477.39 1919.64 2478.08 1918.71 2478.86 1917.75 2479.74 1916.75 2480.62 1915.76 2481.6 1914.73 2482.67 1913.66 2484.29 1912.04 2485.61 1910.65 2486.62 1909.51 2487.64 1908.36 2488.44 1907.34 2489.03 1906.44 2489.62 1905.54 2490.02 1904.72 2490.23 1903.96 2490.45 1903.2 2490.56 1902.39 2490.56 1901.52 2490.56 1900.64 2490.43 1899.83 2490.18 1899.09 2489.93 1898.35 2489.57 1897.72 2489.11 1897.2 2488.64 1896.68 2488.05 1896.28 2487.34 1895.99 2486.62 1895.69 2485.8 1895.55 2484.86 1895.55 2483.26 1895.55 2481.91 1895.98 2480.83 1896.85 2479.74 1897.72 2478.9 1898.99 2478.29 1900.64L2474.9 1900.64 2474.9 1895.6C2477.11 1894.68 2479.14 1894.02 2481 1893.6 2482.85 1893.19 2484.52 1892.98 2486 1892.98Z" fill-rule="evenodd"/><text fill="#000000" fill-opacity="0" font-family="Arial,Arial_MSFontService,sans-serif" font-size="33.5132" x="2474.07" y="1922.31">2</text><path d="M3217.13 1860.56 3219.2 1860.56 3213.07 1885.26 3213.49 1885.41C3215.75 1882.41 3217.88 1880.24 3219.89 1878.9 3221.9 1877.56 3223.93 1876.89 3225.97 1876.89 3228.18 1876.89 3229.88 1877.52 3231.07 1878.79 3232.26 1880.06 3232.85 1881.83 3232.85 1884.09 3232.85 1885.58 3232.5 1887.71 3231.82 1890.47L3229.5 1899.81C3228.86 1902.4 3228.54 1904.23 3228.54 1905.29 3228.54 1906.25 3228.69 1906.93 3229 1907.36 3229.31 1907.79 3229.8 1908 3230.46 1908 3231.17 1908 3231.93 1907.71 3232.74 1907.13 3233.55 1906.55 3234.69 1905.44 3236.16 1903.8L3238.2 1905.79C3235.91 1908.19 3234.04 1909.85 3232.58 1910.75 3231.12 1911.65 3229.48 1912.1 3227.65 1912.1 3226.1 1912.1 3224.87 1911.56 3223.96 1910.46 3223.04 1909.37 3222.58 1907.96 3222.58 1906.22 3222.58 1904.68 3222.98 1902.41 3223.76 1899.41L3225.29 1893.25C3225.84 1891.04 3226.21 1889.38 3226.4 1888.27 3226.59 1887.17 3226.68 1886.31 3226.68 1885.69 3226.68 1884 3226.41 1882.81 3225.86 1882.11 3225.32 1881.41 3224.43 1881.06 3223.19 1881.06 3222.22 1881.06 3221.13 1881.46 3219.95 1882.27 3218.76 1883.08 3217.51 1884.31 3216.2 1885.96 3214.9 1887.61 3213.86 1889.19 3213.08 1890.7 3212.31 1892.21 3211.7 1894.01 3211.25 1896.1L3208.01 1911.53 3201.84 1911.53 3211 1870.79C3211.57 1868.25 3211.85 1866.49 3211.85 1865.52 3211.85 1864.52 3211.55 1863.82 3210.95 1863.41 3210.34 1863.01 3209.25 1862.78 3207.68 1862.74L3208.11 1860.88Z" fill-rule="evenodd"/><text fill="#000000" fill-opacity="0" font-family="Arial,Arial_MSFontService,sans-serif" font-size="51.542" x="3201.84" y="1905.66">â„</text><path d="M3248.66 1900.07C3249.93 1900.07 3250.92 1900.49 3251.62 1901.33 3252.32 1902.17 3252.67 1903.27 3252.67 1904.63 3252.67 1905.01 3252.64 1905.38 3252.59 1905.74 3252.54 1906.1 3252.44 1906.46 3252.31 1906.8L3252.62 1906.93C3254.25 1904.64 3255.89 1902.92 3257.53 1901.78 3259.17 1900.64 3260.85 1900.07 3262.58 1900.07 3264.41 1900.07 3265.78 1900.54 3266.68 1901.49 3267.59 1902.43 3268.04 1903.81 3268.04 1905.64 3268.04 1905.79 3268.04 1905.94 3268.04 1906.09 3268.04 1906.24 3268.02 1906.39 3267.99 1906.54L3268.09 1906.54C3269.7 1904.35 3271.29 1902.73 3272.88 1901.67 3274.47 1900.61 3276.12 1900.07 3277.85 1900.07 3279.68 1900.07 3281.04 1900.57 3281.95 1901.55 3282.86 1902.53 3283.31 1903.91 3283.31 1905.69 3283.31 1906.23 3283.22 1906.95 3283.05 1907.85 3282.88 1908.76 3282.67 1909.75 3282.42 1910.84 3282.17 1911.93 3281.89 1913.05 3281.6 1914.22 3281.31 1915.38 3281.03 1916.48 3280.77 1917.52 3280.62 1918.19 3280.49 1918.74 3280.4 1919.16 3280.3 1919.58 3280.23 1919.94 3280.18 1920.22 3280.12 1920.51 3280.09 1920.75 3280.07 1920.96 3280.06 1921.17 3280.05 1921.39 3280.05 1921.63 3280.05 1922.29 3280.17 1922.76 3280.41 1923.06 3280.65 1923.35 3281.04 1923.5 3281.57 1923.5 3281.88 1923.5 3282.2 1923.43 3282.51 1923.31 3282.82 1923.19 3283.15 1923 3283.5 1922.74 3283.86 1922.49 3284.24 1922.15 3284.67 1921.75 3285.09 1921.34 3285.56 1920.86 3286.08 1920.29L3287.86 1921.99C3287.03 1922.86 3286.26 1923.6 3285.55 1924.22 3284.83 1924.84 3284.14 1925.35 3283.48 1925.76 3282.81 1926.16 3282.15 1926.47 3281.5 1926.67 3280.84 1926.86 3280.15 1926.96 3279.43 1926.96 3278.77 1926.96 3278.18 1926.84 3277.64 1926.6 3277.11 1926.36 3276.65 1926.03 3276.28 1925.6 3275.91 1925.18 3275.62 1924.68 3275.42 1924.1 3275.21 1923.53 3275.1 1922.89 3275.1 1922.2 3275.1 1920.79 3275.41 1918.97 3276.01 1916.74 3276.34 1915.62 3276.64 1914.55 3276.9 1913.52 3277.17 1912.49 3277.4 1911.54 3277.59 1910.67 3277.78 1909.8 3277.93 1909.02 3278.04 1908.34 3278.15 1907.66 3278.21 1907.1 3278.21 1906.65 3278.21 1905.58 3278.01 1904.79 3277.6 1904.29 3277.2 1903.79 3276.56 1903.54 3275.7 1903.54 3275.16 1903.54 3274.6 1903.68 3273.99 1903.96 3273.39 1904.23 3272.78 1904.62 3272.17 1905.11 3271.55 1905.6 3270.96 1906.18 3270.37 1906.85 3269.78 1907.53 3269.24 1908.26 3268.74 1909.04 3268.24 1909.83 3267.79 1910.65 3267.41 1911.51 3267.02 1912.38 3266.72 1913.25 3266.51 1914.13L3263.95 1926.5 3258.9 1926.5C3259.15 1925.39 3259.42 1924.21 3259.72 1922.94 3260.02 1921.67 3260.33 1920.39 3260.64 1919.1 3260.95 1917.8 3261.25 1916.53 3261.53 1915.27 3261.82 1914.01 3262.07 1912.83 3262.29 1911.73 3262.52 1910.64 3262.7 1909.65 3262.84 1908.78 3262.98 1907.91 3263.04 1907.22 3263.04 1906.7 3263.04 1905.61 3262.83 1904.81 3262.41 1904.31 3261.99 1903.8 3261.31 1903.54 3260.38 1903.54 3259.55 1903.54 3258.66 1903.85 3257.71 1904.47 3256.76 1905.1 3255.86 1905.91 3255.01 1906.92 3254.16 1907.93 3253.39 1909.07 3252.72 1910.34 3252.05 1911.6 3251.57 1912.88 3251.3 1914.18L3248.66 1926.5 3243.58 1926.5 3247.47 1909.62C3247.69 1908.69 3247.85 1907.88 3247.96 1907.19 3248.06 1906.5 3248.11 1905.93 3248.11 1905.48 3248.11 1904.22 3247.6 1903.59 3246.59 1903.59 3246.28 1903.59 3245.96 1903.66 3245.64 1903.79 3245.32 1903.92 3244.99 1904.11 3244.63 1904.37 3244.28 1904.63 3243.89 1904.96 3243.48 1905.35 3243.07 1905.75 3242.6 1906.22 3242.08 1906.75L3240.3 1905.07C3241.14 1904.21 3241.92 1903.46 3242.64 1902.83 3243.36 1902.2 3244.05 1901.68 3244.71 1901.28 3245.37 1900.87 3246.03 1900.57 3246.66 1900.37 3247.3 1900.17 3247.97 1900.07 3248.66 1900.07Z" fill-rule="evenodd"/><text fill="#000000" fill-opacity="0" font-family="Arial,Arial_MSFontService,sans-serif" font-size="26.8882" x="3240.3" y="1923.6">ğ‘š</text><path d="M1712.39 1677.51C1714.6 1677.51 1716.61 1677.64 1718.43 1677.9 1720.25 1678.16 1722.06 1678.62 1723.87 1679.26L1722.26 1686.74 1719.38 1686.74C1719.12 1684.63 1718.42 1683.02 1717.29 1681.93 1716.16 1680.84 1714.39 1680.29 1711.96 1680.29 1710.09 1680.29 1708.56 1680.77 1707.4 1681.73 1706.24 1682.7 1705.65 1683.96 1705.65 1685.53 1705.65 1686.39 1705.8 1687.14 1706.1 1687.79 1706.4 1688.45 1707 1689.17 1707.9 1689.95 1708.8 1690.74 1710.2 1691.7 1712.11 1692.84 1713.6 1693.74 1714.8 1694.57 1715.71 1695.32 1716.61 1696.06 1717.32 1696.81 1717.84 1697.54 1718.37 1698.28 1718.75 1699.06 1718.98 1699.88 1719.22 1700.7 1719.34 1701.69 1719.34 1702.85 1719.34 1704.97 1718.78 1706.78 1717.65 1708.29 1716.52 1709.8 1714.99 1710.92 1713.05 1711.66 1711.11 1712.4 1708.91 1712.76 1706.44 1712.76 1704.47 1712.76 1702.53 1712.61 1700.63 1712.32 1698.73 1712.02 1696.61 1711.52 1694.28 1710.8L1695.99 1703.03 1698.77 1703.03C1698.87 1705.31 1699.51 1707.04 1700.7 1708.2 1701.89 1709.37 1703.78 1709.95 1706.37 1709.95 1708.62 1709.95 1710.39 1709.44 1711.66 1708.43 1712.93 1707.42 1713.57 1705.99 1713.57 1704.14 1713.57 1703.07 1713.39 1702.15 1713.03 1701.38 1712.68 1700.6 1712.09 1699.86 1711.29 1699.15 1710.48 1698.43 1709.19 1697.54 1707.44 1696.47 1705.58 1695.36 1704.14 1694.35 1703.1 1693.44 1702.07 1692.54 1701.29 1691.56 1700.77 1690.5 1700.25 1689.45 1699.99 1688.23 1699.99 1686.85 1699.99 1684.97 1700.49 1683.33 1701.5 1681.91 1702.51 1680.5 1703.95 1679.41 1705.83 1678.65 1707.71 1677.89 1709.9 1677.51 1712.39 1677.51Z" fill-rule="evenodd"/><text fill="#000000" fill-opacity="0" font-family="Arial,Arial_MSFontService,sans-serif" font-size="35.2524" x="1694.28" y="1708.36">ğ‘ </text><path d="M1926.36 1657.3 1942.26 1657.3 1942.26 1725.27 1926.36 1725.27 1926.36 1722.53 1936.34 1722.53 1936.34 1660.04 1926.36 1660.04ZM1735.94 1657.3 1751.84 1657.3 1751.84 1660.04 1741.86 1660.04 1741.86 1722.53 1751.84 1722.53 1751.84 1725.27 1735.94 1725.27Z" fill-rule="evenodd"/><path d="M1764.71 1677.48C1766.21 1677.48 1767.39 1677.97 1768.26 1678.95 1769.12 1679.94 1769.56 1681.23 1769.56 1682.82 1769.56 1684.08 1769.27 1685.48 1768.7 1687.03L1769.13 1687.17C1771.46 1683.89 1773.67 1681.46 1775.78 1679.88 1777.88 1678.3 1780.05 1677.51 1782.28 1677.51 1784.49 1677.51 1786.19 1678.15 1787.38 1679.42 1788.57 1680.69 1789.16 1682.45 1789.16 1684.71 1789.16 1686.21 1788.82 1688.34 1788.13 1691.09L1785.81 1700.43C1785.17 1703.02 1784.85 1704.85 1784.85 1705.92 1784.85 1706.87 1785 1707.56 1785.31 1707.99 1785.62 1708.41 1786.11 1708.63 1786.77 1708.63 1787.49 1708.63 1788.25 1708.34 1789.06 1707.76 1789.86 1707.17 1791 1706.06 1792.48 1704.42L1794.51 1706.42C1792.47 1708.6 1790.68 1710.2 1789.16 1711.21 1787.64 1712.22 1785.91 1712.73 1783.96 1712.73 1782.41 1712.73 1781.18 1712.18 1780.25 1711.07 1779.32 1709.97 1778.86 1708.56 1778.86 1706.85 1778.86 1705.3 1779.25 1703.03 1780.04 1700.04L1781.61 1693.87C1782.18 1691.64 1782.55 1689.99 1782.73 1688.92 1782.91 1687.85 1783 1686.98 1783 1686.32 1783 1684.68 1782.72 1683.49 1782.18 1682.77 1781.63 1682.04 1780.74 1681.68 1779.5 1681.68 1778.5 1681.68 1777.43 1682.08 1776.28 1682.88 1775.12 1683.67 1773.9 1684.87 1772.61 1686.48 1771.31 1688.08 1770.27 1689.64 1769.49 1691.15 1768.7 1692.65 1768.06 1694.51 1767.56 1696.72L1764.18 1712.16 1758.01 1712.16 1763.21 1689.56C1763.74 1687.28 1764 1685.52 1764 1684.28 1764 1683.33 1763.84 1682.64 1763.53 1682.22 1763.22 1681.79 1762.74 1681.57 1762.07 1681.57 1761.34 1681.57 1760.56 1681.88 1759.74 1682.48 1758.92 1683.09 1757.79 1684.19 1756.37 1685.78L1754.34 1683.78C1756.52 1681.5 1758.34 1679.88 1759.79 1678.92 1761.24 1677.96 1762.88 1677.48 1764.71 1677.48Z" fill-rule="evenodd"/><text fill="#000000" fill-opacity="0" font-family="Arial,Arial_MSFontService,sans-serif" font-size="35.2524" x="1754.34" y="1708.32">ğ‘›</text><path d="M1818.17 1688.92 1862.08 1688.92 1862.08 1693.66 1818.17 1693.66Z" fill-rule="evenodd"/><text fill="#000000" fill-opacity="0" font-family="Arial,Arial_MSFontService,sans-serif" font-size="4.74072" x="1818.17" y="1693.07">âˆ’</text><path d="M1907.18 1662.93 1909.14 1662.93C1909 1665.21 1908.93 1668.37 1908.93 1672.41L1908.93 1702.85C1908.93 1704.23 1909 1705.27 1909.16 1705.97 1909.31 1706.67 1909.59 1707.24 1909.98 1707.68 1910.37 1708.12 1910.93 1708.47 1911.67 1708.72 1912.41 1708.97 1913.33 1709.16 1914.45 1709.29 1915.57 1709.42 1917.04 1709.51 1918.87 1709.56L1918.87 1712.16 1892.53 1712.16 1892.53 1709.56C1895.17 1709.44 1897.05 1709.28 1898.18 1709.07 1899.31 1708.87 1900.17 1708.57 1900.76 1708.17 1901.36 1707.76 1901.79 1707.19 1902.06 1706.45 1902.34 1705.72 1902.47 1704.52 1902.47 1702.85L1902.47 1673.95C1902.47 1673 1902.31 1672.3 1901.97 1671.86 1901.64 1671.42 1901.16 1671.2 1900.51 1671.2 1899.75 1671.2 1898.67 1671.59 1897.27 1672.38 1895.87 1673.16 1894.13 1674.24 1892.07 1675.62L1890.5 1672.88Z" fill-rule="evenodd"/><text fill="#000000" fill-opacity="0" font-family="Arial,Arial_MSFontService,sans-serif" font-size="49.2251" x="1890.5" y="1706">1</text><path d="M1805 1738.85 1958.21 1738.85 1958.21 1741.15 1805 1741.15ZM1953.63 1726.25 1981.13 1740 1953.63 1753.75Z"/><path d="M1846.14 1860.56 1848.2 1860.56 1842.07 1885.26 1842.5 1885.41C1844.76 1882.41 1846.89 1880.24 1848.9 1878.9 1850.91 1877.56 1852.93 1876.89 1854.98 1876.89 1857.19 1876.89 1858.88 1877.52 1860.07 1878.79 1861.26 1880.06 1861.85 1881.83 1861.85 1884.09 1861.85 1885.58 1861.51 1887.71 1860.82 1890.47L1858.5 1899.81C1857.86 1902.4 1857.54 1904.23 1857.54 1905.29 1857.54 1906.25 1857.7 1906.93 1858.01 1907.36 1858.31 1907.79 1858.8 1908 1859.47 1908 1860.18 1908 1860.94 1907.71 1861.75 1907.13 1862.56 1906.55 1863.7 1905.44 1865.17 1903.8L1867.2 1905.79C1864.92 1908.19 1863.05 1909.85 1861.59 1910.75 1860.13 1911.65 1858.48 1912.1 1856.65 1912.1 1855.11 1912.1 1853.88 1911.56 1852.96 1910.46 1852.05 1909.37 1851.59 1907.96 1851.59 1906.22 1851.59 1904.68 1851.98 1902.41 1852.77 1899.41L1854.3 1893.25C1854.84 1891.04 1855.21 1889.38 1855.4 1888.27 1855.59 1887.17 1855.69 1886.31 1855.69 1885.69 1855.69 1884 1855.41 1882.81 1854.87 1882.11 1854.32 1881.41 1853.43 1881.06 1852.2 1881.06 1851.22 1881.06 1850.14 1881.46 1848.95 1882.27 1847.76 1883.08 1846.52 1884.31 1845.21 1885.96 1843.9 1887.61 1842.86 1889.19 1842.09 1890.7 1841.32 1892.21 1840.71 1894.01 1840.25 1896.1L1837.01 1911.53 1830.84 1911.53 1840 1870.79C1840.57 1868.25 1840.86 1866.49 1840.86 1865.52 1840.86 1864.52 1840.56 1863.82 1839.95 1863.41 1839.35 1863.01 1838.26 1862.78 1836.69 1862.74L1837.12 1860.88Z" fill-rule="evenodd"/><text fill="#000000" fill-opacity="0" font-family="Arial,Arial_MSFontService,sans-serif" font-size="51.542" x="1830.84" y="1905.66">â„</text><path d="M1884.01 1893.17 1885.59 1893.17C1885.56 1894.11 1885.53 1894.96 1885.52 1895.71 1885.5 1896.46 1885.49 1897.19 1885.48 1897.9 1885.47 1898.61 1885.46 1899.31 1885.46 1900L1885.46 1919.67C1885.46 1920.2 1885.48 1920.66 1885.52 1921.05 1885.55 1921.44 1885.61 1921.77 1885.68 1922.03 1885.76 1922.3 1885.86 1922.53 1885.99 1922.72 1886.12 1922.91 1886.27 1923.07 1886.45 1923.21 1886.65 1923.42 1886.93 1923.58 1887.28 1923.69 1887.62 1923.8 1888.06 1923.9 1888.59 1923.97 1889.13 1924.05 1889.77 1924.11 1890.52 1924.16 1891.27 1924.2 1892.17 1924.23 1893.23 1924.25L1893.23 1926.5 1872.71 1926.5 1872.71 1924.25C1873.72 1924.21 1874.59 1924.17 1875.29 1924.13 1876 1924.09 1876.6 1924.03 1877.1 1923.95 1877.6 1923.87 1878.01 1923.78 1878.31 1923.69 1878.61 1923.59 1878.87 1923.48 1879.1 1923.34 1879.34 1923.18 1879.55 1923.02 1879.72 1922.84 1879.89 1922.65 1880.03 1922.43 1880.13 1922.15 1880.24 1921.87 1880.32 1921.54 1880.38 1921.14 1880.44 1920.74 1880.47 1920.25 1880.47 1919.67L1880.47 1901.11C1880.47 1900.44 1880.34 1899.96 1880.08 1899.69 1879.82 1899.41 1879.45 1899.27 1878.97 1899.27 1878.43 1899.27 1877.64 1899.55 1876.59 1900.1 1875.53 1900.65 1874.17 1901.47 1872.5 1902.56 1872.27 1902.16 1872.07 1901.77 1871.88 1901.37 1871.69 1900.97 1871.49 1900.57 1871.28 1900.15 1873.42 1898.98 1875.54 1897.81 1877.64 1896.65 1879.73 1895.48 1881.86 1894.32 1884.01 1893.17Z" fill-rule="evenodd"/><text fill="#000000" fill-opacity="0" font-family="Arial,Arial_MSFontService,sans-serif" font-size="33.332" x="1871.28" y="1922.33">1</text><path d="M2338.5 2134C2338.5 2094.51 2370.29 2062.5 2409.5 2062.5 2448.71 2062.5 2480.5 2094.51 2480.5 2134 2480.5 2173.49 2448.71 2205.5 2409.5 2205.5 2370.29 2205.5 2338.5 2173.49 2338.5 2134Z" stroke="#000000" stroke-width="3.4375" stroke-linejoin="round" stroke-miterlimit="10" fill="none" fill-rule="evenodd"/><text font-family="Times New Roman,Times New Roman_MSFontService,sans-serif" font-weight="400" font-size="110" transform="matrix(1 0 0 1 2378.32 2174)">+</text><path d="M8.93569e-07-1.14583 439.86-1.14549 439.86 1.14618-8.93569e-07 1.14583ZM435.276-13.7497 462.776 0.000360892 435.276 13.7503Z" transform="matrix(-1 0 0 1 2337.78 2134)"/><rect x="1985.5" y="1644.5" width="275" height="192" stroke="#000000" stroke-width="3.4375" stroke-miterlimit="8" fill="none"/><text font-family="Times New Roman,Times New Roman_MSFontService,sans-serif" font-weight="400" font-size="73" transform="matrix(1 0 0 1 2056.85 1723)">Unit<tspan font-size="73" x="-22.3439" y="88">Delay</tspan></text><path d="M1235.03 1677.56C1237.24 1677.56 1239.25 1677.69 1241.07 1677.95 1242.89 1678.21 1244.7 1678.66 1246.51 1679.31L1244.9 1686.79 1242.02 1686.79C1241.76 1684.68 1241.06 1683.07 1239.93 1681.98 1238.8 1680.89 1237.03 1680.34 1234.6 1680.34 1232.73 1680.34 1231.2 1680.82 1230.04 1681.78 1228.88 1682.75 1228.29 1684.01 1228.29 1685.58 1228.29 1686.43 1228.44 1687.19 1228.74 1687.84 1229.04 1688.5 1229.64 1689.22 1230.54 1690 1231.44 1690.78 1232.84 1691.75 1234.75 1692.89 1236.24 1693.79 1237.44 1694.62 1238.35 1695.36 1239.25 1696.11 1239.96 1696.85 1240.48 1697.59 1241.01 1698.33 1241.39 1699.11 1241.62 1699.93 1241.86 1700.75 1241.98 1701.74 1241.98 1702.9 1241.98 1705.02 1241.42 1706.83 1240.29 1708.34 1239.16 1709.85 1237.63 1710.97 1235.69 1711.71 1233.75 1712.44 1231.55 1712.81 1229.08 1712.81 1227.11 1712.81 1225.17 1712.66 1223.27 1712.37 1221.37 1712.07 1219.25 1711.56 1216.92 1710.85L1218.63 1703.08 1221.41 1703.08C1221.51 1705.36 1222.15 1707.08 1223.34 1708.25 1224.53 1709.41 1226.42 1710 1229.01 1710 1231.26 1710 1233.03 1709.49 1234.3 1708.48 1235.57 1707.47 1236.21 1706.04 1236.21 1704.19 1236.21 1703.12 1236.03 1702.2 1235.67 1701.42 1235.32 1700.65 1234.73 1699.91 1233.93 1699.2 1233.12 1698.48 1231.83 1697.59 1230.08 1696.52 1228.22 1695.41 1226.78 1694.4 1225.75 1693.49 1224.71 1692.59 1223.93 1691.61 1223.41 1690.55 1222.89 1689.49 1222.63 1688.28 1222.63 1686.9 1222.63 1685.02 1223.13 1683.38 1224.14 1681.96 1225.15 1680.55 1226.59 1679.46 1228.47 1678.7 1230.35 1677.94 1232.54 1677.56 1235.03 1677.56Z" fill-rule="evenodd"/><text fill="#000000" fill-opacity="0" font-family="Arial,Arial_MSFontService,sans-serif" font-size="35.2524" x="1216.92" y="1708.41">ğ‘ </text><path d="M1320.74 1657.35 1336.64 1657.35 1336.64 1725.32 1320.74 1725.32 1320.74 1722.58 1330.72 1722.58 1330.72 1660.09 1320.74 1660.09ZM1258.58 1657.35 1274.48 1657.35 1274.48 1660.09 1264.5 1660.09 1264.5 1722.58 1274.48 1722.58 1274.48 1725.32 1258.58 1725.32Z" fill-rule="evenodd"/><path d="M1287.35 1677.52C1288.85 1677.52 1290.03 1678.02 1290.9 1679 1291.76 1679.99 1292.2 1681.28 1292.2 1682.87 1292.2 1684.13 1291.91 1685.53 1291.34 1687.08L1291.77 1687.22C1294.1 1683.94 1296.31 1681.51 1298.42 1679.93 1300.52 1678.35 1302.69 1677.56 1304.92 1677.56 1307.13 1677.56 1308.83 1678.19 1310.02 1679.47 1311.21 1680.74 1311.8 1682.5 1311.8 1684.76 1311.8 1686.26 1311.46 1688.38 1310.77 1691.14L1308.45 1700.48C1307.81 1703.07 1307.49 1704.9 1307.49 1705.97 1307.49 1706.92 1307.64 1707.61 1307.95 1708.04 1308.26 1708.46 1308.75 1708.68 1309.41 1708.68 1310.13 1708.68 1310.89 1708.39 1311.7 1707.8 1312.5 1707.22 1313.64 1706.11 1315.12 1704.47L1317.15 1706.47C1315.11 1708.65 1313.32 1710.25 1311.8 1711.26 1310.28 1712.27 1308.55 1712.78 1306.6 1712.78 1305.05 1712.78 1303.82 1712.22 1302.89 1711.12 1301.96 1710.01 1301.5 1708.61 1301.5 1706.89 1301.5 1705.35 1301.89 1703.08 1302.68 1700.09L1304.25 1693.92C1304.82 1691.69 1305.19 1690.03 1305.37 1688.97 1305.55 1687.9 1305.64 1687.03 1305.64 1686.36 1305.64 1684.72 1305.36 1683.54 1304.82 1682.82 1304.27 1682.09 1303.38 1681.73 1302.14 1681.73 1301.14 1681.73 1300.07 1682.13 1298.92 1682.92 1297.76 1683.72 1296.54 1684.92 1295.25 1686.52 1293.95 1688.13 1292.91 1689.68 1292.13 1691.19 1291.34 1692.7 1290.7 1694.56 1290.2 1696.77L1286.82 1712.21 1280.65 1712.21 1285.85 1689.61C1286.38 1687.33 1286.64 1685.57 1286.64 1684.33 1286.64 1683.38 1286.48 1682.69 1286.17 1682.26 1285.86 1681.84 1285.38 1681.62 1284.71 1681.62 1283.98 1681.62 1283.2 1681.93 1282.38 1682.53 1281.56 1683.14 1280.44 1684.24 1279.01 1685.83L1276.98 1683.83C1279.16 1681.55 1280.98 1679.93 1282.43 1678.97 1283.88 1678 1285.52 1677.52 1287.35 1677.52Z" fill-rule="evenodd"/><text fill="#000000" fill-opacity="0" font-family="Arial,Arial_MSFontService,sans-serif" font-size="35.2524" x="1276.98" y="1708.37">ğ‘›</text><path d="M1099.5 1924C1099.5 1884.51 1131.29 1852.5 1170.5 1852.5 1209.71 1852.5 1241.5 1884.51 1241.5 1924 1241.5 1963.49 1209.71 1995.5 1170.5 1995.5 1131.29 1995.5 1099.5 1963.49 1099.5 1924Z" stroke="#000000" stroke-width="3.4375" stroke-linejoin="round" stroke-miterlimit="10" fill="none" fill-rule="evenodd"/><path d="M1166.23 1926.28C1164.74 1926.28 1163.55 1926.78 1162.69 1927.77 1161.82 1928.77 1161.21 1930.18 1160.85 1932 1160.49 1933.82 1160.32 1936.07 1160.32 1938.75 1160.32 1943.36 1160.79 1946.71 1161.74 1948.8 1162.69 1950.9 1164.2 1951.94 1166.27 1951.94 1168.22 1951.94 1169.66 1950.97 1170.6 1949.02 1171.54 1947.07 1172.01 1943.96 1172.01 1939.68 1172.01 1935.12 1171.54 1931.74 1170.6 1929.56 1169.66 1927.37 1168.21 1926.28 1166.23 1926.28ZM1166.27 1923.71C1168.34 1923.71 1170.07 1924.08 1171.47 1924.82 1172.87 1925.55 1174.01 1926.58 1174.88 1927.9 1175.74 1929.22 1176.36 1930.8 1176.73 1932.64 1177.1 1934.48 1177.28 1936.51 1177.28 1938.72 1177.28 1943.92 1176.3 1947.85 1174.34 1950.51 1172.38 1953.18 1169.56 1954.51 1165.88 1954.51 1162.24 1954.51 1159.53 1953.25 1157.73 1950.73 1155.94 1948.21 1155.04 1944.42 1155.04 1939.36 1155.04 1935.84 1155.52 1932.91 1156.48 1930.57 1157.45 1928.23 1158.77 1926.5 1160.44 1925.39 1162.12 1924.27 1164.06 1923.71 1166.27 1923.71ZM1131.02 1903.86C1129.52 1903.86 1128.34 1904.36 1127.47 1905.35 1126.6 1906.35 1125.99 1907.76 1125.63 1909.58 1125.28 1911.39 1125.1 1913.65 1125.1 1916.33 1125.1 1920.94 1125.57 1924.29 1126.53 1926.38 1127.48 1928.47 1128.98 1929.52 1131.05 1929.52 1133 1929.52 1134.44 1928.55 1135.38 1926.6 1136.32 1924.65 1136.79 1921.54 1136.79 1917.26 1136.79 1912.7 1136.32 1909.32 1135.38 1907.14 1134.44 1904.95 1132.99 1903.86 1131.02 1903.86ZM1161.74 1901.86 1166.91 1901.86 1135.47 1953.94 1130.23 1953.94ZM1201.58 1901.29C1206 1901.29 1209.34 1902.26 1211.59 1904.19 1213.85 1906.13 1214.98 1908.94 1214.98 1912.62 1214.98 1913.88 1214.85 1915.04 1214.6 1916.1 1214.36 1917.16 1213.96 1918.2 1213.43 1919.24 1212.89 1920.27 1212.18 1921.38 1211.27 1922.57 1210.37 1923.76 1209.37 1924.96 1208.28 1926.19 1207.18 1927.41 1205.3 1929.45 1202.61 1932.3 1198.1 1937.08 1194.78 1941.25 1192.67 1944.81L1206.1 1944.81C1207.27 1944.81 1208.21 1944.74 1208.92 1944.6 1209.63 1944.46 1210.2 1944.22 1210.63 1943.88 1211.06 1943.55 1211.4 1943.12 1211.65 1942.58 1211.9 1942.05 1212.21 1941.22 1212.59 1940.11L1215.62 1940.11 1215.01 1950.51 1185.68 1950.51 1185.68 1948.8C1186.7 1946.31 1188.08 1943.75 1189.81 1941.14 1191.55 1938.53 1194.01 1935.45 1197.19 1931.91 1199.95 1928.87 1201.93 1926.56 1203.15 1924.99 1204.48 1923.28 1205.47 1921.8 1206.12 1920.56 1206.77 1919.31 1207.24 1918.13 1207.53 1917.03 1207.81 1915.92 1207.96 1914.81 1207.96 1913.69 1207.96 1911.91 1207.67 1910.34 1207.1 1908.97 1206.53 1907.6 1205.66 1906.53 1204.48 1905.75 1203.31 1904.96 1201.83 1904.57 1200.04 1904.57 1195.6 1904.57 1192.61 1907.04 1191.06 1911.98L1186.75 1911.98 1186.75 1905.14C1189.62 1903.78 1192.32 1902.8 1194.82 1902.2 1197.33 1901.59 1199.58 1901.29 1201.58 1901.29ZM1131.05 1901.29C1133.12 1901.29 1134.85 1901.66 1136.26 1902.39 1137.66 1903.13 1138.79 1904.16 1139.66 1905.48 1140.53 1906.8 1141.15 1908.38 1141.51 1910.22 1141.88 1912.06 1142.07 1914.09 1142.07 1916.3 1142.07 1921.5 1141.09 1925.43 1139.13 1928.09 1137.16 1930.76 1134.34 1932.09 1130.66 1932.09 1127.02 1932.09 1124.31 1930.83 1122.52 1928.31 1120.72 1925.79 1119.82 1922 1119.82 1916.94 1119.82 1913.42 1120.31 1910.49 1121.27 1908.15 1122.23 1905.81 1123.55 1904.08 1125.22 1902.96 1126.9 1901.85 1128.84 1901.29 1131.05 1901.29Z" fill-rule="evenodd"/><text fill="#000000" fill-opacity="0" font-family="Arial,Arial_MSFontService,sans-serif" font-size="53.2173" x="1119.82" y="1947.85">%2</text><path d="M1732.92 2135.11 1168.85 2135.11 1168.85 2017.92 1171.15 2017.92 1171.15 2133.96 1170 2132.82 1732.92 2132.82ZM1156.25 2022.5 1170 1995 1183.75 2022.5Z"/><path d="M0 116.2 13.9998 75.618 13.9998 94.5178C25.1424 89.9546 34.1096 80.1645 38.701 67.5499 47.7123 92.3082 37.6904 120.841 16.3164 131.279 15.5532 131.651 14.7807 131.998 13.9998 132.318L13.9998 151.218Z" fill="#BFBFBF" fill-rule="evenodd" transform="matrix(6.12323e-17 1 1 -6.12323e-17 2320.5 1931.5)"/><path d="M41.9999 86.45C41.9999 59.5813 23.1959 37.7999 7.35236e-15 37.7999L0 0C23.1959-9.80313e-15 41.9999 21.7814 41.9999 48.6501Z" fill="#9A9A9A" fill-rule="evenodd" transform="matrix(6.12323e-17 1 1 -6.12323e-17 2320.5 1931.5)"/><path d="M41.9999 86.45C41.9999 59.5813 23.1959 37.7999 7.35236e-15 37.7999L0 0C23.1959-9.80313e-15 41.9999 21.7814 41.9999 48.6501L41.9999 86.45C41.9999 107.067 30.7808 125.446 13.9998 132.318L13.9998 151.218 0 116.2 13.9998 75.618 13.9998 94.5178C25.1424 89.9546 34.1096 80.1645 38.701 67.5499" stroke="#000000" stroke-width="3.4375" stroke-miterlimit="8" fill="none" fill-rule="evenodd" transform="matrix(6.12323e-17 1 1 -6.12323e-17 2320.5 1931.5)"/><path d="M2262 1738 2411.64 1738 2411.64 1896.84" stroke="#000000" stroke-width="2.29167" stroke-miterlimit="8" fill="none" fill-rule="evenodd"/><path d="M0.981473-0.591308 75.1751 122.558 73.2121 123.74-0.981473 0.591308ZM83.6061 112.127 86.0198 142.778 60.0507 126.319Z" transform="matrix(-1 0 0 1 2411.02 1897)"/><path d="M0 116.2 13.9998 75.618 13.9998 94.5178C25.1424 89.9546 34.1096 80.1645 38.701 67.5499 47.7123 92.3082 37.6904 120.841 16.3164 131.279 15.5532 131.651 14.7807 131.998 13.9998 132.318L13.9998 151.218Z" fill="#BFBFBF" fill-rule="evenodd" transform="matrix(6.12323e-17 1 1 -6.12323e-17 3068.5 1933.5)"/><path d="M41.9999 86.45C41.9999 59.5813 23.1959 37.7999 7.35236e-15 37.7999L0 0C23.1959-9.80313e-15 41.9999 21.7814 41.9999 48.6501Z" fill="#9A9A9A" fill-rule="evenodd" transform="matrix(6.12323e-17 1 1 -6.12323e-17 3068.5 1933.5)"/><path d="M41.9999 86.45C41.9999 59.5813 23.1959 37.7999 7.35236e-15 37.7999L0 0C23.1959-9.80313e-15 41.9999 21.7814 41.9999 48.6501L41.9999 86.45C41.9999 107.067 30.7808 125.446 13.9998 132.318L13.9998 151.218 0 116.2 13.9998 75.618 13.9998 94.5178C25.1424 89.9546 34.1096 80.1645 38.701 67.5499" stroke="#000000" stroke-width="3.4375" stroke-miterlimit="8" fill="none" fill-rule="evenodd" transform="matrix(6.12323e-17 1 1 -6.12323e-17 3068.5 1933.5)"/><path d="M3010 1740 3159.64 1740 3159.64 1898.84" stroke="#000000" stroke-width="2.29167" stroke-miterlimit="8" fill="none" fill-rule="evenodd"/><path d="M0.981473-0.591308 75.1751 122.558 73.2121 123.74-0.981473 0.591308ZM83.6061 112.127 86.0198 142.778 60.0507 126.319Z" transform="matrix(-1 0 0 1 3159.02 1899)"/><path d="M0 116.2 13.9998 75.618 13.9998 94.5178C25.1424 89.9546 34.1096 80.1645 38.701 67.5499 47.7123 92.3082 37.6904 120.841 16.3164 131.279 15.5532 131.651 14.7807 131.998 13.9998 132.318L13.9998 151.218Z" fill="#BFBFBF" fill-rule="evenodd" transform="matrix(6.12323e-17 1 1 -6.12323e-17 1714.5 1933.5)"/><path d="M41.9999 86.45C41.9999 59.5813 23.1959 37.7999 7.35236e-15 37.7999L0 0C23.1959-9.80313e-15 41.9999 21.7814 41.9999 48.6501Z" fill="#9A9A9A" fill-rule="evenodd" transform="matrix(6.12323e-17 1 1 -6.12323e-17 1714.5 1933.5)"/><path d="M41.9999 86.45C41.9999 59.5813 23.1959 37.7999 7.35236e-15 37.7999L0 0C23.1959-9.80313e-15 41.9999 21.7814 41.9999 48.6501L41.9999 86.45C41.9999 107.067 30.7808 125.446 13.9998 132.318L13.9998 151.218 0 116.2 13.9998 75.618 13.9998 94.5178C25.1424 89.9546 34.1096 80.1645 38.701 67.5499" stroke="#000000" stroke-width="3.4375" stroke-miterlimit="8" fill="none" fill-rule="evenodd" transform="matrix(6.12323e-17 1 1 -6.12323e-17 1714.5 1933.5)"/><path d="M1656 1740 1805.64 1740 1805.64 1898.84" stroke="#000000" stroke-width="2.29167" stroke-miterlimit="8" fill="none" fill-rule="evenodd"/><path d="M0.981473-0.591308 75.1751 122.558 73.2121 123.74-0.981473 0.591308ZM83.6061 112.127 86.0198 142.778 60.0507 126.319Z" transform="matrix(-1 0 0 1 1805.02 1899)"/><rect x="1381.5" y="1644.5" width="275" height="192" stroke="#000000" stroke-width="3.4375" stroke-miterlimit="8" fill="none"/><text font-family="Times New Roman,Times New Roman_MSFontService,sans-serif" font-weight="400" font-size="73" transform="matrix(1 0 0 1 1452.69 1723)">Unit<tspan font-size="73" x="-22.3438" y="88">Delay</tspan></text><path d="M1168.85 1852.25 1168.85 1738.85 1357.36 1738.85 1357.36 1741.15 1170 1741.15 1171.15 1740 1171.15 1852.25ZM1352.78 1726.25 1380.28 1740 1352.78 1753.75Z"/></g></svg>